<svg width="148" height="48" viewBox="0 0 148 48" fill="none" xmlns="http://www.w3.org/2000/svg">
<path d="M53.6125 30.1176C55.8513 29.4118 57.2653 28 57.2653 25.2941C57.2653 21.4118 53.966 20.1176 50.1955 20.1176H43.3613V40.7059H50.1955C54.9087 40.7059 58.3257 39.1765 58.3257 34.9412C58.0901 32.1176 56.087 30.4706 53.6125 30.1176ZM47.6032 23.5294H49.7241C51.8451 23.5294 53.0234 24.2353 53.0234 26C53.0234 27.8823 51.9629 28.7059 49.6063 28.7059H47.6032V23.5294ZM49.842 37.4118H47.6032V31.7647H50.0776C52.5521 31.7647 53.7304 32.7059 53.7304 34.7059C53.7304 36.7059 52.4342 37.4118 49.842 37.4118ZM72.701 30.9412C72.701 26.9412 70.6979 25.4118 66.6917 25.4118C63.5103 25.4118 61.5071 26.7059 60.5645 27.5294L62.332 30C62.9211 29.647 64.2172 28.5882 66.2203 28.5882C68.1056 28.5882 68.6948 29.4118 68.6948 30.7059V31.5294H68.2235C64.2172 31.5294 60.211 32.9412 60.211 36.8235C60.211 39.5294 62.2141 41.0588 64.8064 41.0588C66.9273 41.0588 68.3413 39.8823 69.0483 39.0588C69.0483 39.5294 69.1661 40.2353 69.2839 40.7059H73.2901C73.0545 39.7647 72.8188 38.3529 72.8188 36.2353V30.9412H72.701ZM68.577 36.8235C68.1056 37.2941 67.2808 38.1176 65.749 38.1176C64.8064 38.1176 63.8637 37.6471 63.8637 36.5882C63.8637 34.8235 65.5134 34.1176 67.9878 34.1176H68.577V36.8235ZM84.6018 25.7647L81.5383 35.647H81.4204L78.1212 25.7647H73.7615L79.4173 40.4706L78.8282 42C78.239 43.6471 77.532 44.5882 75.4111 44.5882C74.4685 44.5882 74.2328 44.4706 73.9971 44.4706L73.2901 47.7647C73.6436 47.8823 74.3506 48 75.6468 48C79.7708 48 81.3026 45.8823 82.7166 42.3529L88.9616 25.647H84.6018V25.7647Z" fill="#013B82"/>
<path d="M100.627 41.1765C93.5569 41.1765 90.022 36.1176 90.022 30.4706C90.022 24.8235 93.6748 19.8823 100.627 19.8823C103.337 19.8823 105.222 20.4706 106.754 21.5294L104.869 24.7059C103.69 24 102.394 23.5294 100.627 23.5294C96.7383 23.5294 94.7352 26.5882 94.7352 30.3529C94.7352 34.2353 96.7384 37.5294 100.745 37.5294C102.983 37.5294 104.279 36.8235 105.458 36L107.225 39.0588C106.165 40 103.69 41.1765 100.627 41.1765Z" fill="#013B82"/>
<path d="M121.129 36.3529V30.9412C121.129 26.9411 119.126 25.4117 115.12 25.4117C111.938 25.4117 109.935 26.7059 108.993 27.5294L110.76 30C111.349 29.647 112.645 28.5882 114.648 28.5882C116.534 28.5882 117.123 29.4117 117.123 30.7059V31.5294H116.652C112.645 31.5294 108.639 32.9412 108.639 36.8235C108.639 39.5294 110.642 41.0588 113.234 41.0588C115.355 41.0588 116.769 39.8823 117.476 39.0588C117.476 39.5294 117.594 40.2353 117.712 40.7059H121.718C121.365 39.8823 121.129 38.3529 121.129 36.3529ZM117.123 36.8235C116.652 37.2941 115.827 38.1176 114.295 38.1176C113.352 38.1176 112.528 37.647 112.528 36.5882C112.528 34.8235 114.177 34.1176 116.652 34.1176H117.123V36.8235Z" fill="#013B82"/>
<path d="M132.912 29.4118C132.677 29.2941 132.205 29.0588 131.38 29.0588C129.495 29.0588 128.435 30.7059 128.081 31.2941V40.8235H123.957V25.7647H128.081V27.7647C128.67 26.7059 129.966 25.2941 131.852 25.2941C133.03 25.2941 133.501 25.5294 133.855 25.6471L132.912 29.4118Z" fill="#013B82"/>
<path d="M140.925 25.4117C136.801 25.4117 133.501 28.4706 133.501 33.1764C133.501 38 136.329 41.1764 141.396 41.1764C144.459 41.1764 145.991 40.2353 147.052 39.7647L145.756 37.0588C145.049 37.4117 143.87 38.1176 141.867 38.1176C139.393 38.1176 138.214 36.5882 137.979 34.2353H147.523C147.994 28.7059 145.638 25.4117 140.925 25.4117ZM137.861 31.4117C138.097 29.4117 139.157 28.3529 140.807 28.3529C142.692 28.3529 143.399 29.7647 143.399 31.4117H137.861Z" fill="#013B82"/>
<path d="M18.8528 13.5295V21.2942C18.8528 21.2942 24.2729 20.353 30.2823 19.2942C36.2916 18.2353 38.1769 10.2353 38.1769 10.2353L18.8528 13.5295Z" fill="#013B82"/>
<path d="M2.47439 30.353L12.9613 28.5883V23.5294L7.65891 24.353C2.47439 25.1765 2.47439 30.353 2.47439 30.353Z" fill="#013B82"/>
<path d="M9.66205 7.29415V19.8824L14.8466 18.9412V11.4118C14.8466 6.47062 9.66205 7.29415 9.66205 7.29415Z" fill="#013B82"/>
<path d="M16.7318 34.0001C16.7318 41.8824 24.9799 40.4707 24.9799 40.4707V23.6471L16.7318 25.0589V34.0001Z" fill="#013B82"/>
<path d="M12.9613 16.4706C12.9613 16.4706 10.369 16.9412 5.18452 17.7647C-4.76837e-07 18.5882 0 23.6471 0 23.6471L12.9613 21.4118V16.4706Z" fill="#00B6DE"/>
<path d="M18.8528 23.0588V30.9412C18.8528 30.9412 19.7954 30.7059 28.0435 29.4118C36.2916 28 36.2916 20.1176 36.2916 20.1176L18.8528 23.0588Z" fill="#00B6DE"/>
<path d="M24.7443 6.35294C24.7443 0.588236 16.7319 0 16.7319 0V18.7059L24.7443 17.4118V6.35294Z" fill="#00B6DE"/>
<path d="M9.54425 31.2942C9.54425 36.353 14.8466 35.5294 14.8466 35.5294V25.4118L9.54425 26.353V31.2942Z" fill="#00B6DE"/>
</svg>
