<svg width="160" height="48" viewBox="0 0 160 48" fill="none" xmlns="http://www.w3.org/2000/svg">
<path d="M6.63013 44.5267V44.5056C6.63013 42.5866 8.06569 41.0166 10.1082 41.0166C11.3485 41.0166 12.1032 41.4501 12.7471 42.0686L11.9871 42.9461C11.4488 42.4439 10.8682 42.1056 10.0977 42.1056C8.81515 42.1056 7.8757 43.1681 7.8757 44.4897V44.5109C7.8757 45.8325 8.80987 46.9003 10.0977 46.9003C10.9263 46.9003 11.4541 46.5725 12.0346 46.0333L12.7946 46.8052C12.0927 47.54 11.3221 47.9999 10.0607 47.9999C8.09737 47.9999 6.6354 46.4668 6.6354 44.5267" fill="#0271EB"/>
<path d="M17.0168 44.5267V44.5056C17.0168 42.6078 18.4788 41.0166 20.553 41.0166C22.6272 41.0166 24.068 42.5866 24.068 44.4897V44.5109C24.068 46.4087 22.6061 47.9999 20.5319 47.9999C18.4577 47.9999 17.0168 46.4298 17.0168 44.5267ZM22.8225 44.5267V44.5056C22.8225 43.1946 21.8672 42.1056 20.5319 42.1056C19.1966 42.1056 18.2571 43.1734 18.2571 44.4897V44.5109C18.2571 45.8219 19.2124 46.9003 20.5477 46.9003C21.883 46.9003 22.8225 45.8377 22.8225 44.5267Z" fill="#0271EB"/>
<path d="M32.2434 46.2236L30.1322 43.0623V47.8835H28.9658V41.1328H30.2272L32.2803 44.3258L34.3334 41.1328H35.5948V47.8835H34.4073V43.0412L32.2803 46.2236H32.2434Z" fill="#0271EB"/>
<path d="M44.0605 46.2236L41.9494 43.0623V47.8835H40.783V41.1328H42.0444L44.0974 44.3258L46.1505 41.1328H47.4119V47.8835H46.2244V43.0412L44.0974 46.2236H44.0605Z" fill="#0271EB"/>
<path d="M52.4997 45.0183V41.1328H53.6819V44.9707C53.6819 46.2236 54.3258 46.8896 55.3866 46.8896C56.4475 46.8896 57.0808 46.2606 57.0808 45.0183V41.1328H58.2631V44.9601C58.2631 46.9742 57.1283 47.9892 55.3655 47.9892C53.6027 47.9892 52.4944 46.9742 52.4944 45.0183" fill="#0271EB"/>
<path d="M63.3508 47.8835V41.1328H64.4486L68.0587 45.8006V41.1328H69.2251V47.8835H68.2328L64.5172 43.0782V47.8835H63.3508Z" fill="#0271EB"/>
<path d="M75.68 41.1328H74.4978V47.8835H75.68V41.1328Z" fill="#0271EB"/>
<path d="M80.6516 44.5267V44.5056C80.6516 42.5866 82.0872 41.0166 84.1297 41.0166C85.37 41.0166 86.1247 41.4501 86.7686 42.0686L86.0086 42.9461C85.4703 42.4439 84.8897 42.1056 84.1192 42.1056C82.8366 42.1056 81.8972 43.1681 81.8972 44.4897V44.5109C81.8972 45.8325 82.8314 46.9003 84.1192 46.9003C84.9478 46.9003 85.4756 46.5725 86.0561 46.0333L86.8161 46.8052C86.1142 47.54 85.3436 47.9999 84.0822 47.9999C82.1189 47.9999 80.6569 46.4668 80.6569 44.5267" fill="#0271EB"/>
<path d="M93.9097 41.0854H95.0075L97.9737 47.8837H96.7228L96.0367 46.2555H92.8489L92.1575 47.8837H90.9436L93.9097 41.0854ZM95.6039 45.2035L94.4375 42.5022L93.2817 45.2035H95.6039Z" fill="#0271EB"/>
<path d="M101.251 42.2324V41.1328H106.719V42.2324H104.582V47.8835H103.389V42.2324H101.251Z" fill="#0271EB"/>
<path d="M112.683 41.1328H111.501V47.8835H112.683V41.1328Z" fill="#0271EB"/>
<path d="M117.655 44.5267V44.5056C117.655 42.6078 119.116 41.0166 121.191 41.0166C123.265 41.0166 124.706 42.5866 124.706 44.4897V44.5109C124.706 46.4087 123.244 47.9999 121.17 47.9999C119.095 47.9999 117.655 46.4298 117.655 44.5267ZM123.46 44.5267V44.5056C123.46 43.1946 122.505 42.1056 121.17 42.1056C119.834 42.1056 118.895 43.1734 118.895 44.4897V44.5109C118.895 45.8219 119.85 46.9003 121.185 46.9003C122.521 46.9003 123.46 45.8377 123.46 44.5267Z" fill="#0271EB"/>
<path d="M129.604 47.8835V41.1328H130.702L134.317 45.8006V41.1328H135.478V47.8835H134.486L130.77 43.0782V47.8835H129.604Z" fill="#0271EB"/>
<path d="M140.217 46.9002L140.93 46.0544C141.574 46.6148 142.228 46.932 143.057 46.932C143.79 46.932 144.25 46.5831 144.25 46.0861V46.065C144.25 45.5839 143.98 45.3196 142.73 45.0342C141.294 44.6853 140.486 44.2624 140.486 43.0201V42.9989C140.486 41.8412 141.447 41.043 142.788 41.043C143.769 41.043 144.55 41.3443 145.231 41.8888L144.598 42.7875C143.991 42.3328 143.384 42.095 142.766 42.095C142.075 42.095 141.669 42.4491 141.669 42.8985V42.9196C141.669 43.4377 141.975 43.6703 143.278 43.9822C144.703 44.3311 145.437 44.8386 145.437 45.9593V45.9804C145.437 47.2438 144.445 47.9945 143.03 47.9945C142.001 47.9945 141.03 47.6403 140.217 46.9161" fill="#0271EB"/>
<path d="M27.4564 29.0433C25.0919 31.0098 22.7643 31.8873 19.9038 31.8873C13.5281 31.8873 8.53002 25.9666 8.53002 18.4071C8.53002 10.8477 13.4226 5.02212 19.9038 5.02212C22.643 5.02212 24.8808 5.83093 27.1661 7.64943L27.9261 8.25736L31.2142 4.95869L30.3064 4.19216C28.4433 2.61683 25.3399 0.523438 19.946 0.523438C10.8364 0.523438 3.96997 8.25207 3.96997 18.497C3.96997 28.7419 10.7837 36.3754 19.8193 36.3754C25.3241 36.3754 28.533 34.0336 30.47 32.2732L31.3197 31.5067L28.2216 28.4089L27.4564 29.0433Z" fill="#002139"/>
<path d="M44.8309 9.30924C41.8437 9.30924 39.3156 10.3084 37.3681 12.2009V0H32.9136V35.7938H37.3681V20.9709C37.3681 16.6943 40.3712 13.5859 44.5037 13.5859C48.6363 13.5859 50.9427 16.2026 50.9427 20.5956V35.7938H55.3972V20.178C55.3972 13.6758 51.1485 9.30924 44.8256 9.30924" fill="#002139"/>
<path d="M68.935 9.49951C65.193 9.49951 62.3483 10.5885 60.063 11.6511L59.1129 12.0951L60.8071 16.155L61.8574 15.6211C64.243 14.3999 66.4491 13.829 68.7978 13.829C71.785 13.829 75.3212 14.8599 75.5006 19.6281C73.7167 19.2264 71.6161 18.9092 68.7503 18.9092C61.7888 18.9092 57.2974 22.3718 57.2974 27.7321V27.8273C57.2974 33.3726 62.5752 36.37 67.5417 36.37C71.2361 36.37 73.8065 35.0008 75.5165 33.5312V35.8096H79.9287V19.9136C79.9287 13.4008 75.8226 9.51008 68.9403 9.51008M61.8944 27.5841C61.8944 24.7982 64.4066 23.1383 68.6131 23.1383C71.4736 23.1383 73.7695 23.5559 75.564 23.9788V25.8132C75.564 29.3603 72.1756 32.0299 67.6842 32.0299C64.8077 32.0299 61.8944 30.5339 61.8944 27.674V27.5841Z" fill="#002139"/>
<path d="M86.9588 13.9085V9.86972H82.499V35.7992H86.9588V24.9781C86.9588 17.5349 91.5716 14.1992 96.1422 14.1992H97.4617V9.51025H96.4167C92.8225 9.51025 89.3708 11.0274 86.9588 13.9138" fill="#002139"/>
<path d="M110.023 31.8926C107.5 31.8926 106.371 30.8089 106.371 28.3772V14.1992H114.689V9.51021H106.371V2.28906H101.911V9.51021H98.9026V14.1992H101.911V28.6098C101.911 33.304 104.872 36.2168 109.643 36.2168C111.221 36.2168 112.556 35.9261 113.955 35.2811L114.588 34.9904V30.4653L113.052 31.1525C111.844 31.697 111.021 31.8979 110.012 31.8979" fill="#002139"/>
<path d="M126.743 9.30908C119.824 9.30908 114.404 15.2298 114.404 22.784V22.8791C114.404 30.5602 119.866 36.354 127.113 36.354C132.554 36.354 135.642 33.7796 137.721 31.5382L138.481 30.7188L135.267 27.88L134.544 28.6571C132.396 30.9619 130.063 32.0351 127.208 32.0351C123.798 32.0351 119.993 29.7778 119.143 24.8615H138.602L138.65 23.9047L138.703 22.932V22.8421C138.703 14.8809 133.784 9.31967 126.738 9.31967M126.648 13.591C131.213 13.591 133.351 17.043 133.926 20.6271H119.18C119.956 16.4932 122.938 13.591 126.648 13.591Z" fill="#002139"/>
<path d="M154.985 9.49433C151.37 9.3516 147.934 11.0168 145.527 13.9031V9.86438H141.073V35.7939H145.527V24.9727C145.527 17.5296 150.14 14.1939 154.71 14.1939H156.03V9.53663L154.985 9.49433Z" fill="#002139"/>
</svg>
