<svg width="271" height="48" viewBox="0 0 271 48" fill="none" xmlns="http://www.w3.org/2000/svg">
<path fill-rule="evenodd" clip-rule="evenodd" d="M245.565 36.6336H255.861V0H245.565V36.6336ZM271 0V36.6336H260.704V0H271ZM21.9538 14.2296H13.6263V0H0V36.6336H13.6263V18.4689H21.9538V36.6336H35.5786V0H21.9538V14.2296ZM85.9178 13.6243L85.0849 11.2012H73.882V36.6336H85.0849V21.3437C85.0849 18.0141 87.204 16.1965 89.0219 16.1965C90.5342 16.1965 92.5028 16.4991 92.5028 19.8303V36.6336H103.706V20.133C103.707 10.9 93.3371 7.26617 85.9178 13.6243ZM200.978 25.961L195.756 11.2027H188.113L182.888 26.5678L177.438 11.2027H162.449L157.077 24.1462L149.505 11.2027H136.712L151.776 36.9377L149.808 41.7823C149.126 43.2958 147.496 43.3711 147.174 41.9329C147.174 40.6842 146.678 39.4865 145.795 38.6035C144.912 37.7205 143.714 37.2245 142.465 37.2245C141.216 37.2245 140.019 37.7205 139.135 38.6035C138.252 39.4865 137.756 40.6842 137.756 41.9329C137.773 44.6586 140.498 48.2157 145.874 47.9898C151.246 47.7624 153.517 43.2972 154.277 41.4043L166.725 11.3041L175.699 36.6365H183.873L188.869 22.0288L194.018 36.6365H201.739L210.444 11.2041H205.977L200.978 25.961ZM54.8817 9.90933C46.3093 9.90933 39.3593 16.2819 39.3593 24.1448C39.3593 32.0077 46.3093 38.3802 54.8817 38.3802C63.454 38.3802 70.4055 32.0077 70.4055 24.1448C70.4055 16.2819 63.4555 9.90933 54.8817 9.90933ZM58.7435 30.8027C58.7435 31.8265 58.3367 32.8085 57.6126 33.5324C56.8885 34.2564 55.9064 34.6631 54.8824 34.6631C53.8584 34.6631 52.8763 34.2564 52.1522 33.5324C51.4282 32.8085 51.0214 31.8265 51.0214 30.8027V17.4854C51.0214 16.4616 51.4282 15.4797 52.1522 14.7557C52.8763 14.0317 53.8584 13.625 54.8824 13.625C55.9064 13.625 56.8885 14.0317 57.6126 14.7557C58.3367 15.4797 58.7435 16.4616 58.7435 17.4854V30.8027Z" fill="black"/>
<path fill-rule="evenodd" clip-rule="evenodd" d="M137.953 26.1867C138.036 25.5929 138.078 24.7602 138.078 24.1446C138.078 16.2817 131.129 9.90918 122.557 9.90918C113.984 9.90918 107.033 16.2817 107.033 24.1446C107.033 32.0075 113.983 38.3801 122.557 38.3801C128.448 38.3801 133.571 35.3719 136.202 30.9372L132.773 29.667C130.702 32.8345 126.901 34.9534 122.557 34.9534C120.425 34.9534 118.695 32.9344 118.695 30.8025V26.1867H137.953ZM118.695 17.4853C118.695 16.4614 119.102 15.4795 119.826 14.7555C120.55 14.0315 121.532 13.6248 122.556 13.6248C123.58 13.6248 124.562 14.0315 125.286 14.7555C126.01 15.4795 126.417 16.4614 126.417 17.4853V22.5544H118.695V17.4853ZM241.662 26.1867C241.744 25.5929 241.786 24.7602 241.786 24.1446C241.786 16.2817 234.835 9.90918 226.262 9.90918C217.69 9.90918 210.739 16.2817 210.739 24.1446C210.739 32.0075 217.69 38.3801 226.262 38.3801C232.152 38.3801 237.278 35.3719 239.908 30.9372L236.479 29.667C234.407 32.8345 230.608 34.9534 226.262 34.9534C224.129 34.9534 222.401 32.9344 222.401 30.8025V26.1867H241.662ZM222.401 17.4853C222.401 15.3534 224.129 13.6255 226.262 13.6255C228.396 13.6255 230.124 15.3534 230.124 17.4853V22.5544H222.401V17.4853Z" fill="black"/>
</svg>
