<svg width="296" height="48" viewBox="0 0 296 48" fill="none" xmlns="http://www.w3.org/2000/svg">
<g clip-path="url(#clip0_1061_15128)">
<path d="M12.1281 48.144C7.43426 48.144 4.26186 47.3458 2.61818 45.7473C0.9716 44.1516 0.147949 41.1481 0.147949 36.733V26.714L11.4882 24.5628V39.0698H33.5698V-0.144531H44.8427V36.7323C44.8427 41.1473 44.0097 44.1516 42.3458 45.7466C40.6818 47.3451 37.5109 48.1419 32.8387 48.1419L12.1281 48.144ZM56.6407 48.144L83.9651 -0.143809H94.7969L122.488 48.144H109.876L101.388 32.3895L73.5924 37.524L72.0558 40.3015L67.8363 48.1433L56.6407 48.144ZM78.2537 28.8688H99.4112L88.9923 9.22294L78.2537 28.8688ZM138.041 48.144V-0.143809H179.425C183.247 -0.143809 186.012 0.605994 187.726 2.09982C189.44 3.59437 190.294 5.97452 190.294 9.23883V15.1051C190.294 17.4151 189.58 19.2593 188.151 20.6426C186.72 22.0252 184.67 22.8848 181.995 23.2178C184.772 23.584 186.916 24.5758 188.427 26.1903C189.938 27.8091 190.693 29.9119 190.693 32.5058V38.6884C190.693 41.887 189.513 44.2614 187.157 45.813C184.8 47.3661 181.219 48.144 176.415 48.144H138.041ZM174.726 7.73851H149.115V19.1979H174.726C176.673 19.1979 178.02 18.9415 178.765 18.4236C179.511 17.91 179.884 17.0157 179.884 15.7407V11.195C179.884 9.95324 179.511 9.06475 178.765 8.5331C178.018 8.00361 176.673 7.73851 174.726 7.73851ZM174.726 27.1467H149.115V39.4671H174.726C176.88 39.4671 178.331 39.1486 179.086 38.5064C179.838 37.8642 180.215 36.7323 180.215 35.1157V31.4519C180.215 29.8331 179.838 28.7113 179.086 28.0857C178.331 27.4595 176.878 27.1467 174.726 27.1467ZM212.375 -0.143809H223.649V48.144H212.375V-0.143809ZM248.308 -0.143809H259.581V39.0698H295.852V48.144H248.308V-0.143809Z" fill="#005288"/>
<path d="M72.0542 40.3015L142.637 22.0231L82.0002 21.9956L72.0542 40.3015Z" fill="#008A5E"/>
</g>
<defs>
<clipPath id="clip0_1061_15128">
<rect width="296" height="48" fill="white"/>
</clipPath>
</defs>
</svg>
