<svg width="230" height="50" viewBox="0 0 230 50" fill="none" xmlns="http://www.w3.org/2000/svg">
<path d="M16.8009 28.6582L27.8311 15.5915L19.7779 16.3534L30.7699 1.53439C19.7779 -1.13227 8.09895 4.23915 3.13728 14.8296C-1.67172 25.1915 1.49611 37.1915 10.1218 43.9725L23.8999 28.0106C23.8618 28.0487 16.8009 28.6582 16.8009 28.6582Z" fill="black"/>
<path d="M40.6933 6.56299L34.205 12.7344L41.4185 12.0487L27.335 24.582L35.7317 23.782L10.2363 44.1249C11.6485 45.2297 13.2133 46.182 14.8927 46.9439C27.0297 52.5439 41.4185 47.2868 47.029 35.2106C51.7235 25.1154 48.861 13.4201 40.6933 6.56299Z" fill="black"/>
<path d="M86.1498 41.5724C86.1498 43.2867 85.1575 44.7343 83.1346 45.9152C81.1118 47.1343 78.7073 47.7057 75.8448 47.7057H57.334V27.1724H75.8448C78.7073 27.1724 81.1118 27.7819 83.1346 28.9628C85.1193 30.1438 86.1498 31.6295 86.1498 33.3057V41.5724ZM77.9058 41.5724V33.3819C77.9058 32.8105 77.486 32.3152 76.6845 31.9343C75.883 31.5152 74.9288 31.3247 73.7838 31.3247H65.578V43.6295H73.7838C74.8906 43.6295 75.883 43.439 76.6845 43.0581C77.486 42.639 77.9058 42.1438 77.9058 41.5724Z" fill="black"/>
<path d="M118.172 41.6104C118.172 43.2866 117.179 44.7342 115.156 45.9533C113.134 47.1723 110.729 47.7438 107.867 47.7438H99.6226C96.7601 47.7438 94.3556 47.1342 92.3328 45.9533C90.3481 44.7723 89.3176 43.2866 89.3176 41.6104V33.4199C89.3176 31.7438 90.31 30.258 92.3328 29.0771C94.3175 27.858 96.7601 27.2866 99.6226 27.2866H107.867C110.729 27.2866 113.134 27.8961 115.156 29.0771C117.179 30.258 118.172 31.7438 118.172 33.4199V39.5533H97.5998V41.6104C97.5998 42.1819 98.0196 42.6771 98.8211 43.058C99.6226 43.439 100.615 43.6676 101.722 43.6676H105.806C106.912 43.6676 107.905 43.4771 108.706 43.0961C109.508 42.7152 109.928 42.2199 109.928 41.6485L118.172 41.6104ZM109.928 35.4009V33.3819C109.928 32.8104 109.508 32.3152 108.706 31.9342C107.905 31.5533 106.951 31.3247 105.806 31.3247H101.722C100.615 31.3247 99.6226 31.5152 98.8211 31.9342C98.0196 32.3152 97.5998 32.8104 97.5998 33.3819V35.4009H109.928Z" fill="black"/>
<path d="M151.148 41.5724C151.148 43.2485 150.155 44.7343 148.133 45.9152C146.148 47.1343 143.705 47.7057 140.843 47.7057H132.599C129.736 47.7057 127.332 47.0962 125.309 45.9152C123.324 44.7343 122.294 43.2485 122.294 41.5724H130.538C130.538 42.1438 130.958 42.6009 131.759 43.02C132.561 43.4009 133.515 43.5914 134.66 43.5914H138.744C139.889 43.5914 140.843 43.4009 141.644 42.9819C142.446 42.6009 142.866 42.1057 142.866 41.5343C142.866 40.9628 142.446 40.4676 141.644 40.0866C140.843 39.6676 139.85 39.4771 138.744 39.4771H132.561C129.698 39.4771 127.294 38.8676 125.271 37.6866C123.286 36.5057 122.256 35.02 122.256 33.3438C122.256 31.6676 123.248 30.22 125.271 29.0009C127.255 27.7819 129.698 27.2104 132.561 27.2104H140.805C143.667 27.2104 146.072 27.82 148.094 29.0009C150.117 30.1819 151.11 31.6295 151.11 33.3438H142.866C142.866 32.7724 142.446 32.2771 141.644 31.8962C140.843 31.4771 139.889 31.3247 138.744 31.3247H134.622C133.515 31.3247 132.522 31.5152 131.721 31.8962C130.919 32.2771 130.5 32.7724 130.5 33.3438C130.5 33.9152 130.919 34.3724 131.721 34.7914C132.522 35.1724 133.515 35.3628 134.622 35.3628H140.805C143.667 35.3628 146.072 35.9724 148.094 37.1533C150.155 38.4105 151.148 39.8962 151.148 41.5724Z" fill="black"/>
<path d="M156.605 47.7438H164.849V27.2104H156.605V47.7438Z" fill="black"/>
<path d="M197.177 41.5723C197.177 43.2485 196.184 44.7342 194.162 45.9152C192.177 47.1343 189.734 47.7057 186.872 47.7057H178.628C175.765 47.7057 173.361 47.0962 171.338 45.9152C169.353 44.6962 168.323 43.2485 168.323 41.5723V33.3819C168.323 31.7057 169.315 30.2581 171.338 29.039C173.361 27.82 175.765 27.2485 178.628 27.2485H186.872C189.734 27.2485 192.139 27.8581 194.162 29.039C196.146 30.22 197.177 31.7057 197.177 33.3819H188.933C188.933 32.8104 188.551 32.3152 187.711 31.9342C186.91 31.5152 185.918 31.3628 184.811 31.3628H180.727C179.582 31.3628 178.628 31.5533 177.826 31.9342C177.025 32.3152 176.605 32.8104 176.605 33.3819V41.5723C176.605 42.1438 176.987 42.639 177.826 43.02C178.628 43.4009 179.582 43.6295 180.727 43.6295H184.811C185.918 43.6295 186.91 43.439 187.711 43.02C188.513 42.639 188.933 42.1438 188.933 41.5723V39.5152H180.727V35.4009H197.177V41.5723Z" fill="black"/>
<path d="M229.886 47.7438H221.642V33.3819C221.642 32.8105 221.26 32.3152 220.458 31.9343C219.657 31.5533 218.665 31.3247 217.558 31.3247H213.436C212.329 31.3247 211.337 31.5152 210.535 31.9343C209.734 32.3152 209.352 32.8105 209.352 33.3819V47.7438H201.108V27.2104H209.352V27.3247C210.039 27.2485 210.726 27.2104 211.413 27.2104H219.619C222.481 27.2104 224.886 27.82 226.909 29.0009C228.893 30.1819 229.924 31.6676 229.924 33.3438L229.886 47.7438Z" fill="black"/>
<path d="M143.629 21.8011C145.461 22.6392 147.522 23.0201 149.812 23.0201H154.621C157.483 23.0201 159.888 22.4106 161.911 21.2297C163.895 20.0106 164.888 18.563 164.888 16.8868V2.5249H156.644V16.8868C156.644 17.4582 156.224 17.9535 155.422 18.3344C154.621 18.7154 153.629 18.9059 152.522 18.9059H151.835C150.728 18.9059 149.736 18.7154 148.934 18.3344C148.133 17.9154 147.713 17.4201 147.713 16.8868V2.5249H139.469V16.8868C139.469 17.4582 139.049 17.9535 138.247 18.3344C137.446 18.7154 136.454 18.9059 135.347 18.9059H134.66C133.553 18.9059 132.561 18.7154 131.759 18.3344C130.958 17.9154 130.538 17.4201 130.538 16.8868V2.5249H122.37V16.8868C122.37 18.6011 123.362 20.0487 125.347 21.2297C127.332 22.4487 129.774 23.0201 132.637 23.0201H137.446C139.698 23.0582 141.759 22.6392 143.629 21.8011Z" fill="black"/>
<path d="M118.172 16.8868C118.172 18.6011 117.179 20.0487 115.156 21.2297C113.172 22.4487 110.729 23.0201 107.867 23.0201H99.6226C96.7601 23.0201 94.3556 22.4106 92.3328 21.2297C90.3481 20.0106 89.3176 18.563 89.3176 16.8868V8.69632C89.3176 6.98204 90.31 5.53442 92.3328 4.35347C94.3556 3.13442 96.7601 2.56299 99.6226 2.56299H107.867C110.729 2.56299 113.134 3.17252 115.156 4.35347C117.141 5.57252 118.172 7.02013 118.172 8.69632V16.8868ZM109.928 16.8868V8.69632C109.928 8.1249 109.508 7.62966 108.706 7.24871C107.905 6.86776 106.951 6.63918 105.806 6.63918H101.684C100.577 6.63918 99.5845 6.82966 98.783 7.24871C97.9815 7.62966 97.5616 8.1249 97.5616 8.69632V16.8868C97.5616 17.4582 97.9815 17.9535 98.783 18.3344C99.5845 18.7154 100.539 18.9059 101.684 18.9059H105.806C106.912 18.9059 107.905 18.7154 108.706 18.3344C109.546 17.9535 109.928 17.4582 109.928 16.8868Z" fill="black"/>
<path d="M86.1498 12.7725C86.1498 14.4487 85.1575 15.9344 83.1346 17.1154C81.15 18.3344 78.7073 18.9059 75.8448 18.9059H65.578V23.0201H57.334V2.48682H75.8448C78.7073 2.48682 81.1118 3.09633 83.1346 4.27729C85.1193 5.49633 86.1498 6.94396 86.1498 8.62015V12.7725ZM77.9058 12.7725V8.69634C77.9058 8.12491 77.486 7.62967 76.6845 7.24872C75.883 6.86777 74.9288 6.63919 73.7838 6.63919H65.578V14.8297H73.7838C74.8906 14.8297 75.883 14.6392 76.6845 14.2201C77.486 13.8392 77.9058 13.344 77.9058 12.7725Z" fill="black"/>
<path d="M197.215 16.8868C197.215 18.563 196.184 20.0106 194.2 21.2297C192.215 22.4487 189.772 23.0201 186.91 23.0201H178.666C175.803 23.0201 173.399 22.4106 171.376 21.2297C169.353 20.0106 168.361 18.563 168.361 16.8868V8.69632C168.361 6.98204 169.353 5.53442 171.376 4.35347C173.399 3.13442 175.803 2.56299 178.666 2.56299H186.91C189.772 2.56299 192.177 3.17252 194.2 4.35347C196.184 5.53442 197.215 7.02013 197.215 8.69632V14.8297H176.643V16.8868C176.643 17.4582 177.063 17.9535 177.864 18.3344C178.666 18.7154 179.62 18.9439 180.765 18.9439H184.849C185.956 18.9439 186.948 18.7535 187.75 18.3725C188.551 17.9535 188.933 17.4963 188.933 16.9249L197.215 16.8868ZM188.933 10.7154V8.69632C188.933 8.1249 188.513 7.62966 187.75 7.24871C186.948 6.86776 185.994 6.63918 184.849 6.63918H180.765C179.658 6.63918 178.666 6.82966 177.864 7.24871C177.063 7.62966 176.643 8.1249 176.643 8.69632V10.7154H188.933Z" fill="black"/>
<path d="M229.885 23.0582H221.641V21.0011C221.641 20.4297 221.222 19.9344 220.42 19.5535C219.619 19.1725 218.664 18.9439 217.519 18.9439H209.314V23.0582H201.07V2.5249H219.58C222.443 2.5249 224.847 3.13442 226.87 4.31537C228.893 5.53442 229.885 6.98204 229.885 8.65823V12.7725C229.885 14.3344 229.008 15.7058 227.214 16.8868C228.969 18.0678 229.885 19.4392 229.885 21.0011V23.0582ZM221.641 12.7725V8.65823C221.641 8.0868 221.222 7.59156 220.42 7.21061C219.619 6.82966 218.664 6.60109 217.519 6.60109H209.314V14.8297H217.519C218.626 14.8297 219.619 14.6392 220.42 14.2201C221.222 13.8392 221.641 13.3439 221.641 12.7725Z" fill="black"/>
</svg>
