<svg width="552" height="48" viewBox="0 0 552 48" fill="none" xmlns="http://www.w3.org/2000/svg">
<g clip-path="url(#clip0_1061_15134)">
<path d="M19.5277 22.7128C26.0738 22.7128 29.402 20.1933 29.402 13.499C29.402 7.30132 26.8461 4.02776 20.392 4.02776C19.6748 4.02776 17.358 3.9542 17.1557 4.745C16.9535 5.53581 16.9351 10.0783 16.9351 11.0898V22.6944L19.5277 22.7128ZM67.9978 28.6163L62.0218 12.9841L55.6413 28.6163H67.9978ZM123.547 3.62316C120.955 3.99098 119.943 5.84845 118.656 8.16569L107.127 27.5496V34.8324C107.127 40.6622 106.98 43.6232 113.747 43.4025V45.8117H66.4533V43.4393C68.4759 43.145 72.0799 43.2921 72.0799 40.4048C72.0799 39.3197 71.2157 36.9473 70.7744 35.9358L69.3401 32.037H54.3174L53.4899 34.0232C52.8463 35.7519 51.835 37.922 51.835 39.7059C51.835 43.0163 54.9241 43.237 57.4617 43.4576V45.9036H34.7528L25.0992 32.2209C22.8743 29.1312 19.9139 25.6737 18.0383 25.8025C17.6706 25.8025 17.3212 25.876 16.9535 25.876V34.814C16.9535 40.368 16.8799 43.6048 23.4443 43.3841V45.7933H0.183838V43.3473C6.67471 43.568 6.60116 40.3864 6.60116 34.7772V11.899C6.60116 6.345 6.74826 3.10822 0.183838 3.32891V0.882933C4.08204 0.956496 7.8883 1.10362 11.713 1.17719C15.3905 1.10362 18.9945 0.956496 22.7272 0.882933C25.9635 1.03006 30.9465 1.25075 33.9621 2.53811C38.3568 4.3404 40.6553 7.945 40.6553 12.6898C40.6553 18.7404 35.5435 22.5657 29.9904 23.4301L39.2394 34.9979C40.5817 37.0025 42.0527 38.9335 43.6341 40.7542C44.2041 41.3243 45.1419 42.1151 46.3003 40.7542C48.2494 38.4553 49.3894 35.0714 50.4743 32.5335L63.9709 0.184082H67.2072L81.1818 35.1266C81.899 36.9289 83.278 40.3128 84.6387 41.6737C85.9627 42.5933 87.5072 43.145 89.107 43.2553H90.4677C96.885 43.2553 96.6643 40.4416 96.7379 34.6852V28.7818L85.0065 7.90822C83.2045 4.87374 82.8367 4.08293 79.3247 3.29213V0.882933C82.708 0.956496 86.1649 1.10362 89.5483 1.17719C93.4465 1.10362 97.2527 0.956496 101.151 0.882933V3.29213C99.3489 3.43925 96.0391 3.65994 96.0391 6.25305C96.0391 7.61397 97.7676 10.6484 98.4847 11.8806L105.251 24.2025L111.797 13.2416C112.662 11.5864 114.39 8.47834 114.39 6.69443C114.39 3.73351 111.797 3.31052 109.425 3.31052V0.882933H138.662L151.993 32.5887L164.239 0.882933C166.832 0.956496 169.425 1.10362 171.944 1.17719C174.684 1.10362 177.35 0.956496 180.512 0.882933V3.29213C173.966 3.07144 174.169 6.38178 174.095 12.0094V33.3427C174.003 35.5312 174.187 37.7381 174.592 39.8898C175.309 42.7772 177.828 42.9795 180.42 43.4209V45.8668H157.436V43.4209C160.028 42.9795 162.621 42.7036 163.265 39.8898C163.651 37.7197 163.816 35.5312 163.761 33.3427V11.899H163.651L150.117 45.7933H146.881L132.723 11.4025H132.576V32.2209C132.576 34.391 132.576 38.768 133.587 40.6439C134.672 42.6668 136.97 43.1634 139.066 43.3841V45.7933H122.867V43.3473C125.46 42.9059 128.052 42.6301 128.696 39.8163C129.082 37.6461 129.247 35.4576 129.192 33.2691V6.345C128.015 4.41397 125.827 3.32891 123.566 3.60477L123.547 3.62316ZM181.45 23.4668C181.45 8.91971 193.053 0.331208 206.733 0.331208C220.414 0.331208 231.943 9.04845 231.943 23.4668C231.943 37.8852 220.267 46.6025 206.513 46.6025C192.759 46.5841 181.45 37.7565 181.45 23.4668ZM193.2 23.0255C193.2 31.7427 195.572 43.4944 206.531 43.4944C217.692 43.4944 220.212 33.2691 220.212 23.8898C220.212 14.8048 217.84 3.42086 206.531 3.42086C195.646 3.36569 193.2 14.3082 193.2 23.0255ZM281.939 3.40247C275.816 3.47604 275.89 5.77489 275.89 14.1427V46.7864H272.58L241.744 11.6783V32.6439C241.744 37.8301 241.744 43.0898 248.29 43.3841V45.7933H232.292V43.3473C237.919 42.7772 238.342 40.037 238.342 35.2002V8.00017C236.172 4.96569 235.308 3.7519 231.575 3.38408V0.956496C233.745 1.03006 235.896 1.17719 238.066 1.25075C240.659 1.17719 243.178 1.03006 245.771 0.956496L272.561 31.8714V13.7749C272.561 8.58868 272.561 3.62316 266.071 3.40247V0.956496H304.538C311.157 0.956496 317.354 2.26224 322.539 6.63925C327.945 11.3289 330.244 17.5266 330.244 24.5151C330.244 30.7864 328.295 36.3956 323.624 40.7174C318.807 45.0393 312.242 46.1243 305.898 45.9036C302.294 45.8301 283.999 45.9036 283.999 45.9036V43.4576C290.545 43.6783 290.416 40.4967 290.416 34.8875V11.899C290.416 6.49213 290.563 3.40247 283.999 3.40247H281.939ZM299.444 30.8416C299.444 32.8645 299.444 37.6094 300.088 39.4117C300.952 41.7841 303.177 42.722 305.567 42.722C316.085 42.722 317.097 32.276 317.097 24.0553C317.097 19.5128 316.453 14.0324 314.357 9.93121C311.911 5.31512 307.222 4.02776 302.331 4.02776C301.761 4.02776 300.106 4.17489 299.591 4.67144C299.352 5.18638 299.26 5.7565 299.297 6.32661V30.8232H299.444V30.8416ZM355.343 29.8301C355.03 29.9404 354.736 30.1059 354.479 30.3266C353.394 31.191 352.383 34.6484 352.971 38.253C353.688 42.3174 357.458 45.0944 361.54 44.5979C368.38 43.6599 367.166 38.5473 367.166 24.0737V12.0462C367.166 6.41857 366.946 3.18178 360.326 3.32891V0.882933C363.71 0.956496 367.608 1.10362 371.065 1.17719C375.312 1.10362 380.148 0.956496 384.469 0.882933V3.29213C378.843 3.43925 378.052 4.37719 378.052 12.0094V28.3588C378.052 39.5956 375.091 45.499 364.371 47.3749C356.52 48.7358 345.929 47.0071 342.987 39.2278C341.552 35.4025 342.122 31.2278 342.122 29.499L352.144 27.5496L354.883 27.053L355.38 29.7933M403.832 28.6163L397.856 12.9841L391.438 28.6163H403.832ZM520.152 31.5772H522.819C524.694 37.7749 527.857 43.4576 535.359 43.4576C539.312 43.4576 543.137 40.8645 543.137 36.6898C543.137 30.345 536.591 28.6163 531.829 26.6117C525.706 23.945 520.741 20.5611 520.741 13.076C520.741 4.72661 527.158 0.257645 535.01 0.257645C538.687 0.257645 542.494 1.04845 545.16 3.56799L546.024 0.901323H548.984L549.426 13.1496H546.465C545.233 7.88983 541.353 3.31052 535.414 3.31052C532.104 3.31052 528.721 5.18638 528.721 8.86454C528.721 13.9772 533.906 15.3565 537.731 17.1588C545.013 20.2484 551.853 23.5036 551.853 32.5703C551.853 41.637 544.259 46.5473 535.966 46.5473C531.645 46.5473 527.177 45.1128 524.161 41.9312L523.186 45.8301H455.483V43.3841C458.075 42.9427 460.668 42.6668 461.312 39.853C461.698 37.6829 461.863 35.4944 461.808 33.3059V11.899H461.661L448.091 45.7933H444.855L430.586 11.3473H430.439V32.1841C430.439 34.3542 430.439 38.7312 431.45 40.6071C432.535 42.6301 434.833 43.1266 436.856 43.3473V45.7933H402.177V43.3473C404.199 43.053 407.803 43.2002 407.803 40.3128C407.803 39.2278 406.939 36.8553 406.498 35.8438L405.064 31.945H390.078L389.287 33.8944C388.717 35.6232 387.632 37.7933 387.632 39.5772C387.632 42.8875 390.721 43.1082 393.259 43.3289V45.7749H378.125V43.4025C380.865 42.9059 382.52 40.6622 383.807 38.2163C384.745 36.3404 385.536 34.4645 386.253 32.5887L399.731 0.239254H402.967L416.942 35.1818C417.659 36.9841 419.038 40.4416 420.399 41.7289C420.877 42.1703 421.447 42.5197 422.054 42.7404C422.605 42.9611 423.231 42.9611 423.782 42.7404C425.088 42.3174 426.081 41.214 426.375 39.853C426.761 37.6829 426.927 35.4944 426.871 33.3059V6.27144C425.639 3.89902 422.973 3.45765 420.528 3.23696V0.809369C422.973 0.882933 425.492 1.03006 427.938 1.10362C430.825 1.03006 433.565 0.882933 436.433 0.809369L449.764 32.5151L462.01 0.809369H516.548L517.118 12.7634H514.158C513 6.06914 509.12 3.89902 502.629 3.89902C501.838 3.89902 497.444 3.89902 497.076 4.61627C496.855 4.98408 496.855 7.92661 496.855 8.51512V21.1312C502.335 21.1312 505.865 20.1197 506.141 13.8485H508.881C508.807 16.9381 508.66 20.1197 508.586 23.2094C508.66 26.0232 508.807 28.837 508.881 31.6324H506.141C504.835 25.3611 503.107 24.3496 496.855 24.3496V32.2025C496.855 38.6209 496.634 42.6484 504.707 42.6484H508.09C515.298 42.5013 518.038 40.1289 519.766 32.699C519.932 32.3496 520.06 31.9634 520.152 31.5772ZM486.595 11.899C486.595 7.50362 486.668 4.61627 483.561 3.67833C482.641 3.47604 481.704 3.38408 480.747 3.38408H477.75C476.831 3.36569 475.911 3.45765 475.01 3.67833C471.921 4.61627 471.977 7.57719 471.977 11.899V34.814C471.977 39.2094 471.903 42.0967 475.01 43.0347C475.93 43.237 476.868 43.3289 477.824 43.3289H480.784C481.704 43.3473 482.623 43.2553 483.524 43.0347C486.613 42.0967 486.558 39.1358 486.558 34.814L486.595 11.899Z" fill="#002949"/>
</g>
<defs>
<clipPath id="clip0_1061_15134">
<rect width="552" height="48" fill="white"/>
</clipPath>
</defs>
</svg>
