<svg width="193" height="48" viewBox="0 0 193 48" fill="none" xmlns="http://www.w3.org/2000/svg">
<g clip-path="url(#clip0_1061_15133)">
<path fill-rule="evenodd" clip-rule="evenodd" d="M86.8788 17.771L82.0143 6.5538H86.535L88.9443 12.892L91.2161 6.5538H95.6454L88.2727 23.6182H84.0942L86.8788 17.771ZM22.4056 12.7342C22.8419 12.7777 23.2685 12.8539 23.6829 12.9596L25.9072 0.215047C25.4869 0.126494 25.0608 0.0518956 24.6314 -0.0114329L22.4056 12.7342ZM15.6841 14.9926L5.8904 6.6869C5.43646 7.18387 5.0055 7.70284 4.59861 8.24113L14.3693 16.5318C14.7463 15.9678 15.1874 15.452 15.6841 14.9926ZM32.7628 2.9897C32.4196 2.77449 32.072 2.56625 31.7165 2.37036L25.3164 13.5613C25.6826 13.7405 26.0355 13.9439 26.3708 14.1715L32.7628 2.9897ZM37.5985 7.14738L27.8342 15.4246C28.0742 15.6806 28.2988 15.9511 28.5073 16.235L38.2674 7.96206C38.0514 7.68513 37.8284 7.41303 37.5985 7.14738ZM13.1273 19.4095C13.3043 18.642 13.5796 17.9127 13.9427 17.2381L1.94821 12.8233C1.64718 13.5317 1.38359 14.2611 1.15795 15.0076L13.1273 19.4095ZM30.1793 21.3598C30.1793 26.1481 26.3125 30.0288 21.5426 30.0288C17.2705 30.0288 13.7256 26.915 13.0316 22.8255L1.0585 27.2338C1.32424 28.1719 1.65039 29.0848 2.03376 29.966L13.9336 25.5862L4.22006 33.8355C4.83548 34.7023 5.51078 35.5202 6.24329 36.2833L15.3264 28.5771L9.4011 38.9952C10.3421 39.6558 11.3372 40.244 12.3803 40.7469L17.9485 30.9594L16.0055 42.0967C17.1946 42.4198 18.4243 42.6387 19.6862 42.7493L21.4988 32.3409L23.3177 42.7552C24.6384 42.6446 25.9248 42.4139 27.1658 42.0714L25.4789 32.4096L30.3365 40.9149C31.6662 40.3042 32.9232 39.5619 34.0905 38.7016L29.6323 30.9036L36.4489 36.6821C37.5359 35.6055 38.509 34.4135 39.3485 33.1233L33.2569 27.9626L40.7141 30.7061C41.4049 29.27 41.9385 27.7426 42.3004 26.1497L35.7544 23.7437L42.7105 23.7427C42.8004 22.9398 42.8506 22.1251 42.8506 21.2986C42.8506 20.3412 42.7827 19.4009 42.663 18.4773H29.6884C30.005 19.3794 30.1793 20.3487 30.1793 21.3598ZM12.9059 21.3598C12.9059 20.8784 12.9471 20.4072 13.0225 19.9473H0.278404C0.249532 20.3943 0.232422 20.8435 0.232422 21.2986C0.232422 21.7221 0.247928 22.1428 0.271989 22.5609H12.9904C12.9364 22.168 12.9059 21.7682 12.9059 21.3598ZM16.5369 14.2987C17.0032 13.9643 17.5042 13.6756 18.034 13.4389L11.6329 2.23136C11.1233 2.50239 10.6282 2.79381 10.1438 3.10401L16.5369 14.2987ZM17.109 0.230611C17.5737 0.130788 18.0453 0.0481391 18.5211 -0.0200195L20.7475 12.7294C20.2631 12.7734 19.7899 12.8571 19.3312 12.979L17.109 0.230611ZM132.178 42.3822H134.127V25.3463H132.178V42.3822ZM168.224 25.898C168.469 26.1588 168.593 26.4894 168.593 26.8887C168.593 27.2869 168.469 27.617 168.224 27.8783C167.98 28.1381 167.659 28.2696 167.261 28.2696C166.863 28.2696 166.543 28.1381 166.298 27.8783C166.054 27.617 165.932 27.2869 165.932 26.8887C165.932 26.4894 166.054 26.1588 166.298 25.898C166.543 25.6377 166.863 25.5078 167.261 25.5078C167.659 25.5078 167.98 25.6377 168.224 25.898ZM115.599 18.4386V11.9925C115.599 10.5816 115.072 9.87533 114.016 9.87533C113.435 9.87533 112.996 10.0707 112.698 10.4614C112.399 10.8526 112.251 11.4172 112.251 12.1536V18.4386H108.122V0.942788H112.251V7.82574C112.587 7.30516 113.045 6.90211 113.627 6.61713C114.207 6.33323 114.864 6.19154 115.599 6.19154C116.959 6.19154 117.989 6.61391 118.684 7.45758C119.38 8.30232 119.728 9.55279 119.728 11.2101V18.4386H115.599ZM127.029 38.5025C126.846 39.0328 126.582 39.482 126.239 39.8496C125.894 40.2183 125.485 40.5065 125.011 40.7136C124.537 40.9192 124.002 41.0238 123.405 41.0238C122.811 41.0238 122.275 40.9192 121.8 40.7136C121.326 40.5065 120.917 40.2183 120.573 39.8496C120.229 39.482 119.965 39.0328 119.782 38.5025C119.598 37.9728 119.507 37.3851 119.507 36.7411C119.507 36.0966 119.598 35.5094 119.782 34.9803C119.965 34.4516 120.229 34.003 120.573 33.6327C120.917 33.2661 121.326 32.9779 121.8 32.7707C122.275 32.563 122.811 32.46 123.405 32.46C124.002 32.46 124.537 32.563 125.011 32.7707C125.485 32.9779 125.894 33.2661 126.239 33.6327C126.582 34.003 126.846 34.4516 127.029 34.9803C127.213 35.5094 127.305 36.0966 127.305 36.7411C127.305 37.3851 127.213 37.9728 127.029 38.5025ZM127.614 32.4369C127.088 31.8997 126.464 31.4779 125.745 31.1693C125.026 30.8623 124.246 30.7099 123.405 30.7099C122.565 30.7099 121.785 30.8623 121.066 31.1693C120.347 31.4779 119.725 31.8997 119.197 32.4369C118.669 32.9741 118.256 33.6101 117.958 34.3464C117.66 35.0838 117.511 35.8824 117.511 36.7411C117.511 37.6014 117.66 38.3984 117.958 39.1358C118.256 39.8721 118.669 40.5102 119.197 41.0469C119.725 41.5841 120.347 42.0065 121.066 42.313C121.785 42.6189 122.565 42.7734 123.405 42.7734C124.246 42.7734 125.026 42.6189 125.745 42.313C126.464 42.0065 127.088 41.5841 127.614 41.0469C128.142 40.5102 128.555 39.8721 128.853 39.1358C129.151 38.3984 129.3 37.6014 129.3 36.7411C129.3 35.8824 129.151 35.0838 128.853 34.3464C128.555 33.6101 128.142 32.9741 127.614 32.4369ZM166.298 42.3817H168.247V31.0324H166.298V42.3817ZM160.244 7.45758C160.94 8.30232 161.288 9.55279 161.288 11.2101V18.4386H157.159V11.9925C157.159 10.5816 156.632 9.87533 155.576 9.87533C154.995 9.87533 154.556 10.0707 154.257 10.4614C153.96 10.8526 153.81 11.4172 153.81 12.1536V18.4386H149.682V6.55917H153.719L153.765 8.03344C154.07 7.4506 154.517 6.9971 155.106 6.67456C155.695 6.35255 156.379 6.19154 157.159 6.19154C158.52 6.19154 159.548 6.61391 160.244 7.45758ZM125.038 11.4C125.353 9.79644 126.218 8.99517 127.629 8.99517C128.316 8.99517 128.874 9.20448 129.301 9.62363C129.728 10.0444 129.988 10.6358 130.081 11.4H125.038ZM133.489 12.131C133.489 11.2101 133.355 10.3846 133.088 9.65583C132.82 8.92755 132.435 8.30554 131.929 7.79086C131.425 7.27725 130.812 6.88225 130.095 6.60532C129.376 6.33001 128.573 6.19154 127.687 6.19154C126.769 6.19154 125.932 6.34503 125.175 6.65148C124.418 6.95954 123.764 7.38781 123.214 7.94113C122.663 8.49284 122.239 9.15725 121.941 9.93329C121.643 10.7072 121.494 11.5637 121.494 12.4992C121.494 13.4668 121.658 14.3411 121.987 15.1235C122.315 15.906 122.79 16.571 123.409 17.1146C124.028 17.6604 124.777 18.0785 125.656 18.3699C126.535 18.6614 127.526 18.8079 128.628 18.8079C129.544 18.8079 130.428 18.7 131.276 18.4859C132.124 18.2707 132.847 17.9631 133.443 17.5644L132.136 14.9169C131.646 15.1321 131.115 15.2969 130.542 15.4117C129.969 15.5261 129.453 15.5835 128.994 15.5835C127.113 15.5835 125.452 14.9094 125.039 13.558H133.352C133.443 13.1754 133.489 12.6988 133.489 12.131ZM143.307 14.5488C142.831 15.0699 142.205 15.3312 141.425 15.3312C140.646 15.3312 140.018 15.0699 139.545 14.5488C139.07 14.0271 138.834 13.3439 138.834 12.4992C138.834 11.6555 139.07 10.9728 139.545 10.4501C140.018 9.92846 140.646 9.66763 141.425 9.66763C142.205 9.66763 142.831 9.92846 143.307 10.4501C143.779 10.9728 144.017 11.6555 144.017 12.4992C144.017 13.3439 143.779 14.0271 143.307 14.5488ZM146.081 7.98782C145.5 7.41947 144.812 6.97832 144.017 6.66275C143.221 6.34879 142.358 6.19154 141.425 6.19154C140.492 6.19154 139.628 6.34879 138.834 6.66275C138.038 6.97832 137.35 7.41947 136.769 7.98782C136.188 8.55509 135.733 9.22273 135.405 9.99018C135.075 10.7571 134.911 11.5933 134.911 12.4992C134.911 13.4051 135.075 14.2412 135.405 15.0092C135.733 15.7756 136.188 16.4438 136.769 17.0121C137.35 17.5805 138.038 18.0206 138.834 18.3356C139.628 18.6501 140.492 18.8079 141.425 18.8079C142.358 18.8079 143.221 18.6501 144.017 18.3356C144.812 18.0206 145.5 17.5805 146.081 17.0121C146.662 16.4438 147.117 15.7756 147.445 15.0092C147.774 14.2412 147.94 13.4051 147.94 12.4992C147.94 11.5933 147.774 10.7571 147.445 9.99018C147.117 9.22273 146.662 8.55509 146.081 7.98782ZM113.508 31.9652C114.212 32.8003 114.563 34.026 114.563 35.6372V42.3822H112.614V35.9812C112.614 34.7538 112.404 33.8554 111.984 33.2892C111.563 32.7203 110.894 32.4369 109.977 32.4369C108.967 32.4369 108.183 32.7707 107.625 33.4378C107.067 34.1055 106.788 35.0372 106.788 36.2356V42.3822H104.839V31.0324H106.674L106.704 33.0466C106.965 32.4208 107.351 31.9088 107.866 31.5154C108.57 30.9782 109.425 30.7099 110.435 30.7099C111.781 30.7099 112.806 31.1274 113.508 31.9652ZM146.501 38.5025C146.317 39.0328 146.053 39.482 145.711 39.8496C145.365 40.2183 144.956 40.5065 144.482 40.7136C144.008 40.9192 143.473 41.0238 142.877 41.0238C142.281 41.0238 141.746 40.9192 141.271 40.7136C140.797 40.5065 140.388 40.2183 140.044 39.8496C139.7 39.482 139.436 39.0328 139.253 38.5025C139.069 37.9728 138.978 37.3851 138.978 36.7411C138.978 36.0966 139.069 35.5094 139.253 34.9803C139.436 34.4516 139.7 34.003 140.044 33.6327C140.388 33.2661 140.797 32.9779 141.271 32.7707C141.746 32.563 142.281 32.46 142.877 32.46C143.473 32.46 144.008 32.563 144.482 32.7707C144.956 32.9779 145.365 33.2661 145.711 33.6327C146.053 34.003 146.317 34.4516 146.501 34.9803C146.684 35.5094 146.777 36.0966 146.777 36.7411C146.777 37.3851 146.684 37.9728 146.501 38.5025ZM147.086 32.4369C146.559 31.8997 145.935 31.4779 145.216 31.1693C144.497 30.8623 143.717 30.7099 142.877 30.7099C142.037 30.7099 141.257 30.8623 140.537 31.1693C139.818 31.4779 139.196 31.8997 138.668 32.4369C138.141 32.9741 137.727 33.6101 137.43 34.3464C137.132 35.0838 136.982 35.8824 136.982 36.7411C136.982 37.6014 137.132 38.3984 137.43 39.1358C137.727 39.8721 138.141 40.5102 138.668 41.0469C139.196 41.5841 139.818 42.0065 140.537 42.313C141.257 42.6189 142.037 42.7734 142.877 42.7734C143.717 42.7734 144.497 42.6189 145.216 42.313C145.935 42.0065 146.559 41.5841 147.086 41.0469C147.613 40.5102 148.027 39.8721 148.324 39.1358C148.622 38.3984 148.771 37.6014 148.771 36.7411C148.771 35.8824 148.622 35.0838 148.324 34.3464C148.027 33.6101 147.613 32.9741 147.086 32.4369ZM76.3633 14.3985C75.9189 14.882 75.3463 15.1235 74.6427 15.1235C73.939 15.1235 73.3621 14.882 72.9108 14.3985C72.4601 13.9155 72.2345 13.2822 72.2345 12.4992C72.2345 11.7162 72.4601 11.0839 72.9108 10.6004C73.3621 10.1163 73.939 9.87533 74.6427 9.87533C75.3463 9.87533 75.9189 10.1163 76.3633 10.6004C76.8054 11.0839 77.0284 11.7162 77.0284 12.4992C77.0284 13.2822 76.8054 13.9155 76.3633 14.3985ZM80.9267 6.55917H77.0509L77.0054 7.94113C76.6531 7.38781 76.1831 6.95954 75.5949 6.65148C75.0057 6.34503 74.3523 6.19154 73.6332 6.19154C72.8536 6.19154 72.127 6.35255 71.4549 6.67456C70.7817 6.9971 70.1968 7.44255 69.7001 8.01036C69.2028 8.57817 68.8173 9.2501 68.5414 10.0245C68.2666 10.7995 68.1287 11.6399 68.1287 12.5453C68.1287 13.4668 68.2623 14.3105 68.5302 15.0779C68.7975 15.8459 69.1686 16.505 69.6429 17.0578C70.1166 17.61 70.6823 18.0399 71.3399 18.3463C71.9971 18.6544 72.7237 18.8079 73.5193 18.8079C74.2834 18.8079 74.9672 18.6571 75.5714 18.3581C76.1756 18.0592 76.6531 17.6331 77.0054 17.0803L77.0509 18.4386H80.9267V6.55917ZM192.717 39.3435C192.717 40.4024 192.3 41.2385 191.467 41.853C190.633 42.4659 189.513 42.7734 188.107 42.7734C187.373 42.7734 186.646 42.6699 185.928 42.4616C185.21 42.2561 184.636 41.9904 184.208 41.6684L185.012 40.2644C186.004 40.8473 187.037 41.1392 188.107 41.1392C188.947 41.1392 189.599 40.9927 190.056 40.7008C190.515 40.4088 190.744 39.9961 190.744 39.4589C190.744 39.2131 190.71 38.9968 190.641 38.8138C190.572 38.6297 190.438 38.4633 190.24 38.3195C190.041 38.1725 189.765 38.0308 189.414 37.8934C189.062 37.7544 188.603 37.6014 188.038 37.4318C186.799 37.0642 185.912 36.6107 185.377 36.074C184.842 35.5363 184.574 34.8316 184.574 33.9563C184.574 32.9741 184.953 32.1868 185.709 31.5954C186.466 31.0056 187.487 30.7099 188.772 30.7099C189.353 30.7099 189.972 30.7979 190.629 30.9739C191.287 31.15 191.837 31.377 192.281 31.6544L191.524 33.0584C190.576 32.5813 189.658 32.3452 188.772 32.3452C187.227 32.3452 186.456 32.8115 186.456 33.7486C186.456 34.2246 186.631 34.6046 186.982 34.8885C187.334 35.1719 187.946 35.4445 188.819 35.7059C189.552 35.92 190.167 36.1427 190.664 36.3735C191.16 36.6027 191.562 36.8603 191.868 37.1442C192.174 37.4286 192.391 37.7501 192.522 38.1113C192.653 38.4725 192.717 38.8825 192.717 39.3435ZM66.7187 27.1415H60.7549V42.3822H58.691V27.1415H52.7278V25.3694H66.7187V27.1415ZM57.6703 4.44142H58.9776C60.965 4.44142 61.959 5.24 61.959 6.8361C61.959 8.47942 60.9501 9.29947 58.9316 9.29947H57.6703V4.44142ZM59.963 12.7756L63.0139 18.4386H68.0602L63.725 11.5095C64.5661 11.0185 65.2157 10.3616 65.675 9.54205C66.1338 8.71932 66.3626 7.82574 66.3626 6.85918C66.3626 5.93823 66.206 5.10959 65.8926 4.37273C65.5788 3.63586 65.1318 3.01438 64.5511 2.50883C63.9699 2.00113 63.2588 1.61471 62.4178 1.34584C61.5767 1.0775 60.6207 0.942788 59.5508 0.942788H53.2667V18.4386H57.6703V12.7981H58.9316L59.963 12.7756ZM70.971 32.3908C71.5987 32.3908 72.1259 32.5024 72.5547 32.7251C72.9825 32.9462 73.3263 33.2344 73.5867 33.587C73.8465 33.9407 74.0331 34.3464 74.1481 34.8085C74.239 35.1703 74.2834 35.54 74.3026 35.9125H67.4202C67.5298 34.947 67.8325 34.1586 68.3345 33.5532C68.9767 32.7777 69.8551 32.3908 70.971 32.3908ZM74.7678 32.2754C74.3165 31.7838 73.7775 31.4006 73.1509 31.1237C72.5237 30.8489 71.8356 30.7099 71.0865 30.7099C70.2604 30.7099 69.5039 30.8591 68.8157 31.1591C68.1281 31.4586 67.5352 31.8804 67.0385 32.4251C66.5412 32.9693 66.1557 33.623 65.8803 34.3824C65.605 35.1423 65.467 35.9742 65.467 36.879C65.467 38.736 66.0178 40.1829 67.1187 41.2192C68.2196 42.2561 69.7642 42.7734 71.7516 42.7734C72.5617 42.7734 73.3455 42.6817 74.1026 42.4976C74.8597 42.313 75.4981 42.0591 76.0184 41.7376L75.2837 40.3106C74.1064 40.785 72.9595 41.0238 71.8436 41.0238C70.3904 41.0238 69.282 40.6739 68.5179 39.9762C67.8811 39.395 67.5143 38.5513 67.4074 37.4544H76.1323C76.1478 37.3014 76.159 37.1624 76.167 37.0417C76.174 36.9172 76.1783 36.6955 76.1783 36.3735C76.1783 35.5282 76.0558 34.7575 75.8115 34.0588C75.5666 33.36 75.2185 32.7659 74.7678 32.2754ZM176.583 32.3908C178.539 32.3908 179.648 33.3729 179.909 35.3366C179.939 35.4601 179.958 35.605 179.965 35.7746C179.966 35.788 179.966 35.8062 179.967 35.8196H173.144C173.252 34.9223 173.545 34.172 174.027 33.5763C174.66 32.7847 175.512 32.3908 176.583 32.3908ZM180.436 32.241C179.993 31.7575 179.453 31.3813 178.819 31.1119C178.184 30.8441 177.477 30.7099 176.698 30.7099C175.902 30.7099 175.168 30.8591 174.496 31.1591C173.823 31.4586 173.242 31.8804 172.753 32.4251C172.263 32.9693 171.88 33.6139 171.605 34.3593C171.331 35.1032 171.193 35.9125 171.193 36.7867C171.193 38.6903 171.733 40.163 172.81 41.2079C173.888 42.2518 175.406 42.7734 177.363 42.7734C178.203 42.7734 179.006 42.6731 179.771 42.4745C180.535 42.2749 181.207 41.9974 181.789 41.6453L181.101 40.1727C179.878 40.7389 178.662 41.0238 177.454 41.0238C174.797 41.0238 173.359 39.8013 173.131 37.3621H181.789C181.805 37.2091 181.816 37.0712 181.825 36.9488C181.831 36.8254 181.835 36.6027 181.835 36.2817C181.835 35.437 181.713 34.6738 181.469 33.9901C181.225 33.308 180.879 32.7251 180.436 32.241ZM87.8418 40.448L88.5529 41.8992C88.0631 42.174 87.5012 42.3902 86.8676 42.5437C86.2329 42.6967 85.594 42.7734 84.9518 42.7734C84.0038 42.7734 83.1435 42.636 82.3715 42.3591C81.5994 42.0827 80.9417 41.6824 80.399 41.1618C79.8563 40.6396 79.4393 40.0101 79.1489 39.2737C78.8586 38.5374 78.7137 37.7168 78.7137 36.8104C78.7137 35.9055 78.8624 35.0801 79.1607 34.3362C79.4585 33.5913 79.875 32.9511 80.4108 32.4138C80.946 31.8766 81.5919 31.4586 82.3485 31.1591C83.1056 30.8591 83.9343 30.7099 84.8369 30.7099C86.0447 30.7099 87.2071 31.0163 88.3235 31.6314L87.5664 33.0584C87.1691 32.8593 86.7414 32.709 86.2821 32.6087C85.8233 32.5094 85.3721 32.46 84.9294 32.46C83.629 32.46 82.6014 32.8432 81.8443 33.6101C81.0872 34.3781 80.7086 35.4144 80.7086 36.7186C80.7086 38.0694 81.0946 39.1251 81.8672 39.8845C82.6388 40.6444 83.7055 41.0238 85.0668 41.0238C85.9533 41.0238 86.8788 40.8312 87.8418 40.448ZM100.067 31.9748C100.778 32.8207 101.134 34.04 101.134 35.6372V42.3822H99.1839V35.9812C99.1839 34.7538 98.97 33.8554 98.5418 33.2892C98.1135 32.7203 97.4409 32.4369 96.5239 32.4369C95.5144 32.4369 94.73 32.7707 94.1718 33.4378C93.6142 34.1055 93.3356 35.0372 93.3356 36.2356V42.3822H91.3856V25.3463H93.3356V32.892C93.6099 32.3054 93.9981 31.8251 94.5049 31.4586C95.1931 30.9594 96.0186 30.7099 96.9821 30.7099C98.3274 30.7099 99.3555 31.1317 100.067 31.9748ZM104.968 18.6463C104.364 18.7531 103.741 18.8079 103.099 18.8079C100.117 18.8079 98.6268 17.2499 98.6268 14.1334V9.89787H96.6319V6.55917H98.6268V3.49793H102.754V6.55917H106.608L105.577 9.89787H102.754V13.4212C102.754 14.1414 102.87 14.6443 103.099 14.9282C103.329 15.2126 103.719 15.3549 104.269 15.3549C104.895 15.3549 105.508 15.2389 106.104 15.0092L106.517 18.2089C106.088 18.393 105.572 18.5385 104.968 18.6463ZM159.759 39.8158C159.416 40.1909 159.006 40.4872 158.532 40.7008C158.058 40.9165 157.546 41.0238 156.996 41.0238C155.804 41.0238 154.858 40.6444 154.163 39.8845C153.467 39.1251 153.119 38.0925 153.119 36.7867C153.119 36.1572 153.215 35.5781 153.406 35.05C153.598 34.5198 153.866 34.0631 154.208 33.6793C154.554 33.2951 154.962 32.9972 155.436 32.7815C155.91 32.5668 156.43 32.46 156.996 32.46C157.576 32.46 158.108 32.563 158.589 32.7707C159.071 32.9779 159.481 33.2693 159.817 33.6461C160.153 34.0217 160.413 34.4774 160.597 35.0141C160.78 35.5513 160.871 36.1427 160.871 36.7867C160.871 37.4018 160.773 37.9658 160.574 38.48C160.375 38.9936 160.104 39.4396 159.759 39.8158ZM160.735 33.06C160.373 32.438 159.915 31.9249 159.358 31.5262C158.593 30.9825 157.714 30.7099 156.721 30.7099C155.925 30.7099 155.187 30.8671 154.507 31.1822C153.826 31.4967 153.235 31.926 152.73 32.4707C152.225 33.016 151.831 33.6557 151.549 34.3931C151.265 35.1295 151.125 35.9286 151.125 36.7867C151.125 37.6766 151.254 38.4907 151.514 39.2281C151.774 39.9644 152.141 40.5934 152.616 41.1167C153.088 41.6362 153.654 42.0441 154.312 42.3355C154.969 42.6269 155.696 42.7734 156.491 42.7734C157.546 42.7734 158.471 42.5115 159.266 41.9904C159.871 41.5933 160.359 41.0711 160.734 40.4249V41.7607C160.734 43.4019 160.394 44.6073 159.713 45.3742C159.034 46.1427 157.974 46.5265 156.537 46.5265C154.886 46.5265 153.594 46.2264 152.661 45.6286L152.156 47.2172C152.355 47.3701 152.619 47.5086 152.948 47.6299C153.276 47.7544 153.636 47.8612 154.025 47.954C154.415 48.0458 154.828 48.1177 155.264 48.1719C155.699 48.2261 156.132 48.2524 156.561 48.2524C160.642 48.2524 162.683 46.0187 162.683 41.553V31.0324H160.78L160.735 33.06Z" fill="#CE1126"/>
</g>
<defs>
<clipPath id="clip0_1061_15133">
<rect width="193" height="48" fill="white"/>
</clipPath>
</defs>
</svg>
