<svg width="160" height="48" viewBox="0 0 160 48" fill="none" xmlns="http://www.w3.org/2000/svg">
<g clip-path="url(#clip0_1130_11406)">
<g clip-path="url(#clip1_1130_11406)">
<path d="M1.8773 33.2222C3.50731 34.6178 5.95407 35.3128 9.21758 35.3072C12.3841 35.3072 14.8308 34.6356 16.5578 33.2923C17.4243 32.5512 18.1087 31.6207 18.5579 30.5727C19.0071 29.5247 19.2091 28.3875 19.1483 27.2489C19.1735 26.0959 18.9006 24.9559 18.356 23.9393C17.7915 22.9505 16.9485 22.1497 15.9319 21.6367C15.3289 21.3325 14.698 21.0871 14.0479 20.904C13.1666 20.6329 8.77798 19.4387 8.3321 19.3183C5.88708 18.7186 4.33801 17.9032 4.32441 16.4661C4.44896 13.6632 7.05935 13.4434 8.49747 13.4434C9.74165 13.3758 10.9754 13.7029 12.0226 14.378C12.4581 14.6878 12.8112 15.0992 13.0513 15.5766C13.2914 16.054 13.4111 16.5829 13.4001 17.1172H18.2828C18.273 16.0198 18.0382 14.9361 17.5928 13.9331C17.1474 12.9301 16.5009 12.0292 15.6933 11.2862C13.7518 9.82717 11.3523 9.11099 8.92869 9.26715C5.80963 9.26715 3.43509 9.91539 1.80508 11.2119C0.996236 11.8831 0.354228 12.733 -0.0704075 13.6945C-0.495043 14.656 -0.690716 15.7029 -0.642025 16.7529C-0.706468 17.8448 -0.487436 18.9349 -0.00620031 19.9172C0.475035 20.8994 1.20212 21.7406 2.10443 22.3589C3.64268 23.1541 5.29241 23.712 6.99759 24.0136L8.9423 24.4323C12.3157 25.2539 14.2541 26.2964 14.1913 27.9638C14.2049 28.4129 14.1069 28.8583 13.9059 29.2602C13.705 29.6621 13.4075 30.0078 13.04 30.2664C12.0112 30.8471 10.8379 31.122 9.65822 31.0588C8.26136 31.1395 6.87414 30.782 5.69031 30.0362C5.20373 29.6903 4.80193 29.2386 4.51512 28.715C4.22832 28.1914 4.06398 27.6096 4.03448 27.0134H-0.999985C-1.00951 28.1937 -0.756262 29.3613 -0.2586 30.4315C0.239063 31.5018 0.968664 32.4479 1.8773 33.2013" fill="#032139"/>
<path d="M25.0924 39.6013C25.0952 39.9216 25.0348 40.2394 24.9147 40.5364C24.7946 40.8334 24.6172 41.1038 24.3926 41.3323C24.168 41.5607 23.9005 41.7426 23.6056 41.8676C23.3106 41.9927 22.9939 42.0584 22.6736 42.061H20.1731V24.0583C20.4609 19.2666 22.2026 15.4495 29.479 15.1888C30.7489 15.1493 32.0124 15.3848 33.1829 15.879C34.3533 16.3733 35.4031 17.1147 36.2604 18.0525C37.7408 20.1341 38.469 22.6573 38.3254 25.2075C38.4492 27.8398 37.6851 30.4374 36.1557 32.5834C35.5144 33.4524 34.6743 34.1551 33.7057 34.6329C32.7372 35.1108 31.6683 35.3497 30.5885 35.3298C28.6207 35.397 26.6865 34.8079 25.0903 33.6552C25.0903 33.8174 25.0924 39.6013 25.0924 39.6013ZM33.337 25.4326C33.337 23.5486 32.9906 19.5712 29.142 19.5712C25.487 19.5712 25.0924 23.4533 25.0924 25.4326C25.0924 30.4356 27.9362 31.0689 29.2875 31.0689C32.7844 31.0699 33.337 27.3616 33.337 25.4326Z" fill="#032139"/>
<path d="M48.2509 19.4313C51.3438 19.3915 51.8232 22.0228 51.9206 23.3186H44.5834C44.5834 23.3186 44.5206 19.4993 48.2509 19.4313ZM48.4666 31.0168C47.2221 30.9561 44.8472 30.7101 44.6232 26.557H57.0932V25.0602C57.1815 22.4623 56.3679 19.9138 54.7905 17.8477C53.9267 16.9605 52.882 16.2698 51.7273 15.8226C50.5727 15.3754 49.3352 15.1822 48.0992 15.2561C46.9005 15.1925 45.7029 15.3987 44.5945 15.8593C43.4861 16.32 42.4951 17.0234 41.6946 17.9178C40.1012 19.9648 39.3076 22.522 39.4621 25.1115C39.4621 28.3269 40.2296 30.7977 41.7648 32.524C42.5652 33.4185 43.5561 34.122 44.6645 34.5827C45.773 35.0434 46.9707 35.2494 48.1693 35.1857C50.1713 35.2621 52.1432 34.6809 53.7836 33.5309C55.3163 32.4097 56.3921 30.7722 56.8127 28.9203H52.4899C51.8494 30.7311 50.2229 31.1026 48.4802 31.0137L48.4666 31.0168Z" fill="#032139"/>
<path d="M70.8484 28.9308H75.5762C75.1151 30.7899 74.0221 32.4309 72.4842 33.5727C70.9464 34.7146 69.0594 35.2863 67.1464 35.1899C59.9976 35.1899 58.2434 29.4562 58.2434 25.6893C58.2434 21.9223 58.9112 15.4874 66.87 15.2624C68.8096 15.1114 70.7391 15.6594 72.3096 16.8074C73.8802 17.9554 74.988 19.6276 75.4328 21.5215H70.3973C70.3973 21.5215 69.9075 19.3664 66.9109 19.4323C63.9143 19.4982 63.1292 22.3148 63.1292 24.9922C63.1292 27.6696 63.7949 31.0147 67.1233 31.0147C70.2905 31.11 70.569 29.4018 70.8484 28.9308Z" fill="#032139"/>
<path d="M81.6835 20.803H84.6425V15.7612H81.6888V12.5228C81.7081 12.2027 81.6605 11.882 81.549 11.5812C81.4376 11.2805 81.2647 11.0062 81.0413 10.776C80.818 10.5457 80.5491 10.3646 80.2519 10.244C79.9546 10.1235 79.6355 10.0661 79.3149 10.0757H76.7234V31.231C76.7234 33.4373 77.5796 34.7561 79.4311 34.7561H81.6835V20.803Z" fill="#032139"/>
<path d="M89.9135 34.7922V24.9357C89.8647 24.3676 89.9285 23.7956 90.1013 23.2522C90.2741 22.7089 90.5525 22.205 90.9204 21.7695C91.3437 21.4044 91.8355 21.1272 92.3671 20.9543C92.8987 20.7814 93.4594 20.7163 94.0165 20.7626H95.6713V15.6559C94.1549 15.627 92.6415 15.7995 91.1706 16.1688C90.0134 16.4886 88.9273 17.0249 87.9699 17.7493C86.9728 18.5648 86.1941 19.6154 85.7038 20.8066C85.1105 22.304 84.8288 23.9066 84.8759 25.5166V34.7995L89.9135 34.7922Z" fill="#032139"/>
<path d="M97.0906 15.6841H102.128V27.9165C102.097 28.3591 102.161 28.8032 102.317 29.2188C102.472 29.6344 102.715 30.0119 103.029 30.3256C103.342 30.6393 103.72 30.8821 104.135 31.0374C104.551 31.1928 104.995 31.2571 105.438 31.226C105.872 31.2584 106.308 31.2002 106.719 31.0551C107.13 30.9101 107.506 30.6814 107.824 30.3835C108.142 30.0856 108.394 29.725 108.565 29.3245C108.737 28.924 108.823 28.4923 108.818 28.0567V18.0642C108.818 18.0642 108.987 15.6925 111.172 15.6925H113.789V27.0519C113.755 27.6726 114.451 35.195 105.442 35.1657C96.5191 35.1657 97.1513 27.5543 97.0948 27.1064L97.0906 15.6841Z" fill="#032139"/>
<path d="M131.972 34.8561H126.984V22.5557C127.03 22.101 126.973 21.642 126.817 21.2125C126.661 20.7829 126.411 20.3939 126.084 20.0742C125.758 19.7544 125.364 19.5121 124.931 19.3652C124.498 19.2182 124.038 19.1704 123.585 19.2252C123.14 19.1952 122.693 19.2608 122.276 19.4176C121.858 19.5744 121.479 19.8187 121.163 20.1341C120.848 20.4496 120.603 20.8289 120.447 21.2465C120.29 21.6642 120.224 22.1106 120.254 22.5557V34.8561H115.197V23.5825C115.197 20.3064 116.167 18.3031 117.759 17.001C119.403 15.7978 121.395 15.1629 123.432 15.1924C124.527 15.1907 125.618 15.3119 126.686 15.5535C127.752 15.7977 128.744 16.2933 129.579 16.9989C130.32 16.3639 131.196 15.9067 132.141 15.6623C133.142 15.3736 134.175 15.2157 135.216 15.1924C141.392 15.1589 143.868 17.988 144.073 18.8955V34.8624H141.225C140.901 34.8673 140.579 34.8071 140.278 34.6852C139.978 34.5634 139.704 34.3824 139.475 34.153C139.246 33.9236 139.065 33.6505 138.943 33.3498C138.821 33.0492 138.761 32.7271 138.766 32.4027V22.5641C138.778 21.1709 138.291 19.2325 135.366 19.2325C134.914 19.1863 134.457 19.2401 134.029 19.3902C133.6 19.5403 133.209 19.783 132.885 20.101C132.56 20.4189 132.31 20.8045 132.151 21.2302C131.992 21.6558 131.929 22.1113 131.966 22.5641L131.972 34.8561Z" fill="#032139"/>
<path d="M145.49 18.8794V34.8337L156 26.8581L145.49 18.8794Z" fill="#0171EB"/>
</g>
</g>
<defs>
<clipPath id="clip0_1130_11406">
<rect width="160" height="48" fill="white"/>
</clipPath>
<clipPath id="clip1_1130_11406">
<rect width="157" height="32.7921" fill="white" transform="translate(-1 9.26904)"/>
</clipPath>
</defs>
</svg>
