<svg width="271" height="52" viewBox="0 0 271 52" fill="none" xmlns="http://www.w3.org/2000/svg">
<g clip-path="url(#clip0_1061_15132)">
<path fill-rule="evenodd" clip-rule="evenodd" d="M26.0985 0.233887C40.5027 0.233887 52.197 11.8609 52.197 26.117C52.197 40.4024 40.4733 52.0002 26.0985 52.0002C11.7237 52.0002 0 40.3732 0 26.117C0 11.8316 11.7237 0.233887 26.0985 0.233887ZM26.0985 2.97995C13.226 2.97995 2.76891 13.3507 2.76891 26.117C2.76891 38.8833 13.226 49.2541 26.0985 49.2541C38.971 49.2541 49.428 38.8833 49.428 26.117C49.428 13.3507 38.971 2.97995 26.0985 2.97995ZM13.7267 13.0002C13.7562 13.0294 13.7857 13.0294 13.7267 13.0002C12.1655 15.3373 11.2229 18.0833 11.2229 21.0923C11.2229 29.0384 17.7328 35.4946 25.745 35.4946C26.393 35.4946 27.0705 35.4361 27.6891 35.3485C27.6891 35.3485 28.1604 35.2901 28.3961 35.2901C30.7821 35.2901 32.6967 37.2182 32.6967 39.5552C32.6967 41.6586 31.165 43.4406 29.1325 43.7912C28.131 43.9665 27.1295 44.0541 26.0985 44.0541C16.1127 44.0541 7.98272 36.0204 7.98272 26.0878C8.01217 20.9462 10.192 16.3013 13.7267 13.0002ZM29.6038 8.99793L29.6627 9.02715C29.6627 9.02715 29.6922 9.02715 29.6922 9.05636C29.6922 9.05636 29.6922 9.08557 29.6627 9.08557H29.6333C23.8598 10.4002 19.618 15.6586 19.4118 21.9979C19.3235 24.0137 19.7064 26.0294 20.4723 27.8991C21.2382 29.7395 22.387 31.4047 23.8598 32.7485L23.8892 32.7777C23.8892 32.7777 23.8892 32.7777 23.8892 32.8069C23.8892 32.8069 23.8892 32.8069 23.8598 32.8069C22.2691 32.4856 20.7374 31.8137 19.3824 30.908C17.9979 29.9732 16.8491 28.7755 15.9654 27.3732C15.0817 25.971 14.4926 24.4226 14.198 22.7867C13.9329 21.1507 13.9918 19.4856 14.4042 17.8788C14.8166 16.2137 15.5825 14.6361 16.6429 13.2923C17.7034 11.9485 19.0584 10.8092 20.5901 10.0204C23.359 8.53052 26.5698 8.17995 29.6038 8.99793ZM36.2904 12.5912C38.7942 13.526 40.8562 15.3373 42.0345 17.7035L42.0639 17.762V17.7912C42.0639 17.7912 42.0639 17.7912 42.0345 17.7912L42.005 17.762C37.8811 14.8698 32.1076 15.162 27.8953 18.5507C26.5403 19.6316 25.4504 20.9755 24.6846 22.4946C23.9187 24.0137 23.5063 25.6496 23.4474 27.3148V27.344C23.4474 27.344 23.4474 27.344 23.4179 27.3732C22.7404 26.1755 22.2691 24.8609 22.1218 23.517C21.9451 22.144 22.0629 20.7418 22.4753 19.3979C22.8877 18.0541 23.5358 16.8271 24.4489 15.7462C25.3621 14.6653 26.4814 13.7889 27.748 13.1462C29.0736 12.4743 30.517 12.0946 31.9898 12.0069C33.4332 11.8609 34.906 12.0946 36.2904 12.5912Z" fill="#24B9D5"/>
<path fill-rule="evenodd" clip-rule="evenodd" d="M134.057 13.3506C137.768 13.3506 140.802 14.4607 143.1 16.5056L140.891 20.0113C138.946 18.0832 136.295 17.2068 133.674 17.2068C131.081 17.2068 129.461 18.4337 129.461 20.2742C129.461 22.2023 131.995 22.845 134.94 23.5753C135.117 23.6045 135.264 23.6629 135.441 23.6922L135.706 23.7506C135.795 23.7798 135.883 23.7798 135.971 23.809L136.236 23.8674C140.036 24.8899 143.983 26.3798 143.983 31.2292C143.983 35.3483 141.067 38.854 134.351 38.854C129.874 38.854 126.604 37.3349 124.395 35.1146L126.663 31.609C128.371 33.4202 131.081 35.027 134.557 35.027C138.151 35.027 139.565 33.2742 139.565 31.6674C139.565 29.4472 136.914 28.7753 133.88 27.9865L133.762 27.9573L133.526 27.8989C133.497 27.8989 133.438 27.8697 133.409 27.8697L133.173 27.8113C132.967 27.7528 132.761 27.6944 132.554 27.6652L132.319 27.6068C128.696 26.6427 125.072 25.1528 125.072 20.5955C124.984 16.5056 128.607 13.3506 134.057 13.3506ZM85.3061 13.7304V17.5573H77.7652V38.445H73.4056V17.5573H65.8647V13.7304H85.3061ZM97.8251 13.7304C105.602 13.7304 110.874 18.8427 110.874 26.1169C110.874 33.391 105.602 38.445 97.8251 38.445H88.5463V13.7304H97.8251ZM149.993 13.7304L156.856 24.3349L163.69 13.7304H168.697L159.065 28.191V38.445H154.706V28.191L144.985 13.7304H149.993ZM176.003 13.7304L188.728 31.2585V13.7304H193.087V38.445H188.875L175.885 20.4495V38.445H171.525V13.7304H176.003ZM203.191 13.7304L215.916 31.2585V13.7304H220.276V38.445H216.064L203.073 20.4495V38.445H198.714V13.7304H203.191ZM242.957 13.7304V17.5573H230.262V23.9551H242.692V27.782H230.262V34.6472H242.957V38.4742H225.873V13.7304H242.957ZM252.266 13.7304L258.687 22.8158L265.079 13.7304H270.352L261.603 25.7371L270.912 38.445H265.668L258.687 28.7753L251.706 38.445H246.463L255.8 25.7663L247.022 13.7304H252.266ZM97.8251 17.5573H92.9353V34.6472H97.8251C103.245 34.6472 106.367 30.791 106.367 26.1169C106.367 21.3259 103.392 17.5573 97.8251 17.5573Z" fill="#006A77"/>
</g>
<defs>
<clipPath id="clip0_1061_15132">
<rect width="271" height="52" fill="white"/>
</clipPath>
</defs>
</svg>
