<svg width="160" height="48" viewBox="0 0 160 48" fill="none" xmlns="http://www.w3.org/2000/svg">
<g clip-path="url(#clip0_1130_11629)">
<mask id="mask0_1130_11629" style="mask-type:luminance" maskUnits="userSpaceOnUse" x="0" y="5" width="156" height="38">
<path d="M156 5H0V42.2558H156V5Z" fill="white"/>
</mask>
<g mask="url(#mask0_1130_11629)">
<path d="M129.614 20.6727C121.653 20.6727 116.678 17.364 116.678 14.0551C116.678 10.7463 121.653 7.43652 129.614 7.43652C137.575 7.43652 142.55 10.7456 142.55 14.0544C142.55 17.3633 137.575 20.6727 129.614 20.6727ZM129.614 8.49016C123.873 8.49016 122.342 11.541 122.342 14.0551C122.342 16.5693 123.874 19.6201 129.614 19.6201C135.354 19.6201 136.886 16.569 136.886 14.0551C136.886 11.5413 135.355 8.49033 129.614 8.49033V8.49016Z" fill="#315CA8"/>
<path d="M70.3137 8.74824H65.2612V19.2979L67.8638 20.3935H58.0662L60.6688 19.2979V8.74824H55.6167L52.1721 11.2836V7.7168H73.7579V11.2836L70.3137 8.74824Z" fill="#315CA8"/>
<path d="M74.8196 20.3935L77.4222 19.2979V8.81242L74.8196 7.7168H93.7008V11.2836L90.2561 8.74824H82.0149V13.4913H85.8611L88.4384 12.3954V15.6193L85.8611 14.5236H82.0151V19.3631H90.2563L93.7009 16.8277V20.3945L74.8196 20.3935Z" fill="#315CA8"/>
<path d="M107.694 20.5657C99.9119 20.5657 94.7578 17.3644 94.7578 14.0553C94.7578 10.6818 100.04 7.54492 107.694 7.54492C112.465 7.54492 114.073 7.99621 115.297 8.29696V11.9926L111.189 9.17785C110.195 8.74773 109.148 8.57568 107.694 8.57568C101.953 8.57568 100.422 11.5836 100.422 14.0546C100.422 16.5256 102.158 19.5332 107.694 19.5332C109.148 19.5332 110.195 19.3612 111.189 18.9311L115.297 16.1163V19.835C113.996 20.1571 112.21 20.5657 107.694 20.5657Z" fill="#315CA8"/>
<path d="M143.489 18.6963C143.756 18.6969 144.012 18.8035 144.2 18.9927C144.389 19.1819 144.495 19.4382 144.495 19.7053C144.494 19.9724 144.388 20.2285 144.199 20.4172C144.01 20.606 143.754 20.712 143.487 20.712C143.22 20.712 142.963 20.606 142.774 20.4172C142.585 20.2285 142.479 19.9724 142.479 19.7053C142.478 19.4382 142.584 19.1819 142.773 18.9927C142.961 18.8035 143.217 18.6969 143.484 18.6963H143.489ZM143.484 18.8539C143.268 18.8545 143.06 18.9411 142.907 19.0948C142.754 19.2485 142.668 19.4566 142.668 19.6734C142.668 19.8903 142.755 20.0982 142.908 20.2515C143.062 20.4047 143.27 20.4908 143.487 20.4908C143.703 20.4908 143.912 20.4047 144.065 20.2515C144.218 20.0982 144.305 19.8903 144.305 19.6734C144.305 19.4566 144.22 19.2485 144.067 19.0948C143.914 18.9411 143.706 18.8545 143.489 18.8539H143.484ZM143.295 20.3013H143.115V19.1694C143.221 19.1522 143.328 19.1432 143.435 19.1426C143.558 19.1339 143.681 19.164 143.787 19.2286C143.822 19.2561 143.85 19.2919 143.868 19.3327C143.886 19.3736 143.893 19.4183 143.89 19.4628C143.89 19.5269 143.868 19.5892 143.828 19.6392C143.787 19.6893 143.731 19.7241 143.669 19.7381V19.7468C143.768 19.7649 143.836 19.8551 143.858 20.0221C143.868 20.1184 143.892 20.2127 143.931 20.3015H143.741C143.699 20.2107 143.673 20.113 143.665 20.013C143.663 19.9834 143.655 19.9545 143.642 19.9281C143.629 19.9017 143.61 19.8784 143.587 19.8597C143.564 19.841 143.537 19.8273 143.509 19.8195C143.48 19.8118 143.45 19.8101 143.421 19.8146H143.295L143.295 20.3013ZM143.295 19.6747H143.426C143.575 19.6747 143.701 19.6205 143.701 19.481C143.701 19.3816 143.629 19.2826 143.426 19.2826C143.382 19.2823 143.338 19.2852 143.295 19.2914V19.6747Z" fill="#315CA8"/>
<path d="M57.0171 26.8599H62.8286C63.8671 26.8599 64.3542 27.1234 64.3542 27.8008V28.8816C64.3542 29.5576 63.8671 29.8215 62.8286 29.8215H58.5704V31.7108H57.018L57.0171 26.8599ZM58.5695 27.6971V28.9849H62.1179C62.6046 28.9849 62.8279 28.919 62.8279 28.5995V28.0816C62.8279 27.7631 62.6043 27.6969 62.1179 27.6969L58.5695 27.6971Z" fill="#315CA8"/>
<path d="M66.259 26.8599H73.1999V27.6874H67.836V28.7686H70.9648V29.5962H67.836V30.7988H73.2653V31.7107H66.259V26.8599Z" fill="#315CA8"/>
<path d="M77.1894 26.8599H82.1845C83.4591 26.8599 83.8674 27.0951 83.8674 28.0069V30.5639C83.8674 31.4758 83.4591 31.7108 82.1845 31.7108H77.1894C75.9145 31.7108 75.5071 31.4756 75.5071 30.5639V28.0069C75.5071 27.0951 75.9145 26.8599 77.1894 26.8599ZM82.2902 30.7986V27.7249H77.0838V30.7988L82.2902 30.7986Z" fill="#315CA8"/>
<path d="M86.4111 26.8599H92.2218C93.2596 26.8599 93.7465 27.1234 93.7465 27.8008V28.8816C93.7465 29.5576 93.2598 29.8215 92.2218 29.8215H87.9625V31.7108H86.4111V26.8599ZM87.9625 27.6971V28.9849H91.5117C91.998 28.9849 92.2218 28.919 92.2218 28.5995V28.0816C92.2218 27.7631 91.9981 27.6969 91.5117 27.6969L87.9625 27.6971Z" fill="#315CA8"/>
<path d="M95.6526 26.8599H97.2301V30.7986H102.317V31.7105H95.6526V26.8599Z" fill="#315CA8"/>
<path d="M104.105 26.8599H111.045V27.6874H105.682V28.7686H108.81V29.5962H105.682V30.7988H111.11V31.7107H104.105V26.8599Z" fill="#315CA8"/>
<path d="M114.929 27.7069V28.7502H119.162C120.437 28.7502 120.858 28.985 120.858 29.8962V30.5639C120.858 31.4758 120.437 31.7108 119.162 31.7108H114.969C113.693 31.7108 113.273 31.4756 113.273 30.5639V30.4328L114.666 30.2264V30.7988H119.464V29.6892H115.232C113.957 29.6892 113.55 29.4551 113.55 28.5432V28.0069C113.55 27.0951 113.957 26.8599 115.232 26.8599H119.084C120.293 26.8599 120.766 27.0863 120.766 27.9226V28.0259L119.372 28.261V27.7067L114.929 27.7069Z" fill="#315CA8"/>
<path d="M130.234 27.7249V30.7988H135.163V29.718H132.586V28.8911H136.701V30.5641C136.701 31.476 136.294 31.711 135.018 31.711H130.339C129.063 31.711 128.656 31.4758 128.656 30.5641V28.0069C128.656 27.0951 129.063 26.8599 130.339 26.8599H135.018C136.254 26.8599 136.701 27.0863 136.701 27.961V28.0733L135.163 28.2707V27.7251L130.234 27.7249Z" fill="#315CA8"/>
<path d="M141.812 26.8599H143.336L147.228 31.7117H145.453L144.638 30.6489H140.339L139.55 31.7117H137.973L141.812 26.8599ZM143.981 29.7744L142.521 27.8005L141.01 29.7744H143.981Z" fill="#315CA8"/>
<path d="M150.071 27.7069V28.7502H154.303C155.578 28.7502 155.999 28.985 155.999 29.8962V30.5639C155.999 31.4758 155.578 31.7108 154.303 31.7108H150.11C148.835 31.7108 148.414 31.4756 148.414 30.5639V30.4328L149.808 30.2264V30.7988H154.606V29.6892H150.373C149.099 29.6892 148.691 29.4551 148.691 28.5432V28.0069C148.691 27.0951 149.099 26.8599 150.373 26.8599H154.224C155.434 26.8599 155.907 27.0863 155.907 27.9226V28.0259L154.513 28.261V27.7067L150.071 27.7069Z" fill="#315CA8"/>
<path d="M55.6245 41.0317L57.8016 37.3765H58.6667L60.8738 41.0317H59.8673L59.4052 40.2313H56.9667L56.5193 41.0317H55.6245ZM57.3469 39.5727H59.033L58.2054 38.085L57.3469 39.5727Z" fill="#315CA8"/>
<path d="M61.7686 41.0312V37.376H62.38L65.0869 39.5295C65.243 39.651 65.39 39.7836 65.5268 39.9265C65.5019 39.5864 65.4895 39.3761 65.4897 39.2955V37.376H66.2949V41.0312H65.6834L62.8575 38.7715C62.7425 38.6814 62.6352 38.5819 62.5368 38.474C62.5589 38.6669 62.5713 38.8607 62.5739 39.0548V41.0314L61.7686 41.0312Z" fill="#315CA8"/>
<path d="M70.4705 41.0312V37.376H74.4077V37.9993H71.3651V38.814H73.1398V39.4375H71.3651V40.3442H74.4448V41.0312H70.4705Z" fill="#315CA8"/>
<path d="M75.7573 41.0312V37.376H76.4799L78.2921 39.5863L80.0668 37.376H80.7826V41.0312H79.9547V38.7715C79.9578 38.6412 79.9679 38.5112 79.9848 38.382C79.9206 38.5154 79.8458 38.6434 79.7611 38.7648L78.3142 40.5923H78.1352L76.6885 38.7572C76.595 38.643 76.5174 38.5168 76.4576 38.382C76.4724 38.5282 76.4798 38.6584 76.4798 38.7715V41.0314L75.7573 41.0312Z" fill="#315CA8"/>
<path d="M82.3342 41.0312V37.376H86.2714V37.9993H83.2289V38.814H85.0036V39.4375H83.2289V40.3442H86.3086V41.0312H82.3342Z" fill="#315CA8"/>
<path d="M87.6284 41.0312V37.376H90.9244C91.501 37.376 91.7892 37.6121 91.7891 38.0843V38.9416C91.7891 39.4139 91.5009 39.65 90.9244 39.65H90.4174L92.1924 41.0312H90.9099L89.3587 39.65H88.5076V41.0312H87.6284ZM90.5216 37.9993H88.5076V39.0265H90.5206C90.6194 39.033 90.7186 39.0185 90.8114 38.9838C90.8512 38.9565 90.8827 38.9188 90.9025 38.8747C90.9223 38.8307 90.9295 38.782 90.9234 38.7341V38.2916C90.9295 38.2437 90.9222 38.1951 90.9025 38.151C90.8827 38.107 90.8512 38.0693 90.8114 38.042C90.7189 38.0074 90.6201 37.9929 90.5216 37.9993Z" fill="#315CA8"/>
<path d="M92.5349 41.0312L94.7124 37.376H95.5775L97.7845 41.0312H96.778L96.3156 40.2308H93.8771L93.4298 41.0312H92.5349ZM94.2575 39.5722H95.9436L95.1157 38.0845L94.2575 39.5722Z" fill="#315CA8"/>
<path d="M104.466 38.028H102.05V40.3444H104.466V39.5581L105.361 39.7351V40.1673C105.361 40.5072 105.293 40.7366 105.159 40.8555C105.025 40.9745 104.774 41.0334 104.406 41.0322H102.11C101.742 41.0322 101.491 40.9733 101.357 40.8555C101.223 40.7377 101.155 40.5083 101.155 40.1673V38.2404C101.155 37.9002 101.222 37.6712 101.357 37.5534C101.491 37.4356 101.742 37.3764 102.11 37.376H104.406C104.774 37.376 105.025 37.4351 105.159 37.5534C105.293 37.6716 105.36 37.9006 105.361 38.2404V38.5872L104.466 38.7219V38.028Z" fill="#315CA8"/>
<path d="M106.792 38.2404C106.792 37.9002 106.859 37.6712 106.994 37.5534C107.128 37.4356 107.379 37.3764 107.747 37.376H110.58C110.948 37.376 111.199 37.4351 111.333 37.5534C111.467 37.6716 111.534 37.9006 111.534 38.2404V40.1673C111.534 40.5072 111.467 40.7366 111.333 40.8555C111.199 40.9745 110.948 41.0334 110.58 41.0322H107.747C107.379 41.0322 107.128 40.9733 106.994 40.8555C106.86 40.7377 106.793 40.5083 106.792 40.1673L106.792 38.2404ZM107.687 40.3442H110.64V38.0279H107.687L107.687 40.3442Z" fill="#315CA8"/>
<path d="M113.079 41.0312V37.376H113.801L115.613 39.5863L117.388 37.376H118.104V41.0312H117.276V38.7715C117.279 38.6412 117.289 38.5112 117.306 38.382C117.242 38.5153 117.167 38.6433 117.082 38.7648L115.636 40.5923H115.457L114.011 38.7572C113.918 38.643 113.84 38.5168 113.78 38.382C113.795 38.5282 113.803 38.6584 113.803 38.7715V41.0314L113.079 41.0312Z" fill="#315CA8"/>
<path d="M119.656 41.0312V37.376H122.952C123.529 37.376 123.817 37.6121 123.817 38.0843V38.899C123.817 39.3715 123.529 39.6076 122.952 39.6073H120.536V41.0312H119.656ZM122.549 37.9993H120.536V38.9841H122.549C122.648 38.9909 122.747 38.9761 122.839 38.9408C122.879 38.9132 122.911 38.875 122.931 38.8306C122.95 38.7862 122.958 38.7373 122.951 38.6891V38.2934C122.957 38.2452 122.95 38.1962 122.931 38.1518C122.911 38.1074 122.879 38.0693 122.839 38.0416C122.747 38.0069 122.647 37.9924 122.549 37.9993Z" fill="#315CA8"/>
<path d="M124.122 41.0312L126.3 37.376H127.165L129.372 41.0312H128.365L127.903 40.2308H125.464L125.017 41.0312H124.122ZM125.845 39.5722H127.53L126.702 38.0845L125.845 39.5722Z" fill="#315CA8"/>
<path d="M130.267 41.0312V37.376H130.878L133.585 39.5295C133.741 39.6508 133.888 39.7835 134.025 39.9265C134 39.5864 133.988 39.3761 133.988 39.2955V37.376H134.793V41.0312H134.182L131.355 38.7715C131.241 38.6813 131.134 38.5818 131.035 38.474C131.06 38.7104 131.072 38.904 131.072 39.0548V41.0314L130.267 41.0312Z" fill="#315CA8"/>
<path d="M137.492 41.0312V39.3948L135.494 37.376H136.687L138.007 38.7789L139.334 37.376H140.385L138.395 39.3737V41.031L137.492 41.0312Z" fill="#315CA8"/>
<path d="M26.3428 5.01139C17.6305 5.28667 11.7874 10.8806 8.75928 17.5618C20.3658 13.945 37.516 14.2584 46.3883 20.0887C44.1785 12.1744 38.2847 5.94942 29.124 5.09656C28.1994 5.00995 27.2703 4.98156 26.3422 5.01157L26.3428 5.01139ZM45.3698 22.3181C37.4038 22.3137 29.0022 25.222 26.5977 30.8334C24.0341 36.8125 27.8708 43.1306 34.7945 42.152C42.688 41.0336 47.6677 31.7637 46.9413 22.3605C46.416 22.3343 45.9012 22.3185 45.3701 22.3181H45.3698Z" fill="#315CA8"/>
<path d="M-7.34972e-05 32.5423H14.7054C19.2476 25.392 25.6319 20.0832 37.049 19.8141C21.3812 15.7365 5.08316 21.5064 -7.34972e-05 32.5423Z" fill="#FFC600"/>
</g>
</g>
<defs>
<clipPath id="clip0_1130_11629">
<rect width="156" height="37.2558" fill="white" transform="translate(0 5)"/>
</clipPath>
</defs>
</svg>
