<svg width="496" height="28" viewBox="0 0 496 28" fill="none" xmlns="http://www.w3.org/2000/svg">
<path d="M5.71875 6.56534C5.6733 6.16193 5.4858 5.84943 5.15625 5.62784C4.8267 5.40341 4.41193 5.29119 3.91193 5.29119C3.55398 5.29119 3.24432 5.34801 2.98295 5.46165C2.72159 5.57244 2.51847 5.72585 2.37358 5.92188C2.23153 6.11506 2.16051 6.33523 2.16051 6.58239C2.16051 6.78977 2.20881 6.96875 2.3054 7.11932C2.40483 7.26989 2.53409 7.39631 2.69318 7.49858C2.85511 7.59801 3.02841 7.68182 3.21307 7.75C3.39773 7.81534 3.57528 7.86932 3.74574 7.91193L4.59801 8.13352C4.87642 8.2017 5.16193 8.29403 5.45455 8.41051C5.74716 8.52699 6.01847 8.6804 6.26847 8.87074C6.51847 9.06108 6.72017 9.29688 6.87358 9.57812C7.02983 9.85938 7.10795 10.196 7.10795 10.5881C7.10795 11.0824 6.98011 11.5213 6.72443 11.9048C6.47159 12.2884 6.10369 12.5909 5.62074 12.8125C5.14063 13.0341 4.55966 13.1449 3.87784 13.1449C3.22443 13.1449 2.65909 13.0412 2.18182 12.8338C1.70455 12.6264 1.33097 12.3324 1.06108 11.9517C0.791193 11.5682 0.642045 11.1136 0.613636 10.5881H1.93466C1.96023 10.9034 2.0625 11.1662 2.24148 11.3764C2.4233 11.5838 2.65483 11.7386 2.93608 11.8409C3.22017 11.9403 3.53125 11.9901 3.86932 11.9901C4.24148 11.9901 4.57244 11.9318 4.86222 11.8153C5.15483 11.696 5.38494 11.5312 5.55256 11.321C5.72017 11.108 5.80398 10.8594 5.80398 10.5753C5.80398 10.3168 5.73011 10.1051 5.58239 9.94034C5.4375 9.77557 5.24006 9.6392 4.99006 9.53125C4.7429 9.4233 4.46307 9.32812 4.15057 9.24574L3.11932 8.96449C2.42045 8.77415 1.86648 8.49432 1.45739 8.125C1.05114 7.75568 0.848011 7.26705 0.848011 6.65909C0.848011 6.15625 0.984375 5.71733 1.2571 5.34233C1.52983 4.96733 1.89915 4.67614 2.36506 4.46875C2.83097 4.25852 3.35653 4.15341 3.94176 4.15341C4.53267 4.15341 5.05398 4.2571 5.50568 4.46449C5.96023 4.67188 6.31818 4.95739 6.57955 5.32102C6.84091 5.68182 6.97727 6.09659 6.98864 6.56534H5.71875ZM9.75107 10.7798L9.74254 9.22443H9.96413L12.5721 6.45455H14.0977L11.1232 9.60795H10.9229L9.75107 10.7798ZM8.57919 13V4.27273H9.85334V13H8.57919ZM12.7127 13L10.369 9.8892L11.2468 8.99858L14.2766 13H12.7127ZM15.2589 13V6.45455H16.533V13H15.2589ZM15.9023 5.4446C15.6808 5.4446 15.4904 5.37074 15.3313 5.22301C15.1751 5.07244 15.0969 4.89347 15.0969 4.68608C15.0969 4.47585 15.1751 4.29687 15.3313 4.14915C15.4904 3.99858 15.6808 3.9233 15.9023 3.9233C16.1239 3.9233 16.3129 3.99858 16.4691 4.14915C16.6282 4.29687 16.7077 4.47585 16.7077 4.68608C16.7077 4.89347 16.6282 5.07244 16.4691 5.22301C16.3129 5.37074 16.1239 5.4446 15.9023 5.4446ZM19.5213 4.27273V13H18.2472V4.27273H19.5213ZM22.5096 4.27273V13H21.2354V4.27273H22.5096ZM29.1286 8.05256L27.9737 8.2571C27.9254 8.10937 27.8487 7.96875 27.7436 7.83523C27.6413 7.7017 27.5021 7.59233 27.326 7.5071C27.1499 7.42187 26.9297 7.37926 26.6655 7.37926C26.3047 7.37926 26.0036 7.46023 25.7621 7.62216C25.5206 7.78125 25.3999 7.98722 25.3999 8.24006C25.3999 8.45881 25.4808 8.63494 25.6428 8.76847C25.8047 8.90199 26.0661 9.01136 26.4268 9.09659L27.4666 9.33523C28.0689 9.47443 28.5178 9.68892 28.8132 9.97869C29.1087 10.2685 29.2564 10.6449 29.2564 11.108C29.2564 11.5 29.1428 11.8494 28.9155 12.1562C28.6911 12.4602 28.3771 12.6989 27.9737 12.8722C27.5732 13.0455 27.1087 13.1321 26.5803 13.1321C25.8473 13.1321 25.2493 12.9759 24.7862 12.6634C24.3232 12.348 24.0391 11.9006 23.9339 11.321L25.1655 11.1335C25.2422 11.4545 25.3999 11.6974 25.6385 11.8622C25.8771 12.0241 26.1882 12.1051 26.5717 12.1051C26.9893 12.1051 27.3232 12.0185 27.5732 11.8452C27.8232 11.669 27.9482 11.4545 27.9482 11.2017C27.9482 10.9972 27.8714 10.8253 27.718 10.6861C27.5675 10.5469 27.3359 10.4418 27.0234 10.3707L25.9155 10.1278C25.3047 9.98864 24.853 9.76705 24.5604 9.46307C24.2706 9.15909 24.1257 8.77415 24.1257 8.30824C24.1257 7.92187 24.2337 7.58381 24.4496 7.29403C24.6655 7.00426 24.9638 6.77841 25.3445 6.61648C25.7251 6.4517 26.1612 6.36932 26.6527 6.36932C27.3601 6.36932 27.9169 6.52273 28.3232 6.82955C28.7294 7.13352 28.9979 7.54119 29.1286 8.05256ZM39.8416 7.02983C39.7592 6.77131 39.6484 6.53977 39.5092 6.33523C39.3729 6.12784 39.2095 5.9517 39.0192 5.80682C38.8288 5.65909 38.6115 5.54687 38.3672 5.47017C38.1257 5.39347 37.8601 5.35511 37.5703 5.35511C37.0788 5.35511 36.6357 5.48153 36.2408 5.73438C35.8459 5.98722 35.5334 6.35795 35.3033 6.84659C35.076 7.33239 34.9624 7.92756 34.9624 8.6321C34.9624 9.33949 35.0774 9.9375 35.3075 10.4261C35.5376 10.9148 35.853 11.2855 36.2536 11.5384C36.6541 11.7912 37.1101 11.9176 37.6214 11.9176C38.0959 11.9176 38.5092 11.821 38.8615 11.6278C39.2166 11.4347 39.4908 11.1619 39.6839 10.8097C39.88 10.4545 39.978 10.0369 39.978 9.55682L40.3189 9.62074H37.8217V8.53409H41.2521V9.52699C41.2521 10.2599 41.0959 10.8963 40.7834 11.4361C40.4737 11.973 40.0447 12.3878 39.4964 12.6804C38.951 12.973 38.326 13.1193 37.6214 13.1193C36.8317 13.1193 36.1385 12.9375 35.5419 12.5739C34.9482 12.2102 34.4851 11.6946 34.1527 11.027C33.8203 10.3565 33.6541 9.56108 33.6541 8.64062C33.6541 7.9446 33.7507 7.3196 33.9439 6.76562C34.1371 6.21165 34.4084 5.74148 34.7578 5.35511C35.1101 4.96591 35.5234 4.66903 35.9979 4.46449C36.4751 4.2571 36.9964 4.15341 37.5618 4.15341C38.0334 4.15341 38.4723 4.22301 38.8786 4.36222C39.2876 4.50142 39.6513 4.69886 39.9695 4.95455C40.2905 5.21023 40.5561 5.5142 40.7663 5.86648C40.9766 6.21591 41.1186 6.60369 41.1925 7.02983H39.8416ZM44.7262 13.1449C44.3114 13.1449 43.9364 13.0682 43.6012 12.9148C43.266 12.7585 43.0004 12.5327 42.8043 12.2372C42.6112 11.9418 42.5146 11.5795 42.5146 11.1506C42.5146 10.7812 42.5856 10.4773 42.7276 10.2386C42.8697 10 43.0614 9.81108 43.3029 9.67188C43.5444 9.53267 43.8143 9.42756 44.1126 9.35653C44.4109 9.28551 44.7148 9.23153 45.0245 9.1946C45.4165 9.14915 45.7347 9.11222 45.979 9.08381C46.2234 9.05256 46.4009 9.00284 46.5117 8.93466C46.6225 8.86648 46.6779 8.75568 46.6779 8.60227V8.57244C46.6779 8.20028 46.5728 7.91193 46.3626 7.70739C46.1552 7.50284 45.8455 7.40057 45.4336 7.40057C45.0046 7.40057 44.6665 7.49574 44.4194 7.68608C44.1751 7.87358 44.006 8.08239 43.9123 8.3125L42.7148 8.03977C42.8569 7.64205 43.0643 7.32102 43.337 7.0767C43.6126 6.82955 43.9293 6.65057 44.2873 6.53977C44.6452 6.42614 45.0217 6.36932 45.4165 6.36932C45.6779 6.36932 45.9549 6.40057 46.2475 6.46307C46.543 6.52273 46.8185 6.63352 47.0742 6.79545C47.3327 6.95739 47.5444 7.18892 47.7092 7.49006C47.8739 7.78835 47.9563 8.17614 47.9563 8.65341V13H46.712V12.1051H46.6609C46.5785 12.2699 46.4549 12.4318 46.2901 12.5909C46.1254 12.75 45.9137 12.8821 45.6552 12.9872C45.3967 13.0923 45.087 13.1449 44.7262 13.1449ZM45.0032 12.1222C45.3555 12.1222 45.6566 12.0526 45.9066 11.9134C46.1594 11.7741 46.3512 11.5923 46.4819 11.3679C46.6154 11.1406 46.6822 10.8977 46.6822 10.6392V9.79545C46.6367 9.84091 46.5487 9.88352 46.418 9.9233C46.2901 9.96023 46.1438 9.9929 45.979 10.0213C45.8143 10.0469 45.6538 10.071 45.4975 10.0938C45.3413 10.1136 45.2106 10.1307 45.1055 10.1449C44.8583 10.1761 44.6325 10.2287 44.4279 10.3026C44.2262 10.3764 44.0643 10.483 43.9421 10.6222C43.8228 10.7585 43.7631 10.9403 43.7631 11.1676C43.7631 11.483 43.8796 11.7216 44.1126 11.8835C44.3455 12.0426 44.6424 12.1222 45.0032 12.1222ZM49.6534 15.4545V6.45455H50.8977V7.51562H51.0043C51.0781 7.37926 51.1847 7.22159 51.3239 7.04261C51.4631 6.86364 51.6563 6.70739 51.9034 6.57386C52.1506 6.4375 52.4773 6.36932 52.8835 6.36932C53.4119 6.36932 53.8835 6.50284 54.2983 6.76989C54.7131 7.03693 55.0384 7.42187 55.2741 7.92472C55.5128 8.42756 55.6321 9.03267 55.6321 9.74006C55.6321 10.4474 55.5142 11.054 55.2784 11.5597C55.0426 12.0625 54.7188 12.4503 54.3068 12.723C53.8949 12.9929 53.4247 13.1278 52.8963 13.1278C52.4986 13.1278 52.1733 13.0611 51.9205 12.9276C51.6705 12.794 51.4744 12.6378 51.3324 12.4588C51.1903 12.2798 51.081 12.1207 51.0043 11.9815H50.9276V15.4545H49.6534ZM50.902 9.72727C50.902 10.1875 50.9688 10.5909 51.1023 10.9375C51.2358 11.2841 51.429 11.5554 51.6818 11.7514C51.9347 11.9446 52.2443 12.0412 52.6108 12.0412C52.9915 12.0412 53.3097 11.9403 53.5653 11.7386C53.821 11.5341 54.0142 11.2571 54.1449 10.9077C54.2784 10.5582 54.3452 10.1648 54.3452 9.72727C54.3452 9.29545 54.2798 8.90767 54.1491 8.56392C54.0213 8.22017 53.8281 7.94886 53.5696 7.75C53.3139 7.55114 52.9943 7.4517 52.6108 7.4517C52.2415 7.4517 51.929 7.54687 51.6733 7.73722C51.4205 7.92756 51.2287 8.19318 51.098 8.53409C50.9673 8.875 50.902 9.27273 50.902 9.72727ZM61.9645 8.05256L60.8097 8.2571C60.7614 8.10937 60.6847 7.96875 60.5795 7.83523C60.4773 7.7017 60.3381 7.59233 60.1619 7.5071C59.9858 7.42187 59.7656 7.37926 59.5014 7.37926C59.1406 7.37926 58.8395 7.46023 58.598 7.62216C58.3565 7.78125 58.2358 7.98722 58.2358 8.24006C58.2358 8.45881 58.3168 8.63494 58.4787 8.76847C58.6406 8.90199 58.902 9.01136 59.2628 9.09659L60.3026 9.33523C60.9048 9.47443 61.3537 9.68892 61.6491 9.97869C61.9446 10.2685 62.0923 10.6449 62.0923 11.108C62.0923 11.5 61.9787 11.8494 61.7514 12.1562C61.527 12.4602 61.2131 12.6989 60.8097 12.8722C60.4091 13.0455 59.9446 13.1321 59.4162 13.1321C58.6832 13.1321 58.0852 12.9759 57.6222 12.6634C57.1591 12.348 56.875 11.9006 56.7699 11.321L58.0014 11.1335C58.0781 11.4545 58.2358 11.6974 58.4744 11.8622C58.7131 12.0241 59.0241 12.1051 59.4077 12.1051C59.8253 12.1051 60.1591 12.0185 60.4091 11.8452C60.6591 11.669 60.7841 11.4545 60.7841 11.2017C60.7841 10.9972 60.7074 10.8253 60.554 10.6861C60.4034 10.5469 60.1719 10.4418 59.8594 10.3707L58.7514 10.1278C58.1406 9.98864 57.6889 9.76705 57.3963 9.46307C57.1065 9.15909 56.9616 8.77415 56.9616 8.30824C56.9616 7.92187 57.0696 7.58381 57.2855 7.29403C57.5014 7.00426 57.7997 6.77841 58.1804 6.61648C58.5611 6.4517 58.9972 6.36932 59.4886 6.36932C60.196 6.36932 60.7528 6.52273 61.1591 6.82955C61.5653 7.13352 61.8338 7.54119 61.9645 8.05256ZM68.0881 4.27273V13H66.7713V4.27273H68.0881ZM72.3537 13.1278C71.8253 13.1278 71.3537 12.9929 70.9389 12.723C70.527 12.4503 70.2031 12.0625 69.9673 11.5597C69.7344 11.054 69.6179 10.4474 69.6179 9.74006C69.6179 9.03267 69.7358 8.42756 69.9716 7.92472C70.2102 7.42187 70.5369 7.03693 70.9517 6.76989C71.3665 6.50284 71.8366 6.36932 72.3622 6.36932C72.7685 6.36932 73.0952 6.4375 73.3423 6.57386C73.5923 6.70739 73.7855 6.86364 73.9219 7.04261C74.0611 7.22159 74.169 7.37926 74.2457 7.51562H74.3224V4.27273H75.5966V13H74.3523V11.9815H74.2457C74.169 12.1207 74.0582 12.2798 73.9134 12.4588C73.7713 12.6378 73.5753 12.794 73.3253 12.9276C73.0753 13.0611 72.7514 13.1278 72.3537 13.1278ZM72.6349 12.0412C73.0014 12.0412 73.3111 11.9446 73.5639 11.7514C73.8196 11.5554 74.0128 11.2841 74.1435 10.9375C74.277 10.5909 74.3438 10.1875 74.3438 9.72727C74.3438 9.27273 74.2784 8.875 74.1477 8.53409C74.017 8.19318 73.8253 7.92756 73.5724 7.73722C73.3196 7.54687 73.0071 7.4517 72.6349 7.4517C72.2514 7.4517 71.9318 7.55114 71.6761 7.75C71.4205 7.94886 71.2273 8.22017 71.0966 8.56392C70.9688 8.90767 70.9048 9.29545 70.9048 9.72727C70.9048 10.1648 70.9702 10.5582 71.1009 10.9077C71.2315 11.2571 71.4247 11.5341 71.6804 11.7386C71.9389 11.9403 72.2571 12.0412 72.6349 12.0412ZM80.2362 13.1321C79.5913 13.1321 79.0359 12.9943 78.57 12.7188C78.1069 12.4403 77.7489 12.0497 77.4961 11.5469C77.2461 11.0412 77.1211 10.4489 77.1211 9.76989C77.1211 9.09943 77.2461 8.50852 77.4961 7.99716C77.7489 7.4858 78.1012 7.08665 78.5529 6.79972C79.0075 6.51278 79.5387 6.36932 80.1467 6.36932C80.516 6.36932 80.8739 6.4304 81.2205 6.55256C81.5671 6.67472 81.8782 6.86648 82.1538 7.12784C82.4293 7.3892 82.6467 7.72869 82.8058 8.14631C82.9648 8.56108 83.0444 9.06534 83.0444 9.65909V10.1108H77.8413V9.15625H81.7958C81.7958 8.82102 81.7276 8.52415 81.5913 8.26562C81.4549 8.00426 81.2631 7.7983 81.016 7.64773C80.7717 7.49716 80.4847 7.42188 80.1552 7.42188C79.7972 7.42188 79.4847 7.50994 79.2177 7.68608C78.9535 7.85937 78.7489 8.08665 78.604 8.3679C78.462 8.64631 78.391 8.94886 78.391 9.27557V10.0213C78.391 10.4588 78.4677 10.831 78.6211 11.1378C78.7773 11.4446 78.9947 11.679 79.2731 11.8409C79.5515 12 79.8768 12.0795 80.2489 12.0795C80.4904 12.0795 80.7106 12.0455 80.9094 11.9773C81.1083 11.9062 81.2802 11.8011 81.4251 11.6619C81.57 11.5227 81.6808 11.3509 81.7575 11.1463L82.9634 11.3636C82.8668 11.7187 82.6935 12.0298 82.4435 12.2969C82.1964 12.5611 81.8853 12.767 81.5103 12.9148C81.1381 13.0597 80.7134 13.1321 80.2362 13.1321ZM85.7322 9.11364V13H84.4581V6.45455H85.6811V7.51989H85.7621C85.9126 7.1733 86.1484 6.89489 86.4695 6.68466C86.7933 6.47443 87.201 6.36932 87.6925 6.36932C88.1385 6.36932 88.5291 6.46307 88.8643 6.65057C89.1996 6.83523 89.4595 7.1108 89.6442 7.47727C89.8288 7.84375 89.9212 8.29687 89.9212 8.83665V13H88.647V8.99006C88.647 8.51562 88.5234 8.14489 88.2763 7.87784C88.0291 7.60795 87.6896 7.47301 87.2578 7.47301C86.9624 7.47301 86.6996 7.53693 86.4695 7.66477C86.2422 7.79261 86.0618 7.98011 85.9283 8.22727C85.7976 8.47159 85.7322 8.76705 85.7322 9.11364ZM94.6854 6.45455V7.47727H91.1101V6.45455H94.6854ZM92.0689 4.88636H93.343V11.0781C93.343 11.3253 93.38 11.5114 93.4538 11.6364C93.5277 11.7585 93.6229 11.8423 93.7393 11.8878C93.8587 11.9304 93.9879 11.9517 94.1271 11.9517C94.2294 11.9517 94.3189 11.9446 94.3956 11.9304C94.4723 11.9162 94.532 11.9048 94.5746 11.8963L94.8047 12.9489C94.7308 12.9773 94.6257 13.0057 94.4893 13.0341C94.353 13.0653 94.1825 13.0824 93.978 13.0852C93.6428 13.0909 93.3303 13.0312 93.0405 12.9062C92.7507 12.7812 92.5163 12.5881 92.3374 12.3267C92.1584 12.0653 92.0689 11.7372 92.0689 11.3423V4.88636ZM96.0948 13V6.45455H97.369V13H96.0948ZM96.7383 5.4446C96.5167 5.4446 96.3263 5.37074 96.1673 5.22301C96.011 5.07244 95.9329 4.89347 95.9329 4.68608C95.9329 4.47585 96.011 4.29687 96.1673 4.14915C96.3263 3.99858 96.5167 3.9233 96.7383 3.9233C96.9599 3.9233 97.1488 3.99858 97.305 4.14915C97.4641 4.29687 97.5437 4.47585 97.5437 4.68608C97.5437 4.89347 97.4641 5.07244 97.305 5.22301C97.1488 5.37074 96.9599 5.4446 96.7383 5.4446ZM102.198 6.45455V7.47727H98.4993V6.45455H102.198ZM99.5135 13V5.69602C99.5135 5.28693 99.603 4.94744 99.782 4.67756C99.9609 4.40483 100.198 4.2017 100.494 4.06818C100.789 3.93182 101.11 3.86364 101.457 3.86364C101.712 3.86364 101.931 3.88494 102.113 3.92756C102.295 3.96733 102.43 4.00426 102.518 4.03835L102.219 5.0696C102.16 5.05256 102.083 5.03267 101.989 5.00994C101.896 4.98437 101.782 4.97159 101.648 4.97159C101.339 4.97159 101.117 5.0483 100.984 5.2017C100.853 5.35511 100.788 5.5767 100.788 5.86648V13H99.5135ZM103.513 13V6.45455H104.787V13H103.513ZM104.156 5.4446C103.935 5.4446 103.744 5.37074 103.585 5.22301C103.429 5.07244 103.351 4.89347 103.351 4.68608C103.351 4.47585 103.429 4.29687 103.585 4.14915C103.744 3.99858 103.935 3.9233 104.156 3.9233C104.378 3.9233 104.567 3.99858 104.723 4.14915C104.882 4.29687 104.962 4.47585 104.962 4.68608C104.962 4.89347 104.882 5.07244 104.723 5.22301C104.567 5.37074 104.378 5.4446 104.156 5.4446ZM109.322 13.1321C108.677 13.1321 108.122 12.9943 107.656 12.7188C107.193 12.4403 106.835 12.0497 106.582 11.5469C106.332 11.0412 106.207 10.4489 106.207 9.76989C106.207 9.09943 106.332 8.50852 106.582 7.99716C106.835 7.4858 107.187 7.08665 107.639 6.79972C108.093 6.51278 108.625 6.36932 109.233 6.36932C109.602 6.36932 109.96 6.4304 110.306 6.55256C110.653 6.67472 110.964 6.86648 111.24 7.12784C111.515 7.3892 111.733 7.72869 111.892 8.14631C112.051 8.56108 112.13 9.06534 112.13 9.65909V10.1108H106.927V9.15625H110.882C110.882 8.82102 110.814 8.52415 110.677 8.26562C110.541 8.00426 110.349 7.7983 110.102 7.64773C109.858 7.49716 109.571 7.42188 109.241 7.42188C108.883 7.42188 108.571 7.50994 108.304 7.68608C108.039 7.85937 107.835 8.08665 107.69 8.3679C107.548 8.64631 107.477 8.94886 107.477 9.27557V10.0213C107.477 10.4588 107.554 10.831 107.707 11.1378C107.863 11.4446 108.081 11.679 108.359 11.8409C108.637 12 108.963 12.0795 109.335 12.0795C109.576 12.0795 109.797 12.0455 109.995 11.9773C110.194 11.9062 110.366 11.8011 110.511 11.6619C110.656 11.5227 110.767 11.3509 110.843 11.1463L112.049 11.3636C111.953 11.7187 111.779 12.0298 111.529 12.2969C111.282 12.5611 110.971 12.767 110.596 12.9148C110.224 13.0597 109.799 13.1321 109.322 13.1321ZM115.994 13.1278C115.466 13.1278 114.994 12.9929 114.58 12.723C114.168 12.4503 113.844 12.0625 113.608 11.5597C113.375 11.054 113.259 10.4474 113.259 9.74006C113.259 9.03267 113.376 8.42756 113.612 7.92472C113.851 7.42187 114.178 7.03693 114.592 6.76989C115.007 6.50284 115.477 6.36932 116.003 6.36932C116.409 6.36932 116.736 6.4375 116.983 6.57386C117.233 6.70739 117.426 6.86364 117.562 7.04261C117.702 7.22159 117.81 7.37926 117.886 7.51562H117.963V4.27273H119.237V13H117.993V11.9815H117.886C117.81 12.1207 117.699 12.2798 117.554 12.4588C117.412 12.6378 117.216 12.794 116.966 12.9276C116.716 13.0611 116.392 13.1278 115.994 13.1278ZM116.276 12.0412C116.642 12.0412 116.952 11.9446 117.205 11.7514C117.46 11.5554 117.653 11.2841 117.784 10.9375C117.918 10.5909 117.984 10.1875 117.984 9.72727C117.984 9.27273 117.919 8.875 117.788 8.53409C117.658 8.19318 117.466 7.92756 117.213 7.73722C116.96 7.54687 116.648 7.4517 116.276 7.4517C115.892 7.4517 115.572 7.55114 115.317 7.75C115.061 7.94886 114.868 8.22017 114.737 8.56392C114.609 8.90767 114.545 9.29545 114.545 9.72727C114.545 10.1648 114.611 10.5582 114.741 10.9077C114.872 11.2571 115.065 11.5341 115.321 11.7386C115.58 11.9403 115.898 12.0412 116.276 12.0412Z" fill="#6B7280"/>
<path d="M477.492 13V12.0455L480.445 8.9858C480.76 8.65341 481.02 8.36222 481.225 8.11222C481.432 7.85937 481.587 7.61932 481.689 7.39205C481.792 7.16477 481.843 6.9233 481.843 6.66761C481.843 6.37784 481.775 6.12784 481.638 5.91761C481.502 5.70455 481.316 5.54119 481.08 5.42756C480.844 5.31108 480.578 5.25284 480.283 5.25284C479.971 5.25284 479.698 5.31676 479.465 5.4446C479.232 5.57244 479.053 5.75284 478.928 5.9858C478.803 6.21875 478.74 6.49148 478.74 6.80398H477.483C477.483 6.27273 477.605 5.80824 477.85 5.41051C478.094 5.01278 478.429 4.70455 478.855 4.4858C479.282 4.2642 479.766 4.15341 480.309 4.15341C480.857 4.15341 481.34 4.26278 481.757 4.48153C482.178 4.69744 482.506 4.9929 482.742 5.3679C482.978 5.74006 483.096 6.16051 483.096 6.62926C483.096 6.95312 483.034 7.26989 482.912 7.57955C482.793 7.8892 482.584 8.23437 482.286 8.61506C481.988 8.9929 481.573 9.4517 481.042 9.99148L479.307 11.8068V11.8707H483.236V13H477.492ZM488.192 3.86364L485.38 14.3125H484.242L487.054 3.86364H488.192ZM492.206 13.1193C491.596 13.1193 491.056 13.0142 490.587 12.804C490.121 12.5937 489.756 12.304 489.492 11.9347C489.228 11.5653 489.097 11.1449 489.1 10.6733C489.097 10.304 489.172 9.96449 489.326 9.65483C489.482 9.34233 489.694 9.08239 489.961 8.875C490.228 8.66477 490.526 8.53125 490.855 8.47443V8.4233C490.421 8.31818 490.073 8.08523 489.811 7.72443C489.55 7.36364 489.421 6.94886 489.424 6.48011C489.421 6.03409 489.539 5.63636 489.777 5.28693C490.019 4.93466 490.35 4.65767 490.77 4.45597C491.191 4.25426 491.669 4.15341 492.206 4.15341C492.738 4.15341 493.212 4.25568 493.63 4.46023C494.05 4.66193 494.381 4.93892 494.623 5.29119C494.864 5.64062 494.986 6.03693 494.989 6.48011C494.986 6.94886 494.853 7.36364 494.588 7.72443C494.324 8.08523 493.98 8.31818 493.557 8.4233V8.47443C493.884 8.53125 494.178 8.66477 494.439 8.875C494.703 9.08239 494.914 9.34233 495.07 9.65483C495.229 9.96449 495.31 10.304 495.313 10.6733C495.31 11.1449 495.176 11.5653 494.912 11.9347C494.648 12.304 494.282 12.5937 493.813 12.804C493.347 13.0142 492.811 13.1193 492.206 13.1193ZM492.206 12.0412C492.567 12.0412 492.88 11.9815 493.144 11.8622C493.408 11.7401 493.613 11.571 493.757 11.3551C493.902 11.1364 493.976 10.8807 493.979 10.5881C493.976 10.2841 493.897 10.0156 493.74 9.78267C493.587 9.54972 493.378 9.36648 493.114 9.23295C492.85 9.09943 492.547 9.03267 492.206 9.03267C491.863 9.03267 491.557 9.09943 491.29 9.23295C491.023 9.36648 490.813 9.54972 490.659 9.78267C490.506 10.0156 490.431 10.2841 490.434 10.5881C490.431 10.8807 490.5 11.1364 490.642 11.3551C490.787 11.571 490.993 11.7401 491.26 11.8622C491.527 11.9815 491.843 12.0412 492.206 12.0412ZM492.206 7.98011C492.496 7.98011 492.753 7.92187 492.978 7.8054C493.202 7.68892 493.378 7.52699 493.506 7.3196C493.637 7.11222 493.703 6.86932 493.706 6.59091C493.703 6.31818 493.638 6.07955 493.51 5.875C493.385 5.67045 493.211 5.51278 492.986 5.40199C492.762 5.28835 492.502 5.23153 492.206 5.23153C491.905 5.23153 491.641 5.28835 491.414 5.40199C491.189 5.51278 491.015 5.67045 490.89 5.875C490.765 6.07955 490.703 6.31818 490.706 6.59091C490.703 6.86932 490.766 7.11222 490.894 7.3196C491.022 7.52699 491.198 7.68892 491.422 7.8054C491.65 7.92187 491.911 7.98011 492.206 7.98011Z" fill="#6B7280"/>
<path d="M0 24C0 22.8954 0.89543 22 2 22H494C495.105 22 496 22.8954 496 24V26C496 27.1046 495.105 28 494 28H2C0.895429 28 0 27.1046 0 26V24Z" fill="#E5E7EB"/>
<path d="M0 24C0 22.8954 0.895431 22 2 22H369.291C370.396 22 371.291 22.8954 371.291 24V26C371.291 27.1046 370.396 28 369.291 28H2C0.895426 28 0 27.1046 0 26V24Z" fill="#00A6AE"/>
</svg>
