<svg width="1800" height="162" viewBox="0 0 1800 162" fill="none" xmlns="http://www.w3.org/2000/svg">
<rect width="1800" height="162" fill="#114B5F"/>
<g clip-path="url(#clip0_934_10975)">
<path d="M290.69 76V58.54H284.33V54.7H301.67V58.54H295.28V76H290.69ZM308.827 76.36C307.187 76.36 305.757 76.02 304.537 75.34C303.317 74.64 302.367 73.66 301.687 72.4C301.007 71.14 300.667 69.66 300.667 67.96C300.667 66.26 301.007 64.79 301.687 63.55C302.367 62.29 303.317 61.31 304.537 60.61C305.757 59.91 307.187 59.56 308.827 59.56C310.467 59.56 311.897 59.91 313.117 60.61C314.337 61.31 315.287 62.29 315.967 63.55C316.647 64.79 316.987 66.26 316.987 67.96C316.987 69.66 316.647 71.14 315.967 72.4C315.287 73.66 314.337 74.64 313.117 75.34C311.897 76.02 310.467 76.36 308.827 76.36ZM308.827 72.91C309.947 72.91 310.817 72.48 311.437 71.62C312.057 70.74 312.367 69.52 312.367 67.96C312.367 66.4 312.057 65.19 311.437 64.33C310.817 63.45 309.947 63.01 308.827 63.01C307.707 63.01 306.837 63.45 306.217 64.33C305.597 65.19 305.287 66.4 305.287 67.96C305.287 69.52 305.597 70.74 306.217 71.62C306.837 72.48 307.707 72.91 308.827 72.91ZM319.789 80.5V59.92H324.109L324.199 63.31L323.839 63.16C324.239 62 324.889 61.11 325.789 60.49C326.689 59.87 327.739 59.56 328.939 59.56C330.439 59.56 331.689 59.93 332.689 60.67C333.689 61.41 334.439 62.42 334.939 63.7C335.459 64.96 335.719 66.38 335.719 67.96C335.719 69.52 335.459 70.94 334.939 72.22C334.439 73.5 333.679 74.51 332.659 75.25C331.659 75.99 330.409 76.36 328.909 76.36C328.129 76.36 327.399 76.22 326.719 75.94C326.039 75.64 325.449 75.23 324.949 74.71C324.469 74.19 324.119 73.57 323.899 72.85L324.289 72.61V80.5H319.789ZM327.679 72.91C328.739 72.91 329.569 72.47 330.169 71.59C330.789 70.71 331.099 69.5 331.099 67.96C331.099 66.42 330.789 65.21 330.169 64.33C329.569 63.45 328.739 63.01 327.679 63.01C326.979 63.01 326.369 63.2 325.849 63.58C325.349 63.94 324.959 64.49 324.679 65.23C324.419 65.97 324.289 66.88 324.289 67.96C324.289 69.04 324.419 69.95 324.679 70.69C324.959 71.43 325.349 71.99 325.849 72.37C326.369 72.73 326.979 72.91 327.679 72.91ZM345.868 76V54.7H350.428V64.81L348.418 63.37H360.538L358.498 64.81V54.7H363.058V76H358.498V65.77L360.538 67.21H348.418L350.428 65.77V76H345.868ZM366.839 76V59.92H371.339V76H366.839ZM366.749 57.94V54.34H371.399V57.94H366.749ZM382.184 80.86C380.644 80.86 379.354 80.67 378.314 80.29C377.294 79.91 376.474 79.38 375.854 78.7C375.254 78.02 374.834 77.24 374.594 76.36L379.214 76.03C379.374 76.55 379.674 76.96 380.114 77.26C380.574 77.56 381.264 77.71 382.184 77.71C383.264 77.71 384.084 77.45 384.644 76.93C385.224 76.43 385.514 75.62 385.514 74.5V72.79C385.134 73.53 384.524 74.13 383.684 74.59C382.844 75.03 381.904 75.25 380.864 75.25C379.544 75.25 378.374 74.93 377.354 74.29C376.334 73.63 375.534 72.72 374.954 71.56C374.394 70.38 374.114 69 374.114 67.42C374.114 65.88 374.394 64.52 374.954 63.34C375.534 62.16 376.324 61.24 377.324 60.58C378.344 59.9 379.504 59.56 380.804 59.56C381.984 59.56 382.974 59.82 383.774 60.34C384.594 60.86 385.214 61.55 385.634 62.41V59.92H390.044V74.41C390.044 75.85 389.714 77.04 389.054 77.98C388.394 78.94 387.474 79.66 386.294 80.14C385.114 80.62 383.744 80.86 382.184 80.86ZM382.154 71.92C383.194 71.92 384.014 71.52 384.614 70.72C385.234 69.92 385.544 68.81 385.544 67.39C385.544 66.45 385.404 65.64 385.124 64.96C384.864 64.28 384.474 63.76 383.954 63.4C383.454 63.04 382.854 62.86 382.154 62.86C381.074 62.86 380.234 63.27 379.634 64.09C379.034 64.91 378.734 66.01 378.734 67.39C378.734 68.79 379.044 69.9 379.664 70.72C380.284 71.52 381.114 71.92 382.154 71.92ZM393.763 76V54.7H398.263V63.67H397.663C397.823 62.73 398.133 61.96 398.593 61.36C399.073 60.76 399.663 60.31 400.363 60.01C401.083 59.71 401.863 59.56 402.703 59.56C403.903 59.56 404.903 59.82 405.703 60.34C406.503 60.86 407.103 61.58 407.503 62.5C407.923 63.42 408.133 64.47 408.133 65.65V76H403.633V66.73C403.633 65.53 403.443 64.63 403.063 64.03C402.703 63.43 402.083 63.13 401.203 63.13C400.283 63.13 399.563 63.44 399.043 64.06C398.523 64.68 398.263 65.61 398.263 66.85V76H393.763ZM419.169 76V54.7H426.519C429.979 54.7 432.639 55.63 434.499 57.49C436.359 59.33 437.289 61.96 437.289 65.38C437.289 68.78 436.369 71.4 434.529 73.24C432.709 75.08 430.099 76 426.699 76H419.169ZM423.729 72.16H426.519C428.579 72.16 430.099 71.61 431.079 70.51C432.079 69.39 432.579 67.67 432.579 65.35C432.579 63.03 432.079 61.32 431.079 60.22C430.099 59.1 428.579 58.54 426.519 58.54H423.729V72.16ZM447.956 76.36C446.316 76.36 444.886 76.02 443.666 75.34C442.466 74.64 441.526 73.66 440.846 72.4C440.186 71.14 439.856 69.66 439.856 67.96C439.856 66.26 440.186 64.79 440.846 63.55C441.526 62.29 442.466 61.31 443.666 60.61C444.866 59.91 446.286 59.56 447.926 59.56C449.526 59.56 450.916 59.91 452.096 60.61C453.276 61.31 454.186 62.31 454.826 63.61C455.486 64.91 455.816 66.46 455.816 68.26V69.16H444.506C444.566 70.44 444.906 71.39 445.526 72.01C446.166 72.63 447.006 72.94 448.046 72.94C448.806 72.94 449.436 72.78 449.936 72.46C450.456 72.14 450.826 71.65 451.046 70.99L455.576 71.26C455.156 72.86 454.266 74.11 452.906 75.01C451.546 75.91 449.896 76.36 447.956 76.36ZM444.506 66.4H451.196C451.136 65.22 450.806 64.34 450.206 63.76C449.626 63.18 448.866 62.89 447.926 62.89C446.986 62.89 446.206 63.2 445.586 63.82C444.986 64.42 444.626 65.28 444.506 66.4ZM458.597 76V59.92H462.647L462.797 63.79L462.377 63.61C462.597 62.75 462.927 62.02 463.367 61.42C463.827 60.82 464.377 60.36 465.017 60.04C465.657 59.72 466.357 59.56 467.117 59.56C468.457 59.56 469.537 59.95 470.357 60.73C471.197 61.51 471.737 62.56 471.977 63.88L471.407 63.91C471.587 62.97 471.897 62.18 472.337 61.54C472.797 60.88 473.357 60.39 474.017 60.07C474.677 59.73 475.417 59.56 476.237 59.56C477.357 59.56 478.317 59.79 479.117 60.25C479.917 60.71 480.537 61.4 480.977 62.32C481.417 63.22 481.637 64.33 481.637 65.65V76H477.137V66.91C477.137 65.65 476.947 64.71 476.567 64.09C476.187 63.45 475.567 63.13 474.707 63.13C474.167 63.13 473.707 63.28 473.327 63.58C472.947 63.88 472.647 64.32 472.427 64.9C472.227 65.46 472.127 66.15 472.127 66.97V76H468.077V66.97C468.077 65.73 467.897 64.78 467.537 64.12C467.177 63.46 466.557 63.13 465.677 63.13C465.137 63.13 464.667 63.28 464.267 63.58C463.887 63.88 463.597 64.32 463.397 64.9C463.197 65.48 463.097 66.17 463.097 66.97V76H458.597ZM489.998 76.36C488.338 76.36 486.978 75.98 485.918 75.22C484.878 74.44 484.358 73.36 484.358 71.98C484.358 70.56 484.798 69.47 485.678 68.71C486.578 67.93 487.898 67.36 489.638 67L494.828 65.98C494.828 64.94 494.588 64.16 494.108 63.64C493.648 63.1 492.978 62.83 492.098 62.83C491.238 62.83 490.568 63.03 490.088 63.43C489.608 63.81 489.298 64.38 489.158 65.14L484.628 64.93C484.928 63.17 485.718 61.84 486.998 60.94C488.298 60.02 489.998 59.56 492.098 59.56C494.498 59.56 496.298 60.13 497.498 61.27C498.718 62.41 499.328 64.08 499.328 66.28V71.77C499.328 72.23 499.398 72.54 499.538 72.7C499.698 72.84 499.928 72.91 500.228 72.91H500.678V76C500.538 76.04 500.308 76.08 499.988 76.12C499.688 76.16 499.388 76.18 499.088 76.18C498.448 76.18 497.848 76.07 497.288 75.85C496.748 75.63 496.308 75.26 495.968 74.74C495.628 74.2 495.458 73.44 495.458 72.46L495.848 72.76C495.648 73.48 495.288 74.11 494.768 74.65C494.268 75.19 493.608 75.61 492.788 75.91C491.988 76.21 491.058 76.36 489.998 76.36ZM491.078 73.27C491.818 73.27 492.468 73.13 493.028 72.85C493.588 72.55 494.028 72.12 494.348 71.56C494.668 71 494.828 70.34 494.828 69.58V68.8L491.168 69.58C490.448 69.72 489.898 69.96 489.518 70.3C489.158 70.62 488.978 71.04 488.978 71.56C488.978 72.1 489.158 72.52 489.518 72.82C489.878 73.12 490.398 73.27 491.078 73.27ZM503.041 76V59.92H507.091L507.271 64.63L506.701 64.48C506.861 63.28 507.181 62.32 507.661 61.6C508.161 60.88 508.781 60.36 509.521 60.04C510.261 59.72 511.071 59.56 511.951 59.56C513.111 59.56 514.091 59.81 514.891 60.31C515.711 60.81 516.331 61.52 516.751 62.44C517.191 63.34 517.411 64.41 517.411 65.65V76H512.911V67.15C512.911 66.29 512.841 65.56 512.701 64.96C512.561 64.36 512.311 63.91 511.951 63.61C511.591 63.29 511.091 63.13 510.451 63.13C509.511 63.13 508.791 63.48 508.291 64.18C507.791 64.86 507.541 65.85 507.541 67.15V76H503.041ZM526.73 76.36C525.37 76.36 524.19 76.02 523.19 75.34C522.21 74.64 521.45 73.67 520.91 72.43C520.39 71.17 520.13 69.68 520.13 67.96C520.13 66.24 520.4 64.76 520.94 63.52C521.48 62.26 522.24 61.29 523.22 60.61C524.22 59.91 525.39 59.56 526.73 59.56C527.87 59.56 528.85 59.8 529.67 60.28C530.51 60.74 531.14 61.38 531.56 62.2V54.7H536.06V76H531.77L531.68 73.63C531.24 74.49 530.58 75.16 529.7 75.64C528.84 76.12 527.85 76.36 526.73 76.36ZM528.2 72.91C528.92 72.91 529.53 72.72 530.03 72.34C530.53 71.96 530.91 71.41 531.17 70.69C531.43 69.95 531.56 69.04 531.56 67.96C531.56 66.86 531.43 65.95 531.17 65.23C530.91 64.49 530.53 63.94 530.03 63.58C529.53 63.2 528.92 63.01 528.2 63.01C527.14 63.01 526.3 63.46 525.68 64.36C525.06 65.24 524.75 66.44 524.75 67.96C524.75 69.46 525.06 70.66 525.68 71.56C526.32 72.46 527.16 72.91 528.2 72.91ZM554.129 76.48C552.469 76.48 551.059 76.13 549.899 75.43C548.759 74.73 547.879 73.78 547.259 72.58C546.659 71.36 546.349 69.97 546.329 68.41L550.919 68.2C550.939 69.72 551.229 70.84 551.789 71.56C552.349 72.28 553.129 72.64 554.129 72.64C555.149 72.64 555.939 72.29 556.499 71.59C557.059 70.89 557.339 69.81 557.339 68.35V54.7H561.899V68.35C561.899 70.01 561.569 71.45 560.909 72.67C560.269 73.89 559.369 74.83 558.209 75.49C557.049 76.15 555.689 76.48 554.129 76.48ZM572.938 76.36C571.298 76.36 569.868 76.02 568.648 75.34C567.428 74.64 566.478 73.66 565.798 72.4C565.118 71.14 564.778 69.66 564.778 67.96C564.778 66.26 565.118 64.79 565.798 63.55C566.478 62.29 567.428 61.31 568.648 60.61C569.868 59.91 571.298 59.56 572.938 59.56C574.578 59.56 576.008 59.91 577.228 60.61C578.448 61.31 579.398 62.29 580.078 63.55C580.758 64.79 581.098 66.26 581.098 67.96C581.098 69.66 580.758 71.14 580.078 72.4C579.398 73.66 578.448 74.64 577.228 75.34C576.008 76.02 574.578 76.36 572.938 76.36ZM572.938 72.91C574.058 72.91 574.928 72.48 575.548 71.62C576.168 70.74 576.478 69.52 576.478 67.96C576.478 66.4 576.168 65.19 575.548 64.33C574.928 63.45 574.058 63.01 572.938 63.01C571.818 63.01 570.948 63.45 570.328 64.33C569.708 65.19 569.398 66.4 569.398 67.96C569.398 69.52 569.708 70.74 570.328 71.62C570.948 72.48 571.818 72.91 572.938 72.91ZM593.14 76.36C592.02 76.36 591.04 76.12 590.2 75.64C589.38 75.16 588.74 74.49 588.28 73.63L588.19 76H583.9V54.7H588.4V62.2C588.82 61.46 589.44 60.84 590.26 60.34C591.08 59.82 592.04 59.56 593.14 59.56C594.5 59.56 595.68 59.91 596.68 60.61C597.68 61.29 598.45 62.26 598.99 63.52C599.55 64.78 599.83 66.26 599.83 67.96C599.83 69.66 599.55 71.14 598.99 72.4C598.45 73.66 597.68 74.64 596.68 75.34C595.68 76.02 594.5 76.36 593.14 76.36ZM591.88 72.91C592.88 72.91 593.68 72.48 594.28 71.62C594.9 70.74 595.21 69.52 595.21 67.96C595.21 66.4 594.91 65.19 594.31 64.33C593.71 63.45 592.91 63.01 591.91 63.01C591.17 63.01 590.53 63.21 589.99 63.61C589.47 63.99 589.07 64.55 588.79 65.29C588.53 66.03 588.4 66.92 588.4 67.96C588.4 68.98 588.53 69.86 588.79 70.6C589.07 71.34 589.47 71.91 589.99 72.31C590.53 72.71 591.16 72.91 591.88 72.91ZM609.491 76.36C607.831 76.36 606.441 76.13 605.321 75.67C604.201 75.19 603.341 74.55 602.741 73.75C602.161 72.93 601.831 71.99 601.751 70.93L606.311 70.78C606.451 71.54 606.771 72.13 607.271 72.55C607.771 72.97 608.511 73.18 609.491 73.18C610.291 73.18 610.911 73.05 611.351 72.79C611.811 72.53 612.041 72.13 612.041 71.59C612.041 71.25 611.961 70.97 611.801 70.75C611.641 70.51 611.321 70.31 610.841 70.15C610.381 69.97 609.691 69.81 608.771 69.67C607.071 69.37 605.741 69.02 604.781 68.62C603.821 68.22 603.141 67.7 602.741 67.06C602.341 66.42 602.141 65.64 602.141 64.72C602.141 63.18 602.731 61.94 603.911 61C605.111 60.04 606.901 59.56 609.281 59.56C610.801 59.56 612.071 59.8 613.091 60.28C614.131 60.76 614.931 61.42 615.491 62.26C616.071 63.08 616.431 64.02 616.571 65.08L612.041 65.26C611.981 64.74 611.821 64.3 611.561 63.94C611.321 63.56 611.011 63.27 610.631 63.07C610.251 62.85 609.791 62.74 609.251 62.74C608.451 62.74 607.831 62.91 607.391 63.25C606.971 63.57 606.761 64 606.761 64.54C606.761 64.94 606.851 65.27 607.031 65.53C607.231 65.77 607.551 65.97 607.991 66.13C608.431 66.29 609.021 66.42 609.761 66.52C611.481 66.76 612.841 67.1 613.841 67.54C614.861 67.96 615.591 68.49 616.031 69.13C616.471 69.77 616.691 70.56 616.691 71.5C616.691 72.54 616.391 73.42 615.791 74.14C615.191 74.86 614.351 75.41 613.271 75.79C612.211 76.17 610.951 76.36 609.491 76.36ZM626.585 76V59.92H631.085V76H626.585ZM626.495 57.94V54.34H631.145V57.94H626.495ZM635.228 76V59.92H639.278L639.458 64.63L638.888 64.48C639.048 63.28 639.368 62.32 639.848 61.6C640.348 60.88 640.968 60.36 641.708 60.04C642.448 59.72 643.258 59.56 644.138 59.56C645.298 59.56 646.278 59.81 647.078 60.31C647.898 60.81 648.518 61.52 648.938 62.44C649.378 63.34 649.598 64.41 649.598 65.65V76H645.098V67.15C645.098 66.29 645.028 65.56 644.888 64.96C644.748 64.36 644.498 63.91 644.138 63.61C643.778 63.29 643.278 63.13 642.638 63.13C641.698 63.13 640.978 63.48 640.478 64.18C639.978 64.86 639.728 65.85 639.728 67.15V76H635.228ZM660.634 76V54.7H669.154C671.714 54.7 673.714 55.32 675.154 56.56C676.614 57.8 677.344 59.5 677.344 61.66C677.344 63.08 677.014 64.32 676.354 65.38C675.714 66.42 674.774 67.23 673.534 67.81C672.314 68.37 670.854 68.65 669.154 68.65H665.194V76H660.634ZM665.194 64.81H668.884C670.084 64.81 671.014 64.55 671.674 64.03C672.334 63.49 672.664 62.7 672.664 61.66C672.664 60.64 672.334 59.87 671.674 59.35C671.034 58.81 670.104 58.54 668.884 58.54H665.194V64.81ZM679.964 76V59.92H684.464V76H679.964ZM679.874 57.94V54.34H684.524V57.94H679.874ZM688.607 76V59.92H692.657L692.837 64.63L692.267 64.48C692.427 63.28 692.747 62.32 693.227 61.6C693.727 60.88 694.347 60.36 695.087 60.04C695.827 59.72 696.637 59.56 697.517 59.56C698.677 59.56 699.657 59.81 700.457 60.31C701.277 60.81 701.897 61.52 702.317 62.44C702.757 63.34 702.977 64.41 702.977 65.65V76H698.477V67.15C698.477 66.29 698.407 65.56 698.267 64.96C698.127 64.36 697.877 63.91 697.517 63.61C697.157 63.29 696.657 63.13 696.017 63.13C695.077 63.13 694.357 63.48 693.857 64.18C693.357 64.86 693.107 65.85 693.107 67.15V76H688.607ZM713.796 76.36C712.156 76.36 710.726 76.02 709.506 75.34C708.306 74.64 707.366 73.66 706.686 72.4C706.026 71.14 705.696 69.66 705.696 67.96C705.696 66.26 706.026 64.79 706.686 63.55C707.366 62.29 708.306 61.31 709.506 60.61C710.706 59.91 712.126 59.56 713.766 59.56C715.366 59.56 716.756 59.91 717.936 60.61C719.116 61.31 720.026 62.31 720.666 63.61C721.326 64.91 721.656 66.46 721.656 68.26V69.16H710.346C710.406 70.44 710.746 71.39 711.366 72.01C712.006 72.63 712.846 72.94 713.886 72.94C714.646 72.94 715.276 72.78 715.776 72.46C716.296 72.14 716.666 71.65 716.886 70.99L721.416 71.26C720.996 72.86 720.106 74.11 718.746 75.01C717.386 75.91 715.736 76.36 713.796 76.36ZM710.346 66.4H717.036C716.976 65.22 716.646 64.34 716.046 63.76C715.466 63.18 714.706 62.89 713.766 62.89C712.826 62.89 712.046 63.2 711.426 63.82C710.826 64.42 710.466 65.28 710.346 66.4ZM728.784 76C727.464 76 726.434 75.67 725.694 75.01C724.954 74.35 724.584 73.28 724.584 71.8V54.7H729.084V71.32C729.084 71.8 729.194 72.14 729.414 72.34C729.634 72.54 729.954 72.64 730.374 72.64H731.454V76H728.784ZM737.895 76C736.575 76 735.545 75.67 734.805 75.01C734.065 74.35 733.695 73.28 733.695 71.8V54.7H738.195V71.32C738.195 71.8 738.305 72.14 738.525 72.34C738.745 72.54 739.065 72.64 739.485 72.64H740.565V76H737.895ZM747.811 76.36C746.151 76.36 744.791 75.98 743.731 75.22C742.691 74.44 742.171 73.36 742.171 71.98C742.171 70.56 742.611 69.47 743.491 68.71C744.391 67.93 745.711 67.36 747.451 67L752.641 65.98C752.641 64.94 752.401 64.16 751.921 63.64C751.461 63.1 750.791 62.83 749.911 62.83C749.051 62.83 748.381 63.03 747.901 63.43C747.421 63.81 747.111 64.38 746.971 65.14L742.441 64.93C742.741 63.17 743.531 61.84 744.811 60.94C746.111 60.02 747.811 59.56 749.911 59.56C752.311 59.56 754.111 60.13 755.311 61.27C756.531 62.41 757.141 64.08 757.141 66.28V71.77C757.141 72.23 757.211 72.54 757.351 72.7C757.511 72.84 757.741 72.91 758.041 72.91H758.491V76C758.351 76.04 758.121 76.08 757.801 76.12C757.501 76.16 757.201 76.18 756.901 76.18C756.261 76.18 755.661 76.07 755.101 75.85C754.561 75.63 754.121 75.26 753.781 74.74C753.441 74.2 753.271 73.44 753.271 72.46L753.661 72.76C753.461 73.48 753.101 74.11 752.581 74.65C752.081 75.19 751.421 75.61 750.601 75.91C749.801 76.21 748.871 76.36 747.811 76.36ZM748.891 73.27C749.631 73.27 750.281 73.13 750.841 72.85C751.401 72.55 751.841 72.12 752.161 71.56C752.481 71 752.641 70.34 752.641 69.58V68.8L748.981 69.58C748.261 69.72 747.711 69.96 747.331 70.3C746.971 70.62 746.791 71.04 746.791 71.56C746.791 72.1 746.971 72.52 747.331 72.82C747.691 73.12 748.211 73.27 748.891 73.27ZM767.43 76.36C765.77 76.36 764.38 76.13 763.26 75.67C762.14 75.19 761.28 74.55 760.68 73.75C760.1 72.93 759.77 71.99 759.69 70.93L764.25 70.78C764.39 71.54 764.71 72.13 765.21 72.55C765.71 72.97 766.45 73.18 767.43 73.18C768.23 73.18 768.85 73.05 769.29 72.79C769.75 72.53 769.98 72.13 769.98 71.59C769.98 71.25 769.9 70.97 769.74 70.75C769.58 70.51 769.26 70.31 768.78 70.15C768.32 69.97 767.63 69.81 766.71 69.67C765.01 69.37 763.68 69.02 762.72 68.62C761.76 68.22 761.08 67.7 760.68 67.06C760.28 66.42 760.08 65.64 760.08 64.72C760.08 63.18 760.67 61.94 761.85 61C763.05 60.04 764.84 59.56 767.22 59.56C768.74 59.56 770.01 59.8 771.03 60.28C772.07 60.76 772.87 61.42 773.43 62.26C774.01 63.08 774.37 64.02 774.51 65.08L769.98 65.26C769.92 64.74 769.76 64.3 769.5 63.94C769.26 63.56 768.95 63.27 768.57 63.07C768.19 62.85 767.73 62.74 767.19 62.74C766.39 62.74 765.77 62.91 765.33 63.25C764.91 63.57 764.7 64 764.7 64.54C764.7 64.94 764.79 65.27 764.97 65.53C765.17 65.77 765.49 65.97 765.93 66.13C766.37 66.29 766.96 66.42 767.7 66.52C769.42 66.76 770.78 67.1 771.78 67.54C772.8 67.96 773.53 68.49 773.97 69.13C774.41 69.77 774.63 70.56 774.63 71.5C774.63 72.54 774.33 73.42 773.73 74.14C773.13 74.86 772.29 75.41 771.21 75.79C770.15 76.17 768.89 76.36 767.43 76.36Z" fill="white"/>
<path d="M285.472 109V97.64H287.392L291.024 107.496L294.64 97.64H296.56V109H295.184V100.2L291.936 109H290.096L286.848 100.2V109H285.472ZM301.443 109.192C300.568 109.192 299.87 108.989 299.347 108.584C298.835 108.179 298.579 107.613 298.579 106.888C298.579 106.163 298.792 105.592 299.219 105.176C299.646 104.76 300.323 104.467 301.251 104.296L304.259 103.736C304.259 103.021 304.088 102.488 303.747 102.136C303.416 101.784 302.915 101.608 302.243 101.608C301.656 101.608 301.192 101.741 300.851 102.008C300.51 102.264 300.275 102.637 300.147 103.128L298.723 103.016C298.883 102.216 299.267 101.571 299.875 101.08C300.494 100.579 301.283 100.328 302.243 100.328C303.331 100.328 304.163 100.637 304.739 101.256C305.315 101.864 305.603 102.707 305.603 103.784V107.288C305.603 107.48 305.635 107.619 305.699 107.704C305.774 107.779 305.891 107.816 306.051 107.816H306.387V109C306.344 109.011 306.275 109.016 306.179 109.016C306.083 109.027 305.982 109.032 305.875 109.032C305.491 109.032 305.176 108.973 304.931 108.856C304.696 108.728 304.526 108.536 304.419 108.28C304.312 108.013 304.259 107.667 304.259 107.24L304.419 107.272C304.344 107.635 304.163 107.965 303.875 108.264C303.587 108.552 303.23 108.781 302.803 108.952C302.376 109.112 301.923 109.192 301.443 109.192ZM301.571 108.008C302.136 108.008 302.616 107.901 303.011 107.688C303.416 107.464 303.726 107.165 303.939 106.792C304.152 106.408 304.259 105.981 304.259 105.512V104.904L301.507 105.416C300.931 105.523 300.531 105.688 300.307 105.912C300.094 106.125 299.987 106.408 299.987 106.76C299.987 107.155 300.126 107.464 300.403 107.688C300.691 107.901 301.08 108.008 301.571 108.008ZM307.905 109V100.52H309.137L309.185 102.68L309.025 102.536C309.132 102.035 309.318 101.624 309.585 101.304C309.852 100.973 310.172 100.728 310.545 100.568C310.929 100.408 311.34 100.328 311.777 100.328C312.428 100.328 312.961 100.472 313.377 100.76C313.804 101.048 314.118 101.437 314.321 101.928C314.534 102.408 314.641 102.947 314.641 103.544V109H313.297V103.928C313.297 103.405 313.233 102.968 313.105 102.616C312.988 102.253 312.796 101.981 312.529 101.8C312.262 101.608 311.916 101.512 311.489 101.512C310.838 101.512 310.3 101.72 309.873 102.136C309.457 102.541 309.249 103.139 309.249 103.928V109H307.905ZM319.334 109.192C318.459 109.192 317.76 108.989 317.238 108.584C316.726 108.179 316.47 107.613 316.47 106.888C316.47 106.163 316.683 105.592 317.11 105.176C317.536 104.76 318.214 104.467 319.142 104.296L322.15 103.736C322.15 103.021 321.979 102.488 321.638 102.136C321.307 101.784 320.806 101.608 320.134 101.608C319.547 101.608 319.083 101.741 318.742 102.008C318.4 102.264 318.166 102.637 318.038 103.128L316.614 103.016C316.774 102.216 317.158 101.571 317.766 101.08C318.384 100.579 319.174 100.328 320.134 100.328C321.222 100.328 322.054 100.637 322.63 101.256C323.206 101.864 323.494 102.707 323.494 103.784V107.288C323.494 107.48 323.526 107.619 323.59 107.704C323.664 107.779 323.782 107.816 323.942 107.816H324.278V109C324.235 109.011 324.166 109.016 324.07 109.016C323.974 109.027 323.872 109.032 323.766 109.032C323.382 109.032 323.067 108.973 322.822 108.856C322.587 108.728 322.416 108.536 322.31 108.28C322.203 108.013 322.15 107.667 322.15 107.24L322.31 107.272C322.235 107.635 322.054 107.965 321.766 108.264C321.478 108.552 321.12 108.781 320.694 108.952C320.267 109.112 319.814 109.192 319.334 109.192ZM319.462 108.008C320.027 108.008 320.507 107.901 320.902 107.688C321.307 107.464 321.616 107.165 321.83 106.792C322.043 106.408 322.15 105.981 322.15 105.512V104.904L319.398 105.416C318.822 105.523 318.422 105.688 318.198 105.912C317.984 106.125 317.878 106.408 317.878 106.76C317.878 107.155 318.016 107.464 318.294 107.688C318.582 107.901 318.971 108.008 319.462 108.008ZM328.98 111.592C328.372 111.592 327.823 111.491 327.332 111.288C326.842 111.085 326.431 110.797 326.1 110.424C325.77 110.051 325.546 109.619 325.428 109.128L326.836 109.032C326.964 109.427 327.188 109.736 327.508 109.96C327.839 110.195 328.33 110.312 328.98 110.312C329.748 110.312 330.335 110.157 330.74 109.848C331.156 109.539 331.364 109.075 331.364 108.456V107.08C331.162 107.528 330.836 107.885 330.388 108.152C329.94 108.419 329.439 108.552 328.884 108.552C328.17 108.552 327.53 108.376 326.964 108.024C326.41 107.672 325.972 107.187 325.652 106.568C325.343 105.949 325.188 105.24 325.188 104.44C325.188 103.629 325.343 102.92 325.652 102.312C325.962 101.693 326.388 101.208 326.932 100.856C327.487 100.504 328.116 100.328 328.82 100.328C329.418 100.328 329.951 100.467 330.42 100.744C330.9 101.021 331.236 101.395 331.428 101.864V100.52H332.708V108.424C332.708 109.085 332.559 109.651 332.26 110.12C331.962 110.6 331.535 110.963 330.98 111.208C330.426 111.464 329.759 111.592 328.98 111.592ZM328.948 107.272C329.674 107.272 330.255 107.021 330.692 106.52C331.13 106.008 331.354 105.315 331.364 104.44C331.375 103.853 331.279 103.352 331.076 102.936C330.884 102.509 330.602 102.184 330.228 101.96C329.866 101.725 329.439 101.608 328.948 101.608C328.202 101.608 327.62 101.864 327.204 102.376C326.799 102.877 326.596 103.565 326.596 104.44C326.596 105.315 326.804 106.008 327.22 106.52C327.647 107.021 328.223 107.272 328.948 107.272ZM338.42 109.192C337.62 109.192 336.927 109.011 336.34 108.648C335.764 108.285 335.316 107.773 334.996 107.112C334.687 106.44 334.532 105.656 334.532 104.76C334.532 103.864 334.687 103.085 334.996 102.424C335.316 101.763 335.759 101.251 336.324 100.888C336.9 100.515 337.577 100.328 338.356 100.328C339.092 100.328 339.743 100.504 340.308 100.856C340.873 101.197 341.311 101.699 341.62 102.36C341.94 103.021 342.1 103.827 342.1 104.776V105.176H335.94C335.993 106.083 336.233 106.765 336.66 107.224C337.097 107.683 337.684 107.912 338.42 107.912C338.975 107.912 339.428 107.784 339.78 107.528C340.143 107.261 340.393 106.915 340.532 106.488L341.972 106.6C341.748 107.357 341.321 107.981 340.692 108.472C340.073 108.952 339.316 109.192 338.42 109.192ZM335.94 103.992H340.628C340.564 103.171 340.324 102.568 339.908 102.184C339.503 101.8 338.985 101.608 338.356 101.608C337.705 101.608 337.167 101.811 336.74 102.216C336.324 102.611 336.057 103.203 335.94 103.992ZM348.445 111.4V110.216H349.421C349.72 110.216 349.938 110.168 350.077 110.072C350.226 109.987 350.338 109.843 350.413 109.64L350.717 108.84H350.253L347.149 100.52H348.621L351.149 107.592L353.565 100.52H355.037L351.597 110.072C351.437 110.531 351.197 110.867 350.877 111.08C350.557 111.293 350.114 111.4 349.549 111.4H348.445ZM359.561 109.192C358.782 109.192 358.099 109.011 357.513 108.648C356.926 108.285 356.473 107.773 356.153 107.112C355.833 106.44 355.673 105.656 355.673 104.76C355.673 103.853 355.833 103.069 356.153 102.408C356.473 101.747 356.926 101.235 357.513 100.872C358.099 100.509 358.782 100.328 359.561 100.328C360.339 100.328 361.017 100.509 361.593 100.872C362.179 101.235 362.633 101.747 362.953 102.408C363.273 103.069 363.433 103.853 363.433 104.76C363.433 105.656 363.273 106.44 362.953 107.112C362.633 107.773 362.179 108.285 361.593 108.648C361.017 109.011 360.339 109.192 359.561 109.192ZM359.561 107.912C360.339 107.912 360.942 107.635 361.369 107.08C361.806 106.515 362.025 105.741 362.025 104.76C362.025 103.779 361.806 103.011 361.369 102.456C360.942 101.891 360.339 101.608 359.561 101.608C358.782 101.608 358.174 101.891 357.737 102.456C357.299 103.011 357.081 103.779 357.081 104.76C357.081 105.741 357.299 106.515 357.737 107.08C358.174 107.635 358.782 107.912 359.561 107.912ZM368.048 109.192C367.206 109.192 366.528 108.909 366.016 108.344C365.515 107.768 365.264 106.979 365.264 105.976V100.52H366.608V105.608C366.608 106.429 366.752 107.037 367.04 107.432C367.339 107.816 367.792 108.008 368.4 108.008C369.072 108.008 369.6 107.795 369.984 107.368C370.368 106.931 370.56 106.333 370.56 105.576V100.52H371.904V109H370.624V106.904L370.832 107.016C370.662 107.709 370.336 108.248 369.856 108.632C369.376 109.005 368.774 109.192 368.048 109.192ZM374.468 109V100.52H375.652L375.716 102.664L375.588 102.616C375.694 101.891 375.924 101.363 376.276 101.032C376.638 100.691 377.118 100.52 377.716 100.52H378.548V101.8H377.732C377.305 101.8 376.948 101.88 376.66 102.04C376.382 102.189 376.169 102.419 376.02 102.728C375.881 103.027 375.812 103.411 375.812 103.88V109H374.468ZM384.53 111.4V100.52H385.778L385.81 102.344L385.618 102.248C385.831 101.619 386.183 101.144 386.674 100.824C387.175 100.493 387.751 100.328 388.402 100.328C389.245 100.328 389.933 100.536 390.466 100.952C391.01 101.368 391.41 101.912 391.666 102.584C391.933 103.256 392.066 103.981 392.066 104.76C392.066 105.539 391.933 106.264 391.666 106.936C391.41 107.608 391.01 108.152 390.466 108.568C389.933 108.984 389.245 109.192 388.402 109.192C387.965 109.192 387.554 109.117 387.17 108.968C386.797 108.819 386.477 108.611 386.21 108.344C385.954 108.077 385.778 107.763 385.682 107.4L385.874 107.176V111.4H384.53ZM388.274 107.912C389.01 107.912 389.591 107.635 390.018 107.08C390.445 106.525 390.658 105.752 390.658 104.76C390.658 103.768 390.445 102.995 390.018 102.44C389.591 101.885 389.01 101.608 388.274 101.608C387.783 101.608 387.357 101.725 386.994 101.96C386.642 102.195 386.365 102.547 386.162 103.016C385.97 103.485 385.874 104.067 385.874 104.76C385.874 105.453 385.97 106.035 386.162 106.504C386.354 106.973 386.631 107.325 386.994 107.56C387.357 107.795 387.783 107.912 388.274 107.912ZM393.889 109V100.52H395.073L395.137 102.664L395.009 102.616C395.116 101.891 395.345 101.363 395.697 101.032C396.06 100.691 396.54 100.52 397.137 100.52H397.969V101.8H397.153C396.727 101.8 396.369 101.88 396.081 102.04C395.804 102.189 395.591 102.419 395.441 102.728C395.303 103.027 395.233 103.411 395.233 103.88V109H393.889ZM402.623 109.192C401.845 109.192 401.162 109.011 400.575 108.648C399.989 108.285 399.535 107.773 399.215 107.112C398.895 106.44 398.735 105.656 398.735 104.76C398.735 103.853 398.895 103.069 399.215 102.408C399.535 101.747 399.989 101.235 400.575 100.872C401.162 100.509 401.845 100.328 402.623 100.328C403.402 100.328 404.079 100.509 404.655 100.872C405.242 101.235 405.695 101.747 406.015 102.408C406.335 103.069 406.495 103.853 406.495 104.76C406.495 105.656 406.335 106.44 406.015 107.112C405.695 107.773 405.242 108.285 404.655 108.648C404.079 109.011 403.402 109.192 402.623 109.192ZM402.623 107.912C403.402 107.912 404.005 107.635 404.431 107.08C404.869 106.515 405.087 105.741 405.087 104.76C405.087 103.779 404.869 103.011 404.431 102.456C404.005 101.891 403.402 101.608 402.623 101.608C401.845 101.608 401.237 101.891 400.799 102.456C400.362 103.011 400.143 103.779 400.143 104.76C400.143 105.741 400.362 106.515 400.799 107.08C401.237 107.635 401.845 107.912 402.623 107.912ZM408.831 109V99.752C408.831 99.1227 409.012 98.616 409.375 98.232C409.737 97.8373 410.303 97.64 411.071 97.64H412.415V98.824H411.167C410.836 98.824 410.585 98.9147 410.415 99.096C410.255 99.2773 410.175 99.528 410.175 99.848V109H408.831ZM407.679 101.704V100.52H412.303V101.704H407.679ZM414.063 109V100.52H415.407V109H414.063ZM414.031 99.192V97.624H415.439V99.192H414.031ZM419.475 109C418.985 109 418.585 108.872 418.275 108.616C417.966 108.36 417.811 107.955 417.811 107.4V97.64H419.155V107.288C419.155 107.459 419.198 107.592 419.283 107.688C419.379 107.773 419.513 107.816 419.683 107.816H420.419V109H419.475ZM425.295 109.192C424.495 109.192 423.802 109.011 423.215 108.648C422.639 108.285 422.191 107.773 421.871 107.112C421.562 106.44 421.407 105.656 421.407 104.76C421.407 103.864 421.562 103.085 421.871 102.424C422.191 101.763 422.634 101.251 423.199 100.888C423.775 100.515 424.452 100.328 425.231 100.328C425.967 100.328 426.618 100.504 427.183 100.856C427.748 101.197 428.186 101.699 428.495 102.36C428.815 103.021 428.975 103.827 428.975 104.776V105.176H422.815C422.868 106.083 423.108 106.765 423.535 107.224C423.972 107.683 424.559 107.912 425.295 107.912C425.85 107.912 426.303 107.784 426.655 107.528C427.018 107.261 427.268 106.915 427.407 106.488L428.847 106.6C428.623 107.357 428.196 107.981 427.567 108.472C426.948 108.952 426.191 109.192 425.295 109.192ZM422.815 103.992H427.503C427.439 103.171 427.199 102.568 426.783 102.184C426.378 101.8 425.86 101.608 425.231 101.608C424.58 101.608 424.042 101.811 423.615 102.216C423.199 102.611 422.932 103.203 422.815 103.992ZM437.96 109.192C437.224 109.192 436.584 109.011 436.04 108.648C435.507 108.285 435.096 107.773 434.808 107.112C434.52 106.451 434.376 105.667 434.376 104.76C434.376 103.853 434.52 103.069 434.808 102.408C435.096 101.747 435.507 101.235 436.04 100.872C436.584 100.509 437.224 100.328 437.96 100.328C438.525 100.328 439.043 100.451 439.512 100.696C439.981 100.931 440.333 101.267 440.568 101.704V97.64H441.912V109H440.696L440.648 107.72C440.413 108.179 440.056 108.541 439.576 108.808C439.096 109.064 438.557 109.192 437.96 109.192ZM438.232 107.912C438.733 107.912 439.155 107.784 439.496 107.528C439.848 107.272 440.115 106.909 440.296 106.44C440.477 105.96 440.568 105.4 440.568 104.76C440.568 104.099 440.477 103.533 440.296 103.064C440.115 102.595 439.848 102.237 439.496 101.992C439.155 101.736 438.733 101.608 438.232 101.608C437.485 101.608 436.888 101.891 436.44 102.456C436.003 103.011 435.784 103.779 435.784 104.76C435.784 105.731 436.003 106.499 436.44 107.064C436.888 107.629 437.485 107.912 438.232 107.912ZM447.623 109.192C446.823 109.192 446.13 109.011 445.543 108.648C444.967 108.285 444.519 107.773 444.199 107.112C443.89 106.44 443.735 105.656 443.735 104.76C443.735 103.864 443.89 103.085 444.199 102.424C444.519 101.763 444.962 101.251 445.527 100.888C446.103 100.515 446.781 100.328 447.559 100.328C448.295 100.328 448.946 100.504 449.511 100.856C450.077 101.197 450.514 101.699 450.823 102.36C451.143 103.021 451.303 103.827 451.303 104.776V105.176H445.143C445.197 106.083 445.437 106.765 445.863 107.224C446.301 107.683 446.887 107.912 447.623 107.912C448.178 107.912 448.631 107.784 448.983 107.528C449.346 107.261 449.597 106.915 449.735 106.488L451.175 106.6C450.951 107.357 450.525 107.981 449.895 108.472C449.277 108.952 448.519 109.192 447.623 109.192ZM445.143 103.992H449.831C449.767 103.171 449.527 102.568 449.111 102.184C448.706 101.8 448.189 101.608 447.559 101.608C446.909 101.608 446.37 101.811 445.943 102.216C445.527 102.611 445.261 103.203 445.143 103.992ZM455.9 109C455.132 109 454.561 108.824 454.188 108.472C453.825 108.12 453.644 107.571 453.644 106.824V98.536H454.988V106.792C454.988 107.176 455.073 107.443 455.244 107.592C455.414 107.741 455.676 107.816 456.028 107.816H457.244V109H455.9ZM452.396 101.704V100.52H457.244V101.704H452.396ZM461.193 109.192C460.318 109.192 459.62 108.989 459.097 108.584C458.585 108.179 458.329 107.613 458.329 106.888C458.329 106.163 458.542 105.592 458.969 105.176C459.396 104.76 460.073 104.467 461.001 104.296L464.009 103.736C464.009 103.021 463.838 102.488 463.497 102.136C463.166 101.784 462.665 101.608 461.993 101.608C461.406 101.608 460.942 101.741 460.601 102.008C460.26 102.264 460.025 102.637 459.897 103.128L458.473 103.016C458.633 102.216 459.017 101.571 459.625 101.08C460.244 100.579 461.033 100.328 461.993 100.328C463.081 100.328 463.913 100.637 464.489 101.256C465.065 101.864 465.353 102.707 465.353 103.784V107.288C465.353 107.48 465.385 107.619 465.449 107.704C465.524 107.779 465.641 107.816 465.801 107.816H466.137V109C466.094 109.011 466.025 109.016 465.929 109.016C465.833 109.027 465.732 109.032 465.625 109.032C465.241 109.032 464.926 108.973 464.681 108.856C464.446 108.728 464.276 108.536 464.169 108.28C464.062 108.013 464.009 107.667 464.009 107.24L464.169 107.272C464.094 107.635 463.913 107.965 463.625 108.264C463.337 108.552 462.98 108.781 462.553 108.952C462.126 109.112 461.673 109.192 461.193 109.192ZM461.321 108.008C461.886 108.008 462.366 107.901 462.761 107.688C463.166 107.464 463.476 107.165 463.689 106.792C463.902 106.408 464.009 105.981 464.009 105.512V104.904L461.257 105.416C460.681 105.523 460.281 105.688 460.057 105.912C459.844 106.125 459.737 106.408 459.737 106.76C459.737 107.155 459.876 107.464 460.153 107.688C460.441 107.901 460.83 108.008 461.321 108.008ZM467.593 109V100.52H468.937V109H467.593ZM467.561 99.192V97.624H468.969V99.192H467.561ZM473.007 109C472.516 109 472.116 108.872 471.807 108.616C471.497 108.36 471.343 107.955 471.343 107.4V97.64H472.687V107.288C472.687 107.459 472.729 107.592 472.815 107.688C472.911 107.773 473.044 107.816 473.215 107.816H473.951V109H473.007ZM478.602 109.192C477.845 109.192 477.2 109.069 476.666 108.824C476.144 108.579 475.733 108.243 475.434 107.816C475.146 107.379 474.981 106.883 474.938 106.328L476.346 106.232C476.432 106.744 476.65 107.155 477.002 107.464C477.354 107.763 477.888 107.912 478.602 107.912C479.178 107.912 479.637 107.821 479.978 107.64C480.33 107.448 480.506 107.144 480.506 106.728C480.506 106.504 480.453 106.317 480.346 106.168C480.24 106.019 480.032 105.891 479.722 105.784C479.413 105.667 478.954 105.555 478.346 105.448C477.536 105.299 476.896 105.117 476.426 104.904C475.968 104.68 475.637 104.408 475.434 104.088C475.242 103.757 475.146 103.368 475.146 102.92C475.146 102.163 475.424 101.544 475.978 101.064C476.533 100.573 477.322 100.328 478.346 100.328C479.04 100.328 479.621 100.456 480.09 100.712C480.57 100.957 480.944 101.288 481.21 101.704C481.488 102.109 481.669 102.557 481.754 103.048L480.346 103.144C480.282 102.845 480.165 102.584 479.994 102.36C479.824 102.125 479.6 101.944 479.322 101.816C479.045 101.677 478.714 101.608 478.33 101.608C477.722 101.608 477.274 101.725 476.986 101.96C476.698 102.195 476.554 102.493 476.554 102.856C476.554 103.133 476.618 103.363 476.746 103.544C476.885 103.715 477.104 103.859 477.402 103.976C477.701 104.083 478.101 104.179 478.602 104.264C479.466 104.413 480.138 104.595 480.618 104.808C481.098 105.021 481.434 105.283 481.626 105.592C481.818 105.901 481.914 106.28 481.914 106.728C481.914 107.251 481.765 107.699 481.466 108.072C481.178 108.435 480.784 108.712 480.282 108.904C479.792 109.096 479.232 109.192 478.602 109.192ZM490.993 109.192C490.236 109.192 489.59 109.069 489.057 108.824C488.534 108.579 488.124 108.243 487.825 107.816C487.537 107.379 487.372 106.883 487.329 106.328L488.737 106.232C488.822 106.744 489.041 107.155 489.393 107.464C489.745 107.763 490.278 107.912 490.993 107.912C491.569 107.912 492.028 107.821 492.369 107.64C492.721 107.448 492.897 107.144 492.897 106.728C492.897 106.504 492.844 106.317 492.737 106.168C492.63 106.019 492.422 105.891 492.113 105.784C491.804 105.667 491.345 105.555 490.737 105.448C489.926 105.299 489.286 105.117 488.817 104.904C488.358 104.68 488.028 104.408 487.825 104.088C487.633 103.757 487.537 103.368 487.537 102.92C487.537 102.163 487.814 101.544 488.369 101.064C488.924 100.573 489.713 100.328 490.737 100.328C491.43 100.328 492.012 100.456 492.481 100.712C492.961 100.957 493.334 101.288 493.601 101.704C493.878 102.109 494.06 102.557 494.145 103.048L492.737 103.144C492.673 102.845 492.556 102.584 492.385 102.36C492.214 102.125 491.99 101.944 491.713 101.816C491.436 101.677 491.105 101.608 490.721 101.608C490.113 101.608 489.665 101.725 489.377 101.96C489.089 102.195 488.945 102.493 488.945 102.856C488.945 103.133 489.009 103.363 489.137 103.544C489.276 103.715 489.494 103.859 489.793 103.976C490.092 104.083 490.492 104.179 490.993 104.264C491.857 104.413 492.529 104.595 493.009 104.808C493.489 105.021 493.825 105.283 494.017 105.592C494.209 105.901 494.305 106.28 494.305 106.728C494.305 107.251 494.156 107.699 493.857 108.072C493.569 108.435 493.174 108.712 492.673 108.904C492.182 109.096 491.622 109.192 490.993 109.192ZM498.923 109.192C498.081 109.192 497.403 108.909 496.891 108.344C496.39 107.768 496.139 106.979 496.139 105.976V100.52H497.483V105.608C497.483 106.429 497.627 107.037 497.915 107.432C498.214 107.816 498.667 108.008 499.275 108.008C499.947 108.008 500.475 107.795 500.859 107.368C501.243 106.931 501.435 106.333 501.435 105.576V100.52H502.779V109H501.499V106.904L501.707 107.016C501.537 107.709 501.211 108.248 500.731 108.632C500.251 109.005 499.649 109.192 498.923 109.192ZM508.498 109.192C507.709 109.192 507.021 109.011 506.434 108.648C505.858 108.285 505.41 107.773 505.09 107.112C504.77 106.44 504.61 105.656 504.61 104.76C504.61 103.864 504.77 103.085 505.09 102.424C505.41 101.763 505.858 101.251 506.434 100.888C507.021 100.515 507.709 100.328 508.498 100.328C509.149 100.328 509.725 100.445 510.226 100.68C510.738 100.904 511.154 101.235 511.474 101.672C511.794 102.109 512.002 102.643 512.098 103.272L510.69 103.368C510.594 102.803 510.349 102.371 509.954 102.072C509.56 101.763 509.074 101.608 508.498 101.608C507.72 101.608 507.112 101.891 506.674 102.456C506.237 103.011 506.018 103.779 506.018 104.76C506.018 105.741 506.237 106.515 506.674 107.08C507.112 107.635 507.72 107.912 508.498 107.912C509.074 107.912 509.56 107.752 509.954 107.432C510.349 107.112 510.594 106.632 510.69 105.992L512.098 106.088C512.002 106.717 511.794 107.267 511.474 107.736C511.154 108.195 510.738 108.552 510.226 108.808C509.725 109.064 509.149 109.192 508.498 109.192ZM513.764 109V97.64H515.108V102.392L514.948 102.36C515.055 101.891 515.236 101.507 515.492 101.208C515.748 100.909 516.063 100.691 516.436 100.552C516.81 100.403 517.22 100.328 517.668 100.328C518.276 100.328 518.788 100.467 519.204 100.744C519.631 101.011 519.951 101.389 520.164 101.88C520.388 102.36 520.5 102.915 520.5 103.544V109H519.156V103.928C519.156 103.107 519.007 102.499 518.708 102.104C518.42 101.709 517.978 101.512 517.38 101.512C516.698 101.512 516.148 101.72 515.732 102.136C515.316 102.552 515.108 103.155 515.108 103.944V109H513.764ZM529.349 109.192C528.475 109.192 527.776 108.989 527.253 108.584C526.741 108.179 526.485 107.613 526.485 106.888C526.485 106.163 526.699 105.592 527.125 105.176C527.552 104.76 528.229 104.467 529.157 104.296L532.165 103.736C532.165 103.021 531.995 102.488 531.653 102.136C531.323 101.784 530.821 101.608 530.149 101.608C529.563 101.608 529.099 101.741 528.757 102.008C528.416 102.264 528.181 102.637 528.053 103.128L526.629 103.016C526.789 102.216 527.173 101.571 527.781 101.08C528.4 100.579 529.189 100.328 530.149 100.328C531.237 100.328 532.069 100.637 532.645 101.256C533.221 101.864 533.509 102.707 533.509 103.784V107.288C533.509 107.48 533.541 107.619 533.605 107.704C533.68 107.779 533.797 107.816 533.957 107.816H534.293V109C534.251 109.011 534.181 109.016 534.085 109.016C533.989 109.027 533.888 109.032 533.781 109.032C533.397 109.032 533.083 108.973 532.837 108.856C532.603 108.728 532.432 108.536 532.325 108.28C532.219 108.013 532.165 107.667 532.165 107.24L532.325 107.272C532.251 107.635 532.069 107.965 531.781 108.264C531.493 108.552 531.136 108.781 530.709 108.952C530.283 109.112 529.829 109.192 529.349 109.192ZM529.477 108.008C530.043 108.008 530.523 107.901 530.917 107.688C531.323 107.464 531.632 107.165 531.845 106.792C532.059 106.408 532.165 105.981 532.165 105.512V104.904L529.413 105.416C528.837 105.523 528.437 105.688 528.213 105.912C528 106.125 527.893 106.408 527.893 106.76C527.893 107.155 528.032 107.464 528.309 107.688C528.597 107.901 528.987 108.008 529.477 108.008ZM538.868 109.192C538.111 109.192 537.465 109.069 536.932 108.824C536.409 108.579 535.999 108.243 535.7 107.816C535.412 107.379 535.247 106.883 535.204 106.328L536.612 106.232C536.697 106.744 536.916 107.155 537.268 107.464C537.62 107.763 538.153 107.912 538.868 107.912C539.444 107.912 539.903 107.821 540.244 107.64C540.596 107.448 540.772 107.144 540.772 106.728C540.772 106.504 540.719 106.317 540.612 106.168C540.505 106.019 540.297 105.891 539.988 105.784C539.679 105.667 539.22 105.555 538.612 105.448C537.801 105.299 537.161 105.117 536.692 104.904C536.233 104.68 535.903 104.408 535.7 104.088C535.508 103.757 535.412 103.368 535.412 102.92C535.412 102.163 535.689 101.544 536.244 101.064C536.799 100.573 537.588 100.328 538.612 100.328C539.305 100.328 539.887 100.456 540.356 100.712C540.836 100.957 541.209 101.288 541.476 101.704C541.753 102.109 541.935 102.557 542.02 103.048L540.612 103.144C540.548 102.845 540.431 102.584 540.26 102.36C540.089 102.125 539.865 101.944 539.588 101.816C539.311 101.677 538.98 101.608 538.596 101.608C537.988 101.608 537.54 101.725 537.252 101.96C536.964 102.195 536.82 102.493 536.82 102.856C536.82 103.133 536.884 103.363 537.012 103.544C537.151 103.715 537.369 103.859 537.668 103.976C537.967 104.083 538.367 104.179 538.868 104.264C539.732 104.413 540.404 104.595 540.884 104.808C541.364 105.021 541.7 105.283 541.892 105.592C542.084 105.901 542.18 106.28 542.18 106.728C542.18 107.251 542.031 107.699 541.732 108.072C541.444 108.435 541.049 108.712 540.548 108.904C540.057 109.096 539.497 109.192 538.868 109.192ZM548.171 109V100.52H549.403L549.451 102.68L549.291 102.536C549.397 102.035 549.584 101.624 549.851 101.304C550.117 100.973 550.437 100.728 550.811 100.568C551.195 100.408 551.605 100.328 552.043 100.328C552.693 100.328 553.227 100.472 553.643 100.76C554.069 101.048 554.384 101.437 554.587 101.928C554.8 102.408 554.907 102.947 554.907 103.544V109H553.563V103.928C553.563 103.405 553.499 102.968 553.371 102.616C553.253 102.253 553.061 101.981 552.795 101.8C552.528 101.608 552.181 101.512 551.755 101.512C551.104 101.512 550.565 101.72 550.139 102.136C549.723 102.541 549.515 103.139 549.515 103.928V109H548.171ZM559.599 109.192C558.725 109.192 558.026 108.989 557.503 108.584C556.991 108.179 556.735 107.613 556.735 106.888C556.735 106.163 556.949 105.592 557.375 105.176C557.802 104.76 558.479 104.467 559.407 104.296L562.415 103.736C562.415 103.021 562.245 102.488 561.903 102.136C561.573 101.784 561.071 101.608 560.399 101.608C559.813 101.608 559.349 101.741 559.007 102.008C558.666 102.264 558.431 102.637 558.303 103.128L556.879 103.016C557.039 102.216 557.423 101.571 558.031 101.08C558.65 100.579 559.439 100.328 560.399 100.328C561.487 100.328 562.319 100.637 562.895 101.256C563.471 101.864 563.759 102.707 563.759 103.784V107.288C563.759 107.48 563.791 107.619 563.855 107.704C563.93 107.779 564.047 107.816 564.207 107.816H564.543V109C564.501 109.011 564.431 109.016 564.335 109.016C564.239 109.027 564.138 109.032 564.031 109.032C563.647 109.032 563.333 108.973 563.087 108.856C562.853 108.728 562.682 108.536 562.575 108.28C562.469 108.013 562.415 107.667 562.415 107.24L562.575 107.272C562.501 107.635 562.319 107.965 562.031 108.264C561.743 108.552 561.386 108.781 560.959 108.952C560.533 109.112 560.079 109.192 559.599 109.192ZM559.727 108.008C560.293 108.008 560.773 107.901 561.167 107.688C561.573 107.464 561.882 107.165 562.095 106.792C562.309 106.408 562.415 105.981 562.415 105.512V104.904L559.663 105.416C559.087 105.523 558.687 105.688 558.463 105.912C558.25 106.125 558.143 106.408 558.143 106.76C558.143 107.155 558.282 107.464 558.559 107.688C558.847 107.901 559.237 108.008 559.727 108.008ZM566.061 109V100.52H567.293L567.341 102.664L567.149 102.6C567.245 102.131 567.411 101.731 567.645 101.4C567.891 101.059 568.189 100.797 568.541 100.616C568.893 100.424 569.283 100.328 569.709 100.328C570.445 100.328 571.043 100.531 571.501 100.936C571.971 101.341 572.264 101.907 572.381 102.632L572.125 102.616C572.211 102.125 572.365 101.715 572.589 101.384C572.824 101.043 573.123 100.781 573.485 100.6C573.848 100.419 574.264 100.328 574.733 100.328C575.341 100.328 575.853 100.456 576.269 100.712C576.685 100.957 577 101.32 577.213 101.8C577.427 102.28 577.533 102.861 577.533 103.544V109H576.189V103.832C576.189 103.064 576.04 102.488 575.741 102.104C575.443 101.709 575 101.512 574.413 101.512C574.019 101.512 573.672 101.608 573.373 101.8C573.085 101.992 572.861 102.269 572.701 102.632C572.541 102.984 572.461 103.416 572.461 103.928V109H571.117V103.928C571.117 103.171 570.984 102.579 570.717 102.152C570.451 101.725 570.003 101.512 569.373 101.512C568.979 101.512 568.632 101.608 568.333 101.8C568.045 101.992 567.816 102.269 567.645 102.632C567.485 102.995 567.405 103.427 567.405 103.928V109H566.061ZM583.217 109.192C582.417 109.192 581.724 109.011 581.137 108.648C580.561 108.285 580.113 107.773 579.793 107.112C579.484 106.44 579.329 105.656 579.329 104.76C579.329 103.864 579.484 103.085 579.793 102.424C580.113 101.763 580.556 101.251 581.121 100.888C581.697 100.515 582.374 100.328 583.153 100.328C583.889 100.328 584.54 100.504 585.105 100.856C585.67 101.197 586.108 101.699 586.417 102.36C586.737 103.021 586.897 103.827 586.897 104.776V105.176H580.737C580.79 106.083 581.03 106.765 581.457 107.224C581.894 107.683 582.481 107.912 583.217 107.912C583.772 107.912 584.225 107.784 584.577 107.528C584.94 107.261 585.19 106.915 585.329 106.488L586.769 106.6C586.545 107.357 586.118 107.981 585.489 108.472C584.87 108.952 584.113 109.192 583.217 109.192ZM580.737 103.992H585.425C585.361 103.171 585.121 102.568 584.705 102.184C584.3 101.8 583.782 101.608 583.153 101.608C582.502 101.608 581.964 101.811 581.537 102.216C581.121 102.611 580.854 103.203 580.737 103.992ZM588.346 111.496L589.114 109H588.298V107.192H590.106V108.776L589.146 111.496H588.346ZM598.381 109.192C597.506 109.192 596.807 108.989 596.285 108.584C595.773 108.179 595.517 107.613 595.517 106.888C595.517 106.163 595.73 105.592 596.157 105.176C596.583 104.76 597.261 104.467 598.189 104.296L601.197 103.736C601.197 103.021 601.026 102.488 600.685 102.136C600.354 101.784 599.853 101.608 599.181 101.608C598.594 101.608 598.13 101.741 597.789 102.008C597.447 102.264 597.213 102.637 597.085 103.128L595.661 103.016C595.821 102.216 596.205 101.571 596.812 101.08C597.431 100.579 598.221 100.328 599.181 100.328C600.269 100.328 601.101 100.637 601.677 101.256C602.253 101.864 602.541 102.707 602.541 103.784V107.288C602.541 107.48 602.573 107.619 602.637 107.704C602.711 107.779 602.829 107.816 602.989 107.816H603.325V109C603.282 109.011 603.213 109.016 603.117 109.016C603.021 109.027 602.919 109.032 602.812 109.032C602.429 109.032 602.114 108.973 601.869 108.856C601.634 108.728 601.463 108.536 601.357 108.28C601.25 108.013 601.197 107.667 601.197 107.24L601.357 107.272C601.282 107.635 601.101 107.965 600.813 108.264C600.525 108.552 600.167 108.781 599.741 108.952C599.314 109.112 598.861 109.192 598.381 109.192ZM598.509 108.008C599.074 108.008 599.554 107.901 599.949 107.688C600.354 107.464 600.663 107.165 600.877 106.792C601.09 106.408 601.197 105.981 601.197 105.512V104.904L598.445 105.416C597.869 105.523 597.469 105.688 597.245 105.912C597.031 106.125 596.924 106.408 596.924 106.76C596.924 107.155 597.063 107.464 597.341 107.688C597.629 107.901 598.018 108.008 598.509 108.008ZM606.674 109L603.586 100.52H605.058L607.522 107.624L609.986 100.52H611.458L608.37 109H606.674ZM615.021 109.192C614.146 109.192 613.448 108.989 612.925 108.584C612.413 108.179 612.157 107.613 612.157 106.888C612.157 106.163 612.37 105.592 612.797 105.176C613.224 104.76 613.901 104.467 614.829 104.296L617.837 103.736C617.837 103.021 617.666 102.488 617.325 102.136C616.994 101.784 616.493 101.608 615.821 101.608C615.234 101.608 614.77 101.741 614.429 102.008C614.088 102.264 613.853 102.637 613.725 103.128L612.301 103.016C612.461 102.216 612.845 101.571 613.453 101.08C614.072 100.579 614.861 100.328 615.821 100.328C616.909 100.328 617.741 100.637 618.317 101.256C618.893 101.864 619.181 102.707 619.181 103.784V107.288C619.181 107.48 619.213 107.619 619.277 107.704C619.352 107.779 619.469 107.816 619.629 107.816H619.965V109C619.922 109.011 619.853 109.016 619.757 109.016C619.661 109.027 619.56 109.032 619.453 109.032C619.069 109.032 618.754 108.973 618.509 108.856C618.274 108.728 618.104 108.536 617.997 108.28C617.89 108.013 617.837 107.667 617.837 107.24L617.997 107.272C617.922 107.635 617.741 107.965 617.453 108.264C617.165 108.552 616.808 108.781 616.381 108.952C615.954 109.112 615.501 109.192 615.021 109.192ZM615.149 108.008C615.714 108.008 616.194 107.901 616.589 107.688C616.994 107.464 617.304 107.165 617.517 106.792C617.73 106.408 617.837 105.981 617.837 105.512V104.904L615.085 105.416C614.509 105.523 614.109 105.688 613.885 105.912C613.672 106.125 613.565 106.408 613.565 106.76C613.565 107.155 613.704 107.464 613.981 107.688C614.269 107.901 614.658 108.008 615.149 108.008ZM624.165 109C623.397 109 622.827 108.824 622.453 108.472C622.091 108.12 621.909 107.571 621.909 106.824V98.536H623.253V106.792C623.253 107.176 623.339 107.443 623.509 107.592C623.68 107.741 623.941 107.816 624.293 107.816H625.509V109H624.165ZM620.661 101.704V100.52H625.509V101.704H620.661ZM629.459 109.192C628.584 109.192 627.885 108.989 627.363 108.584C626.851 108.179 626.595 107.613 626.595 106.888C626.595 106.163 626.808 105.592 627.235 105.176C627.661 104.76 628.339 104.467 629.267 104.296L632.275 103.736C632.275 103.021 632.104 102.488 631.763 102.136C631.432 101.784 630.931 101.608 630.259 101.608C629.672 101.608 629.208 101.741 628.867 102.008C628.525 102.264 628.291 102.637 628.163 103.128L626.739 103.016C626.899 102.216 627.283 101.571 627.891 101.08C628.509 100.579 629.299 100.328 630.259 100.328C631.347 100.328 632.179 100.637 632.755 101.256C633.331 101.864 633.619 102.707 633.619 103.784V107.288C633.619 107.48 633.651 107.619 633.715 107.704C633.789 107.779 633.907 107.816 634.067 107.816H634.403V109C634.36 109.011 634.291 109.016 634.195 109.016C634.099 109.027 633.997 109.032 633.891 109.032C633.507 109.032 633.192 108.973 632.947 108.856C632.712 108.728 632.541 108.536 632.435 108.28C632.328 108.013 632.275 107.667 632.275 107.24L632.435 107.272C632.36 107.635 632.179 107.965 631.891 108.264C631.603 108.552 631.245 108.781 630.819 108.952C630.392 109.112 629.939 109.192 629.459 109.192ZM629.587 108.008C630.152 108.008 630.632 107.901 631.027 107.688C631.432 107.464 631.741 107.165 631.955 106.792C632.168 106.408 632.275 105.981 632.275 105.512V104.904L629.523 105.416C628.947 105.523 628.547 105.688 628.323 105.912C628.109 106.125 628.003 106.408 628.003 106.76C628.003 107.155 628.141 107.464 628.419 107.688C628.707 107.901 629.096 108.008 629.587 108.008ZM635.921 109V100.52H637.105L637.169 102.664L637.041 102.616C637.147 101.891 637.377 101.363 637.729 101.032C638.091 100.691 638.571 100.52 639.169 100.52H640.001V101.8H639.185C638.758 101.8 638.401 101.88 638.113 102.04C637.835 102.189 637.622 102.419 637.473 102.728C637.334 103.027 637.265 103.411 637.265 103.88V109H635.921ZM640.502 111.496L641.27 109H640.454V107.192H642.262V108.776L641.302 111.496H640.502ZM651.561 109.192C650.761 109.192 650.067 109.011 649.481 108.648C648.905 108.285 648.457 107.773 648.137 107.112C647.827 106.44 647.673 105.656 647.673 104.76C647.673 103.864 647.827 103.085 648.137 102.424C648.457 101.763 648.899 101.251 649.465 100.888C650.041 100.515 650.718 100.328 651.497 100.328C652.233 100.328 652.883 100.504 653.449 100.856C654.014 101.197 654.451 101.699 654.761 102.36C655.081 103.021 655.241 103.827 655.241 104.776V105.176H649.081C649.134 106.083 649.374 106.765 649.801 107.224C650.238 107.683 650.825 107.912 651.561 107.912C652.115 107.912 652.569 107.784 652.921 107.528C653.283 107.261 653.534 106.915 653.673 106.488L655.113 106.6C654.889 107.357 654.462 107.981 653.833 108.472C653.214 108.952 652.457 109.192 651.561 109.192ZM649.081 103.992H653.769C653.705 103.171 653.465 102.568 653.049 102.184C652.643 101.8 652.126 101.608 651.497 101.608C650.846 101.608 650.307 101.811 649.881 102.216C649.465 102.611 649.198 103.203 649.081 103.992ZM657.061 109V100.52H658.293L658.341 102.664L658.149 102.6C658.245 102.131 658.411 101.731 658.645 101.4C658.891 101.059 659.189 100.797 659.541 100.616C659.893 100.424 660.283 100.328 660.709 100.328C661.445 100.328 662.043 100.531 662.501 100.936C662.971 101.341 663.264 101.907 663.381 102.632L663.125 102.616C663.211 102.125 663.365 101.715 663.589 101.384C663.824 101.043 664.123 100.781 664.485 100.6C664.848 100.419 665.264 100.328 665.733 100.328C666.341 100.328 666.853 100.456 667.269 100.712C667.685 100.957 668 101.32 668.213 101.8C668.427 102.28 668.533 102.861 668.533 103.544V109H667.189V103.832C667.189 103.064 667.04 102.488 666.741 102.104C666.443 101.709 666 101.512 665.413 101.512C665.019 101.512 664.672 101.608 664.373 101.8C664.085 101.992 663.861 102.269 663.701 102.632C663.541 102.984 663.461 103.416 663.461 103.928V109H662.117V103.928C662.117 103.171 661.984 102.579 661.717 102.152C661.451 101.725 661.003 101.512 660.373 101.512C659.979 101.512 659.632 101.608 659.333 101.8C659.045 101.992 658.816 102.269 658.645 102.632C658.485 102.995 658.405 103.427 658.405 103.928V109H657.061ZM673.224 109.192C672.35 109.192 671.651 108.989 671.128 108.584C670.616 108.179 670.36 107.613 670.36 106.888C670.36 106.163 670.574 105.592 671 105.176C671.427 104.76 672.104 104.467 673.032 104.296L676.04 103.736C676.04 103.021 675.87 102.488 675.528 102.136C675.198 101.784 674.696 101.608 674.024 101.608C673.438 101.608 672.974 101.741 672.632 102.008C672.291 102.264 672.056 102.637 671.928 103.128L670.504 103.016C670.664 102.216 671.048 101.571 671.656 101.08C672.275 100.579 673.064 100.328 674.024 100.328C675.112 100.328 675.944 100.637 676.52 101.256C677.096 101.864 677.384 102.707 677.384 103.784V107.288C677.384 107.48 677.416 107.619 677.48 107.704C677.555 107.779 677.672 107.816 677.832 107.816H678.168V109C678.126 109.011 678.056 109.016 677.96 109.016C677.864 109.027 677.763 109.032 677.656 109.032C677.272 109.032 676.958 108.973 676.712 108.856C676.478 108.728 676.307 108.536 676.2 108.28C676.094 108.013 676.04 107.667 676.04 107.24L676.2 107.272C676.126 107.635 675.944 107.965 675.656 108.264C675.368 108.552 675.011 108.781 674.584 108.952C674.158 109.112 673.704 109.192 673.224 109.192ZM673.352 108.008C673.918 108.008 674.398 107.901 674.792 107.688C675.198 107.464 675.507 107.165 675.72 106.792C675.934 106.408 676.04 105.981 676.04 105.512V104.904L673.288 105.416C672.712 105.523 672.312 105.688 672.088 105.912C671.875 106.125 671.768 106.408 671.768 106.76C671.768 107.155 671.907 107.464 672.184 107.688C672.472 107.901 672.862 108.008 673.352 108.008ZM679.624 109V100.52H680.968V109H679.624ZM679.592 99.192V97.624H681V99.192H679.592ZM685.038 109C684.547 109 684.147 108.872 683.838 108.616C683.528 108.36 683.374 107.955 683.374 107.4V97.64H684.718V107.288C684.718 107.459 684.76 107.592 684.846 107.688C684.942 107.773 685.075 107.816 685.246 107.816H685.982V109H685.038ZM693.927 109.192C693.053 109.192 692.354 108.989 691.831 108.584C691.319 108.179 691.063 107.613 691.063 106.888C691.063 106.163 691.277 105.592 691.703 105.176C692.13 104.76 692.807 104.467 693.735 104.296L696.743 103.736C696.743 103.021 696.573 102.488 696.231 102.136C695.901 101.784 695.399 101.608 694.727 101.608C694.141 101.608 693.677 101.741 693.335 102.008C692.994 102.264 692.759 102.637 692.631 103.128L691.207 103.016C691.367 102.216 691.751 101.571 692.359 101.08C692.978 100.579 693.767 100.328 694.727 100.328C695.815 100.328 696.647 100.637 697.223 101.256C697.799 101.864 698.087 102.707 698.087 103.784V107.288C698.087 107.48 698.119 107.619 698.183 107.704C698.258 107.779 698.375 107.816 698.535 107.816H698.871V109C698.829 109.011 698.759 109.016 698.663 109.016C698.567 109.027 698.466 109.032 698.359 109.032C697.975 109.032 697.661 108.973 697.415 108.856C697.181 108.728 697.01 108.536 696.903 108.28C696.797 108.013 696.743 107.667 696.743 107.24L696.903 107.272C696.829 107.635 696.647 107.965 696.359 108.264C696.071 108.552 695.714 108.781 695.287 108.952C694.861 109.112 694.407 109.192 693.927 109.192ZM694.055 108.008C694.621 108.008 695.101 107.901 695.495 107.688C695.901 107.464 696.21 107.165 696.423 106.792C696.637 106.408 696.743 105.981 696.743 105.512V104.904L693.991 105.416C693.415 105.523 693.015 105.688 692.791 105.912C692.578 106.125 692.471 106.408 692.471 106.76C692.471 107.155 692.61 107.464 692.887 107.688C693.175 107.901 693.565 108.008 694.055 108.008ZM700.389 109V100.52H701.621L701.669 102.68L701.509 102.536C701.616 102.035 701.803 101.624 702.069 101.304C702.336 100.973 702.656 100.728 703.029 100.568C703.413 100.408 703.824 100.328 704.261 100.328C704.912 100.328 705.445 100.472 705.861 100.76C706.288 101.048 706.603 101.437 706.805 101.928C707.019 102.408 707.125 102.947 707.125 103.544V109H705.781V103.928C705.781 103.405 705.717 102.968 705.589 102.616C705.472 102.253 705.28 101.981 705.013 101.8C704.747 101.608 704.4 101.512 703.973 101.512C703.323 101.512 702.784 101.72 702.357 102.136C701.941 102.541 701.733 103.139 701.733 103.928V109H700.389ZM712.507 109.192C711.771 109.192 711.131 109.011 710.587 108.648C710.053 108.285 709.643 107.773 709.355 107.112C709.067 106.451 708.923 105.667 708.923 104.76C708.923 103.853 709.067 103.069 709.355 102.408C709.643 101.747 710.053 101.235 710.587 100.872C711.131 100.509 711.771 100.328 712.507 100.328C713.072 100.328 713.589 100.451 714.059 100.696C714.528 100.931 714.88 101.267 715.115 101.704V97.64H716.459V109H715.243L715.195 107.72C714.96 108.179 714.603 108.541 714.123 108.808C713.643 109.064 713.104 109.192 712.507 109.192ZM712.779 107.912C713.28 107.912 713.701 107.784 714.043 107.528C714.395 107.272 714.661 106.909 714.843 106.44C715.024 105.96 715.115 105.4 715.115 104.76C715.115 104.099 715.024 103.533 714.843 103.064C714.661 102.595 714.395 102.237 714.043 101.992C713.701 101.736 713.28 101.608 712.779 101.608C712.032 101.608 711.435 101.891 710.987 102.456C710.549 103.011 710.331 103.779 710.331 104.76C710.331 105.731 710.549 106.499 710.987 107.064C711.435 107.629 712.032 107.912 712.779 107.912ZM726.902 109.192C726.316 109.192 725.793 109.064 725.334 108.808C724.876 108.541 724.524 108.179 724.278 107.72L724.23 109H723.014V97.64H724.358V101.704C724.572 101.352 724.902 101.037 725.35 100.76C725.798 100.472 726.316 100.328 726.902 100.328C727.649 100.328 728.294 100.509 728.838 100.872C729.382 101.235 729.804 101.747 730.102 102.408C730.401 103.069 730.55 103.853 730.55 104.76C730.55 105.667 730.401 106.451 730.102 107.112C729.804 107.773 729.382 108.285 728.838 108.648C728.294 109.011 727.649 109.192 726.902 109.192ZM726.822 107.912C727.537 107.912 728.102 107.629 728.518 107.064C728.934 106.499 729.142 105.731 729.142 104.76C729.142 103.779 728.934 103.011 728.518 102.456C728.102 101.891 727.548 101.608 726.854 101.608C726.332 101.608 725.884 101.736 725.51 101.992C725.137 102.237 724.849 102.595 724.646 103.064C724.454 103.533 724.358 104.099 724.358 104.76C724.358 105.4 724.454 105.96 724.646 106.44C724.849 106.909 725.132 107.272 725.494 107.528C725.868 107.784 726.31 107.912 726.822 107.912ZM732.374 109V100.52H733.718V109H732.374ZM732.342 99.192V97.624H733.75V99.192H732.342ZM739.436 109.192C738.657 109.192 737.974 109.011 737.388 108.648C736.801 108.285 736.348 107.773 736.028 107.112C735.708 106.44 735.548 105.656 735.548 104.76C735.548 103.853 735.708 103.069 736.028 102.408C736.348 101.747 736.801 101.235 737.388 100.872C737.974 100.509 738.657 100.328 739.436 100.328C740.214 100.328 740.892 100.509 741.468 100.872C742.054 101.235 742.508 101.747 742.828 102.408C743.148 103.069 743.308 103.853 743.308 104.76C743.308 105.656 743.148 106.44 742.828 107.112C742.508 107.773 742.054 108.285 741.468 108.648C740.892 109.011 740.214 109.192 739.436 109.192ZM739.436 107.912C740.214 107.912 740.817 107.635 741.244 107.08C741.681 106.515 741.9 105.741 741.9 104.76C741.9 103.779 741.681 103.011 741.244 102.456C740.817 101.891 740.214 101.608 739.436 101.608C738.657 101.608 738.049 101.891 737.612 102.456C737.174 103.011 736.956 103.779 736.956 104.76C736.956 105.741 737.174 106.515 737.612 107.08C738.049 107.635 738.657 107.912 739.436 107.912ZM744.72 109V107.192H746.528V109H744.72Z" fill="#EDFAFA"/>
<g filter="url(#filter0_d_934_10975)">
<mask id="path-3-inside-1_934_10975" fill="white">
<path d="M1337 71C1337 66.5817 1340.58 63 1345 63H1413C1417.42 63 1421 66.5817 1421 71V91C1421 95.4183 1417.42 99 1413 99H1345C1340.58 99 1337 95.4183 1337 91V71Z"/>
</mask>
<path d="M1345 63V64H1413V63V62H1345V63ZM1421 71H1420V91H1421H1422V71H1421ZM1413 99V98H1345V99V100H1413V99ZM1337 91H1338V71H1337H1336V91H1337ZM1345 99V98C1341.13 98 1338 94.866 1338 91H1337H1336C1336 95.9706 1340.03 100 1345 100V99ZM1421 91H1420C1420 94.866 1416.87 98 1413 98V99V100C1417.97 100 1422 95.9706 1422 91H1421ZM1413 63V64C1416.87 64 1420 67.134 1420 71H1421H1422C1422 66.0294 1417.97 62 1413 62V63ZM1345 63V62C1340.03 62 1336 66.0294 1336 71H1337H1338C1338 67.134 1341.13 64 1345 64V63Z" fill="#D5F5F6" mask="url(#path-3-inside-1_934_10975)"/>
<path d="M1353.28 86L1356.86 76.06H1358.78L1362.37 86H1360.76L1359.85 83.41H1355.79L1354.89 86H1353.28ZM1356.26 82.038H1359.38L1357.82 77.502L1356.26 82.038ZM1366.49 86.168C1365.79 86.168 1365.16 86.0093 1364.63 85.692C1364.1 85.3747 1363.69 84.922 1363.4 84.334C1363.11 83.746 1362.97 83.06 1362.97 82.276C1362.97 81.492 1363.11 80.8107 1363.4 80.232C1363.69 79.644 1364.1 79.1913 1364.63 78.874C1365.16 78.5473 1365.79 78.384 1366.49 78.384C1367.1 78.384 1367.64 78.4913 1368.1 78.706C1368.58 78.9113 1368.96 79.2147 1369.25 79.616C1369.55 80.0173 1369.74 80.5073 1369.83 81.086L1368.27 81.17C1368.2 80.6847 1368 80.316 1367.68 80.064C1367.37 79.8027 1366.97 79.672 1366.49 79.672C1365.87 79.672 1365.38 79.9053 1365.02 80.372C1364.68 80.8293 1364.51 81.464 1364.51 82.276C1364.51 83.088 1364.68 83.7273 1365.02 84.194C1365.38 84.6513 1365.87 84.88 1366.49 84.88C1366.97 84.88 1367.37 84.7493 1367.68 84.488C1368 84.2173 1368.2 83.8113 1368.27 83.27L1369.83 83.354C1369.74 83.9233 1369.55 84.418 1369.25 84.838C1368.96 85.258 1368.58 85.5847 1368.1 85.818C1367.64 86.0513 1367.1 86.168 1366.49 86.168ZM1373.76 86C1373.05 86 1372.53 85.8367 1372.2 85.51C1371.86 85.1833 1371.69 84.6747 1371.69 83.984V76.802H1373.18V83.872C1373.18 84.2173 1373.25 84.4553 1373.4 84.586C1373.55 84.7167 1373.78 84.782 1374.09 84.782H1375.15V86H1373.76ZM1370.56 79.77V78.552H1375.15V79.77H1370.56ZM1376.57 86V78.552H1378.05V86H1376.57ZM1376.54 77.474V75.99H1378.08V77.474H1376.54ZM1383.08 86.168C1382.37 86.168 1381.75 86.0093 1381.22 85.692C1380.68 85.3747 1380.27 84.922 1379.98 84.334C1379.7 83.746 1379.55 83.06 1379.55 82.276C1379.55 81.4827 1379.7 80.7967 1379.98 80.218C1380.27 79.6393 1380.68 79.1913 1381.22 78.874C1381.75 78.5473 1382.37 78.384 1383.08 78.384C1383.79 78.384 1384.41 78.5473 1384.94 78.874C1385.47 79.1913 1385.88 79.6393 1386.17 80.218C1386.46 80.7967 1386.61 81.4827 1386.61 82.276C1386.61 83.06 1386.46 83.746 1386.17 84.334C1385.88 84.922 1385.47 85.3747 1384.94 85.692C1384.41 86.0093 1383.79 86.168 1383.08 86.168ZM1383.08 84.88C1383.71 84.88 1384.2 84.6513 1384.55 84.194C1384.89 83.7273 1385.07 83.088 1385.07 82.276C1385.07 81.464 1384.89 80.8293 1384.55 80.372C1384.2 79.9053 1383.71 79.672 1383.08 79.672C1382.45 79.672 1381.96 79.9053 1381.61 80.372C1381.26 80.8293 1381.09 81.464 1381.09 82.276C1381.09 83.088 1381.26 83.7273 1381.61 84.194C1381.96 84.6513 1382.45 84.88 1383.08 84.88ZM1388.11 86V78.552H1389.46L1389.52 80.54L1389.34 80.442C1389.42 79.9567 1389.58 79.5647 1389.81 79.266C1390.05 78.9673 1390.33 78.748 1390.67 78.608C1391 78.4587 1391.37 78.384 1391.76 78.384C1392.32 78.384 1392.78 78.51 1393.15 78.762C1393.52 79.0047 1393.8 79.3407 1393.99 79.77C1394.18 80.19 1394.28 80.6707 1394.28 81.212V86H1392.8V81.66C1392.8 81.2213 1392.75 80.8527 1392.66 80.554C1392.56 80.2553 1392.41 80.0267 1392.19 79.868C1391.98 79.7093 1391.7 79.63 1391.35 79.63C1390.83 79.63 1390.41 79.8027 1390.08 80.148C1389.75 80.4933 1389.59 80.9973 1389.59 81.66V86H1388.11ZM1401.38 86V78.916H1399.28V77.698H1400.13C1400.51 77.698 1400.81 77.6513 1401.04 77.558C1401.28 77.4553 1401.44 77.2873 1401.55 77.054C1401.65 76.8113 1401.7 76.48 1401.7 76.06H1402.89V86H1401.38Z" fill="#D5F5F6"/>
</g>
<g filter="url(#filter1_d_934_10975)">
<mask id="path-6-inside-2_934_10975" fill="white">
<path d="M1429 71C1429 66.5817 1432.58 63 1437 63H1508C1512.42 63 1516 66.5817 1516 71V91C1516 95.4183 1512.42 99 1508 99H1437C1432.58 99 1429 95.4183 1429 91V71Z"/>
</mask>
<path d="M1437 63V64H1508V63V62H1437V63ZM1516 71H1515V91H1516H1517V71H1516ZM1508 99V98H1437V99V100H1508V99ZM1429 91H1430V71H1429H1428V91H1429ZM1437 99V98C1433.13 98 1430 94.866 1430 91H1429H1428C1428 95.9706 1432.03 100 1437 100V99ZM1516 91H1515C1515 94.866 1511.87 98 1508 98V99V100C1512.97 100 1517 95.9706 1517 91H1516ZM1508 63V64C1511.87 64 1515 67.134 1515 71H1516H1517C1517 66.0294 1512.97 62 1508 62V63ZM1437 63V62C1432.03 62 1428 66.0294 1428 71H1429H1430C1430 67.134 1433.13 64 1437 64V63Z" fill="#D5F5F6" mask="url(#path-6-inside-2_934_10975)"/>
<path d="M1445.28 86L1448.86 76.06H1450.78L1454.37 86H1452.76L1451.85 83.41H1447.79L1446.89 86H1445.28ZM1448.26 82.038H1451.38L1449.82 77.502L1448.26 82.038ZM1458.49 86.168C1457.79 86.168 1457.16 86.0093 1456.63 85.692C1456.1 85.3747 1455.69 84.922 1455.4 84.334C1455.11 83.746 1454.97 83.06 1454.97 82.276C1454.97 81.492 1455.11 80.8107 1455.4 80.232C1455.69 79.644 1456.1 79.1913 1456.63 78.874C1457.16 78.5473 1457.79 78.384 1458.49 78.384C1459.1 78.384 1459.64 78.4913 1460.1 78.706C1460.58 78.9113 1460.96 79.2147 1461.25 79.616C1461.55 80.0173 1461.74 80.5073 1461.83 81.086L1460.27 81.17C1460.2 80.6847 1460 80.316 1459.68 80.064C1459.37 79.8027 1458.97 79.672 1458.49 79.672C1457.87 79.672 1457.38 79.9053 1457.02 80.372C1456.68 80.8293 1456.51 81.464 1456.51 82.276C1456.51 83.088 1456.68 83.7273 1457.02 84.194C1457.38 84.6513 1457.87 84.88 1458.49 84.88C1458.97 84.88 1459.37 84.7493 1459.68 84.488C1460 84.2173 1460.2 83.8113 1460.27 83.27L1461.83 83.354C1461.74 83.9233 1461.55 84.418 1461.25 84.838C1460.96 85.258 1460.58 85.5847 1460.1 85.818C1459.64 86.0513 1459.1 86.168 1458.49 86.168ZM1465.76 86C1465.05 86 1464.53 85.8367 1464.2 85.51C1463.86 85.1833 1463.69 84.6747 1463.69 83.984V76.802H1465.18V83.872C1465.18 84.2173 1465.25 84.4553 1465.4 84.586C1465.55 84.7167 1465.78 84.782 1466.09 84.782H1467.15V86H1465.76ZM1462.56 79.77V78.552H1467.15V79.77H1462.56ZM1468.57 86V78.552H1470.05V86H1468.57ZM1468.54 77.474V75.99H1470.08V77.474H1468.54ZM1475.08 86.168C1474.37 86.168 1473.75 86.0093 1473.22 85.692C1472.68 85.3747 1472.27 84.922 1471.98 84.334C1471.7 83.746 1471.55 83.06 1471.55 82.276C1471.55 81.4827 1471.7 80.7967 1471.98 80.218C1472.27 79.6393 1472.68 79.1913 1473.22 78.874C1473.75 78.5473 1474.37 78.384 1475.08 78.384C1475.79 78.384 1476.41 78.5473 1476.94 78.874C1477.47 79.1913 1477.88 79.6393 1478.17 80.218C1478.46 80.7967 1478.61 81.4827 1478.61 82.276C1478.61 83.06 1478.46 83.746 1478.17 84.334C1477.88 84.922 1477.47 85.3747 1476.94 85.692C1476.41 86.0093 1475.79 86.168 1475.08 86.168ZM1475.08 84.88C1475.71 84.88 1476.2 84.6513 1476.55 84.194C1476.89 83.7273 1477.07 83.088 1477.07 82.276C1477.07 81.464 1476.89 80.8293 1476.55 80.372C1476.2 79.9053 1475.71 79.672 1475.08 79.672C1474.45 79.672 1473.96 79.9053 1473.61 80.372C1473.26 80.8293 1473.09 81.464 1473.09 82.276C1473.09 83.088 1473.26 83.7273 1473.61 84.194C1473.96 84.6513 1474.45 84.88 1475.08 84.88ZM1480.11 86V78.552H1481.46L1481.52 80.54L1481.34 80.442C1481.42 79.9567 1481.58 79.5647 1481.81 79.266C1482.05 78.9673 1482.33 78.748 1482.67 78.608C1483 78.4587 1483.37 78.384 1483.76 78.384C1484.32 78.384 1484.78 78.51 1485.15 78.762C1485.52 79.0047 1485.8 79.3407 1485.99 79.77C1486.18 80.19 1486.28 80.6707 1486.28 81.212V86H1484.8V81.66C1484.8 81.2213 1484.75 80.8527 1484.66 80.554C1484.56 80.2553 1484.41 80.0267 1484.19 79.868C1483.98 79.7093 1483.7 79.63 1483.35 79.63C1482.83 79.63 1482.41 79.8027 1482.08 80.148C1481.75 80.4933 1481.59 80.9973 1481.59 81.66V86H1480.11ZM1491.56 86C1491.56 85.2533 1491.67 84.586 1491.89 83.998C1492.12 83.41 1492.5 82.864 1493.04 82.36C1493.58 81.856 1494.33 81.352 1495.28 80.848C1495.74 80.6147 1496.1 80.4 1496.37 80.204C1496.65 79.9987 1496.86 79.7887 1496.98 79.574C1497.1 79.3593 1497.16 79.098 1497.16 78.79C1497.16 78.4727 1497.09 78.202 1496.95 77.978C1496.82 77.7447 1496.62 77.5627 1496.36 77.432C1496.1 77.292 1495.77 77.222 1495.37 77.222C1494.73 77.222 1494.23 77.3947 1493.85 77.74C1493.49 78.076 1493.26 78.5613 1493.17 79.196L1491.6 79.098C1491.71 78.0993 1492.09 77.306 1492.73 76.718C1493.39 76.13 1494.27 75.836 1495.37 75.836C1496.08 75.836 1496.68 75.962 1497.17 76.214C1497.68 76.4567 1498.06 76.7973 1498.32 77.236C1498.59 77.6747 1498.73 78.1833 1498.73 78.762C1498.73 79.266 1498.64 79.7 1498.47 80.064C1498.31 80.428 1498.03 80.7687 1497.63 81.086C1497.24 81.394 1496.71 81.7253 1496.04 82.08C1495.18 82.5373 1494.53 82.99 1494.09 83.438C1493.65 83.8767 1493.42 84.2687 1493.39 84.614H1498.73V86H1491.56Z" fill="#D5F5F6"/>
</g>
</g>
<defs>
<filter id="filter0_d_934_10975" x="1335" y="62" width="88" height="40" filterUnits="userSpaceOnUse" color-interpolation-filters="sRGB">
<feFlood flood-opacity="0" result="BackgroundImageFix"/>
<feColorMatrix in="SourceAlpha" type="matrix" values="0 0 0 0 0 0 0 0 0 0 0 0 0 0 0 0 0 0 127 0" result="hardAlpha"/>
<feOffset dy="1"/>
<feGaussianBlur stdDeviation="1"/>
<feColorMatrix type="matrix" values="0 0 0 0 0 0 0 0 0 0 0 0 0 0 0 0 0 0 0.05 0"/>
<feBlend mode="normal" in2="BackgroundImageFix" result="effect1_dropShadow_934_10975"/>
<feBlend mode="normal" in="SourceGraphic" in2="effect1_dropShadow_934_10975" result="shape"/>
</filter>
<filter id="filter1_d_934_10975" x="1427" y="62" width="91" height="40" filterUnits="userSpaceOnUse" color-interpolation-filters="sRGB">
<feFlood flood-opacity="0" result="BackgroundImageFix"/>
<feColorMatrix in="SourceAlpha" type="matrix" values="0 0 0 0 0 0 0 0 0 0 0 0 0 0 0 0 0 0 127 0" result="hardAlpha"/>
<feOffset dy="1"/>
<feGaussianBlur stdDeviation="1"/>
<feColorMatrix type="matrix" values="0 0 0 0 0 0 0 0 0 0 0 0 0 0 0 0 0 0 0.05 0"/>
<feBlend mode="normal" in2="BackgroundImageFix" result="effect1_dropShadow_934_10975"/>
<feBlend mode="normal" in="SourceGraphic" in2="effect1_dropShadow_934_10975" result="shape"/>
</filter>
<clipPath id="clip0_934_10975">
<rect width="1232" height="68" fill="white" transform="translate(284 47)"/>
</clipPath>
</defs>
</svg>
