<svg width="1092" height="54" viewBox="0 0 1092 54" fill="none" xmlns="http://www.w3.org/2000/svg">
<rect x="0.5" y="0.5" width="1091" height="53" rx="4.5" stroke="#8A38F5" stroke-dasharray="10 5"/>
<path d="M578 27C578 20.9249 582.925 16 589 16H679C685.075 16 690 20.9249 690 27C690 33.0751 685.075 38 679 38H589C582.925 38 578 33.0751 578 27Z" fill="#EDEBFE"/>
<path d="M588.655 23.4062V22.2727H595.41V23.4062H592.687V31H591.374V23.4062H588.655ZM598.672 31.1321C598.027 31.1321 597.471 30.9943 597.006 30.7188C596.542 30.4403 596.184 30.0497 595.932 29.5469C595.682 29.0412 595.557 28.4489 595.557 27.7699C595.557 27.0994 595.682 26.5085 595.932 25.9972C596.184 25.4858 596.537 25.0866 596.988 24.7997C597.443 24.5128 597.974 24.3693 598.582 24.3693C598.952 24.3693 599.309 24.4304 599.656 24.5526C600.003 24.6747 600.314 24.8665 600.589 25.1278C600.865 25.3892 601.082 25.7287 601.241 26.1463C601.4 26.5611 601.48 27.0653 601.48 27.6591V28.1108H596.277V27.1562H600.231C600.231 26.821 600.163 26.5241 600.027 26.2656C599.89 26.0043 599.699 25.7983 599.452 25.6477C599.207 25.4972 598.92 25.4219 598.591 25.4219C598.233 25.4219 597.92 25.5099 597.653 25.6861C597.389 25.8594 597.184 26.0866 597.04 26.3679C596.898 26.6463 596.827 26.9489 596.827 27.2756V28.0213C596.827 28.4588 596.903 28.831 597.057 29.1378C597.213 29.4446 597.43 29.679 597.709 29.8409C597.987 30 598.312 30.0795 598.684 30.0795C598.926 30.0795 599.146 30.0455 599.345 29.9773C599.544 29.9062 599.716 29.8011 599.861 29.6619C600.006 29.5227 600.116 29.3509 600.193 29.1463L601.399 29.3636C601.302 29.7187 601.129 30.0298 600.879 30.2969C600.632 30.5611 600.321 30.767 599.946 30.9148C599.574 31.0597 599.149 31.1321 598.672 31.1321ZM605.651 31.1321C605.017 31.1321 604.472 30.9886 604.014 30.7017C603.56 30.4119 603.21 30.0128 602.966 29.5043C602.722 28.9957 602.6 28.4134 602.6 27.7571C602.6 27.0923 602.725 26.5057 602.975 25.9972C603.225 25.4858 603.577 25.0866 604.031 24.7997C604.486 24.5128 605.021 24.3693 605.638 24.3693C606.135 24.3693 606.578 24.4616 606.968 24.6463C607.357 24.8281 607.671 25.0838 607.909 25.4134C608.151 25.7429 608.294 26.1278 608.34 26.5682H607.1C607.031 26.2614 606.875 25.9972 606.631 25.7756C606.389 25.554 606.066 25.4432 605.659 25.4432C605.304 25.4432 604.993 25.5369 604.726 25.7244C604.462 25.9091 604.256 26.1733 604.108 26.517C603.96 26.858 603.887 27.2614 603.887 27.7273C603.887 28.2045 603.959 28.6165 604.104 28.9631C604.249 29.3097 604.453 29.5781 604.718 29.7685C604.985 29.9588 605.298 30.054 605.659 30.054C605.901 30.054 606.119 30.0099 606.316 29.9219C606.514 29.831 606.681 29.7017 606.814 29.5341C606.95 29.3665 607.046 29.1648 607.1 28.929H608.34C608.294 29.3523 608.156 29.7301 607.926 30.0625C607.696 30.3949 607.388 30.6562 607.002 30.8466C606.618 31.0369 606.168 31.1321 605.651 31.1321ZM610.976 27.1136V31H609.702V22.2727H610.959V25.5199H611.04C611.194 25.1676 611.428 24.8878 611.743 24.6804C612.059 24.473 612.471 24.3693 612.979 24.3693C613.428 24.3693 613.82 24.4616 614.155 24.6463C614.493 24.831 614.755 25.1065 614.939 25.473C615.127 25.8366 615.221 26.2912 615.221 26.8366V31H613.947V26.9901C613.947 26.5099 613.823 26.1378 613.576 25.8736C613.329 25.6065 612.985 25.473 612.545 25.473C612.243 25.473 611.974 25.5369 611.735 25.6648C611.499 25.7926 611.313 25.9801 611.177 26.2273C611.043 26.4716 610.976 26.767 610.976 27.1136ZM622.637 31.1236C622.051 31.1236 621.547 31.017 621.124 30.804C620.703 30.5909 620.379 30.3011 620.152 29.9347C619.925 29.5653 619.811 29.1477 619.811 28.6818C619.811 28.3267 619.885 28.0114 620.033 27.7358C620.181 27.4574 620.387 27.2003 620.651 26.9645C620.915 26.7287 621.22 26.4915 621.567 26.2528L622.973 25.2599C623.212 25.1037 623.398 24.9389 623.531 24.7656C623.665 24.5895 623.732 24.3722 623.732 24.1136C623.732 23.9091 623.644 23.7131 623.468 23.5256C623.291 23.3381 623.056 23.2443 622.76 23.2443C622.556 23.2443 622.375 23.294 622.219 23.3935C622.066 23.4929 621.945 23.6207 621.857 23.777C621.771 23.9304 621.729 24.0923 621.729 24.2628C621.729 24.4616 621.783 24.6619 621.891 24.8636C622.002 25.0653 622.144 25.2741 622.317 25.4901C622.49 25.7031 622.672 25.9247 622.862 26.1548L626.915 31H625.475L622.121 27.0582C621.84 26.7259 621.578 26.4134 621.337 26.1207C621.095 25.8253 620.899 25.527 620.749 25.2259C620.601 24.9219 620.527 24.5938 620.527 24.2415C620.527 23.8409 620.618 23.4858 620.8 23.1761C620.985 22.8636 621.242 22.6193 621.571 22.4432C621.901 22.267 622.287 22.179 622.73 22.179C623.179 22.179 623.564 22.267 623.885 22.4432C624.209 22.6165 624.458 22.848 624.631 23.1378C624.807 23.4247 624.895 23.7386 624.895 24.0795C624.895 24.4943 624.791 24.8608 624.584 25.179C624.379 25.4943 624.097 25.7841 623.736 26.0483L621.985 27.3395C621.644 27.5895 621.406 27.8366 621.273 28.081C621.142 28.3224 621.077 28.5114 621.077 28.6477C621.077 28.8977 621.141 29.1293 621.269 29.3423C621.399 29.5554 621.581 29.7259 621.814 29.8537C622.05 29.9815 622.325 30.0455 622.641 30.0455C622.965 30.0455 623.28 29.9759 623.587 29.8366C623.896 29.6946 624.176 29.4915 624.426 29.2273C624.679 28.9631 624.879 28.6463 625.027 28.277C625.175 27.9077 625.249 27.4943 625.249 27.0369H626.399C626.399 27.5994 626.335 28.0753 626.208 28.4645C626.08 28.8509 625.925 29.1662 625.743 29.4105C625.564 29.652 625.395 29.8409 625.236 29.9773C625.185 30.0227 625.137 30.0682 625.091 30.1136C625.046 30.1591 624.997 30.2045 624.946 30.25C624.651 30.5483 624.293 30.7685 623.872 30.9105C623.455 31.0526 623.043 31.1236 622.637 31.1236ZM635.951 24.5653C635.906 24.1619 635.718 23.8494 635.389 23.6278C635.059 23.4034 634.644 23.2912 634.144 23.2912C633.786 23.2912 633.477 23.348 633.215 23.4616C632.954 23.5724 632.751 23.7259 632.606 23.9219C632.464 24.1151 632.393 24.3352 632.393 24.5824C632.393 24.7898 632.441 24.9687 632.538 25.1193C632.637 25.2699 632.767 25.3963 632.926 25.4986C633.088 25.598 633.261 25.6818 633.445 25.75C633.63 25.8153 633.808 25.8693 633.978 25.9119L634.83 26.1335C635.109 26.2017 635.394 26.294 635.687 26.4105C635.98 26.527 636.251 26.6804 636.501 26.8707C636.751 27.0611 636.953 27.2969 637.106 27.5781C637.262 27.8594 637.34 28.196 637.34 28.5881C637.34 29.0824 637.213 29.5213 636.957 29.9048C636.704 30.2884 636.336 30.5909 635.853 30.8125C635.373 31.0341 634.792 31.1449 634.11 31.1449C633.457 31.1449 632.892 31.0412 632.414 30.8338C631.937 30.6264 631.563 30.3324 631.294 29.9517C631.024 29.5682 630.874 29.1136 630.846 28.5881H632.167C632.193 28.9034 632.295 29.1662 632.474 29.3764C632.656 29.5838 632.887 29.7386 633.169 29.8409C633.453 29.9403 633.764 29.9901 634.102 29.9901C634.474 29.9901 634.805 29.9318 635.095 29.8153C635.387 29.696 635.617 29.5312 635.785 29.321C635.953 29.108 636.036 28.8594 636.036 28.5753C636.036 28.3168 635.963 28.1051 635.815 27.9403C635.67 27.7756 635.472 27.6392 635.222 27.5312C634.975 27.4233 634.695 27.3281 634.383 27.2457L633.352 26.9645C632.653 26.7741 632.099 26.4943 631.69 26.125C631.284 25.7557 631.08 25.267 631.08 24.6591C631.08 24.1562 631.217 23.7173 631.49 23.3423C631.762 22.9673 632.132 22.6761 632.597 22.4688C633.063 22.2585 633.589 22.1534 634.174 22.1534C634.765 22.1534 635.286 22.2571 635.738 22.4645C636.193 22.6719 636.551 22.9574 636.812 23.321C637.073 23.6818 637.21 24.0966 637.221 24.5653H635.951ZM641.633 31.1321C640.988 31.1321 640.432 30.9943 639.966 30.7188C639.503 30.4403 639.145 30.0497 638.893 29.5469C638.643 29.0412 638.518 28.4489 638.518 27.7699C638.518 27.0994 638.643 26.5085 638.893 25.9972C639.145 25.4858 639.498 25.0866 639.949 24.7997C640.404 24.5128 640.935 24.3693 641.543 24.3693C641.912 24.3693 642.27 24.4304 642.617 24.5526C642.964 24.6747 643.275 24.8665 643.55 25.1278C643.826 25.3892 644.043 25.7287 644.202 26.1463C644.361 26.5611 644.441 27.0653 644.441 27.6591V28.1108H639.238V27.1562H643.192C643.192 26.821 643.124 26.5241 642.988 26.2656C642.851 26.0043 642.66 25.7983 642.412 25.6477C642.168 25.4972 641.881 25.4219 641.552 25.4219C641.194 25.4219 640.881 25.5099 640.614 25.6861C640.35 25.8594 640.145 26.0866 640.001 26.3679C639.858 26.6463 639.787 26.9489 639.787 27.2756V28.0213C639.787 28.4588 639.864 28.831 640.018 29.1378C640.174 29.4446 640.391 29.679 640.67 29.8409C640.948 30 641.273 30.0795 641.645 30.0795C641.887 30.0795 642.107 30.0455 642.306 29.9773C642.505 29.9062 642.677 29.8011 642.822 29.6619C642.966 29.5227 643.077 29.3509 643.154 29.1463L644.36 29.3636C644.263 29.7187 644.09 30.0298 643.84 30.2969C643.593 30.5611 643.282 30.767 642.907 30.9148C642.535 31.0597 642.11 31.1321 641.633 31.1321ZM645.855 31V24.4545H647.086V25.4943H647.154C647.274 25.142 647.484 24.8651 647.785 24.6634C648.089 24.4588 648.433 24.3565 648.816 24.3565C648.896 24.3565 648.99 24.3594 649.097 24.3651C649.208 24.3707 649.295 24.3778 649.357 24.3864V25.6051C649.306 25.5909 649.215 25.5753 649.085 25.5582C648.954 25.5384 648.823 25.5284 648.693 25.5284C648.392 25.5284 648.123 25.5923 647.887 25.7202C647.654 25.8452 647.47 26.0199 647.333 26.2443C647.197 26.4659 647.129 26.7187 647.129 27.0028V31H645.855ZM656.259 24.4545L653.885 31H652.521L650.144 24.4545H651.512L653.169 29.4915H653.237L654.891 24.4545H656.259ZM657.456 31V24.4545H658.73V31H657.456ZM658.1 23.4446C657.878 23.4446 657.688 23.3707 657.529 23.223C657.372 23.0724 657.294 22.8935 657.294 22.6861C657.294 22.4759 657.372 22.2969 657.529 22.1491C657.688 21.9986 657.878 21.9233 658.1 21.9233C658.321 21.9233 658.51 21.9986 658.666 22.1491C658.825 22.2969 658.905 22.4759 658.905 22.6861C658.905 22.8935 658.825 23.0724 658.666 23.223C658.51 23.3707 658.321 23.4446 658.1 23.4446ZM663.202 31.1321C662.568 31.1321 662.023 30.9886 661.565 30.7017C661.111 30.4119 660.761 30.0128 660.517 29.5043C660.273 28.9957 660.15 28.4134 660.15 27.7571C660.15 27.0923 660.275 26.5057 660.525 25.9972C660.775 25.4858 661.128 25.0866 661.582 24.7997C662.037 24.5128 662.572 24.3693 663.189 24.3693C663.686 24.3693 664.129 24.4616 664.518 24.6463C664.907 24.8281 665.221 25.0838 665.46 25.4134C665.702 25.7429 665.845 26.1278 665.89 26.5682H664.65C664.582 26.2614 664.426 25.9972 664.182 25.7756C663.94 25.554 663.616 25.4432 663.21 25.4432C662.855 25.4432 662.544 25.5369 662.277 25.7244C662.013 25.9091 661.807 26.1733 661.659 26.517C661.511 26.858 661.437 27.2614 661.437 27.7273C661.437 28.2045 661.51 28.6165 661.655 28.9631C661.8 29.3097 662.004 29.5781 662.268 29.7685C662.535 29.9588 662.849 30.054 663.21 30.054C663.452 30.054 663.67 30.0099 663.866 29.9219C664.065 29.831 664.231 29.7017 664.365 29.5341C664.501 29.3665 664.596 29.1648 664.65 28.929H665.89C665.845 29.3523 665.707 29.7301 665.477 30.0625C665.247 30.3949 664.939 30.6562 664.552 30.8466C664.169 31.0369 663.719 31.1321 663.202 31.1321ZM670.074 31.1321C669.429 31.1321 668.874 30.9943 668.408 30.7188C667.945 30.4403 667.587 30.0497 667.334 29.5469C667.084 29.0412 666.959 28.4489 666.959 27.7699C666.959 27.0994 667.084 26.5085 667.334 25.9972C667.587 25.4858 667.939 25.0866 668.391 24.7997C668.845 24.5128 669.377 24.3693 669.985 24.3693C670.354 24.3693 670.712 24.4304 671.058 24.5526C671.405 24.6747 671.716 24.8665 671.992 25.1278C672.267 25.3892 672.485 25.7287 672.644 26.1463C672.803 26.5611 672.882 27.0653 672.882 27.6591V28.1108H667.679V27.1562H671.634C671.634 26.821 671.566 26.5241 671.429 26.2656C671.293 26.0043 671.101 25.7983 670.854 25.6477C670.61 25.4972 670.323 25.4219 669.993 25.4219C669.635 25.4219 669.323 25.5099 669.056 25.6861C668.791 25.8594 668.587 26.0866 668.442 26.3679C668.3 26.6463 668.229 26.9489 668.229 27.2756V28.0213C668.229 28.4588 668.306 28.831 668.459 29.1378C668.615 29.4446 668.833 29.679 669.111 29.8409C669.389 30 669.715 30.0795 670.087 30.0795C670.328 30.0795 670.548 30.0455 670.747 29.9773C670.946 29.9062 671.118 29.8011 671.263 29.6619C671.408 29.5227 671.519 29.3509 671.595 29.1463L672.801 29.3636C672.705 29.7187 672.531 30.0298 672.281 30.2969C672.034 30.5611 671.723 30.767 671.348 30.9148C670.976 31.0597 670.551 31.1321 670.074 31.1321ZM679.201 26.0526L678.046 26.2571C677.998 26.1094 677.921 25.9687 677.816 25.8352C677.714 25.7017 677.574 25.5923 677.398 25.5071C677.222 25.4219 677.002 25.3793 676.738 25.3793C676.377 25.3793 676.076 25.4602 675.834 25.6222C675.593 25.7812 675.472 25.9872 675.472 26.2401C675.472 26.4588 675.553 26.6349 675.715 26.7685C675.877 26.902 676.138 27.0114 676.499 27.0966L677.539 27.3352C678.141 27.4744 678.59 27.6889 678.885 27.9787C679.181 28.2685 679.329 28.6449 679.329 29.108C679.329 29.5 679.215 29.8494 678.988 30.1562C678.763 30.4602 678.449 30.6989 678.046 30.8722C677.645 31.0455 677.181 31.1321 676.653 31.1321C675.92 31.1321 675.322 30.9759 674.858 30.6634C674.395 30.348 674.111 29.9006 674.006 29.321L675.238 29.1335C675.314 29.4545 675.472 29.6974 675.711 29.8622C675.949 30.0241 676.26 30.1051 676.644 30.1051C677.062 30.1051 677.395 30.0185 677.645 29.8452C677.895 29.669 678.02 29.4545 678.02 29.2017C678.02 28.9972 677.944 28.8253 677.79 28.6861C677.64 28.5469 677.408 28.4418 677.096 28.3707L675.988 28.1278C675.377 27.9886 674.925 27.767 674.633 27.4631C674.343 27.1591 674.198 26.7741 674.198 26.3082C674.198 25.9219 674.306 25.5838 674.522 25.294C674.738 25.0043 675.036 24.7784 675.417 24.6165C675.797 24.4517 676.233 24.3693 676.725 24.3693C677.432 24.3693 677.989 24.5227 678.395 24.8295C678.802 25.1335 679.07 25.5412 679.201 26.0526Z" fill="#5521B5"/>
<path d="M411 27C411 20.9249 415.925 16 422 16H530C536.075 16 541 20.9249 541 27C541 33.0751 536.075 38 530 38H422C415.925 38 411 33.0751 411 27Z" fill="#F6F5FF"/>
<path d="M422.39 31V22.2727H423.707V26.0653H428.058V22.2727H429.379V31H428.058V27.1946H423.707V31H422.39ZM434.015 31.1321C433.371 31.1321 432.815 30.9943 432.349 30.7188C431.886 30.4403 431.528 30.0497 431.275 29.5469C431.025 29.0412 430.9 28.4489 430.9 27.7699C430.9 27.0994 431.025 26.5085 431.275 25.9972C431.528 25.4858 431.881 25.0866 432.332 24.7997C432.787 24.5128 433.318 24.3693 433.926 24.3693C434.295 24.3693 434.653 24.4304 435 24.5526C435.346 24.6747 435.657 24.8665 435.933 25.1278C436.209 25.3892 436.426 25.7287 436.585 26.1463C436.744 26.5611 436.824 27.0653 436.824 27.6591V28.1108H431.621V27.1562H435.575C435.575 26.821 435.507 26.5241 435.371 26.2656C435.234 26.0043 435.042 25.7983 434.795 25.6477C434.551 25.4972 434.264 25.4219 433.934 25.4219C433.577 25.4219 433.264 25.5099 432.997 25.6861C432.733 25.8594 432.528 26.0866 432.383 26.3679C432.241 26.6463 432.17 26.9489 432.17 27.2756V28.0213C432.17 28.4588 432.247 28.831 432.4 29.1378C432.557 29.4446 432.774 29.679 433.052 29.8409C433.331 30 433.656 30.0795 434.028 30.0795C434.27 30.0795 434.49 30.0455 434.689 29.9773C434.888 29.9062 435.059 29.8011 435.204 29.6619C435.349 29.5227 435.46 29.3509 435.537 29.1463L436.743 29.3636C436.646 29.7187 436.473 30.0298 436.223 30.2969C435.976 30.5611 435.665 30.767 435.29 30.9148C434.917 31.0597 434.493 31.1321 434.015 31.1321ZM440.142 31.1449C439.727 31.1449 439.352 31.0682 439.017 30.9148C438.682 30.7585 438.416 30.5327 438.22 30.2372C438.027 29.9418 437.931 29.5795 437.931 29.1506C437.931 28.7812 438.002 28.4773 438.144 28.2386C438.286 28 438.477 27.8111 438.719 27.6719C438.96 27.5327 439.23 27.4276 439.529 27.3565C439.827 27.2855 440.131 27.2315 440.441 27.1946C440.833 27.1491 441.151 27.1122 441.395 27.0838C441.639 27.0526 441.817 27.0028 441.928 26.9347C442.039 26.8665 442.094 26.7557 442.094 26.6023V26.5724C442.094 26.2003 441.989 25.9119 441.779 25.7074C441.571 25.5028 441.262 25.4006 440.85 25.4006C440.421 25.4006 440.083 25.4957 439.835 25.6861C439.591 25.8736 439.422 26.0824 439.328 26.3125L438.131 26.0398C438.273 25.642 438.48 25.321 438.753 25.0767C439.029 24.8295 439.345 24.6506 439.703 24.5398C440.061 24.4261 440.438 24.3693 440.833 24.3693C441.094 24.3693 441.371 24.4006 441.664 24.4631C441.959 24.5227 442.235 24.6335 442.49 24.7955C442.749 24.9574 442.96 25.1889 443.125 25.4901C443.29 25.7884 443.372 26.1761 443.372 26.6534V31H442.128V30.1051H442.077C441.994 30.2699 441.871 30.4318 441.706 30.5909C441.541 30.75 441.33 30.8821 441.071 30.9872C440.813 31.0923 440.503 31.1449 440.142 31.1449ZM440.419 30.1222C440.771 30.1222 441.073 30.0526 441.323 29.9134C441.575 29.7741 441.767 29.5923 441.898 29.3679C442.031 29.1406 442.098 28.8977 442.098 28.6392V27.7955C442.053 27.8409 441.965 27.8835 441.834 27.9233C441.706 27.9602 441.56 27.9929 441.395 28.0213C441.23 28.0469 441.07 28.071 440.914 28.0938C440.757 28.1136 440.627 28.1307 440.521 28.1449C440.274 28.1761 440.048 28.2287 439.844 28.3026C439.642 28.3764 439.48 28.483 439.358 28.6222C439.239 28.7585 439.179 28.9403 439.179 29.1676C439.179 29.483 439.296 29.7216 439.529 29.8835C439.762 30.0426 440.058 30.1222 440.419 30.1222ZM446.344 22.2727V31H445.069V22.2727H446.344ZM451.113 24.4545V25.4773H447.538V24.4545H451.113ZM448.497 22.8864H449.771V29.0781C449.771 29.3253 449.808 29.5114 449.882 29.6364C449.955 29.7585 450.051 29.8423 450.167 29.8878C450.286 29.9304 450.416 29.9517 450.555 29.9517C450.657 29.9517 450.747 29.9446 450.823 29.9304C450.9 29.9162 450.96 29.9048 451.002 29.8963L451.232 30.9489C451.159 30.9773 451.053 31.0057 450.917 31.0341C450.781 31.0653 450.61 31.0824 450.406 31.0852C450.07 31.0909 449.758 31.0312 449.468 30.9062C449.178 30.7812 448.944 30.5881 448.765 30.3267C448.586 30.0653 448.497 29.7372 448.497 29.3423V22.8864ZM453.937 27.1136V31H452.663V22.2727H453.92V25.5199H454.001C454.155 25.1676 454.389 24.8878 454.704 24.6804C455.02 24.473 455.432 24.3693 455.94 24.3693C456.389 24.3693 456.781 24.4616 457.116 24.6463C457.454 24.831 457.716 25.1065 457.9 25.473C458.088 25.8366 458.182 26.2912 458.182 26.8366V31H456.907V26.9901C456.907 26.5099 456.784 26.1378 456.537 25.8736C456.29 25.6065 455.946 25.473 455.506 25.473C455.204 25.473 454.934 25.5369 454.696 25.6648C454.46 25.7926 454.274 25.9801 454.138 26.2273C454.004 26.4716 453.937 26.767 453.937 27.1136ZM465.597 31.1236C465.012 31.1236 464.508 31.017 464.085 30.804C463.664 30.5909 463.34 30.3011 463.113 29.9347C462.886 29.5653 462.772 29.1477 462.772 28.6818C462.772 28.3267 462.846 28.0114 462.994 27.7358C463.142 27.4574 463.347 27.2003 463.612 26.9645C463.876 26.7287 464.181 26.4915 464.528 26.2528L465.934 25.2599C466.173 25.1037 466.359 24.9389 466.492 24.7656C466.626 24.5895 466.693 24.3722 466.693 24.1136C466.693 23.9091 466.605 23.7131 466.428 23.5256C466.252 23.3381 466.017 23.2443 465.721 23.2443C465.517 23.2443 465.336 23.294 465.18 23.3935C465.026 23.4929 464.906 23.6207 464.818 23.777C464.732 23.9304 464.69 24.0923 464.69 24.2628C464.69 24.4616 464.744 24.6619 464.852 24.8636C464.963 25.0653 465.105 25.2741 465.278 25.4901C465.451 25.7031 465.633 25.9247 465.823 26.1548L469.876 31H468.436L465.082 27.0582C464.801 26.7259 464.539 26.4134 464.298 26.1207C464.056 25.8253 463.86 25.527 463.71 25.2259C463.562 24.9219 463.488 24.5938 463.488 24.2415C463.488 23.8409 463.579 23.4858 463.761 23.1761C463.945 22.8636 464.203 22.6193 464.532 22.4432C464.862 22.267 465.248 22.179 465.691 22.179C466.14 22.179 466.525 22.267 466.846 22.4432C467.17 22.6165 467.419 22.848 467.592 23.1378C467.768 23.4247 467.856 23.7386 467.856 24.0795C467.856 24.4943 467.752 24.8608 467.545 25.179C467.34 25.4943 467.058 25.7841 466.697 26.0483L464.945 27.3395C464.605 27.5895 464.367 27.8366 464.234 28.081C464.103 28.3224 464.038 28.5114 464.038 28.6477C464.038 28.8977 464.102 29.1293 464.23 29.3423C464.36 29.5554 464.542 29.7259 464.775 29.8537C465.011 29.9815 465.286 30.0455 465.602 30.0455C465.926 30.0455 466.241 29.9759 466.548 29.8366C466.857 29.6946 467.137 29.4915 467.387 29.2273C467.64 28.9631 467.84 28.6463 467.988 28.277C468.136 27.9077 468.21 27.4943 468.21 27.0369H469.36C469.36 27.5994 469.296 28.0753 469.169 28.4645C469.041 28.8509 468.886 29.1662 468.704 29.4105C468.525 29.652 468.356 29.8409 468.197 29.9773C468.146 30.0227 468.097 30.0682 468.052 30.1136C468.007 30.1591 467.958 30.2045 467.907 30.25C467.612 30.5483 467.254 30.7685 466.833 30.9105C466.416 31.0526 466.004 31.1236 465.597 31.1236ZM474.152 31V22.2727H479.624V23.4062H475.469V26.0653H479.338V27.1946H475.469V29.8665H479.675V31H474.152ZM483.731 31.1278C483.202 31.1278 482.731 30.9929 482.316 30.723C481.904 30.4503 481.58 30.0625 481.344 29.5597C481.111 29.054 480.995 28.4474 480.995 27.7401C480.995 27.0327 481.113 26.4276 481.349 25.9247C481.587 25.4219 481.914 25.0369 482.329 24.7699C482.743 24.5028 483.214 24.3693 483.739 24.3693C484.145 24.3693 484.472 24.4375 484.719 24.5739C484.969 24.7074 485.162 24.8636 485.299 25.0426C485.438 25.2216 485.546 25.3793 485.623 25.5156H485.699V22.2727H486.974V31H485.729V29.9815H485.623C485.546 30.1207 485.435 30.2798 485.29 30.4588C485.148 30.6378 484.952 30.794 484.702 30.9276C484.452 31.0611 484.128 31.1278 483.731 31.1278ZM484.012 30.0412C484.378 30.0412 484.688 29.9446 484.941 29.7514C485.197 29.5554 485.39 29.2841 485.52 28.9375C485.654 28.5909 485.721 28.1875 485.721 27.7273C485.721 27.2727 485.655 26.875 485.525 26.5341C485.394 26.1932 485.202 25.9276 484.949 25.7372C484.697 25.5469 484.384 25.4517 484.012 25.4517C483.628 25.4517 483.309 25.5511 483.053 25.75C482.797 25.9489 482.604 26.2202 482.474 26.5639C482.346 26.9077 482.282 27.2955 482.282 27.7273C482.282 28.1648 482.347 28.5582 482.478 28.9077C482.608 29.2571 482.802 29.5341 483.057 29.7386C483.316 29.9403 483.634 30.0412 484.012 30.0412ZM492.938 28.2855V24.4545H494.217V31H492.964V29.8665H492.896C492.745 30.2159 492.504 30.5071 492.171 30.7401C491.842 30.9702 491.431 31.0852 490.94 31.0852C490.519 31.0852 490.147 30.9929 489.823 30.8082C489.502 30.6207 489.249 30.3438 489.065 29.9773C488.883 29.6108 488.792 29.1577 488.792 28.6179V24.4545H490.066V28.4645C490.066 28.9105 490.19 29.2656 490.437 29.5298C490.684 29.794 491.005 29.9261 491.4 29.9261C491.639 29.9261 491.876 29.8665 492.112 29.7472C492.35 29.6278 492.548 29.4474 492.704 29.206C492.863 28.9645 492.941 28.6577 492.938 28.2855ZM498.686 31.1321C498.052 31.1321 497.507 30.9886 497.05 30.7017C496.595 30.4119 496.246 30.0128 496.001 29.5043C495.757 28.9957 495.635 28.4134 495.635 27.7571C495.635 27.0923 495.76 26.5057 496.01 25.9972C496.26 25.4858 496.612 25.0866 497.067 24.7997C497.521 24.5128 498.057 24.3693 498.673 24.3693C499.17 24.3693 499.613 24.4616 500.003 24.6463C500.392 24.8281 500.706 25.0838 500.944 25.4134C501.186 25.7429 501.329 26.1278 501.375 26.5682H500.135C500.067 26.2614 499.91 25.9972 499.666 25.7756C499.425 25.554 499.101 25.4432 498.694 25.4432C498.339 25.4432 498.028 25.5369 497.761 25.7244C497.497 25.9091 497.291 26.1733 497.143 26.517C496.996 26.858 496.922 27.2614 496.922 27.7273C496.922 28.2045 496.994 28.6165 497.139 28.9631C497.284 29.3097 497.488 29.5781 497.753 29.7685C498.02 29.9588 498.334 30.054 498.694 30.054C498.936 30.054 499.155 30.0099 499.351 29.9219C499.55 29.831 499.716 29.7017 499.849 29.5341C499.986 29.3665 500.081 29.1648 500.135 28.929H501.375C501.329 29.3523 501.192 29.7301 500.961 30.0625C500.731 30.3949 500.423 30.6562 500.037 30.8466C499.653 31.0369 499.203 31.1321 498.686 31.1321ZM504.642 31.1449C504.227 31.1449 503.852 31.0682 503.517 30.9148C503.182 30.7585 502.916 30.5327 502.72 30.2372C502.527 29.9418 502.431 29.5795 502.431 29.1506C502.431 28.7812 502.502 28.4773 502.644 28.2386C502.786 28 502.977 27.8111 503.219 27.6719C503.46 27.5327 503.73 27.4276 504.029 27.3565C504.327 27.2855 504.631 27.2315 504.941 27.1946C505.333 27.1491 505.651 27.1122 505.895 27.0838C506.139 27.0526 506.317 27.0028 506.428 26.9347C506.539 26.8665 506.594 26.7557 506.594 26.6023V26.5724C506.594 26.2003 506.489 25.9119 506.279 25.7074C506.071 25.5028 505.762 25.4006 505.35 25.4006C504.921 25.4006 504.583 25.4957 504.335 25.6861C504.091 25.8736 503.922 26.0824 503.828 26.3125L502.631 26.0398C502.773 25.642 502.98 25.321 503.253 25.0767C503.529 24.8295 503.845 24.6506 504.203 24.5398C504.561 24.4261 504.938 24.3693 505.333 24.3693C505.594 24.3693 505.871 24.4006 506.164 24.4631C506.459 24.5227 506.735 24.6335 506.99 24.7955C507.249 24.9574 507.46 25.1889 507.625 25.4901C507.79 25.7884 507.872 26.1761 507.872 26.6534V31H506.628V30.1051H506.577C506.494 30.2699 506.371 30.4318 506.206 30.5909C506.041 30.75 505.83 30.8821 505.571 30.9872C505.313 31.0923 505.003 31.1449 504.642 31.1449ZM504.919 30.1222C505.271 30.1222 505.573 30.0526 505.823 29.9134C506.075 29.7741 506.267 29.5923 506.398 29.3679C506.531 29.1406 506.598 28.8977 506.598 28.6392V27.7955C506.553 27.8409 506.465 27.8835 506.334 27.9233C506.206 27.9602 506.06 27.9929 505.895 28.0213C505.73 28.0469 505.57 28.071 505.414 28.0938C505.257 28.1136 505.127 28.1307 505.021 28.1449C504.774 28.1761 504.548 28.2287 504.344 28.3026C504.142 28.3764 503.98 28.483 503.858 28.6222C503.739 28.7585 503.679 28.9403 503.679 29.1676C503.679 29.483 503.796 29.7216 504.029 29.8835C504.262 30.0426 504.558 30.1222 504.919 30.1222ZM512.625 24.4545V25.4773H509.05V24.4545H512.625ZM510.008 22.8864H511.282V29.0781C511.282 29.3253 511.319 29.5114 511.393 29.6364C511.467 29.7585 511.562 29.8423 511.679 29.8878C511.798 29.9304 511.927 29.9517 512.067 29.9517C512.169 29.9517 512.258 29.9446 512.335 29.9304C512.412 29.9162 512.471 29.9048 512.514 29.8963L512.744 30.9489C512.67 30.9773 512.565 31.0057 512.429 31.0341C512.292 31.0653 512.122 31.0824 511.917 31.0852C511.582 31.0909 511.27 31.0312 510.98 30.9062C510.69 30.7812 510.456 30.5881 510.277 30.3267C510.098 30.0653 510.008 29.7372 510.008 29.3423V22.8864ZM514.034 31V24.4545H515.308V31H514.034ZM514.678 23.4446C514.456 23.4446 514.266 23.3707 514.107 23.223C513.95 23.0724 513.872 22.8935 513.872 22.6861C513.872 22.4759 513.95 22.2969 514.107 22.1491C514.266 21.9986 514.456 21.9233 514.678 21.9233C514.899 21.9233 515.088 21.9986 515.244 22.1491C515.404 22.2969 515.483 22.4759 515.483 22.6861C515.483 22.8935 515.404 23.0724 515.244 23.223C515.088 23.3707 514.899 23.4446 514.678 23.4446ZM519.78 31.1321C519.166 31.1321 518.631 30.9915 518.173 30.7102C517.716 30.429 517.361 30.0355 517.108 29.5298C516.855 29.0241 516.729 28.4332 516.729 27.7571C516.729 27.0781 516.855 26.4844 517.108 25.9759C517.361 25.4673 517.716 25.0724 518.173 24.7912C518.631 24.5099 519.166 24.3693 519.78 24.3693C520.393 24.3693 520.929 24.5099 521.386 24.7912C521.844 25.0724 522.199 25.4673 522.452 25.9759C522.704 26.4844 522.831 27.0781 522.831 27.7571C522.831 28.4332 522.704 29.0241 522.452 29.5298C522.199 30.0355 521.844 30.429 521.386 30.7102C520.929 30.9915 520.393 31.1321 519.78 31.1321ZM519.784 30.0625C520.182 30.0625 520.511 29.9574 520.773 29.7472C521.034 29.5369 521.227 29.2571 521.352 28.9077C521.48 28.5582 521.544 28.1733 521.544 27.7528C521.544 27.3352 521.48 26.9517 521.352 26.6023C521.227 26.25 521.034 25.9673 520.773 25.7543C520.511 25.5412 520.182 25.4347 519.784 25.4347C519.383 25.4347 519.051 25.5412 518.787 25.7543C518.525 25.9673 518.331 26.25 518.203 26.6023C518.078 26.9517 518.015 27.3352 518.015 27.7528C518.015 28.1733 518.078 28.5582 518.203 28.9077C518.331 29.2571 518.525 29.5369 518.787 29.7472C519.051 29.9574 519.383 30.0625 519.784 30.0625ZM525.527 27.1136V31H524.253V24.4545H525.476V25.5199H525.557C525.708 25.1733 525.943 24.8949 526.264 24.6847C526.588 24.4744 526.996 24.3693 527.487 24.3693C527.933 24.3693 528.324 24.4631 528.659 24.6506C528.994 24.8352 529.254 25.1108 529.439 25.4773C529.624 25.8437 529.716 26.2969 529.716 26.8366V31H528.442V26.9901C528.442 26.5156 528.318 26.1449 528.071 25.8778C527.824 25.608 527.485 25.473 527.053 25.473C526.757 25.473 526.494 25.5369 526.264 25.6648C526.037 25.7926 525.857 25.9801 525.723 26.2273C525.593 26.4716 525.527 26.767 525.527 27.1136Z" fill="#1E429F"/>
<path d="M846 27C846 20.9249 850.925 16 857 16H907C913.075 16 918 20.9249 918 27C918 33.0751 913.075 38 907 38H857C850.925 38 846 33.0751 846 27Z" fill="#EDFAFA"/>
<path d="M857.195 31V22.2727H858.512V29.8665H862.466V31H857.195ZM866.623 31.1321C866.01 31.1321 865.474 30.9915 865.017 30.7102C864.559 30.429 864.204 30.0355 863.952 29.5298C863.699 29.0241 863.572 28.4332 863.572 27.7571C863.572 27.0781 863.699 26.4844 863.952 25.9759C864.204 25.4673 864.559 25.0724 865.017 24.7912C865.474 24.5099 866.01 24.3693 866.623 24.3693C867.237 24.3693 867.773 24.5099 868.23 24.7912C868.687 25.0724 869.042 25.4673 869.295 25.9759C869.548 26.4844 869.675 27.0781 869.675 27.7571C869.675 28.4332 869.548 29.0241 869.295 29.5298C869.042 30.0355 868.687 30.429 868.23 30.7102C867.773 30.9915 867.237 31.1321 866.623 31.1321ZM866.628 30.0625C867.025 30.0625 867.355 29.9574 867.616 29.7472C867.878 29.5369 868.071 29.2571 868.196 28.9077C868.324 28.5582 868.388 28.1733 868.388 27.7528C868.388 27.3352 868.324 26.9517 868.196 26.6023C868.071 26.25 867.878 25.9673 867.616 25.7543C867.355 25.5412 867.025 25.4347 866.628 25.4347C866.227 25.4347 865.895 25.5412 865.631 25.7543C865.369 25.9673 865.175 26.25 865.047 26.6023C864.922 26.9517 864.859 27.3352 864.859 27.7528C864.859 28.1733 864.922 28.5582 865.047 28.9077C865.175 29.2571 865.369 29.5369 865.631 29.7472C865.895 29.9574 866.227 30.0625 866.628 30.0625ZM873.841 33.5909C873.321 33.5909 872.874 33.5227 872.499 33.3864C872.127 33.25 871.823 33.0696 871.587 32.8452C871.351 32.6207 871.175 32.375 871.058 32.108L872.154 31.6562C872.23 31.7812 872.333 31.9134 872.46 32.0526C872.591 32.1946 872.767 32.3153 872.989 32.4148C873.213 32.5142 873.502 32.5639 873.854 32.5639C874.337 32.5639 874.736 32.446 875.051 32.2102C875.367 31.9773 875.524 31.6051 875.524 31.0938V29.8068H875.443C875.367 29.946 875.256 30.1009 875.111 30.2713C874.969 30.4418 874.773 30.5895 874.523 30.7145C874.273 30.8395 873.948 30.902 873.547 30.902C873.03 30.902 872.564 30.7812 872.149 30.5398C871.737 30.2955 871.411 29.9361 871.169 29.4616C870.931 28.9844 870.811 28.3977 870.811 27.7017C870.811 27.0057 870.929 26.4091 871.165 25.9119C871.404 25.4148 871.73 25.0341 872.145 24.7699C872.56 24.5028 873.03 24.3693 873.556 24.3693C873.962 24.3693 874.29 24.4375 874.54 24.5739C874.79 24.7074 874.985 24.8636 875.124 25.0426C875.266 25.2216 875.375 25.3793 875.452 25.5156H875.546V24.4545H876.794V31.1449C876.794 31.7074 876.664 32.169 876.402 32.5298C876.141 32.8906 875.787 33.1577 875.341 33.331C874.898 33.5043 874.398 33.5909 873.841 33.5909ZM873.828 29.8452C874.195 29.8452 874.504 29.7599 874.757 29.5895C875.013 29.4162 875.206 29.169 875.337 28.848C875.47 28.5241 875.537 28.1364 875.537 27.6847C875.537 27.2443 875.472 26.8565 875.341 26.5213C875.21 26.1861 875.019 25.9247 874.766 25.7372C874.513 25.5469 874.2 25.4517 873.828 25.4517C873.445 25.4517 873.125 25.5511 872.869 25.75C872.614 25.946 872.421 26.2131 872.29 26.5511C872.162 26.8892 872.098 27.267 872.098 27.6847C872.098 28.1136 872.164 28.4901 872.294 28.8139C872.425 29.1378 872.618 29.3906 872.874 29.5724C873.132 29.7543 873.45 29.8452 873.828 29.8452ZM878.503 31V24.4545H879.777V31H878.503ZM879.146 23.4446C878.925 23.4446 878.735 23.3707 878.575 23.223C878.419 23.0724 878.341 22.8935 878.341 22.6861C878.341 22.4759 878.419 22.2969 878.575 22.1491C878.735 21.9986 878.925 21.9233 879.146 21.9233C879.368 21.9233 879.557 21.9986 879.713 22.1491C879.872 22.2969 879.952 22.4759 879.952 22.6861C879.952 22.8935 879.872 23.0724 879.713 23.223C879.557 23.3707 879.368 23.4446 879.146 23.4446ZM886.396 26.0526L885.241 26.2571C885.193 26.1094 885.116 25.9687 885.011 25.8352C884.909 25.7017 884.77 25.5923 884.594 25.5071C884.417 25.4219 884.197 25.3793 883.933 25.3793C883.572 25.3793 883.271 25.4602 883.03 25.6222C882.788 25.7812 882.667 25.9872 882.667 26.2401C882.667 26.4588 882.748 26.6349 882.91 26.7685C883.072 26.902 883.334 27.0114 883.694 27.0966L884.734 27.3352C885.336 27.4744 885.785 27.6889 886.081 27.9787C886.376 28.2685 886.524 28.6449 886.524 29.108C886.524 29.5 886.41 29.8494 886.183 30.1562C885.959 30.4602 885.645 30.6989 885.241 30.8722C884.841 31.0455 884.376 31.1321 883.848 31.1321C883.115 31.1321 882.517 30.9759 882.054 30.6634C881.591 30.348 881.307 29.9006 881.202 29.321L882.433 29.1335C882.51 29.4545 882.667 29.6974 882.906 29.8622C883.145 30.0241 883.456 30.1051 883.839 30.1051C884.257 30.1051 884.591 30.0185 884.841 29.8452C885.091 29.669 885.216 29.4545 885.216 29.2017C885.216 28.9972 885.139 28.8253 884.986 28.6861C884.835 28.5469 884.604 28.4418 884.291 28.3707L883.183 28.1278C882.572 27.9886 882.121 27.767 881.828 27.4631C881.538 27.1591 881.393 26.7741 881.393 26.3082C881.393 25.9219 881.501 25.5838 881.717 25.294C881.933 25.0043 882.231 24.7784 882.612 24.6165C882.993 24.4517 883.429 24.3693 883.92 24.3693C884.628 24.3693 885.184 24.5227 885.591 24.8295C885.997 25.1335 886.265 25.5412 886.396 26.0526ZM890.98 24.4545V25.4773H887.405V24.4545H890.98ZM888.364 22.8864H889.638V29.0781C889.638 29.3253 889.675 29.5114 889.749 29.6364C889.823 29.7585 889.918 29.8423 890.034 29.8878C890.154 29.9304 890.283 29.9517 890.422 29.9517C890.524 29.9517 890.614 29.9446 890.691 29.9304C890.767 29.9162 890.827 29.9048 890.869 29.8963L891.1 30.9489C891.026 30.9773 890.921 31.0057 890.784 31.0341C890.648 31.0653 890.477 31.0824 890.273 31.0852C889.938 31.0909 889.625 31.0312 889.335 30.9062C889.046 30.7812 888.811 30.5881 888.632 30.3267C888.453 30.0653 888.364 29.7372 888.364 29.3423V22.8864ZM892.39 31V24.4545H893.664V31H892.39ZM893.033 23.4446C892.812 23.4446 892.621 23.3707 892.462 23.223C892.306 23.0724 892.228 22.8935 892.228 22.6861C892.228 22.4759 892.306 22.2969 892.462 22.1491C892.621 21.9986 892.812 21.9233 893.033 21.9233C893.255 21.9233 893.444 21.9986 893.6 22.1491C893.759 22.2969 893.839 22.4759 893.839 22.6861C893.839 22.8935 893.759 23.0724 893.6 23.223C893.444 23.3707 893.255 23.4446 893.033 23.4446ZM898.135 31.1321C897.502 31.1321 896.956 30.9886 896.499 30.7017C896.044 30.4119 895.695 30.0128 895.45 29.5043C895.206 28.9957 895.084 28.4134 895.084 27.7571C895.084 27.0923 895.209 26.5057 895.459 25.9972C895.709 25.4858 896.061 25.0866 896.516 24.7997C896.97 24.5128 897.506 24.3693 898.122 24.3693C898.619 24.3693 899.063 24.4616 899.452 24.6463C899.841 24.8281 900.155 25.0838 900.394 25.4134C900.635 25.7429 900.779 26.1278 900.824 26.5682H899.584C899.516 26.2614 899.36 25.9972 899.115 25.7756C898.874 25.554 898.55 25.4432 898.144 25.4432C897.789 25.4432 897.477 25.5369 897.21 25.7244C896.946 25.9091 896.74 26.1733 896.593 26.517C896.445 26.858 896.371 27.2614 896.371 27.7273C896.371 28.2045 896.443 28.6165 896.588 28.9631C896.733 29.3097 896.938 29.5781 897.202 29.7685C897.469 29.9588 897.783 30.054 898.144 30.054C898.385 30.054 898.604 30.0099 898.8 29.9219C898.999 29.831 899.165 29.7017 899.298 29.5341C899.435 29.3665 899.53 29.1648 899.584 28.929H900.824C900.779 29.3523 900.641 29.7301 900.411 30.0625C900.181 30.3949 899.872 30.6562 899.486 30.8466C899.102 31.0369 898.652 31.1321 898.135 31.1321ZM907.091 26.0526L905.937 26.2571C905.888 26.1094 905.812 25.9687 905.706 25.8352C905.604 25.7017 905.465 25.5923 905.289 25.5071C905.113 25.4219 904.893 25.3793 904.628 25.3793C904.268 25.3793 903.966 25.4602 903.725 25.6222C903.483 25.7812 903.363 25.9872 903.363 26.2401C903.363 26.4588 903.444 26.6349 903.606 26.7685C903.768 26.902 904.029 27.0114 904.39 27.0966L905.43 27.3352C906.032 27.4744 906.481 27.6889 906.776 27.9787C907.072 28.2685 907.219 28.6449 907.219 29.108C907.219 29.5 907.106 29.8494 906.878 30.1562C906.654 30.4602 906.34 30.6989 905.937 30.8722C905.536 31.0455 905.072 31.1321 904.543 31.1321C903.81 31.1321 903.212 30.9759 902.749 30.6634C902.286 30.348 902.002 29.9006 901.897 29.321L903.128 29.1335C903.205 29.4545 903.363 29.6974 903.601 29.8622C903.84 30.0241 904.151 30.1051 904.535 30.1051C904.952 30.1051 905.286 30.0185 905.536 29.8452C905.786 29.669 905.911 29.4545 905.911 29.2017C905.911 28.9972 905.834 28.8253 905.681 28.6861C905.53 28.5469 905.299 28.4418 904.986 28.3707L903.878 28.1278C903.268 27.9886 902.816 27.767 902.523 27.4631C902.233 27.1591 902.089 26.7741 902.089 26.3082C902.089 25.9219 902.197 25.5838 902.412 25.294C902.628 25.0043 902.927 24.7784 903.307 24.6165C903.688 24.4517 904.124 24.3693 904.616 24.3693C905.323 24.3693 905.88 24.5227 906.286 24.8295C906.692 25.1335 906.961 25.5412 907.091 26.0526Z" fill="#014451"/>
<path d="M955 27C955 20.9249 959.925 16 966 16H1052C1058.08 16 1063 20.9249 1063 27C1063 33.0751 1058.08 38 1052 38H966C959.925 38 955 33.0751 955 27Z" fill="#FFF8F1"/>
<path d="M965.996 31V22.2727H969.107C969.786 22.2727 970.348 22.3963 970.794 22.6435C971.24 22.8906 971.574 23.2287 971.796 23.6577C972.017 24.0838 972.128 24.5639 972.128 25.098C972.128 25.6349 972.016 26.1179 971.791 26.5469C971.57 26.973 971.235 27.3111 970.786 27.5611C970.34 27.8082 969.779 27.9318 969.102 27.9318H966.963V26.8153H968.983C969.412 26.8153 969.76 26.7415 970.027 26.5938C970.294 26.4432 970.49 26.2386 970.615 25.9801C970.74 25.7216 970.803 25.4276 970.803 25.098C970.803 24.7685 970.74 24.4759 970.615 24.2202C970.49 23.9645 970.293 23.7642 970.023 23.6193C969.756 23.4744 969.404 23.402 968.966 23.402H967.313V31H965.996ZM977.716 28.2855V24.4545H978.994V31H977.741V29.8665H977.673C977.523 30.2159 977.281 30.5071 976.949 30.7401C976.619 30.9702 976.209 31.0852 975.717 31.0852C975.297 31.0852 974.925 30.9929 974.601 30.8082C974.28 30.6207 974.027 30.3438 973.842 29.9773C973.66 29.6108 973.569 29.1577 973.569 28.6179V24.4545H974.844V28.4645C974.844 28.9105 974.967 29.2656 975.214 29.5298C975.461 29.794 975.782 29.9261 976.177 29.9261C976.416 29.9261 976.653 29.8665 976.889 29.7472C977.128 29.6278 977.325 29.4474 977.481 29.206C977.64 28.9645 977.719 28.6577 977.716 28.2855ZM980.808 31V22.2727H982.083V25.5156H982.159C982.233 25.3793 982.34 25.2216 982.479 25.0426C982.618 24.8636 982.811 24.7074 983.058 24.5739C983.306 24.4375 983.632 24.3693 984.039 24.3693C984.567 24.3693 985.039 24.5028 985.453 24.7699C985.868 25.0369 986.193 25.4219 986.429 25.9247C986.668 26.4276 986.787 27.0327 986.787 27.7401C986.787 28.4474 986.669 29.054 986.433 29.5597C986.198 30.0625 985.874 30.4503 985.462 30.723C985.05 30.9929 984.58 31.1278 984.051 31.1278C983.654 31.1278 983.328 31.0611 983.075 30.9276C982.825 30.794 982.629 30.6378 982.487 30.4588C982.345 30.2798 982.236 30.1207 982.159 29.9815H982.053V31H980.808ZM982.057 27.7273C982.057 28.1875 982.124 28.5909 982.257 28.9375C982.391 29.2841 982.584 29.5554 982.837 29.7514C983.09 29.9446 983.399 30.0412 983.766 30.0412C984.146 30.0412 984.465 29.9403 984.72 29.7386C984.976 29.5341 985.169 29.2571 985.3 28.9077C985.433 28.5582 985.5 28.1648 985.5 27.7273C985.5 27.2955 985.435 26.9077 985.304 26.5639C985.176 26.2202 984.983 25.9489 984.725 25.75C984.469 25.5511 984.149 25.4517 983.766 25.4517C983.396 25.4517 983.084 25.5469 982.828 25.7372C982.575 25.9276 982.384 26.1932 982.253 26.5341C982.122 26.875 982.057 27.2727 982.057 27.7273ZM989.492 22.2727V31H988.218V22.2727H989.492ZM991.206 31V24.4545H992.48V31H991.206ZM991.85 23.4446C991.628 23.4446 991.438 23.3707 991.279 23.223C991.122 23.0724 991.044 22.8935 991.044 22.6861C991.044 22.4759 991.122 22.2969 991.279 22.1491C991.438 21.9986 991.628 21.9233 991.85 21.9233C992.071 21.9233 992.26 21.9986 992.416 22.1491C992.575 22.2969 992.655 22.4759 992.655 22.6861C992.655 22.8935 992.575 23.0724 992.416 23.223C992.26 23.3707 992.071 23.4446 991.85 23.4446ZM996.952 31.1321C996.318 31.1321 995.773 30.9886 995.315 30.7017C994.861 30.4119 994.511 30.0128 994.267 29.5043C994.023 28.9957 993.9 28.4134 993.9 27.7571C993.9 27.0923 994.025 26.5057 994.275 25.9972C994.525 25.4858 994.878 25.0866 995.332 24.7997C995.787 24.5128 996.322 24.3693 996.939 24.3693C997.436 24.3693 997.879 24.4616 998.268 24.6463C998.657 24.8281 998.971 25.0838 999.21 25.4134C999.452 25.7429 999.595 26.1278 999.64 26.5682H998.4C998.332 26.2614 998.176 25.9972 997.932 25.7756C997.69 25.554 997.366 25.4432 996.96 25.4432C996.605 25.4432 996.294 25.5369 996.027 25.7244C995.763 25.9091 995.557 26.1733 995.409 26.517C995.261 26.858 995.187 27.2614 995.187 27.7273C995.187 28.2045 995.26 28.6165 995.405 28.9631C995.55 29.3097 995.754 29.5781 996.018 29.7685C996.285 29.9588 996.599 30.054 996.96 30.054C997.202 30.054 997.42 30.0099 997.616 29.9219C997.815 29.831 997.981 29.7017 998.115 29.5341C998.251 29.3665 998.346 29.1648 998.4 28.929H999.64C999.595 29.3523 999.457 29.7301 999.227 30.0625C998.997 30.3949 998.689 30.6562 998.302 30.8466C997.919 31.0369 997.469 31.1321 996.952 31.1321ZM1009.04 24.5653C1009 24.1619 1008.81 23.8494 1008.48 23.6278C1008.15 23.4034 1007.73 23.2912 1007.23 23.2912C1006.88 23.2912 1006.57 23.348 1006.31 23.4616C1006.04 23.5724 1005.84 23.7259 1005.7 23.9219C1005.55 24.1151 1005.48 24.3352 1005.48 24.5824C1005.48 24.7898 1005.53 24.9687 1005.63 25.1193C1005.73 25.2699 1005.86 25.3963 1006.02 25.4986C1006.18 25.598 1006.35 25.6818 1006.54 25.75C1006.72 25.8153 1006.9 25.8693 1007.07 25.9119L1007.92 26.1335C1008.2 26.2017 1008.48 26.294 1008.78 26.4105C1009.07 26.527 1009.34 26.6804 1009.59 26.8707C1009.84 27.0611 1010.04 27.2969 1010.2 27.5781C1010.35 27.8594 1010.43 28.196 1010.43 28.5881C1010.43 29.0824 1010.3 29.5213 1010.05 29.9048C1009.79 30.2884 1009.43 30.5909 1008.94 30.8125C1008.46 31.0341 1007.88 31.1449 1007.2 31.1449C1006.55 31.1449 1005.98 31.0412 1005.5 30.8338C1005.03 30.6264 1004.65 30.3324 1004.38 29.9517C1004.11 29.5682 1003.96 29.1136 1003.94 28.5881H1005.26C1005.28 28.9034 1005.38 29.1662 1005.56 29.3764C1005.75 29.5838 1005.98 29.7386 1006.26 29.8409C1006.54 29.9403 1006.85 29.9901 1007.19 29.9901C1007.56 29.9901 1007.89 29.9318 1008.18 29.8153C1008.48 29.696 1008.71 29.5312 1008.87 29.321C1009.04 29.108 1009.13 28.8594 1009.13 28.5753C1009.13 28.3168 1009.05 28.1051 1008.9 27.9403C1008.76 27.7756 1008.56 27.6392 1008.31 27.5312C1008.07 27.4233 1007.79 27.3281 1007.47 27.2457L1006.44 26.9645C1005.74 26.7741 1005.19 26.4943 1004.78 26.125C1004.37 25.7557 1004.17 25.267 1004.17 24.6591C1004.17 24.1562 1004.31 23.7173 1004.58 23.3423C1004.85 22.9673 1005.22 22.6761 1005.69 22.4688C1006.15 22.2585 1006.68 22.1534 1007.26 22.1534C1007.85 22.1534 1008.38 22.2571 1008.83 22.4645C1009.28 22.6719 1009.64 22.9574 1009.9 23.321C1010.16 23.6818 1010.3 24.0966 1010.31 24.5653H1009.04ZM1014.72 31.1321C1014.08 31.1321 1013.52 30.9943 1013.06 30.7188C1012.59 30.4403 1012.24 30.0497 1011.98 29.5469C1011.73 29.0412 1011.61 28.4489 1011.61 27.7699C1011.61 27.0994 1011.73 26.5085 1011.98 25.9972C1012.24 25.4858 1012.59 25.0866 1013.04 24.7997C1013.49 24.5128 1014.03 24.3693 1014.63 24.3693C1015 24.3693 1015.36 24.4304 1015.71 24.5526C1016.05 24.6747 1016.36 24.8665 1016.64 25.1278C1016.92 25.3892 1017.13 25.7287 1017.29 26.1463C1017.45 26.5611 1017.53 27.0653 1017.53 27.6591V28.1108H1012.33V27.1562H1016.28C1016.28 26.821 1016.21 26.5241 1016.08 26.2656C1015.94 26.0043 1015.75 25.7983 1015.5 25.6477C1015.26 25.4972 1014.97 25.4219 1014.64 25.4219C1014.28 25.4219 1013.97 25.5099 1013.7 25.6861C1013.44 25.8594 1013.24 26.0866 1013.09 26.3679C1012.95 26.6463 1012.88 26.9489 1012.88 27.2756V28.0213C1012.88 28.4588 1012.95 28.831 1013.11 29.1378C1013.26 29.4446 1013.48 29.679 1013.76 29.8409C1014.04 30 1014.36 30.0795 1014.74 30.0795C1014.98 30.0795 1015.2 30.0455 1015.4 29.9773C1015.59 29.9062 1015.77 29.8011 1015.91 29.6619C1016.06 29.5227 1016.17 29.3509 1016.24 29.1463L1017.45 29.3636C1017.35 29.7187 1017.18 30.0298 1016.93 30.2969C1016.68 30.5611 1016.37 30.767 1016 30.9148C1015.62 31.0597 1015.2 31.1321 1014.72 31.1321ZM1018.94 31V24.4545H1020.18V25.4943H1020.24C1020.36 25.142 1020.57 24.8651 1020.87 24.6634C1021.18 24.4588 1021.52 24.3565 1021.91 24.3565C1021.99 24.3565 1022.08 24.3594 1022.19 24.3651C1022.3 24.3707 1022.38 24.3778 1022.45 24.3864V25.6051C1022.4 25.5909 1022.31 25.5753 1022.17 25.5582C1022.04 25.5384 1021.91 25.5284 1021.78 25.5284C1021.48 25.5284 1021.21 25.5923 1020.98 25.7202C1020.74 25.8452 1020.56 26.0199 1020.42 26.2443C1020.29 26.4659 1020.22 26.7187 1020.22 27.0028V31H1018.94ZM1029.35 24.4545L1026.97 31H1025.61L1023.23 24.4545H1024.6L1026.26 29.4915H1026.33L1027.98 24.4545H1029.35ZM1030.55 31V24.4545H1031.82V31H1030.55ZM1031.19 23.4446C1030.97 23.4446 1030.78 23.3707 1030.62 23.223C1030.46 23.0724 1030.38 22.8935 1030.38 22.6861C1030.38 22.4759 1030.46 22.2969 1030.62 22.1491C1030.78 21.9986 1030.97 21.9233 1031.19 21.9233C1031.41 21.9233 1031.6 21.9986 1031.76 22.1491C1031.92 22.2969 1031.99 22.4759 1031.99 22.6861C1031.99 22.8935 1031.92 23.0724 1031.76 23.223C1031.6 23.3707 1031.41 23.4446 1031.19 23.4446ZM1036.29 31.1321C1035.66 31.1321 1035.11 30.9886 1034.66 30.7017C1034.2 30.4119 1033.85 30.0128 1033.61 29.5043C1033.36 28.9957 1033.24 28.4134 1033.24 27.7571C1033.24 27.0923 1033.37 26.5057 1033.62 25.9972C1033.87 25.4858 1034.22 25.0866 1034.67 24.7997C1035.13 24.5128 1035.66 24.3693 1036.28 24.3693C1036.78 24.3693 1037.22 24.4616 1037.61 24.6463C1038 24.8281 1038.31 25.0838 1038.55 25.4134C1038.79 25.7429 1038.93 26.1278 1038.98 26.5682H1037.74C1037.67 26.2614 1037.52 25.9972 1037.27 25.7756C1037.03 25.554 1036.71 25.4432 1036.3 25.4432C1035.94 25.4432 1035.63 25.5369 1035.37 25.7244C1035.1 25.9091 1034.9 26.1733 1034.75 26.517C1034.6 26.858 1034.53 27.2614 1034.53 27.7273C1034.53 28.2045 1034.6 28.6165 1034.74 28.9631C1034.89 29.3097 1035.09 29.5781 1035.36 29.7685C1035.63 29.9588 1035.94 30.054 1036.3 30.054C1036.54 30.054 1036.76 30.0099 1036.96 29.9219C1037.16 29.831 1037.32 29.7017 1037.45 29.5341C1037.59 29.3665 1037.69 29.1648 1037.74 28.929H1038.98C1038.93 29.3523 1038.8 29.7301 1038.57 30.0625C1038.34 30.3949 1038.03 30.6562 1037.64 30.8466C1037.26 31.0369 1036.81 31.1321 1036.29 31.1321ZM1043.16 31.1321C1042.52 31.1321 1041.96 30.9943 1041.5 30.7188C1041.03 30.4403 1040.68 30.0497 1040.42 29.5469C1040.17 29.0412 1040.05 28.4489 1040.05 27.7699C1040.05 27.0994 1040.17 26.5085 1040.42 25.9972C1040.68 25.4858 1041.03 25.0866 1041.48 24.7997C1041.94 24.5128 1042.47 24.3693 1043.07 24.3693C1043.44 24.3693 1043.8 24.4304 1044.15 24.5526C1044.49 24.6747 1044.81 24.8665 1045.08 25.1278C1045.36 25.3892 1045.57 25.7287 1045.73 26.1463C1045.89 26.5611 1045.97 27.0653 1045.97 27.6591V28.1108H1040.77V27.1562H1044.72C1044.72 26.821 1044.66 26.5241 1044.52 26.2656C1044.38 26.0043 1044.19 25.7983 1043.94 25.6477C1043.7 25.4972 1043.41 25.4219 1043.08 25.4219C1042.72 25.4219 1042.41 25.5099 1042.15 25.6861C1041.88 25.8594 1041.68 26.0866 1041.53 26.3679C1041.39 26.6463 1041.32 26.9489 1041.32 27.2756V28.0213C1041.32 28.4588 1041.4 28.831 1041.55 29.1378C1041.71 29.4446 1041.92 29.679 1042.2 29.8409C1042.48 30 1042.8 30.0795 1043.18 30.0795C1043.42 30.0795 1043.64 30.0455 1043.84 29.9773C1044.04 29.9062 1044.21 29.8011 1044.35 29.6619C1044.5 29.5227 1044.61 29.3509 1044.69 29.1463L1045.89 29.3636C1045.79 29.7187 1045.62 30.0298 1045.37 30.2969C1045.12 30.5611 1044.81 30.767 1044.44 30.9148C1044.07 31.0597 1043.64 31.1321 1043.16 31.1321ZM1052.29 26.0526L1051.14 26.2571C1051.09 26.1094 1051.01 25.9687 1050.91 25.8352C1050.8 25.7017 1050.66 25.5923 1050.49 25.5071C1050.31 25.4219 1050.09 25.3793 1049.83 25.3793C1049.47 25.3793 1049.17 25.4602 1048.92 25.6222C1048.68 25.7812 1048.56 25.9872 1048.56 26.2401C1048.56 26.4588 1048.64 26.6349 1048.8 26.7685C1048.97 26.902 1049.23 27.0114 1049.59 27.0966L1050.63 27.3352C1051.23 27.4744 1051.68 27.6889 1051.98 27.9787C1052.27 28.2685 1052.42 28.6449 1052.42 29.108C1052.42 29.5 1052.3 29.8494 1052.08 30.1562C1051.85 30.4602 1051.54 30.6989 1051.14 30.8722C1050.74 31.0455 1050.27 31.1321 1049.74 31.1321C1049.01 31.1321 1048.41 30.9759 1047.95 30.6634C1047.49 30.348 1047.2 29.9006 1047.1 29.321L1048.33 29.1335C1048.4 29.4545 1048.56 29.6974 1048.8 29.8622C1049.04 30.0241 1049.35 30.1051 1049.73 30.1051C1050.15 30.1051 1050.49 30.0185 1050.74 29.8452C1050.99 29.669 1051.11 29.4545 1051.11 29.2017C1051.11 28.9972 1051.03 28.8253 1050.88 28.6861C1050.73 28.5469 1050.5 28.4418 1050.19 28.3707L1049.08 28.1278C1048.47 27.9886 1048.02 27.767 1047.72 27.4631C1047.43 27.1591 1047.29 26.7741 1047.29 26.3082C1047.29 25.9219 1047.4 25.5838 1047.61 25.294C1047.83 25.0043 1048.13 24.7784 1048.51 24.6165C1048.89 24.4517 1049.32 24.3693 1049.81 24.3693C1050.52 24.3693 1051.08 24.5227 1051.49 24.8295C1051.89 25.1335 1052.16 25.5412 1052.29 26.0526Z" fill="#8A2C0D"/>
<path d="M125 27C125 20.9249 129.925 16 136 16H225C231.075 16 236 20.9249 236 27C236 33.0751 231.075 38 225 38H136C129.925 38 125 33.0751 125 27Z" fill="#E5EDFF"/>
<path d="M136.33 31V22.2727H141.742V23.4062H137.647V26.0653H141.354V27.1946H137.647V31H136.33ZM143.259 31V24.4545H144.533V31H143.259ZM143.902 23.4446C143.681 23.4446 143.49 23.3707 143.331 23.223C143.175 23.0724 143.097 22.8935 143.097 22.6861C143.097 22.4759 143.175 22.2969 143.331 22.1491C143.49 21.9986 143.681 21.9233 143.902 21.9233C144.124 21.9233 144.313 21.9986 144.469 22.1491C144.628 22.2969 144.708 22.4759 144.708 22.6861C144.708 22.8935 144.628 23.0724 144.469 23.223C144.313 23.3707 144.124 23.4446 143.902 23.4446ZM147.521 27.1136V31H146.247V24.4545H147.47V25.5199H147.551C147.702 25.1733 147.938 24.8949 148.259 24.6847C148.582 24.4744 148.99 24.3693 149.482 24.3693C149.928 24.3693 150.318 24.4631 150.653 24.6506C150.989 24.8352 151.249 25.1108 151.433 25.4773C151.618 25.8437 151.71 26.2969 151.71 26.8366V31H150.436V26.9901C150.436 26.5156 150.313 26.1449 150.065 25.8778C149.818 25.608 149.479 25.473 149.047 25.473C148.751 25.473 148.489 25.5369 148.259 25.6648C148.031 25.7926 147.851 25.9801 147.717 26.2273C147.587 26.4716 147.521 26.767 147.521 27.1136ZM155.324 31.1449C154.909 31.1449 154.534 31.0682 154.199 30.9148C153.864 30.7585 153.598 30.5327 153.402 30.2372C153.209 29.9418 153.112 29.5795 153.112 29.1506C153.112 28.7812 153.183 28.4773 153.325 28.2386C153.467 28 153.659 27.8111 153.901 27.6719C154.142 27.5327 154.412 27.4276 154.71 27.3565C155.009 27.2855 155.313 27.2315 155.622 27.1946C156.014 27.1491 156.332 27.1122 156.577 27.0838C156.821 27.0526 156.999 27.0028 157.109 26.9347C157.22 26.8665 157.276 26.7557 157.276 26.6023V26.5724C157.276 26.2003 157.17 25.9119 156.96 25.7074C156.753 25.5028 156.443 25.4006 156.031 25.4006C155.602 25.4006 155.264 25.4957 155.017 25.6861C154.773 25.8736 154.604 26.0824 154.51 26.3125L153.312 26.0398C153.455 25.642 153.662 25.321 153.935 25.0767C154.21 24.8295 154.527 24.6506 154.885 24.5398C155.243 24.4261 155.619 24.3693 156.014 24.3693C156.276 24.3693 156.553 24.4006 156.845 24.4631C157.141 24.5227 157.416 24.6335 157.672 24.7955C157.93 24.9574 158.142 25.1889 158.307 25.4901C158.472 25.7884 158.554 26.1761 158.554 26.6534V31H157.31V30.1051H157.259C157.176 30.2699 157.053 30.4318 156.888 30.5909C156.723 30.75 156.511 30.8821 156.253 30.9872C155.994 31.0923 155.685 31.1449 155.324 31.1449ZM155.601 30.1222C155.953 30.1222 156.254 30.0526 156.504 29.9134C156.757 29.7741 156.949 29.5923 157.08 29.3679C157.213 29.1406 157.28 28.8977 157.28 28.6392V27.7955C157.234 27.8409 157.146 27.8835 157.016 27.9233C156.888 27.9602 156.741 27.9929 156.577 28.0213C156.412 28.0469 156.251 28.071 156.095 28.0938C155.939 28.1136 155.808 28.1307 155.703 28.1449C155.456 28.1761 155.23 28.2287 155.026 28.3026C154.824 28.3764 154.662 28.483 154.54 28.6222C154.42 28.7585 154.361 28.9403 154.361 29.1676C154.361 29.483 154.477 29.7216 154.71 29.8835C154.943 30.0426 155.24 30.1222 155.601 30.1222ZM161.525 27.1136V31H160.251V24.4545H161.474V25.5199H161.555C161.706 25.1733 161.941 24.8949 162.262 24.6847C162.586 24.4744 162.994 24.3693 163.485 24.3693C163.931 24.3693 164.322 24.4631 164.657 24.6506C164.993 24.8352 165.252 25.1108 165.437 25.4773C165.622 25.8437 165.714 26.2969 165.714 26.8366V31H164.44V26.9901C164.44 26.5156 164.316 26.1449 164.069 25.8778C163.822 25.608 163.483 25.473 163.051 25.473C162.755 25.473 162.493 25.5369 162.262 25.6648C162.035 25.7926 161.855 25.9801 161.721 26.2273C161.591 26.4716 161.525 26.767 161.525 27.1136ZM170.18 31.1321C169.547 31.1321 169.001 30.9886 168.544 30.7017C168.089 30.4119 167.74 30.0128 167.495 29.5043C167.251 28.9957 167.129 28.4134 167.129 27.7571C167.129 27.0923 167.254 26.5057 167.504 25.9972C167.754 25.4858 168.106 25.0866 168.561 24.7997C169.015 24.5128 169.551 24.3693 170.167 24.3693C170.664 24.3693 171.108 24.4616 171.497 24.6463C171.886 24.8281 172.2 25.0838 172.439 25.4134C172.68 25.7429 172.824 26.1278 172.869 26.5682H171.629C171.561 26.2614 171.404 25.9972 171.16 25.7756C170.919 25.554 170.595 25.4432 170.189 25.4432C169.833 25.4432 169.522 25.5369 169.255 25.7244C168.991 25.9091 168.785 26.1733 168.637 26.517C168.49 26.858 168.416 27.2614 168.416 27.7273C168.416 28.2045 168.488 28.6165 168.633 28.9631C168.778 29.3097 168.983 29.5781 169.247 29.7685C169.514 29.9588 169.828 30.054 170.189 30.054C170.43 30.054 170.649 30.0099 170.845 29.9219C171.044 29.831 171.21 29.7017 171.343 29.5341C171.48 29.3665 171.575 29.1648 171.629 28.929H172.869C172.824 29.3523 172.686 29.7301 172.456 30.0625C172.225 30.3949 171.917 30.6562 171.531 30.8466C171.147 31.0369 170.697 31.1321 170.18 31.1321ZM177.053 31.1321C176.408 31.1321 175.852 30.9943 175.386 30.7188C174.923 30.4403 174.565 30.0497 174.312 29.5469C174.062 29.0412 173.938 28.4489 173.938 27.7699C173.938 27.0994 174.062 26.5085 174.312 25.9972C174.565 25.4858 174.918 25.0866 175.369 24.7997C175.824 24.5128 176.355 24.3693 176.963 24.3693C177.332 24.3693 177.69 24.4304 178.037 24.5526C178.384 24.6747 178.695 24.8665 178.97 25.1278C179.246 25.3892 179.463 25.7287 179.622 26.1463C179.781 26.5611 179.861 27.0653 179.861 27.6591V28.1108H174.658V27.1562H178.612C178.612 26.821 178.544 26.5241 178.408 26.2656C178.271 26.0043 178.08 25.7983 177.832 25.6477C177.588 25.4972 177.301 25.4219 176.972 25.4219C176.614 25.4219 176.301 25.5099 176.034 25.6861C175.77 25.8594 175.565 26.0866 175.42 26.3679C175.278 26.6463 175.207 26.9489 175.207 27.2756V28.0213C175.207 28.4588 175.284 28.831 175.438 29.1378C175.594 29.4446 175.811 29.679 176.089 29.8409C176.368 30 176.693 30.0795 177.065 30.0795C177.307 30.0795 177.527 30.0455 177.726 29.9773C177.925 29.9062 178.097 29.8011 178.241 29.6619C178.386 29.5227 178.497 29.3509 178.574 29.1463L179.78 29.3636C179.683 29.7187 179.51 30.0298 179.26 30.2969C179.013 30.5611 178.702 30.767 178.327 30.9148C177.955 31.0597 177.53 31.1321 177.053 31.1321ZM186.99 31.1236C186.405 31.1236 185.901 31.017 185.477 30.804C185.057 30.5909 184.733 30.3011 184.506 29.9347C184.278 29.5653 184.165 29.1477 184.165 28.6818C184.165 28.3267 184.239 28.0114 184.386 27.7358C184.534 27.4574 184.74 27.2003 185.004 26.9645C185.268 26.7287 185.574 26.4915 185.92 26.2528L187.327 25.2599C187.565 25.1037 187.751 24.9389 187.885 24.7656C188.018 24.5895 188.085 24.3722 188.085 24.1136C188.085 23.9091 187.997 23.7131 187.821 23.5256C187.645 23.3381 187.409 23.2443 187.114 23.2443C186.909 23.2443 186.729 23.294 186.572 23.3935C186.419 23.4929 186.298 23.6207 186.21 23.777C186.125 23.9304 186.082 24.0923 186.082 24.2628C186.082 24.4616 186.136 24.6619 186.244 24.8636C186.355 25.0653 186.497 25.2741 186.67 25.4901C186.844 25.7031 187.026 25.9247 187.216 26.1548L191.268 31H189.828L186.474 27.0582C186.193 26.7259 185.932 26.4134 185.69 26.1207C185.449 25.8253 185.253 25.527 185.102 25.2259C184.955 24.9219 184.881 24.5938 184.881 24.2415C184.881 23.8409 184.972 23.4858 185.153 23.1761C185.338 22.8636 185.595 22.6193 185.925 22.4432C186.254 22.267 186.641 22.179 187.084 22.179C187.533 22.179 187.918 22.267 188.239 22.4432C188.563 22.6165 188.811 22.848 188.984 23.1378C189.161 23.4247 189.249 23.7386 189.249 24.0795C189.249 24.4943 189.145 24.8608 188.938 25.179C188.733 25.4943 188.45 25.7841 188.089 26.0483L186.338 27.3395C185.997 27.5895 185.76 27.8366 185.626 28.081C185.496 28.3224 185.43 28.5114 185.43 28.6477C185.43 28.8977 185.494 29.1293 185.622 29.3423C185.753 29.5554 185.935 29.7259 186.168 29.8537C186.403 29.9815 186.679 30.0455 186.994 30.0455C187.318 30.0455 187.634 29.9759 187.94 29.8366C188.25 29.6946 188.53 29.4915 188.78 29.2273C189.033 28.9631 189.233 28.6463 189.381 28.277C189.528 27.9077 189.602 27.4943 189.602 27.0369H190.753C190.753 27.5994 190.689 28.0753 190.561 28.4645C190.433 28.8509 190.278 29.1662 190.097 29.4105C189.918 29.652 189.749 29.8409 189.589 29.9773C189.538 30.0227 189.49 30.0682 189.445 30.1136C189.399 30.1591 189.351 30.2045 189.3 30.25C189.004 30.5483 188.646 30.7685 188.226 30.9105C187.808 31.0526 187.396 31.1236 186.99 31.1236ZM195.545 31V22.2727H196.862V29.8665H200.816V31H195.545ZM205.037 31.1321C204.392 31.1321 203.837 30.9943 203.371 30.7188C202.908 30.4403 202.55 30.0497 202.297 29.5469C202.047 29.0412 201.922 28.4489 201.922 27.7699C201.922 27.0994 202.047 26.5085 202.297 25.9972C202.55 25.4858 202.902 25.0866 203.354 24.7997C203.808 24.5128 204.339 24.3693 204.947 24.3693C205.317 24.3693 205.675 24.4304 206.021 24.5526C206.368 24.6747 206.679 24.8665 206.955 25.1278C207.23 25.3892 207.447 25.7287 207.607 26.1463C207.766 26.5611 207.845 27.0653 207.845 27.6591V28.1108H202.642V27.1562H206.597C206.597 26.821 206.528 26.5241 206.392 26.2656C206.256 26.0043 206.064 25.7983 205.817 25.6477C205.572 25.4972 205.286 25.4219 204.956 25.4219C204.598 25.4219 204.286 25.5099 204.018 25.6861C203.754 25.8594 203.55 26.0866 203.405 26.3679C203.263 26.6463 203.192 26.9489 203.192 27.2756V28.0213C203.192 28.4588 203.268 28.831 203.422 29.1378C203.578 29.4446 203.795 29.679 204.074 29.8409C204.352 30 204.678 30.0795 205.05 30.0795C205.291 30.0795 205.511 30.0455 205.71 29.9773C205.909 29.9062 206.081 29.8011 206.226 29.6619C206.371 29.5227 206.482 29.3509 206.558 29.1463L207.764 29.3636C207.668 29.7187 207.494 30.0298 207.244 30.2969C206.997 30.5611 206.686 30.767 206.311 30.9148C205.939 31.0597 205.514 31.1321 205.037 31.1321ZM212.003 33.5909C211.483 33.5909 211.036 33.5227 210.661 33.3864C210.289 33.25 209.985 33.0696 209.749 32.8452C209.513 32.6207 209.337 32.375 209.221 32.108L210.316 31.6562C210.392 31.7812 210.495 31.9134 210.623 32.0526C210.753 32.1946 210.929 32.3153 211.151 32.4148C211.375 32.5142 211.664 32.5639 212.016 32.5639C212.499 32.5639 212.898 32.446 213.213 32.2102C213.529 31.9773 213.686 31.6051 213.686 31.0938V29.8068H213.605C213.529 29.946 213.418 30.1009 213.273 30.2713C213.131 30.4418 212.935 30.5895 212.685 30.7145C212.435 30.8395 212.11 30.902 211.709 30.902C211.192 30.902 210.726 30.7812 210.311 30.5398C209.9 30.2955 209.573 29.9361 209.331 29.4616C209.093 28.9844 208.973 28.3977 208.973 27.7017C208.973 27.0057 209.091 26.4091 209.327 25.9119C209.566 25.4148 209.892 25.0341 210.307 24.7699C210.722 24.5028 211.192 24.3693 211.718 24.3693C212.124 24.3693 212.452 24.4375 212.702 24.5739C212.952 24.7074 213.147 24.8636 213.286 25.0426C213.428 25.2216 213.537 25.3793 213.614 25.5156H213.708V24.4545H214.956V31.1449C214.956 31.7074 214.826 32.169 214.564 32.5298C214.303 32.8906 213.949 33.1577 213.503 33.331C213.06 33.5043 212.56 33.5909 212.003 33.5909ZM211.99 29.8452C212.357 29.8452 212.667 29.7599 212.919 29.5895C213.175 29.4162 213.368 29.169 213.499 28.848C213.632 28.5241 213.699 28.1364 213.699 27.6847C213.699 27.2443 213.634 26.8565 213.503 26.5213C213.373 26.1861 213.181 25.9247 212.928 25.7372C212.675 25.5469 212.363 25.4517 211.99 25.4517C211.607 25.4517 211.287 25.5511 211.032 25.75C210.776 25.946 210.583 26.2131 210.452 26.5511C210.324 26.8892 210.26 27.267 210.26 27.6847C210.26 28.1136 210.326 28.4901 210.456 28.8139C210.587 29.1378 210.78 29.3906 211.036 29.5724C211.294 29.7543 211.613 29.8452 211.99 29.8452ZM218.57 31.1449C218.155 31.1449 217.78 31.0682 217.445 30.9148C217.11 30.7585 216.844 30.5327 216.648 30.2372C216.455 29.9418 216.358 29.5795 216.358 29.1506C216.358 28.7812 216.429 28.4773 216.571 28.2386C216.713 28 216.905 27.8111 217.147 27.6719C217.388 27.5327 217.658 27.4276 217.956 27.3565C218.255 27.2855 218.559 27.2315 218.868 27.1946C219.26 27.1491 219.578 27.1122 219.823 27.0838C220.067 27.0526 220.245 27.0028 220.355 26.9347C220.466 26.8665 220.522 26.7557 220.522 26.6023V26.5724C220.522 26.2003 220.417 25.9119 220.206 25.7074C219.999 25.5028 219.689 25.4006 219.277 25.4006C218.848 25.4006 218.51 25.4957 218.263 25.6861C218.019 25.8736 217.85 26.0824 217.756 26.3125L216.559 26.0398C216.701 25.642 216.908 25.321 217.181 25.0767C217.456 24.8295 217.773 24.6506 218.131 24.5398C218.489 24.4261 218.865 24.3693 219.26 24.3693C219.522 24.3693 219.799 24.4006 220.091 24.4631C220.387 24.5227 220.662 24.6335 220.918 24.7955C221.176 24.9574 221.388 25.1889 221.553 25.4901C221.718 25.7884 221.8 26.1761 221.8 26.6534V31H220.556V30.1051H220.505C220.422 30.2699 220.299 30.4318 220.134 30.5909C219.969 30.75 219.757 30.8821 219.499 30.9872C219.24 31.0923 218.931 31.1449 218.57 31.1449ZM218.847 30.1222C219.199 30.1222 219.5 30.0526 219.75 29.9134C220.003 29.7741 220.195 29.5923 220.326 29.3679C220.459 29.1406 220.526 28.8977 220.526 28.6392V27.7955C220.48 27.8409 220.392 27.8835 220.262 27.9233C220.134 27.9602 219.988 27.9929 219.823 28.0213C219.658 28.0469 219.498 28.071 219.341 28.0938C219.185 28.1136 219.054 28.1307 218.949 28.1449C218.702 28.1761 218.476 28.2287 218.272 28.3026C218.07 28.3764 217.908 28.483 217.786 28.6222C217.667 28.7585 217.607 28.9403 217.607 29.1676C217.607 29.483 217.723 29.7216 217.956 29.8835C218.189 30.0426 218.486 30.1222 218.847 30.1222ZM224.771 22.2727V31H223.497V22.2727H224.771Z" fill="#42389D"/>
<path d="M273 27C273 20.9249 277.925 16 284 16H363C369.075 16 374 20.9249 374 27C374 33.0751 369.075 38 363 38H284C277.925 38 273 33.0751 273 27Z" fill="#FCE8F3"/>
<path d="M288.918 24.5653C288.873 24.1619 288.685 23.8494 288.355 23.6278C288.026 23.4034 287.611 23.2912 287.111 23.2912C286.753 23.2912 286.444 23.348 286.182 23.4616C285.921 23.5724 285.718 23.7259 285.573 23.9219C285.431 24.1151 285.36 24.3352 285.36 24.5824C285.36 24.7898 285.408 24.9687 285.505 25.1193C285.604 25.2699 285.733 25.3963 285.892 25.4986C286.054 25.598 286.228 25.6818 286.412 25.75C286.597 25.8153 286.775 25.8693 286.945 25.9119L287.797 26.1335C288.076 26.2017 288.361 26.294 288.654 26.4105C288.946 26.527 289.218 26.6804 289.468 26.8707C289.718 27.0611 289.919 27.2969 290.073 27.5781C290.229 27.8594 290.307 28.196 290.307 28.5881C290.307 29.0824 290.179 29.5213 289.924 29.9048C289.671 30.2884 289.303 30.5909 288.82 30.8125C288.34 31.0341 287.759 31.1449 287.077 31.1449C286.424 31.1449 285.858 31.0412 285.381 30.8338C284.904 30.6264 284.53 30.3324 284.26 29.9517C283.99 29.5682 283.841 29.1136 283.813 28.5881H285.134C285.159 28.9034 285.262 29.1662 285.441 29.3764C285.623 29.5838 285.854 29.7386 286.135 29.8409C286.419 29.9403 286.73 29.9901 287.069 29.9901C287.441 29.9901 287.772 29.9318 288.061 29.8153C288.354 29.696 288.584 29.5312 288.752 29.321C288.919 29.108 289.003 28.8594 289.003 28.5753C289.003 28.3168 288.929 28.1051 288.782 27.9403C288.637 27.7756 288.439 27.6392 288.189 27.5312C287.942 27.4233 287.662 27.3281 287.35 27.2457L286.319 26.9645C285.62 26.7741 285.066 26.4943 284.657 26.125C284.25 25.7557 284.047 25.267 284.047 24.6591C284.047 24.1562 284.184 23.7173 284.456 23.3423C284.729 22.9673 285.098 22.6761 285.564 22.4688C286.03 22.2585 286.556 22.1534 287.141 22.1534C287.732 22.1534 288.253 22.2571 288.705 22.4645C289.159 22.6719 289.517 22.9574 289.779 23.321C290.04 23.6818 290.176 24.0966 290.188 24.5653H288.918ZM292.95 28.7798L292.942 27.2244H293.163L295.771 24.4545H297.297L294.322 27.608H294.122L292.95 28.7798ZM291.778 31V22.2727H293.053V31H291.778ZM295.912 31L293.568 27.8892L294.446 26.9986L297.476 31H295.912ZM298.458 31V24.4545H299.732V31H298.458ZM299.102 23.4446C298.88 23.4446 298.69 23.3707 298.531 23.223C298.374 23.0724 298.296 22.8935 298.296 22.6861C298.296 22.4759 298.374 22.2969 298.531 22.1491C298.69 21.9986 298.88 21.9233 299.102 21.9233C299.323 21.9233 299.512 21.9986 299.668 22.1491C299.827 22.2969 299.907 22.4759 299.907 22.6861C299.907 22.8935 299.827 23.0724 299.668 23.223C299.512 23.3707 299.323 23.4446 299.102 23.4446ZM302.721 22.2727V31H301.446V22.2727H302.721ZM305.709 22.2727V31H304.435V22.2727H305.709ZM310.244 31.1321C309.599 31.1321 309.044 30.9943 308.578 30.7188C308.115 30.4403 307.757 30.0497 307.504 29.5469C307.254 29.0412 307.129 28.4489 307.129 27.7699C307.129 27.0994 307.254 26.5085 307.504 25.9972C307.757 25.4858 308.109 25.0866 308.561 24.7997C309.015 24.5128 309.547 24.3693 310.154 24.3693C310.524 24.3693 310.882 24.4304 311.228 24.5526C311.575 24.6747 311.886 24.8665 312.162 25.1278C312.437 25.3892 312.654 25.7287 312.814 26.1463C312.973 26.5611 313.052 27.0653 313.052 27.6591V28.1108H307.849V27.1562H311.804C311.804 26.821 311.735 26.5241 311.599 26.2656C311.463 26.0043 311.271 25.7983 311.024 25.6477C310.779 25.4972 310.493 25.4219 310.163 25.4219C309.805 25.4219 309.493 25.5099 309.225 25.6861C308.961 25.8594 308.757 26.0866 308.612 26.3679C308.47 26.6463 308.399 26.9489 308.399 27.2756V28.0213C308.399 28.4588 308.475 28.831 308.629 29.1378C308.785 29.4446 309.002 29.679 309.281 29.8409C309.559 30 309.885 30.0795 310.257 30.0795C310.498 30.0795 310.718 30.0455 310.917 29.9773C311.116 29.9062 311.288 29.8011 311.433 29.6619C311.578 29.5227 311.689 29.3509 311.765 29.1463L312.971 29.3636C312.875 29.7187 312.701 30.0298 312.451 30.2969C312.204 30.5611 311.893 30.767 311.518 30.9148C311.146 31.0597 310.721 31.1321 310.244 31.1321ZM316.916 31.1278C316.388 31.1278 315.916 30.9929 315.501 30.723C315.089 30.4503 314.766 30.0625 314.53 29.5597C314.297 29.054 314.18 28.4474 314.18 27.7401C314.18 27.0327 314.298 26.4276 314.534 25.9247C314.773 25.4219 315.099 25.0369 315.514 24.7699C315.929 24.5028 316.399 24.3693 316.925 24.3693C317.331 24.3693 317.658 24.4375 317.905 24.5739C318.155 24.7074 318.348 24.8636 318.484 25.0426C318.624 25.2216 318.732 25.3793 318.808 25.5156H318.885V22.2727H320.159V31H318.915V29.9815H318.808C318.732 30.1207 318.621 30.2798 318.476 30.4588C318.334 30.6378 318.138 30.794 317.888 30.9276C317.638 31.0611 317.314 31.1278 316.916 31.1278ZM317.197 30.0412C317.564 30.0412 317.874 29.9446 318.126 29.7514C318.382 29.5554 318.575 29.2841 318.706 28.9375C318.839 28.5909 318.906 28.1875 318.906 27.7273C318.906 27.2727 318.841 26.875 318.71 26.5341C318.58 26.1932 318.388 25.9276 318.135 25.7372C317.882 25.5469 317.57 25.4517 317.197 25.4517C316.814 25.4517 316.494 25.5511 316.239 25.75C315.983 25.9489 315.79 26.2202 315.659 26.5639C315.531 26.9077 315.467 27.2955 315.467 27.7273C315.467 28.1648 315.533 28.5582 315.663 28.9077C315.794 29.2571 315.987 29.5341 316.243 29.7386C316.501 29.9403 316.82 30.0412 317.197 30.0412ZM324.825 23.4062V22.2727H331.58V23.4062H328.857V31H327.544V23.4062H324.825ZM332.29 31V24.4545H333.522V25.4943H333.59C333.709 25.142 333.919 24.8651 334.221 24.6634C334.525 24.4588 334.868 24.3565 335.252 24.3565C335.331 24.3565 335.425 24.3594 335.533 24.3651C335.644 24.3707 335.73 24.3778 335.793 24.3864V25.6051C335.742 25.5909 335.651 25.5753 335.52 25.5582C335.39 25.5384 335.259 25.5284 335.128 25.5284C334.827 25.5284 334.559 25.5923 334.323 25.7202C334.09 25.8452 333.905 26.0199 333.769 26.2443C333.632 26.4659 333.564 26.7187 333.564 27.0028V31H332.29ZM338.742 31.1449C338.327 31.1449 337.952 31.0682 337.617 30.9148C337.282 30.7585 337.016 30.5327 336.82 30.2372C336.627 29.9418 336.53 29.5795 336.53 29.1506C336.53 28.7812 336.601 28.4773 336.743 28.2386C336.885 28 337.077 27.8111 337.319 27.6719C337.56 27.5327 337.83 27.4276 338.128 27.3565C338.426 27.2855 338.73 27.2315 339.04 27.1946C339.432 27.1491 339.75 27.1122 339.995 27.0838C340.239 27.0526 340.417 27.0028 340.527 26.9347C340.638 26.8665 340.694 26.7557 340.694 26.6023V26.5724C340.694 26.2003 340.588 25.9119 340.378 25.7074C340.171 25.5028 339.861 25.4006 339.449 25.4006C339.02 25.4006 338.682 25.4957 338.435 25.6861C338.191 25.8736 338.022 26.0824 337.928 26.3125L336.73 26.0398C336.873 25.642 337.08 25.321 337.353 25.0767C337.628 24.8295 337.945 24.6506 338.303 24.5398C338.661 24.4261 339.037 24.3693 339.432 24.3693C339.694 24.3693 339.971 24.4006 340.263 24.4631C340.559 24.5227 340.834 24.6335 341.09 24.7955C341.348 24.9574 341.56 25.1889 341.725 25.4901C341.89 25.7884 341.972 26.1761 341.972 26.6534V31H340.728V30.1051H340.676C340.594 30.2699 340.471 30.4318 340.306 30.5909C340.141 30.75 339.929 30.8821 339.671 30.9872C339.412 31.0923 339.103 31.1449 338.742 31.1449ZM339.019 30.1222C339.371 30.1222 339.672 30.0526 339.922 29.9134C340.175 29.7741 340.367 29.5923 340.498 29.3679C340.631 29.1406 340.698 28.8977 340.698 28.6392V27.7955C340.652 27.8409 340.564 27.8835 340.434 27.9233C340.306 27.9602 340.159 27.9929 339.995 28.0213C339.83 28.0469 339.669 28.071 339.513 28.0938C339.357 28.1136 339.226 28.1307 339.121 28.1449C338.874 28.1761 338.648 28.2287 338.444 28.3026C338.242 28.3764 338.08 28.483 337.958 28.6222C337.838 28.7585 337.779 28.9403 337.779 29.1676C337.779 29.483 337.895 29.7216 338.128 29.8835C338.361 30.0426 338.658 30.1222 339.019 30.1222ZM346.119 31.1278C345.591 31.1278 345.119 30.9929 344.705 30.723C344.293 30.4503 343.969 30.0625 343.733 29.5597C343.5 29.054 343.384 28.4474 343.384 27.7401C343.384 27.0327 343.501 26.4276 343.737 25.9247C343.976 25.4219 344.303 25.0369 344.717 24.7699C345.132 24.5028 345.602 24.3693 346.128 24.3693C346.534 24.3693 346.861 24.4375 347.108 24.5739C347.358 24.7074 347.551 24.8636 347.688 25.0426C347.827 25.2216 347.935 25.3793 348.011 25.5156H348.088V22.2727H349.362V31H348.118V29.9815H348.011C347.935 30.1207 347.824 30.2798 347.679 30.4588C347.537 30.6378 347.341 30.794 347.091 30.9276C346.841 31.0611 346.517 31.1278 346.119 31.1278ZM346.401 30.0412C346.767 30.0412 347.077 29.9446 347.33 29.7514C347.585 29.5554 347.778 29.2841 347.909 28.9375C348.043 28.5909 348.109 28.1875 348.109 27.7273C348.109 27.2727 348.044 26.875 347.913 26.5341C347.783 26.1932 347.591 25.9276 347.338 25.7372C347.085 25.5469 346.773 25.4517 346.401 25.4517C346.017 25.4517 345.697 25.5511 345.442 25.75C345.186 25.9489 344.993 26.2202 344.862 26.5639C344.734 26.9077 344.67 27.2955 344.67 27.7273C344.67 28.1648 344.736 28.5582 344.866 28.9077C344.997 29.2571 345.19 29.5341 345.446 29.7386C345.705 29.9403 346.023 30.0412 346.401 30.0412ZM354.002 31.1321C353.357 31.1321 352.801 30.9943 352.336 30.7188C351.873 30.4403 351.515 30.0497 351.262 29.5469C351.012 29.0412 350.887 28.4489 350.887 27.7699C350.887 27.0994 351.012 26.5085 351.262 25.9972C351.515 25.4858 351.867 25.0866 352.319 24.7997C352.773 24.5128 353.304 24.3693 353.912 24.3693C354.282 24.3693 354.64 24.4304 354.986 24.5526C355.333 24.6747 355.644 24.8665 355.919 25.1278C356.195 25.3892 356.412 25.7287 356.571 26.1463C356.73 26.5611 356.81 27.0653 356.81 27.6591V28.1108H351.607V27.1562H355.561C355.561 26.821 355.493 26.5241 355.357 26.2656C355.221 26.0043 355.029 25.7983 354.782 25.6477C354.537 25.4972 354.25 25.4219 353.921 25.4219C353.563 25.4219 353.25 25.5099 352.983 25.6861C352.719 25.8594 352.515 26.0866 352.37 26.3679C352.228 26.6463 352.157 26.9489 352.157 27.2756V28.0213C352.157 28.4588 352.233 28.831 352.387 29.1378C352.543 29.4446 352.76 29.679 353.039 29.8409C353.317 30 353.642 30.0795 354.015 30.0795C354.256 30.0795 354.476 30.0455 354.675 29.9773C354.874 29.9062 355.046 29.8011 355.191 29.6619C355.336 29.5227 355.446 29.3509 355.523 29.1463L356.729 29.3636C356.632 29.7187 356.459 30.0298 356.209 30.2969C355.962 30.5611 355.651 30.767 355.276 30.9148C354.904 31.0597 354.479 31.1321 354.002 31.1321ZM363.129 26.0526L361.974 26.2571C361.925 26.1094 361.849 25.9687 361.744 25.8352C361.641 25.7017 361.502 25.5923 361.326 25.5071C361.15 25.4219 360.93 25.3793 360.665 25.3793C360.305 25.3793 360.004 25.4602 359.762 25.6222C359.521 25.7812 359.4 25.9872 359.4 26.2401C359.4 26.4588 359.481 26.6349 359.643 26.7685C359.805 26.902 360.066 27.0114 360.427 27.0966L361.467 27.3352C362.069 27.4744 362.518 27.6889 362.813 27.9787C363.109 28.2685 363.256 28.6449 363.256 29.108C363.256 29.5 363.143 29.8494 362.915 30.1562C362.691 30.4602 362.377 30.6989 361.974 30.8722C361.573 31.0455 361.109 31.1321 360.58 31.1321C359.847 31.1321 359.249 30.9759 358.786 30.6634C358.323 30.348 358.039 29.9006 357.934 29.321L359.165 29.1335C359.242 29.4545 359.4 29.6974 359.638 29.8622C359.877 30.0241 360.188 30.1051 360.572 30.1051C360.989 30.1051 361.323 30.0185 361.573 29.8452C361.823 29.669 361.948 29.4545 361.948 29.2017C361.948 28.9972 361.871 28.8253 361.718 28.6861C361.567 28.5469 361.336 28.4418 361.023 28.3707L359.915 28.1278C359.305 27.9886 358.853 27.767 358.56 27.4631C358.271 27.1591 358.126 26.7741 358.126 26.3082C358.126 25.9219 358.234 25.5838 358.45 25.294C358.665 25.0043 358.964 24.7784 359.344 24.6165C359.725 24.4517 360.161 24.3693 360.653 24.3693C361.36 24.3693 361.917 24.5227 362.323 24.8295C362.729 25.1335 362.998 25.5412 363.129 26.0526Z" fill="#99154B"/>
<path d="M727 27C727 20.9249 731.925 16 738 16H798C804.075 16 809 20.9249 809 27C809 33.0751 804.075 38 798 38H738C731.925 38 727 33.0751 727 27Z" fill="#FCE8F3"/>
<path d="M738.209 31V22.2727H739.526V26.0653H743.876V22.2727H745.197V31H743.876V27.1946H739.526V31H738.209ZM749.77 31.1321C749.156 31.1321 748.621 30.9915 748.163 30.7102C747.706 30.429 747.351 30.0355 747.098 29.5298C746.845 29.0241 746.719 28.4332 746.719 27.7571C746.719 27.0781 746.845 26.4844 747.098 25.9759C747.351 25.4673 747.706 25.0724 748.163 24.7912C748.621 24.5099 749.156 24.3693 749.77 24.3693C750.384 24.3693 750.919 24.5099 751.376 24.7912C751.834 25.0724 752.189 25.4673 752.442 25.9759C752.695 26.4844 752.821 27.0781 752.821 27.7571C752.821 28.4332 752.695 29.0241 752.442 29.5298C752.189 30.0355 751.834 30.429 751.376 30.7102C750.919 30.9915 750.384 31.1321 749.77 31.1321ZM749.774 30.0625C750.172 30.0625 750.501 29.9574 750.763 29.7472C751.024 29.5369 751.217 29.2571 751.342 28.9077C751.47 28.5582 751.534 28.1733 751.534 27.7528C751.534 27.3352 751.47 26.9517 751.342 26.6023C751.217 26.25 751.024 25.9673 750.763 25.7543C750.501 25.5412 750.172 25.4347 749.774 25.4347C749.374 25.4347 749.041 25.5412 748.777 25.7543C748.516 25.9673 748.321 26.25 748.193 26.6023C748.068 26.9517 748.006 27.3352 748.006 27.7528C748.006 28.1733 748.068 28.5582 748.193 28.9077C748.321 29.2571 748.516 29.5369 748.777 29.7472C749.041 29.9574 749.374 30.0625 749.774 30.0625ZM759.148 26.0526L757.993 26.2571C757.945 26.1094 757.868 25.9687 757.763 25.8352C757.661 25.7017 757.522 25.5923 757.346 25.5071C757.169 25.4219 756.949 25.3793 756.685 25.3793C756.324 25.3793 756.023 25.4602 755.782 25.6222C755.54 25.7812 755.419 25.9872 755.419 26.2401C755.419 26.4588 755.5 26.6349 755.662 26.7685C755.824 26.902 756.086 27.0114 756.446 27.0966L757.486 27.3352C758.088 27.4744 758.537 27.6889 758.833 27.9787C759.128 28.2685 759.276 28.6449 759.276 29.108C759.276 29.5 759.162 29.8494 758.935 30.1562C758.711 30.4602 758.397 30.6989 757.993 30.8722C757.593 31.0455 757.128 31.1321 756.6 31.1321C755.867 31.1321 755.269 30.9759 754.806 30.6634C754.343 30.348 754.059 29.9006 753.953 29.321L755.185 29.1335C755.262 29.4545 755.419 29.6974 755.658 29.8622C755.897 30.0241 756.208 30.1051 756.591 30.1051C757.009 30.1051 757.343 30.0185 757.593 29.8452C757.843 29.669 757.968 29.4545 757.968 29.2017C757.968 28.9972 757.891 28.8253 757.738 28.6861C757.587 28.5469 757.355 28.4418 757.043 28.3707L755.935 28.1278C755.324 27.9886 754.873 27.767 754.58 27.4631C754.29 27.1591 754.145 26.7741 754.145 26.3082C754.145 25.9219 754.253 25.5838 754.469 25.294C754.685 25.0043 754.983 24.7784 755.364 24.6165C755.745 24.4517 756.181 24.3693 756.672 24.3693C757.38 24.3693 757.936 24.5227 758.343 24.8295C758.749 25.1335 759.017 25.5412 759.148 26.0526ZM760.677 33.4545V24.4545H761.921V25.5156H762.028C762.102 25.3793 762.208 25.2216 762.347 25.0426C762.487 24.8636 762.68 24.7074 762.927 24.5739C763.174 24.4375 763.501 24.3693 763.907 24.3693C764.435 24.3693 764.907 24.5028 765.322 24.7699C765.737 25.0369 766.062 25.4219 766.298 25.9247C766.536 26.4276 766.656 27.0327 766.656 27.7401C766.656 28.4474 766.538 29.054 766.302 29.5597C766.066 30.0625 765.742 30.4503 765.33 30.723C764.918 30.9929 764.448 31.1278 763.92 31.1278C763.522 31.1278 763.197 31.0611 762.944 30.9276C762.694 30.794 762.498 30.6378 762.356 30.4588C762.214 30.2798 762.104 30.1207 762.028 29.9815H761.951V33.4545H760.677ZM761.925 27.7273C761.925 28.1875 761.992 28.5909 762.126 28.9375C762.259 29.2841 762.452 29.5554 762.705 29.7514C762.958 29.9446 763.268 30.0412 763.634 30.0412C764.015 30.0412 764.333 29.9403 764.589 29.7386C764.844 29.5341 765.038 29.2571 765.168 28.9077C765.302 28.5582 765.369 28.1648 765.369 27.7273C765.369 27.2955 765.303 26.9077 765.173 26.5639C765.045 26.2202 764.852 25.9489 764.593 25.75C764.337 25.5511 764.018 25.4517 763.634 25.4517C763.265 25.4517 762.952 25.5469 762.697 25.7372C762.444 25.9276 762.252 26.1932 762.121 26.5341C761.991 26.875 761.925 27.2727 761.925 27.7273ZM768.083 31V24.4545H769.357V31H768.083ZM768.727 23.4446C768.505 23.4446 768.315 23.3707 768.156 23.223C767.999 23.0724 767.921 22.8935 767.921 22.6861C767.921 22.4759 767.999 22.2969 768.156 22.1491C768.315 21.9986 768.505 21.9233 768.727 21.9233C768.948 21.9233 769.137 21.9986 769.293 22.1491C769.452 22.2969 769.532 22.4759 769.532 22.6861C769.532 22.8935 769.452 23.0724 769.293 23.223C769.137 23.3707 768.948 23.4446 768.727 23.4446ZM774.127 24.4545V25.4773H770.551V24.4545H774.127ZM771.51 22.8864H772.784V29.0781C772.784 29.3253 772.821 29.5114 772.895 29.6364C772.969 29.7585 773.064 29.8423 773.181 29.8878C773.3 29.9304 773.429 29.9517 773.569 29.9517C773.671 29.9517 773.76 29.9446 773.837 29.9304C773.914 29.9162 773.973 29.9048 774.016 29.8963L774.246 30.9489C774.172 30.9773 774.067 31.0057 773.931 31.0341C773.794 31.0653 773.624 31.0824 773.419 31.0852C773.084 31.0909 772.772 31.0312 772.482 30.9062C772.192 30.7812 771.958 30.5881 771.779 30.3267C771.6 30.0653 771.51 29.7372 771.51 29.3423V22.8864ZM777.441 31.1449C777.026 31.1449 776.651 31.0682 776.316 30.9148C775.981 30.7585 775.715 30.5327 775.519 30.2372C775.326 29.9418 775.229 29.5795 775.229 29.1506C775.229 28.7812 775.3 28.4773 775.442 28.2386C775.585 28 775.776 27.8111 776.018 27.6719C776.259 27.5327 776.529 27.4276 776.827 27.3565C777.126 27.2855 777.43 27.2315 777.739 27.1946C778.131 27.1491 778.45 27.1122 778.694 27.0838C778.938 27.0526 779.116 27.0028 779.227 26.9347C779.337 26.8665 779.393 26.7557 779.393 26.6023V26.5724C779.393 26.2003 779.288 25.9119 779.077 25.7074C778.87 25.5028 778.56 25.4006 778.148 25.4006C777.719 25.4006 777.381 25.4957 777.134 25.6861C776.89 25.8736 776.721 26.0824 776.627 26.3125L775.43 26.0398C775.572 25.642 775.779 25.321 776.052 25.0767C776.327 24.8295 776.644 24.6506 777.002 24.5398C777.36 24.4261 777.737 24.3693 778.131 24.3693C778.393 24.3693 778.67 24.4006 778.962 24.4631C779.258 24.5227 779.533 24.6335 779.789 24.7955C780.048 24.9574 780.259 25.1889 780.424 25.4901C780.589 25.7884 780.671 26.1761 780.671 26.6534V31H779.427V30.1051H779.376C779.293 30.2699 779.17 30.4318 779.005 30.5909C778.84 30.75 778.629 30.8821 778.37 30.9872C778.112 31.0923 777.802 31.1449 777.441 31.1449ZM777.718 30.1222C778.07 30.1222 778.371 30.0526 778.621 29.9134C778.874 29.7741 779.066 29.5923 779.197 29.3679C779.33 29.1406 779.397 28.8977 779.397 28.6392V27.7955C779.352 27.8409 779.263 27.8835 779.133 27.9233C779.005 27.9602 778.859 27.9929 778.694 28.0213C778.529 28.0469 778.369 28.071 778.212 28.0938C778.056 28.1136 777.925 28.1307 777.82 28.1449C777.573 28.1761 777.347 28.2287 777.143 28.3026C776.941 28.3764 776.779 28.483 776.657 28.6222C776.538 28.7585 776.478 28.9403 776.478 29.1676C776.478 29.483 776.594 29.7216 776.827 29.8835C777.06 30.0426 777.357 30.1222 777.718 30.1222ZM783.642 22.2727V31H782.368V22.2727H783.642ZM785.357 31V24.4545H786.631V31H785.357ZM786 23.4446C785.778 23.4446 785.588 23.3707 785.429 23.223C785.273 23.0724 785.195 22.8935 785.195 22.6861C785.195 22.4759 785.273 22.2969 785.429 22.1491C785.588 21.9986 785.778 21.9233 786 21.9233C786.222 21.9233 786.411 21.9986 786.567 22.1491C786.726 22.2969 786.805 22.4759 786.805 22.6861C786.805 22.8935 786.726 23.0724 786.567 23.223C786.411 23.3707 786.222 23.4446 786 23.4446ZM791.4 24.4545V25.4773H787.825V24.4545H791.4ZM788.784 22.8864H790.058V29.0781C790.058 29.3253 790.095 29.5114 790.169 29.6364C790.243 29.7585 790.338 29.8423 790.454 29.8878C790.574 29.9304 790.703 29.9517 790.842 29.9517C790.944 29.9517 791.034 29.9446 791.11 29.9304C791.187 29.9162 791.247 29.9048 791.289 29.8963L791.52 30.9489C791.446 30.9773 791.341 31.0057 791.204 31.0341C791.068 31.0653 790.897 31.0824 790.693 31.0852C790.358 31.0909 790.045 31.0312 789.755 30.9062C789.466 30.7812 789.231 30.5881 789.052 30.3267C788.873 30.0653 788.784 29.7372 788.784 29.3423V22.8864ZM793.615 33.4545C793.425 33.4545 793.251 33.4389 793.095 33.4077C792.939 33.3793 792.822 33.348 792.746 33.3139L793.053 32.2699C793.286 32.3324 793.493 32.3594 793.675 32.3509C793.857 32.3423 794.017 32.2741 794.156 32.1463C794.298 32.0185 794.423 31.8097 794.531 31.5199L794.689 31.0852L792.294 24.4545H793.658L795.315 29.5341H795.384L797.041 24.4545H798.409L795.712 31.8736C795.587 32.2145 795.428 32.5028 795.234 32.7386C795.041 32.9773 794.811 33.1563 794.544 33.2756C794.277 33.3949 793.967 33.4545 793.615 33.4545Z" fill="#633112"/>
<path d="M16 27C16 20.9249 20.9249 16 27 16H77C83.0751 16 88 20.9249 88 27C88 33.0751 83.0751 38 77 38H27C20.9249 38 16 33.0751 16 27Z" fill="#E1EFFE"/>
<path d="M27.2127 31V22.2727H30.4087C31.0281 22.2727 31.5408 22.375 31.9471 22.5795C32.3533 22.7812 32.6573 23.0554 32.859 23.402C33.0607 23.7457 33.1616 24.1335 33.1616 24.5653C33.1616 24.929 33.0948 25.2358 32.9613 25.4858C32.8278 25.733 32.6488 25.9318 32.4244 26.0824C32.2028 26.2301 31.9585 26.3381 31.6914 26.4062V26.4915C31.9812 26.5057 32.2638 26.5994 32.5394 26.7727C32.8178 26.9432 33.0479 27.1861 33.2298 27.5014C33.4116 27.8168 33.5025 28.2003 33.5025 28.652C33.5025 29.098 33.3974 29.4986 33.1871 29.8537C32.9798 30.206 32.6587 30.4858 32.2241 30.6932C31.7894 30.8977 31.234 31 30.5579 31H27.2127ZM28.5295 29.8707H30.43C31.0607 29.8707 31.5124 29.7486 31.7852 29.5043C32.0579 29.2599 32.1942 28.9545 32.1942 28.5881C32.1942 28.3125 32.1246 28.0597 31.9854 27.8295C31.8462 27.5994 31.6474 27.4162 31.3888 27.2798C31.1332 27.1435 30.8292 27.0753 30.4769 27.0753H28.5295V29.8707ZM28.5295 26.0483H30.2937C30.5891 26.0483 30.8548 25.9915 31.0906 25.8778C31.3292 25.7642 31.5181 25.6051 31.6573 25.4006C31.7994 25.1932 31.8704 24.9489 31.8704 24.6676C31.8704 24.3068 31.744 24.0043 31.4911 23.7599C31.2383 23.5156 30.8505 23.3935 30.3278 23.3935H28.5295V26.0483ZM39.1083 28.2855V24.4545H40.3867V31H39.1339V29.8665H39.0657C38.9151 30.2159 38.6737 30.5071 38.3413 30.7401C38.0117 30.9702 37.6012 31.0852 37.1097 31.0852C36.6893 31.0852 36.3171 30.9929 35.9933 30.8082C35.6722 30.6207 35.4194 30.3438 35.2347 29.9773C35.0529 29.6108 34.962 29.1577 34.962 28.6179V24.4545H36.2362V28.4645C36.2362 28.9105 36.3597 29.2656 36.6069 29.5298C36.854 29.794 37.1751 29.9261 37.57 29.9261C37.8086 29.9261 38.0458 29.8665 38.2816 29.7472C38.5202 29.6278 38.7177 29.4474 38.8739 29.206C39.033 28.9645 39.1112 28.6577 39.1083 28.2855ZM47.0036 26.0526L45.8487 26.2571C45.8004 26.1094 45.7237 25.9687 45.6186 25.8352C45.5163 25.7017 45.3771 25.5923 45.201 25.5071C45.0249 25.4219 44.8047 25.3793 44.5405 25.3793C44.1797 25.3793 43.8786 25.4602 43.6371 25.6222C43.3956 25.7812 43.2749 25.9872 43.2749 26.2401C43.2749 26.4588 43.3558 26.6349 43.5178 26.7685C43.6797 26.902 43.9411 27.0114 44.3018 27.0966L45.3416 27.3352C45.9439 27.4744 46.3928 27.6889 46.6882 27.9787C46.9837 28.2685 47.1314 28.6449 47.1314 29.108C47.1314 29.5 47.0178 29.8494 46.7905 30.1562C46.5661 30.4602 46.2521 30.6989 45.8487 30.8722C45.4482 31.0455 44.9837 31.1321 44.4553 31.1321C43.7223 31.1321 43.1243 30.9759 42.6612 30.6634C42.1982 30.348 41.9141 29.9006 41.8089 29.321L43.0405 29.1335C43.1172 29.4545 43.2749 29.6974 43.5135 29.8622C43.7521 30.0241 44.0632 30.1051 44.4467 30.1051C44.8643 30.1051 45.1982 30.0185 45.4482 29.8452C45.6982 29.669 45.8232 29.4545 45.8232 29.2017C45.8232 28.9972 45.7464 28.8253 45.593 28.6861C45.4425 28.5469 45.2109 28.4418 44.8984 28.3707L43.7905 28.1278C43.1797 27.9886 42.728 27.767 42.4354 27.4631C42.1456 27.1591 42.0007 26.7741 42.0007 26.3082C42.0007 25.9219 42.1087 25.5838 42.3246 25.294C42.5405 25.0043 42.8388 24.7784 43.2195 24.6165C43.6001 24.4517 44.0362 24.3693 44.5277 24.3693C45.2351 24.3693 45.7919 24.5227 46.1982 24.8295C46.6044 25.1335 46.8729 25.5412 47.0036 26.0526ZM48.5323 31V24.4545H49.8065V31H48.5323ZM49.1758 23.4446C48.9542 23.4446 48.7638 23.3707 48.6048 23.223C48.4485 23.0724 48.3704 22.8935 48.3704 22.6861C48.3704 22.4759 48.4485 22.2969 48.6048 22.1491C48.7638 21.9986 48.9542 21.9233 49.1758 21.9233C49.3974 21.9233 49.5863 21.9986 49.7425 22.1491C49.9016 22.2969 49.9812 22.4759 49.9812 22.6861C49.9812 22.8935 49.9016 23.0724 49.7425 23.223C49.5863 23.3707 49.3974 23.4446 49.1758 23.4446ZM52.7947 27.1136V31H51.5206V24.4545H52.7436V25.5199H52.8246C52.9751 25.1733 53.2109 24.8949 53.532 24.6847C53.8558 24.4744 54.2635 24.3693 54.755 24.3693C55.201 24.3693 55.5916 24.4631 55.9268 24.6506C56.2621 24.8352 56.522 25.1108 56.7067 25.4773C56.8913 25.8437 56.9837 26.2969 56.9837 26.8366V31H55.7095V26.9901C55.7095 26.5156 55.5859 26.1449 55.3388 25.8778C55.0916 25.608 54.7521 25.473 54.3203 25.473C54.0249 25.473 53.7621 25.5369 53.532 25.6648C53.3047 25.7926 53.1243 25.9801 52.9908 26.2273C52.8601 26.4716 52.7947 26.767 52.7947 27.1136ZM61.5135 31.1321C60.8686 31.1321 60.3132 30.9943 59.8473 30.7188C59.3842 30.4403 59.0263 30.0497 58.7734 29.5469C58.5234 29.0412 58.3984 28.4489 58.3984 27.7699C58.3984 27.0994 58.5234 26.5085 58.7734 25.9972C59.0263 25.4858 59.3786 25.0866 59.8303 24.7997C60.2848 24.5128 60.8161 24.3693 61.424 24.3693C61.7933 24.3693 62.1513 24.4304 62.4979 24.5526C62.8445 24.6747 63.1555 24.8665 63.4311 25.1278C63.7067 25.3892 63.924 25.7287 64.0831 26.1463C64.2422 26.5611 64.3217 27.0653 64.3217 27.6591V28.1108H59.1186V27.1562H63.0732C63.0732 26.821 63.005 26.5241 62.8686 26.2656C62.7322 26.0043 62.5405 25.7983 62.2933 25.6477C62.049 25.4972 61.7621 25.4219 61.4325 25.4219C61.0746 25.4219 60.7621 25.5099 60.495 25.6861C60.2308 25.8594 60.0263 26.0866 59.8814 26.3679C59.7393 26.6463 59.6683 26.9489 59.6683 27.2756V28.0213C59.6683 28.4588 59.745 28.831 59.8984 29.1378C60.0547 29.4446 60.272 29.679 60.5504 29.8409C60.8288 30 61.1541 30.0795 61.5263 30.0795C61.7678 30.0795 61.9879 30.0455 62.1868 29.9773C62.3857 29.9062 62.5575 29.8011 62.7024 29.6619C62.8473 29.5227 62.9581 29.3509 63.0348 29.1463L64.2408 29.3636C64.1442 29.7187 63.9709 30.0298 63.7209 30.2969C63.4737 30.5611 63.1626 30.767 62.7876 30.9148C62.4155 31.0597 61.9908 31.1321 61.5135 31.1321ZM70.6403 26.0526L69.4854 26.2571C69.4371 26.1094 69.3604 25.9687 69.2553 25.8352C69.1531 25.7017 69.0138 25.5923 68.8377 25.5071C68.6616 25.4219 68.4414 25.3793 68.1772 25.3793C67.8164 25.3793 67.5153 25.4602 67.2738 25.6222C67.0323 25.7812 66.9116 25.9872 66.9116 26.2401C66.9116 26.4588 66.9925 26.6349 67.1545 26.7685C67.3164 26.902 67.5778 27.0114 67.9386 27.0966L68.9783 27.3352C69.5806 27.4744 70.0295 27.6889 70.3249 27.9787C70.6204 28.2685 70.7681 28.6449 70.7681 29.108C70.7681 29.5 70.6545 29.8494 70.4272 30.1562C70.2028 30.4602 69.8888 30.6989 69.4854 30.8722C69.0849 31.0455 68.6204 31.1321 68.092 31.1321C67.359 31.1321 66.761 30.9759 66.2979 30.6634C65.8349 30.348 65.5508 29.9006 65.4457 29.321L66.6772 29.1335C66.7539 29.4545 66.9116 29.6974 67.1502 29.8622C67.3888 30.0241 67.6999 30.1051 68.0835 30.1051C68.5011 30.1051 68.8349 30.0185 69.0849 29.8452C69.3349 29.669 69.4599 29.4545 69.4599 29.2017C69.4599 28.9972 69.3832 28.8253 69.2298 28.6861C69.0792 28.5469 68.8477 28.4418 68.5352 28.3707L67.4272 28.1278C66.8164 27.9886 66.3647 27.767 66.0721 27.4631C65.7823 27.1591 65.6374 26.7741 65.6374 26.3082C65.6374 25.9219 65.7454 25.5838 65.9613 25.294C66.1772 25.0043 66.4755 24.7784 66.8562 24.6165C67.2369 24.4517 67.6729 24.3693 68.1644 24.3693C68.8718 24.3693 69.4286 24.5227 69.8349 24.8295C70.2411 25.1335 70.5096 25.5412 70.6403 26.0526ZM77.0739 26.0526L75.919 26.2571C75.8707 26.1094 75.794 25.9687 75.6889 25.8352C75.5866 25.7017 75.4474 25.5923 75.2713 25.5071C75.0952 25.4219 74.875 25.3793 74.6108 25.3793C74.25 25.3793 73.9489 25.4602 73.7074 25.6222C73.4659 25.7812 73.3452 25.9872 73.3452 26.2401C73.3452 26.4588 73.4261 26.6349 73.5881 26.7685C73.75 26.902 74.0114 27.0114 74.3722 27.0966L75.4119 27.3352C76.0142 27.4744 76.4631 27.6889 76.7585 27.9787C77.054 28.2685 77.2017 28.6449 77.2017 29.108C77.2017 29.5 77.0881 29.8494 76.8608 30.1562C76.6364 30.4602 76.3224 30.6989 75.919 30.8722C75.5185 31.0455 75.054 31.1321 74.5256 31.1321C73.7926 31.1321 73.1946 30.9759 72.7315 30.6634C72.2685 30.348 71.9844 29.9006 71.8793 29.321L73.1108 29.1335C73.1875 29.4545 73.3452 29.6974 73.5838 29.8622C73.8224 30.0241 74.1335 30.1051 74.517 30.1051C74.9347 30.1051 75.2685 30.0185 75.5185 29.8452C75.7685 29.669 75.8935 29.4545 75.8935 29.2017C75.8935 28.9972 75.8168 28.8253 75.6634 28.6861C75.5128 28.5469 75.2812 28.4418 74.9688 28.3707L73.8608 28.1278C73.25 27.9886 72.7983 27.767 72.5057 27.4631C72.2159 27.1591 72.071 26.7741 72.071 26.3082C72.071 25.9219 72.179 25.5838 72.3949 25.294C72.6108 25.0043 72.9091 24.7784 73.2898 24.6165C73.6705 24.4517 74.1065 24.3693 74.598 24.3693C75.3054 24.3693 75.8622 24.5227 76.2685 24.8295C76.6747 25.1335 76.9432 25.5412 77.0739 26.0526Z" fill="#1E429F"/>
</svg>
