<?xml version="1.0" encoding="UTF-8"?>
<svg id="Layer_2" data-name="Layer 2" xmlns="http://www.w3.org/2000/svg" viewBox="0 0 546.97 182.37">
  <defs>
    <style>
      .cls-1 {
        fill: #c10230;
      }

      .cls-2, .cls-3 {
        fill: #231f20;
      }

      .cls-4 {
        fill: #c12033;
      }

      .cls-5 {
        fill: #fff;
      }

      .cls-6 {
        fill: #a2a9ad;
      }

      .cls-3 {
        stroke: #c10230;
        stroke-width: 2.02px;
      }
    </style>
  </defs>
  <g id="Layer_1-2" data-name="Layer 1">
    <g>
      <g>
        <path class="cls-2" d="M170.97,117.15c-5.72,0-10.11-1.89-14.4-5.72l1.74-1.99c3.93,3.63,7.56,5.31,12.82,5.31s9.04-3.01,9.04-7.1v-.1c0-3.78-1.99-5.98-10.11-7.61-8.58-1.74-12.05-4.65-12.05-10.06v-.1c0-5.31,4.85-9.4,11.49-9.4,5.21,0,8.63,1.43,12.26,4.34l-1.69,2.09c-3.37-2.91-6.74-4.04-10.67-4.04-5.26,0-8.74,3.01-8.74,6.74v.1c0,3.78,1.94,6.08,10.42,7.82,8.27,1.69,11.75,4.65,11.75,9.86v.1c0,5.77-4.95,9.76-11.85,9.76Z"/>
        <path class="cls-2" d="M170.97,117.71c-5.68,0-10.23-1.81-14.78-5.86l-.41-.37,2.48-2.84.42.39c4.03,3.72,7.52,5.16,12.44,5.16s8.48-2.69,8.48-6.54c0-3.42-1.54-5.53-9.67-7.16-8.88-1.8-12.5-4.87-12.5-10.61s5.18-10.06,12.05-10.06c5.01,0,8.66,1.29,12.61,4.47l.44.35-2.4,2.98-.44-.38c-3.12-2.7-6.3-3.9-10.31-3.9-4.74,0-8.18,2.6-8.18,6.18s1.59,5.65,9.97,7.37c8.55,1.74,12.19,4.85,12.19,10.41,0,6.18-5.1,10.42-12.41,10.42ZM157.35,111.38c4.18,3.6,8.41,5.21,13.62,5.21,6.65,0,11.29-3.78,11.29-9.2,0-5.01-3.38-7.8-11.3-9.41-8.02-1.64-10.87-3.83-10.87-8.36s3.91-7.4,9.29-7.4c4.11,0,7.4,1.18,10.6,3.8l.97-1.21c-3.6-2.78-6.87-3.87-11.47-3.87-6.23,0-10.93,3.8-10.93,8.84s3.25,7.93,11.61,9.62c7.8,1.57,10.56,3.71,10.56,8.16s-4.04,7.76-9.6,7.76c-4.99,0-8.73-1.48-12.77-5.07l-1,1.14Z"/>
      </g>
      <g>
        <path class="cls-2" d="M198.91,117.1c-4.04,0-7.3-2.2-7.3-7.15v-17.06h-3.78v-2.3h3.78v-8.33h2.5v8.33h9.14v2.3h-9.14v16.8c0,3.73,2.2,5.06,5.21,5.06,1.28,0,2.35-.26,3.83-.92v2.35c-1.33.61-2.6.92-4.24.92Z"/>
        <path class="cls-2" d="M198.91,117.66c-4.85,0-7.86-2.95-7.86-7.71v-16.5h-3.78v-3.42h3.78v-8.33h3.62v8.33h9.14v3.42h-9.14v16.25c0,3.03,1.52,4.5,4.65,4.5,1.19,0,2.2-.24,3.6-.87l.79-.35v3.57l-.32.15c-1.45.67-2.84.97-4.47.97ZM188.39,92.33h3.78v17.62c0,4.13,2.52,6.59,6.75,6.59,1.37,0,2.49-.22,3.68-.72v-1.15c-1.18.45-2.15.64-3.27.64-3.77,0-5.77-1.94-5.77-5.62v-17.36h9.14v-1.18h-9.14v-8.33h-1.39v8.33h-3.78v1.18Z"/>
      </g>
      <g>
        <path class="cls-2" d="M228.02,116.64v-4.34c-1.79,2.5-5.01,4.95-9.96,4.95s-10.06-2.76-10.06-8.17v-.1c0-5.41,4.65-8.48,11.39-8.48,3.63,0,6.13.46,8.63,1.12v-1.12c0-5.26-3.22-7.97-8.58-7.97-3.17,0-5.77.87-8.17,2.09l-.92-2.2c2.86-1.33,5.67-2.25,9.25-2.25,6.69,0,10.88,3.47,10.88,10.22v16.24h-2.45ZM228.07,103.92c-2.2-.56-5.11-1.17-8.84-1.17-5.52,0-8.58,2.45-8.58,6.08v.1c0,3.78,3.57,5.98,7.56,5.98,5.31,0,9.86-3.27,9.86-8.02v-2.96Z"/>
        <path class="cls-2" d="M218.06,117.81c-5.28,0-10.62-3-10.62-8.73s4.58-9.14,11.95-9.14c3.52,0,5.99.44,8.07.96v-.4c0-4.78-2.85-7.41-8.02-7.41-2.69,0-5.2.65-7.92,2.03l-.54.27-1.36-3.25.49-.23c2.45-1.14,5.49-2.3,9.48-2.3,7.27,0,11.44,3.93,11.44,10.78v16.8h-3.57v-3.33c-1.71,1.83-4.69,3.95-9.4,3.95ZM219.39,101.06c-6.68,0-10.83,3.03-10.83,7.92s4.78,7.72,9.5,7.72c5.34,0,8.25-2.96,9.5-4.72l1.01-1.42v5.53h1.34v-15.68c0-6.23-3.67-9.66-10.32-9.66-3.51,0-6.18.92-8.52,1.97l.48,1.15c2.68-1.29,5.2-1.89,7.89-1.89,5.81,0,9.14,3.11,9.14,8.53v1.85l-.7-.19c-2.16-.57-4.69-1.1-8.49-1.1ZM218.21,115.46c-4.03,0-8.12-2.25-8.12-6.54s3.5-6.74,9.14-6.74c3.82,0,6.8.64,8.98,1.19l.42.11v3.4c0,4.89-4.48,8.58-10.42,8.58ZM219.24,103.31c-5.02,0-8.02,2.06-8.02,5.52,0,3.66,3.52,5.52,7,5.52,5.3,0,9.3-3.21,9.3-7.46v-2.53c-2.07-.51-4.82-1.05-8.28-1.05Z"/>
      </g>
      <g>
        <path class="cls-2" d="M247.38,117.1c-4.04,0-7.3-2.2-7.3-7.15v-17.06h-3.78v-2.3h3.78v-8.33h2.5v8.33h9.14v2.3h-9.14v16.8c0,3.73,2.2,5.06,5.21,5.06,1.28,0,2.35-.26,3.83-.92v2.35c-1.33.61-2.6.92-4.24.92Z"/>
        <path class="cls-2" d="M247.38,117.66c-4.85,0-7.86-2.95-7.86-7.71v-16.5h-3.78v-3.42h3.78v-8.33h3.62v8.33h9.14v3.42h-9.14v16.25c0,3.03,1.52,4.5,4.65,4.5,1.19,0,2.2-.24,3.6-.87l.79-.35v3.57l-.32.15c-1.45.67-2.84.97-4.47.97ZM236.86,92.33h3.78v17.62c0,4.13,2.52,6.59,6.75,6.59,1.37,0,2.49-.22,3.68-.72v-1.15c-1.18.45-2.15.64-3.27.64-3.77,0-5.77-1.94-5.77-5.62v-17.36h9.14v-1.18h-9.14v-8.33h-1.39v8.33h-3.78v1.18Z"/>
      </g>
      <g>
        <path class="cls-2" d="M268.95,114.9c4.04,0,6.79-1.79,8.94-4.09l1.74,1.53c-2.66,2.86-5.77,4.9-10.78,4.9-6.84,0-12.77-5.47-12.77-13.59v-.1c0-7.56,5.31-13.59,12.36-13.59s11.95,5.93,11.95,13.64v.1c0,.36,0,.51-.05.92h-21.61c.46,6.49,5.11,10.27,10.22,10.27ZM277.68,102.39c-.36-5.26-3.37-10.11-9.35-10.11-5.16,0-9.14,4.34-9.6,10.11h18.95Z"/>
        <path class="cls-2" d="M268.84,117.81c-7.6,0-13.33-6.08-13.33-14.15s5.67-14.25,12.92-14.25,12.51,5.84,12.51,14.2c0,.49,0,.65-.05,1.09l-.06.49h-21.48c.63,5.42,4.51,9.15,9.6,9.15,3.33,0,6.04-1.24,8.53-3.91l.37-.4,2.57,2.27-.39.42c-2.2,2.37-5.46,5.08-11.19,5.08ZM268.43,90.54c-6.62,0-11.8,5.72-11.8,13.03s5.25,13.13,12.21,13.13c4.01,0,7.02-1.29,9.97-4.31l-.9-.79c-2.61,2.64-5.48,3.87-8.97,3.87-5.89,0-10.33-4.44-10.77-10.79l-.04-.6h21.69c0-.11,0-.22,0-.36,0-7.8-4.69-13.18-11.39-13.18ZM278.28,102.95h-20.15l.05-.6c.49-6.16,4.76-10.63,10.16-10.63,6.78,0,9.57,5.73,9.91,10.63l.04.6ZM259.35,101.83h17.72c-.48-4.28-3-8.99-8.74-8.99-4.62,0-8.32,3.75-8.98,8.99Z"/>
      </g>
      <g>
        <path class="cls-2" d="M317.22,117.2c-8.58,0-14.66-5.41-14.66-15.43v-20.89h2.66v20.64c0,8.43,4.55,13.28,12.11,13.28s11.9-4.39,11.9-13.02v-20.89h2.66v20.58c0,10.27-5.98,15.73-14.66,15.73Z"/>
        <path class="cls-2" d="M317.22,117.76c-9.39,0-15.22-6.13-15.22-15.98v-21.45h3.77v21.19c0,8.08,4.21,12.72,11.55,12.72s11.34-4.43,11.34-12.47v-21.45h3.77v21.14c0,10.05-5.83,16.29-15.22,16.29ZM303.12,81.45v20.33c0,9.17,5.4,14.87,14.1,14.87s14.1-5.67,14.1-15.17v-20.03h-1.54v20.33c0,8.63-4.54,13.58-12.46,13.58s-12.67-5.17-12.67-13.84v-20.08h-1.54Z"/>
      </g>
      <g>
        <path class="cls-2" d="M360.11,116.64v-15.48c0-5.36-3.01-8.89-8.27-8.89s-9.04,3.88-9.04,9.3v15.07h-2.5v-26.05h2.5v4.85c1.74-3.06,4.65-5.47,9.4-5.47,6.59,0,10.42,4.5,10.42,10.73v15.94h-2.5Z"/>
        <path class="cls-2" d="M363.18,117.2h-3.62v-16.04c0-5.21-2.89-8.33-7.72-8.33s-8.48,3.67-8.48,8.74v15.63h-3.62v-27.17h3.62v3.56c2.13-2.74,5.16-4.18,8.84-4.18,6.67,0,10.98,4.43,10.98,11.29v16.5ZM360.67,116.08h1.39v-15.38c0-6.18-3.87-10.17-9.86-10.17-3.96,0-6.96,1.74-8.91,5.18l-1.05,1.85v-6.41h-1.39v24.93h1.39v-14.51c0-5.62,4.13-9.86,9.6-9.86s8.83,3.62,8.83,9.45v14.92Z"/>
      </g>
      <g>
        <path class="cls-2" d="M371.14,83.8v-3.42h3.12v3.42h-3.12ZM371.45,116.64v-26.05h2.5v26.05h-2.5Z"/>
        <path class="cls-2" d="M374.51,117.2h-3.62v-27.17h3.62v27.17ZM372.01,116.08h1.39v-24.93h-1.39v24.93ZM374.82,84.36h-4.23v-4.54h4.23v4.54ZM371.7,83.24h2v-2.3h-2v2.3Z"/>
      </g>
      <g>
        <path class="cls-2" d="M394.49,116.85h-2.15l-11.7-26.25h2.91l9.86,23.24,9.96-23.24h2.81l-11.7,26.25Z"/>
        <path class="cls-2" d="M394.85,117.4h-2.87l-.15-.33-12.05-27.04h4.14l9.49,22.37,9.59-22.37h4.04l-12.19,27.37ZM392.7,116.29h1.42l11.2-25.14h-1.58l-10.33,24.11-10.23-24.11h-1.68l11.2,25.14Z"/>
      </g>
      <g>
        <path class="cls-2" d="M422.07,114.9c4.04,0,6.79-1.79,8.94-4.09l1.74,1.53c-2.66,2.86-5.77,4.9-10.78,4.9-6.84,0-12.77-5.47-12.77-13.59v-.1c0-7.56,5.31-13.59,12.36-13.59s11.95,5.93,11.95,13.64v.1c0,.36,0,.51-.05.92h-21.61c.46,6.49,5.11,10.27,10.22,10.27ZM430.8,102.39c-.36-5.26-3.37-10.11-9.35-10.11-5.16,0-9.14,4.34-9.6,10.11h18.95Z"/>
        <path class="cls-2" d="M421.96,117.81c-7.6,0-13.33-6.08-13.33-14.15s5.67-14.25,12.92-14.25,12.51,5.84,12.51,14.2c0,.49,0,.65-.05,1.09l-.06.49h-21.48c.63,5.42,4.51,9.15,9.6,9.15,3.33,0,6.04-1.24,8.53-3.91l.37-.4,2.57,2.27-.39.42c-2.2,2.37-5.46,5.08-11.19,5.08ZM421.55,90.54c-6.62,0-11.8,5.72-11.8,13.03s5.25,13.13,12.21,13.13c4.01,0,7.02-1.29,9.97-4.31l-.9-.79c-2.61,2.64-5.48,3.87-8.97,3.87-5.89,0-10.33-4.44-10.77-10.79l-.04-.6h21.69c0-.11,0-.22,0-.36,0-7.8-4.69-13.18-11.39-13.18ZM431.4,102.95h-20.15l.05-.6c.49-6.16,4.76-10.63,10.16-10.63,6.78,0,9.57,5.73,9.91,10.63l.04.6ZM412.47,101.83h17.72c-.48-4.28-3-8.99-8.74-8.99-4.62,0-8.32,3.75-8.98,8.99Z"/>
      </g>
      <g>
        <path class="cls-2" d="M454.09,92.94c-6.03,0-11.29,4.55-11.29,13.03v10.68h-2.5v-26.05h2.5v7.41c2.04-4.65,6.39-8.02,11.54-7.82v2.76h-.25Z"/>
        <path class="cls-2" d="M443.36,117.2h-3.62v-27.17h3.62v5.73c2.51-3.95,6.63-6.3,11.01-6.14l.54.02v3.85h-.81c-5.34,0-10.73,3.85-10.73,12.47v11.23ZM440.86,116.08h1.39v-10.12c0-9.17,5.92-13.43,11.54-13.58v-1.65c-4.41.06-8.47,2.95-10.47,7.49l-1.07,2.44v-9.51h-1.39v24.93Z"/>
      </g>
      <g>
        <path class="cls-2" d="M468.41,117.15c-3.78,0-7.92-1.53-10.67-3.78l1.48-1.99c2.86,2.2,6.03,3.42,9.35,3.42,3.52,0,6.28-1.94,6.28-4.95v-.1c0-3.06-3.27-4.19-6.9-5.21-4.24-1.23-8.94-2.5-8.94-7.15v-.1c0-4.19,3.52-7.2,8.58-7.2,3.12,0,6.64,1.12,9.25,2.86l-1.33,2.09c-2.4-1.58-5.26-2.61-8.02-2.61-3.57,0-5.92,1.94-5.92,4.55v.1c0,2.91,3.52,3.98,7.25,5.06,4.19,1.17,8.58,2.71,8.58,7.3v.1c0,4.65-3.99,7.61-8.99,7.61Z"/>
        <path class="cls-2" d="M468.42,117.71c-3.79,0-8.12-1.53-11.03-3.91l-.42-.34,2.14-2.88.45.35c2.86,2.19,5.89,3.31,9.01,3.31,3.37,0,5.72-1.81,5.72-4.39,0-2.73-2.94-3.77-6.49-4.77l-.22-.06c-4.28-1.24-9.13-2.64-9.13-7.63,0-4.6,3.84-7.86,9.14-7.86,3.16,0,6.82,1.13,9.56,2.95l.45.3-1.93,3.04-.47-.31c-2.46-1.62-5.2-2.51-7.71-2.51-3.16,0-5.37,1.64-5.37,3.99,0,2.47,2.84,3.47,6.85,4.62,4.55,1.27,8.99,2.93,8.99,7.84s-4.02,8.27-9.55,8.27ZM458.52,113.27c2.71,2.03,6.53,3.33,9.9,3.33,4.97,0,8.43-2.9,8.43-7.05s-3.87-5.66-8.17-6.87c-3.59-1.03-7.66-2.2-7.66-5.6,0-3.11,2.67-5.21,6.48-5.21,2.57,0,5.33.85,7.85,2.39l.73-1.15c-2.5-1.53-5.7-2.47-8.47-2.47-4.72,0-8.02,2.73-8.02,6.64,0,4.25,4.23,5.47,8.32,6.65l.22.06c3.08.87,7.3,2.06,7.3,5.75,0,3.3-2.88,5.62-6.84,5.62-3.21,0-6.31-1.08-9.23-3.2l-.82,1.1Z"/>
      </g>
      <g>
        <path class="cls-2" d="M484.57,83.8v-3.42h3.12v3.42h-3.12ZM484.87,116.64v-26.05h2.5v26.05h-2.5Z"/>
        <path class="cls-2" d="M487.93,117.2h-3.62v-27.17h3.62v27.17ZM485.43,116.08h1.39v-24.93h-1.39v24.93ZM488.24,84.36h-4.23v-4.54h4.23v4.54ZM485.13,83.24h2v-2.3h-2v2.3Z"/>
      </g>
      <g>
        <path class="cls-2" d="M505.98,117.1c-4.04,0-7.3-2.2-7.3-7.15v-17.06h-3.78v-2.3h3.78v-8.33h2.5v8.33h9.14v2.3h-9.14v16.8c0,3.73,2.2,5.06,5.21,5.06,1.28,0,2.35-.26,3.83-.92v2.35c-1.33.61-2.6.92-4.24.92Z"/>
        <path class="cls-2" d="M505.98,117.66c-4.85,0-7.86-2.95-7.86-7.71v-16.5h-3.78v-3.42h3.78v-8.33h3.62v8.33h9.14v3.42h-9.14v16.25c0,3.03,1.52,4.5,4.65,4.5,1.19,0,2.2-.24,3.6-.87l.79-.35v3.57l-.32.15c-1.45.67-2.84.97-4.47.97ZM495.46,92.33h3.78v17.62c0,4.13,2.52,6.59,6.75,6.59,1.37,0,2.49-.22,3.68-.72v-1.15c-1.18.45-2.15.64-3.27.64-3.77,0-5.77-1.94-5.77-5.62v-17.36h9.14v-1.18h-9.14v-8.33h-1.39v8.33h-3.78v1.18Z"/>
      </g>
      <g>
        <path class="cls-2" d="M528.38,117.56c-2.3,5.47-4.96,7.41-8.68,7.41-1.99,0-3.42-.36-5.16-1.12l.87-2.2c1.38.66,2.5.97,4.44.97,2.71,0,4.5-1.58,6.44-6.13l-12.51-25.9h2.91l10.83,23.29,9.4-23.29h2.76l-11.29,26.97Z"/>
        <path class="cls-2" d="M519.69,125.53c-1.96,0-3.47-.33-5.38-1.17l-.49-.22,1.29-3.26.54.26c1.23.59,2.27.92,4.2.92,2.1,0,3.81-.94,5.82-5.56l-12.79-26.47h4.16l10.43,22.45,9.06-22.45h3.98l-11.61,27.75c-2.28,5.43-5.03,7.75-9.2,7.75ZM515.26,123.54c1.54.63,2.79.87,4.44.87,3.69,0,6.06-2.05,8.17-7.06l10.96-26.19h-1.54l-9.74,24.14-11.22-24.14h-1.66l12.24,25.32-.1.23c-1.99,4.65-3.94,6.47-6.95,6.47-1.85,0-2.99-.28-4.14-.78l-.45,1.14Z"/>
      </g>
      <path class="cls-6" d="M10.77,172.02c-5.67,0-9.88-4.42-9.88-10.01v-.06c0-5.53,4.13-10.06,10.05-10.06,3.63,0,5.81,1.22,7.6,3l-2.7,3.14c-1.49-1.36-3-2.2-4.93-2.2-3.25,0-5.59,2.72-5.59,6.06v.06c0,3.34,2.28,6.12,5.59,6.12,2.2,0,3.55-.89,5.06-2.28l2.7,2.75c-1.98,2.14-4.18,3.47-7.9,3.47Z"/>
      <path class="cls-6" d="M28.09,171.69v-19.46h4.24v15.56h9.61v3.89h-13.85Z"/>
      <path class="cls-6" d="M64.8,171.69l-1.76-4.36h-8.15l-1.76,4.36h-4.32l8.26-19.6h3.91l8.26,19.6h-4.43ZM58.97,157.24l-2.56,6.31h5.12l-2.56-6.31Z"/>
      <path class="cls-6" d="M89.81,171.69l-4.13-6.23h-3.33v6.23h-4.24v-19.46h8.81c4.54,0,7.27,2.42,7.27,6.42v.06c0,3.14-1.68,5.11-4.13,6.03l4.71,6.95h-4.95ZM89.9,158.88c0-1.83-1.27-2.78-3.33-2.78h-4.21v5.59h4.29c2.06,0,3.25-1.11,3.25-2.75v-.06Z"/>
      <path class="cls-6" d="M118.21,171.69l-5.97-8.28-2.23,2.34v5.95h-4.24v-19.46h4.24v8.5l7.82-8.5h5.12l-7.85,8.25,8.2,11.2h-5.09Z"/>
      <path class="cls-6" d="M138.81,171.97c-2.92,0-5.86-1.03-8.17-3.11l2.5-3.03c1.74,1.45,3.55,2.36,5.75,2.36,1.74,0,2.78-.69,2.78-1.83v-.06c0-1.08-.66-1.64-3.88-2.47-3.88-1-6.39-2.08-6.39-5.95v-.06c0-3.53,2.81-5.86,6.74-5.86,2.81,0,5.2.89,7.16,2.47l-2.2,3.22c-1.71-1.2-3.39-1.92-5.01-1.92s-2.48.75-2.48,1.7v.06c0,1.28.83,1.7,4.16,2.56,3.91,1.03,6.11,2.45,6.11,5.84v.06c0,3.86-2.92,6.03-7.07,6.03Z"/>
      <path class="cls-6" d="M164.31,171.83h-3.74l-7.79-19.6h4.68l5.04,13.7,5.04-13.7h4.57l-7.79,19.6Z"/>
      <path class="cls-6" d="M181.41,171.69v-19.46h4.24v19.46h-4.24Z"/>
      <path class="cls-6" d="M197.53,171.69v-19.46h4.24v15.56h9.61v3.89h-13.85Z"/>
      <path class="cls-6" d="M219.1,171.69v-19.46h4.24v15.56h9.61v3.89h-13.85Z"/>
      <path class="cls-6" d="M241.59,171.69v-19.46h14.53v3.81h-10.32v3.95h9.08v3.81h-9.08v4.09h10.46v3.81h-14.67Z"/>
      <path class="cls-6" d="M331.92,156.18v15.51h-4.24v-15.51h-5.86v-3.95h15.96v3.95h-5.86Z"/>
      <path class="cls-6" d="M347.4,171.69v-19.46h14.53v3.81h-10.32v3.95h9.08v3.81h-9.08v4.09h10.46v3.81h-14.67Z"/>
      <path class="cls-6" d="M386.08,171.69l-9.33-12.37v12.37h-4.18v-19.46h3.91l9.03,11.98v-11.98h4.18v19.46h-3.61Z"/>
      <path class="cls-6" d="M413.39,171.69l-9.33-12.37v12.37h-4.18v-19.46h3.91l9.03,11.98v-11.98h4.18v19.46h-3.61Z"/>
      <path class="cls-6" d="M427.65,171.69v-19.46h14.53v3.81h-10.32v3.95h9.08v3.81h-9.08v4.09h10.46v3.81h-14.67Z"/>
      <path class="cls-6" d="M458.39,171.97c-2.92,0-5.86-1.03-8.17-3.11l2.5-3.03c1.74,1.45,3.55,2.36,5.75,2.36,1.74,0,2.78-.69,2.78-1.83v-.06c0-1.08-.66-1.64-3.88-2.47-3.88-1-6.39-2.08-6.39-5.95v-.06c0-3.53,2.81-5.86,6.74-5.86,2.81,0,5.2.89,7.16,2.47l-2.2,3.22c-1.71-1.2-3.39-1.92-5.01-1.92s-2.48.75-2.48,1.7v.06c0,1.28.83,1.7,4.16,2.56,3.91,1.03,6.11,2.45,6.11,5.84v.06c0,3.86-2.92,6.03-7.07,6.03Z"/>
      <path class="cls-6" d="M481.76,171.97c-2.92,0-5.86-1.03-8.17-3.11l2.5-3.03c1.74,1.45,3.55,2.36,5.75,2.36,1.74,0,2.78-.69,2.78-1.83v-.06c0-1.08-.66-1.64-3.88-2.47-3.88-1-6.39-2.08-6.39-5.95v-.06c0-3.53,2.81-5.86,6.74-5.86,2.81,0,5.2.89,7.16,2.47l-2.2,3.22c-1.71-1.2-3.39-1.92-5.01-1.92s-2.48.75-2.48,1.7v.06c0,1.28.83,1.7,4.16,2.56,3.91,1.03,6.11,2.45,6.11,5.84v.06c0,3.86-2.92,6.03-7.07,6.03Z"/>
      <path class="cls-6" d="M498.55,171.69v-19.46h14.53v3.81h-10.32v3.95h9.08v3.81h-9.08v4.09h10.46v3.81h-14.67Z"/>
      <path class="cls-6" d="M523.02,171.69v-19.46h14.53v3.81h-10.32v3.95h9.08v3.81h-9.08v4.09h10.46v3.81h-14.67Z"/>
      <path class="cls-1" d="M191.71,4.88l8.86,60.14h-15.9l-1.83-16.86h-8.67l-2.6,16.86h-13.49l11.66-60.14h21.96ZM181.7,37.76l-2.79-22.09h-.19l-2.79,22.09h5.78Z"/>
      <path class="cls-1" d="M223.97,58.19h-.19c-1.45,4.82-5.11,7.51-11.08,7.51-6.84,0-10.31-4.72-10.31-12.62V9.92h15.22v38.25c0,2.41.19,5.01,3.08,5.01s3.28-2.6,3.28-5.01V9.92h15.22v55.11h-15.22v-6.84Z"/>
      <path class="cls-1" d="M263.65,29.38v-5.97c0-2.31-.77-4.14-3.18-4.14s-3.18,1.83-3.18,4.14c0,9.44,21.29,7.71,21.29,25.63,0,10.88-6.55,16.66-19.27,16.66-9.73,0-17.24-3.76-17.24-13.68v-8.77h15.22v8.29c0,2.31.77,4.14,3.18,4.14s3.18-1.83,3.18-4.14c0-13.1-21.58-9.06-21.58-26.98,0-10.98,7.8-15.32,17.82-15.32,11.56,0,18.98,4.53,18.98,13.78v6.36h-15.22Z"/>
      <path class="cls-1" d="M280.47,19.94v-10.02h5.11V0h15.22v9.92h6.65v10.02h-6.65v30.06c0,3.28.1,5.01,3.66,5.01h2.99v10.02h-12.43c-7.61,0-9.44-4.24-9.44-11.46V19.94h-5.11Z"/>
      <path class="cls-1" d="M311.43,65.03V9.92h15.22v55.11h-15.22Z"/>
      <path class="cls-1" d="M346.4,16.76h.19c1.45-4.82,5.11-7.51,11.08-7.51,6.84,0,10.31,4.72,10.31,12.62v43.16h-15.22V26.78c0-2.41-.19-5.01-3.08-5.01s-3.28,2.6-3.28,5.01v38.25h-15.22V9.92h15.22v6.84Z"/>
      <path class="cls-1" d="M387.41,64.9V5.01h19.56c12.72,0,20.91,2.89,20.91,14.74v9.62c0,10.31-9.15,14.84-18.59,14.84h-5.88v20.69h-15.99ZM403.4,34.38h2.5c5.59,0,5.97-3.08,5.97-11.17s-.39-8.37-5.97-8.37h-2.5v19.54Z"/>
      <path class="cls-1" d="M446.15,39.21v11.18c0,3.28,1.16,5.3,3.18,5.3,2.41,0,3.18-2.02,3.18-5.3v-7.13h15.22v8.09c0,10.4-7.71,14.35-18.4,14.35-9.73,0-18.4-4.43-18.4-14.64v-26.3c0-9.92,6.55-15.51,18.4-15.51,9.73,0,18.4,3.66,18.4,15.51v14.45h-21.58ZM452.51,30.06v-7.51c0-2.12-1.06-3.28-3.18-3.28s-3.18,1.16-3.18,3.28v7.51h6.36Z"/>
      <path class="cls-1" d="M492.72,58.57h-.19c-1.83,3.95-4.62,7.13-10.69,7.13-6.65,0-10.69-4.05-10.69-11.27v-8.19c0-14.45,21.58-12.72,21.58-22.93,0-2.22-.67-4.05-3.18-4.05s-3.18,1.83-3.18,4.05v6.07h-15.22v-5.11c0-11.08,9.25-15.03,18.4-15.03s18.4,3.95,18.4,15.03v40.75h-15.22v-6.45ZM486.36,50.87c0,1.93,1.35,2.89,2.79,2.89,3.18,0,3.56-2.12,3.56-7.03v-9.54c-2.99,2.12-6.36,3.37-6.36,7.71v5.97Z"/>
      <path class="cls-1" d="M523.75,9.92l5.11,38.06h.19l5.1-38.06h12.81l-12.33,58.09c-1.25,6.26-5.68,9.34-12.33,9.34h-12.24v-10.02h7.9c2.02,0,2.7-.48,2.7-1.54,0-.77-.19-1.45-.39-2.41l-11.95-53.47h15.41Z"/>
      <g>
        <path class="cls-4" d="M84.37,4.76v111.57h24.18V24.89h15.66c2.29,0,4.14,1.82,4.14,4.07,0,.76-.22,1.49-.6,2.11l-13.24,22.81,31.43-20.83c3.85-2.87,6.34-7.42,6.34-12.55,0-8.69-7.18-15.74-16.02-15.74h-51.89Z"/>
        <path class="cls-1" d="M23.01,114.33c-4.46,3.3-10.34,4.19-15.31,1.74-7.22-3.56-9.82-12.78-5.83-20.57L48.41,4.76h26.41v111.57h-24.19V46.67l-23.17,44.9c-.36.61-.57,1.31-.57,2.06,0,2.3,1.89,4.15,4.22,4.15.37,0,.73-.05,1.07-.13l12.7-2.51-21.87,19.2Z"/>
      </g>
    </g>
    <g>
      <circle class="cls-3" cx="291.32" cy="162.03" r="19.33"/>
      <path class="cls-5" d="M294.66,151.43l-5.26,3.59,1.8,6.13-5.05-3.9-5.28,3.6,2.16-6.02-5.03-3.89,6.35.19,2.16-5.99,1.79,6.1,6.36.19Z"/>
      <path class="cls-5" d="M308.18,165.83l-6.21-1.39-3.25,5.5-.59-6.35-6.23-1.4,5.87-2.53-.59-6.33,4.2,4.77,5.85-2.51-3.24,5.47,4.2,4.77Z"/>
      <path class="cls-5" d="M295.02,171.9l-6.33.68-1.31,6.26-2.61-5.82-6.35.68,4.74-4.29-2.59-5.8,5.51,3.16,4.73-4.26-1.3,6.23,5.52,3.17Z"/>
    </g>
  </g>
</svg>