<svg width="517" height="240" viewBox="0 0 517 240" fill="none" xmlns="http://www.w3.org/2000/svg">
<g clip-path="url(#clip0_337_3065)">
<path d="M134.93 6.96555C134.942 6.7689 135.026 6.58361 135.165 6.44427C135.304 6.30493 135.489 6.22107 135.685 6.20834H137.303C137.504 6.21462 137.696 6.29563 137.84 6.4356C137.985 6.57557 138.072 6.76448 138.086 6.96555V33.7112C138.079 33.917 137.994 34.1126 137.849 34.2582C137.704 34.4039 137.509 34.4887 137.303 34.4954H135.685C135.484 34.4821 135.296 34.3944 135.156 34.2494C135.017 34.1045 134.936 33.9126 134.93 33.7112V6.96555Z" fill="#15212A"/>
<path d="M144.477 30.1405L145.07 29.3563C145.475 28.8425 145.933 28.5179 146.5 29.0047C148.345 30.7808 150.747 31.8607 153.297 32.0606C153.944 32.1353 154.598 32.0789 155.223 31.8948C155.847 31.7107 156.428 31.4027 156.932 30.9889C157.435 30.5752 157.85 30.0642 158.152 29.4864C158.455 28.9086 158.638 28.2758 158.692 27.6255C158.692 24.9212 156.291 23.1904 151.652 21.2433C147.012 19.2962 144.558 17.4844 144.558 12.887C144.558 10.1827 146.742 5.69356 153.135 5.69356C155.574 5.72665 157.955 6.43819 160.013 7.74883C160.128 7.81621 160.227 7.90774 160.303 8.0171C160.378 8.12646 160.43 8.25103 160.453 8.3822C160.476 8.51336 160.47 8.64799 160.436 8.77677C160.402 8.90555 160.341 9.0254 160.256 9.12803L159.798 9.88524C159.741 10.0158 159.655 10.1317 159.547 10.2244C159.439 10.3171 159.311 10.3842 159.174 10.4206C159.037 10.457 158.893 10.4618 158.753 10.4346C158.614 10.4075 158.482 10.3491 158.368 10.2638C156.791 9.24179 154.981 8.63704 153.108 8.50604C148.819 8.50604 147.552 11.2104 147.552 12.9411C147.552 15.6454 149.629 17.241 152.946 18.6472C158.341 20.8647 161.902 22.92 161.902 27.6255C161.683 29.7358 160.649 31.6763 159.02 33.0311C157.391 34.3858 155.298 35.0471 153.189 34.8731C150.113 34.7988 147.162 33.6402 144.854 31.6009C144.706 31.5616 144.571 31.4835 144.463 31.3747C144.355 31.2658 144.278 31.1301 144.239 30.9814C144.201 30.8328 144.203 30.6765 144.244 30.5288C144.286 30.381 144.366 30.247 144.477 30.1405Z" fill="#15212A"/>
<path d="M167.757 7.18067C167.753 7.05412 167.775 6.92812 167.821 6.81015C167.866 6.69217 167.935 6.58461 168.023 6.49384C168.111 6.40306 168.217 6.33091 168.333 6.28167C168.449 6.23242 168.574 6.20707 168.701 6.20712H169.887C170.145 6.20712 170.392 6.30969 170.574 6.49227C170.756 6.67484 170.859 6.92247 170.859 7.18067V18.6199L183.428 6.61277C183.631 6.38621 183.909 6.24189 184.21 6.20712H186.18C186.351 6.18974 186.523 6.23165 186.668 6.32588C186.812 6.42011 186.92 6.56101 186.973 6.72519C187.027 6.88938 187.023 7.06698 186.962 7.22853C186.901 7.39008 186.787 7.52586 186.638 7.61336L173.934 19.5394L187.259 33.2232C187.32 33.3079 187.364 33.4041 187.388 33.5062C187.412 33.6083 187.415 33.7142 187.398 33.8176C187.38 33.9209 187.342 34.0197 187.286 34.1081C187.229 34.1964 187.156 34.2726 187.07 34.332C186.93 34.4373 186.759 34.4942 186.584 34.4942H184.534C184.266 34.4768 184.01 34.3724 183.806 34.1967L170.859 20.6752V33.5207C170.859 33.7789 170.756 34.0265 170.574 34.2091C170.392 34.3916 170.145 34.4942 169.887 34.4942H168.728C168.475 34.4943 168.232 34.3955 168.05 34.2187C167.869 34.0419 167.764 33.8012 167.757 33.5477V33.5477V7.18067Z" fill="#15212A"/>
<path d="M123.655 20.1077C124.816 19.4676 125.791 18.5345 126.481 17.4009C127.172 16.2672 127.556 14.9723 127.594 13.6444C127.575 12.6007 127.343 11.5719 126.911 10.6221C126.479 9.67242 125.856 8.82216 125.082 8.12439C124.307 7.42662 123.398 6.8963 122.41 6.56651C121.422 6.23672 120.377 6.11453 119.34 6.20756H110.519C110.324 6.21457 110.138 6.29743 110.003 6.43868C109.867 6.57993 109.791 6.76854 109.791 6.96477V19.5939C109.784 19.7099 109.81 19.8255 109.868 19.9264C109.926 20.0274 110.011 20.1092 110.115 20.1618L112.569 21.5951C112.676 21.6194 112.786 21.6194 112.893 21.5951H119.367C120.79 21.4907 122.196 21.9556 123.278 22.8882C124.359 23.8207 125.029 25.1449 125.139 26.571C125.172 27.2411 125.069 27.9109 124.835 28.5397C124.602 29.1685 124.244 29.7432 123.782 30.2288C123.32 30.7145 122.765 31.1009 122.15 31.3647C121.534 31.6285 120.872 31.7641 120.203 31.7633C120.096 31.7398 119.986 31.7398 119.879 31.7633L116.103 33.9267C116.063 33.9714 116.041 34.0291 116.041 34.089C116.041 34.1489 116.063 34.2066 116.103 34.2513C116.137 34.2662 116.174 34.2738 116.211 34.2738C116.248 34.2738 116.285 34.2662 116.319 34.2513H119.798C120.892 34.3435 121.992 34.2119 123.033 33.8644C124.075 33.5168 125.034 32.9606 125.854 32.2296C126.674 31.4985 127.337 30.6079 127.803 29.6119C128.269 28.6159 128.528 27.5353 128.565 26.4358C128.472 25.0095 127.955 23.6439 127.08 22.5157C126.204 21.3875 125.011 20.5486 123.655 20.1077ZM119.34 18.8908H112.785V8.993H119.34C119.997 8.93388 120.659 9.02105 121.278 9.24828C121.898 9.47552 122.46 9.8372 122.923 10.3075C123.387 10.7777 123.742 11.3449 123.962 11.9686C124.181 12.5922 124.261 13.2568 124.195 13.9148C124.233 14.569 124.134 15.224 123.905 15.8377C123.676 16.4515 123.322 17.0104 122.864 17.4789C122.407 17.9473 121.858 18.3149 121.251 18.558C120.644 18.8011 119.993 18.9145 119.34 18.8908V18.8908Z" fill="#15212A"/>
<path d="M107.902 28.9235V22.7036C107.902 22.5242 107.973 22.3523 108.1 22.2255C108.226 22.0987 108.398 22.0275 108.577 22.0275C108.683 22 108.794 22 108.9 22.0275L114.295 25.1374L119.69 28.2474C119.765 28.2895 119.83 28.3462 119.883 28.414C119.936 28.4819 119.975 28.5596 119.998 28.6426C120.02 28.7257 120.026 28.8124 120.015 28.8978C120.004 28.9831 119.976 29.0654 119.933 29.1398C119.88 29.2453 119.795 29.3307 119.69 29.3832L114.295 32.4932L108.9 35.6031C108.826 35.6464 108.744 35.6745 108.659 35.6857C108.574 35.6968 108.487 35.6909 108.404 35.6683C108.322 35.6456 108.244 35.6067 108.176 35.5537C108.109 35.5007 108.052 35.4348 108.01 35.3597C107.987 35.2528 107.987 35.1421 108.01 35.0352L107.902 28.9235Z" fill="#E41B49"/>
<path d="M15.3335 109L1.59014 34.945H18.7409L23.8521 69.5873C24.3064 73.4491 24.7986 77.3487 25.3286 81.2862C25.8587 85.1479 26.3509 89.0476 26.8052 92.985H27.2595C28.0167 89.0476 28.7361 85.1479 29.4176 81.2862C30.1748 77.3487 30.932 73.4491 31.6892 69.5873L39.6399 34.945H53.8375L61.7882 69.5873C62.5454 73.2976 63.2648 77.1215 63.9463 81.059C64.7035 84.9965 65.4607 88.9718 66.2179 92.985H66.6722C67.2023 88.9718 67.6945 85.0343 68.1488 81.1726C68.6788 77.2351 69.2089 73.3733 69.7389 69.5873L74.8501 34.945H90.865L77.6896 109H56.6771L49.4079 75.3799C48.8021 72.5025 48.2342 69.6251 47.7042 66.7478C47.2498 63.7946 46.8334 60.9551 46.4548 58.2292H46.0004C45.5461 60.9551 45.0539 63.7946 44.5239 66.7478C44.0695 69.6251 43.5395 72.5025 42.9337 75.3799L36.0053 109H15.3335ZM123.971 110.363C119.201 110.363 114.696 109.227 110.455 106.956C106.291 104.608 102.921 101.239 100.346 96.8468C97.7719 92.3793 96.4847 87.0409 96.4847 80.8318C96.4847 74.547 97.7719 69.2087 100.346 64.8169C102.921 60.4251 106.291 57.0933 110.455 54.8217C114.696 52.4744 119.201 51.3007 123.971 51.3007C128.742 51.3007 133.209 52.4744 137.374 54.8217C141.539 57.0933 144.908 60.4251 147.483 64.8169C150.057 69.2087 151.344 74.547 151.344 80.8318C151.344 87.0409 150.057 92.3793 147.483 96.8468C144.908 101.239 141.539 104.608 137.374 106.956C133.209 109.227 128.742 110.363 123.971 110.363ZM123.971 96.8468C127.379 96.8468 129.953 95.4081 131.695 92.5307C133.436 89.5776 134.307 85.678 134.307 80.8318C134.307 75.91 133.436 72.0104 131.695 69.133C129.953 66.2556 127.379 64.8169 123.971 64.8169C120.488 64.8169 117.876 66.2556 116.134 69.133C114.468 72.0104 113.635 75.91 113.635 80.8318C113.635 85.678 114.468 89.5776 116.134 92.5307C117.876 95.4081 120.488 96.8468 123.971 96.8468ZM162.781 109V52.6637H176.41L177.546 62.5452H178.001C180.045 58.7592 182.506 55.9575 185.383 54.1402C188.261 52.2472 191.138 51.3007 194.016 51.3007C195.606 51.3007 196.931 51.4143 197.991 51.6414C199.051 51.7929 199.96 52.0579 200.717 52.4365L197.991 66.8613C197.006 66.5584 196.022 66.3313 195.038 66.1798C194.129 66.0284 193.069 65.9527 191.857 65.9527C189.737 65.9527 187.504 66.7478 185.156 68.3379C182.885 69.8523 180.992 72.5025 179.477 76.2886V109H162.781ZM208.036 109V29.3795H224.278V75.0392H224.732L242.564 52.6637H260.737L240.974 75.8343L262.214 109H244.155L231.433 87.0788L224.278 95.1431V109H208.036ZM273.101 109V65.7255H265.605V53.3452L273.101 52.7772V49.7106C273.101 45.6973 273.782 42.0627 275.145 38.8067C276.508 35.5508 278.704 32.9384 281.733 30.9696C284.762 29.0009 288.813 28.0165 293.886 28.0165C296.234 28.0165 298.392 28.2437 300.36 28.698C302.329 29.1523 303.919 29.6067 305.131 30.061L302.064 42.3278C301.08 41.9492 300.095 41.6841 299.111 41.5327C298.127 41.3055 297.18 41.192 296.272 41.192C294.227 41.192 292.637 41.8356 291.501 43.1228C290.365 44.3344 289.797 46.3788 289.797 49.2562V52.6637H299.906V65.7255H289.797V109H273.101ZM332.056 110.363C327.285 110.363 322.78 109.227 318.54 106.956C314.375 104.608 311.005 101.239 308.431 96.8468C305.856 92.3793 304.569 87.0409 304.569 80.8318C304.569 74.547 305.856 69.2087 308.431 64.8169C311.005 60.4251 314.375 57.0933 318.54 54.8217C322.78 52.4744 327.285 51.3007 332.056 51.3007C336.826 51.3007 341.294 52.4744 345.458 54.8217C349.623 57.0933 352.993 60.4251 355.567 64.8169C358.142 69.2087 359.429 74.547 359.429 80.8318C359.429 87.0409 358.142 92.3793 355.567 96.8468C352.993 101.239 349.623 104.608 345.458 106.956C341.294 109.227 336.826 110.363 332.056 110.363ZM332.056 96.8468C335.463 96.8468 338.038 95.4081 339.779 92.5307C341.521 89.5776 342.392 85.678 342.392 80.8318C342.392 75.91 341.521 72.0104 339.779 69.133C338.038 66.2556 335.463 64.8169 332.056 64.8169C328.573 64.8169 325.96 66.2556 324.219 69.133C322.553 72.0104 321.72 75.91 321.72 80.8318C321.72 85.678 322.553 89.5776 324.219 92.5307C325.96 95.4081 328.573 96.8468 332.056 96.8468ZM370.865 109V52.6637H384.495L385.631 62.5452H386.085C388.13 58.7592 390.59 55.9575 393.468 54.1402C396.345 52.2472 399.223 51.3007 402.1 51.3007C403.69 51.3007 405.015 51.4143 406.075 51.6414C407.135 51.7929 408.044 52.0579 408.801 52.4365L406.075 66.8613C405.091 66.5584 404.107 66.3313 403.122 66.1798C402.214 66.0284 401.153 65.9527 399.942 65.9527C397.822 65.9527 395.588 66.7478 393.241 68.3379C390.969 69.8523 389.076 72.5025 387.562 76.2886V109H370.865ZM439.545 110.363C434.32 110.363 429.587 109.227 425.347 106.956C421.182 104.608 417.851 101.239 415.352 96.8468C412.929 92.3793 411.717 87.0409 411.717 80.8318C411.717 74.547 413.08 69.2087 415.806 64.8169C418.532 60.4251 422.129 57.0933 426.596 54.8217C431.064 52.4744 435.872 51.3007 441.021 51.3007C444.504 51.3007 447.571 51.8686 450.221 53.0044C452.947 54.1402 455.37 55.5789 457.49 57.3205L449.653 68.1107C447.003 65.9148 444.466 64.8169 442.043 64.8169C438.03 64.8169 434.812 66.2556 432.389 69.133C430.042 72.0104 428.868 75.91 428.868 80.8318C428.868 85.678 430.042 89.5776 432.389 92.5307C434.812 95.4081 437.841 96.8468 441.475 96.8468C443.293 96.8468 445.072 96.4682 446.814 95.711C448.555 94.8781 450.146 93.8937 451.584 92.7579L458.172 103.662C455.37 106.085 452.341 107.826 449.085 108.886C445.829 109.871 442.649 110.363 439.545 110.363ZM490.029 110.363C484.653 110.363 479.806 109.189 475.49 106.842C471.174 104.495 467.767 101.125 465.268 96.7332C462.769 92.3414 461.52 87.0409 461.52 80.8318C461.52 74.6984 462.769 69.4358 465.268 65.044C467.843 60.6522 471.174 57.2826 475.263 54.9353C479.352 52.5122 483.63 51.3007 488.098 51.3007C493.474 51.3007 497.904 52.5122 501.387 54.9353C504.946 57.2826 507.596 60.5008 509.338 64.5897C511.155 68.6029 512.064 73.184 512.064 78.333C512.064 79.7717 511.988 81.2104 511.836 82.6491C511.685 84.0121 511.534 85.0343 511.382 85.7158H477.648C478.406 89.8048 480.109 92.8336 482.76 94.8023C485.41 96.6954 488.59 97.6419 492.3 97.6419C496.314 97.6419 500.365 96.3925 504.454 93.8937L510.019 104.002C507.142 105.971 503.924 107.523 500.365 108.659C496.806 109.795 493.361 110.363 490.029 110.363ZM477.535 74.6984H497.866C497.866 71.5939 497.109 69.0572 495.594 67.0885C494.156 65.044 491.77 64.0218 488.439 64.0218C485.864 64.0218 483.555 64.9305 481.51 66.7478C479.466 68.4893 478.141 71.1396 477.535 74.6984Z" fill="#15212A"/>
<path d="M8.94804 210.64V134.872H56.3607V149.282H26.0305V164.505H51.8286V178.799H26.0305V196.23H57.5228V210.64H8.94804ZM88.1843 212.034C84.3882 212.034 80.4758 211.298 76.4473 209.826C72.4963 208.354 69.0488 206.417 66.1049 204.016L73.7745 193.325C76.4086 195.261 78.9264 196.772 81.328 197.857C83.8071 198.864 86.2475 199.367 88.6491 199.367C91.2057 199.367 93.065 198.941 94.2271 198.089C95.3891 197.159 95.9702 195.959 95.9702 194.487C95.9702 193.17 95.3891 192.085 94.2271 191.233C93.1425 190.381 91.7092 189.606 89.9274 188.909C88.1455 188.134 86.2475 187.359 84.2332 186.585C81.9091 185.655 79.5849 184.493 77.2608 183.098C75.0141 181.704 73.116 179.922 71.5666 177.753C70.0172 175.506 69.2425 172.795 69.2425 169.618C69.2425 164.273 71.2567 159.934 75.2852 156.603C79.3912 153.272 84.7368 151.606 91.3219 151.606C95.7378 151.606 99.6113 152.381 102.943 153.93C106.351 155.402 109.257 157.068 111.658 158.927L103.988 169.153C101.974 167.604 99.96 166.403 97.9457 165.551C95.9314 164.699 93.9172 164.273 91.9029 164.273C87.487 164.273 85.2791 165.783 85.2791 168.805C85.2791 170.664 86.3637 172.097 88.5329 173.105C90.7796 174.034 93.3749 175.041 96.3188 176.126C98.7979 176.978 101.2 178.101 103.524 179.496C105.925 180.813 107.901 182.595 109.45 184.841C111.077 187.011 111.891 189.877 111.891 193.441C111.891 198.631 109.876 203.047 105.848 206.688C101.819 210.252 95.9314 212.034 88.1843 212.034ZM139.706 212.034C135.91 212.034 131.998 211.298 127.969 209.826C124.018 208.354 120.57 206.417 117.627 204.016L125.296 193.325C127.93 195.261 130.448 196.772 132.85 197.857C135.329 198.864 137.769 199.367 140.171 199.367C142.727 199.367 144.587 198.941 145.749 198.089C146.911 197.159 147.492 195.959 147.492 194.487C147.492 193.17 146.911 192.085 145.749 191.233C144.664 190.381 143.231 189.606 141.449 188.909C139.667 188.134 137.769 187.359 135.755 186.585C133.431 185.655 131.107 184.493 128.782 183.098C126.536 181.704 124.638 179.922 123.088 177.753C121.539 175.506 120.764 172.795 120.764 169.618C120.764 164.273 122.778 159.934 126.807 156.603C130.913 153.272 136.258 151.606 142.844 151.606C147.259 151.606 151.133 152.381 154.464 153.93C157.873 155.402 160.778 157.068 163.18 158.927L155.51 169.153C153.496 167.604 151.482 166.403 149.467 165.551C147.453 164.699 145.439 164.273 143.425 164.273C139.009 164.273 136.801 165.783 136.801 168.805C136.801 170.664 137.885 172.097 140.055 173.105C142.301 174.034 144.897 175.041 147.84 176.126C150.32 176.978 152.721 178.101 155.045 179.496C157.447 180.813 159.422 182.595 160.972 184.841C162.599 187.011 163.412 189.877 163.412 193.441C163.412 198.631 161.398 203.047 157.369 206.688C153.341 210.252 147.453 212.034 139.706 212.034ZM200.059 212.034C194.559 212.034 189.601 210.833 185.185 208.432C180.769 206.03 177.283 202.582 174.726 198.089C172.17 193.596 170.891 188.173 170.891 181.82C170.891 175.545 172.17 170.161 174.726 165.667C177.36 161.174 180.769 157.726 184.952 155.325C189.136 152.846 193.513 151.606 198.084 151.606C203.584 151.606 208.116 152.846 211.68 155.325C215.321 157.726 218.033 161.019 219.815 165.202C221.674 169.308 222.604 173.995 222.604 179.264C222.604 180.735 222.526 182.207 222.371 183.679C222.216 185.074 222.061 186.12 221.906 186.817H187.393C188.167 191 189.911 194.099 192.622 196.114C195.334 198.05 198.587 199.019 202.384 199.019C206.49 199.019 210.634 197.74 214.818 195.184L220.512 205.526C217.568 207.541 214.275 209.129 210.634 210.291C206.993 211.453 203.468 212.034 200.059 212.034ZM187.277 175.545H208.078C208.078 172.369 207.303 169.773 205.754 167.759C204.282 165.667 201.841 164.621 198.432 164.621C195.798 164.621 193.436 165.551 191.344 167.41C189.252 169.192 187.896 171.904 187.277 175.545ZM234.408 210.64V153.001H248.353L249.515 160.322H249.98C252.459 157.998 255.17 155.983 258.114 154.279C261.135 152.497 264.583 151.606 268.457 151.606C274.732 151.606 279.264 153.698 282.053 157.881C284.919 161.987 286.353 167.643 286.353 174.848V210.64H269.27V177.056C269.27 172.872 268.689 170.006 267.527 168.456C266.442 166.907 264.66 166.132 262.181 166.132C260.012 166.132 258.153 166.636 256.603 167.643C255.054 168.572 253.35 169.928 251.49 171.71V210.64H234.408ZM323.105 212.034C315.978 212.034 310.864 209.981 307.766 205.875C304.744 201.769 303.233 196.385 303.233 189.722V166.364H295.331V153.698L304.163 153.001L306.139 137.661H320.316V153.001H334.145V166.364H320.316V189.49C320.316 192.744 320.974 195.106 322.291 196.578C323.686 197.973 325.507 198.67 327.753 198.67C328.683 198.67 329.613 198.554 330.542 198.322C331.549 198.089 332.44 197.818 333.215 197.508L335.888 209.942C334.416 210.407 332.595 210.872 330.426 211.337C328.334 211.802 325.894 212.034 323.105 212.034ZM345.395 210.64V153.001H362.477V210.64H345.395ZM353.878 144.517C351.012 144.517 348.687 143.704 346.906 142.077C345.124 140.45 344.233 138.281 344.233 135.57C344.233 132.858 345.124 130.689 346.906 129.062C348.687 127.435 351.012 126.622 353.878 126.622C356.745 126.622 359.069 127.435 360.851 129.062C362.632 130.689 363.523 132.858 363.523 135.57C363.523 138.281 362.632 140.45 360.851 142.077C359.069 143.704 356.745 144.517 353.878 144.517ZM392.037 212.034C386.769 212.034 382.585 210.368 379.486 207.037C376.388 203.628 374.838 199.484 374.838 194.603C374.838 188.56 377.395 183.834 382.508 180.426C387.621 177.017 395.872 174.731 407.26 173.569C407.105 171.013 406.33 168.999 404.936 167.527C403.619 165.977 401.372 165.202 398.196 165.202C395.794 165.202 393.354 165.667 390.875 166.597C388.396 167.527 385.762 168.805 382.973 170.432L376.814 159.16C380.455 156.913 384.328 155.092 388.434 153.698C392.618 152.303 396.956 151.606 401.45 151.606C408.809 151.606 414.465 153.737 418.416 157.998C422.367 162.258 424.342 168.805 424.342 177.637V210.64H410.398L409.236 204.713H408.771C406.369 206.882 403.774 208.664 400.985 210.058C398.273 211.376 395.291 212.034 392.037 212.034ZM397.847 198.786C399.784 198.786 401.45 198.36 402.844 197.508C404.316 196.578 405.788 195.378 407.26 193.906V183.796C401.217 184.57 397.034 185.81 394.71 187.514C392.385 189.141 391.223 191.078 391.223 193.325C391.223 195.184 391.804 196.578 392.966 197.508C394.206 198.36 395.833 198.786 397.847 198.786ZM454.48 212.034C448.592 212.034 444.486 210.291 442.162 206.805C439.916 203.241 438.792 198.554 438.792 192.744V129.178H455.875V193.441C455.875 195.223 456.185 196.462 456.804 197.159C457.502 197.857 458.199 198.205 458.896 198.205C459.283 198.205 459.593 198.205 459.826 198.205C460.136 198.128 460.523 198.05 460.988 197.973L463.08 210.64C462.15 211.027 460.949 211.337 459.477 211.569C458.083 211.879 456.417 212.034 454.48 212.034ZM489.009 212.034C485.213 212.034 481.301 211.298 477.272 209.826C473.321 208.354 469.874 206.417 466.93 204.016L474.599 193.325C477.234 195.261 479.751 196.772 482.153 197.857C484.632 198.864 487.072 199.367 489.474 199.367C492.031 199.367 493.89 198.941 495.052 198.089C496.214 197.159 496.795 195.959 496.795 194.487C496.795 193.17 496.214 192.085 495.052 191.233C493.967 190.381 492.534 189.606 490.752 188.909C488.97 188.134 487.072 187.359 485.058 186.585C482.734 185.655 480.41 184.493 478.086 183.098C475.839 181.704 473.941 179.922 472.392 177.753C470.842 175.506 470.067 172.795 470.067 169.618C470.067 164.273 472.082 159.934 476.11 156.603C480.216 153.272 485.562 151.606 492.147 151.606C496.563 151.606 500.436 152.381 503.768 153.93C507.176 155.402 510.082 157.068 512.483 158.927L504.813 169.153C502.799 167.604 500.785 166.403 498.771 165.551C496.756 164.699 494.742 164.273 492.728 164.273C488.312 164.273 486.104 165.783 486.104 168.805C486.104 170.664 487.189 172.097 489.358 173.105C491.605 174.034 494.2 175.041 497.144 176.126C499.623 176.978 502.024 178.101 504.349 179.496C506.75 180.813 508.726 182.595 510.275 184.841C511.902 187.011 512.716 189.877 512.716 193.441C512.716 198.631 510.701 203.047 506.673 206.688C502.644 210.252 496.756 212.034 489.009 212.034Z" fill="#15212A"/>
</g>
<defs>
<clipPath id="clip0_337_3065">
<rect width="517" height="240" fill="white"/>
</clipPath>
</defs>
</svg>
