<?xml version="1.0" encoding="UTF-8"?>
<svg id="Layer_1" xmlns="http://www.w3.org/2000/svg" xmlns:xlink="http://www.w3.org/1999/xlink" version="1.1" viewBox="0 0 750 169">
  <!-- Generator: Adobe Illustrator 29.2.1, SVG Export Plug-In . SVG Version: 2.1.0 Build 116)  -->
  <defs>
    <style>
      .st0 {
        fill: none;
      }

      .st1 {
        fill: #231f20;
      }

      .st2 {
        fill: #e31937;
      }

      .st3 {
        clip-path: url(#clippath);
      }
    </style>
    <clipPath id="clippath">
      <rect class="st0" width="750" height="168.7"/>
    </clipPath>
  </defs>
  <g class="st3">
    <path class="st2" d="M3.5,3.4h0S-2.6,110.1,74.3,164.7c0,0,71.1-41.9,71.1-161.4H3.5ZM122.5,67.1c-3.7,3.5-8.6,7.8-12.2,6.9.7,1.6.2,3.3-1.4,4.5-2.7,2.1-8.2,2.7-12.9-.7-.7-.6-1.3-1.3-1.6-1.7-.2-.2-.3-.4-.4-.5.1,0,.3.1.4.2,1.1.4,2.8.6,2.8.6h0c1.9.3,3.3,0,4.2-.7.5-.3.7-.7.7-1.1,0-.5-.5-.9-1.3-1.3h-19.4v59c1.5,3.7,5.3-.9,2.3-7.2,8.3,7.4,3.2,19.3-2.1,15.8,1.4,3.8-3.7,9-7.1,12.6l-.5-.5c-3.5-3.7-9.1-8.6-8.2-12.2-1.6.7-3.3.2-4.5-1.4-2.1-2.7-2.7-8.2.6-12.8.6-.8,1.3-1.4,1.8-1.8.2-.2.4-.3.5-.3h0c0,.2-.2.3-.2.5-.3,1.1-.5,2.7-.5,2.7h0c-.3,1.8,0,3.4.6,4.3.3.5.7.7,1.1.7.5,0,1-.5,1.4-1.3v-58.1h-20.4c-4.1,1.7.7,5.7,7,2.6-7.4,8.3-19.3,3.2-15.8-2.1-3.7,1.4-9-3.2-12.6-6.6h0l.5-.5c3.7-3.5,8.7-8.1,12.2-7.2-.7-1.6-.2-3.3,1.4-4.5,2.7-2.1,8.3-2.7,13,.8.7.6,1.3,1.3,1.6,1.7.1.2.2.3.3.4h0c0,0-.1,0-.2,0h-.3c-1.1-.4-2.7-.6-2.7-.6h0c-1.9-.3-3.5,0-4.3.6-.5.3-.7.7-.7,1.1,0,.5.5.9,1.3,1.2h19.7v-29.3c-1.7-4.1-5.6.7-2.6,7-8.3-7.4-3.2-19.3,2.1-15.8-1.4-3.7,4.5-8.6,7.9-12.2h0s0,0,0,0l.5.5c3.5,3.7,8.3,8.6,7.4,12.2,1.6-.7,3.3-.2,4.5,1.4,2.2,2.8,2.7,8.7-1.2,13.5-.5.5-1,.8-1.3,1.1-.1.1-.2.2-.3.2,0,0-.1,0-.1,0,0,0,0,0,0,0h0c0,0,0-.1,0-.1,0-.1,0-.2.1-.3.4-1,.6-2.6.6-2.6h0c.3-2,0-3.6-.6-4.5-.3-.5-.7-.8-1.1-.7-.5,0-.8.5-1.2,1.3v28.2h20.3c4.1-1.7-.7-5.6-7-2.6,7.4-8.3,19.3-3.2,15.8,2.1,3.7-1.4,9,3.5,12.6,6.9h0,0s-.5.5-.5.5Z"/>
    <path class="st2" d="M186.8,25.6c7.3-5.7,16.6-8.5,26.9-8.5s13,1.1,17.7,2.4c1.2.3,1.9.5,2.8.4.1,2.3.6,8.6,1.4,14.7-.5.7-2,.8-2.7.2-1.5-6.8-6-14.6-20.4-14.6s-28.2,9.7-28.2,30.3,13.3,32.5,29.6,32.5,18.6-8.4,20.9-14.3c.7-.5,2.2-.3,2.6.4-.7,5.2-3.3,11.8-4.8,13.7-1.2.2-2.4.6-3.5,1-2.2.8-9.4,2.3-15.8,2.3s-17.6-1.8-24.8-6.7c-8-5.5-14.2-14.6-14.2-27.4s5-20.6,12.6-26.4h0Z"/>
    <path class="st2" d="M287.4,61.4c-.7-2.2-1.1-2.5-4.1-2.5h-15.1c-2.5,0-3.1.3-3.8,2.4l-3.5,10.5c-1.5,4.5-2.2,7.2-2.2,8.3s.5,1.8,2.9,2l3.3.3c.7.5.7,2.1-.2,2.5-2.6-.2-5.7-.2-10.4-.3-3.3,0-6.9.2-9.6.3-.6-.4-.8-2-.2-2.5l3.3-.3c2.4-.2,4.6-1.3,6-4.9,1.8-4.6,4.6-11.1,8.8-22.2l10.2-26.9c1.4-3.6,2-5.5,1.7-7.1,2.4-.7,4.1-2.5,5.2-3.8.6,0,1.3.2,1.5.9,1.3,4.4,2.9,9,4.4,13.4l13.7,40.1c2.9,8.6,4.2,10.1,8.5,10.6l2.7.3c.7.5.5,2.1,0,2.5-4.1-.2-7.6-.3-12.1-.3s-8.6.2-11.5.3c-.8-.4-.9-2-.2-2.5l2.9-.3c2.1-.2,3.5-.8,3.5-1.8s-.5-2.9-1.3-5.3l-4.4-13.6h0ZM267.6,52.5c-.8,2.3-.7,2.4,2.1,2.4h12.3c2.9,0,3.1-.4,2.2-3.1l-5.4-16.3c-.8-2.4-1.7-5.1-2.3-6.3h-.2c-.3.5-1.3,2.9-2.4,5.9l-6.3,17.4Z"/>
    <path class="st2" d="M329.2,33.6c0-10.5-.2-12.1-6.5-12.6l-2.5-.2c-.6-.4-.4-2.2.2-2.5,5.6.2,9,.3,13,.3s7.3-.1,12.3-.3c.6.3.8,2.1.2,2.5l-2.4.2c-5.9.5-6.1,2.1-6.1,12.6v34.7c0,6.3.3,8.9,2.1,10.8,1.1,1.1,3,2.3,10.9,2.3s10.6-.4,12.2-1.3c2-1.2,4.6-4.8,6.6-9.9.6-.5,2.5-.1,2.5.6,0,1.1-2.8,11.3-4.2,14-2.5-.1-6.2-.2-10.5-.2-4.3-.1-9.2-.1-14.4-.1h-9.2c-4.2,0-7.4.1-13,.3-.6-.3-.8-1.9-.2-2.5l3-.3c5.8-.6,6-2,6-12.5v-35.9h0Z"/>
    <path class="st2" d="M391.8,31.6c0-7-.5-9.1-4.7-9.7l-2.2-.3c-.8-.5-.9-2.1.1-2.5,8.5-.5,16.6-.8,25-.8s15.5.6,21.9,3c13.5,4.9,20.3,16.3,20.3,29.4s-6.1,23.5-17.5,29.7c-6.5,3.5-14.7,4.8-22.3,4.8s-6.4-.2-9.2-.4c-2.9-.2-5.3-.4-7.1-.4-4.2,0-7.8.1-12.5.3-.6-.3-.8-1.9-.2-2.5l2.3-.3c5.8-.8,6-2,6-12.5V31.6h0ZM400,67.2c0,5.3.3,8.5,2,10.9,2.2,3.1,6,4.1,12.3,4.1,19.3,0,28-12.7,28-31.2s-5.3-29.5-31.4-29.5-9.1.8-9.9,1.4c-.8.6-1,3.1-1,7.6v36.8Z"/>
    <path class="st2" d="M462.1,20.8c-.6-.6-.5-2,.3-2.4,2.7.2,7.2.3,10.3.3s7.9-.1,11.4-.3c.9.3.8,1.7.2,2.4l-2.3.2c-2.1.2-3.3.8-3.3,1.7s2.1,6.3,5.2,13.4c5.6,12.5,11.5,24.9,17.3,37.2,2.4-5,5-10.6,7.7-16.2.8-1.9,1.6-3.6,1.6-4.1s-.3-1.4-.8-2.6c-3.5-8-7.2-16-11-23.9-1.5-3.1-3-5.2-6.4-5.5l-2.4-.2c-.7-.8-.6-2,.2-2.4,2.9.2,6.7.3,10.7.3s8.7-.1,11-.3c.7.3.8,1.6.2,2.4l-2.6.2c-3.9.3-4.1,1-2.1,5.5,2,4.9,4.9,11.2,7.7,17.4,1.9-3.9,3.7-7.7,5.9-13.1,3.6-8.5,3.1-9.6-.1-9.8l-3-.2c-.7-1-.5-2.1.2-2.4,2.7.2,5.7.3,9.4.3s7.3-.1,9.6-.3c.7.3.8,1.6.2,2.4l-2.9.2c-4.2.3-6,4.8-8.2,8.9-2.1,3.7-6.3,12.4-7.8,15.9-.5,1-.9,2-.9,2.4s.2,1.2.7,2.4c3.4,7.7,6.9,15.2,10.2,22.7,3.1-7,6-14,9-21,1.9-4.8,7.3-18.1,8-19.8,1.3-3.6,3-7.9,3-9.1s-1.2-2.2-3.3-2.3l-2.9-.2c-.8-.9-.7-2,.1-2.4,3.8.2,6.5.3,9.6.3s6.7-.1,9.3-.3c.8.3.9,1.6.2,2.4l-1.9.2c-5,.5-5.9,3.5-11.9,17.4l-7.3,16.9c-4.3,10.2-8.4,20-12.5,30.6-.3.2-.7.3-1.2.3s-1-.1-1.4-.3c-3.2-8.9-9-21.3-12.1-28.3-3.6,7.3-9.6,20-12.5,28.3-.3.2-.7.3-1.2.3s-1-.1-1.5-.3c-1.7-4.2-5.6-13.2-6.9-16.1-6.4-13.9-12.6-27.7-19-41.6-1.9-4.1-3.1-6.8-7.3-7.2l-2.4-.2h0Z"/>
    <path class="st2" d="M578.4,33.6c0-10.4-.2-11.9-6.1-12.6l-1.6-.2c-.6-.4-.4-2.2.2-2.5,2.2.1,4.1.2,6,.2,1.9.1,3.8.1,5.8.1h18.7c6.4,0,12.3,0,13.5-.3.6,1.7,1.2,8.9,1.6,13.3-.4.6-2,.8-2.5.2-1.5-4.7-2.4-8.2-7.6-9.5-2.1-.5-5.3-.6-9.7-.6h-7.2c-3,0-3,.2-3,4v20c0,2.8.3,2.8,3.3,2.8h5.8c4.2,0,7.3-.2,8.5-.6,1.2-.4,1.9-1,2.4-3.5l.8-4.1c.5-.6,2.2-.6,2.6.1,0,2.4-.4,6.3-.4,10.1s.4,7.4.4,9.6c-.4.7-2.1.7-2.6.1l-.9-3.9c-.4-1.8-1.1-3.3-3.1-3.8-1.4-.4-3.8-.5-7.7-.5h-5.8c-3,0-3.3.1-3.3,2.7v14.1c0,5.3.3,8.7,1.9,10.4,1.2,1.2,3.3,2.3,12.1,2.3s10.6-.4,12.8-1.5c1.8-1,4.5-4.5,7.1-9.7.7-.5,2.1-.2,2.5.7-.7,3.5-3.2,11.2-4.5,13.9-4.5-.1-9-.2-13.4-.2-4.5-.1-8.9-.1-13.4-.1h-9c-4.3,0-7.7.1-13.6.3-.6-.3-.8-1.9-.2-2.5l3.3-.3c5.7-.5,6.2-2,6.2-12.5v-35.9h0Z"/>
    <path class="st2" d="M644.1,33.6c0-10.5-.2-12.1-6.5-12.6l-2.5-.2c-.6-.4-.4-2.2.2-2.5,5.6.2,9,.3,13,.3s7.3-.1,12.3-.3c.6.3.8,2.1.2,2.5l-2.4.2c-5.9.5-6.1,2.1-6.1,12.6v34.7c0,6.3.3,8.9,2.1,10.8,1.1,1.1,3,2.3,10.9,2.3s10.6-.4,12.2-1.3c2-1.2,4.6-4.8,6.6-9.9.6-.5,2.5-.1,2.5.6,0,1.1-2.8,11.3-4.2,14-2.5-.1-6.2-.2-10.5-.2-4.3-.1-9.2-.1-14.4-.1h-9.2c-4.2,0-7.4.1-13,.3-.6-.3-.8-1.9-.2-2.5l3-.3c5.8-.6,6-2,6-12.5v-35.9h0Z"/>
    <path class="st2" d="M706.7,33.6c0-10.5-.2-12.1-6.5-12.6l-2.5-.2c-.6-.4-.4-2.2.2-2.5,5.6.2,9,.3,13,.3s7.3-.1,12.3-.3c.6.3.8,2.1.2,2.5l-2.4.2c-5.9.5-6.1,2.1-6.1,12.6v34.7c0,6.3.3,8.9,2.1,10.8,1.1,1.1,3,2.3,10.9,2.3s10.6-.4,12.2-1.3c2-1.2,4.6-4.8,6.6-9.9.6-.5,2.5-.1,2.5.6,0,1.1-2.8,11.3-4.2,14-2.5-.1-6.2-.2-10.5-.2-4.3-.1-9.2-.1-14.4-.1h-9.2c-4.2,0-7.4.1-13,.3-.6-.3-.8-1.9-.2-2.5l3-.3c5.8-.6,6-2,6-12.5v-35.9h0Z"/>
    <path class="st1" d="M206.3,122.2c0-3.1-.1-8.8-.9-10.3-.4-.6-1.2-.9-2.5-1.1h-1.2c-.3-.5-.2-1.1.1-1.3,1.9.1,3.7.2,5.7.2s3.4,0,5.2-.2c.4.2.4.9.1,1.2h-1.2c-1.2.2-2.2.6-2.5,1.3-.8,1.6-.7,7.4-.7,10.2v5.6c0,4.3-.7,8.9-3.5,11.9-2.1,2.4-5.8,3.6-9.5,3.6s-6.9-.6-9.3-2.7c-2.6-2.2-3.9-5.8-3.9-11.8v-11.8c0-5.2-.1-6-3-6.3h-1.2c-.3-.3-.2-1.2.1-1.3,2.5.1,4.2.2,6.2.2s3.7,0,6.1-.2c.3.2.4,1,.1,1.2h-1.2c-2.9.4-3,1.2-3,6.4v10.8c0,8,2.5,13.3,10.1,13.3s10-5.7,10-13.3v-5.7h0Z"/>
    <path class="st1" d="M277.7,134.1c0,1.5,0,7.4.2,8.7-.1.3-.4.5-.9.5-.6-.8-2.1-2.6-6.4-7.5l-11.6-13.2c-1.4-1.5-4.7-5.6-5.8-6.7h-.1c-.2.6-.2,1.7-.2,3.2v10.9c0,2.3.1,8.8.9,10.3.4.5,1.3.8,2.5.9l1.5.2c.3.4.2,1-.1,1.2-2.2-.1-4-.2-5.8-.2s-3.4,0-5.2.2c-.3-.2-.4-.9-.1-1.2l1.4-.2c1.1-.1,1.9-.5,2.2-1,.7-1.8.6-7.9.6-10.3v-14.4c0-1.4,0-2.4-1.1-3.6-.7-.7-1.9-1.1-3.1-1.2h-.8c-.3-.4-.3-1.2.1-1.4,2.1.2,4.7.2,5.6.2s1.6,0,2.3-.2c1,2.5,6.9,9.1,8.5,11l4.8,5.4c3.4,3.9,5.9,6.6,8.2,9h.1c.2-.2.2-1.1.2-2.1v-10.7c0-2.3,0-8.8-1-10.3-.3-.5-1.1-.8-3.1-1h-.8c-.4-.4-.3-1.2.1-1.4,2.3.1,4,.2,5.9.2s3.4,0,5.1-.2c.4.2.4.9.1,1.2h-.7c-1.6.4-2.6.8-2.8,1.2-.8,1.8-.8,8-.8,10.3v11.9h0Z"/>
    <path class="st1" d="M321.1,117.3c0-5.3-.1-6.1-3-6.4h-1.2c-.3-.3-.2-1.2.1-1.4,2.5.1,4.2.2,6.3.2s3.7,0,6.2-.2c.3.2.4,1.1.1,1.2h-1.2c-2.9.4-3,1.2-3,6.5v17.8c0,5.3.1,6,3,6.3l1.2.2c.3.2.2,1.1-.1,1.2-2.5-.1-4.2-.2-6.2-.2s-3.8,0-6.3.2c-.3-.2-.4-.9-.1-1.2l1.2-.2c2.9-.3,3-1.1,3-6.3v-17.8Z"/>
    <path class="st1" d="M367.7,115c-1.1-2.8-1.9-3.8-4-4.1h-.9c-.4-.4-.3-1.1.1-1.4,1.4.1,3,.2,5.2.2s3.9,0,6-.2c.4.2.5.9.1,1.2h-.8c-1.9.4-2.3.6-2.3,1.1.1.5.9,3.2,2.5,7,2.3,5.8,4.6,11.5,7.1,17.2,1.5-3.3,3.7-8.4,4.8-11.1,1.5-3.4,3.8-9,4.6-11.2.4-1.1.5-1.6.5-1.9s-.5-.8-2.2-.9h-.9c-.4-.4-.2-1.2.1-1.4,1.4.1,3.3.2,5.2.2s3.2,0,4.8-.2c.4.2.4,1,.1,1.2h-1.5c-1.2.2-1.9.8-2.6,1.8-1.4,2.3-3.3,6.4-5.6,11.5l-2.7,6.1c-2,4.6-4.3,10.4-5.2,13-.2.1-.4.2-.5.2s-.5,0-.8-.2c-.5-2.1-1.4-4.5-2.3-6.6l-8.8-21.6h0Z"/>
    <path class="st1" d="M434,117.2c0-5.2-.1-5.9-3-6.3h-.8c-.3-.3-.2-1.2.1-1.4,1.1,0,2.1.1,3,.1.9,0,1.9,0,2.9,0h9.4c3.2,0,6.1,0,6.7-.2.3.8.6,4.4.8,6.6-.2.3-1,.4-1.2.1-.8-2.3-1.2-4.1-3.8-4.7-1.1-.2-2.6-.3-4.8-.3h-3.6c-1.5,0-1.5.1-1.5,2v10c0,1.4.2,1.4,1.6,1.4h2.9c2.1,0,3.6-.1,4.2-.3.6-.2.9-.5,1.2-1.7l.4-2.1c.2-.3,1.1-.3,1.3,0,0,1.2-.2,3.1-.2,5s.2,3.7.2,4.8c-.2.4-1.1.4-1.3,0l-.5-1.9c-.2-.9-.5-1.6-1.5-1.9-.7-.2-1.9-.2-3.8-.2h-2.9c-1.5,0-1.6,0-1.6,1.3v7c0,2.6.2,4.3.9,5.2.6.6,1.6,1.1,6,1.1s5.3-.2,6.4-.8c.9-.5,2.2-2.2,3.5-4.8.4-.2,1.1-.1,1.2.4-.4,1.7-1.6,5.6-2.2,6.9-2.2,0-4.5-.1-6.7-.1-2.2,0-4.4,0-6.7,0h-4.5c-2.1,0-3.8,0-6.8.2-.3-.2-.4-.9-.1-1.2l1.6-.2c2.8-.2,3.1-1,3.1-6.2v-18h0Z"/>
    <path class="st1" d="M494.3,117.2c0-4.7-.2-5.6-2.2-5.8l-1.6-.2c-.4-.2-.4-1.1,0-1.2,2.8-.2,6.2-.4,11.1-.4s6,.2,8.3,1.5c2.4,1.2,4.1,3.5,4.1,7s-3.7,7.3-6.2,8.3c-.2.3,0,.8.2,1.2,4,6.4,6.6,10.4,10,13.3.8.8,2.1,1.3,3.4,1.4.2.1.3.5,0,.7-.5.2-1.2.2-2.2.2-4.2,0-6.8-1.2-10.3-6.3-1.3-1.8-3.3-5.3-4.9-7.5-.8-1.1-1.5-1.6-3.5-1.6s-2.4,0-2.4,1.1v6.3c0,5.2.1,5.8,3,6.2l1.1.2c.3.2.2,1.1-.1,1.2-2.2-.1-3.9-.2-5.9-.2s-3.9,0-6.2.2c-.3-.2-.4-.9-.1-1.2l1.2-.2c2.9-.3,3-1,3-6.2v-17.9h0ZM498.4,124.4c0,.9,0,1.4.2,1.6.2.2.9.2,3.4.2s3.7-.2,5.1-1.3c1.3-1.1,2.5-2.8,2.5-6.2s-2.4-7.7-8-7.7-3.2.2-3.2,1.6v11.7Z"/>
    <path class="st1" d="M562.4,143.4c-4.2,0-6.8-1.3-7.8-1.8-.6-1.1-1.2-4.6-1.4-7,.2-.4,1-.5,1.2-.2.8,2.5,2.8,7.4,8.6,7.4s6.2-2.7,6.2-5.7-.5-4.6-4.1-7l-4.7-3.1c-2.5-1.6-5.4-4.5-5.4-8.6s3.7-8.6,10.2-8.6,3.3.2,4.6.6c.6.2,1.4.3,1.7.3.5,1.2.9,4,.9,6.1-.2.3-1,.5-1.2.2-.6-2.4-2-5.6-6.8-5.6s-5.9,3.2-5.9,5.5,2.4,4.9,4.2,6.1l4,2.5c3.1,1.9,6.2,4.8,6.2,9.6s-4.1,9.2-10.6,9.2h0Z"/>
    <path class="st1" d="M613.2,117.3c0-5.3-.1-6.1-3-6.4h-1.2c-.3-.3-.2-1.2.1-1.4,2.5.1,4.2.2,6.3.2s3.7,0,6.2-.2c.3.2.4,1.1.1,1.2h-1.2c-2.9.4-3,1.2-3,6.5v17.8c0,5.3.1,6,3,6.3l1.2.2c.3.2.2,1.1-.1,1.2-2.5-.1-4.2-.2-6.2-.2s-3.8,0-6.3.2c-.3-.2-.4-.9-.1-1.2l1.2-.2c2.9-.3,3-1.1,3-6.3v-17.8Z"/>
    <path class="st1" d="M673.2,135.1c0,5.2.1,5.9,3,6.2l1.6.2c.3.2.2,1.1-.1,1.2-2.8-.1-4.5-.2-6.5-.2s-3.7,0-6.9.2c-.3-.2-.4-1,0-1.2l1.8-.2c2.8-.2,3.1-1,3.1-6.2v-22.3c0-1.5,0-1.6-1.5-1.6h-2.7c-2.1,0-4.9.1-6.1,1.2-1.2,1.1-1.7,2.2-2.2,3.4-.4.3-1.1,0-1.3-.4.8-2.2,1.5-5.4,1.9-7.4.2-.1.8-.2.9,0,.3,1.6,1.9,1.5,4.2,1.5h20.2c2.7,0,3.1-.1,3.9-1.4.2-.1.8,0,.9.2-.5,2.1-.9,6.1-.8,7.6-.2.4-1.1.4-1.3.1-.2-1.2-.5-3.1-1.2-3.6-1.1-.8-3-1.2-5.8-1.2h-3.5c-1.5,0-1.4,0-1.4,1.7v22.2h0Z"/>
    <path class="st1" d="M736.3,135c0,5.3.3,6.1,3,6.3l1.9.2c.3.3.2,1.1-.1,1.2-3.1-.1-4.8-.2-6.8-.2s-3.9,0-6.5.2c-.3-.2-.4-.9-.1-1.2l1.5-.2c2.9-.3,3-1,3-6.3v-2.5c0-2.7-.2-3.4-1.6-6.2l-5.9-11.5c-1.7-3.3-2.4-3.5-3.9-3.8l-1.4-.2c-.3-.4-.2-1.1.1-1.2,1.6.1,3.4.2,5.8.2s4.1,0,5.3-.2c.5.2.5.9.2,1.2h-.6c-1.7.4-2.1.6-2.1,1s1.3,3.3,1.5,3.8c1.8,3.7,3.7,7.6,5.6,11.1,1.5-2.6,3.2-5.5,4.7-8.4,1.4-2.6,3.2-6,3.2-6.6s-.9-.6-2.1-.8h-.9c-.3-.5-.3-1.2.1-1.4,1.8.1,3.2.2,4.8.2s2.9,0,4.6-.2c.4.2.5.9.1,1.2l-1.4.2c-2.6.4-4.1,3.6-6.6,7.9l-3.1,5.4c-2.2,3.7-2.3,4.2-2.3,8.1v2.6Z"/>
  </g>
</svg>