<svg width="941" height="244" viewBox="0 0 941 244" fill="none" xmlns="http://www.w3.org/2000/svg">
<path d="M357.315 205.397C357.315 217.336 365.086 222.84 375.163 222.84C389.206 222.84 392.444 213.572 392.444 204.749V180.548C392.444 172.939 385.524 176.055 385.524 173.263C385.524 172.899 386.05 172.534 386.252 172.534C389.166 172.534 392.08 172.777 394.994 172.777C396.41 172.777 397.746 172.534 399.122 172.534C399.486 172.534 400.093 172.899 400.093 173.344C400.093 175.408 395.682 173.789 395.682 180.629V203.819C395.682 207.501 396.572 225.956 374.88 225.956C355.251 225.956 351.487 214.948 351.487 203.454V178.241C351.487 173.83 345.417 175.61 345.417 173.263C345.417 172.737 346.671 172.534 347.076 172.534C349.019 172.534 350.88 172.777 352.904 172.777C355.292 172.777 357.68 172.534 359.986 172.534C360.351 172.534 362.374 172.373 362.374 173.263C362.374 175.286 357.396 173.263 357.396 178.605V205.437L357.315 205.397Z" fill="#002169"/>
<path d="M428.38 187.225C428.38 171.644 419.315 176.015 419.315 173.222C419.315 172.777 420.084 172.494 420.448 172.494C421.662 172.494 422.755 172.736 423.969 172.736C425.102 172.736 426.276 172.494 427.409 172.494C428.218 172.494 428.906 173.667 429.352 174.193L465.047 213.936C465.492 214.462 465.775 214.786 465.937 214.786C466.099 214.786 466.18 214.584 466.18 213.936V182.652C466.18 172.858 457.884 175.691 457.884 173.222C457.884 172.696 458.248 172.494 458.693 172.494C460.919 172.494 463.104 172.736 465.533 172.736C468.042 172.736 471.28 172.494 473.101 172.494C473.546 172.494 473.829 172.696 473.829 173.141C473.829 175.084 469.418 173.708 469.418 179.212V222.556C469.418 224.742 469.337 225.754 468.73 225.754C468.204 225.754 467.475 225.389 465.897 223.649L433.682 187.387C433.682 187.387 432.63 185.971 432.104 185.971C431.78 185.971 431.618 186.173 431.618 187.711V218.266C431.618 224.985 438.174 222.394 438.174 224.378C438.174 224.742 438.093 225.349 437.365 225.349C435.584 225.349 433.48 225.066 429.797 225.066C427.166 225.066 423.281 225.349 422.755 225.349C421.864 225.349 421.783 224.904 421.783 224.499C421.783 221.868 428.34 225.187 428.34 214.705V187.144L428.38 187.225Z" fill="#002169"/>
<path d="M504.145 178.927C504.104 173.464 498.115 174.961 498.115 173.342C498.115 172.654 498.276 172.533 498.843 172.533C501.595 172.533 504.307 172.776 507.059 172.776C509.365 172.776 511.713 172.533 514.02 172.533C515.234 172.533 515.477 172.654 515.477 173.261C515.477 175.042 510.094 173.342 510.094 178.968V219.115C510.094 224.214 516.772 222.474 516.772 224.7C516.772 225.226 516.529 225.469 515.274 225.469C513.534 225.469 510.337 225.186 507.099 225.186C502.566 225.186 500.988 225.469 499.936 225.469C498.6 225.469 498.357 225.105 498.357 224.336C498.357 222.15 504.185 224.619 504.185 217.253V179.008L504.145 178.927Z" fill="#002169"/>
<path d="M540.127 178.281C538.225 173.789 534.339 175.205 534.339 173.546C534.339 172.858 534.744 172.494 535.392 172.494C537.698 172.494 540.046 172.736 542.272 172.736C544.295 172.736 547.128 172.494 548.18 172.494C548.626 172.494 549.233 172.777 549.233 173.263C549.314 174.315 546.157 174.396 546.157 177.107C546.157 178.16 546.521 179.333 546.845 180.021L559.958 210.86C561.576 214.826 562.143 216.526 562.952 216.526C563.681 216.526 563.924 215.353 564.288 214.422L577.279 182.328C577.724 181.195 578.615 178.807 578.331 177.229C578.331 173.789 573.556 175.205 573.556 173.465C573.556 172.736 573.92 172.494 574.689 172.494C576.308 172.494 577.967 172.736 579.626 172.736C583.228 172.736 584.362 172.494 585.373 172.494C586.223 172.494 586.668 172.777 586.668 173.465C586.668 175.124 584.564 173.263 582.459 178.281L563.843 222.354C563.033 224.216 562.507 226.684 561.374 226.684C560.2 226.684 559.27 223.528 558.622 221.99L540.167 178.281H540.127Z" fill="#002169"/>
<path d="M675.337 177.673C675.337 174.759 676.916 174.88 679.627 174.88C686.952 174.88 693.954 177.956 693.954 187.062C693.954 196.168 686.75 197.706 683.512 197.706C679.991 197.706 675.337 198.07 675.337 196.654V177.673ZM690.109 198.313C695.37 196.208 699.539 191.231 699.539 185.362C699.539 170.955 682.986 172.492 681.813 172.492C677.927 172.492 673.637 172.735 669.307 172.735C665.503 172.735 665.867 172.492 664.531 172.492C663.641 172.492 663.034 172.938 663.034 173.342C663.034 175.892 669.469 172.816 669.469 179.98V218.022C669.469 223.729 664.005 222.636 664.005 224.538C664.005 224.983 664.329 225.388 664.734 225.388C667.567 225.388 670.44 225.145 673.273 225.145C679.506 225.145 681.205 225.388 681.853 225.388C682.46 225.388 683.108 225.55 683.108 224.781C683.108 222.231 675.297 224.538 675.297 218.103V202.36C675.297 201.591 674.852 200.256 677.28 200.256C685.657 200.256 684.565 200.013 687.236 204.222L695.573 217.294C698.406 221.543 701.32 225.388 706.783 225.388C707.471 225.388 711.64 225.388 711.64 224.498C711.64 222.677 707.957 225.469 702.574 217.253L690.069 198.353L690.109 198.313Z" fill="#002169"/>
<path d="M726.127 212.111C725.843 210.613 726.208 209.763 726.977 209.763C728.029 209.763 728.029 210.654 728.434 212.232C729.324 215.672 733.816 223.483 744.136 223.483C751.3 223.483 758.301 219.517 758.301 211.666C758.301 197.258 727.826 205.312 727.826 185.805C727.826 176.294 735.799 171.721 744.46 171.721C753.566 171.721 756.035 174.432 757.128 174.432C757.816 174.432 757.937 173.582 758.706 173.582C759.151 173.582 759.515 173.825 759.596 174.635L760.689 184.793C760.77 185.4 760.608 185.926 759.88 185.926C759.07 185.926 758.544 184.388 758.342 183.7C756.075 177.265 750.571 173.987 743.974 173.987C738.025 173.987 731.712 176.82 731.712 183.7C731.712 197.744 762.227 189.528 762.227 210.168C762.227 216.441 757.856 225.871 740.777 225.871C735.192 225.871 728.393 223.078 728.11 221.743L726.248 212.111H726.127Z" fill="#002169"/>
<path d="M790.725 178.927C790.644 173.464 784.654 174.961 784.654 173.342C784.654 172.654 784.816 172.533 785.423 172.533C788.175 172.533 790.887 172.776 793.639 172.776C795.945 172.776 798.293 172.533 800.6 172.533C801.814 172.533 802.057 172.654 802.057 173.261C802.057 175.042 796.674 173.342 796.674 178.968V219.115C796.674 224.214 803.311 222.474 803.311 224.7C803.311 225.226 803.068 225.469 801.814 225.469C800.073 225.469 796.876 225.186 793.639 225.186C789.065 225.186 787.527 225.469 786.475 225.469C785.099 225.469 784.897 225.105 784.897 224.336C784.897 222.15 790.725 224.619 790.725 217.253V179.008V178.927Z" fill="#002169"/>
<path d="M842.278 180.021C842.278 179.495 842.562 176.662 841.51 176.581H829.328C824.674 176.581 824.512 177.714 823.176 181.802C822.933 182.53 822.893 183.502 821.921 183.502C821.476 183.502 821.153 182.976 821.153 182.611L822.002 175.367C822.083 174.477 822.002 172.494 823.338 172.494C829.166 172.494 834.953 172.736 844.585 172.736C858.143 172.736 864.983 172.494 866.48 172.494C868.22 172.494 868.585 172.939 868.706 174.639L869.07 180.588C869.151 181.316 869.232 182.247 868.22 182.247C865.428 182.247 869.515 176.581 861.866 176.581H851.142C847.782 176.581 848.187 176.257 848.187 180.224V218.347C848.187 224.62 854.258 222.152 854.258 224.499C854.258 224.701 854.339 225.389 853.57 225.389C851.789 225.389 849.685 225.106 847.499 225.106C839.122 225.106 837.705 225.389 837.26 225.389C836.572 225.389 836.37 225.187 836.37 224.418C836.37 222.637 842.278 223.366 842.278 218.873V180.021Z" fill="#002169"/>
<path d="M888.62 177.18C886.678 173.983 882.995 174.873 882.995 173.578C882.995 173.052 883.44 172.445 883.966 172.445C885.99 172.445 887.447 172.688 892.506 172.688C894.974 172.688 896.998 172.445 897.767 172.445C898.252 172.445 899.183 172.526 899.183 173.214C899.183 174.468 895.662 174.549 895.662 176.735C895.662 177.949 896.553 179.123 896.998 179.811L906.063 194.259C906.67 195.149 907.116 195.594 907.561 195.594C907.925 195.594 908.37 195.068 908.977 194.097L916.667 181.632C917.193 180.822 918.245 179.527 918.245 177.504C918.245 173.821 912.62 175.399 912.62 173.618C912.62 172.647 913.389 172.485 914.198 172.485C915.979 172.485 917.84 172.728 919.662 172.728C921.807 172.728 923.992 172.485 926.137 172.485C926.582 172.485 926.946 172.971 926.946 173.376C926.946 174.185 925.692 174.509 925.166 174.833C923.142 176.006 922.171 178.111 920.957 179.972L910.515 196.282C909.301 198.144 908.694 198.508 908.694 199.641V217.975C908.694 224.491 914.846 222.386 914.846 224.693C914.846 225.381 914.198 225.462 913.146 225.462C912.013 225.462 907.682 225.179 904.93 225.179C901.571 225.179 898.86 225.462 898.212 225.462C897.564 225.462 897.079 225.381 897.079 224.572C897.079 222.467 902.826 224.41 902.826 219.108V201.017C902.826 199.601 901.693 198.103 901.085 197.213L888.58 177.261L888.62 177.18Z" fill="#002169"/>
<path d="M615.764 193.857C615.764 196.407 615.602 196.407 618.597 196.407H626.65C634.421 196.407 632.397 190.417 634.178 190.417C634.745 190.417 634.988 191.267 634.988 191.834C634.988 194.464 634.866 197.014 634.866 199.442C634.866 201.385 634.988 203.328 634.988 205.311C634.988 205.999 634.704 206.282 634.178 206.282C631.912 206.282 634.421 199.726 628.148 199.726H617.099C615.521 199.726 615.723 200.98 615.723 202.113V215.833C615.723 220.244 615.116 222.025 621.389 222.025C638.589 222.025 641.099 214.336 642.11 214.336C642.637 214.336 642.717 215.105 642.717 215.226C642.717 217.897 640.775 220.528 638.954 222.47C636.566 225.101 634.907 224.98 631.669 224.98C626.003 224.98 620.337 224.575 614.631 224.737C611.636 224.818 608.519 224.98 605.525 224.98C604.877 224.98 604.391 224.818 604.391 224.251C604.553 223.361 605.282 223.523 607.67 222.309C609.612 221.418 609.774 219.314 609.774 215.833V181.676C609.774 178.276 609.774 174.674 605.727 174.067C605.12 173.905 603.501 173.784 603.501 172.934C603.501 172.327 603.946 172.043 606.132 172.043C620.216 172.043 624.101 172.246 627.258 172.246C628.755 172.246 635.595 172.043 637.901 172.043C638.508 172.043 638.67 172.812 638.67 173.703C638.67 182.04 637.618 182.606 637.173 182.606C635.352 182.606 636.566 179.004 635.352 177.305C633.45 174.755 625.679 175.2 622.725 175.2C615.561 175.2 615.723 174.917 615.723 179.935V193.817L615.764 193.857Z" fill="#002169"/>
<path d="M658.26 14.1685C693.47 14.1685 715.648 46.1001 715.648 78.9222C715.648 111.744 694.562 133.356 668.175 133.356C632.48 133.356 610.625 101.1 610.625 67.7522C610.625 39.2605 627.947 14.1685 658.26 14.1685ZM660.607 138.819C700.835 138.819 728.72 112.635 728.72 72.0826C728.72 34.7682 700.431 8.21924 663.683 8.21924C626.935 8.21924 597.513 35.4563 597.513 73.0134C597.513 110.571 621.431 138.86 660.607 138.86V138.819Z" fill="#002169"/>
<path d="M765.149 22.2593C765.149 15.4197 768.832 15.784 775.105 15.784C792.305 15.784 808.575 22.9473 808.575 44.316C808.575 65.6848 791.779 69.1653 784.211 69.1653C775.955 69.1653 765.109 70.0152 765.109 66.6965V22.2593H765.149ZM799.671 70.5818C811.974 65.7252 821.809 53.9482 821.809 40.3094C821.809 6.47561 783.037 9.99659 780.204 9.99659C771.058 9.99659 761.143 10.7251 751.065 10.7251C742.121 10.7251 742.971 9.99659 739.855 9.99659C737.75 9.99659 736.374 11.0488 736.374 12.1011C736.374 18.0503 751.389 10.887 751.389 27.6824V116.759C751.389 130.074 738.6 127.646 738.6 132.017C738.6 133.069 739.329 133.959 740.34 133.959C746.978 133.959 753.615 133.231 760.212 133.231C774.741 133.231 778.747 133.959 780.326 133.959C781.702 133.959 783.28 134.324 783.28 132.543C783.28 126.553 765.068 132.017 765.068 116.921V79.9306C765.068 78.1903 764.016 75.0336 769.601 75.0336C789.27 75.0336 786.639 74.5074 792.953 84.3419L812.419 115.059C819.097 125.056 825.896 134 838.685 134C840.263 134 854.145 134 854.145 131.895C854.145 127.686 841.518 134.162 828.891 114.857L799.631 70.5818H799.671Z" fill="#002169"/>
<path d="M850.783 21.0105C846.251 13.4424 837.671 15.5873 837.671 12.5925C837.671 11.3783 838.723 9.96186 839.978 9.96186C844.713 9.96186 847.991 10.7308 859.93 10.7308C865.677 10.7308 870.412 9.96186 872.152 9.96186C873.366 9.96186 875.471 10.1642 875.471 11.7021C875.471 14.6565 867.255 14.8589 867.255 19.9177C867.255 22.7102 869.36 25.5027 870.412 27.0811L891.538 60.9149C892.914 63.0194 893.966 64.0717 895.018 64.0717C895.868 64.0717 896.92 62.8171 898.296 60.5507L916.346 31.2901C917.561 29.388 920.029 26.3931 920.029 21.658C920.029 13.0781 906.917 16.761 906.917 12.552C906.917 10.2856 908.657 9.92139 910.559 9.92139C914.768 9.92139 919.139 10.6903 923.307 10.6903C928.366 10.6903 933.425 9.92139 938.484 9.92139C939.536 9.92139 940.427 11.176 940.427 12.0259C940.427 13.9685 937.472 14.6565 936.218 15.385C931.523 18.1775 929.216 23.0745 926.424 27.4858L901.939 65.6905C899.146 70.0614 897.73 70.9517 897.73 73.5824V116.522C897.73 131.78 912.097 126.842 912.097 132.306C912.097 133.884 910.519 134.046 908.09 134.046C905.46 134.046 895.301 133.277 888.907 133.277C881.096 133.277 874.783 134.046 873.204 134.046C871.626 134.046 870.574 133.884 870.574 131.942C870.574 127.045 884.051 131.577 884.051 119.153V76.7796C884.051 73.4609 881.42 69.94 880.044 67.8355L850.824 21.0509L850.783 21.0105Z" fill="#002169"/>
<path d="M577.561 117.819C578.411 132.51 591.362 126.034 591.362 132.145C591.362 133.886 589.055 133.886 587.153 133.886C583.834 133.886 577.683 133.117 570.762 133.117C565.339 133.117 559.754 133.886 555.626 133.886C554.048 133.886 553.683 132.995 553.683 132.307C553.683 127.046 564.692 130.891 564.53 117.981L559.754 50.1106C559.754 45.7398 558.904 43.271 557.811 43.271C556.557 43.271 554.978 44.8494 553.238 48.5323L517.017 122.311C516.126 123.889 513.334 131.053 511.594 131.053C509.853 131.053 508.639 127.208 508.073 125.953L470.799 47.9657C470.273 46.5492 469.382 46.0231 468.694 46.0231C468.168 46.0231 467.642 46.9134 467.521 48.6537L462.381 110.048C461.49 133.279 478.083 125.589 478.083 131.903C478.083 133.643 476.181 133.845 473.713 133.845C471.446 133.845 463.554 133.076 458.415 133.076C449.309 133.076 446.354 133.845 442.955 133.845C441.7 133.845 441.214 132.955 441.214 131.741C441.214 125.792 452.384 132.955 453.598 114.743C455.743 86.1704 457.807 67.5941 457.807 49.0584C457.807 7.85887 444.25 17.6933 444.25 11.7441C444.25 10.1657 445.626 9.80148 447.204 9.80148C450.361 9.80148 453.477 10.5704 456.836 10.5704C459.952 10.5704 463.069 9.80148 466.145 9.80148C468.613 9.80148 468.937 12.7559 469.827 14.6985L511.594 103.694C513.536 107.377 514.224 108.956 515.479 108.956C516.329 108.956 518.069 105.273 520.902 99.4853L562.668 15.7507C563.68 13.8081 565.096 9.59912 567.16 9.80148C568.901 9.80148 574.486 10.5704 575.335 10.5704C579.383 10.5704 580.961 9.80148 583.753 9.80148C584.806 9.80148 585.534 10.8537 585.534 11.906C585.534 17.5314 571.531 10.0038 572.219 30.8464L577.521 117.778L577.561 117.819Z" fill="#002169"/>
<path d="M364.847 61.0702C364.847 67.0195 364.523 67.0195 371.484 67.0195H390.343C408.474 67.0195 403.82 52.976 407.948 52.976C409.324 52.976 409.85 54.8782 409.85 56.2947C409.85 62.4463 409.608 68.3955 409.608 73.94C409.608 78.4728 409.85 83.046 409.85 87.7811C409.85 89.3595 409.162 90.0475 407.948 90.0475C402.566 90.0475 408.474 74.628 393.864 74.628H368.003C364.321 74.628 364.847 77.6229 364.847 80.2535V112.468C364.847 122.829 363.471 126.998 378.121 126.998C418.39 126.998 424.339 108.947 426.605 108.947C427.82 108.947 427.981 110.688 427.981 111.052C427.981 117.365 423.449 123.477 419.28 128.05C413.655 134.404 409.81 134.08 402.201 134.08C388.927 134.08 375.652 132.987 362.378 133.352C355.417 133.554 348.092 134.08 341.131 134.08C339.552 134.08 338.5 133.716 338.5 132.299C338.824 130.195 340.604 130.519 346.189 127.686C350.722 125.581 351.086 120.684 351.086 112.428V32.6596C351.086 24.7677 351.087 16.3497 341.616 14.9332C340.24 14.6095 336.396 14.2452 336.396 12.2217C336.396 10.8457 337.448 10.1172 342.507 10.1172C375.45 10.1172 384.516 10.8457 391.881 10.8457C395.362 10.8457 411.388 10.1172 416.811 10.1172C418.188 10.1172 418.552 11.8574 418.552 13.9619C418.552 33.4285 416.123 34.8045 415.071 34.8045C410.862 34.8045 413.655 26.3866 410.862 22.3799C406.37 16.4307 388.239 17.4829 381.237 17.4829C364.482 17.4829 364.806 16.7949 364.806 28.5315V61.1107L364.847 61.0702Z" fill="#002169"/>
<path d="M110.238 236.472C-4.69944 183.334 9.06071 64.6323 9.14165 9.10599L212.509 9.30834C212.509 64.8346 225.257 183.577 110.238 236.472ZM9.10118 0L0.359434 9.2274C0.238021 15.8647 0.116608 24.2017 0.0761369 28.3297C-0.773755 93.5286 3.67807 194.949 109.753 244C165.886 217.977 208.381 173.297 219.51 104.011C226.026 63.9038 222.1 25.7801 222.181 0.121413L9.18212 0.0404711L9.10118 0Z" fill="#002169"/>
<path d="M66.7746 145.731C58.64 154.432 50.5862 163.053 47.8747 165.966C47.2676 166.614 47.1867 167.302 47.5509 167.747C48.1175 168.354 48.8864 169.164 49.1697 169.204C49.6554 169.326 50.0196 169.528 50.91 168.597C51.2742 168.192 60.2183 159.572 70.7813 149.373C70.7813 149.373 69.729 148.847 68.7982 147.997C67.8674 147.147 66.7746 145.771 66.7746 145.771V145.731Z" fill="#002169"/>
<path d="M72.2408 143.427C74.3048 145.451 77.7044 147.393 77.7044 147.393L75.8427 149.174C75.1547 149.943 72.5241 148.729 69.9744 146.462C67.4652 144.196 65.9678 141.727 66.6962 140.958L68.7603 139.097C68.7603 139.097 70.2172 141.444 72.2812 143.427H72.2408Z" fill="#002169"/>
<path d="M165.116 165.81C166.776 164.111 166.857 162.573 166.857 162.573L168.718 163.463C169.244 164.03 168.799 166.175 167.099 167.834C165.4 169.493 163.093 170.06 162.526 169.493L161.555 167.51C161.555 167.51 163.376 167.51 165.116 165.77V165.81Z" fill="#002169"/>
<path d="M162.366 162.853C163.458 161.881 163.823 160.546 163.823 160.546L164.996 161.355C165.401 161.76 165.037 163.136 163.782 164.31C162.528 165.524 160.828 165.969 160.423 165.524L159.735 164.229C159.735 164.229 161.233 163.824 162.325 162.853H162.366Z" fill="#002169"/>
<path d="M167.99 70.0129L165.845 71.915C162.891 73.0482 156.172 67.9084 150.871 63.2947C147.35 60.1784 140.227 52.3675 142.25 49.2107L143.141 48.3204C142.493 47.9157 141.967 47.5919 141.562 47.3895C140.955 47.0658 140.186 46.8634 139.296 46.9848C138.446 47.0658 137.799 47.43 137.718 48.118C137.556 49.5345 138.365 51.3962 139.539 53.6221C140.632 55.848 145.083 62.2424 153.947 69.3249C157.994 72.5625 162.648 74.5456 166.007 75.8002C166.614 76.0026 168.718 76.4478 169.649 75.5574C170.58 74.6266 169.568 73.0077 168.84 71.4293C168.678 71.0246 168.354 70.5795 168.03 70.0938L167.99 70.0129Z" fill="#002169"/>
<path d="M75.7574 36.8648C75.7574 37.5123 75.7574 38.2813 75.7574 39.0502C75.7574 41.1952 77.7405 59.0834 88.0201 71.9532C96.9237 83.0423 123.756 115.055 128.046 120.154C132.053 124.93 158.399 155.728 161.718 159.654C161.88 159.816 162.042 160.018 162.042 160.059C162.042 160.059 161.677 160.909 160.908 161.556C160.059 162.204 159.168 162.285 159.168 162.285C159.047 162.204 158.48 161.597 158.359 161.475C157.387 160.342 111.898 114.853 107.446 110.563C102.994 106.273 79.5617 83.6089 69.8891 77.3763C61.5116 72.0341 57.7073 69.0393 48.5204 68.2703C48.5204 68.2703 41.964 68.0275 41.5593 67.7037C41.4784 67.6633 41.5593 67.38 41.7617 67.299C45.8088 65.6397 54.672 60.4999 61.633 53.8626C71.427 44.5948 74.5432 38.0385 75.0289 37.0672C75.1503 36.8243 75.7169 36.7434 75.7169 36.9457L75.7574 36.8648ZM82.1923 75.4337C72.722 66.0444 69.1201 63.859 64.8707 61.9973C62.6448 61.026 60.4593 60.338 59.8118 60.5808C57.9501 61.2688 55.1576 62.483 53.4578 64.0209C52.2032 65.1136 52.3246 65.6397 53.0126 66.004C53.7007 66.3682 58.5167 67.4204 62.8876 69.7678C70.5771 73.8553 84.9443 83.8922 116.309 116.309C132.255 132.781 157.347 158.278 157.347 158.278L157.995 157.792C157.995 157.792 121.49 116.836 93.0385 86.5633C88.9914 82.2733 85.43 78.5905 82.2732 75.4337H82.1923Z" fill="#002169"/>
<path d="M54.1011 55.9747C49.9325 59.4552 44.7522 62.6524 40.1385 64.5141C37.2651 65.7282 33.1775 64.3927 36.0914 58.8077C36.9818 57.1079 38.2364 55.0034 39.9767 52.6965C45.4403 45.4117 55.2342 36.4676 64.7449 31.3278C67.6184 29.7494 70.2895 28.7781 71.5036 28.8186C73.8509 28.9805 73.9723 30.9636 73.5676 32.8252C72.6368 36.9533 65.7567 46.1807 54.0606 55.9747H54.1011ZM57.015 50.6325C58.0672 49.7421 61.8715 45.8569 65.0282 42.0931C68.3873 38.1269 70.1681 34.606 70.1681 34.606C70.1681 34.606 70.6537 33.5132 70.6132 32.7443C70.5323 32.1372 69.9252 31.8944 69.6824 31.692C69.3182 31.3683 61.1025 35.0916 57.5006 38.4507C57.0554 38.8554 56.2865 40.5147 55.9223 41.7289C55.5985 42.7406 58.31 45.6546 56.5293 50.0659C56.2865 50.673 56.8531 50.7539 57.015 50.592V50.6325Z" fill="#002169"/>
<path d="M106.804 113.079C104.902 114.9 75.3174 143.27 75.3174 143.27C75.7626 143.715 77.0172 144.606 77.0172 144.606C77.0172 144.606 104.173 118.502 106.197 116.64C106.763 116.114 107.937 115.021 108.382 114.657L106.844 113.119L106.804 113.079Z" fill="#002169"/>
<path d="M162.569 78.1141C162.974 78.0736 163.419 78.0332 163.824 78.0332C164.269 78.0332 164.836 77.9118 164.957 77.7903C165.2 77.588 165.362 77.3047 164.876 77.3047C163.46 77.2642 160.991 76.5762 158.117 75.2002C156.377 75.6858 153.504 76.4548 150.145 77.9522C145.895 79.8544 136.546 85.4798 117.403 103.004L118.901 104.744C125.538 98.7543 134.401 90.9434 139.217 87.7867C147.757 82.2017 153.949 79.733 158.077 78.7212C159.291 78.4379 161.153 78.1951 162.569 78.1141Z" fill="#002169"/>
<path d="M143.908 64.1859C138.647 58.7224 136.988 54.7967 136.138 51.8827C136.138 51.7613 136.057 51.6804 136.016 51.5995C136.016 51.559 135.773 51.5185 135.733 51.7209C135.733 51.8423 135.652 51.9637 135.652 52.0851C135.207 57.7511 135.693 60.0984 133.345 65.8857C131.362 70.7018 127.841 76.8129 123.066 82.4384C120.273 85.6761 115.578 91.0183 111.208 95.9557L114.243 99.5577C114.526 99.1934 115.497 98.1816 116.631 97.008C131.2 81.4266 143.908 71.754 148.481 68.3949C146.822 67.0189 145.284 65.562 143.949 64.1455L143.908 64.1859Z" fill="#002169"/>
<path d="M100.686 107.49C94.5344 114.451 88.3423 121.291 86.5616 123.274C85.0237 124.974 71.5873 139.422 71.5873 139.422C71.5873 139.422 71.911 139.988 72.3158 140.474C72.7205 140.96 73.4489 141.567 73.4489 141.567C73.4489 141.567 101.698 112.59 103.802 110.364L100.686 107.45V107.49Z" fill="#002169"/>
<path d="M149.091 45.0412C149.091 44.7984 149.091 44.6365 149.091 44.3937C147.634 43.989 146.501 44.0295 145.894 44.677C144.032 46.6601 148.16 53.4592 155.04 59.8941C161.961 66.2885 169.043 69.85 170.905 67.8669C171.674 67.0575 171.431 65.4791 170.419 63.4556C160.383 64.6292 149.01 51.4357 149.01 45.0412H149.091Z" fill="#002169"/>
<path d="M180.214 47.5922C179.243 48.7254 177.583 51.3155 176.571 52.2059C177.664 51.2346 178.271 48.9278 177.098 42.8166C176.248 38.5672 175.762 37.1102 175.195 35.7342C174.872 34.9248 174.386 35.1271 173.819 35.7342C173.293 36.3413 171.998 38.5672 171.958 38.6886C171.836 39.2147 171.958 38.6886 169.975 32.537C168.72 28.6113 168.194 25.8997 168.234 24.4832C168.234 23.7548 168.315 22.9858 168.356 22.4597C168.356 21.974 168.113 21.974 166.858 22.5406C166.211 22.8239 160.909 26.5068 158.724 32.0513C157.469 35.2485 157.348 37.9196 157.186 36.3008C156.822 33.144 156.862 33.1845 156.538 33.3059C154.798 33.8725 148.687 36.665 148.646 44.9211C148.646 51.9631 161.881 66.8969 172.646 63.4973C172.646 63.4973 180.821 61.9594 180.942 54.5937C181.104 47.228 180.254 47.5922 180.254 47.5922H180.214ZM177.543 56.7387C177.138 57.4671 175.641 59.4098 173.293 60.4215C170.744 61.5547 167.344 61.7166 165.563 61.1905C157.631 58.7217 152.855 50.6275 152.855 50.6275C146.623 40.5098 155 36.1794 155.688 36.058C155.688 36.058 154.798 39.3766 155.365 41.643C155.85 43.6665 157.024 45.2044 157.429 46.3376C158.198 48.5635 157.145 50.1419 156.619 50.8299C156.336 51.1941 157.064 50.9918 157.267 50.9108C157.388 50.8299 157.469 50.7085 157.752 50.5061C158.926 49.6562 159.978 48.3207 159.614 46.9042C158.886 43.7879 156.619 41.8048 159.29 35.3699C160.909 31.4443 164.673 27.559 165.037 27.3162C165.644 26.9115 166.009 26.3854 166.049 26.8306C166.049 27.2757 166.737 30.1492 167.101 32.0513C167.466 33.913 169.61 37.7577 169.165 43.0595C168.68 48.3612 160.019 54.189 158.845 54.5532C158.44 54.6746 157.833 55.0389 157.672 55.2008C157.348 55.4841 157.793 55.565 158.036 55.6055C158.481 55.6864 162.164 54.7961 165.118 52.732C167.587 50.9918 169.975 48.4016 170.784 46.8637C172.282 43.9903 173.051 40.0646 173.172 39.7004C173.415 39.0933 173.698 39.1338 173.739 39.4575C173.819 39.7813 174.427 42.0881 174.669 43.3023C174.791 43.9498 175.155 45.8115 175.195 47.835C175.195 51.8012 174.062 53.6629 171.715 55.4436C170.379 56.4554 168.922 56.8601 167.304 57.022L166.737 57.1029C166.494 57.1029 166.292 57.2243 166.778 57.4671C166.899 57.5076 167.101 57.5886 167.344 57.71C168.68 58.317 171.432 58.2361 173.253 57.1434C174.062 56.6577 175.155 55.8483 176.652 54.3913C177.179 53.8652 177.948 52.8534 178.028 53.2177C178.15 53.6629 178.271 55.4841 177.543 56.9006V56.7387Z" fill="#002169"/>
</svg>
