<svg width="308" height="42" viewBox="0 0 308 42" fill="none" xmlns="http://www.w3.org/2000/svg">
<g clip-path="url(#clip0_2565_10853)">
<path d="M25.7852 9.81827H27.7906L30.0111 13.4394L32.2315 9.81827H34.2371V18.4364H32.3747V12.7876L30.0828 16.4811H30.0111L27.6474 12.86V18.4364H25.7852V9.81827Z" fill="#18453B"/>
<path d="M36.3865 9.81827H38.2489V18.4364H36.3865V9.81827Z" fill="#18453B"/>
<path d="M39.9678 14.164C39.9292 13.0126 40.3443 11.8928 41.122 11.0508C41.8996 10.2088 42.9764 9.71349 44.1151 9.67384C44.2127 9.66662 44.311 9.66662 44.4087 9.67384C45.0292 9.63741 45.6501 9.7348 46.2306 9.95955C46.8111 10.1843 47.3376 10.5313 47.7751 10.9774L46.5575 12.4259C45.9849 11.8483 45.2169 11.5119 44.4087 11.4844C43.728 11.5015 43.0817 11.7909 42.6117 12.2892C42.1417 12.7875 41.8863 13.4539 41.9018 14.1423C41.8707 14.8193 42.1067 15.4811 42.5579 15.9822C43.0092 16.4833 43.6388 16.7827 44.3084 16.8146H44.4087C44.8298 16.821 45.247 16.7335 45.6308 16.5582C46.0146 16.383 46.3554 16.1243 46.6292 15.8007L47.8468 17.0319C47.4128 17.5362 46.8717 17.9349 46.2639 18.1983C45.6563 18.4616 44.9975 18.5828 44.337 18.5527C43.7726 18.5624 43.212 18.4594 42.687 18.2498C42.1619 18.0403 41.6828 17.7282 41.2771 17.3314C40.8714 16.9346 40.5468 16.4609 40.3223 15.9373C40.0976 15.4137 39.9771 14.8505 39.9678 14.2799V14.164Z" fill="#18453B"/>
<path d="M49.2791 9.81827H51.1413V13.2221H54.5794V9.81827H56.4416V18.4364H54.5794V14.9602H51.1413V18.4364H49.2791V9.81827Z" fill="#18453B"/>
<path d="M58.5188 9.81827H60.381V18.4364H58.5188V9.81827Z" fill="#18453B"/>
<path d="M62.1008 14.1638C62.0904 13.5834 62.1934 13.0066 62.4039 12.4666C62.6144 11.9265 62.9284 11.4337 63.3275 11.0166C63.7268 10.5994 64.2036 10.266 64.7307 10.0356C65.2575 9.80516 65.8243 9.68218 66.3984 9.67369H66.5417C67.7662 9.63108 68.9637 10.0433 69.9082 10.8324L68.7622 12.3533C68.472 12.0604 68.1247 11.8319 67.7425 11.6823C67.3601 11.5327 66.9512 11.4652 66.5417 11.4842C65.8684 11.5162 65.2349 11.8157 64.7788 12.3175C64.3228 12.8193 64.0811 13.4828 64.1065 14.1638C64.0653 14.8494 64.2947 15.5234 64.7447 16.0381C65.1945 16.5527 65.828 16.8658 66.5059 16.9086H66.6849C67.3199 16.9361 67.9472 16.7585 68.4757 16.4017V15.1777H66.6133V13.512H70.3379V17.278C69.3202 18.1602 68.0255 18.6479 66.6849 18.6539C63.9632 18.5816 62.1008 16.6986 62.1008 14.1638Z" fill="#18453B"/>
<path d="M74.922 9.74591H76.6412L80.294 18.4365H78.3601L77.5723 16.4811H73.9909L73.2031 18.4365H71.269L74.922 9.74591ZM76.856 14.8879L75.7099 12.0634L74.5639 14.8879H76.856Z" fill="#18453B"/>
<path d="M81.511 9.81827H83.2301L87.2412 15.1051V9.81827H89.1035V18.4364H87.5277L83.3734 12.9324V18.4364H81.511V9.81827Z" fill="#18453B"/>
<path d="M94.1179 17.2055L95.1923 15.8295C95.9005 16.4744 96.8177 16.8351 97.7707 16.8434C98.5588 16.8434 98.9885 16.5537 98.9885 16.0468C98.9885 15.5398 98.702 15.3226 97.2694 14.9605C95.5504 14.5259 94.476 14.019 94.476 12.3533C94.476 10.76 95.6936 9.74608 97.4842 9.74608C98.6295 9.71629 99.7472 10.1016 100.636 10.8324L99.6331 12.2808C98.9898 11.7834 98.2196 11.4819 97.4126 11.4118C96.6964 11.4118 96.3383 11.7739 96.3383 12.136C96.3383 12.7154 96.6964 12.8602 98.2007 13.2947C99.9196 13.7293 100.922 14.3811 100.922 15.9019C100.922 17.64 99.6331 18.5815 97.7707 18.5815C96.4241 18.6109 95.1172 18.1186 94.1179 17.2055Z" fill="#18453B"/>
<path d="M104.217 11.5564H101.638V9.81827H108.729V11.5564H106.151V18.4364H104.288V11.5564H104.217Z" fill="#18453B"/>
<path d="M111.881 9.74591H113.6L117.253 18.4365H115.319L114.531 16.4811H110.949L110.162 18.4365H108.228L111.881 9.74591ZM113.886 14.8879L112.74 12.0634L111.594 14.8879H113.886Z" fill="#18453B"/>
<path d="M119.402 11.5564H116.823V9.81827H123.914V11.5564H121.336V18.4364H119.473V11.5564H119.402Z" fill="#18453B"/>
<path d="M125.276 9.81827H131.722V11.484H127.138V13.2221H131.149V14.8878H127.138V16.6983H131.794V18.3641H125.276V9.81827Z" fill="#18453B"/>
<path d="M137.022 14.888V9.89087H137.953V14.8156C137.953 16.6985 138.956 17.7124 140.531 17.7124C142.107 17.7124 143.11 16.7709 143.11 14.888V9.89087H144.041V14.8156C144.041 17.3503 142.609 18.6538 140.46 18.6538C138.454 18.5815 137.022 17.2779 137.022 14.888Z" fill="#18453B"/>
<path d="M146.334 9.81827H147.265L152.637 16.6983V9.81827H153.568V18.4364H152.78L147.265 11.3391V18.4364H146.334V9.81827Z" fill="#18453B"/>
<path d="M155.931 9.81827H156.863V18.4364H155.931V9.81827Z" fill="#18453B"/>
<path d="M158.653 9.81827H159.728L162.736 17.2053L165.744 9.81827H166.747L163.094 18.509H162.235L158.653 9.81827Z" fill="#18453B"/>
<path d="M168.394 9.81827H174.554V10.6873H169.326V13.6566H173.981V14.5257H169.326V17.5674H174.554V18.4364H168.323V9.81827H168.394Z" fill="#18453B"/>
<path d="M176.56 9.81814H180.213C180.656 9.78715 181.101 9.84828 181.52 9.99774C181.938 10.1472 182.323 10.3818 182.648 10.6872C182.861 10.9071 183.027 11.1678 183.138 11.4539C183.249 11.7401 183.302 12.0458 183.293 12.3529C183.293 13.8013 182.29 14.598 181.001 14.8877L183.652 18.4363H182.505L180.07 15.1049H177.634V18.4363H176.703V9.81814H176.56ZM180.141 14.2359C181.431 14.2359 182.361 13.5841 182.361 12.4977C182.361 11.4114 181.574 10.832 180.213 10.832H177.563V14.3083H180.141V14.2359Z" fill="#18453B"/>
<path d="M184.726 17.2056L185.3 16.4814C185.682 16.8751 186.14 17.1869 186.643 17.3984C187.148 17.6099 187.689 17.7168 188.236 17.7125C189.382 17.7125 190.169 17.1332 190.169 16.2641C190.169 15.4675 189.739 15.0329 187.95 14.5984C186.016 14.1639 185.085 13.5121 185.085 12.1361C185.085 10.7601 186.229 9.81858 187.877 9.81858C188.979 9.78736 190.053 10.175 190.886 10.9049L190.313 11.6291C189.641 11.026 188.775 10.6913 187.877 10.6877C186.803 10.6877 186.087 11.267 186.087 12.0637C186.087 12.8603 186.517 13.3673 188.38 13.7294C190.24 14.0915 191.172 14.8157 191.172 16.1917C191.172 17.6401 189.954 18.654 188.236 18.654C186.931 18.6184 185.682 18.1036 184.726 17.2056Z" fill="#18453B"/>
<path d="M193.105 9.81827H194.037V18.4364H193.105V9.81827Z" fill="#18453B"/>
<path d="M198.764 10.7599H195.899V9.89087H202.56V10.7599H199.695V18.5091H198.693V10.7599H198.764Z" fill="#18453B"/>
<path d="M207.002 15.0326L203.492 9.81827H204.638L207.503 14.1636L210.368 9.81827H211.514L208.004 15.0326V18.4364H207.002V15.0326Z" fill="#18453B"/>
<path d="M19.1961 1.70707C19.1961 1.70707 17.9783 4.38667 17.3337 5.69026C15.6873 4.9069 13.8802 4.53117 12.0617 4.59414C10.2432 4.65711 8.46568 5.15696 6.87618 6.05237C4.65574 7.42838 2.79345 9.89072 2.65018 12.5703C2.57856 14.3084 3.36646 16.2638 3.07994 18.0744C3.03012 19.0086 2.78605 19.9217 2.36369 20.754C1.79067 21.6955 1.14603 22.4921 0 22.5645C0.21488 22.2749 2.00555 21.4057 1.28928 17.4226C1.00277 15.8293 -1.14603 11.9185 0.931148 7.06627C2.86507 2.57612 11.0305 -2.71065 19.1961 1.70707Z" fill="#18453B"/>
<path d="M9.81275 9.52874C10.9038 9.18793 12.0635 9.13803 13.1792 9.38388C14.1806 9.53087 15.1256 9.94333 15.9182 10.5794C16.7108 11.2154 17.3227 12.0523 17.6917 13.005C18.4797 15.0328 19.0527 16.6261 20.4851 18.3642C20.5568 18.4366 18.3364 18.0021 18.3364 18.0021C18.9094 14.0189 15.1848 13.874 14.1104 15.3225C14.5144 15.7445 15.0081 16.0682 15.5541 16.2689C16.1001 16.4697 16.6841 16.5423 17.2619 16.4812C17.1974 19.0159 17.4623 21.5481 18.0498 24.013C17.1903 23.8683 13.1076 21.4783 11.8899 20.3919C10.1709 20.6817 8.73834 21.3334 6.73279 21.6232C6.87452 20.8816 6.9702 20.1317 7.0193 19.3781C7.0193 17.2779 5.44351 15.3225 6.58954 12.7877C6.85453 12.037 7.28116 11.3552 7.83858 10.7916C8.39601 10.228 9.07031 9.79668 9.81275 9.52874Z" fill="#18453B"/>
<path d="M11.2451 8.29819H11.5316C11.5689 7.9435 11.677 7.60016 11.8494 7.28895C12.0218 6.97774 12.2548 6.70514 12.5344 6.48764C13.1447 5.99929 13.9052 5.74299 14.6832 5.76342C13.6182 5.42918 12.4945 5.33038 11.3884 5.47374L11.2451 8.29819Z" fill="#18453B"/>
<path d="M3.58102 11.9183C3.38219 12.8714 3.35791 13.8532 3.5094 14.8152C3.59452 14.2263 3.84287 13.6739 4.22567 13.2219C4.59071 12.862 5.07688 12.6551 5.58657 12.6425C5.58657 12.6425 5.72982 12.2804 5.6582 12.2804L3.58102 11.9183Z" fill="#18453B"/>
<path d="M5.87303 11.7019C5.95792 11.539 6.02978 11.3695 6.0879 11.195L3.9391 10.3259C3.82224 10.608 3.72647 10.8985 3.65259 11.195L5.87303 11.7019Z" fill="#18453B"/>
<path d="M6.44616 10.905L6.8043 10.4704L4.79875 8.94958C4.57358 9.20078 4.40279 9.4968 4.29736 9.81864L6.44616 10.905Z" fill="#18453B"/>
<path d="M7.16302 10.0354L7.59278 9.60083L5.87374 7.64545C5.61125 7.88813 5.37149 8.15481 5.15747 8.44207L7.16302 10.0354Z" fill="#18453B"/>
<path d="M8.02226 9.38397L8.52365 9.09428L7.23437 6.77679C6.90085 6.92904 6.58793 7.12374 6.30322 7.35616L8.02226 9.38397Z" fill="#18453B"/>
<path d="M8.9535 8.8777L9.5265 8.66043L8.81023 6.05325C8.44402 6.17674 8.08526 6.32183 7.73584 6.48779L8.9535 8.8777Z" fill="#18453B"/>
<path d="M10.0278 8.51496L10.6008 8.37011L10.6725 5.54565C10.6725 5.54565 10.0278 5.69051 9.45483 5.83536L10.0278 8.51496Z" fill="#18453B"/>
<path d="M25.8174 24.0668H32.8534C34.5761 24.0668 35.7731 24.4998 36.5954 25.2833C36.8839 25.5778 37.1106 25.9272 37.2619 26.3108C37.4131 26.6945 37.486 27.1045 37.476 27.5168V27.5556C37.4899 28.2235 37.2927 28.8789 36.9127 29.4282C36.5327 29.9777 35.9892 30.3934 35.3594 30.6163C37.0284 31.1419 38.1086 32.1151 38.1086 33.964V34.003C38.1086 36.358 36.1622 37.7887 32.9167 37.7887H25.8174V24.0668ZM32.4204 32.2026H29.5008V34.728H32.4204C33.5979 34.728 34.2451 34.2804 34.2451 33.4774V33.4386C34.2841 32.6892 33.6953 32.2026 32.4204 32.2026ZM33.7343 28.3099C33.7343 27.5459 33.1259 27.1371 32.0116 27.1371H29.5203V29.5457H31.9094C33.0676 29.5457 33.7343 29.1565 33.7343 28.3487V28.3099Z" fill="#18453B"/>
<path d="M39.2817 24.0721H45.768C47.8651 24.0721 49.3152 24.6171 50.2349 25.532C50.646 25.9519 50.9662 26.4519 51.1756 27.0012C51.3849 27.5504 51.4787 28.1368 51.4514 28.7239V28.7629C51.4847 29.6754 51.2301 30.5753 50.7237 31.3351C50.217 32.0949 49.4844 32.6761 48.6291 32.9961L51.899 37.7794H47.5197L44.7559 33.6238H43.0723V37.7794H39.2817V24.0721ZM45.6074 30.6557C46.8773 30.6557 47.6413 30.028 47.6413 29.0257V28.9867C47.6413 27.8919 46.8385 27.342 45.5879 27.342H43.0771V30.6557H45.6074Z" fill="#18453B"/>
<path d="M52.3318 30.9663V30.9273C52.3318 26.9908 55.5042 23.7939 59.7376 23.7939C63.9709 23.7939 67.1094 26.9519 67.1094 30.8883V30.9273C67.1094 34.8686 63.9319 38.0607 59.6986 38.0607C55.4654 38.0607 52.3318 34.9076 52.3318 30.9663ZM63.2069 30.9663V30.9273C63.2069 28.9275 61.796 27.2244 59.6986 27.2244C57.6015 27.2244 56.2099 28.908 56.2099 30.8883V30.9273C56.1909 31.4039 56.268 31.8796 56.4362 32.3259C56.6046 32.7722 56.861 33.1801 57.19 33.5255C57.5189 33.8708 57.9141 34.1466 58.3516 34.3363C58.7894 34.5262 59.2607 34.6261 59.7376 34.6303C61.8153 34.6303 63.2069 32.9466 63.2069 30.9663Z" fill="#18453B"/>
<path d="M71.9264 23.9698H75.5757L81.4148 37.7841H77.3421L76.3689 35.3122H71.0651L70.0919 37.7841H66.1116L71.9264 23.9698ZM75.2595 32.3587L73.7316 28.4659L72.1843 32.3587H75.2595Z" fill="#18453B"/>
<path d="M82.0623 24.0721H87.371C92.2368 24.0721 95.093 26.8943 95.093 30.8503V30.8891C95.093 34.8501 92.2124 37.7891 87.3076 37.7891H82.0623V24.0721ZM85.8625 27.4199V34.4169H87.4098C89.7016 34.4169 91.21 33.1616 91.21 30.9477V30.9086C91.21 28.7142 89.7016 27.4199 87.4098 27.4199H85.8625Z" fill="#18453B"/>
<path d="M100.981 30.9283V30.8893C100.981 26.9967 103.901 23.7949 107.92 23.7949C108.914 23.7641 109.904 23.9418 110.826 24.3163C111.748 24.6909 112.581 25.2542 113.272 25.9701L112.216 27.1086C111.663 26.5186 110.996 26.0475 110.254 25.7237C109.513 25.4 108.714 25.2305 107.905 25.2256C104.869 25.2256 102.591 27.6974 102.591 30.8505V30.8893C102.591 34.0619 104.883 36.5532 107.905 36.5532C109.783 36.5532 111.019 35.8282 112.333 34.5729L113.35 35.5753C111.92 37.0351 110.353 37.9839 107.866 37.9839C103.901 37.9839 100.981 34.8696 100.981 30.9283Z" fill="#18453B"/>
<path d="M114.679 30.9276V30.8886C114.674 29.033 115.406 27.2511 116.714 25.9353C118.023 24.6195 119.801 23.8772 121.656 23.8721C123.512 23.867 125.294 24.5992 126.61 25.9078C127.926 27.2163 128.668 28.994 128.673 30.8498V30.8886C128.678 32.7445 127.946 34.5263 126.637 35.8421C125.329 37.158 123.551 37.9001 121.695 37.9054C119.84 37.9105 118.058 37.1782 116.742 35.8697C115.426 34.5611 114.684 32.7835 114.679 30.9276ZM127.062 30.9276V30.8886C127.062 27.7746 124.79 25.2249 121.656 25.2249C118.523 25.2249 116.304 27.7356 116.304 30.8498V30.8886C116.304 34.0029 118.576 36.5526 121.715 36.5526C124.853 36.5526 127.062 34.0612 127.062 30.9276Z" fill="#18453B"/>
<path d="M130.926 24.0332H132.473V36.3197H140.19V37.7501H130.945L130.926 24.0332Z" fill="#18453B"/>
<path d="M142.564 24.0332H144.112V36.3197H151.834V37.7501H142.564V24.0332Z" fill="#18453B"/>
<path d="M154.106 24.0332H164.023V25.4444H155.654V30.1254H163.162V31.5364H155.654V36.3392H164.135V37.7501H154.106V24.0332Z" fill="#18453B"/>
<path d="M165.727 30.9288V30.8898C165.727 27.1285 168.491 23.7954 172.602 23.7954C174.481 23.7143 176.317 24.3689 177.721 25.62L176.719 26.7975C175.59 25.7418 174.089 25.1766 172.544 25.226C169.508 25.226 167.333 27.7952 167.333 30.8509V30.8898C167.333 34.1646 169.43 36.5927 172.763 36.5927C174.197 36.5878 175.589 36.105 176.719 35.2205V31.8143H172.544V30.4226H178.208V35.8872C176.69 37.2364 174.73 37.9825 172.7 37.9843C168.388 37.9843 165.727 34.8507 165.727 30.9288Z" fill="#18453B"/>
<path d="M180.816 24.0332H190.733V25.4444H182.364V30.1254H189.847V31.5364H182.364V36.3392H190.829V37.7501H180.816V24.0332Z" fill="#18453B"/>
<path d="M201.19 35.1124C200.532 35.7443 199.666 36.1146 198.757 36.1538C198.378 36.1538 198.006 36.0658 197.669 35.897C197.33 35.7281 197.036 35.4828 196.81 35.1806C196.402 34.5956 196.194 33.8936 196.222 33.1808C196.287 31.5004 196.982 29.9063 198.168 28.7139C198.943 27.8888 200.012 27.4028 201.146 27.361C201.503 27.3517 201.857 27.4292 202.179 27.5868C202.5 27.7445 202.777 27.9776 202.989 28.2661C203.453 29.0142 203.654 29.8967 203.559 30.7722C203.373 32.4753 202.522 34.0357 201.19 35.1124ZM201.642 28.4511C201.512 28.2588 201.337 28.1022 201.131 27.996C200.925 27.8896 200.696 27.8371 200.464 27.8429C199.921 27.8533 199.402 28.0627 199.005 28.4316C198.031 29.3319 197.574 31.2344 197.496 32.6455C197.435 33.4449 197.578 34.2466 197.909 34.9763C198.046 35.2138 198.245 35.4111 198.482 35.5487C198.718 35.6861 198.988 35.7589 199.262 35.7596C199.805 35.7197 200.319 35.4986 200.721 35.1319C201.642 34.2706 202.152 32.446 202.181 30.9375C202.219 30.076 202.034 29.2191 201.642 28.4511Z" fill="#18453B"/>
<path d="M210.477 22.4567C210.205 22.4567 209.733 22.043 209.504 21.6295C209.445 21.5322 209.407 21.5517 209.31 21.5517C209.106 21.5539 208.909 21.6319 208.76 21.7705C208.346 22.1988 207.938 23.0016 207.699 24.5684C207.661 24.7875 207.309 27.0988 207.213 27.9989C207.213 28.1985 207.213 28.218 207.349 28.218H209.032C209.13 28.218 209.13 28.218 209.11 28.2763C209.092 28.3346 209.072 28.3736 209.052 28.4319C209.032 28.4904 209.052 28.4904 208.955 28.4904H207.309C207.174 28.4904 207.154 28.4904 207.111 28.5487C207.111 28.7824 206.467 33.3125 206.249 34.5824C206.101 35.6318 205.871 36.6681 205.563 37.6821C205.312 38.5675 204.805 39.3584 204.104 39.9544C203.881 40.1711 203.617 40.3417 203.329 40.4559C203.039 40.5704 202.731 40.6265 202.42 40.6211C201.734 40.6211 201.379 40.3437 201.397 39.9544C201.419 39.8212 201.488 39.7005 201.594 39.6167C201.7 39.5327 201.833 39.4917 201.968 39.5019C202.122 39.5164 202.274 39.5646 202.409 39.6426C202.543 39.7208 202.66 39.827 202.751 39.9544C202.833 40.061 202.926 40.1589 203.028 40.2464C203.169 40.26 203.309 40.2389 203.44 40.1844C203.57 40.1301 203.684 40.0444 203.772 39.9349C204.127 39.299 204.379 38.6109 204.517 37.8961C204.576 37.7014 204.847 36.2125 205.086 34.6409C205.301 33.1811 205.831 28.7044 205.849 28.6072C205.87 28.5099 205.849 28.4904 205.753 28.4904L204.692 28.5292C204.576 28.5292 204.576 28.5292 204.576 28.4514V28.2763C204.576 28.1985 204.576 28.1985 204.751 28.1985H205.791C205.89 28.1985 205.908 28.1985 205.928 28.1352C206.006 27.7264 206.219 26.257 206.478 25.021C206.763 23.8121 207.38 22.7068 208.259 21.8289C208.775 21.3592 209.443 21.0944 210.141 21.0844C210.867 21.0844 211.257 21.5127 211.217 21.9262C211.144 22.2377 210.931 22.4567 210.477 22.4567Z" fill="#18453B"/>
<path d="M215.363 24.0332H221.202C222.769 24.0332 224.005 24.4857 224.788 25.2497C225.075 25.5377 225.301 25.8805 225.452 26.2574C225.603 26.6344 225.676 27.0381 225.669 27.4442V27.4832C225.681 28.1721 225.481 28.8482 225.091 29.4168C224.703 29.9856 224.145 30.4188 223.498 30.6558C225.124 31.1424 226.418 32.0864 226.418 33.9694V34.0084C226.418 36.3585 224.437 37.7501 221.441 37.7501H215.363V24.0332ZM221.202 31.5171H216.872V36.3829H221.473C223.553 36.3829 224.847 35.4633 224.847 33.9499V33.9111C224.865 32.3831 223.611 31.5171 221.222 31.5171H221.202ZM224.083 27.6583C224.083 26.3057 223.002 25.4249 221.047 25.4249H216.872V30.1691H220.925C222.787 30.1691 224.083 29.3273 224.083 27.7361V27.6583Z" fill="#18453B"/>
<path d="M228.531 32.0084V24.0332H230.078V31.9111C230.078 34.8695 231.664 36.5338 234.272 36.5338C236.798 36.5338 238.409 35.0058 238.409 32.0084V24.0332H239.956V31.8918C239.956 35.8866 237.66 37.9643 234.233 37.9643C230.807 37.9643 228.531 35.8866 228.531 32.0084Z" fill="#18453B"/>
<path d="M241.658 35.7498L242.631 34.616C243.245 35.2393 243.978 35.7329 244.787 36.0671C245.595 36.4015 246.462 36.5699 247.337 36.5624C249.176 36.5624 250.393 35.5892 250.393 34.2317V34.1927C250.393 32.9178 249.706 32.1929 246.827 31.5894C243.674 30.9034 242.223 29.8816 242.223 27.6286V27.5896C242.223 25.4342 244.12 23.8479 246.728 23.8479C248.489 23.7983 250.205 24.3975 251.55 25.5315L250.646 26.7285C249.551 25.7682 248.146 25.239 246.69 25.2395C244.904 25.2395 243.77 26.2127 243.77 27.4535V27.4923C243.77 28.7866 244.476 29.5118 247.494 30.159C250.51 30.8061 251.96 31.9399 251.96 34.0516V34.0613C251.96 36.4115 250.014 37.9541 247.279 37.9541C245.19 37.9783 243.174 37.1877 241.658 35.7498Z" fill="#18453B"/>
<path d="M254.359 24.0332H255.907V37.7501H254.359V24.0332Z" fill="#18453B"/>
<path d="M258.709 24.0332H260.169L268.8 35.035V24.0332H270.309V37.7501H269.073L260.216 26.5052V37.7501H258.703L258.709 24.0332Z" fill="#18453B"/>
<path d="M273.048 24.0332H282.964V25.4444H274.59V30.1301H282.084V31.5413H274.59V36.3392H283.052V37.7501H273.048V24.0332Z" fill="#18453B"/>
<path d="M284.571 35.7508L285.544 34.617C286.974 35.9113 288.347 36.5634 290.246 36.5634C292.143 36.5634 293.3 35.5902 293.306 34.2277V34.1889C293.306 32.9188 292.619 32.1938 289.739 31.5855C286.581 30.8995 285.13 29.8776 285.13 27.6247V27.5858C285.13 25.4302 287.033 23.8439 289.637 23.8439C291.396 23.7943 293.113 24.3936 294.459 25.5275L293.568 26.7196C292.471 25.7603 291.064 25.2312 289.608 25.2306C287.827 25.2306 286.688 26.2038 286.688 27.4446V27.4836C286.688 28.7779 287.394 29.5029 290.415 30.1501C293.437 30.7972 294.882 31.931 294.882 34.0429V34.0622C294.882 36.4125 292.936 37.955 290.197 37.955C288.106 37.9797 286.089 37.1889 284.571 35.7508Z" fill="#18453B"/>
<path d="M296.293 35.7507L297.266 34.6169C298.697 35.9112 300.069 36.5633 301.966 36.5633C303.865 36.5633 305.028 35.5901 305.028 34.2276V34.1888C305.028 32.9187 304.341 32.1937 301.462 31.5856C298.303 30.8994 296.852 29.8775 296.852 27.6246V27.5858C296.852 25.4301 298.755 23.8438 301.363 23.8438C303.122 23.795 304.837 24.3942 306.18 25.5274L305.247 26.7195C304.15 25.7625 302.746 25.2337 301.29 25.2306C299.504 25.2306 298.371 26.2038 298.371 27.4445V27.4835C298.371 28.7778 299.076 29.5028 302.094 30.15C305.11 30.7972 306.561 31.9309 306.561 34.0428V34.0621C306.561 36.4124 304.614 37.955 301.875 37.955C299.799 37.9723 297.797 37.1819 296.293 35.7507Z" fill="#18453B"/>
</g>
<defs>
<clipPath id="clip0_2565_10853">
<rect width="308" height="41.9172" fill="white" transform="translate(0 0.0414124)"/>
</clipPath>
</defs>
</svg>
