<svg width="534" height="214" viewBox="0 0 534 214" fill="none" xmlns="http://www.w3.org/2000/svg">
<g clip-path="url(#clip0_60_80)">
<path d="M89.0445 0V191.428C89.0445 193.967 87.042 195.973 84.5055 195.973H66.8835C64.347 195.973 62.3445 193.967 62.3445 191.428V22.3243C62.3445 10.0259 52.332 0 40.05 0H22.2945C10.0125 0 0 10.0259 0 22.3243V213.752H17.7555V22.3243C17.7555 19.7844 19.758 17.7792 22.2945 17.7792H39.9165C42.453 17.7792 44.4555 19.7844 44.4555 22.3243V191.428C44.4555 203.726 54.468 213.752 66.75 213.752H84.372C96.654 213.752 106.666 203.726 106.666 191.428V0H89.0445Z" fill="black"/>
<path d="M160.2 103.601V41.5741H169.946L197.714 84.7523C199.182 87.0248 199.983 88.4952 200.384 89.431V41.4404H209.595V103.467H199.85L172.082 60.2891C170.613 58.0166 169.812 56.4124 169.412 55.6103V103.601H160.2Z" fill="black"/>
<path d="M272.874 59.6206L281.285 72.9885L289.829 59.6206H300.375L286.625 79.9397L301.977 103.601H291.431L281.285 87.2921L271.139 103.601H260.726L276.479 80.2071L262.595 59.6206H272.874Z" fill="black"/>
<path d="M354.576 96.5159C358.581 96.5159 361.918 95.0454 364.722 92.3718C367.525 89.5646 368.86 85.9553 368.86 81.6775C368.86 77.3998 367.392 73.6568 364.722 70.9833C361.918 68.176 358.581 66.8392 354.576 66.8392C350.571 66.8392 347.233 68.3097 344.43 70.9833C341.626 73.7905 340.291 77.3998 340.291 81.6775C340.291 85.9553 341.76 89.6983 344.43 92.3718C347.233 95.0454 350.571 96.5159 354.576 96.5159ZM378.072 81.5439C378.072 88.7625 375.802 94.377 371.13 98.521C366.457 102.665 360.984 104.67 354.709 104.67C348.435 104.67 343.095 102.665 338.289 98.521C333.616 94.377 331.213 88.6288 331.213 81.5439C331.213 74.3252 333.616 68.7107 338.289 64.5667C342.961 60.4227 348.435 58.4175 354.709 58.4175C360.984 58.4175 366.457 60.4227 371.13 64.5667C375.669 68.7107 378.072 74.3252 378.072 81.5439Z" fill="black"/>
<path d="M392.89 66.9731V59.6208H383.812V103.601H392.89V80.4746C392.89 72.7212 396.495 67.2404 407.309 67.7751V59.2197C399.833 59.2197 394.759 61.6259 392.89 66.9731Z" fill="black"/>
<path d="M384.747 136.486V129.133H375.669V173.114H384.747V149.987C384.747 142.234 388.351 136.753 399.165 137.288V128.732C391.822 128.732 386.616 131.139 384.747 136.486Z" fill="black"/>
<path d="M431.338 96.5161C435.076 96.5161 438.414 95.0456 441.084 92.3721C443.62 89.5648 444.955 85.9555 444.955 81.6778C444.955 77.4001 443.62 73.6571 441.084 70.9835C438.414 68.1762 435.21 66.8395 431.338 66.8395C427.467 66.8395 424.263 68.3099 421.726 70.9835C419.056 73.7907 417.721 77.4001 417.721 81.6778C417.721 85.9555 419.056 89.6985 421.726 92.3721C424.263 95.0456 427.6 96.5161 431.338 96.5161ZM453.366 41.5742V103.601H444.288V96.5161C441.084 102.131 436.278 104.804 429.736 104.804C423.595 104.804 418.522 102.665 414.517 98.3876C410.512 94.1099 408.376 88.4954 408.376 81.6778C408.376 74.8602 410.512 69.2457 414.784 64.968C418.923 60.6903 423.862 58.5514 429.603 58.5514C436.545 58.5514 441.484 61.225 444.288 66.4384V41.7079H453.366V41.5742Z" fill="black"/>
<path d="M209.595 111.087V151.057C209.595 158.409 207.726 164.024 203.321 168.168C198.782 172.312 192.107 174.317 184.898 174.317C177.689 174.317 171.014 172.312 166.608 168.168C162.069 164.157 160.2 158.409 160.2 151.057V111.087H169.412V150.789C169.412 159.612 175.82 165.628 184.898 165.628C193.976 165.628 200.384 159.612 200.384 150.789V111.087H209.595Z" fill="black"/>
<path d="M256.854 173.114H247.776V145.977C247.776 140.362 245.64 136.753 238.698 136.753C232.29 136.753 226.55 142.902 226.55 151.057V173.247H217.472V129.267H226.55V136.887C229.487 130.871 235.227 128.064 241.502 128.064C249.912 128.064 256.854 134.213 256.854 143.838V173.114Z" fill="black"/>
<path d="M265.665 129.133H274.743V173.114H265.665V151.057V129.133Z" fill="black"/>
<path d="M324.672 129.133L307.05 173.114H298.373L280.617 129.133H290.363L302.645 161.751L314.927 129.133H324.672Z" fill="black"/>
<path d="M444.421 129.133H453.366V173.114H444.421V150.522V129.133Z" fill="black"/>
<path d="M476.995 164.291C475.66 164.291 474.726 162.954 474.726 161.751V136.887H485.539V129.133H474.726V111.889H465.781V129.133H459.24V136.887H465.648V161.751C465.648 168.034 470.721 172.98 476.862 172.98H485.673V164.291H476.995Z" fill="black"/>
<path d="M321.334 50.1295H330.145V41.4404H321.334C315.06 41.4404 310.12 46.5202 310.12 52.6694V59.487H303.712V67.2404H310.12V102.531V103.467H319.065V102.531V67.2404H329.878V59.487H319.065V52.6694C319.065 51.4663 320.133 50.1295 321.334 50.1295Z" fill="black"/>
<path d="M265.665 121.647H274.743V111.889H265.665V116.701V121.647Z" fill="black"/>
<path d="M444.421 121.647H453.366V111.889H444.421V116.701V121.647Z" fill="black"/>
<path d="M523.987 129.133L511.705 160.815L499.29 129.133H488.877L506.766 173.381L504.763 178.461C502.894 183.674 500.892 183.407 494.617 183.273V191.829C497.421 191.829 498.756 191.829 500.491 191.829C506.098 191.829 510.237 188.487 512.773 181.936L534 129.133H523.987Z" fill="black"/>
<path d="M260.191 80.3406C260.191 73.9241 258.189 68.7106 254.317 64.4329C250.312 60.4225 245.239 58.2837 238.965 58.2837C232.557 58.2837 227.35 60.5562 222.945 64.8339C218.673 69.1116 216.403 74.7261 216.403 81.5437C216.403 88.2277 218.539 93.8422 222.811 98.2536C227.083 102.531 232.423 104.804 238.431 104.804C247.776 104.804 255.652 99.8577 259.657 90.5002H250.312C248.043 94.9116 244.305 96.9168 238.698 96.9168C230.955 96.9168 225.748 91.436 225.348 83.5489H260.058V80.3406H260.191ZM225.348 76.5976C226.282 73.2557 227.884 70.7158 230.287 68.5769C235.093 64.5666 242.302 64.5666 247.242 68.4433C249.778 70.4484 251.113 72.9883 251.514 76.464H225.348V76.5976Z" fill="black"/>
<path d="M369.261 149.853C369.261 143.437 367.259 138.223 363.387 133.946C359.382 129.935 354.309 127.796 348.035 127.796C341.627 127.796 336.42 130.069 332.015 134.347C327.743 138.624 325.473 144.239 325.473 151.056C325.473 157.74 327.609 163.355 331.881 167.766C336.153 172.044 341.493 174.316 347.501 174.316C356.846 174.316 364.722 169.37 368.727 160.013H359.382C357.113 164.424 353.375 166.429 347.768 166.429C340.025 166.429 334.818 160.949 334.418 153.062H369.128V149.853H369.261ZM334.551 146.11C335.486 142.768 337.088 140.228 339.491 138.09C344.297 134.079 351.506 134.079 356.445 137.956C358.982 139.961 360.317 142.501 360.717 145.977H334.551V146.11Z" fill="black"/>
<path d="M418.789 127.93C414.517 127.93 410.779 129 407.709 131.272C404.638 133.545 403.17 136.486 403.17 140.362C403.17 147.18 408.109 151.591 418.122 153.596C425.464 155.067 428.535 156.938 428.535 160.414C428.535 164.157 424.93 166.697 420.258 166.697C415.051 166.697 411.58 164.424 409.978 160.013H401.167C403.036 168.702 410.379 174.317 420.124 174.317C430.671 174.317 437.079 168.167 437.079 160.013C437.079 152.794 432.273 148.784 422.26 146.779C414.918 145.308 411.313 143.303 411.313 139.828C411.313 136.887 414.651 134.881 419.056 134.881C423.595 134.881 427.734 137.154 428.401 141.298H436.411C435.877 132.342 427.6 127.93 418.789 127.93Z" fill="black"/>
</g>
<defs>
<clipPath id="clip0_60_80">
<rect width="534" height="213.752" fill="white"/>
</clipPath>
</defs>
</svg>
