<svg width="169" height="33" viewBox="0 0 169 33" fill="none" xmlns="http://www.w3.org/2000/svg">
<g clip-path="url(#clip0_1065_19136)">
<path d="M13.3222 6.669H12.1061C12.1123 5.73535 12.068 4.80204 11.9731 3.87319C11.674 3.37463 11.1598 2.92887 10.4227 2.54175C9.65528 2.14669 8.80285 1.94533 7.93973 1.95522C6.6259 1.95522 5.60858 2.34038 4.88779 3.11069C4.18007 3.84523 3.78841 4.82788 3.79684 5.84786C3.77965 6.47105 3.88527 7.09154 4.1077 7.67394C4.28908 8.11545 4.58712 8.49932 4.96991 8.78444C5.48157 9.12205 6.04298 9.37736 6.63372 9.54107C7.19288 9.67989 7.97297 9.85585 8.97008 10.0631C9.96719 10.2703 10.6163 10.415 10.9252 10.4971C11.5969 10.6885 12.2352 10.9819 12.8177 11.3672C13.2726 11.6755 13.6625 12.0701 13.9654 12.5285C14.2792 13.0422 14.5132 13.6006 14.6595 14.1845C14.8417 14.9096 14.9259 15.656 14.9097 16.4035C14.9345 17.7216 14.6675 19.0289 14.1277 20.2317C13.7268 21.0771 13.1794 21.845 12.5108 22.4996C11.8994 23.1278 11.1837 23.6451 10.3954 24.0285C9.23402 24.5681 7.84263 24.8347 6.22118 24.8281C5.15136 24.8366 4.08531 24.7004 3.05194 24.4234C1.98339 24.0956 0.958582 23.6394 0 23.0646C0.304998 21.7703 0.468578 19.7996 0.490736 17.1523H1.70682C1.69435 18.171 1.74331 19.1895 1.85345 20.2023C2.21711 20.9101 2.84209 21.5318 3.72841 22.0675C4.60308 22.6035 5.60983 22.8852 6.63567 22.8808C7.48851 22.9006 8.33293 22.7085 9.09325 22.3217C9.77169 21.9855 10.3211 21.436 10.6573 20.7576C10.9949 20.0449 11.1648 19.2644 11.1539 18.476C11.1733 17.8456 11.06 17.2181 10.8216 16.6342C10.5996 16.1274 10.2304 15.6989 9.7619 15.4045C9.28095 15.0956 8.43373 14.773 7.22025 14.4367C5.47629 14.0007 4.32863 13.682 3.77925 13.4885C3.01548 13.2314 2.32752 12.7887 1.7772 12.2C1.25796 11.616 0.872916 10.9253 0.6491 10.1765C0.397982 9.3529 0.274033 8.49582 0.281537 7.63483C0.276063 6.42685 0.513423 5.23008 0.979516 4.11562C1.3637 3.14836 1.98573 2.29366 2.788 1.63067C3.53498 1.04371 4.39384 0.615277 5.31206 0.371573C6.25181 0.119604 7.22096 -0.00597882 8.1939 -0.00185477C9.19512 0.0026947 10.1929 0.116109 11.1696 0.336383C12.0444 0.52411 12.8856 0.843847 13.6643 1.28462L13.7777 1.69323C13.6396 2.43227 13.5379 3.15631 13.4727 3.86537C13.4075 4.57442 13.3574 5.50832 13.3222 6.66705" fill="#314380"/>
<path d="M16.8472 1.99034L15.2518 1.86522V0.449707L19.5394 0.588519L26.0128 0.463394C27.2784 0.463394 28.2774 0.620456 29.01 0.934578C29.793 1.28916 30.4496 1.87354 30.8927 2.61012C31.4141 3.42214 31.6748 4.46943 31.6748 5.75198C31.678 6.9861 31.4111 8.20596 30.8927 9.32594C30.3714 10.437 29.5439 11.3764 28.5075 12.0338C27.4849 12.7216 26.2793 13.0866 25.0469 13.0817C24.7447 13.0831 24.4427 13.0615 24.1437 13.0172C23.8477 12.9787 23.555 12.9186 23.2678 12.8373C23.1298 12.419 22.9572 12.0128 22.7516 11.6232L23.0586 11.2517C23.2538 11.3272 23.4545 11.388 23.6588 11.4336C23.8268 11.4723 23.9986 11.4926 24.171 11.4942C24.623 11.5027 25.0704 11.4025 25.4756 11.2021C25.8808 11.0017 26.232 10.707 26.4996 10.3426C27.1096 9.56055 27.4204 8.43636 27.4263 6.94656C27.4263 5.3929 27.1128 4.21983 26.4859 3.42735C25.859 2.63488 24.972 2.23864 23.825 2.23864C23.2156 2.24409 22.6086 2.31555 22.0146 2.45175C21.9618 3.15755 21.9305 4.18985 21.9129 5.55452L21.8562 8.89386L21.8288 15.3457C21.8288 16.9372 21.8412 18.5847 21.866 20.2883C21.8914 21.2776 21.9403 21.9013 22.0165 22.1632C22.0552 22.278 22.1225 22.3809 22.212 22.4624C22.3582 22.57 22.5301 22.6374 22.7106 22.6579L24.6657 22.8202V24.3178C22.1892 24.2383 20.3305 24.1972 19.0897 24.1946C17.7211 24.1946 16.4112 24.2142 15.1638 24.2787V22.7791C16.2333 22.7595 16.9097 22.6677 17.1913 22.4976C17.2813 22.4353 17.3497 22.3464 17.3868 22.2434C17.4546 22.0857 17.5093 21.6712 17.551 20.9999C17.6644 19.183 17.7263 17.1627 17.7368 14.9391L17.7622 8.92123L17.7172 5.71875C17.7029 4.34626 17.6853 3.48861 17.6644 3.14582C17.6588 2.8958 17.6133 2.64828 17.5295 2.41265C17.4868 2.31712 17.4193 2.23477 17.334 2.17412C17.1819 2.07888 17.0136 2.0126 16.8374 1.97861" fill="#314380"/>
<path d="M51.1556 21.0196L51.5153 21.4106L50.8427 23.1291C49.8295 23.7821 48.7334 24.2963 47.5836 24.6581C46.4077 24.9544 45.1963 25.086 43.9842 25.0491C41.9365 25.0491 40.1281 24.6613 38.5587 23.8858C37.359 23.2924 36.2942 22.4585 35.4306 21.436C34.5949 20.4555 33.9295 19.342 33.4618 18.1416C32.7504 16.2863 32.4 14.312 32.4295 12.3252C32.4425 8.74731 33.4943 5.82962 35.585 3.57211C37.6757 1.3146 40.6181 0.19367 44.4124 0.209311C45.5948 0.201879 46.7746 0.321166 47.9316 0.565138C49.1692 0.863827 50.3772 1.27413 51.5407 1.791L51.6111 2.01193C51.4319 2.67045 51.3076 3.34271 51.2396 4.02179C51.0897 5.30695 50.9933 6.49371 50.9503 7.58206H49.8222C49.8065 6.33469 49.7635 5.33367 49.6912 4.58486C49.1061 3.83614 48.364 3.22482 47.5171 2.79398C46.7135 2.40295 45.6832 2.20744 44.428 2.1918C42.1575 2.18398 40.3386 3.02012 38.9713 4.70022C37.604 6.38031 36.9132 8.73101 36.8989 11.7523C36.8625 13.3751 37.0876 14.9931 37.5655 16.5443C37.9497 17.7801 38.5669 18.9308 39.3838 19.9345C40.0204 20.7228 40.7981 21.3858 41.6772 21.8896C42.7264 22.4409 44.0005 22.7199 45.4994 22.7264C46.4455 22.7347 47.3878 22.6063 48.2972 22.3451C49.3081 22.0265 50.2735 21.5783 51.1693 21.0118" fill="#314380"/>
<path d="M63.5101 3.59956H62.9099C62.9094 3.20744 62.8852 2.8157 62.8375 2.42649C62.6343 2.17613 62.3686 1.98391 62.0672 1.86928C61.6812 1.70199 61.264 1.61868 60.8433 1.62489C60.1942 1.62489 59.6957 1.78912 59.3379 2.11758C59.1717 2.25965 59.0382 2.43592 58.9464 2.63432C58.8547 2.83272 58.8068 3.04859 58.8061 3.26719C58.8021 3.53181 58.8561 3.79408 58.9644 4.03555C59.0619 4.22692 59.21 4.38788 59.3926 4.50087C59.6513 4.64299 59.9282 4.74891 60.2157 4.81564C60.4933 4.87234 60.8765 4.94468 61.3692 5.0307C61.8619 5.11673 62.1845 5.17538 62.3312 5.20862C62.658 5.28716 62.9729 5.40879 63.2677 5.57032C63.4866 5.69571 63.6796 5.86158 63.8366 6.0591C63.99 6.26946 64.1069 6.50408 64.1827 6.75317C64.2763 7.0577 64.3218 7.375 64.3176 7.69358C64.3304 8.25412 64.1998 8.80864 63.9383 9.30459C63.7342 9.66906 63.4652 9.99308 63.1445 10.2606C62.8337 10.5318 62.4811 10.751 62.1005 10.9097C61.4411 11.152 60.742 11.2681 60.0398 11.2519C59.5138 11.2579 58.9889 11.2028 58.4757 11.0877C57.9532 10.9549 57.447 10.7648 56.9663 10.5207C57.1149 9.97715 57.1912 9.15014 57.1951 8.03963H57.7972C57.791 8.46916 57.8172 8.89854 57.8754 9.32414C58.1084 9.66492 58.4303 9.93539 58.8061 10.1062C59.2516 10.3328 59.7452 10.4488 60.245 10.4444C60.6616 10.4513 61.0748 10.3693 61.4572 10.2039C61.7825 10.0731 62.0568 9.8406 62.2393 9.54116C62.4017 9.24695 62.4839 8.91524 62.4778 8.57925C62.4862 8.30877 62.4285 8.04033 62.3096 7.7972C62.1912 7.57543 62.0077 7.39529 61.7837 7.28104C61.3815 7.09729 60.9588 6.96209 60.5246 6.87829C59.6605 6.69842 59.0922 6.56808 58.8198 6.48727C58.4528 6.38806 58.1141 6.20464 57.8305 5.95157C57.5801 5.71653 57.3874 5.4268 57.2674 5.105C57.1379 4.76264 57.0717 4.39962 57.0719 4.0336C57.0662 3.52132 57.1814 3.01492 57.4082 2.55553C57.607 2.13448 57.9123 1.77259 58.2938 1.50563C58.6736 1.25308 59.0963 1.07218 59.5412 0.971883C60.0079 0.863677 60.4854 0.809228 60.9645 0.809605C61.4585 0.808119 61.9515 0.85395 62.4367 0.946466C62.8643 1.02072 63.2799 1.15224 63.6724 1.33749L63.7291 1.50758C63.6626 1.80827 63.613 2.11244 63.5805 2.41867C63.5492 2.71585 63.527 3.10687 63.514 3.59174" fill="#314380"/>
<path d="M65.3399 5.5445V5.22191L65.985 4.81915C66.0891 4.75413 66.1896 4.68365 66.2861 4.608V3.64804C66.2861 3.30589 66.2646 2.87968 66.2275 2.37525C66.6908 2.2208 66.99 2.11914 67.1307 2.06635L68.0399 1.64404L68.2237 1.78872L68.1533 2.53166L68.1024 3.35477L68.0399 4.608H68.2843C68.765 4.61694 69.2458 4.59276 69.7232 4.53566L69.602 5.50344C69.5497 5.51252 69.4967 5.5171 69.4436 5.51713L68.7418 5.50344H68.0496V7.8926C68.0496 8.62772 68.0497 9.06567 68.0692 9.19666C68.0771 9.39621 68.1635 9.58455 68.3097 9.72063C68.4817 9.86061 68.7003 9.93044 68.9216 9.91614C69.0521 9.92111 69.1827 9.91719 69.3127 9.90441C69.4383 9.8882 69.5629 9.86536 69.6861 9.83598L69.8014 10.1273L69.5434 10.3834L68.992 10.9524C68.8318 11.0251 68.6639 11.0796 68.4915 11.1146C68.3443 11.1406 68.1952 11.1537 68.0457 11.1537C67.5666 11.1861 67.093 11.0359 66.7202 10.7334C66.5673 10.6022 66.4452 10.4388 66.3627 10.2549C66.2803 10.0711 66.2394 9.87127 66.2431 9.6698L66.2803 7.3041V5.53473H66.0848C65.8247 5.53473 65.5725 5.53473 65.334 5.55428" fill="#314380"/>
<path d="M71.6453 8.92318C71.902 8.92602 72.1499 9.01761 72.3469 9.18241C72.5438 9.34721 72.6777 9.57507 72.7258 9.82733C72.7738 10.0796 72.7332 10.3407 72.6106 10.5664C72.4881 10.7921 72.2913 10.9684 72.0535 11.0655C71.8158 11.1626 71.5517 11.1744 71.3063 11.099C71.0608 11.0236 70.849 10.8655 70.7067 10.6517C70.5645 10.4379 70.5006 10.1815 70.5259 9.92592C70.5512 9.67037 70.6642 9.43145 70.8456 9.24969C70.9492 9.14304 71.0737 9.05898 71.2113 9.00279C71.3489 8.9466 71.4966 8.91949 71.6453 8.92318Z" fill="#314380"/>
<path d="M76.8008 1.57957V0.993031L78.9182 1.04387L82.1187 0.979344C82.6194 0.963533 83.1193 1.02957 83.5987 1.17486C83.9729 1.31213 84.298 1.55702 84.5333 1.8787C84.8072 2.26117 84.9449 2.72449 84.9243 3.19449C84.9286 3.71913 84.8002 4.23633 84.5509 4.69798C84.2775 5.18322 83.8702 5.57957 83.3778 5.83977C82.8574 6.13466 82.2691 6.28896 81.671 6.28749C81.5214 6.28796 81.3719 6.27948 81.2233 6.26207C81.078 6.24509 80.9338 6.22028 80.7912 6.18778C80.7209 6.01078 80.6345 5.84062 80.5331 5.67945L80.6836 5.52304C80.7811 5.55318 80.8804 5.57733 80.9808 5.59538C81.0646 5.61176 81.1497 5.62027 81.235 5.6208C81.4497 5.62706 81.6631 5.5866 81.8606 5.5022C82.0581 5.41781 82.2349 5.2915 82.3787 5.13202C82.6798 4.80551 82.8304 4.32846 82.8304 3.70478C82.8304 3.04981 82.674 2.55908 82.3572 2.22867C82.1846 2.05899 81.9783 1.92746 81.7517 1.84258C81.525 1.75771 81.283 1.72139 81.0414 1.73598C80.7414 1.73956 80.4424 1.77031 80.1479 1.82787C80.1219 2.12505 80.1069 2.55973 80.103 3.13193L80.0815 4.53375V7.24745C80.0815 7.9135 80.0939 8.60495 80.1186 9.32183C80.1162 9.58458 80.1424 9.84681 80.1968 10.1039C80.2162 10.1539 80.2494 10.1973 80.2926 10.229C80.366 10.2763 80.45 10.3045 80.537 10.3111L81.4989 10.3756V11.0052C80.2789 10.9726 79.3607 10.9563 78.7442 10.9563C78.0651 10.9563 77.4186 10.9726 76.8047 11.0052V10.3756C77.3345 10.3659 77.6669 10.3248 77.8057 10.2544C77.8498 10.2298 77.8853 10.1923 77.9074 10.1469C77.9559 9.97705 77.9815 9.80149 77.9836 9.62487C78.0358 8.85977 78.0625 8.01255 78.0638 7.08322V4.54352L78.0286 3.1984C78.0188 2.61187 78.0071 2.25995 77.9954 2.11722C77.9918 2.01174 77.9693 1.90776 77.9289 1.81027C77.9067 1.76833 77.8736 1.7332 77.8331 1.7086C77.7556 1.6697 77.6725 1.6433 77.5867 1.6304L76.8008 1.57957Z" fill="#314380"/>
<path d="M91.8651 9.89858L91.5522 10.5985C91.1748 10.8307 90.7668 11.0091 90.3401 11.1283C89.9935 11.2141 89.6374 11.2548 89.2804 11.2496C88.8588 11.2563 88.4385 11.2009 88.033 11.0853C87.3803 10.9031 86.814 10.4941 86.4357 9.93181C86.2365 9.64202 86.0945 9.31686 86.0173 8.97381C85.9283 8.58392 85.885 8.185 85.8883 7.7851C85.8799 7.21733 85.9645 6.65201 86.1385 6.11151C86.2122 5.83736 86.3457 5.58295 86.5295 5.36661C86.7636 5.1684 87.0126 4.98864 87.2744 4.82896C87.5535 4.63752 87.8455 4.46572 88.1484 4.31476C88.5196 4.15944 88.9192 4.08352 89.3214 4.09188C89.8746 4.06851 90.4225 4.20786 90.8973 4.49268C91.2864 4.73582 91.5904 5.0938 91.7673 5.51716C91.9479 5.99937 92.0341 6.51176 92.0215 7.02651C92.0215 7.16141 92.0215 7.29045 92.0078 7.41754C91.8289 7.46977 91.6475 7.51284 91.4643 7.54657C91.2461 7.59269 91.0255 7.62598 90.8034 7.64628C90.4476 7.67756 89.9745 7.69321 89.386 7.69712C88.7975 7.70103 88.4768 7.70689 88.4084 7.71275C88.34 7.71862 88.2755 7.71275 88.1992 7.71275H87.728C87.7297 8.37476 87.9802 9.01194 88.4299 9.49778C88.6356 9.71039 88.8829 9.8783 89.1564 9.99099C89.4299 10.1037 89.7237 10.1588 90.0194 10.1527C90.2719 10.1554 90.5236 10.1251 90.7682 10.0628C91.0813 9.97199 91.384 9.84881 91.6715 9.69525L91.8651 9.89858ZM90.1622 6.9268C90.1817 6.17212 90.0781 5.64033 89.8532 5.33534C89.7528 5.19418 89.6195 5.07962 89.4648 5.00161C89.3102 4.92359 89.1388 4.88447 88.9656 4.88761C88.7853 4.88621 88.6072 4.92831 88.4466 5.01033C88.2859 5.09235 88.1474 5.21188 88.0428 5.3588C87.7945 5.67553 87.6811 6.1995 87.7007 6.92289C88.1686 6.97575 88.6395 6.9973 89.1103 6.98741C89.462 6.9917 89.8136 6.97014 90.1622 6.92289" fill="#314380"/>
<path d="M92.8074 5.5445V5.22191L93.4526 4.81915C93.5572 4.75506 93.6578 4.68455 93.7537 4.608V3.64804C93.7537 3.30589 93.7341 2.87968 93.695 2.37525C94.1584 2.2208 94.4595 2.11914 94.5983 2.06635L95.5074 1.64404L95.6912 1.78872L95.6208 2.53166L95.57 3.35477L95.5074 4.608H95.742C96.2234 4.61686 96.7048 4.59269 97.1829 4.53566L97.0598 5.50344C97.0074 5.51244 96.9545 5.51702 96.9014 5.51713L96.2015 5.50344H95.5074V7.8926C95.5074 8.62772 95.5074 9.06567 95.5289 9.19666C95.5319 9.29564 95.5548 9.39299 95.5961 9.48299C95.6374 9.57299 95.6963 9.65379 95.7694 9.72063C95.9406 9.86066 96.1586 9.93052 96.3794 9.91614C96.5098 9.92111 96.6405 9.91719 96.7704 9.90441C96.8966 9.88823 97.0219 9.86539 97.1458 9.83598L97.2611 10.1273L97.0011 10.3834L96.4517 10.9524C96.2913 11.0246 96.1235 11.079 95.9512 11.1146C95.8034 11.1406 95.6536 11.1537 95.5035 11.1537C95.0294 11.1809 94.5625 11.0288 94.1955 10.7275C94.0422 10.5965 93.9198 10.4332 93.837 10.2493C93.7542 10.0654 93.7131 9.86555 93.7165 9.66393L93.7537 7.29824V5.52886H93.5581C93.2962 5.52886 93.0479 5.52886 92.8074 5.54841" fill="#314380"/>
<path d="M103.93 9.89858L103.615 10.5985C103.239 10.8311 102.831 11.0094 102.405 11.1283C102.059 11.214 101.704 11.2547 101.347 11.2496C100.925 11.2564 100.504 11.2011 100.098 11.0853C99.7661 10.9902 99.4532 10.8381 99.1734 10.6357C98.9128 10.4387 98.6857 10.2011 98.5008 9.93181C98.3017 9.64201 98.1597 9.31686 98.0824 8.97381C97.876 8.02516 97.9178 7.03931 98.2037 6.11151C98.2794 5.83618 98.4164 5.58153 98.6045 5.36661C98.8381 5.1679 99.0872 4.98811 99.3494 4.82896C99.6281 4.63808 99.9194 4.4663 100.221 4.31476C100.593 4.1595 100.992 4.08358 101.394 4.09188C101.948 4.06851 102.495 4.20786 102.97 4.49268C103.359 4.73582 103.663 5.0938 103.84 5.51716C104.02 5.99951 104.106 6.51189 104.092 7.02651C104.092 7.16141 104.092 7.29045 104.079 7.41753C103.9 7.47022 103.719 7.51329 103.535 7.54657C103.318 7.59278 103.098 7.62608 102.876 7.64628C102.519 7.67756 102.045 7.6932 101.459 7.69711C100.872 7.70103 100.548 7.70689 100.481 7.71275C100.415 7.71862 100.35 7.71275 100.274 7.71275H99.8029C99.8039 8.37454 100.054 9.01175 100.503 9.49778C100.711 9.7113 100.961 9.87925 101.237 9.99099C101.514 10.1027 101.81 10.1558 102.108 10.1469C102.361 10.1494 102.613 10.1192 102.859 10.0569C103.171 9.966 103.473 9.84281 103.76 9.68938L103.93 9.89858ZM102.225 6.9268C102.245 6.17212 102.141 5.64033 101.92 5.33534C101.819 5.19427 101.686 5.07982 101.531 5.00183C101.376 4.92384 101.204 4.88465 101.031 4.88761C100.85 4.88621 100.672 4.92831 100.512 5.01033C100.351 5.09235 100.213 5.21188 100.108 5.3588C99.8596 5.67553 99.7443 6.1995 99.7619 6.92289C100.23 6.97562 100.702 6.99717 101.173 6.98741C101.525 6.9919 101.877 6.97034 102.225 6.92289" fill="#314380"/>
<path d="M109.096 10.4425V10.9997C108.556 10.9763 107.954 10.9645 107.293 10.9645C106.553 10.9645 105.784 10.9763 104.988 10.9997V10.4425C105.248 10.4555 105.508 10.4285 105.76 10.3623C105.824 10.3428 105.878 10.2994 105.911 10.2411C105.972 10.0777 105.999 9.90321 105.989 9.72889L106.016 9.09347C106.016 8.95857 106.016 8.74351 106.016 8.44438V7.50788C106.016 7.08557 106.004 6.57137 105.981 5.96529C105.986 5.79118 105.966 5.61724 105.92 5.44914C105.89 5.40547 105.846 5.37366 105.795 5.3592C105.527 5.30664 105.254 5.28239 104.98 5.28687V4.72966C105.852 4.58107 106.425 4.47158 106.699 4.40119C107.017 4.31255 107.328 4.19746 107.627 4.05709L107.823 4.14312L107.809 5.58795C108.116 5.26927 108.355 5.00141 108.519 4.79417C108.679 4.58332 108.866 4.39349 109.074 4.22915C109.278 4.10535 109.514 4.04542 109.752 4.05709C109.915 4.0543 110.076 4.08353 110.228 4.14312L110.179 5.15978C110.167 5.71308 110.157 6.0298 110.149 6.11192L109.848 6.20381C109.757 6.07309 109.64 5.96152 109.506 5.87535C109.327 5.7747 109.125 5.72279 108.92 5.72481C108.654 5.71989 108.395 5.81237 108.192 5.98484C108.016 6.1189 107.889 6.30714 107.831 6.52054C107.812 6.62482 107.803 7.02692 107.803 7.72685V8.44242L107.817 9.41998C107.811 9.64551 107.824 9.87113 107.856 10.0945C107.879 10.1754 107.931 10.245 108.003 10.29C108.16 10.3544 108.328 10.3876 108.497 10.3878L109.096 10.4425Z" fill="#314380"/>
<path d="M110.939 8.74518H111.512C111.537 9.27893 111.561 9.61521 111.584 9.75402C111.775 9.99887 112.016 10.1991 112.292 10.3406C112.569 10.4732 112.873 10.5401 113.18 10.5361C113.552 10.5599 113.92 10.445 114.212 10.2135C114.325 10.1172 114.416 9.99726 114.478 9.86215C114.539 9.72703 114.571 9.58001 114.57 9.43143C114.577 9.25744 114.535 9.08492 114.45 8.93288C114.33 8.76919 114.165 8.64361 113.975 8.57118C113.624 8.46085 113.266 8.37012 112.904 8.29942C112.491 8.22102 112.09 8.09369 111.707 7.92012C111.437 7.78404 111.215 7.56846 111.07 7.30231C110.912 7.00617 110.832 6.67421 110.839 6.33843C110.834 6.02685 110.898 5.71797 111.027 5.43423C111.156 5.15049 111.346 4.89902 111.584 4.69809C112.081 4.26015 112.793 4.04313 113.725 4.04313C114.083 4.04037 114.44 4.07378 114.791 4.14284C115.096 4.20427 115.393 4.30549 115.672 4.44392L115.692 4.51431C115.665 4.68441 115.643 4.85059 115.629 5.02459C115.616 5.1986 115.592 5.60135 115.563 6.24068H115.006C115.006 6.18789 114.994 6.09991 114.984 5.97478C114.97 5.76457 114.942 5.55554 114.9 5.34914C114.756 5.16224 114.568 5.01382 114.353 4.91706C114.112 4.81685 113.853 4.76822 113.592 4.77434C113.257 4.75243 112.925 4.84935 112.654 5.04806C112.552 5.12292 112.468 5.22058 112.411 5.33327C112.353 5.44595 112.322 5.57056 112.321 5.69715C112.293 5.8874 112.337 6.08149 112.446 6.24012C112.555 6.39875 112.72 6.51007 112.908 6.55154C113.265 6.64997 113.627 6.73024 113.993 6.79202C114.352 6.8494 114.707 6.93171 115.055 7.03837C115.288 7.12063 115.502 7.24969 115.684 7.41766C115.847 7.57827 115.971 7.77339 116.048 7.98855C116.132 8.22907 116.174 8.48249 116.171 8.73737C116.175 9.07979 116.103 9.41889 115.96 9.73003C115.817 10.0412 115.607 10.3165 115.344 10.5361C114.794 11.0222 114.02 11.2653 113.021 11.2653C112.693 11.2661 112.366 11.2366 112.044 11.1773C111.653 11.0954 111.268 10.9863 110.892 10.8508L110.816 10.7433C110.853 10.3757 110.875 10.1157 110.886 9.96126L110.939 8.74518Z" fill="#314380"/>
<path d="M116.865 1.60127V1.08707C117.808 1.00527 118.735 0.792735 119.62 0.455566C119.692 0.474 119.759 0.508791 119.816 0.557236C119.769 2.53712 119.745 3.68477 119.745 4.0002V5.34532L120.611 4.62974C120.817 4.45328 121.049 4.31013 121.299 4.20548C121.555 4.12349 121.823 4.08516 122.091 4.09209C122.454 4.07621 122.816 4.1354 123.155 4.26593C123.494 4.39646 123.802 4.59553 124.06 4.85067C124.557 5.3564 124.805 6.03678 124.805 6.89182C124.806 7.40399 124.714 7.91205 124.533 8.39139C124.377 8.8356 124.127 9.24146 123.802 9.58205C123.759 9.62506 123.411 9.87337 122.76 10.325C122.109 10.7766 121.743 11.0249 121.663 11.064C121.325 11.2032 120.961 11.2698 120.596 11.2595C120.307 11.2587 120.02 11.2138 119.745 11.1266C119.415 11.0135 119.1 10.8626 118.805 10.6769L118.177 11.2087L117.849 11.0855C117.943 9.62898 117.989 7.89088 117.989 5.86146C117.989 3.83205 117.96 2.5886 117.905 2.05485C117.905 1.93364 117.861 1.81662 117.782 1.72444C117.708 1.67165 117.401 1.63255 116.867 1.60908M119.745 6.11954C119.733 6.4871 119.729 6.97393 119.729 7.58001C119.729 8.39139 119.729 9.01507 119.745 9.45302C119.891 9.67798 120.087 9.86709 120.316 10.0063C120.595 10.1579 120.908 10.2366 121.225 10.2351C121.552 10.2422 121.872 10.1449 122.14 9.95744C122.431 9.72945 122.644 9.41545 122.746 9.06004C122.897 8.61962 122.971 8.15678 122.965 7.69146C122.965 6.94591 122.796 6.37762 122.457 5.98659C122.302 5.79935 122.107 5.64938 121.886 5.54784C121.666 5.4463 121.425 5.39578 121.182 5.40006C120.88 5.39606 120.583 5.4723 120.32 5.62099C120.093 5.74364 119.897 5.9153 119.745 6.12346" fill="#314380"/>
<path d="M125.866 5.2595V4.71597C126.284 4.69222 126.699 4.63667 127.108 4.54979C127.651 4.42827 128.185 4.27352 128.709 4.08643L128.809 4.16463C128.737 5.11091 128.701 5.98419 128.701 6.78449V7.58804C128.692 8.04484 128.709 8.50181 128.752 8.95662C128.779 9.21777 128.901 9.45999 129.094 9.63701C129.3 9.79737 129.556 9.87856 129.816 9.86575C130.127 9.87634 130.433 9.78048 130.682 9.59399C130.885 9.44864 131.052 9.2587 131.171 9.03873C131.247 8.78544 131.277 8.52054 131.259 8.25669V7.0367L131.239 6.04154C131.256 5.84369 131.235 5.64436 131.175 5.45501C131.141 5.40511 131.09 5.36954 131.032 5.35529C130.743 5.30872 130.451 5.28193 130.158 5.27513V4.73161C130.898 4.63516 131.401 4.55761 131.667 4.49895C131.933 4.4403 132.389 4.30996 133.036 4.10793L133.173 4.18614L133.093 5.50389C133.055 6.43843 133.036 6.9624 133.036 7.06798V8.53432C133.02 9.07477 133.042 9.61567 133.1 10.1532C133.105 10.1886 133.117 10.2226 133.136 10.2532C133.154 10.2838 133.179 10.3103 133.208 10.3311C133.495 10.4073 133.791 10.4435 134.088 10.4386V11.0115L132.614 10.9763L131.263 11.0115L131.212 10.9548L131.255 10.4015C131.255 10.3115 131.255 10.1258 131.255 9.85011C131.059 9.9987 130.905 10.1336 130.766 10.2587L129.957 11.0251C129.637 11.1425 129.3 11.2034 128.959 11.205C128.403 11.2359 127.857 11.0462 127.44 10.6771C127.254 10.4941 127.109 10.274 127.014 10.0312C126.918 9.78832 126.875 9.52812 126.887 9.26749C126.887 9.1971 126.887 8.93121 126.914 8.47371C126.914 8.22932 126.924 7.9165 126.924 7.52938L126.909 6.02395C126.922 5.85012 126.904 5.67528 126.856 5.50779C126.817 5.43847 126.754 5.38517 126.68 5.35725C126.411 5.30284 126.137 5.27598 125.863 5.27709" fill="#314380"/>
<path d="M138.921 10.4424V10.9997C138.381 10.9762 137.78 10.9645 137.118 10.9645C136.379 10.9645 135.609 10.9762 134.813 10.9997V10.4424C135.076 10.4564 135.34 10.4294 135.595 10.3623C135.659 10.3427 135.713 10.2993 135.746 10.2411C135.806 10.0774 135.833 9.9031 135.824 9.72882L135.851 9.09341C135.851 8.95851 135.851 8.74345 135.851 8.44432V7.50781C135.851 7.08551 135.84 6.57131 135.816 5.96522C135.822 5.79112 135.801 5.61718 135.756 5.44908C135.725 5.40586 135.681 5.37418 135.63 5.35914C135.362 5.30658 135.089 5.28233 134.815 5.2868V4.72959C135.687 4.58101 136.26 4.47151 136.534 4.40113C136.853 4.31313 137.163 4.19802 137.462 4.05703L137.658 4.14306L137.644 5.58789C137.953 5.2692 138.19 5.00135 138.356 4.79411C138.516 4.58298 138.701 4.39311 138.909 4.22909C139.112 4.10556 139.348 4.04564 139.586 4.05703C139.749 4.05408 139.911 4.08332 140.063 4.14306L140.014 5.15972C140.002 5.71302 139.992 6.02974 139.985 6.11186L139.683 6.20375C139.592 6.07247 139.475 5.96081 139.339 5.87529C139.161 5.77368 138.958 5.72171 138.753 5.72475C138.487 5.71922 138.229 5.8118 138.027 5.98478C137.851 6.11823 137.723 6.30671 137.666 6.52048C137.648 6.6241 137.636 7.02685 137.636 7.72679V8.44236L137.65 9.41992C137.644 9.64545 137.657 9.87107 137.689 10.0944C137.711 10.1766 137.765 10.2468 137.838 10.2899C137.994 10.3546 138.161 10.3879 138.33 10.3877L138.921 10.4424Z" fill="#314380"/>
<path d="M141.418 9.33157L142.413 8.60818C142.107 8.50611 141.821 8.35488 141.564 8.16046C141.344 7.98118 141.17 7.75196 141.056 7.49181C140.924 7.20486 140.858 6.89247 140.86 6.57681C140.854 6.10557 140.988 5.64314 141.247 5.24882C141.505 4.8545 141.875 4.54626 142.309 4.36363C142.86 4.12009 143.457 4.00062 144.059 4.01366C144.478 4.01049 144.895 4.06242 145.3 4.16812C145.647 4.25389 145.973 4.4081 146.258 4.6217C146.534 4.63734 146.726 4.64321 146.829 4.64321C146.974 4.64321 147.365 4.62691 148.002 4.59433L147.903 5.48195H146.773C146.831 5.70874 146.862 5.9418 146.865 6.17602C146.873 6.65857 146.73 7.1316 146.456 7.52896C146.168 7.93407 145.768 8.24711 145.306 8.43027C144.812 8.63972 144.279 8.7468 143.742 8.74504C143.594 8.74504 143.386 8.73527 143.121 8.71571C142.986 8.78878 142.87 8.8926 142.782 9.01876C142.714 9.11323 142.675 9.22519 142.669 9.34135C142.672 9.43074 142.706 9.51631 142.765 9.58379C142.835 9.66176 142.929 9.71406 143.033 9.73238C143.422 9.77817 143.814 9.79516 144.206 9.78321L145.965 9.7402C146.371 9.72219 146.777 9.78259 147.16 9.91811C147.425 10.0234 147.648 10.2148 147.791 10.4616C147.942 10.7605 148.013 11.0931 147.999 11.4275C148.006 11.9953 147.86 12.5546 147.576 13.0463C147.271 13.5517 146.832 13.963 146.307 14.235C145.523 14.6421 144.649 14.8438 143.766 14.8215C143.121 14.8445 142.478 14.7347 141.877 14.499C141.47 14.3461 141.114 14.0803 140.853 13.7325C140.66 13.4474 140.559 13.1107 140.561 12.7667C140.558 12.5821 140.589 12.3984 140.653 12.2252C140.698 12.09 140.771 11.9656 140.866 11.8595C141.014 11.7328 141.174 11.622 141.345 11.5291C141.805 11.273 142.061 11.1381 142.114 11.1088C141.861 11.0812 141.621 10.9844 141.42 10.8292C141.333 10.7574 141.263 10.6678 141.215 10.5666C141.166 10.4654 141.14 10.3549 141.138 10.2427C141.142 10.1055 141.166 9.96971 141.21 9.83991C141.26 9.66754 141.326 9.50003 141.406 9.3394M142.902 11.1792C142.597 11.3509 142.331 11.5831 142.119 11.8615C141.989 12.0713 141.921 12.3142 141.924 12.5614C141.922 12.7716 141.97 12.9793 142.062 13.168C142.155 13.3567 142.29 13.5212 142.458 13.6485C142.814 13.9404 143.347 14.0858 144.057 14.0845C144.804 14.0845 145.371 13.9105 145.766 13.5644C145.955 13.4004 146.106 13.1965 146.208 12.9673C146.309 12.7381 146.358 12.4894 146.352 12.2388C146.363 12.0364 146.322 11.8346 146.233 11.6523C146.155 11.5157 146.04 11.4039 145.901 11.3297C145.717 11.2422 145.517 11.1961 145.314 11.1948C145.063 11.1818 144.476 11.1753 143.555 11.1753C143.386 11.1753 143.164 11.1753 142.903 11.1753M142.647 6.25031C142.647 6.90984 142.761 7.37972 142.99 7.65995C143.096 7.79555 143.232 7.9045 143.388 7.97814C143.544 8.05179 143.715 8.08811 143.887 8.08421C144.072 8.09161 144.257 8.04974 144.421 7.96286C144.585 7.87597 144.723 7.74718 144.821 7.58957C144.996 7.25915 145.075 6.88694 145.05 6.51426C145.05 5.84821 144.942 5.38094 144.726 5.11243C144.616 4.98937 144.481 4.8903 144.331 4.82139C144.181 4.75248 144.019 4.71521 143.854 4.71191C143.688 4.7086 143.524 4.73934 143.372 4.80219C143.219 4.86505 143.081 4.95868 142.966 5.07724C142.753 5.32163 142.647 5.7107 142.647 6.25031Z" fill="#314380"/>
<path d="M66.3449 23.0294L66.0145 23.7548C65.5059 24.0324 64.9665 24.2496 64.4074 24.4019C63.8231 24.5289 63.226 24.5873 62.6282 24.5759C61.7115 24.5935 60.8002 24.4315 59.9458 24.0989C58.8266 23.644 57.9193 22.7849 57.4041 21.6921C57.0519 20.9274 56.8736 20.0941 56.8821 19.2522C56.8821 17.748 57.3957 16.5202 58.4228 15.5687C59.4498 14.6172 60.9012 14.1408 62.7768 14.1395C63.3594 14.1344 63.9412 14.1829 64.5149 14.2842C65.1225 14.406 65.7194 14.576 66.2999 14.7925L66.3371 14.8844C66.2485 15.1598 66.1882 15.4434 66.1572 15.731C66.0855 16.2693 66.0405 16.7672 66.0223 17.2247H65.4631C65.4534 16.7007 65.4279 16.2804 65.3908 15.9656C65.0876 15.6439 64.7207 15.3889 64.3135 15.2168C63.8252 15.037 63.3067 14.9534 62.7866 14.9704C61.6643 14.9704 60.7676 15.325 60.0963 16.034C59.4251 16.7431 59.0914 17.7324 59.0953 19.0019C59.0811 19.6873 59.1966 20.3692 59.4355 21.0118C59.6351 21.5428 59.9434 22.0262 60.3407 22.4312C60.6661 22.7728 61.0519 23.0512 61.4786 23.2523C62.0784 23.4959 62.7221 23.6124 63.3692 23.5945C63.8343 23.597 64.298 23.5419 64.7495 23.4302C65.2421 23.2968 65.7177 23.1072 66.167 22.8652L66.3449 23.0294Z" fill="#314380"/>
<path d="M67.2579 20.947C67.2329 20.252 67.3757 19.5613 67.6744 18.9332C67.9462 18.4061 68.3838 17.9829 68.9198 17.7289C69.5245 17.4489 70.1852 17.3105 70.8514 17.3242C71.9541 17.3242 72.7929 17.6129 73.3677 18.1903C73.9425 18.7677 74.2299 19.6149 74.2299 20.7319C74.2413 21.2999 74.1567 21.8657 73.9796 22.4055C73.8411 22.8299 73.6116 23.2189 73.3071 23.5454C73.0522 23.8149 72.7517 24.0373 72.4195 24.2023C71.8579 24.4567 71.2469 24.5836 70.6305 24.5737C69.5513 24.5737 68.7197 24.2674 68.1358 23.6548C67.5519 23.0422 67.2592 22.139 67.2579 20.945M69.2404 20.6009C69.2404 21.8718 69.4268 22.7763 69.7996 23.3146C69.9153 23.4875 70.0736 23.6276 70.2592 23.7214C70.4448 23.8152 70.6515 23.8596 70.8593 23.8503C71.0351 23.8578 71.2103 23.825 71.3716 23.7545C71.5328 23.6841 71.6759 23.5778 71.7899 23.4437C72.0936 23.0826 72.2454 22.3808 72.2454 21.338C72.2559 20.707 72.1955 20.0768 72.0656 19.4592C71.9424 18.9371 71.7645 18.5735 71.5279 18.3682C71.2906 18.1629 70.9853 18.0535 70.6716 18.0613C70.4039 18.0555 70.1412 18.1342 69.9208 18.2861C69.6765 18.4791 69.5009 18.7459 69.4203 19.0466C69.2803 19.5556 69.2196 20.0832 69.2404 20.6107" fill="#314380"/>
<path d="M79.1743 23.7665V24.3257C78.576 24.2925 77.9563 24.2749 77.3052 24.2749C76.6542 24.2749 75.9366 24.2925 75.1155 24.3257V23.7665C75.3928 23.7679 75.6699 23.7489 75.9444 23.7098C76.0031 23.6997 76.0583 23.6748 76.1048 23.6375C76.1459 23.591 76.1718 23.533 76.1791 23.4713C76.2313 23.0216 76.2548 22.5691 76.2494 22.1164C76.2612 21.3559 76.2651 20.6814 76.2651 20.0948V17.7213C76.2651 16.9719 76.2488 16.2863 76.2162 15.6645C76.2152 15.4669 76.1909 15.27 76.1439 15.078C76.1251 15.0456 76.0981 15.0186 76.0657 14.9998C75.9815 14.9537 75.8892 14.9245 75.7939 14.9138C75.7216 14.9138 75.5065 14.8923 75.1487 14.8786V14.3487C75.6255 14.3075 76.0999 14.2423 76.5701 14.1532C76.924 14.0789 77.3991 13.9479 77.9973 13.7622L78.1479 13.8463L78.0873 15.295C78.0612 16.1083 78.0456 17.1048 78.0403 18.2844V20.1183C78.0403 20.8117 78.0449 21.3331 78.054 21.6824C78.0677 22.5368 78.0814 23.051 78.0912 23.2328C78.0894 23.3484 78.1073 23.4634 78.144 23.573C78.1583 23.6086 78.1827 23.6392 78.2143 23.661C78.2816 23.7039 78.3579 23.7307 78.4372 23.7392C78.4802 23.7392 78.7246 23.7665 79.1723 23.788" fill="#314380"/>
<path d="M83.9822 23.7665V24.3257C83.3865 24.2931 82.7635 24.2762 82.1131 24.2749C81.4627 24.2736 80.7334 24.2905 79.9253 24.3257V23.7665C80.202 23.7678 80.4784 23.7488 80.7523 23.7098C80.8127 23.6972 80.8686 23.6688 80.9146 23.6277C80.9548 23.5804 80.9812 23.5229 80.9908 23.4615C81.043 23.0119 81.0659 22.5593 81.0593 22.1067C81.071 21.3455 81.0769 20.6716 81.0769 20.0851V17.7213C81.0769 16.9719 81.0599 16.2863 81.026 15.6645C81.025 15.4669 81.0007 15.27 80.9537 15.078C80.9349 15.0456 80.9079 15.0186 80.8755 14.9998C80.7914 14.9537 80.699 14.9245 80.6037 14.9138C80.5314 14.9138 80.3163 14.8923 79.9605 14.8786V14.3487C80.4366 14.3074 80.9103 14.2421 81.3799 14.1532C81.7338 14.0789 82.2089 13.9479 82.8071 13.7622L82.9596 13.8463L82.8971 15.295C82.8736 16.1083 82.8586 17.1048 82.8521 18.2844V20.1183C82.8521 20.8124 82.8521 21.3305 82.8638 21.6824C82.8795 22.5368 82.8912 23.051 82.901 23.2328C82.899 23.3482 82.9161 23.4632 82.9518 23.573C82.9684 23.6078 82.9932 23.638 83.0242 23.661C83.0914 23.7039 83.1677 23.7307 83.247 23.7392C83.2901 23.7392 83.5344 23.7665 83.9822 23.788" fill="#314380"/>
<path d="M90.9815 23.2231L90.6667 23.923C90.2901 24.1558 89.8827 24.3348 89.4565 24.4548C89.1099 24.5405 88.7538 24.5812 88.3968 24.576C87.9746 24.5829 87.5536 24.5276 87.1475 24.4118C86.8155 24.3173 86.503 24.1644 86.2247 23.9602C85.9632 23.765 85.736 23.5278 85.5521 23.2583C85.3524 22.9688 85.2104 22.6435 85.1337 22.3003C85.0446 21.9104 85.0013 21.5115 85.0047 21.1116C84.9964 20.5438 85.0809 19.9785 85.255 19.438C85.3307 19.1627 85.4677 18.908 85.6558 18.6931C85.889 18.4947 86.1374 18.3149 86.3987 18.1554C86.6776 17.9637 86.9696 17.7919 87.2726 17.6412C87.6439 17.486 88.0434 17.4101 88.4457 17.4184C88.9988 17.3959 89.5464 17.5352 90.0215 17.8192C90.4106 18.0624 90.7146 18.4204 90.8916 18.8436C91.0768 19.3249 91.1677 19.8374 91.1594 20.353C91.1594 20.4879 91.1594 20.615 91.1457 20.744C90.9669 20.7965 90.7855 20.8395 90.6022 20.873C90.3849 20.9203 90.1649 20.9536 89.9433 20.9728C89.5849 21.0001 89.1124 21.0171 88.5259 21.0236C87.9393 21.0236 87.6148 21.0334 87.5483 21.0373C87.4818 21.0412 87.4173 21.0373 87.3411 21.0373H86.8582C86.86 21.6989 87.1098 22.3358 87.5581 22.8223C87.764 23.0352 88.0116 23.2032 88.2855 23.3159C88.5593 23.4286 88.8535 23.4835 89.1496 23.4773C89.4026 23.4798 89.655 23.4496 89.9003 23.3873C90.2124 23.2956 90.5144 23.1724 90.8016 23.0198L90.9815 23.2231ZM89.2786 20.2533C89.2962 19.4986 89.1945 18.9668 88.9697 18.6618C88.8693 18.5207 88.736 18.4061 88.5813 18.3281C88.4266 18.2501 88.2553 18.2109 88.0821 18.2141C87.9016 18.2122 87.7234 18.2541 87.5627 18.3361C87.402 18.4182 87.2635 18.538 87.1592 18.6853C86.909 19.002 86.7956 19.526 86.8152 20.2494C87.2837 20.3023 87.7553 20.3239 88.2267 20.3139C88.5791 20.3182 88.9313 20.2967 89.2806 20.2494" fill="#314380"/>
<path d="M93.0108 22.6598L94.0079 21.9383C93.7034 21.8343 93.4171 21.6833 93.1594 21.4906C92.9391 21.3106 92.7648 21.0808 92.6511 20.82C92.5195 20.5331 92.4528 20.2207 92.4555 19.905C92.4499 19.4339 92.585 18.9719 92.8434 18.578C93.1018 18.1841 93.4719 17.8762 93.9062 17.6938C94.4563 17.4484 95.0539 17.3282 95.6561 17.3419C96.0749 17.3378 96.4925 17.3898 96.8976 17.4963C97.2435 17.5817 97.5687 17.736 97.8536 17.9499C98.1312 17.9656 98.3209 17.9734 98.4265 17.9734C98.5685 17.9734 98.9596 17.9564 99.5995 17.9225L99.5018 18.8102H98.3698C98.4298 19.036 98.4613 19.2686 98.4636 19.5023C98.4721 19.9855 98.3292 20.4592 98.055 20.8572C97.7664 21.2619 97.3673 21.5748 96.9054 21.7585C96.4106 21.9678 95.8786 22.0748 95.3413 22.0733C95.1927 22.0733 94.9835 22.0635 94.7196 22.0439C94.5841 22.1162 94.468 22.2202 94.3813 22.347C94.3132 22.4413 94.2738 22.5533 94.2679 22.6696C94.2695 22.7593 94.3036 22.8454 94.3637 22.912C94.4334 22.9907 94.5279 23.0432 94.6316 23.0606C95.0208 23.1064 95.4129 23.1234 95.8047 23.1114L97.5643 23.0684C97.9702 23.0496 98.376 23.11 98.7588 23.2463C99.0248 23.3518 99.2474 23.544 99.3903 23.7918C99.5369 24.0918 99.6042 24.4243 99.5858 24.7576C99.5972 25.3237 99.4553 25.8824 99.1753 26.3745C98.8686 26.879 98.4298 27.2901 97.9064 27.5632C97.122 27.9694 96.2478 28.1711 95.3648 28.1498C94.7189 28.1733 94.0752 28.0628 93.4742 27.8252C93.0678 27.6723 92.7132 27.4072 92.4516 27.0608C92.2574 26.772 92.1551 26.4312 92.1584 26.0832C92.1556 25.8984 92.1875 25.7147 92.2522 25.5416C92.2967 25.4061 92.3693 25.2815 92.4653 25.176C92.612 25.0481 92.7727 24.9373 92.9443 24.8456C93.4031 24.5849 93.6586 24.4448 93.7107 24.4253C93.4584 24.3974 93.2187 24.2999 93.0186 24.1437C92.9315 24.0726 92.8612 23.9832 92.8125 23.8818C92.7639 23.7804 92.7381 23.6696 92.7371 23.5572C92.7411 23.4207 92.7655 23.2856 92.8094 23.1564C92.8599 22.9842 92.9253 22.8167 93.0049 22.6559M94.5025 24.4956C94.1977 24.6669 93.9315 24.8992 93.7205 25.178C93.5891 25.3875 93.5212 25.6306 93.525 25.8779C93.5231 26.0882 93.5704 26.2959 93.663 26.4847C93.7557 26.6734 93.8912 26.8379 94.0587 26.965C94.4126 27.2543 94.9464 27.4029 95.658 27.4029C96.4029 27.4029 96.9719 27.2269 97.3648 26.8789C97.5544 26.7154 97.7053 26.5119 97.8067 26.283C97.9081 26.0541 97.9575 25.8056 97.9514 25.5553C97.9619 25.3531 97.9216 25.1514 97.8341 24.9688C97.754 24.834 97.6392 24.7233 97.5017 24.6481C97.3182 24.5613 97.1182 24.5146 96.9152 24.5113C96.661 24.4996 96.0784 24.4937 95.1556 24.4937C94.9874 24.4937 94.7645 24.4937 94.5045 24.4937M94.2464 19.5687C94.2464 20.2276 94.3598 20.6988 94.5905 20.9784C94.6963 21.1144 94.8327 21.2236 94.9887 21.297C95.1446 21.3704 95.3157 21.4059 95.4879 21.4007C95.6734 21.4085 95.8575 21.367 96.0217 21.2805C96.1859 21.1939 96.3241 21.0654 96.4225 20.908C96.5955 20.5772 96.674 20.2052 96.6493 19.8327C96.6493 19.164 96.5417 18.6987 96.3267 18.4309C96.2197 18.2981 96.0828 18.1925 95.9271 18.1228C95.7715 18.0532 95.6015 18.0214 95.4312 18.0301C95.2687 18.0226 95.1066 18.0515 94.9568 18.1148C94.8069 18.178 94.6731 18.274 94.5651 18.3957C94.3527 18.6407 94.2464 19.0317 94.2464 19.5687Z" fill="#314380"/>
<path d="M106.315 23.2228L106.001 23.9227C105.625 24.1555 105.218 24.3345 104.792 24.4545C104.445 24.5404 104.088 24.5811 103.731 24.5757C103.309 24.5824 102.889 24.5271 102.483 24.4115C102.151 24.317 101.839 24.1641 101.561 23.9599C101.299 23.7642 101.071 23.5271 100.886 23.258C100.686 22.9685 100.544 22.6432 100.468 22.3C100.261 21.3513 100.303 20.3651 100.591 19.4377C100.663 19.1629 100.797 18.9082 100.982 18.6928C101.215 18.4944 101.463 18.3146 101.725 18.1551C102.004 17.9634 102.296 17.7915 102.599 17.6409C102.97 17.4855 103.37 17.4096 103.772 17.4181C104.321 17.3972 104.864 17.5365 105.336 17.8189C105.725 18.0615 106.03 18.4196 106.206 18.8433C106.387 19.3253 106.474 19.8379 106.46 20.3527C106.46 20.4876 106.46 20.6147 106.446 20.7437C106.268 20.7962 106.086 20.8392 105.903 20.8727C105.686 20.9198 105.466 20.9531 105.244 20.9725C104.887 20.9998 104.414 21.0168 103.827 21.0233C103.24 21.0233 102.914 21.0331 102.849 21.037C102.784 21.0409 102.716 21.037 102.642 21.037H102.169C102.17 21.699 102.421 22.3362 102.871 22.822C103.076 23.0354 103.323 23.2038 103.596 23.3165C103.87 23.4293 104.164 23.4839 104.46 23.477C104.713 23.4795 104.965 23.4493 105.211 23.387C105.523 23.2949 105.825 23.1718 106.112 23.0195L106.315 23.2228ZM104.613 20.253C104.63 19.4983 104.528 18.9665 104.304 18.6615C104.203 18.5206 104.07 18.4062 103.916 18.3282C103.762 18.2502 103.591 18.211 103.418 18.2138C103.237 18.2119 103.059 18.2538 102.899 18.3358C102.738 18.4179 102.599 18.5377 102.495 18.685C102.247 19.0017 102.131 19.5257 102.149 20.2491C102.618 20.3019 103.089 20.3234 103.561 20.3136C103.912 20.3179 104.264 20.2964 104.613 20.2491" fill="#314380"/>
</g>
<defs>
<clipPath id="clip0_1065_19136">
<rect width="148" height="28.14" fill="white"/>
</clipPath>
</defs>
</svg>
