<svg width="933" height="240" viewBox="0 0 933 240" fill="none" xmlns="http://www.w3.org/2000/svg">
<g clip-path="url(#clip0_207_217)">
<path d="M322.11 54.7327C321.239 47.0442 317.055 40.885 308.262 40.885C301.89 40.885 296.156 44.177 296.156 52.3115C296.156 60 303.844 64.6301 314.846 72.8708C326.506 81.5575 330.244 87.1646 330.244 96.2973C330.244 109.381 316.821 116.644 303.632 116.644C296.602 116.644 290.549 115.327 284.835 113.119C284.389 112.906 284.071 112.46 284.071 111.589V95.7451H286.938C288.149 107.958 296.177 112.8 304.651 112.8C312.467 112.8 318.839 106.853 318.839 98.8248C318.839 91.6673 314.995 85.8478 298.492 74.9522C292.545 71.0018 285.196 66.7115 285.196 54.7115C285.196 44.8142 296.198 36.9982 308.835 36.9982C313.572 36.9982 319.837 37.5504 324.234 39.0796C324.892 39.292 324.998 39.7381 324.998 40.2903V54.6903H322.11V54.7327Z" fill="#582D82" stroke="#582D82" stroke-width="0.1618"/>
<path d="M362.018 105.345C362.018 112.779 361.699 112.375 368.878 113.246V115.327H347.384V113.246C354.563 112.375 354.244 112.758 354.244 105.345V61.9752H347.065C340.12 61.9752 338.527 66.3717 335.894 71.639H333.897L336.064 59.4266H380.241L382.407 71.639H380.411C377.777 66.3717 376.184 61.9752 369.239 61.9752H362.06V105.345H362.018Z" fill="#582D82" stroke="#582D82" stroke-width="0.1618"/>
<path d="M392.071 102.096C395.958 102.096 399.377 105.515 399.377 109.402C399.377 113.288 395.958 116.708 392.071 116.708C388.184 116.708 384.765 113.288 384.765 109.402C384.765 105.515 388.184 102.096 392.071 102.096Z" fill="#582D82"/>
<path d="M495.781 95.7451L492.489 109.487C492.489 111.908 490.513 112.354 487.434 113.331C483.25 114.754 475.561 116.623 465.982 116.623C443.448 116.623 423.101 105.855 423.101 76.3752C423.101 59.4478 437.501 36.9982 467.087 36.9982C477.749 36.9982 482.804 38.9735 488.198 40.7363C491.278 41.7345 492.489 43.2637 492.489 45.0265V59.2142H489.621C489.281 50.4212 483.674 40.8425 466.195 40.8425C445.635 40.8425 435.738 55.6885 435.632 75.4832C435.526 97.3593 445.529 112.758 467.958 112.758C482.591 112.758 489.388 104.389 492.913 95.7027H495.781V95.7451Z" fill="#582D82" stroke="#582D82" stroke-width="0.1618"/>
<path d="M514.641 96.7859L510.966 107.49C509.926 110.612 511.455 113.246 514.959 113.246V115.327H500.432V113.246C502.598 113.246 504.913 111.887 506.188 109.253C509.628 102.223 518.973 76.0991 525.6 58.4496H530.081C535.519 74.5062 543.653 99.1009 546.372 106.216C548.134 110.697 549.409 113.246 552.85 113.246V115.327H534.244V113.246C539.278 113.246 539.766 110.612 538.471 107.087L535.03 96.7859H514.641ZM533.968 93.7699L525.494 67.816H525.345L515.83 93.7699H533.968Z" fill="#582D82" stroke="#582D82" stroke-width="0.1618"/>
<path d="M581.416 105.345C581.416 112.779 581.097 112.375 588.276 113.246V115.327H566.782V113.246C573.982 112.375 573.642 112.758 573.642 105.345V61.9752H566.442C559.497 61.9752 557.904 66.3717 555.271 71.639H553.274L555.441 59.4266H599.618L601.784 71.639H599.788C597.154 66.3717 595.561 61.9752 588.616 61.9752H581.437L581.416 105.345Z" fill="#582D82" stroke="#582D82" stroke-width="0.1618"/>
<path d="M623.724 105.345C623.724 112.779 623.405 112.375 630.584 113.246V115.327H609.09V113.246C616.29 112.375 615.95 112.758 615.95 105.345V69.4089C615.95 61.9752 616.269 62.3788 609.09 61.508V59.4266H630.584V61.508C623.384 62.3788 623.724 61.9965 623.724 69.4089V83.2354H651.759V69.4089C651.759 61.9752 652.078 62.3788 644.899 61.508V59.4266H666.393V61.508C659.193 62.3788 659.533 61.9965 659.533 69.4089V105.345C659.533 112.779 659.214 112.375 666.393 113.246V115.327H644.899V113.246C652.099 112.375 651.759 112.758 651.759 105.345V86.485H623.724V105.345Z" fill="#582D82" stroke="#582D82" stroke-width="0.1618"/>
<path d="M678.138 113.246C685.317 112.375 684.998 112.758 684.998 105.345V69.4089C684.998 61.9752 685.317 62.3788 678.138 61.508V59.4266H713.841V72.2761H711.759C710.952 66.3717 709.359 61.9752 703.604 61.9752H692.75V84.8283H699.462C704.496 84.8283 706.641 82.8319 706.811 77.8832H708.892V94.8956H706.811C706.641 90.1806 704.814 87.377 699.462 87.377H692.75V105.43C692.75 112.227 695.873 112.779 703.051 112.779C714.627 112.779 714.074 109.508 717.749 100.949H719.83L717.43 115.327H678.138V113.246Z" fill="#582D82" stroke="#582D82" stroke-width="0.1618"/>
<path d="M728.05 59.4053H751.285C759.356 59.4053 767.427 63.6319 767.427 72.977C767.427 81.1965 762.393 86.8673 756.255 89.2673L764.092 101.161C768.085 106.981 772.566 112.588 775.349 114.266V115.306H767.129C762.414 115.306 759.865 106.598 750.202 90.5416H742.704V105.324C742.704 112.758 742.386 112.354 749.565 113.225V115.306H728.071V113.225C735.25 112.354 734.931 112.736 734.931 105.324V69.4089C734.931 61.9752 735.25 62.3788 728.071 61.508V59.4053H728.05ZM742.662 88.0142H749.288C756.234 88.0142 759.441 82.7469 759.441 73.7204C759.441 65.0124 754.641 61.9752 748.821 61.9752H742.662V88.0142Z" fill="#582D82" stroke="#582D82" stroke-width="0.1618"/>
<path d="M795.058 105.345C795.058 112.779 794.74 112.375 801.919 113.246V115.327H780.425V113.246C787.604 112.375 787.285 112.758 787.285 105.345V69.4089C787.285 61.9752 787.604 62.3788 780.425 61.508V59.4266H801.919V61.508C794.74 62.3788 795.058 61.9965 795.058 69.4089V105.345Z" fill="#582D82" stroke="#582D82" stroke-width="0.1618"/>
<path d="M862.874 115.327C850.173 100.312 837.005 84.5735 823.965 69.239V104.538C823.965 106.216 824.283 107.575 824.453 108.85C824.857 111.717 827.575 112.843 832.842 113.246V115.327H813.281V113.246C817.126 112.843 819.759 111.738 820.142 108.85C820.311 107.575 820.63 106.216 820.63 104.538V66.9239C818.4 64.0567 815.915 61.4868 811.37 61.4868V59.4053H825.897C837.791 73.8691 850.173 88.5664 862.088 103.009H862.258V70.1947C862.258 68.5168 861.94 67.1575 861.77 65.8832C861.366 63.016 858.648 61.8903 853.38 61.4868V59.4053H872.942V61.4868C869.182 61.8903 866.464 62.9947 866.081 65.8832C865.911 67.1575 865.593 68.5168 865.593 70.1947V115.327H862.874Z" fill="#582D82" stroke="#582D82" stroke-width="0.1618"/>
<path d="M881.246 113.246C888.425 112.375 888.106 112.758 888.106 105.345V69.4089C888.106 61.9752 888.425 62.3788 881.246 61.508V59.4266H916.949V72.2761H914.867C914.06 66.3717 912.467 61.9752 906.712 61.9752H895.858V84.8283H902.57C907.604 84.8283 909.749 82.8319 909.919 77.8832H912V94.8956H909.919C909.749 90.1806 907.922 87.377 902.57 87.377H895.858V105.43C895.858 112.227 898.981 112.779 906.159 112.779C917.735 112.779 917.182 109.508 920.857 100.949H922.938L920.538 115.327H881.246V113.246Z" fill="#582D82" stroke="#582D82" stroke-width="0.1618"/>
<path d="M294.669 180.446C294.669 190.45 297.388 198.096 308.028 198.096C317.819 198.096 322.959 191.512 322.959 180.085V160.205C322.959 158.697 322.683 157.487 322.535 156.34C322.173 153.77 319.752 152.772 316.396 152.411V150.542H333.26V152.411C329.819 152.772 327.462 153.77 327.122 156.34C326.973 157.487 326.697 158.697 326.697 160.205V180.361C326.697 195.738 316.906 201.451 307.688 201.451C292.46 201.451 287.745 193.742 287.745 180.786V159.504C287.745 152.857 288.021 153.218 281.607 152.432V150.563H300.828V152.432C294.393 153.218 294.69 152.857 294.69 159.504V180.446H294.669Z" fill="#582D82" stroke="#582D82" stroke-width="0.1618"/>
<path d="M386.697 200.602C375.335 187.158 363.547 173.076 351.887 159.356V190.959C351.887 192.467 352.163 193.678 352.312 194.825C352.673 197.395 355.094 198.393 359.809 198.754V200.602H342.287V198.754C345.727 198.393 348.085 197.395 348.425 194.825C348.573 193.678 348.85 192.467 348.85 190.959V157.274C346.853 154.704 344.623 152.411 340.566 152.411V150.542H353.586C364.227 163.476 375.313 176.623 385.975 189.579H386.124V160.205C386.124 158.697 385.848 157.487 385.699 156.34C385.338 153.77 382.917 152.772 378.202 152.411V150.542H395.724V152.411C392.368 152.772 389.926 153.77 389.586 156.34C389.437 157.487 389.161 158.697 389.161 160.205V200.602H386.697Z" fill="#582D82" stroke="#582D82" stroke-width="0.1618"/>
<path d="M418.556 191.66C418.556 198.308 418.258 197.947 424.694 198.733V200.581H405.473V198.733C411.908 197.947 411.611 198.308 411.611 191.66V159.504C411.611 152.857 411.887 153.218 405.473 152.432V150.563H424.694V152.432C418.258 153.218 418.556 152.857 418.556 159.504V191.66Z" fill="#582D82" stroke="#582D82" stroke-width="0.1618"/>
<path d="M452.857 152.432C448.927 152.432 446.06 153.579 448.418 160.439C451.2 168.871 455.342 181.168 459.08 192.043C463.646 181.104 468.021 170.103 472.439 159.165C474.223 154.662 472.375 152.453 467.512 152.453V150.584H482.952V152.453C480.871 152.453 478.513 153.175 477.027 156.743C471.016 171.398 464.942 185.989 458.931 200.644H455.278C450.924 188.283 446.06 174.478 441.706 162.329C439.051 154.683 436.843 152.474 433.423 152.474V150.605H452.857V152.432Z" fill="#582D82" stroke="#582D82" stroke-width="0.1618"/>
<path d="M489.557 198.754C495.993 197.968 495.696 198.329 495.696 191.681V159.504C495.696 152.857 495.972 153.218 489.557 152.432V150.563H521.522V162.074H519.653C518.931 156.786 517.508 152.857 512.368 152.857H502.641V173.31H508.651C513.154 173.31 515.087 171.526 515.235 167.087H517.083V182.315H515.235C515.087 178.089 513.451 175.604 508.651 175.604H502.641V191.766C502.641 197.841 505.423 198.35 511.858 198.35C522.223 198.35 521.713 195.42 525.005 187.773H526.853L524.708 200.644H489.557V198.754Z" fill="#582D82" stroke="#582D82" stroke-width="0.1618"/>
<path d="M535.179 150.563H555.972C563.193 150.563 570.414 154.343 570.414 162.712C570.414 170.081 565.911 175.158 560.411 177.303L567.419 187.965C570.988 193.189 575.002 198.181 577.508 199.689V200.623H570.138C565.912 200.623 563.639 192.828 554.995 178.471H548.283V191.703C548.283 198.35 548.007 197.989 554.421 198.775V200.623H535.2V198.775C541.635 197.989 541.338 198.35 541.338 191.703V159.504C541.338 152.857 541.635 153.218 535.2 152.432L535.179 150.563ZM548.262 176.156H554.188C560.411 176.156 563.257 171.441 563.257 163.37C563.257 155.575 558.966 152.857 553.742 152.857H548.241V176.156H548.262Z" fill="#582D82" stroke="#582D82" stroke-width="0.1618"/>
<path d="M609.558 161.225C608.984 156.212 606.266 152.219 600.552 152.219C596.411 152.219 592.694 154.365 592.694 159.653C592.694 164.665 597.706 167.66 604.843 173.012C612.425 178.662 614.846 182.294 614.846 188.241C614.846 196.736 606.117 201.473 597.558 201.473C592.991 201.473 589.062 200.623 585.324 199.179C585.048 199.03 584.814 198.754 584.814 198.181V187.88H586.662C587.448 195.823 592.673 198.966 598.174 198.966C603.25 198.966 607.391 195.101 607.391 189.897C607.391 185.246 604.885 181.465 594.159 174.393C590.294 171.823 585.515 169.041 585.515 161.246C585.515 154.811 592.673 149.734 600.892 149.734C603.972 149.734 608.05 150.096 610.896 151.094C611.32 151.242 611.405 151.519 611.405 151.88V161.246H609.558V161.225Z" fill="#582D82" stroke="#582D82" stroke-width="0.1618"/>
<path d="M638.188 191.66C638.188 198.308 637.89 197.947 644.326 198.733V200.581H625.104V198.733C631.54 197.947 631.243 198.308 631.243 191.66V159.504C631.243 152.857 631.519 153.218 625.104 152.432V150.563H644.326V152.432C637.89 153.218 638.188 152.857 638.188 159.504V191.66Z" fill="#582D82" stroke="#582D82" stroke-width="0.1618"/>
<path d="M677.034 191.66C677.034 198.308 676.736 197.947 683.172 198.733V200.581H663.95V198.733C670.386 197.947 670.088 198.308 670.088 191.66V152.857H663.653C657.43 152.857 656.007 156.786 653.65 161.501H651.865L653.798 150.563H693.324L695.257 161.501H693.473C691.115 156.786 689.692 152.857 683.469 152.857H677.034V191.66Z" fill="#582D82" stroke="#582D82" stroke-width="0.1618"/>
<path d="M712.375 198.754C718.811 197.968 718.513 198.329 718.513 191.681V180.658L707.512 158.867C705.154 154.216 703.158 152.432 699.865 152.432V150.563H718.089V152.432C712.651 152.432 713.161 155.15 714.945 158.867L723.589 176.814L733.465 158.867C735.887 154.513 733.614 152.432 729.388 152.432V150.563H744.106V152.432C742.11 152.432 740.177 153.366 738.244 156.786L726.308 178.45C725.586 179.873 725.458 181.89 725.458 183.674V191.681C725.458 198.329 725.161 197.968 731.596 198.754V200.602H712.375V198.754Z" fill="#582D82" stroke="#582D82" stroke-width="0.1618"/>
<path d="M125.65 2.65484C61.1894 2.59113 8.87786 54.8177 8.83538 119.278C8.79291 183.738 60.9982 236.05 125.458 236.092C189.919 236.134 242.23 183.929 242.273 119.469C242.336 54.9876 190.11 2.69732 125.65 2.65484ZM95.7239 20.3044C97.8478 17.161 100.927 15.1858 104.283 14.5274C107.766 13.869 111.165 14.4849 114.435 16.715C117.897 19.0725 119.384 22.9805 119.788 25.0194C120.319 27.8017 119.66 34.6619 119.66 34.6619L119.384 72.7221C119.384 72.7221 117.727 71.023 115.179 71.5115C112.588 72 112.014 74.1451 112.014 74.1451L97.6566 38.8672C97.6566 38.8672 94.4495 33.2389 93.8124 29.9894C93.5363 28.715 93.069 24.2124 95.7239 20.3044ZM118.641 98.4212C118.641 98.4212 119.936 99.4194 121.465 99.2495C123.143 99.0584 124.311 97.4442 124.311 97.4442L124.248 107.788C124.248 107.788 122.804 107.851 121.104 108.552C119.405 109.232 118.131 110.23 118.131 110.23L110.697 102.945C110.697 102.945 112.566 103.519 114.159 102.287C115.752 101.055 115.582 99.6743 115.582 99.6743C115.582 99.6743 117.897 104.92 118.237 105.069C118.534 105.196 119.235 105.027 119.448 104.942C119.66 104.857 120.382 104.411 120.488 104.156C120.637 103.901 118.641 98.4212 118.641 98.4212ZM120.34 135.228C120.212 134.931 119.596 134.57 119.384 134.464C119.172 134.379 118.343 134.188 118.088 134.294C117.834 134.4 115.455 139.71 115.455 139.71C115.455 139.71 115.221 138.074 114.011 137.161C112.673 136.142 110.697 136.481 110.697 136.481L117.94 129.111C117.94 129.111 119.023 130.067 120.722 130.747C122.421 131.448 124.014 131.596 124.014 131.596L124.269 142.004C124.269 142.004 123.334 140.283 121.338 140.05C119.342 139.816 118.492 140.942 118.492 140.942C118.492 140.942 120.488 135.589 120.34 135.228ZM107.979 130.98C106.747 129.388 105.366 129.536 105.366 129.536C105.366 129.536 110.634 127.264 110.782 126.903C110.91 126.605 110.74 125.904 110.655 125.692C110.57 125.48 110.124 124.757 109.869 124.651C109.614 124.545 104.134 126.499 104.134 126.499C104.134 126.499 105.133 125.204 104.963 123.696C104.772 122.018 103.158 120.828 103.158 120.828L113.501 120.934C113.501 120.934 113.565 122.379 114.244 124.078C114.924 125.777 115.901 127.051 115.901 127.051L108.573 134.442C108.616 134.442 109.189 132.573 107.979 130.98ZM99.8442 120.871C101.628 120.149 103.667 121.041 104.389 122.825C105.111 124.609 104.219 126.648 102.435 127.37C100.651 128.092 98.6124 127.2 97.8902 125.416C97.1681 123.611 98.0389 121.593 99.8442 120.871ZM98.1664 113.352C98.931 111.568 100.97 110.761 102.754 111.504C104.538 112.269 105.345 114.329 104.581 116.092C103.816 117.855 101.756 118.683 99.9929 117.919C98.2088 117.175 97.4018 115.115 98.1664 113.352ZM114.542 114.796C113.819 116.474 113.628 118.067 113.628 118.067L103.221 118.131C103.221 118.131 104.963 117.218 105.218 115.221C105.473 113.225 104.389 112.354 104.389 112.354C104.389 112.354 109.72 114.457 110.081 114.308C110.4 114.181 110.761 113.586 110.867 113.352C110.952 113.14 111.143 112.311 111.058 112.057C110.952 111.802 105.685 109.338 105.685 109.338C105.685 109.338 107.32 109.126 108.255 107.936C109.296 106.619 108.998 104.644 108.998 104.644L116.241 112.014C116.241 112.057 115.264 113.119 114.542 114.796ZM108.552 100.503C107.83 98.7186 108.701 96.6796 110.485 95.9575C112.269 95.2354 114.308 96.1062 115.03 97.8902C115.752 99.6743 114.881 101.713 113.097 102.435C111.313 103.157 109.274 102.308 108.552 100.503ZM108.425 106.938C107.66 108.722 105.621 109.529 103.837 108.765C102.053 108 101.246 105.94 102.011 104.177C102.775 102.414 104.835 101.586 106.598 102.35C108.361 103.115 109.189 105.154 108.425 106.938ZM102.244 85.1894C100.8 86.1451 98.846 85.7628 97.8902 84.3186C96.9345 82.8743 97.3168 80.9203 98.761 79.9646C100.205 79.0088 102.159 79.3911 103.115 80.8354C104.071 82.2796 103.688 84.2336 102.244 85.1894ZM97.6991 155.575C98.6548 154.131 100.609 153.749 102.053 154.704C103.497 155.66 103.88 157.614 102.924 159.058C101.968 160.503 100.014 160.885 98.5699 159.929C97.1256 158.952 96.7221 157.019 97.6991 155.575ZM101.628 134.634C100.906 132.828 101.798 130.811 103.582 130.088C105.388 129.366 107.405 130.258 108.127 132.042C108.828 133.827 107.958 135.865 106.173 136.588C104.389 137.288 102.35 136.418 101.628 134.634ZM108.404 138.924C109.126 137.14 111.165 136.269 112.949 137.012C114.733 137.734 115.604 139.773 114.86 141.579C114.138 143.363 112.099 144.234 110.294 143.49C108.531 142.747 107.681 140.708 108.404 138.924ZM112.949 162.945C113.267 161.246 114.924 160.142 116.623 160.46C118.322 160.779 119.427 162.435 119.108 164.134C118.768 165.834 117.133 166.938 115.434 166.619C113.713 166.301 112.609 164.644 112.949 162.945ZM112.991 76.5663C112.673 74.8672 113.777 73.2318 115.476 72.892C117.175 72.5734 118.832 73.6779 119.15 75.377C119.469 77.0761 118.365 78.7115 116.665 79.0513C114.945 79.3911 113.31 78.2655 112.991 76.5663ZM96.2336 49.869C98.5911 48.9132 99.292 46.7894 99.292 46.7894L112.078 78.4141C112.078 78.4141 112.227 81.0902 109.317 82.2584C106.577 83.3628 104.729 81.3876 104.729 81.3876L91.9646 49.7628C91.9646 49.7628 93.8973 50.8248 96.2336 49.869ZM60.1487 39.1646C60.892 35.4478 62.9522 32.4106 65.7982 30.5203C68.7504 28.5663 72.1274 27.823 76.0141 28.6088C80.1345 29.4371 83.023 32.4531 84.1699 34.1947C85.7416 36.5522 87.8018 43.1363 87.8018 43.1363L102.308 78.3292C102.308 78.3292 100.12 77.3947 97.954 78.8389C95.7451 80.3044 96.0425 82.492 96.0425 82.492L69.1115 55.5398C69.1115 55.5398 63.9717 51.6106 62.1239 48.8495C61.423 47.7663 59.2141 43.7947 60.1487 39.1646ZM55.4124 149.055C54.4566 146.697 52.3115 145.996 52.3115 145.996L83.915 133.168C83.915 133.168 86.5911 133.019 87.7593 135.929C88.8637 138.669 86.8885 140.517 86.8885 140.517L55.2849 153.345C55.3062 153.345 56.3681 151.412 55.4124 149.055ZM55.5186 86.2725L86.9734 99.4407C86.9734 99.4407 88.9699 101.204 87.7593 104.113C86.6336 106.832 83.915 106.747 83.915 106.747L52.4602 93.5787C52.4602 93.5787 54.5841 92.9628 55.561 90.6265C56.538 88.2902 55.5186 86.2725 55.5186 86.2725ZM85.4442 93.154C86.4212 91.7097 88.354 91.3274 89.7982 92.3044C91.2425 93.2601 91.6248 95.2141 90.6478 96.6584C89.6708 98.1026 87.738 98.4849 86.2938 97.5079C84.8708 96.5522 84.4885 94.5982 85.4442 93.154ZM82.4071 107.533C84.1062 107.873 85.2106 109.508 84.892 111.207C84.5522 112.906 82.9168 114.011 81.2177 113.692C79.5186 113.352 78.4141 111.717 78.7327 110.018C79.0513 108.297 80.7079 107.193 82.4071 107.533ZM80.8991 126.138C82.5982 125.798 84.2336 126.924 84.5734 128.623C84.892 130.322 83.7876 131.979 82.0885 132.297C80.3894 132.616 78.754 131.511 78.4141 129.812C78.0956 128.092 79.2 126.457 80.8991 126.138ZM86.3787 142.152C87.823 141.196 89.7557 141.579 90.7327 143.023C91.6885 144.467 91.3062 146.421 89.8619 147.377C88.4177 148.333 86.4637 147.95 85.5079 146.506C84.5522 145.062 84.9345 143.108 86.3787 142.152ZM36.1062 60.0425C38.0814 57.0902 40.9062 55.1363 44.8141 54.3717C48.9345 53.5646 52.7575 55.2637 54.4779 56.4106C56.8141 57.9823 61.2318 63.292 61.2318 63.292L88.0991 90.2655C88.0991 90.2655 85.7203 90.2442 84.2761 92.4106C82.8106 94.5982 83.915 96.5097 83.915 96.5097L48.7221 81.8973C48.7221 81.8973 42.4566 80.2194 39.7168 78.3717C38.6336 77.6495 35.0867 74.8248 34.1947 70.1734C33.4513 66.4566 34.1947 62.8885 36.1062 60.0425ZM20.3894 98.6336C21.069 95.1504 22.9168 92.2407 26.2088 90.0318C29.692 87.6955 33.8761 87.7593 35.915 88.1628C38.6973 88.715 44.8141 91.8796 44.8141 91.8796L80.0283 106.322C80.0283 106.322 77.8195 107.235 77.331 109.784C76.8212 112.375 78.5841 113.692 78.5841 113.692L40.5026 113.883C40.5026 113.883 34.0885 114.775 30.8389 114.138C29.5646 113.883 25.1894 112.651 22.5557 108.743C20.4318 105.579 19.731 101.989 20.3894 98.6336ZM25.8478 149.628C22.7044 147.504 20.7079 144.425 20.0708 141.069C19.3911 137.586 20.0283 134.209 22.2584 130.917C24.6159 127.455 28.5239 125.947 30.5628 125.565C33.3451 125.034 40.2053 125.671 40.2053 125.671L78.2655 125.883C78.2655 125.883 76.5664 127.54 77.0548 130.088C77.5646 132.68 79.6885 133.253 79.6885 133.253L44.4318 147.674C44.4318 147.674 38.8035 150.903 35.554 151.519C34.2796 151.795 29.7557 152.283 25.8478 149.628ZM54.4354 183.165C53.3522 183.887 49.3805 186.096 44.7504 185.161C41.0336 184.418 37.9964 182.357 36.1062 179.533C34.131 176.581 33.4088 173.225 34.1734 169.317C35.0018 165.218 38.0177 162.308 39.738 161.161C42.0956 159.589 48.6584 157.529 48.6584 157.529L83.8301 142.959C83.8301 142.959 82.8956 145.147 84.3398 147.313C85.8053 149.501 87.9929 149.204 87.9929 149.204L61.1044 176.177C61.1256 176.177 57.1964 181.338 54.4354 183.165ZM83.8726 205.699C83.1504 206.782 80.3256 210.329 75.6956 211.242C71.9787 211.986 68.3894 211.242 65.5433 209.331C62.5911 207.356 60.6159 204.531 59.8513 200.644C59.0442 196.524 60.7221 192.701 61.869 190.981C63.4407 188.623 68.7292 184.205 68.7292 184.205L95.6602 157.296C95.6602 157.296 95.6389 159.674 97.8053 161.119C100.014 162.584 101.904 161.48 101.904 161.48L87.377 196.694C87.377 196.694 85.7203 202.959 83.8726 205.699ZM104.835 158.379C104.835 158.379 106.598 156.361 109.508 157.572C112.248 158.697 112.163 161.416 112.163 161.416L99.0584 192.913C99.0584 192.913 98.4212 190.789 96.0849 189.812C93.7487 188.835 91.731 189.855 91.731 189.855L104.835 158.379ZM119.66 214.513C119.405 215.788 118.195 220.163 114.265 222.796C111.122 224.92 107.533 225.621 104.177 224.984C100.694 224.304 97.7841 222.457 95.554 219.186C93.1964 215.703 93.2814 211.519 93.6637 209.501C94.1947 206.719 97.3593 200.602 97.3593 200.602L111.717 165.345C111.717 165.345 112.63 167.554 115.179 168.042C117.77 168.552 119.087 166.789 119.087 166.789L119.363 204.871C119.384 204.85 120.276 211.264 119.66 214.513ZM124.12 145.253C123.398 147.037 121.359 147.908 119.575 147.165C117.791 146.442 116.92 144.404 117.664 142.619C118.386 140.835 120.446 139.965 122.23 140.708C123.993 141.43 124.842 143.469 124.12 145.253ZM122.294 98.6336C120.51 99.3557 118.471 98.4849 117.749 96.7009C117.027 94.9168 117.897 92.8778 119.681 92.1557C121.465 91.4336 123.504 92.3044 124.227 94.0885C124.949 95.8725 124.099 97.9115 122.294 98.6336ZM225.027 89.9681C228.17 92.0708 230.188 95.1504 230.846 98.5062C231.526 101.989 230.931 105.366 228.701 108.658C226.365 112.142 222.457 113.65 220.439 114.053C217.657 114.605 210.796 113.968 210.796 113.968L172.736 113.904C172.736 113.904 174.435 112.248 173.926 109.678C173.416 107.087 171.271 106.513 171.271 106.513L206.464 91.9433C206.464 91.9433 212.071 88.6938 215.32 88.0566C216.595 87.8442 221.097 87.3345 225.027 89.9681ZM195.419 153.451L163.88 140.453C163.88 140.453 161.862 138.69 163.073 135.802C164.198 133.062 166.917 133.126 166.917 133.126L198.457 146.124C198.457 146.124 196.333 146.761 195.377 149.097C194.4 151.455 195.419 153.451 195.419 153.451ZM195.462 90.6478C196.418 92.984 198.563 93.6849 198.563 93.6849L167.002 106.641C167.002 106.641 164.326 106.811 163.136 103.901C162.011 101.161 163.986 99.3132 163.986 99.3132L195.526 86.3575C195.547 86.3787 194.506 88.3115 195.462 90.6478ZM164.538 97.6991C163.094 98.6761 161.161 98.2938 160.184 96.8495C159.207 95.4053 159.589 93.4725 161.034 92.4955C162.478 91.5186 164.411 91.9009 165.388 93.3451C166.343 94.7894 165.961 96.7433 164.538 97.6991ZM160.227 143.257C161.182 141.812 163.136 141.409 164.581 142.386C166.025 143.342 166.407 145.296 165.451 146.74C164.496 148.184 162.542 148.566 161.097 147.611C159.674 146.655 159.271 144.701 160.227 143.257ZM168.425 132.34C166.726 132.021 165.6 130.386 165.94 128.687C166.258 126.988 167.894 125.862 169.614 126.181C171.313 126.499 172.439 128.156 172.099 129.855C171.781 131.554 170.124 132.658 168.425 132.34ZM170.06 113.692C168.361 114.032 166.704 112.927 166.386 111.228C166.046 109.529 167.15 107.873 168.85 107.533C170.549 107.193 172.205 108.297 172.524 109.996C172.885 111.717 171.781 113.373 170.06 113.692ZM196.29 56.538C197.373 55.8159 201.324 53.5858 205.954 54.4991C209.692 55.2212 212.729 57.2601 214.619 60.1062C216.595 63.0371 217.359 66.4141 216.595 70.3009C215.788 74.4212 212.793 77.3309 211.073 78.4778C208.736 80.0495 202.152 82.1522 202.152 82.1522L167.044 96.8708C167.044 96.8708 167.958 94.6832 166.513 92.5168C165.048 90.3292 162.86 90.6265 162.86 90.6265L189.642 63.5469C189.642 63.5681 193.55 58.3858 196.29 56.538ZM166.896 34.1097C167.618 33.0265 170.442 29.4796 175.094 28.5663C178.811 27.823 182.4 28.5876 185.246 30.4779C188.198 32.4531 190.152 35.2779 190.917 39.1858C191.724 43.2849 190.046 47.1292 188.878 48.8495C187.306 51.2071 182.018 55.6035 182.018 55.6035L155.044 82.492C155.044 82.492 155.065 80.1132 152.899 78.669C150.711 77.2035 148.8 78.3079 148.8 78.3079L163.37 43.115C163.37 43.115 165.048 36.8495 166.896 34.1097ZM132.637 140.963C132.637 140.963 131.32 139.986 129.812 140.177C128.156 140.389 126.988 142.046 126.988 142.046L126.881 131.703C126.881 131.703 128.326 131.618 130.004 130.896C131.703 130.173 132.934 129.175 132.934 129.175L140.474 136.354C140.474 136.354 138.584 135.802 137.012 137.055C135.441 138.308 135.632 139.688 135.632 139.688C135.632 139.688 133.253 134.464 132.892 134.315C132.573 134.188 131.894 134.379 131.681 134.464C131.469 134.549 130.768 135.016 130.662 135.271C130.556 135.526 132.637 140.963 132.637 140.963ZM136.12 97.9327C136.864 96.1486 138.924 95.3203 140.708 96.0637C142.492 96.8071 143.32 98.8672 142.577 100.651C141.834 102.435 139.773 103.264 137.989 102.52C136.205 101.756 135.356 99.7168 136.12 97.9327ZM134.103 79.3062C132.404 78.9663 131.299 77.3309 131.618 75.6318C131.958 73.9327 133.593 72.8283 135.292 73.1469C136.991 73.4867 138.096 75.1221 137.777 76.8212C137.458 78.5203 135.802 79.6248 134.103 79.3062ZM140.241 126.754C140.347 127.009 145.699 129.303 145.699 129.303C145.699 129.303 144.085 129.557 143.172 130.789C142.173 132.149 142.534 134.103 142.534 134.103L135.037 126.966C135.037 126.966 135.972 125.862 136.63 124.163C137.288 122.442 137.437 120.85 137.437 120.85L147.844 120.425C147.844 120.425 146.145 121.402 145.954 123.398C145.763 125.395 146.888 126.223 146.888 126.223C146.888 126.223 141.494 124.29 141.133 124.46C140.835 124.588 140.474 125.225 140.389 125.437C140.304 125.671 140.134 126.499 140.241 126.754ZM146.57 122.527C147.271 120.722 149.288 119.83 151.094 120.531C152.899 121.232 153.77 123.25 153.09 125.055C152.389 126.86 150.372 127.731 148.566 127.051C146.761 126.35 145.869 124.333 146.57 122.527ZM151.051 117.876C149.267 118.619 147.228 117.791 146.464 116.028C145.72 114.244 146.549 112.205 148.311 111.441C150.096 110.697 152.134 111.526 152.899 113.288C153.642 115.073 152.814 117.133 151.051 117.876ZM147.101 108.743C145.317 109.508 143.278 108.658 142.513 106.896C141.77 105.111 142.598 103.073 144.361 102.308C146.145 101.543 148.184 102.393 148.949 104.156C149.692 105.94 148.864 108 147.101 108.743ZM141.982 104.496C141.982 104.496 141.43 106.386 142.683 107.957C143.936 109.529 145.338 109.338 145.338 109.338C145.338 109.338 140.135 111.738 139.986 112.099C139.858 112.418 140.05 113.097 140.135 113.31C140.219 113.522 140.687 114.223 140.942 114.329C141.196 114.435 146.634 112.354 146.634 112.354C146.634 112.354 145.657 113.671 145.848 115.179C146.081 116.835 147.717 118.004 147.717 118.004L137.373 118.11C137.373 118.11 137.288 116.665 136.566 114.988C135.844 113.288 134.846 112.057 134.846 112.057L141.982 104.496ZM137.904 163.221C138.223 164.92 137.119 166.556 135.419 166.896C133.72 167.214 132.064 166.11 131.745 164.411C131.427 162.711 132.531 161.055 134.23 160.736C135.929 160.396 137.586 161.522 137.904 163.221ZM136.227 141.451C135.483 139.667 136.311 137.607 138.074 136.864C139.858 136.12 141.897 136.949 142.662 138.733C143.405 140.517 142.577 142.556 140.793 143.299C139.03 144.064 136.97 143.214 136.227 141.451ZM143.023 131.83C143.724 130.025 145.742 129.133 147.547 129.834C149.352 130.534 150.244 132.552 149.543 134.357C148.842 136.163 146.825 137.055 145.019 136.354C143.214 135.653 142.322 133.635 143.023 131.83ZM148.63 154.598C150.074 153.642 152.028 154.025 152.984 155.469C153.94 156.913 153.558 158.867 152.113 159.823C150.669 160.779 148.715 160.396 147.759 158.952C146.804 157.508 147.186 155.554 148.63 154.598ZM153.005 84.2124C152.05 85.6566 150.096 86.0389 148.651 85.0619C147.207 84.0849 146.825 82.1522 147.802 80.7079C148.757 79.2637 150.711 78.8814 152.156 79.8584C153.6 80.8354 153.982 82.7681 153.005 84.2124ZM145.869 81.3876C145.869 81.3876 144.106 83.384 141.196 82.1734C138.457 81.0478 138.542 78.3292 138.542 78.3292L151.688 46.8531C151.688 46.8531 152.326 48.977 154.662 49.954C156.998 50.9309 159.016 49.9115 159.016 49.9115L145.869 81.3876ZM131.129 25.2531C131.384 23.9787 132.616 19.6035 136.524 16.9699C139.667 14.846 143.257 14.1451 146.612 14.8035C150.096 15.4832 153.005 17.3309 155.214 20.623C157.55 24.1062 157.487 28.2902 157.083 30.3079C156.531 33.0902 153.366 39.2071 153.366 39.2071L138.966 74.4424C138.966 74.4424 138.053 72.2336 135.504 71.7451C132.913 71.2354 131.596 72.9982 131.596 72.9982L131.384 34.9168C131.384 34.9168 130.492 28.5026 131.129 25.2531ZM126.924 94.1309C127.667 92.3469 129.727 91.5186 131.511 92.2619C133.296 93.0053 134.124 95.0655 133.381 96.8283C132.637 98.6124 130.577 99.4407 128.793 98.6973C127.009 97.9752 126.181 95.915 126.924 94.1309ZM129.664 99.3557C131.66 99.6106 132.531 98.5062 132.531 98.5062C132.531 98.5062 130.45 103.858 130.598 104.219C130.726 104.538 131.342 104.899 131.554 104.984C131.766 105.069 132.595 105.26 132.85 105.154C133.104 105.048 135.547 99.7805 135.547 99.7805C135.547 99.7805 135.759 101.416 136.97 102.35C138.287 103.391 140.283 103.073 140.283 103.073L132.934 110.357C132.934 110.357 131.873 109.402 130.173 108.68C128.496 107.957 126.881 107.788 126.881 107.788L126.754 97.3805C126.733 97.3593 127.667 99.1009 129.664 99.3557ZM127.094 145.381C126.35 143.596 127.179 141.558 128.942 140.793C130.726 140.05 132.765 140.878 133.529 142.641C134.273 144.425 133.444 146.485 131.66 147.228C129.897 147.993 127.837 147.165 127.094 145.381ZM155.193 219.483C153.069 222.627 149.989 224.623 146.634 225.26C143.15 225.919 139.773 225.303 136.481 223.073C133.019 220.715 131.511 216.807 131.129 214.768C130.598 211.986 131.257 205.126 131.257 205.126L131.511 167.065C131.511 167.065 133.168 168.765 135.717 168.276C138.308 167.766 138.881 165.642 138.881 165.642L153.26 200.899C153.26 200.899 156.488 206.527 157.104 209.777C157.359 211.051 157.848 215.575 155.193 219.483ZM154.662 189.897C152.304 190.853 151.604 192.998 151.604 192.998L138.818 161.373C138.818 161.373 138.669 158.697 141.579 157.529C144.319 156.425 146.166 158.4 146.166 158.4L158.952 190.025C158.952 190.025 156.998 188.963 154.662 189.897ZM190.747 200.602C190.004 204.34 187.943 207.356 185.097 209.246C182.145 211.221 178.789 211.943 174.881 211.157C170.761 210.329 167.873 207.313 166.726 205.593C165.154 203.235 163.094 196.651 163.094 196.651L148.545 161.48C148.545 161.48 150.733 162.414 152.899 160.97C155.108 159.504 154.789 157.317 154.789 157.317L181.742 184.227C181.742 184.227 186.903 188.156 188.729 190.917C189.494 192 191.681 195.972 190.747 200.602ZM214.981 179.575C213.027 182.527 210.202 184.503 206.315 185.288C202.216 186.117 198.372 184.439 196.651 183.292C194.294 181.72 189.855 176.453 189.855 176.453L162.839 149.628C162.839 149.628 165.218 149.65 166.662 147.462C168.127 145.253 167.002 143.363 167.002 143.363L202.258 157.784C202.258 157.784 208.524 159.419 211.285 161.246C212.368 161.968 215.936 164.772 216.85 169.402C217.614 173.14 216.871 176.729 214.981 179.575ZM230.485 140.899C229.827 144.382 227.979 147.292 224.708 149.522C221.246 151.88 217.062 151.837 215.023 151.434C212.241 150.903 206.103 147.759 206.103 147.759L170.804 133.508C170.804 133.508 172.991 132.595 173.48 130.046C173.968 127.455 172.205 126.138 172.205 126.138L210.287 125.734C210.287 125.734 216.701 124.8 219.95 125.437C221.225 125.671 225.6 126.881 228.255 130.789C230.421 133.954 231.122 137.543 230.485 140.899Z" fill="#582D82"/>
<path d="M73.1257 28.3115C80.4319 28.3115 86.3575 34.2372 86.3363 41.5434C86.3363 48.8283 80.4106 54.7327 73.1257 54.7327C73.1257 54.7327 73.1257 54.7327 73.1044 54.7327C65.7982 54.7327 59.8938 48.8071 59.8938 41.5221C59.9363 34.2159 65.8407 28.3115 73.1257 28.3115ZM73.1469 26.8885C65.0761 26.8885 58.5133 33.4513 58.492 41.5009C58.492 45.4088 60 49.0832 62.7611 51.8442C65.5221 54.6053 69.1965 56.1345 73.1044 56.1345C81.1752 56.1345 87.7381 49.5717 87.7381 41.5221C87.7381 37.6142 86.2301 33.9398 83.469 31.1788C80.7292 28.4177 77.0549 26.8885 73.1469 26.8885Z" fill="#582D82"/>
<path d="M106.811 14.315C114.117 14.315 120.021 20.2407 120.021 27.5257C120.021 34.8106 114.096 40.7363 106.811 40.7363C99.5256 40.7363 93.6 34.8106 93.6 27.5257C93.6212 20.2195 99.5256 14.315 106.811 14.315ZM106.832 12.892C98.761 12.892 92.1982 19.4549 92.1982 27.5044C92.1982 35.5752 98.761 42.138 106.811 42.138C114.881 42.138 121.444 35.5752 121.465 27.5257C121.465 19.4761 114.903 12.892 106.832 12.892Z" fill="#582D82"/>
<path d="M177.919 28.269C185.225 28.269 191.129 34.1947 191.129 41.4796C191.129 48.7646 185.204 54.6903 177.919 54.6903C170.612 54.6903 164.708 48.7646 164.708 41.4796C164.708 34.1734 170.612 28.269 177.919 28.269ZM177.919 26.846C169.848 26.846 163.285 33.4088 163.264 41.4584C163.264 45.3664 164.772 49.0407 167.533 51.8018C170.294 54.5628 173.968 56.092 177.876 56.092C185.947 56.092 192.51 49.5292 192.51 41.4796C192.552 33.4301 185.989 26.8672 177.919 26.846Z" fill="#582D82"/>
<path d="M144.127 14.5699C151.434 14.5699 157.338 20.4955 157.338 27.7805C157.338 35.0654 151.412 40.9911 144.127 40.9911C136.821 40.9911 130.917 35.0654 130.917 27.7592C130.917 20.4743 136.821 14.5699 144.127 14.5699ZM144.127 13.1469C136.057 13.1469 129.494 19.7097 129.494 27.7592C129.494 31.6672 131.002 35.3415 133.763 38.1026C136.524 40.8637 140.198 42.3929 144.106 42.3929C152.177 42.3929 158.74 35.83 158.74 27.7805C158.761 19.7309 152.198 13.1681 144.127 13.1469Z" fill="#582D82"/>
<path d="M72.892 185.119C72.9133 185.119 72.9133 185.119 72.892 185.119C80.1982 185.119 86.1026 191.044 86.1026 198.329C86.1026 205.614 80.177 211.54 72.892 211.54C65.6071 211.54 59.6814 205.614 59.6814 198.308C59.7026 191.023 65.6071 185.119 72.892 185.119ZM72.9133 183.696C64.8425 183.696 58.2796 190.258 58.2796 198.308C58.2796 206.379 64.8425 212.942 72.892 212.963C80.9628 212.963 87.5257 206.4 87.5469 198.35C87.5469 190.28 80.9841 183.696 72.9133 183.696Z" fill="#582D82"/>
<path d="M106.662 198.775C106.683 198.775 106.683 198.775 106.662 198.775C113.968 198.775 119.873 204.701 119.873 212.007C119.873 219.292 113.947 225.218 106.662 225.218C99.377 225.218 93.4513 219.292 93.4513 211.986C93.4726 204.68 99.377 198.775 106.662 198.775ZM106.683 197.352C98.6124 197.352 92.0496 203.915 92.0496 211.965C92.0496 215.873 93.5575 219.547 96.3186 222.308C99.0796 225.069 102.754 226.598 106.662 226.598C114.733 226.598 121.296 220.035 121.296 211.986C121.317 203.936 114.754 197.352 106.683 197.352Z" fill="#582D82"/>
<path d="M177.749 185.055C185.055 185.055 190.959 190.981 190.959 198.265C190.959 205.55 185.034 211.455 177.749 211.455C177.749 211.455 177.749 211.455 177.727 211.455C170.421 211.455 164.517 205.529 164.517 198.244C164.538 190.959 170.464 185.055 177.749 185.055ZM177.77 183.632C169.699 183.632 163.136 190.195 163.115 198.244C163.115 202.152 164.623 205.827 167.384 208.588C170.145 211.349 173.819 212.878 177.727 212.878C185.798 212.878 192.361 206.315 192.361 198.265C192.382 190.216 185.819 183.653 177.77 183.632Z" fill="#582D82"/>
<path d="M144.106 199.03C151.412 199.03 157.317 204.956 157.317 212.241C157.317 219.526 151.391 225.43 144.106 225.43C144.106 225.43 144.106 225.43 144.085 225.43C136.779 225.43 130.874 219.504 130.896 212.219C130.917 204.934 136.821 199.03 144.106 199.03ZM144.127 197.607C136.057 197.607 129.494 204.17 129.494 212.219C129.494 216.127 131.002 219.802 133.763 222.563C136.524 225.324 140.198 226.853 144.106 226.853C152.177 226.853 158.74 220.29 158.74 212.241C158.74 208.333 157.232 204.658 154.471 201.897C151.71 199.136 148.035 197.607 144.127 197.607Z" fill="#582D82"/>
<path d="M47.108 158.973C54.4142 158.973 60.3186 164.899 60.3186 172.184C60.3186 179.469 54.3929 185.395 47.108 185.395C39.8018 185.395 33.8973 179.469 33.9186 172.163C33.8973 164.878 39.8018 158.973 47.108 158.973ZM47.108 157.55C39.0372 157.55 32.4743 164.113 32.4743 172.163C32.4743 180.234 39.0372 186.796 47.0867 186.818C55.1575 186.818 61.7204 180.255 61.7416 172.205C61.7416 164.113 55.1788 157.55 47.108 157.55Z" fill="#582D82"/>
<path d="M33.0478 125.352C40.354 125.352 46.2584 131.278 46.2584 138.563C46.2584 145.848 40.3327 151.752 33.0478 151.752C25.7416 151.752 19.8372 145.827 19.8372 138.542C19.8372 131.278 25.7628 125.352 33.0478 125.352ZM33.069 123.929C24.9982 123.929 18.4354 130.492 18.4354 138.563C18.4354 146.634 24.9982 153.196 33.0478 153.196C41.1186 153.196 47.6814 146.634 47.6814 138.584C47.6814 134.676 46.1734 131.002 43.4124 128.241C40.6513 125.458 36.977 123.95 33.069 123.929Z" fill="#582D82"/>
<path d="M47.1292 54.1805C54.4354 54.1805 60.3398 60.1062 60.3398 67.3911C60.3398 74.6761 54.4142 80.5805 47.1292 80.5805C47.1292 80.5805 47.1292 80.5805 47.108 80.5805C39.8018 80.5805 33.8973 74.6549 33.8973 67.3699C33.9186 60.1062 39.823 54.1805 47.1292 54.1805ZM47.1292 52.7575C39.0584 52.7575 32.4956 59.3203 32.4956 67.3699C32.4956 71.2779 34.0035 74.9522 36.7646 77.7133C39.5257 80.4743 43.2 82.0035 47.108 82.0035C55.1788 82.0035 61.7416 75.4407 61.7416 67.3911C61.7416 63.4832 60.2336 59.8088 57.4726 57.0478C54.7115 54.2867 51.0372 52.7787 47.1292 52.7575Z" fill="#582D82"/>
<path d="M33.3664 87.9504C40.6726 87.9504 46.577 93.8761 46.577 101.161C46.577 108.446 40.6513 114.35 33.3664 114.35C26.0602 114.35 20.1557 108.425 20.177 101.14C20.1557 93.8548 26.0814 87.9504 33.3664 87.9504ZM33.3664 86.5274C25.2956 86.5274 18.7327 93.0902 18.7327 101.14C18.7327 105.048 20.2407 108.722 23.0018 111.483C25.7628 114.244 29.4372 115.773 33.3451 115.773C41.4159 115.773 47.9787 109.211 47.9787 101.161C48 93.1115 41.4372 86.5274 33.3664 86.5274Z" fill="#582D82"/>
<path d="M203.915 159.058C211.221 159.058 217.126 164.984 217.126 172.269C217.126 179.554 211.2 185.48 203.915 185.48C196.609 185.48 190.704 179.554 190.704 172.248C190.704 164.963 196.63 159.058 203.915 159.058ZM203.936 157.635C195.865 157.635 189.303 164.198 189.281 172.248C189.281 180.319 195.844 186.881 203.894 186.903C211.965 186.903 218.527 180.34 218.527 172.269C218.527 168.361 217.019 164.687 214.258 161.926C211.519 159.165 207.844 157.635 203.936 157.635Z" fill="#582D82"/>
<path d="M217.508 125.225C224.814 125.225 230.719 131.15 230.719 138.435C230.719 145.72 224.793 151.625 217.508 151.625C210.202 151.625 204.297 145.699 204.319 138.414C204.297 131.129 210.223 125.225 217.508 125.225ZM217.508 123.802C209.437 123.802 202.874 130.365 202.874 138.435C202.874 146.506 209.416 153.069 217.487 153.069C225.558 153.069 232.12 146.506 232.12 138.457C232.12 134.549 230.612 130.874 227.851 128.113C225.09 125.331 221.416 123.802 217.508 123.802Z" fill="#582D82"/>
<path d="M203.703 54.2867C211.009 54.2867 216.913 60.2124 216.913 67.5186C216.913 74.8035 210.988 80.708 203.703 80.708C203.703 80.708 203.703 80.708 203.681 80.708C196.375 80.708 190.471 74.7823 190.471 67.4973C190.492 60.1911 196.418 54.2867 203.703 54.2867ZM203.724 52.8637C195.653 52.8637 189.09 59.4265 189.09 67.4761C189.09 71.3841 190.598 75.0584 193.359 77.8195C196.12 80.5805 199.795 82.1097 203.703 82.1097C211.773 82.1097 218.336 75.5469 218.336 67.4973C218.336 59.4478 211.773 52.8637 203.724 52.8637Z" fill="#582D82"/>
<path d="M217.826 87.8654C225.133 87.8654 231.037 93.7911 231.037 101.076C231.037 108.361 225.111 114.265 217.826 114.265C217.826 114.265 217.827 114.265 217.805 114.265C210.499 114.265 204.595 108.34 204.616 101.055C204.637 93.7699 210.542 87.8654 217.826 87.8654ZM217.848 86.4424C209.777 86.4424 203.214 93.0053 203.214 101.055C203.214 104.963 204.722 108.637 207.483 111.398C210.244 114.159 213.919 115.688 217.826 115.688C225.897 115.688 232.46 109.126 232.481 101.076C232.46 93.0053 225.919 86.4424 217.848 86.4424Z" fill="#582D82"/>
<path d="M73.2743 36.4035C76.1416 36.4035 78.4566 38.7186 78.4566 41.5858C78.4566 44.4531 76.1416 46.7894 73.2743 46.7894C70.4071 46.7894 68.0708 44.4531 68.092 41.5858C68.0708 38.7186 70.3858 36.4035 73.2743 36.4035ZM73.2743 34.9805C69.6212 34.9805 66.6478 37.9327 66.6478 41.5646C66.6478 45.2177 69.6212 48.1912 73.2531 48.1912C76.8849 48.1912 79.8584 45.2177 79.8584 41.5646C79.8584 39.8018 79.1787 38.1451 77.9256 36.892C76.6938 35.6814 75.0371 34.9805 73.2743 34.9805Z" fill="#582D82"/>
<path d="M106.789 22.3221C109.657 22.3221 111.972 24.6372 111.972 27.5044C111.972 30.3929 109.657 32.708 106.789 32.708C103.922 32.708 101.607 30.3717 101.607 27.5044C101.607 24.6372 103.922 22.3221 106.789 22.3221ZM106.789 20.8991C103.136 20.8991 100.163 23.8513 100.163 27.4832C100.163 31.1363 103.136 34.1097 106.768 34.1097C110.421 34.1097 113.373 31.1363 113.373 27.4832C113.373 25.7203 112.694 24.0637 111.441 22.8319C110.209 21.5788 108.552 20.8991 106.789 20.8991Z" fill="#582D82"/>
<path d="M97.9752 79.2424L65.5646 30.223" stroke="#582D82" stroke-width="0.6692" stroke-miterlimit="1" stroke-linecap="round" stroke-linejoin="round"/>
<path d="M115.158 71.5539L104.177 14.2088" stroke="#582D82" stroke-width="0.6692" stroke-miterlimit="1" stroke-linecap="round" stroke-linejoin="round"/>
<path d="M177.749 36.4885C180.616 36.4885 182.952 38.8035 182.952 41.6708C182.952 44.5381 180.637 46.8743 177.749 46.8743C174.881 46.8743 172.566 44.5381 172.566 41.6708C172.588 38.8035 174.903 36.4885 177.749 36.4885ZM177.77 35.0655C174.138 35.0655 171.165 38.0177 171.165 41.6496C171.165 45.3027 174.117 48.2761 177.77 48.2761C181.423 48.2761 184.396 45.3027 184.396 41.6496C184.396 39.8867 183.717 38.2301 182.464 36.977C181.189 35.7451 179.533 35.0655 177.77 35.0655Z" fill="#582D82"/>
<path d="M144.255 22.3434C147.122 22.3434 149.458 24.6584 149.458 27.5257C149.458 30.4142 147.143 32.7292 144.255 32.7292C141.388 32.7292 139.073 30.3929 139.073 27.5257C139.073 24.6584 141.409 22.3434 144.255 22.3434ZM144.255 20.9203C140.623 20.9203 137.65 23.8726 137.65 27.5044C137.65 31.1575 140.602 34.131 144.255 34.131C147.908 34.131 150.881 31.1575 150.881 27.5044C150.881 25.7416 150.202 24.0849 148.949 22.8319C147.696 21.6212 146.018 20.9203 144.255 20.9203Z" fill="#582D82"/>
<path d="M153.005 79.2849L185.692 29.9893" stroke="#582D82" stroke-width="0.6692" stroke-miterlimit="1" stroke-linecap="round" stroke-linejoin="round"/>
<path d="M135.823 71.5752L146.931 14.23" stroke="#582D82" stroke-width="0.6692" stroke-miterlimit="1" stroke-linecap="round" stroke-linejoin="round"/>
<path d="M73.1469 192.892C76.0141 192.892 78.3292 195.228 78.3292 198.096C78.3292 200.942 76.0141 203.257 73.1681 203.257C70.3009 203.257 67.9646 200.942 67.9858 198.074C67.9433 195.207 70.2796 192.892 73.1469 192.892ZM73.1469 191.469C69.4938 191.469 66.5203 194.442 66.5203 198.096C66.5203 201.727 69.4938 204.701 73.1256 204.701C76.7787 204.701 79.7309 201.749 79.7309 198.117C79.7309 196.354 79.0513 194.676 77.7982 193.423C76.5663 192.149 74.9097 191.469 73.1469 191.469Z" fill="#582D82"/>
<path d="M106.662 207.016C109.529 207.016 111.844 209.352 111.844 212.219C111.844 215.065 109.529 217.38 106.662 217.38C103.795 217.38 101.48 215.065 101.48 212.198C101.458 209.352 103.773 207.016 106.662 207.016ZM106.662 205.593C103.009 205.593 100.035 208.566 100.035 212.219C100.035 215.851 103.009 218.804 106.641 218.825C110.273 218.825 113.246 215.873 113.246 212.241C113.246 208.588 110.294 205.614 106.662 205.593Z" fill="#582D82"/>
<path d="M97.9115 160.46L65.0124 210.032" stroke="#582D82" stroke-width="0.6692" stroke-miterlimit="1" stroke-linecap="round" stroke-linejoin="round"/>
<path d="M115.073 168.17L104.007 225.834" stroke="#582D82" stroke-width="0.6692" stroke-miterlimit="1" stroke-linecap="round" stroke-linejoin="round"/>
<path d="M177.642 192.956C180.51 192.956 182.846 195.292 182.846 198.159C182.846 201.005 180.531 203.32 177.642 203.32C174.775 203.32 172.46 201.005 172.46 198.159C172.46 195.292 174.775 192.956 177.642 192.956ZM177.642 191.554C174.011 191.554 171.037 194.527 171.037 198.18C171.037 199.943 171.717 201.6 172.97 202.832C174.223 204.085 175.88 204.765 177.642 204.765C181.296 204.765 184.269 201.812 184.269 198.18C184.248 194.527 181.296 191.554 177.642 191.554Z" fill="#582D82"/>
<path d="M144.106 207.058C146.995 207.058 149.31 209.395 149.31 212.262C149.31 215.108 146.995 217.423 144.106 217.423C141.239 217.423 138.924 215.108 138.924 212.241C138.945 209.373 141.26 207.058 144.106 207.058ZM144.127 205.635C144.106 205.635 144.106 205.635 144.127 205.635C140.474 205.635 137.522 208.609 137.522 212.262C137.522 214.025 138.202 215.681 139.455 216.913C140.708 218.166 142.365 218.846 144.127 218.846C147.781 218.846 150.754 215.894 150.754 212.262C150.754 210.499 150.074 208.821 148.821 207.568C147.547 206.315 145.89 205.635 144.127 205.635Z" fill="#582D82"/>
<path d="M152.942 160.503L185.522 209.819" stroke="#582D82" stroke-width="0.6692" stroke-miterlimit="1" stroke-linecap="round" stroke-linejoin="round"/>
<path d="M135.759 168.191L146.782 225.834" stroke="#582D82" stroke-width="0.6692" stroke-miterlimit="1" stroke-linecap="round" stroke-linejoin="round"/>
<path d="M47.1504 166.874C50.0389 166.874 52.354 169.211 52.354 172.057C52.354 174.924 50.0177 177.239 47.1504 177.239C44.3044 177.239 41.9894 174.924 41.9894 172.035C41.9894 169.189 44.3044 166.874 47.1504 166.874ZM47.1504 165.451C43.5186 165.451 40.5663 168.404 40.5451 172.057C40.5451 173.819 41.2248 175.476 42.4778 176.729C43.7309 177.982 45.3663 178.662 47.1292 178.662C50.7823 178.662 53.7557 175.688 53.7557 172.057C53.7557 170.294 53.0761 168.637 51.823 167.384C50.5911 166.152 48.9345 165.451 47.1504 165.451Z" fill="#582D82"/>
<path d="M33.069 133.359C35.9575 133.359 38.2726 135.674 38.2726 138.542C38.2726 141.409 35.9575 143.724 33.069 143.724C30.223 143.724 27.908 141.388 27.908 138.52C27.908 135.674 30.223 133.359 33.069 133.359ZM33.069 131.936C29.4372 131.936 26.4637 134.889 26.4637 138.542C26.4637 140.304 27.1434 141.961 28.3965 143.214C29.6496 144.467 31.3062 145.147 33.0478 145.147C36.7009 145.147 39.6743 142.173 39.6743 138.542C39.6956 134.91 36.7221 131.936 33.069 131.936Z" fill="#582D82"/>
<path d="M84.8283 147.356L35.5752 179.936" stroke="#582D82" stroke-width="0.6692" stroke-miterlimit="1" stroke-linecap="round" stroke-linejoin="round"/>
<path d="M77.1398 130.173L19.4973 141.196" stroke="#582D82" stroke-width="0.6692" stroke-miterlimit="1" stroke-linecap="round" stroke-linejoin="round"/>
<path d="M47.2354 62.3788C50.1239 62.3788 52.4389 64.715 52.4389 67.5823C52.4389 70.4496 50.1026 72.7646 47.2354 72.7646C44.3894 72.7646 42.0743 70.4283 42.0743 67.5823C42.0743 64.6938 44.3894 62.3788 47.2354 62.3788ZM47.2354 60.9557C43.6035 60.9557 40.6513 63.9292 40.6301 67.5611C40.6301 69.3239 41.3097 70.9805 42.5628 72.2336C43.8159 73.4867 45.4725 74.1664 47.2141 74.1664C50.8672 74.1664 53.8407 71.2142 53.8407 67.5611C53.8619 63.9292 50.8885 60.9557 47.2354 60.9557Z" fill="#582D82"/>
<path d="M33.0902 95.8725C35.9787 95.8725 38.2938 98.2088 38.2938 101.076C38.2938 103.922 35.9787 106.258 33.0902 106.258C30.2442 106.258 27.9292 103.922 27.9292 101.076C27.9292 98.1876 30.2442 95.8725 33.0902 95.8725ZM33.1115 94.4495C33.0902 94.4495 33.0902 94.4495 33.1115 94.4495C29.4796 94.4495 26.5274 97.423 26.5062 101.055C26.5062 102.818 27.1858 104.474 28.4389 105.727C29.692 106.98 31.3486 107.66 33.0902 107.66C36.7433 107.66 39.7168 104.708 39.7168 101.076C39.7168 99.3132 39.0371 97.6354 37.784 96.4035C36.5309 95.1504 34.8743 94.4495 33.1115 94.4495Z" fill="#582D82"/>
<path d="M84.8708 92.3256L35.7239 59.7026" stroke="#582D82" stroke-width="0.6692" stroke-miterlimit="1" stroke-linecap="round" stroke-linejoin="round"/>
<path d="M77.1398 109.487L19.8796 98.4424" stroke="#582D82" stroke-width="0.6692" stroke-miterlimit="1" stroke-linecap="round" stroke-linejoin="round"/>
<path d="M203.66 167.002C206.506 167.002 208.842 169.317 208.821 172.184C208.821 175.051 206.506 177.366 203.639 177.366C200.75 177.366 198.435 175.03 198.435 172.163C198.457 169.317 200.793 167.002 203.66 167.002ZM203.681 165.579C200.028 165.579 197.055 168.531 197.055 172.163C197.055 175.816 200.028 178.789 203.681 178.789C207.313 178.789 210.287 175.816 210.287 172.184C210.265 168.552 207.313 165.579 203.681 165.579Z" fill="#582D82"/>
<path d="M217.805 133.508C220.673 133.508 222.988 135.823 222.988 138.69C222.988 141.558 220.673 143.873 217.805 143.873C214.917 143.873 212.602 141.558 212.602 138.669C212.602 135.823 214.917 133.508 217.805 133.508ZM217.805 132.085C214.152 132.085 211.179 135.037 211.179 138.669C211.179 142.322 214.152 145.296 217.805 145.296C221.437 145.296 224.389 142.322 224.411 138.69C224.411 136.927 223.731 135.271 222.478 134.018C221.225 132.765 219.568 132.085 217.805 132.085Z" fill="#582D82"/>
<path d="M166.025 147.419L215.257 180.042" stroke="#582D82" stroke-width="0.6692" stroke-miterlimit="1" stroke-linecap="round" stroke-linejoin="round"/>
<path d="M173.756 130.258L231.356 141.366" stroke="#582D82" stroke-width="0.6692" stroke-miterlimit="1" stroke-linecap="round" stroke-linejoin="round"/>
<path d="M203.745 62.4849C206.591 62.4849 208.927 64.8212 208.906 67.6884C208.906 70.5345 206.591 72.8707 203.724 72.8707C200.835 72.8707 198.52 70.5345 198.52 67.6884C198.542 64.8212 200.878 62.4849 203.745 62.4849ZM203.745 61.0831C200.092 61.0831 197.119 64.0566 197.119 67.6884C197.119 69.4513 197.798 71.1079 199.051 72.361C200.304 73.6141 201.961 74.2937 203.745 74.2937C207.377 74.2937 210.35 71.3415 210.35 67.6884C210.35 64.0566 207.398 61.0831 203.745 61.0831Z" fill="#582D82"/>
<path d="M217.848 96.0212C220.694 96.0212 223.009 98.3575 223.009 101.225C223.009 104.071 220.694 106.407 217.848 106.407C214.959 106.407 212.644 104.071 212.644 101.225C212.644 98.3363 214.959 96.0212 217.848 96.0212ZM217.848 94.5982C214.195 94.5982 211.221 97.5717 211.221 101.204C211.221 104.835 214.195 107.809 217.848 107.809C221.48 107.809 224.432 104.857 224.453 101.204C224.453 99.4407 223.773 97.784 222.52 96.5309C221.246 95.2779 219.611 94.5982 217.848 94.5982Z" fill="#582D82"/>
<path d="M166.067 92.3894L215.193 59.8938" stroke="#582D82" stroke-width="0.6692" stroke-miterlimit="1" stroke-linecap="round" stroke-linejoin="round"/>
<path d="M173.777 109.572L231.802 98.4637" stroke="#582D82" stroke-width="0.6692" stroke-miterlimit="1" stroke-linecap="round" stroke-linejoin="round"/>
<path d="M30.4779 119.299C30.5204 66.7964 73.1257 24.2549 125.628 24.2973C178.131 24.3398 220.673 66.9451 220.63 119.448C220.588 171.95 177.982 214.492 125.48 214.45C72.977 214.407 30.4354 171.802 30.4779 119.299Z" stroke="#582D82" stroke-width="0.6692" stroke-miterlimit="1" stroke-linecap="round" stroke-linejoin="round"/>
</g>
<defs>
<clipPath id="clip0_207_217">
<rect width="932.389" height="240" fill="white"/>
</clipPath>
</defs>
</svg>
