<svg width="157" height="27" viewBox="0 0 157 27" fill="none" xmlns="http://www.w3.org/2000/svg">
<path d="M30.0019 4.08018C30.0019 3.06013 31.0229 0.0261486 31.0229 0.0261486C31.0229 0.0261486 25.8917 2.87705 25.8917 5.83257C25.8917 7.2711 26.7033 8.44807 26.7033 8.44807C25.1849 9.15426 22.2004 9.28504 19.2944 9.28504L14.8962 16.5823L13.404 17.5239L11.7285 20.6625H10.0792L11.65 18.1254L11.1787 17.1054L16.5456 9.10195C10.4457 9.10195 9.18907 8.91886 7.82773 8.55269C7.82773 8.55269 10.6551 6.74799 10.6551 4.23711C10.6551 2.56319 8.53458 0 8.53458 0L7.74919 2.64165C6.91144 5.49255 0 5.4664 0 11.0636C0 13.5221 2.32999 14.7253 5.05268 15.1176L4.73852 15.5622C4.21493 16.3207 4.50291 17.1054 4.8956 17.9162L3.29864 20.4794C3.29864 20.4794 2.43471 21.0809 2.14673 21.604C1.59696 22.6764 2.30381 23.8011 4.05785 26.5997H13.7705C17.5666 24.4549 18.5614 23.8795 18.5614 22.6764C18.5614 22.6764 18.5352 22.4149 18.5352 22.1795L20.0798 19.5116C20.682 19.2239 21.7291 18.6224 22.2266 17.7854L23.6141 15.5099C28.3788 15.3268 33.2744 13.2606 33.2744 8.99733C33.3006 6.09412 30.0019 5.36177 30.0019 4.08018ZM23.2476 14.8037L21.6506 17.3931C21.1794 18.1516 20.0536 18.727 19.6086 18.9362L17.8545 21.9964L17.9069 22.7549C17.9069 23.4611 16.6503 24.1934 13.5873 25.9196H4.50291C3.2201 23.8272 2.40853 22.6764 2.80123 21.9179C2.98448 21.5517 3.84841 20.9502 3.84841 20.9502L5.70717 17.9423C5.26212 17.0531 4.97414 16.4515 5.34066 15.9284L6.28312 14.516C3.50808 14.333 0.680671 13.3391 0.680671 11.0374C0.680671 5.38793 8.19424 6.59106 8.7702 1.62161C8.7702 1.62161 9.94828 3.03398 9.94828 4.23711C9.94828 6.8003 6.62346 8.29114 6.62346 8.73578C6.62346 8.89271 7.61829 9.80814 15.2366 9.80814L10.3672 17.1054L10.8646 18.1254L8.84873 21.3948H12.1736L13.9538 18.047L15.4198 17.1054L19.6871 9.99122C25.5776 9.99122 27.541 9.0758 27.541 8.63116C27.541 8.26499 26.5724 7.34956 26.5724 5.83257C26.5724 3.6617 29.8187 1.75238 29.8187 1.75238C29.8187 1.75238 29.2951 3.50477 29.2951 4.08018C29.2951 6.01565 32.5937 6.35567 32.5937 8.97117C32.5937 12.8944 27.8028 14.7253 23.2476 14.8037Z" fill="#CFC493"/>
<path d="M42.2022 2.22456V6.06934C42.2022 6.59244 42.4378 6.88015 42.9352 6.88015C43.4326 6.88015 43.6683 6.59244 43.6683 6.06934V2.22456H44.7154V6.06934C44.7154 7.27247 44.0086 7.79558 42.909 7.79558C41.8095 7.79558 41.1288 7.29863 41.1288 6.06934V2.22456H42.2022ZM46.9407 7.71711V2.22456H48.0926L49.5587 5.46778H49.5849V2.22456H50.5535V7.71711H49.5587L47.9617 4.16003H47.9355V7.71711H46.9407ZM52.7264 7.71711V2.22456H53.7736V7.71711H52.7264ZM55.58 2.22456H56.6272L57.5958 6.14781H57.622L58.5907 2.22456H59.6117L58.198 7.71711H56.9937L55.58 2.22456ZM61.3134 7.71711V2.22456H64.1931V3.13998H62.3605V4.39542H63.7481V5.31085H62.3605V6.74937H64.2717V7.6648L61.3134 7.71711ZM68.7222 7.71711L67.8059 5.46778H67.3085V7.71711H66.2613V2.22456H67.7797C69.0364 2.22456 69.6385 2.82612 69.6385 3.87232C69.6385 4.55235 69.4029 5.0493 68.8008 5.28469L69.8479 7.74326L68.7222 7.71711ZM67.3085 4.63081H67.8321C68.3033 4.63081 68.5913 4.39542 68.5913 3.87232C68.5913 3.34922 68.3033 3.11383 67.8321 3.11383H67.3085V4.63081ZM73.9582 3.7677C73.7749 3.2446 73.5655 3.03536 73.1989 3.03536C72.8324 3.03536 72.623 3.27076 72.623 3.63693C72.623 4.47389 74.9792 4.5262 74.9792 6.25243C74.9792 7.19401 74.3247 7.82173 73.2251 7.82173C72.3612 7.82173 71.7067 7.35094 71.4187 6.27859L72.4659 6.06934C72.5968 6.72322 72.9633 6.95861 73.2775 6.95861C73.6178 6.98477 73.9058 6.72322 73.932 6.38321C73.932 6.35705 73.932 6.33089 73.932 6.30474C73.932 5.25853 71.5758 5.25854 71.5758 3.71539C71.5758 2.77381 72.1517 2.17224 73.2251 2.17224C74.0367 2.11993 74.7697 2.69535 74.9268 3.50615L73.9582 3.7677ZM77.0735 7.71711V2.22456H78.1207V7.71711H77.0735ZM83.4352 2.22456V3.13998H82.2048V7.71711H81.1576V3.13998H79.9533V2.22456H83.4352ZM86.8647 4.44773L87.7548 2.22456H88.8806L87.3883 5.49394V7.71711H86.3411V5.49394L84.8489 2.22456H85.9746L86.8647 4.44773ZM92.729 7.79558C91.6818 7.79558 91.1582 6.9063 91.1582 5.80779C91.1582 4.70928 91.6818 3.82001 92.729 3.82001C93.7762 3.82001 94.2998 4.70928 94.2998 5.80779C94.2998 6.9063 93.7762 7.79558 92.729 7.79558ZM92.729 4.26465C92.1007 4.26465 91.6818 4.8139 91.6818 5.80779C91.6818 6.80168 92.1007 7.35094 92.729 7.35094C93.3573 7.35094 93.7762 6.80168 93.7762 5.80779C93.7762 4.8139 93.3573 4.26465 92.729 4.26465ZM95.9753 7.71711V4.34311H95.3208V3.87232H95.9753V3.42768C95.9753 2.51226 96.2894 2.30302 96.9177 2.30302C97.0748 2.30302 97.2319 2.32918 97.389 2.32918V2.79996C97.2581 2.77381 97.1272 2.74766 96.9963 2.74766C96.6298 2.74766 96.4989 2.87843 96.4989 3.29691V3.87232H97.3366V4.34311H96.4989V7.71711H95.9753ZM45.9982 14.8313C45.5794 13.602 45.0296 13.0789 44.1657 13.0789C43.3017 13.0789 42.7781 13.6281 42.7781 14.4913C42.7781 16.4529 48.3544 16.6098 48.3544 20.69C48.3544 22.9393 46.8098 24.404 44.1918 24.404C42.176 24.404 40.5791 23.3055 39.9246 20.7423L42.3854 20.2192C42.6734 21.7885 43.5897 22.3378 44.3227 22.3378C45.1867 22.3378 45.8673 21.7624 45.8673 20.7946C45.8673 18.3361 40.2911 18.3099 40.2911 14.6482C40.2911 12.3989 41.6262 10.9865 44.218 10.9865C46.4433 10.9865 47.8046 12.2942 48.2235 14.1512L45.9982 14.8313ZM50.1346 15.4067C50.1346 12.1896 51.8363 11.0388 54.271 11.0388C56.7057 11.0388 58.4074 12.1896 58.4074 15.4067V20.0623C58.4074 23.2794 56.7057 24.4302 54.271 24.4302C51.8363 24.4302 50.1346 23.2794 50.1346 20.0623V15.4067ZM52.6217 20.3761C52.6217 21.8147 53.25 22.2332 54.2448 22.2332C55.2397 22.2332 55.868 21.8408 55.868 20.3761V15.0405C55.868 13.602 55.2397 13.2097 54.2448 13.2097C53.25 13.2097 52.6217 13.602 52.6217 15.0405V20.3761ZM62.8841 11.1957V20.3238C62.8841 21.5531 63.4339 22.2332 64.6382 22.2332C65.8424 22.2332 66.4184 21.5793 66.4184 20.3238V11.1957H68.9055V20.35C68.9055 23.227 67.2038 24.4302 64.6382 24.4302C62.0726 24.4302 60.3709 23.227 60.3709 20.35V11.1957H62.8841ZM79.037 11.1957V13.3928H76.1311V24.2471H73.644V13.4189H70.738V11.2219H79.037V11.1957ZM80.8434 24.2471V11.1957H83.3305V16.4006H86.8647V11.1957H89.3518V24.2471H86.8647V18.5976H83.3567V24.2471H80.8434ZM95.8967 24.2471V11.1957H102.415V13.3928H98.3838V16.4006H101.525V18.5976H98.3838V24.2471H95.8967ZM104.117 24.2471V11.1957H106.604V22.0501H110.636V24.2471H104.117ZM112.102 15.4067C112.102 12.1896 113.804 11.0388 116.238 11.0388C118.673 11.0388 120.375 12.1896 120.375 15.4067V20.0623C120.375 23.2794 118.673 24.4302 116.238 24.4302C113.804 24.4302 112.102 23.2794 112.102 20.0623V15.4067ZM114.615 20.3761C114.615 21.8147 115.244 22.2332 116.238 22.2332C117.233 22.2332 117.861 21.8408 117.861 20.3761V15.0405C117.861 13.602 117.233 13.2097 116.238 13.2097C115.244 13.2097 114.615 13.602 114.615 15.0405V20.3761ZM128.438 24.2471L126.265 18.9115H125.061V24.2471H122.574V11.1957H126.187C129.197 11.1957 130.637 12.6343 130.637 15.0928C130.637 16.7144 130.061 17.8914 128.674 18.4145L131.135 24.2471H128.438ZM125.061 16.8714H126.344C127.443 16.8714 128.124 16.3221 128.124 15.0667C128.124 13.8112 127.443 13.262 126.344 13.262H125.061V16.8714ZM132.967 24.2471V11.1957H135.454V24.2471H132.967ZM138.02 11.1957H141.502C144.355 11.1957 145.952 12.425 146.057 15.7205V19.7223C145.952 23.0178 144.355 24.2471 141.502 24.2471H138.02V11.1957ZM140.533 22.0501H141.397C142.785 22.0501 143.57 21.3962 143.57 19.4346V16.0083C143.57 14.1774 142.968 13.3928 141.397 13.3928H140.533V22.0501ZM147.392 24.2471L150.638 11.1957H153.832L157 24.2471H154.618L153.989 21.5008H150.534L149.827 24.2471H147.392ZM150.953 19.3038H153.44L152.235 14.0205H152.209L150.953 19.3038Z" fill="#006747"/>
<path d="M29.3015 4.08043C29.3015 3.50502 29.8247 1.75263 29.8247 1.75263C29.8247 1.75263 26.5806 3.66195 26.5806 5.83282C26.5806 7.34981 27.5486 8.26524 27.5486 8.63141C27.5486 9.07605 25.5865 9.99147 19.6999 9.99147L15.4093 17.1056L13.9442 18.0472L12.1652 21.3951H8.84257L10.8571 18.0995L10.36 17.0795L15.2262 9.78223C7.61294 9.78223 6.61878 8.86681 6.61878 8.70987C6.61878 8.29139 9.91523 6.7744 9.91523 4.21121C9.91523 3.03423 8.73792 1.5957 8.73792 1.5957C8.18851 6.56516 0.679932 5.38818 0.679932 11.0115C0.679932 13.3132 3.4793 14.3071 6.2525 14.5163L5.31066 15.9287C4.94439 16.4518 5.23217 17.0533 5.67693 17.9426L3.81941 20.9243C3.81941 20.9243 2.95605 21.552 2.77292 21.892C2.38048 22.6505 3.19151 23.8013 4.47347 25.8937H13.5518C16.6128 24.1675 17.8686 23.4613 17.8686 22.729L17.8162 21.9705L19.5691 18.9103C20.0139 18.7011 21.1389 18.1257 21.6098 17.3672L23.2057 14.7778C27.7579 14.6994 32.5456 12.8685 32.5456 8.94527C32.5718 6.35592 29.3015 6.0159 29.3015 4.08043ZM22.8917 14.2286L21.1389 17.1056C20.6679 17.8903 19.1767 18.4919 19.1767 18.4919L17.2407 21.8659L17.293 22.729C17.3192 23.1998 14.3105 24.7952 13.3948 25.3445H4.81358C4.49963 24.8214 3.03454 22.729 3.29616 22.1797C3.40081 21.9705 3.81941 21.6828 4.26417 21.3166L6.35715 17.9688C5.91239 17.0795 5.62461 16.5302 5.80775 16.2425L7.32516 13.967C5.59845 13.967 1.2555 13.5486 1.2555 11.0115C1.2555 6.32976 7.87457 6.56516 8.94722 2.95577C9.18268 3.32194 9.31349 3.76658 9.33966 4.18506C9.33966 6.59132 6.01704 7.68983 6.01704 8.65756C6.01704 10.0176 10.6216 10.3315 14.1012 10.3315L9.6536 17.001L10.1507 18.0472L7.79608 21.9705H12.5053L14.389 18.4395L15.8541 17.498L20.0139 10.5669C25.6911 10.5669 28.098 9.65146 28.098 8.63141C28.098 7.95138 27.13 7.24519 27.13 5.83282C27.13 4.42045 28.8044 3.19116 28.8044 3.19116C27.9411 6.40823 31.9701 6.40823 31.9701 8.97143C31.9962 12.607 27.1562 14.2286 22.8917 14.2286Z" fill="white"/>
<path d="M28.8309 3.21684C28.8309 3.21684 27.1565 4.44613 27.1565 5.8585C27.1565 7.27087 28.1245 7.97705 28.1245 8.65708C28.1245 9.67713 25.6914 10.5926 20.0403 10.5926L15.8544 17.5236L14.4154 18.4652L12.5056 21.97H7.79636L10.2033 18.0729L9.70621 17.0267L14.1538 10.3572C10.6742 10.3572 6.06965 10.0695 6.06965 8.68324C6.06965 7.7155 9.39226 6.59083 9.39226 4.21073C9.3661 3.76609 9.23529 3.34762 8.99982 2.98145C7.92717 6.56468 1.30811 6.35544 1.30811 11.0372C1.30811 13.5742 5.65105 13.9927 7.37776 13.9927L5.86035 16.2682C5.65105 16.5559 5.965 17.1052 6.40976 17.9944L4.31677 21.3423C3.87201 21.7084 3.45341 21.9962 3.34877 22.2054C3.08714 22.7285 4.55223 24.8209 4.86618 25.3702H13.4474C14.3631 24.847 17.3718 23.2516 17.3456 22.7546L17.2933 21.8915L19.2293 18.5175C19.2293 18.5175 20.7205 17.916 21.1915 17.1313L22.9705 14.2543C27.235 14.2543 32.0488 12.6327 32.0488 8.9971C31.9965 6.43391 27.9675 6.43391 28.8309 3.21684Z" fill="#006747"/>
<path d="M17.32 25.2134C17.1629 25.2134 17.0058 25.2657 16.8749 25.3965C16.7702 25.5011 16.6917 25.6842 16.6917 25.8411C16.6917 25.998 16.744 26.155 16.8749 26.2857C17.1105 26.5211 17.5032 26.5473 17.765 26.2857C18.0006 26.0503 18.0006 25.658 17.765 25.3965C17.6603 25.2918 17.5032 25.2134 17.32 25.2134ZM17.7127 26.2073C17.5032 26.4165 17.1629 26.4165 16.9534 26.2073C16.744 25.998 16.744 25.658 16.9534 25.4488C17.1629 25.2395 17.5032 25.2395 17.7127 25.4488C17.9221 25.658 17.9221 25.998 17.7127 26.2073Z" fill="#CFC493"/>
<path d="M17.6073 25.6843C17.6073 25.6059 17.5812 25.5274 17.5026 25.5013C17.4503 25.4751 17.3717 25.4751 17.3194 25.4751H17.0837V26.1551H17.2146V25.8936H17.3194C17.3717 25.8936 17.4241 25.8936 17.4503 25.9197C17.5026 25.9459 17.5288 26.0244 17.5026 26.0767V26.129V26.1551H17.6073V26.129C17.6073 26.1028 17.6073 26.1028 17.6073 26.0767V26.0244C17.6073 25.9982 17.5812 25.9459 17.5812 25.9197C17.555 25.8936 17.5026 25.8674 17.4764 25.8413C17.5026 25.8413 17.555 25.8151 17.5812 25.8151C17.5812 25.789 17.6073 25.7366 17.6073 25.6843ZM17.4241 25.789C17.3979 25.789 17.3455 25.8151 17.3194 25.8151H17.2146V25.5797H17.3194C17.3717 25.5797 17.4241 25.5797 17.4764 25.6059C17.5288 25.6582 17.5288 25.7366 17.5026 25.789C17.4503 25.789 17.4503 25.789 17.4241 25.789Z" fill="#CFC493"/>
</svg>
