<svg width="727" height="201" viewBox="0 0 727 201" fill="none" xmlns="http://www.w3.org/2000/svg">
<path d="M99.6157 27.1294C99.6251 26.9846 99.6869 26.8481 99.7889 26.7455C99.8915 26.6429 100.028 26.5812 100.173 26.5718H101.368C101.516 26.5764 101.658 26.6361 101.764 26.7391C101.871 26.8422 101.936 26.9813 101.946 27.1294V46.8243C101.941 46.9759 101.878 47.1199 101.771 47.2272C101.664 47.3344 101.52 47.3969 101.368 47.4019H100.173C100.025 47.392 99.886 47.3275 99.7829 47.2207C99.6797 47.114 99.6201 46.9727 99.6157 46.8243V27.1294Z" fill="#15212A"/>
<path d="M106.664 44.1949L107.102 43.6174C107.401 43.2391 107.739 43.0001 108.157 43.3585C109.519 44.6664 111.293 45.4616 113.176 45.6088C113.653 45.6638 114.137 45.6223 114.597 45.4868C115.059 45.3512 115.487 45.1243 115.859 44.8196C116.23 44.515 116.537 44.1387 116.76 43.7133C116.983 43.2878 117.119 42.8217 117.158 42.3429C117.158 40.3515 115.386 39.077 111.961 37.6432C108.536 36.2094 106.723 34.8751 106.723 31.4897C106.723 29.4984 108.337 26.1926 113.056 26.1926C114.857 26.217 116.614 26.741 118.134 27.7061C118.219 27.7557 118.292 27.8231 118.348 27.9036C118.404 27.9842 118.442 28.0759 118.459 28.1725C118.476 28.2691 118.471 28.3682 118.447 28.4631C118.421 28.5579 118.376 28.6461 118.314 28.7217L117.975 29.2793C117.933 29.3754 117.869 29.4608 117.79 29.5291C117.71 29.5973 117.616 29.6467 117.515 29.6735C117.413 29.7003 117.307 29.7039 117.204 29.6839C117.101 29.6639 117.003 29.6209 116.919 29.5581C115.755 28.8055 114.419 28.3601 113.036 28.2637C109.87 28.2637 108.934 30.2551 108.934 31.5296C108.934 33.521 110.467 34.6959 112.917 35.7314C116.9 37.3644 119.528 38.8779 119.528 42.3429C119.367 43.8969 118.603 45.3258 117.401 46.3234C116.198 47.3211 114.653 47.808 113.096 47.6799C110.825 47.6252 108.647 46.772 106.942 45.2703C106.833 45.2414 106.734 45.1839 106.654 45.1037C106.574 45.0236 106.517 44.9236 106.489 44.8141C106.46 44.7047 106.461 44.5896 106.492 44.4808C106.523 44.372 106.582 44.2733 106.664 44.1949Z" fill="#15212A"/>
<path d="M123.851 27.2877C123.848 27.1945 123.864 27.1018 123.898 27.0149C123.932 26.928 123.983 26.8488 124.048 26.782C124.113 26.7151 124.19 26.662 124.276 26.6257C124.363 26.5894 124.455 26.5708 124.548 26.5708H125.424C125.614 26.5708 125.796 26.6464 125.931 26.7808C126.066 26.9152 126.141 27.0976 126.141 27.2877V35.7114L135.421 26.8695C135.57 26.7027 135.776 26.5964 135.999 26.5708H137.452C137.579 26.558 137.706 26.5889 137.813 26.6583C137.919 26.7277 137.999 26.8314 138.038 26.9523C138.078 27.0732 138.075 27.204 138.03 27.323C137.985 27.4419 137.9 27.5419 137.791 27.6064L128.411 36.3884L138.249 46.4649C138.294 46.5273 138.327 46.5982 138.344 46.6734C138.362 46.7486 138.364 46.8265 138.352 46.9026C138.338 46.9788 138.31 47.0515 138.269 47.1166C138.227 47.1816 138.173 47.2377 138.109 47.2814C138.006 47.359 137.88 47.4009 137.751 47.4009H136.237C136.039 47.3881 135.851 47.3112 135.7 47.1819L126.141 37.2248V46.684C126.141 46.8741 126.066 47.0565 125.931 47.1909C125.796 47.3254 125.614 47.4009 125.424 47.4009H124.568C124.381 47.401 124.201 47.3282 124.068 47.198C123.934 47.0678 123.856 46.8906 123.851 46.7039V27.2877Z" fill="#15212A"/>
<path d="M91.2921 36.807C92.1489 36.3357 92.8683 35.6486 93.3781 34.8137C93.8884 33.9789 94.1714 33.0254 94.1996 32.0476C94.1858 31.279 94.0148 30.5214 93.6953 29.822C93.3764 29.1227 92.9163 28.4966 92.3447 27.9827C91.7732 27.4689 91.1017 27.0784 90.3724 26.8355C89.643 26.5927 88.8712 26.5027 88.106 26.5712H81.5936C81.4496 26.5764 81.3128 26.6374 81.2124 26.7414C81.112 26.8454 81.0563 26.9843 81.0563 27.1288V36.4287C81.0507 36.5141 81.0706 36.5992 81.1131 36.6735C81.1556 36.7478 81.219 36.8081 81.2952 36.8469L83.1075 37.9023C83.1858 37.9202 83.2675 37.9202 83.3464 37.9023H88.1258C89.1763 37.8254 90.214 38.1678 91.0129 38.8545C91.8118 39.5412 92.3056 40.5163 92.3872 41.5665C92.4115 42.0599 92.3354 42.5531 92.1632 43.0162C91.9905 43.4792 91.7263 43.9024 91.3853 44.2601C91.0444 44.6177 90.6344 44.9022 90.1804 45.0965C89.7258 45.2907 89.237 45.3906 88.7432 45.39C88.6643 45.3727 88.5826 45.3727 88.5038 45.39L85.716 46.9831C85.6867 47.0159 85.6702 47.0585 85.6702 47.1026C85.6702 47.1467 85.6867 47.1892 85.716 47.2221C85.7414 47.233 85.7684 47.2387 85.7954 47.2387C85.823 47.2387 85.85 47.233 85.8754 47.2221H88.4442C89.2513 47.29 90.064 47.1931 90.8325 46.9372C91.6016 46.6812 92.31 46.2717 92.9152 45.7333C93.5204 45.195 94.0103 44.5392 94.3541 43.8058C94.6983 43.0723 94.8892 42.2766 94.9162 41.4669C94.8478 40.4166 94.4661 39.411 93.82 38.5802C93.174 37.7495 92.2929 37.1317 91.2921 36.807ZM88.106 35.9109H83.2664V28.6224H88.106C88.5909 28.5788 89.0797 28.643 89.5371 28.8104C89.9945 28.9777 90.4094 29.244 90.7514 29.5903C91.094 29.9366 91.3561 30.3543 91.5183 30.8135C91.6805 31.2728 91.739 31.7621 91.6904 32.2467C91.7186 32.7284 91.6452 33.2107 91.4764 33.6627C91.307 34.1147 91.0455 34.5263 90.7078 34.8712C90.3707 35.2161 89.9647 35.4868 89.5167 35.6658C89.0687 35.8449 88.5882 35.9283 88.106 35.9109Z" fill="#15212A"/>
<path d="M79.6615 43.2987V38.7185C79.6615 38.5865 79.7145 38.4598 79.8077 38.3664C79.901 38.2731 80.0279 38.2206 80.1597 38.2206C80.2381 38.2004 80.3203 38.2004 80.3986 38.2206L84.3814 40.5108L88.3642 42.8008C88.4193 42.8319 88.4679 42.8736 88.507 42.9235C88.5462 42.9735 88.5749 43.0307 88.5915 43.0919C88.608 43.1531 88.6124 43.2169 88.6042 43.2798C88.5959 43.3427 88.5755 43.4033 88.5435 43.458C88.5048 43.5357 88.4419 43.5986 88.3642 43.6372L84.3814 45.9274L80.3986 48.2175C80.344 48.2493 80.2833 48.27 80.2204 48.2783C80.1575 48.2865 80.0935 48.2822 80.0323 48.2655C79.9716 48.2488 79.9142 48.2201 79.864 48.1811C79.8143 48.1421 79.7724 48.0935 79.7415 48.0383C79.7244 47.9595 79.7244 47.878 79.7415 47.7993L79.6615 43.2987Z" fill="#E41B49"/>
<path d="M11.3203 101.998L1.17392 47.3244H13.8359L17.6094 72.9C17.9448 75.751 18.3082 78.63 18.6995 81.5369C19.0908 84.3881 19.4542 87.2669 19.7896 90.1739H20.125C20.6841 87.2669 21.2151 84.3881 21.7183 81.5369C22.2773 78.63 22.8363 75.751 23.3954 72.9L29.2652 47.3244H39.747L45.6168 72.9C46.1759 75.6393 46.7069 78.4622 47.21 81.3692C47.7691 84.2761 48.3281 87.2112 48.8871 90.1739H49.2226C49.6139 87.2112 49.9772 84.3043 50.3127 81.453C50.704 78.5461 51.0953 75.6952 51.4867 72.9L55.2601 47.3244H67.0837L57.3565 101.998H41.8434L36.4767 77.1768C36.0295 75.0522 35.6102 72.928 35.2189 70.8037C34.8834 68.6234 34.5759 66.527 34.2965 64.5145H33.961C33.6256 66.527 33.2623 68.6234 32.871 70.8037C32.5355 72.928 32.1442 75.0522 31.697 77.1768L26.5818 101.998H11.3203ZM91.5254 103.004C88.0033 103.004 84.6771 102.165 81.5467 100.488C78.472 98.7551 75.9844 96.2675 74.0832 93.0251C72.1826 89.727 71.2325 85.7856 71.2325 81.2015C71.2325 76.5617 72.1826 72.6205 74.0832 69.3781C75.9844 66.1357 78.472 63.676 81.5467 61.9989C84.6771 60.2659 88.0033 59.3994 91.5254 59.3994C95.047 59.3994 98.3456 60.2659 101.42 61.9989C104.495 63.676 106.983 66.1357 108.883 69.3781C110.784 72.6205 111.734 76.5617 111.734 81.2015C111.734 85.7856 110.784 89.727 108.883 93.0251C106.983 96.2675 104.495 98.7551 101.42 100.488C98.3456 102.165 95.047 103.004 91.5254 103.004ZM91.5254 93.0251C94.0407 93.0251 95.9413 91.9631 97.2273 89.8384C98.5128 87.6586 99.1561 84.7793 99.1561 81.2015C99.1561 77.5679 98.5128 74.6889 97.2273 72.5646C95.9413 70.4403 94.0407 69.3781 91.5254 69.3781C88.9539 69.3781 87.0251 70.4403 85.7391 72.5646C84.5094 74.6889 83.8942 77.5679 83.8942 81.2015C83.8942 84.7793 84.5094 87.6586 85.7391 89.8384C87.0251 91.9631 88.9539 93.0251 91.5254 93.0251ZM120.177 101.998V60.4057H130.24L131.078 67.701H131.414C132.923 64.9059 134.74 62.8375 136.864 61.4958C138.989 60.0982 141.113 59.3994 143.237 59.3994C144.411 59.3994 145.39 59.4833 146.172 59.651C146.955 59.7628 147.626 59.9585 148.185 60.238L146.172 70.8875C145.445 70.6639 144.719 70.4962 143.992 70.3844C143.321 70.2725 142.538 70.2166 141.644 70.2166C140.079 70.2166 138.429 70.8037 136.696 71.9776C135.019 73.0957 133.622 75.0522 132.504 77.8476V101.998H120.177ZM153.588 101.998V43.2155H165.579V76.925H165.915L179.08 60.4057H192.497L177.906 77.5122L193.587 101.998H180.254L170.862 85.8137L165.579 91.7672V101.998H153.588ZM201.624 101.998V70.0489H196.09V60.9088L201.624 60.4896V58.2255C201.624 55.2626 202.127 52.5793 203.134 50.1754C204.14 47.7716 205.761 45.8429 207.997 44.3895C210.234 42.936 213.224 42.2092 216.97 42.2092C218.703 42.2092 220.296 42.3769 221.749 42.7124C223.203 43.0478 224.377 43.3832 225.271 43.7186L223.007 52.7749C222.281 52.4954 221.553 52.2997 220.827 52.188C220.1 52.0202 219.401 51.9364 218.73 51.9364C217.221 51.9364 216.047 52.4116 215.209 53.3619C214.37 54.2564 213.951 55.7657 213.951 57.89V60.4057H221.414V70.0489H213.951V101.998H201.624ZM245.149 103.004C241.627 103.004 238.301 102.165 235.171 100.488C232.096 98.7551 229.608 96.2675 227.708 93.0251C225.807 89.727 224.857 85.7856 224.857 81.2015C224.857 76.5617 225.807 72.6205 227.708 69.3781C229.608 66.1357 232.096 63.676 235.171 61.9989C238.301 60.2659 241.627 59.3994 245.149 59.3994C248.671 59.3994 251.97 60.2659 255.044 61.9989C258.119 63.676 260.607 66.1357 262.507 69.3781C264.408 72.6205 265.358 76.5617 265.358 81.2015C265.358 85.7856 264.408 89.727 262.507 93.0251C260.607 96.2675 258.119 98.7551 255.044 100.488C251.97 102.165 248.671 103.004 245.149 103.004ZM245.149 93.0251C247.665 93.0251 249.566 91.9631 250.851 89.8384C252.137 87.6586 252.78 84.7793 252.78 81.2015C252.78 77.5679 252.137 74.6889 250.851 72.5646C249.566 70.4403 247.665 69.3781 245.149 69.3781C242.578 69.3781 240.649 70.4403 239.363 72.5646C238.133 74.6889 237.519 77.5679 237.519 81.2015C237.519 84.7793 238.133 87.6586 239.363 89.8384C240.649 91.9631 242.578 93.0251 245.149 93.0251ZM273.801 101.998V60.4057H283.864L284.702 67.701H285.038C286.547 64.9059 288.364 62.8375 290.488 61.4958C292.613 60.0982 294.737 59.3994 296.861 59.3994C298.036 59.3994 299.014 59.4833 299.796 59.651C300.579 59.7628 301.25 59.9585 301.809 60.238L299.796 70.8875C299.069 70.6639 298.343 70.4962 297.616 70.3844C296.945 70.2725 296.162 70.2166 295.268 70.2166C293.703 70.2166 292.054 70.8037 290.32 71.9776C288.644 73.0957 287.246 75.0522 286.128 77.8476V101.998H273.801ZM324.506 103.004C320.648 103.004 317.154 102.165 314.024 100.488C310.949 98.7551 308.49 96.2675 306.645 93.0251C304.856 89.727 303.961 85.7856 303.961 81.2015C303.961 76.5617 304.968 72.6205 306.98 69.3781C308.993 66.1357 311.648 63.676 314.946 61.9989C318.245 60.2659 321.794 59.3994 325.596 59.3994C328.168 59.3994 330.432 59.8187 332.388 60.6572C334.401 61.4958 336.189 62.558 337.755 63.8437L331.969 71.8099C330.012 70.1887 328.139 69.3781 326.351 69.3781C323.388 69.3781 321.012 70.4403 319.223 72.5646C317.49 74.6889 316.624 77.5679 316.624 81.2015C316.624 84.7793 317.49 87.6586 319.223 89.8384C321.012 91.9631 323.248 93.0251 325.931 93.0251C327.273 93.0251 328.587 92.7454 329.872 92.1865C331.158 91.5714 332.332 90.8448 333.394 90.0062L338.258 98.0561C336.189 99.8453 333.953 101.131 331.55 101.914C329.146 102.64 326.798 103.004 324.506 103.004ZM361.777 103.004C357.808 103.004 354.23 102.137 351.044 100.404C347.857 98.6713 345.342 96.1836 343.497 92.9412C341.652 89.6989 340.73 85.7856 340.73 81.2015C340.73 76.6734 341.652 72.7882 343.497 69.5458C345.397 66.3034 347.857 63.8157 350.876 62.0828C353.895 60.2939 357.053 59.3994 360.351 59.3994C364.321 59.3994 367.591 60.2939 370.162 62.0828C372.79 63.8157 374.747 66.1917 376.033 69.2104C377.374 72.1733 378.045 75.5554 378.045 79.3566C378.045 80.4191 377.989 81.4812 377.877 82.5432C377.765 83.5495 377.653 84.3043 377.542 84.8074H352.637C353.196 87.8264 354.454 90.0624 356.411 91.5156C358.367 92.9131 360.715 93.6121 363.454 93.6121C366.417 93.6121 369.408 92.6897 372.427 90.8448L376.536 98.3077C374.411 99.7614 372.035 100.907 369.408 101.746C366.78 102.585 364.237 103.004 361.777 103.004ZM352.553 76.6734H367.563C367.563 74.3814 367.004 72.5087 365.886 71.0552C364.824 69.5458 363.063 68.7911 360.603 68.7911C358.702 68.7911 356.998 69.462 355.488 70.8037C353.979 72.0894 353 74.046 352.553 76.6734Z" fill="#15212A"/>
<path d="M6.60608 177.577V121.64H41.6097V132.278H19.2177V143.517H38.2638V154.07H19.2177V166.939H42.4677V177.577H6.60608ZM65.1042 178.607C62.3021 178.607 59.4133 178.063 56.4391 176.977C53.5223 175.89 50.9771 174.46 48.8037 172.687L54.466 164.794C56.411 166.224 58.2697 167.339 60.0428 168.14C61.8729 168.883 63.6747 169.255 65.4474 169.255C67.3353 169.255 68.708 168.941 69.5659 168.312C70.4238 167.625 70.8524 166.739 70.8524 165.652C70.8524 164.68 70.4238 163.879 69.5659 163.25C68.7648 162.62 67.7066 162.049 66.3913 161.534C65.0761 160.962 63.6747 160.39 62.1873 159.818C60.4715 159.132 58.7557 158.274 57.0399 157.244C55.3809 156.214 53.9798 154.899 52.8359 153.297C51.692 151.639 51.1201 149.637 51.1201 147.292C51.1201 143.346 52.6072 140.143 55.5812 137.683C58.6128 135.224 62.5592 133.994 67.4208 133.994C70.6809 133.994 73.5409 134.566 76.0004 135.71C78.5168 136.796 80.6618 138.026 82.4344 139.399L76.7723 146.949C75.2854 145.805 73.798 144.919 72.3111 144.289C70.8237 143.66 69.3369 143.346 67.8501 143.346C64.5895 143.346 62.9597 144.461 62.9597 146.691C62.9597 148.064 63.7602 149.122 65.3618 149.866C67.0203 150.552 68.9364 151.296 71.1101 152.096C72.9401 152.726 74.7133 153.555 76.4291 154.585C78.2023 155.557 79.6604 156.873 80.8047 158.531C82.0058 160.133 82.606 162.249 82.606 164.879C82.606 168.712 81.1192 171.972 78.1449 174.66C75.1706 177.291 70.8237 178.607 65.1042 178.607ZM103.142 178.607C100.339 178.607 97.4508 178.063 94.4765 176.977C91.5597 175.89 89.0146 174.46 86.8409 172.687L92.5031 164.794C94.4479 166.224 96.3065 167.339 98.0797 168.14C99.9103 168.883 101.712 169.255 103.485 169.255C105.372 169.255 106.745 168.941 107.603 168.312C108.461 167.625 108.89 166.739 108.89 165.652C108.89 164.68 108.461 163.879 107.603 163.25C106.802 162.62 105.744 162.049 104.429 161.534C103.113 160.962 101.712 160.39 100.225 159.818C98.509 159.132 96.7932 158.274 95.0773 157.244C93.4184 156.214 92.017 154.899 90.8733 153.297C89.7291 151.639 89.1575 149.637 89.1575 147.292C89.1575 143.346 90.6444 140.143 93.6186 137.683C96.6497 135.224 100.597 133.994 105.458 133.994C108.718 133.994 111.578 134.566 114.037 135.71C116.554 136.796 118.699 138.026 120.472 139.399L114.81 146.949C113.322 145.805 111.835 144.919 110.348 144.289C108.861 143.66 107.374 143.346 105.887 143.346C102.627 143.346 100.997 144.461 100.997 146.691C100.997 148.064 101.798 149.122 103.399 149.866C105.058 150.552 106.974 151.296 109.147 152.096C110.978 152.726 112.751 153.555 114.467 154.585C116.24 155.557 117.698 156.873 118.842 158.531C120.043 160.133 120.643 162.249 120.643 164.879C120.643 168.712 119.157 171.972 116.182 174.66C113.208 177.291 108.861 178.607 103.142 178.607ZM147.699 178.607C143.639 178.607 139.978 177.72 136.717 175.947C133.457 174.174 130.884 171.629 128.996 168.312C127.109 164.994 126.165 160.991 126.165 156.3C126.165 151.668 127.109 147.693 128.996 144.375C130.941 141.058 133.457 138.512 136.546 136.74C139.635 134.909 142.866 133.994 146.241 133.994C150.302 133.994 153.648 134.909 156.279 136.74C158.967 138.512 160.969 140.943 162.284 144.032C163.657 147.063 164.343 150.524 164.343 154.413C164.343 155.5 164.286 156.586 164.171 157.673C164.057 158.703 163.943 159.475 163.828 159.99H138.348C138.92 163.078 140.206 165.366 142.209 166.853C144.21 168.283 146.612 168.998 149.415 168.998C152.447 168.998 155.506 168.054 158.595 166.167L162.799 173.802C160.626 175.289 158.195 176.462 155.506 177.32C152.818 178.178 150.216 178.607 147.699 178.607ZM138.262 151.668H153.619C153.619 149.322 153.047 147.406 151.903 145.92C150.816 144.375 149.015 143.603 146.498 143.603C144.553 143.603 142.809 144.289 141.265 145.662C139.72 146.978 138.72 148.979 138.262 151.668ZM173.058 177.577V135.024H183.353L184.211 140.428H184.554C186.384 138.713 188.386 137.226 190.56 135.967C192.79 134.652 195.336 133.994 198.195 133.994C202.828 133.994 206.174 135.539 208.233 138.627C210.349 141.658 211.408 145.833 211.408 151.153V177.577H198.796V152.783C198.796 149.694 198.367 147.578 197.509 146.434C196.708 145.29 195.393 144.718 193.563 144.718C191.961 144.718 190.588 145.09 189.445 145.833C188.3 146.52 187.042 147.521 185.669 148.836V177.577H173.058ZM238.541 178.607C233.279 178.607 229.504 177.091 227.216 174.059C224.986 171.028 223.87 167.053 223.87 162.134V144.89H218.036V135.539L224.556 135.024L226.015 123.699H236.482V135.024H246.691V144.89H236.482V161.963C236.482 164.365 236.968 166.109 237.94 167.196C238.97 168.226 240.314 168.74 241.973 168.74C242.659 168.74 243.345 168.655 244.032 168.483C244.775 168.312 245.433 168.111 246.005 167.882L247.978 177.062C246.892 177.405 245.547 177.749 243.946 178.092C242.402 178.435 240.6 178.607 238.541 178.607ZM254.997 177.577V135.024H267.609V177.577H254.997ZM261.26 128.761C259.144 128.761 257.428 128.16 256.112 126.959C254.797 125.758 254.14 124.156 254.14 122.155C254.14 120.153 254.797 118.552 256.112 117.35C257.428 116.149 259.144 115.549 261.26 115.549C263.376 115.549 265.092 116.149 266.408 117.35C267.723 118.552 268.381 120.153 268.381 122.155C268.381 124.156 267.723 125.758 266.408 126.959C265.092 128.16 263.376 128.761 261.26 128.761ZM289.432 178.607C285.543 178.607 282.454 177.377 280.166 174.918C277.878 172.401 276.735 169.341 276.735 165.737C276.735 161.276 278.622 157.787 282.397 155.271C286.172 152.754 292.263 151.067 300.671 150.209C300.556 148.322 299.985 146.834 298.955 145.748C297.983 144.604 296.324 144.032 293.979 144.032C292.206 144.032 290.404 144.375 288.574 145.062C286.744 145.748 284.799 146.691 282.74 147.892L278.193 139.57C280.881 137.912 283.741 136.568 286.772 135.539C289.861 134.509 293.064 133.994 296.381 133.994C301.815 133.994 305.99 135.567 308.907 138.713C311.824 141.858 313.283 146.691 313.283 153.212V177.577H302.987L302.129 173.201H301.786C300.013 174.803 298.097 176.119 296.038 177.148C294.036 178.12 291.834 178.607 289.432 178.607ZM293.722 168.826C295.151 168.826 296.381 168.511 297.41 167.882C298.497 167.196 299.584 166.31 300.671 165.223V157.759C296.209 158.331 293.121 159.246 291.405 160.504C289.689 161.706 288.831 163.135 288.831 164.794C288.831 166.167 289.26 167.196 290.118 167.882C291.033 168.511 292.234 168.826 293.722 168.826ZM335.532 178.607C331.185 178.607 328.154 177.32 326.439 174.746C324.78 172.115 323.95 168.655 323.95 164.365V117.436H336.562V164.879C336.562 166.195 336.791 167.111 337.248 167.625C337.763 168.14 338.278 168.397 338.792 168.397C339.079 168.397 339.307 168.397 339.479 168.397C339.708 168.34 339.993 168.283 340.337 168.226L341.881 177.577C341.194 177.863 340.308 178.092 339.222 178.263C338.192 178.492 336.962 178.607 335.532 178.607ZM361.025 178.607C358.222 178.607 355.334 178.063 352.359 176.977C349.443 175.89 346.897 174.46 344.724 172.687L350.386 164.794C352.331 166.224 354.189 167.339 355.963 168.14C357.793 168.883 359.595 169.255 361.368 169.255C363.255 169.255 364.628 168.941 365.486 168.312C366.344 167.625 366.773 166.739 366.773 165.652C366.773 164.68 366.344 163.879 365.486 163.25C364.685 162.62 363.627 162.049 362.311 161.534C360.996 160.962 359.594 160.39 358.108 159.818C356.392 159.132 354.675 158.274 352.96 157.244C351.301 156.214 349.9 154.899 348.756 153.297C347.612 151.639 347.04 149.637 347.04 147.292C347.04 143.346 348.527 140.143 351.502 137.683C354.533 135.224 358.479 133.994 363.341 133.994C366.601 133.994 369.461 134.566 371.92 135.71C374.437 136.796 376.582 138.026 378.355 139.399L372.693 146.949C371.205 145.805 369.718 144.919 368.231 144.289C366.744 143.66 365.257 143.346 363.77 143.346C360.51 143.346 358.879 144.461 358.879 146.691C358.879 148.064 359.681 149.122 361.282 149.866C362.941 150.552 364.857 151.296 367.03 152.096C368.86 152.726 370.633 153.555 372.349 154.585C374.122 155.557 375.581 156.873 376.724 158.531C377.925 160.133 378.526 162.249 378.526 164.879C378.526 168.712 377.039 171.972 374.065 174.66C371.091 177.291 366.744 178.607 361.025 178.607Z" fill="#15212A"/>
<path d="M465.994 124V94.5004H471.732V124H465.994ZM446.637 124V94.5004H452.375V124H446.637ZM451.325 111.756V106.704H467.044V111.756H451.325ZM479.401 124V94.5004H485.018V124H479.401ZM484.21 124V119.151H497.586V124H484.21ZM484.21 111.432V106.583H496.535V111.432H484.21ZM484.21 99.3496V94.5004H497.262V99.3496H484.21ZM500.968 124L511.03 94.5004H520.406L530.751 124H524.851L516.082 98.4202L518.143 99.3092H513.091L515.193 98.4202L506.706 124H500.968ZM508 116.16L509.818 111.311H521.78L523.558 116.16H508ZM535.537 124V94.5004H541.275V124H535.537ZM540.467 124V118.949H553.196V124H540.467ZM560.979 124V98.7435H566.717V124H560.979ZM552.452 99.5517V94.5004H575.244V99.5517H552.452ZM599.585 124V94.5004H605.323V124H599.585ZM580.228 124V94.5004H585.966V124H580.228ZM584.916 111.756V106.704H600.635V111.756H584.916ZM626.287 124.768C623.62 124.768 621.33 124.296 619.417 123.353C617.505 122.411 615.942 121.185 614.73 119.676C613.545 118.167 612.669 116.524 612.103 114.746C611.537 112.968 611.255 111.257 611.255 109.614V108.725C611.255 106.893 611.537 105.088 612.103 103.31C612.696 101.532 613.598 99.9154 614.811 98.4606C616.023 97.0058 617.559 95.8474 619.417 94.9853C621.303 94.0963 623.526 93.6518 626.085 93.6518C628.752 93.6518 631.069 94.1367 633.036 95.1065C635.029 96.0494 636.619 97.3965 637.804 99.1476C638.99 100.872 639.704 102.892 639.946 105.209H634.167C633.952 103.862 633.467 102.731 632.713 101.815C631.985 100.872 631.056 100.171 629.924 99.7133C628.793 99.2284 627.513 98.9859 626.085 98.9859C624.63 98.9859 623.337 99.2419 622.206 99.7537C621.074 100.239 620.131 100.939 619.377 101.855C618.623 102.771 618.044 103.849 617.639 105.088C617.262 106.327 617.074 107.701 617.074 109.21C617.074 110.665 617.262 112.012 617.639 113.251C618.044 114.49 618.636 115.581 619.417 116.524C620.199 117.44 621.155 118.154 622.287 118.666C623.445 119.178 624.779 119.434 626.287 119.434C628.496 119.434 630.355 118.895 631.864 117.817C633.4 116.713 634.329 115.177 634.652 113.21H640.431C640.162 115.312 639.448 117.238 638.289 118.989C637.131 120.74 635.541 122.141 633.521 123.192C631.5 124.242 629.089 124.768 626.287 124.768ZM642.492 124L652.554 94.5004H661.929L672.274 124H666.374L657.605 98.4202L659.666 99.3092H654.615L656.716 98.4202L648.23 124H642.492ZM649.523 116.16L651.341 111.311H663.303L665.081 116.16H649.523ZM677.06 124V94.2983H682.798V124H677.06ZM695.083 124L686.031 111.149H692.457L701.791 124H695.083ZM681.101 114.14V109.493H688.618C689.668 109.493 690.571 109.277 691.325 108.846C692.106 108.415 692.712 107.809 693.144 107.028C693.575 106.246 693.79 105.357 693.79 104.361C693.79 103.337 693.575 102.434 693.144 101.653C692.712 100.872 692.106 100.266 691.325 99.8346C690.571 99.4035 689.668 99.188 688.618 99.188H681.101V94.2983H688.011C690.382 94.2983 692.43 94.6485 694.154 95.349C695.905 96.0494 697.252 97.1136 698.195 98.5414C699.138 99.9693 699.609 101.761 699.609 103.916V104.563C699.609 106.745 699.124 108.536 698.154 109.937C697.211 111.338 695.878 112.389 694.154 113.089C692.43 113.79 690.382 114.14 688.011 114.14H681.101ZM706.549 124V94.5004H712.166V124H706.549ZM711.358 124V119.151H724.733V124H711.358ZM711.358 111.432V106.583H723.683V111.432H711.358ZM711.358 99.3496V94.5004H724.41V99.3496H711.358Z" fill="#15212A"/>
<line x1="410.981" y1="4.28666e-08" x2="410.981" y2="201" stroke="#DADADA" stroke-width="1.96135"/>
</svg>
