<svg width="1138" height="333" viewBox="0 0 1138 333" fill="none" xmlns="http://www.w3.org/2000/svg">
<path d="M246.757 216.332H244.748C240.689 216.332 236.245 221.588 226.247 221.588C213.557 221.588 206.934 212.871 206.934 201.035C206.934 188.516 216.89 179.757 228.939 179.757C237.356 179.757 241.458 183.389 243.168 183.389C244.15 183.389 244.15 181.38 244.962 181.38C245.517 181.38 245.688 181.722 245.688 182.491C245.688 186.294 246.244 192.105 246.244 193.985C246.244 194.541 245.774 194.797 245.347 194.797C243.723 194.797 244.449 187.918 237.57 183.816C235.562 182.62 232.955 181.722 229.665 181.722C221.248 181.722 214.07 187.79 214.07 200.309C214.07 212.828 219.325 219.067 227.914 219.067C231.545 219.067 234.536 218.169 236.886 216.888C239.536 215.52 240.347 213.811 240.347 210.265V207.53C240.347 203.086 233.383 204.625 233.383 202.745C233.383 202.189 234.024 201.847 234.75 201.847C236.288 201.847 240.647 202.403 243.808 202.403C246.158 202.403 248.508 201.847 249.619 201.847C250.773 201.847 251.158 202.104 251.158 202.574C251.158 204.197 246.714 203.3 246.714 206.846V216.375L246.757 216.332Z" fill="#012169"/>
<path d="M279.231 221.588C265.815 221.588 256.329 214.068 256.329 201.463C256.329 188.858 265.302 179.714 278.975 179.714C293.631 179.714 301.535 188.602 301.535 199.754C301.535 213.256 290.768 221.588 279.231 221.588ZM278.59 181.68C269.447 181.68 263.465 188.73 263.465 200.267C263.465 211.803 270.429 219.024 279.787 219.024C287.862 219.024 294.357 213.213 294.357 200.993C294.357 188.773 287.307 181.68 278.59 181.68Z" fill="#012169"/>
<path d="M313.841 185.953C313.841 181.167 306.876 182.492 306.876 180.868C306.876 180.398 307.175 180.056 308.158 180.056C310.594 180.056 313.414 180.441 316.234 180.441C319.054 180.441 322.301 180.056 325.036 180.056C325.591 180.056 325.933 180.313 325.933 180.783C325.933 183.133 320.506 181.039 320.506 185.397V215.307C320.506 220.092 327.557 218.768 327.557 220.391C327.557 220.861 327.3 221.203 326.275 221.203C323.839 221.203 321.019 220.861 318.199 220.861C315.379 220.861 312.132 221.203 309.397 221.203C308.842 221.203 308.5 220.947 308.5 220.477C308.5 218.127 313.841 220.221 313.841 215.862V185.953Z" fill="#012169"/>
<path d="M370.627 180.441C371.353 180.441 371.823 180.612 371.823 181.082C371.823 181.723 371.012 182.876 370.114 184.243L350.929 213.085C349.562 215.05 348.579 216.332 348.579 217.144C348.579 218.255 349.135 218.298 349.861 218.298H355.501C369.473 218.298 370.712 212.572 372.251 212.572C372.806 212.572 373.233 213.128 373.233 213.683C373.233 214.239 372.592 215.05 370.499 217.571C367.892 220.904 366.952 221.203 365.329 221.203C357.809 221.203 353.835 220.861 349.733 220.861C346.101 220.861 342.384 221.203 338.752 221.203C338.196 221.203 337.854 221.118 337.854 220.391C337.854 220.05 338.111 219.665 338.666 218.939L358.407 189.499C359.774 187.491 361.569 184.414 361.569 183.603C361.569 183.133 361.099 183.047 360.116 183.047H349.049C341.273 183.047 342.256 189.755 340.162 189.755C339.735 189.755 339.265 189.285 339.265 188.559C339.265 187.747 340.076 183.474 340.418 180.953C340.589 180.227 341.23 180.056 342.426 180.056C343.495 180.056 351.955 180.441 357.638 180.441H370.584H370.627Z" fill="#012169"/>
<path d="M421.004 187.491C421.004 181.167 413.569 182.962 413.654 181.039C413.654 180.398 414.082 180.056 414.851 180.056C416.389 180.056 418.91 180.441 421.73 180.441C424.55 180.441 427.071 180.056 428.182 180.056C428.737 180.056 429.079 180.313 429.079 180.953C429.079 182.406 424.635 181.167 424.465 186.38L423.738 204.668C423.396 214.11 418.568 221.545 405.451 221.545C395.409 221.545 387.419 217.571 387.419 207.573V187.918C387.419 184.286 386.607 183.218 384.257 182.406C382.164 181.68 380.455 181.594 380.455 180.868C380.455 180.398 380.711 180.056 381.737 180.056C384.172 180.056 386.992 180.441 389.812 180.441C392.632 180.441 395.879 180.056 398.614 180.056C399.127 180.056 399.511 180.313 399.511 180.783C399.511 181.936 397.717 181.68 396.136 182.492C394.598 183.218 394.042 184.671 394.042 187.106V206.334C394.042 213.854 398.016 218.682 405.707 218.682C418.055 218.682 421.004 212.145 421.004 200.395V187.534V187.491Z" fill="#012169"/>
<path d="M450.742 214.495C450.742 217.23 452.835 218.127 457.835 218.127C470.14 218.127 472.149 211.419 473.345 211.419C473.815 211.419 473.986 211.889 473.986 212.401C473.986 213.512 472.875 217.272 470.269 219.451C468.645 220.819 467.278 221.161 463.304 221.161C459.971 221.161 456.51 220.776 452.152 220.776C447.793 220.776 443.179 221.161 440.103 221.161C439.205 221.161 438.393 220.904 438.393 220.349C438.393 218.34 444.204 220.349 444.204 214.666V186.679C444.204 181.423 438.137 182.876 438.137 180.953C438.137 180.313 438.693 180.056 439.59 180.056C443.307 180.056 449.118 180.441 454.715 180.441C461.039 180.441 469.029 180.056 470.14 180.056C470.696 180.056 471.038 180.612 471.038 180.953C471.038 182.064 470.952 183.517 470.952 188.815C470.952 189.926 470.61 190.268 469.969 190.268C469.243 190.268 468.987 188.73 468.773 187.662C468.218 184.414 464.885 183.133 457.963 183.133C453.263 183.133 450.827 183.133 450.827 185.739V197.959H459.159C465.697 197.959 464.03 192.704 466.038 192.704C466.679 192.704 467.021 193.174 467.021 193.686C467.021 194.797 466.765 196.592 466.765 198.472C466.765 201.292 466.936 203.813 466.936 206.163C466.936 207.146 466.551 207.53 465.739 207.53C464.03 207.53 465.568 201.292 459.287 201.292H450.785V214.409L450.742 214.495Z" fill="#012169"/>
<path d="M498.255 187.149C498.255 185.141 497.443 183.816 495.563 183.816H488.214C481.805 183.816 483.429 191.892 481.079 191.892C480.267 191.892 480.01 191.422 480.01 190.824C480.01 190.097 481.549 183.004 481.549 181.039C481.549 180.483 482.104 180.312 482.745 180.312C484.369 180.312 489.069 180.868 494.538 180.868H506.587C508.937 180.868 511.672 180.783 514.278 180.697C516.799 180.612 519.149 180.355 520.517 180.355C521.328 180.355 521.713 180.612 521.713 181.423C521.713 182.235 522.696 188.858 522.696 189.499C522.696 190.14 522.439 190.482 521.542 190.482C519.919 190.482 520.26 183.859 514.364 183.859H507.656C505.476 183.859 504.921 184.585 504.921 186.38V214.196C504.921 220.263 512.526 217.913 512.526 220.349C512.526 220.99 512.057 221.246 510.732 221.246C508.126 221.246 505.562 220.904 502.015 220.904C497.743 220.904 495.393 221.246 492.402 221.246C491.675 221.246 491.333 220.904 491.333 220.349C491.333 218.17 498.298 220.349 498.298 214.538V187.192L498.255 187.149Z" fill="#012169"/>
<path d="M536.367 206.462C535.385 206.462 534.744 207.103 534.017 208.47C531.496 213.256 531.026 214.623 531.026 215.52C531.026 217.785 532.949 218.981 535.812 219.238C537.35 219.323 538.077 219.494 538.077 220.306C538.077 220.861 537.692 221.203 536.795 221.203C534.872 221.203 532.351 220.861 529.189 220.861C526.668 220.861 523.207 221.203 521.84 221.203C521.284 221.203 521.028 221.118 521.028 220.562C521.028 219.28 524.66 219.75 527.651 213.768C536.282 196.549 543.247 185.226 545.298 181.594C546.024 180.312 546.408 179.671 546.836 179.671C547.477 179.671 547.562 180.312 547.947 181.039C552.305 189.627 559.184 205.522 563.158 214.922C565.038 219.451 570.422 218.725 570.422 220.178C570.422 220.904 569.695 221.16 568.243 221.16C566.533 221.16 563.799 220.818 561.363 220.818C558.372 220.818 555.211 221.16 552.39 221.16C551.664 221.16 551.408 220.904 551.408 220.263C551.408 218.554 556.108 219.622 556.108 215.477C556.108 214.324 555.638 213.042 553.373 208.513C552.647 207.06 552.262 206.419 551.023 206.419H536.325L536.367 206.462ZM545.725 192.02C544.913 190.396 544.742 189.755 544.443 189.755C543.973 189.755 543.888 190.482 543.375 191.464L538.376 200.694C537.991 201.42 537.564 202.061 537.564 202.403C537.564 202.745 537.82 202.958 538.205 202.958H550.254C550.596 202.958 550.895 202.787 550.895 202.403C550.895 202.018 550.425 201.42 550.083 200.694L545.725 191.977V192.02Z" fill="#012169"/>
<path d="M211.721 249.959C211.721 246.669 207.32 247.951 207.32 246.413C207.32 245.943 207.79 245.687 208.474 245.687C209.371 245.687 210.055 245.729 210.653 245.815C211.251 245.857 211.807 245.943 212.533 245.943C214.413 245.943 215.866 245.815 217.532 245.687C218.942 245.558 220.523 245.43 222.531 245.43C227.531 245.43 231.248 247.609 231.248 251.711C231.248 255.813 228.343 257.009 226.548 257.479V257.608C230.735 258.462 233.726 260.599 233.726 264.658C233.726 269.358 229.539 273.289 220.181 273.289C218.344 273.289 216.464 273.032 214.627 273.032C212.149 273.032 210.269 273.289 208.901 273.289C208.303 273.289 208.004 273.161 208.004 272.691C208.004 270.939 211.721 272.691 211.721 268.503V249.959ZM216.165 255.386C216.165 256.967 216.421 257.351 219.284 257.351C223.856 257.351 226.847 256.967 226.847 253.036C226.847 248.592 223.813 246.84 219.498 246.84C216.635 246.84 216.208 247.267 216.208 250.857V255.429L216.165 255.386ZM216.165 269.572C216.165 271.024 216.635 271.622 220.438 271.622C227.146 271.622 228.941 268.888 228.941 265.341C228.941 261.581 227.232 259.36 221.506 259.36C216.379 259.36 216.165 259.402 216.165 260.94V269.529V269.572Z" fill="#012169"/>
<path d="M280.213 250.686C280.213 246.413 275.213 247.652 275.299 246.37C275.299 245.943 275.598 245.687 276.068 245.687C277.093 245.687 278.803 245.943 280.683 245.943C282.563 245.943 284.272 245.687 284.998 245.687C285.383 245.687 285.596 245.857 285.596 246.285C285.596 247.267 282.605 246.413 282.477 249.917L282.007 262.222C281.751 268.546 278.546 273.545 269.702 273.545C262.95 273.545 257.609 270.853 257.609 264.188V250.985C257.609 248.549 257.054 247.823 255.473 247.267C254.063 246.797 252.909 246.712 252.909 246.242C252.909 245.943 253.08 245.687 253.764 245.687C255.388 245.687 257.31 245.943 259.19 245.943C261.07 245.943 263.25 245.687 265.087 245.687C265.471 245.687 265.685 245.857 265.685 246.157C265.685 246.968 264.489 246.755 263.42 247.31C262.395 247.78 262.01 248.763 262.01 250.429V263.333C262.01 268.375 264.702 271.622 269.872 271.622C278.162 271.622 280.17 267.221 280.17 259.317V250.686H280.213Z" fill="#012169"/>
<path d="M322.557 246.242C323.796 246.669 324.694 247.054 325.249 247.054C326.659 247.054 326.146 246.199 326.702 246.199C326.958 246.199 327.086 246.455 327.086 246.883C327.086 247.737 326.958 249.275 326.958 250.515C326.958 251.54 327.086 253.762 327.086 254.659C327.086 255.215 326.702 255.343 326.488 255.343C326.104 255.343 325.89 254.616 325.634 253.89C324.907 251.754 323.326 247.182 318.028 247.182C314.866 247.182 312.559 248.848 312.559 251.497C312.559 257.821 327.514 255.941 327.514 265.085C327.514 269.785 323.668 273.588 317.43 273.588C314.439 273.588 312.431 273.16 310.209 272.007C309.354 271.58 309.312 271.323 309.183 270.255C309.012 268.375 308.03 265.256 308.03 264.059C308.03 263.589 308.329 263.205 308.756 263.205C309.312 263.205 309.525 263.547 309.91 264.828C310.636 267.307 313.627 271.879 318.242 271.879C321.532 271.879 324.138 270.169 324.138 266.879C324.138 260.043 309.183 262.094 309.183 253.292C309.183 249.404 312.345 245.473 318.071 245.473C319.823 245.473 321.361 245.814 322.643 246.242" fill="#012169"/>
<path d="M358.107 249.66C358.107 246.413 353.407 247.353 353.407 246.242C353.407 245.943 353.578 245.687 354.262 245.687C355.885 245.687 357.808 245.943 359.688 245.943C361.568 245.943 363.79 245.687 365.585 245.687C365.926 245.687 366.183 245.857 366.183 246.157C366.183 247.737 362.551 246.327 362.551 249.276V269.358C362.551 272.562 367.294 271.665 367.294 272.776C367.294 273.075 367.123 273.332 366.439 273.332C364.773 273.332 362.893 273.075 361.013 273.075C359.133 273.075 356.953 273.332 355.116 273.332C354.774 273.332 354.518 273.161 354.518 272.819C354.518 271.238 358.107 272.648 358.107 269.742V249.66Z" fill="#012169"/>
<path d="M418.867 251.54C418.867 246.242 413.398 247.78 413.398 246.242C413.398 245.857 413.868 245.687 414.295 245.687C415.705 245.687 417.713 245.943 419.422 245.943C421.687 245.943 423.268 245.687 424.464 245.687C424.934 245.687 425.148 245.986 425.148 246.285C425.148 247.481 421.131 246.285 421.131 251.028V272.52C421.131 273.246 420.875 273.545 420.106 273.545C419.636 273.545 419.209 273.289 418.14 272.221L399.383 251.968H399.041V268.503C399.041 272.904 404.211 271.067 404.211 272.904C404.211 273.289 403.784 273.332 403.1 273.332C401.391 273.332 399.511 273.075 397.93 273.075C396.349 273.075 394.64 273.332 393.187 273.332C392.717 273.332 392.333 273.161 392.333 272.776C392.333 271.067 396.52 272.776 396.52 266.41V251.07C396.52 246.199 391.222 247.609 391.222 246.157C391.222 245.9 391.521 245.729 392.204 245.729C392.931 245.729 393.785 245.986 395.324 245.986C396.605 245.986 397.46 245.729 398.571 245.729C399.425 245.729 400.024 246.028 400.579 246.627L418.482 266.153L418.909 265.897V251.54H418.867Z" fill="#012169"/>
<path d="M458.945 268.845C458.945 270.682 460.355 271.28 463.688 271.28C471.977 271.28 473.302 266.794 474.071 266.794C474.37 266.794 474.498 267.093 474.498 267.478C474.498 268.204 473.772 270.768 472.02 272.22C470.909 273.118 470.012 273.374 467.32 273.374C465.055 273.374 462.748 273.118 459.842 273.118C456.937 273.118 453.818 273.374 451.724 273.374C451.126 273.374 450.57 273.203 450.57 272.819C450.57 271.494 454.459 272.819 454.459 268.973V250.173C454.459 246.626 450.399 247.609 450.399 246.327C450.399 245.9 450.784 245.729 451.382 245.729C453.86 245.729 457.749 245.985 461.551 245.985C465.824 245.985 471.165 245.729 471.892 245.729C472.276 245.729 472.49 246.071 472.49 246.327C472.49 247.054 472.404 248.036 472.404 251.625C472.404 252.352 472.148 252.608 471.721 252.608C471.251 252.608 471.037 251.583 470.952 250.856C470.567 248.677 468.345 247.823 463.688 247.823C460.526 247.823 458.902 247.823 458.902 249.575V257.778H464.5C468.901 257.778 467.79 254.232 469.114 254.232C469.541 254.232 469.798 254.531 469.798 254.916C469.798 255.642 469.627 256.881 469.627 258.163C469.627 260.043 469.755 261.752 469.755 263.333C469.755 264.017 469.499 264.23 468.986 264.23C467.832 264.23 468.858 260.043 464.671 260.043H458.945V268.888V268.845Z" fill="#012169"/>
<path d="M515.517 246.242C516.756 246.669 517.653 247.054 518.209 247.054C519.619 247.054 519.106 246.199 519.661 246.199C519.918 246.199 520.046 246.455 520.046 246.883C520.046 247.737 519.918 249.275 519.918 250.515C519.918 251.54 520.046 253.762 520.046 254.659C520.046 255.215 519.661 255.343 519.448 255.343C519.106 255.343 518.85 254.616 518.593 253.89C517.867 251.754 516.286 247.182 510.988 247.182C507.826 247.182 505.518 248.848 505.518 251.497C505.518 257.821 520.473 255.941 520.473 265.085C520.473 269.785 516.628 273.588 510.389 273.588C507.398 273.588 505.39 273.16 503.126 272.007C502.271 271.58 502.228 271.323 502.1 270.255C501.929 268.375 500.947 265.256 500.947 264.059C500.947 263.589 501.246 263.205 501.673 263.205C502.228 263.205 502.485 263.547 502.827 264.828C503.553 267.307 506.544 271.879 511.159 271.879C514.449 271.879 517.055 270.169 517.055 266.879C517.055 260.043 502.1 262.094 502.1 253.292C502.1 249.404 505.262 245.473 510.988 245.473C512.74 245.473 514.278 245.814 515.56 246.242" fill="#012169"/>
<path d="M564.782 246.242C565.979 246.669 566.919 247.054 567.474 247.054C568.884 247.054 568.371 246.199 568.927 246.199C569.183 246.199 569.311 246.455 569.311 246.883C569.311 247.737 569.183 249.275 569.183 250.515C569.183 251.54 569.311 253.762 569.311 254.659C569.311 255.215 568.927 255.343 568.713 255.343C568.329 255.343 568.115 254.616 567.859 253.89C567.132 251.754 565.551 247.182 560.253 247.182C557.091 247.182 554.784 248.848 554.784 251.497C554.784 257.821 569.739 255.941 569.739 265.085C569.739 269.785 565.893 273.588 559.655 273.588C556.664 273.588 554.656 273.16 552.434 272.007C551.579 271.58 551.536 271.323 551.408 270.255C551.237 268.375 550.255 265.256 550.255 264.059C550.255 263.589 550.554 263.205 550.981 263.205C551.536 263.205 551.75 263.547 552.135 264.828C552.861 267.307 555.852 271.879 560.467 271.879C563.757 271.879 566.363 270.169 566.363 266.879C566.363 260.043 551.408 262.094 551.408 253.292C551.408 249.404 554.57 245.473 560.296 245.473C562.048 245.473 563.586 245.814 564.868 246.242" fill="#012169"/>
<path d="M222.916 298.327C224.112 298.754 225.01 299.096 225.565 299.096C226.932 299.096 226.462 298.242 227.018 298.242C227.274 298.242 227.402 298.455 227.402 298.882C227.402 299.737 227.274 301.232 227.274 302.472C227.274 303.497 227.402 305.676 227.402 306.573C227.402 307.129 227.018 307.214 226.804 307.214C226.462 307.214 226.206 306.488 225.95 305.762C225.223 303.668 223.685 299.139 218.43 299.139C215.31 299.139 213.003 300.762 213.003 303.412C213.003 309.65 227.787 307.813 227.787 316.828C227.787 321.486 223.984 325.246 217.831 325.246C214.883 325.246 212.918 324.818 210.696 323.665C209.841 323.237 209.798 322.981 209.67 321.913C209.457 320.076 208.517 316.999 208.517 315.803C208.517 315.333 208.816 314.948 209.243 314.948C209.756 314.948 210.012 315.333 210.397 316.572C211.123 319.05 214.071 323.537 218.643 323.537C221.89 323.537 224.454 321.87 224.454 318.58C224.454 311.829 209.67 313.837 209.67 305.163C209.67 301.318 212.789 297.43 218.43 297.43C220.181 297.43 221.677 297.772 222.916 298.199" fill="#012169"/>
<path d="M281.795 323.323C286.367 323.323 289.657 320.802 290.853 319.392C291.152 319.05 291.409 318.666 291.879 318.666C292.135 318.666 292.434 318.837 292.434 319.264C292.434 320.119 288.033 325.331 280.043 325.331C272.053 325.331 266.754 319.948 266.754 312.171C266.754 303.626 273.719 297.558 281.837 297.558C283.589 297.558 285.298 298.114 286.837 298.541C288.332 299.096 289.528 299.609 290.084 299.609C291.067 299.609 291.75 298.883 291.964 298.883C292.263 298.883 292.391 299.054 292.391 299.994C292.391 302.771 292.861 306.616 292.861 307.428C292.861 307.898 292.605 308.155 292.178 308.155C291.708 308.155 291.537 307.813 291.024 306.403C289.699 302.643 286.58 298.84 281.41 298.84C274.745 298.84 271.155 304.096 271.155 310.419C271.155 320.204 277.095 323.238 281.795 323.238" fill="#012169"/>
<path d="M361.953 321.186C361.953 324.348 366.654 323.451 366.654 324.562C366.654 324.861 366.483 325.075 365.799 325.075C364.175 325.075 362.338 324.818 360.458 324.818C358.578 324.818 356.442 325.075 354.647 325.075C354.305 325.075 354.049 324.904 354.049 324.605C354.049 323.024 357.595 324.434 357.595 321.528V312.983C357.595 312.214 357.296 311.744 356.741 311.744H343.324C342.769 311.744 342.47 312.171 342.47 312.983V321.186C342.47 324.348 347.17 323.451 347.17 324.562C347.17 324.861 346.999 325.075 346.315 325.075C344.691 325.075 342.811 324.818 340.974 324.818C339.137 324.818 336.958 325.075 335.163 325.075C334.821 325.075 334.565 324.904 334.565 324.605C334.565 323.024 338.111 324.434 338.111 321.528V301.702C338.111 298.498 333.497 299.395 333.497 298.327C333.497 298.028 333.668 297.772 334.351 297.772C335.975 297.772 337.855 298.028 339.692 298.028C341.53 298.028 343.709 297.772 345.546 297.772C345.93 297.772 346.144 297.942 346.144 298.242C346.144 299.822 342.555 298.412 342.555 301.275V308.411C342.555 309.223 342.854 309.65 343.41 309.65H356.826C357.339 309.65 357.681 309.223 357.681 308.411V301.617C357.681 298.412 353.066 299.31 353.066 298.242C353.066 297.942 353.237 297.686 353.921 297.686C355.544 297.686 357.382 297.942 359.262 297.942C361.142 297.942 363.278 297.686 365.073 297.686C365.415 297.686 365.671 297.857 365.671 298.156C365.671 299.737 362.082 298.327 362.082 301.19V321.058L361.953 321.186Z" fill="#012169"/>
<path d="M434.077 311.701C434.077 319.819 429.762 323.665 424.421 323.665C418.225 323.665 413.61 319.05 413.61 311.231C413.61 303.412 417.584 298.925 423.652 298.925C429.42 298.925 434.12 303.412 434.12 311.744M438.82 310.847C438.82 303.455 433.607 297.558 423.823 297.558C414.764 297.558 408.825 303.326 408.825 311.957C408.825 320.589 415.149 325.331 424.036 325.331C431.642 325.331 438.82 319.777 438.82 310.847Z" fill="#012169"/>
<path d="M500.862 311.701C500.862 319.819 496.546 323.665 491.163 323.665C485.01 323.665 480.352 319.05 480.352 311.231C480.352 303.412 484.326 298.925 490.394 298.925C496.461 298.925 500.862 303.412 500.862 311.744M505.605 310.847C505.605 303.455 500.392 297.558 490.607 297.558C481.549 297.558 475.567 303.326 475.567 311.957C475.567 320.589 481.891 325.331 490.778 325.331C498.426 325.331 505.562 319.777 505.562 310.847" fill="#012169"/>
<path d="M549.614 301.959C549.614 298.797 545.256 299.865 545.256 298.541C545.256 298.071 545.555 297.814 545.982 297.814C547.478 297.814 549.144 298.071 551.622 298.071C554.229 298.071 555.852 297.814 556.92 297.814C557.22 297.814 557.561 298.071 557.561 298.413C557.561 299.481 553.972 299.054 553.972 302.301V321.529C553.972 322.981 554.699 323.28 558.117 323.28C566.705 323.28 567.688 318.708 568.542 318.708C568.842 318.708 569.141 319.008 569.141 319.648C569.141 325.374 564.227 325.289 561.749 325.289C560.595 325.289 559.099 325.246 557.647 325.118C556.151 324.989 554.613 324.861 553.502 324.861C552.049 324.861 550.768 324.904 549.828 324.989C548.802 325.032 548.076 325.118 547.478 325.118C546.623 325.118 546.281 325.032 546.281 324.648C546.281 323.494 549.571 324.092 549.571 321.101V301.959H549.614Z" fill="#012169"/>
<path d="M67.0861 143.951C-2.85971 111.606 5.51502 39.3525 5.55775 5.55465L129.341 5.68283C129.341 39.4807 137.117 111.734 67.0861 143.951ZM5.55775 0L0.216742 5.59738C0.131286 9.65654 0.0457931 14.6985 0.0457931 17.2194C-0.466944 56.9138 2.22504 118.656 66.7871 148.48C100.97 132.671 126.82 105.453 133.614 63.2802C137.587 38.8398 135.195 15.6385 135.237 0.0427281H5.60052L5.55775 0Z" fill="#012169"/>
<path d="M40.6382 88.7036C35.6817 94.0019 30.768 99.2574 29.1443 101.009C28.7598 101.437 28.7171 101.821 28.9735 102.077C29.3153 102.462 29.7853 102.932 29.9562 102.975C30.2553 103.06 30.4689 103.188 31.0244 102.59C31.238 102.334 36.7073 97.0783 43.1165 90.8827C43.1165 90.8827 42.4755 90.5409 41.8773 90.0709C41.3219 89.5582 40.6382 88.7036 40.6382 88.7036Z" fill="#012169"/>
<path d="M43.9708 87.2934C45.2526 88.5325 47.3036 89.6862 47.3036 89.6862L46.15 90.7971C45.7227 91.2671 44.099 90.5408 42.5608 89.1735C41.0226 87.8062 40.1253 86.3107 40.5526 85.8407L41.8344 84.687C41.8344 84.687 42.689 86.097 43.9708 87.3362" fill="#012169"/>
<path d="M100.499 100.924C101.525 99.8985 101.567 98.9585 101.567 98.9585L102.678 99.514C103.02 99.8558 102.721 101.18 101.696 102.163C100.67 103.189 99.2601 103.53 98.9183 103.189L98.3201 101.992C98.3201 101.992 99.431 101.992 100.499 100.967" fill="#012169"/>
<path d="M98.833 99.1288C99.5166 98.5306 99.7303 97.7188 99.7303 97.7188L100.457 98.2315C100.713 98.4879 100.457 99.2997 99.7303 100.026C98.9611 100.795 97.9356 101.009 97.6793 100.752L97.252 99.9406C97.252 99.9406 98.1494 99.6842 98.833 99.086" fill="#012169"/>
<path d="M102.252 42.5994L100.928 43.7531C99.133 44.4367 95.0311 41.3176 91.8265 38.4975C89.6474 36.6175 85.3318 31.832 86.5709 29.9092L87.1264 29.3537C86.7418 29.1401 86.4001 28.9265 86.1437 28.7983C85.8019 28.5846 85.2891 28.4564 84.7764 28.5419C84.2636 28.5846 83.8363 28.7983 83.7936 29.2256C83.7081 30.0801 84.1781 31.2338 84.8618 32.5583C85.5454 33.9256 88.2374 37.8139 93.6211 42.1294C96.0993 44.0949 98.9194 45.334 100.97 46.0604C101.355 46.1886 102.637 46.445 103.192 45.8895C103.748 45.334 103.149 44.3086 102.722 43.3685C102.594 43.1122 102.423 42.8558 102.252 42.5567" fill="#012169"/>
<path d="M46.106 22.4324C46.106 22.817 46.106 23.287 46.106 23.757C46.106 25.0816 47.3024 35.9345 53.5834 43.7965C59.0099 50.5475 75.3321 70.0315 77.9385 73.1506C80.374 76.0561 96.3969 94.8138 98.4479 97.1638C98.5333 97.2493 98.6189 97.3774 98.6616 97.4202C98.6616 97.4202 98.4479 97.9329 97.9779 98.3175C97.4652 98.702 96.9097 98.7447 96.9097 98.7447C96.867 98.702 96.4825 98.3175 96.397 98.232C95.8416 97.5484 68.111 69.8606 65.4192 67.2542C62.7273 64.6478 48.4561 50.8466 42.5596 47.0438C37.475 43.7965 35.1677 41.9592 29.5703 41.4891C29.5703 41.4891 25.5966 41.361 25.3402 41.1473C25.2975 41.1473 25.3402 40.9337 25.4684 40.891C27.9466 39.9082 33.3303 36.7463 37.5604 32.7299C43.5423 27.0898 45.4224 23.1161 45.7215 22.5179C45.8069 22.347 46.1488 22.347 46.1488 22.4752M50.0371 45.8901C44.2688 40.1646 42.0896 38.84 39.4832 37.7291C38.1159 37.1309 36.7913 36.7036 36.4068 36.8745C35.2531 37.3018 33.5867 38.0282 32.5185 38.9682C31.7494 39.6518 31.8349 39.9509 32.2622 40.2073C32.6894 40.4209 35.5949 41.0619 38.2441 42.5146C42.9014 44.9928 51.6607 51.103 70.7602 70.8433C80.4595 80.8844 95.7134 96.3947 95.7134 96.3947L96.0979 96.0956C96.0979 96.0956 73.8793 71.1851 56.5317 52.7694C54.0534 50.1629 51.917 47.8984 49.9943 45.9756" fill="#012169"/>
<path d="M32.9465 34.0543C30.4255 36.1907 27.2637 38.1135 24.4436 39.2671C22.6918 39.9935 20.2135 39.1817 21.9653 35.7634C22.5208 34.738 23.2899 33.4561 24.3581 32.0461C27.6909 27.6024 33.6728 22.1759 39.4411 19.0568C41.193 18.1167 42.8167 17.5186 43.5431 17.5186C44.9531 17.604 45.0385 18.8004 44.7821 19.9541C44.1839 22.475 40.0393 28.0724 32.9037 34.0543M34.6984 30.807C35.3393 30.2515 37.6465 27.9015 39.5693 25.6369C41.6202 23.2441 42.6885 21.065 42.6885 21.065C42.6885 21.065 42.9876 20.3813 42.9448 19.9113C42.9021 19.5695 42.5175 19.3986 42.3894 19.2704C42.1757 19.0568 37.1766 21.3214 34.9975 23.3723C34.7411 23.6287 34.2711 24.6541 34.0147 25.3805C33.8438 26.0214 35.4674 27.7733 34.3992 30.4652C34.2283 30.8497 34.6129 30.8924 34.6984 30.807Z" fill="#012169"/>
<path d="M64.9926 68.835C63.8389 69.9459 45.8503 87.208 45.8503 87.208C46.1067 87.4644 46.8759 88.0199 46.8759 88.0199C46.8759 88.0199 63.4117 72.125 64.6508 70.9714C64.9926 70.6723 65.719 69.9886 65.9754 69.775L65.0353 68.835H64.9926Z" fill="#012169"/>
<path d="M98.9176 47.5136C99.174 47.5136 99.4303 47.4708 99.6867 47.4708C99.943 47.4708 100.328 47.3854 100.37 47.3427C100.541 47.2145 100.627 47.0436 100.328 47.0436C99.473 47.0436 97.9348 46.5736 96.2257 45.7617C95.1575 46.0608 93.4057 46.5308 91.3548 47.4281C88.7484 48.5818 83.0655 52 71.4435 62.682L72.3407 63.7502C76.3572 60.1183 81.7836 55.3328 84.6891 53.41C89.9019 50.0345 93.662 48.4963 96.1829 47.8981C96.9093 47.7272 98.063 47.599 98.9176 47.5136Z" fill="#012169"/>
<path d="M87.5965 39.0536C84.3919 35.7208 83.4091 33.328 82.8536 31.5762C82.8536 31.4907 82.8537 31.448 82.811 31.4053C82.811 31.4053 82.64 31.3625 82.5973 31.4907C82.5973 31.5335 82.5545 31.6189 82.5545 31.7044C82.2554 35.1226 82.5546 36.5754 81.1445 40.0791C79.9482 43.0273 77.8117 46.7446 74.8635 50.1629C73.1544 52.1284 70.2916 55.3757 67.6425 58.4094L69.4797 60.5885C69.4797 60.5885 70.249 59.7767 70.9326 59.0503C79.82 49.5647 87.5538 43.6682 90.2884 41.66C89.3057 40.8054 88.3655 39.9509 87.511 39.0963" fill="#012169"/>
<path d="M61.2753 65.4165C57.5152 69.6466 53.7551 73.8339 52.6869 75.0303C51.7469 76.0558 43.5858 84.8578 43.5858 84.8578C43.5858 84.8578 43.7995 85.1996 44.0559 85.4987C44.3123 85.7978 44.7396 86.1823 44.7396 86.1823C44.7396 86.1823 61.9162 68.5357 63.2407 67.2111L61.3607 65.4592L61.2753 65.4165Z" fill="#012169"/>
<path d="M90.7158 27.3889C90.7158 27.3889 90.7158 27.1325 90.7158 27.0044C89.8186 26.748 89.135 26.7907 88.7932 27.1753C87.6822 28.4144 90.1604 32.5163 94.3478 36.4473C98.5351 40.3355 102.893 42.5146 104.004 41.3183C104.474 40.8483 104.303 39.8655 103.705 38.6264C97.5951 39.3528 90.6732 31.3199 90.6732 27.3889" fill="#012169"/>
<path d="M109.686 28.9695C109.088 29.6531 108.062 31.234 107.464 31.7895C108.105 31.1913 108.49 29.7813 107.763 26.0639C107.25 23.4575 106.951 22.603 106.609 21.7484C106.396 21.2784 106.14 21.3639 105.755 21.7484C105.413 22.133 104.644 23.4575 104.601 23.543C104.516 23.8421 104.601 23.543 103.405 19.7829C102.636 17.3902 102.294 15.7238 102.337 14.8692C102.337 14.4419 102.337 13.9719 102.379 13.6301C102.379 13.331 102.209 13.331 101.482 13.6301C101.055 13.801 97.8503 16.0656 96.5257 19.3984C95.7566 21.3639 95.7139 22.9448 95.5857 21.9621C95.3721 20.0393 95.3721 20.082 95.2012 20.1247C94.133 20.4666 90.4156 22.1757 90.4156 27.1749C90.4156 31.4477 98.4485 40.5488 105.029 38.4978C105.029 38.4978 109.985 37.5578 110.07 33.0713C110.156 28.5849 109.643 28.7985 109.643 28.7985M108.062 34.5241C107.806 34.9941 106.909 36.1478 105.499 36.746C103.918 37.4296 101.867 37.5151 100.799 37.216C95.9703 35.7205 93.0648 30.8068 93.0648 30.8068C89.262 24.6539 94.3466 22.0048 94.7739 21.9193C94.7739 21.9193 94.2185 23.9275 94.5603 25.2948C94.8594 26.534 95.5857 27.474 95.7993 28.1576C96.2693 29.5249 95.6284 30.4649 95.3294 30.8922C95.1584 31.1059 95.6284 30.9777 95.7139 30.8922C95.7993 30.8495 95.8421 30.764 96.013 30.6359C96.6967 30.1231 97.3803 29.3113 97.1666 28.4567C96.7393 26.5767 95.3721 25.3803 96.953 21.4493C97.9358 19.0565 100.243 16.7065 100.457 16.5783C100.798 16.322 101.055 16.0229 101.055 16.2792C101.055 16.5356 101.482 18.2874 101.696 19.4411C101.909 20.5948 103.234 22.9021 102.935 26.1494C102.636 29.3967 97.3803 32.9004 96.6539 33.1568C96.4403 33.2423 96.0557 33.4559 95.9702 33.5414C95.7993 33.7123 96.0556 33.755 96.1838 33.7977C96.4829 33.8405 98.7048 33.3277 100.499 32.0459C101.995 30.9777 103.448 29.3967 103.96 28.4567C104.858 26.7049 105.328 24.3121 105.413 24.0985C105.584 23.7139 105.712 23.7566 105.755 23.9275C105.798 24.1412 106.182 25.5512 106.31 26.2776C106.396 26.6621 106.609 27.8158 106.609 29.0122C106.609 31.4477 105.926 32.5586 104.473 33.6268C103.661 34.2677 102.764 34.4814 101.824 34.5668H101.482C101.482 34.5668 101.226 34.695 101.482 34.8232C101.568 34.8659 101.696 34.9087 101.824 34.9514C102.636 35.2932 104.302 35.2932 105.413 34.6096C105.883 34.3105 106.567 33.8405 107.464 32.9432C107.806 32.6013 108.276 32.0031 108.319 32.2168C108.404 32.5159 108.49 33.5841 108.02 34.4814" fill="#012169"/>
<path d="M400.664 8.63067C422.071 8.63067 435.573 28.0719 435.573 48.0259C435.573 67.9799 422.712 81.1829 406.689 81.1829C384.94 81.1829 371.651 61.528 371.651 41.2322C371.651 23.8846 382.205 8.63067 400.664 8.63067ZM402.117 84.473C426.6 84.473 443.563 68.5354 443.563 43.8386C443.563 21.1073 426.343 4.95605 403.954 4.95605C381.564 4.95605 363.704 21.5345 363.704 44.3941C363.704 67.2536 378.274 84.473 402.117 84.473Z" fill="#012169"/>
<path d="M465.739 13.5454C465.739 9.40074 467.961 9.61438 471.806 9.61438C482.275 9.61438 492.188 13.9726 492.188 27.0047C492.188 40.0368 481.976 42.1304 477.361 42.1304C472.362 42.1304 465.739 42.6432 465.739 40.635V13.5454ZM486.718 42.9423C494.239 39.994 500.178 32.8157 500.178 24.5265C500.178 3.93155 476.592 6.06796 474.883 6.06796C469.328 6.06796 463.261 6.49524 457.151 6.49524C451.724 6.49524 452.237 6.06796 450.314 6.06796C449.032 6.06796 448.22 6.70888 448.22 7.3498C448.22 10.9817 457.364 6.62342 457.364 16.8354V71.0573C457.364 79.1757 449.588 77.6802 449.588 80.372C449.588 81.013 450.015 81.5257 450.656 81.5257C454.715 81.5257 458.732 81.0984 462.748 81.0984C471.593 81.0984 474.028 81.5257 475.011 81.5257C475.865 81.5257 476.806 81.7393 476.806 80.6711C476.806 77.0393 465.696 80.372 465.696 71.1428V48.6251C465.696 47.5569 465.055 45.6341 468.474 45.6341C480.437 45.6341 478.857 45.335 482.702 51.2742L494.538 69.9464C498.597 76.0138 502.741 81.483 510.518 81.483C511.501 81.483 519.918 81.483 519.918 80.2011C519.918 77.6375 512.227 81.6112 504.536 69.8609L486.718 42.8995V42.9423Z" fill="#012169"/>
<path d="M517.868 12.7757C515.091 8.16106 509.878 9.48563 509.878 7.64833C509.878 6.92195 510.519 6.02466 511.288 6.02466C514.151 6.02466 516.159 6.49467 523.423 6.49467C526.926 6.49467 529.832 6.02466 530.9 6.02466C531.627 6.02466 532.908 6.15285 532.908 7.09286C532.908 8.88744 527.909 9.01563 527.909 12.092C527.909 13.8012 529.191 15.5103 529.832 16.4503L542.693 37.0452C543.548 38.3271 544.189 38.968 544.829 38.968C545.342 38.968 545.983 38.1989 546.838 36.8316L557.819 19.014C558.545 17.8603 560.041 16.023 560.041 13.1602C560.041 7.94742 552.051 10.1693 552.051 7.6056C552.051 6.2383 553.119 5.98193 554.272 5.98193C556.836 5.98193 559.485 6.45194 562.049 6.45194C565.125 6.45194 568.202 5.98193 571.321 5.98193C571.962 5.98193 572.475 6.75104 572.475 7.26378C572.475 8.46016 570.68 8.84471 569.911 9.31472C567.048 11.0238 565.638 14.0148 563.929 16.6639L549.017 39.908C547.308 42.5572 546.453 43.1126 546.453 44.6936V70.8004C546.453 80.0724 555.17 77.0814 555.17 80.4142C555.17 81.3542 554.187 81.4824 552.734 81.4824C551.11 81.4824 544.958 81.0124 541.069 81.0124C536.284 81.0124 532.438 81.4824 531.498 81.4824C530.558 81.4824 529.917 81.397 529.917 80.2006C529.917 77.2096 538.121 79.9869 538.121 72.4241V46.6163C538.121 44.6081 536.54 42.4717 535.686 41.1899L517.911 12.733L517.868 12.7757Z" fill="#012169"/>
<path d="M351.57 71.6978C352.082 80.628 359.987 76.697 359.987 80.4143C359.987 81.4825 358.577 81.4825 357.423 81.4825C355.415 81.4825 351.655 81.0125 347.425 81.0125C344.135 81.0125 340.717 81.4825 338.196 81.4825C337.256 81.4825 337.042 80.9271 337.042 80.4998C337.042 77.2952 343.75 79.6452 343.622 71.7833L340.717 30.4653C340.717 27.8161 340.204 26.3206 339.563 26.3206C338.794 26.3206 337.854 27.2606 336.786 29.5252L314.738 74.4324C314.183 75.3724 312.516 79.7734 311.448 79.7734C310.38 79.7734 309.653 77.4234 309.312 76.697L286.623 29.2261C286.281 28.3716 285.768 28.0725 285.341 28.0725C285.042 28.0725 284.7 28.5852 284.615 29.6534L281.496 66.9977C280.94 81.1407 291.067 76.4834 291.067 80.2862C291.067 81.3544 289.913 81.4398 288.418 81.4398C287.05 81.4398 282.265 80.9698 279.103 80.9698C273.548 80.9698 271.754 81.4398 269.703 81.4398C268.934 81.4398 268.635 80.8844 268.635 80.158C268.635 76.5261 275.428 80.8844 276.197 69.8178C277.479 52.4275 278.761 41.1045 278.761 29.8243C278.761 4.78569 270.515 10.7249 270.515 7.093C270.515 6.15298 271.369 5.89662 272.309 5.89662C274.232 5.89662 276.112 6.36662 278.163 6.36662C280.086 6.36662 281.966 5.89662 283.846 5.89662C285.341 5.89662 285.555 7.69119 286.068 8.88758L311.491 63.0668C312.687 65.2886 313.114 66.2714 313.841 66.2714C314.353 66.2714 315.422 64.0495 317.131 60.5031L342.554 9.5285C343.195 8.37484 344.05 5.81116 345.289 5.89662C346.357 5.89662 349.732 6.36662 350.245 6.36662C352.723 6.36662 353.663 5.89662 355.372 5.89662C356.013 5.89662 356.441 6.53754 356.441 7.17846C356.441 10.5967 347.895 6.0248 348.365 18.715L351.57 71.6124V71.6978Z" fill="#012169"/>
<path d="M222.06 37.1734C222.06 40.8053 221.846 40.8053 226.076 40.8053H237.57C248.594 40.8053 245.774 32.2597 248.295 32.2597C249.15 32.2597 249.449 33.4133 249.449 34.2679C249.449 38.028 249.321 41.6171 249.321 44.9926C249.321 47.77 249.449 50.5473 249.449 53.4101C249.449 54.3928 249.021 54.7774 248.295 54.7774C245.005 54.7774 248.594 45.3772 239.707 45.3772H223.983C221.761 45.3772 222.06 47.2145 222.06 48.7954V68.4076C222.06 74.6886 221.205 77.2523 230.136 77.2523C254.661 77.2523 258.293 66.2712 259.661 66.2712C260.387 66.2712 260.515 67.3394 260.515 67.553C260.515 71.3986 257.738 75.1159 255.217 77.8932C251.799 81.7815 249.449 81.5679 244.834 81.5679C236.758 81.5679 228.683 80.9269 220.607 81.1406C216.377 81.2688 211.891 81.5679 207.661 81.5679C206.678 81.5679 206.08 81.3542 206.08 80.4996C206.293 79.2178 207.362 79.4314 210.78 77.6796C213.557 76.3978 213.771 73.4068 213.771 68.4076V19.8685C213.771 15.083 213.771 9.95563 208.002 9.10107C207.148 8.88743 204.798 8.67379 204.798 7.43467C204.798 6.58011 205.439 6.15283 208.515 6.15283C228.555 6.15283 234.109 6.62284 238.553 6.62284C240.689 6.62284 250.431 6.15283 253.722 6.15283C254.576 6.15283 254.79 7.22103 254.79 8.50288C254.79 20.3385 253.294 21.1931 252.653 21.1931C250.09 21.1931 251.799 16.0657 250.09 13.6302C247.355 9.99836 236.331 10.6393 232.058 10.6393C221.846 10.6393 222.06 10.212 222.06 17.3476V37.1734Z" fill="#012169"/>
<path d="M568.159 130.876H209.243V133.824H568.159V130.876Z" fill="#012169"/>
<path d="M638.232 0H635.455V332.638H638.232V0Z" fill="#012169"/>
<path d="M733.814 7.2207H770.517V17.4327H746.633V36.0621H769.236V46.2741H746.633V66.8691H771.543V77.0811H733.814V7.2207Z" fill="#012169"/>
<path d="M782.909 33.9688C782.909 32.0887 782.909 30.4651 782.823 29.055C782.738 27.645 782.652 26.4914 782.524 25.5513H794.915C795.001 26.8759 795.086 28.2432 795.172 29.6105C795.257 30.9778 795.342 32.3451 795.342 33.6697H795.556C796.026 32.6869 796.624 31.6187 797.393 30.5505C798.162 29.4823 799.06 28.5423 800.085 27.6877C801.111 26.8332 802.35 26.1495 803.717 25.5941C805.127 25.0386 806.708 24.7395 808.503 24.7395C810.682 24.7395 812.519 25.0386 814.014 25.6368C815.467 26.235 816.706 26.9614 817.732 27.7732C818.715 28.6278 819.526 29.525 820.082 30.4651C820.637 31.4478 821.15 32.2596 821.535 32.9006C822.133 32.046 822.816 31.106 823.628 30.166C824.44 29.1832 825.38 28.3287 826.491 27.5168C827.602 26.705 828.841 26.0641 830.294 25.5086C831.747 24.9531 833.413 24.6968 835.336 24.6968C838.156 24.6968 840.506 25.1668 842.386 26.1495C844.309 27.1323 845.804 28.4996 846.958 30.2514C848.112 32.0033 848.923 34.1824 849.436 36.7034C849.949 39.2243 850.163 42.0871 850.163 45.2062V77.0387H837.771V44.5226C837.771 41.318 837.259 38.9252 836.233 37.3016C835.208 35.7206 833.499 34.9088 831.191 34.9088C829.781 34.9088 828.585 35.2079 827.559 35.8061C826.534 36.4043 825.637 37.2161 824.953 38.1988C824.269 39.1816 823.714 40.378 823.329 41.7025C822.945 43.0271 822.774 44.3944 822.774 45.8044V77.0387H810.383V44.5226C810.383 41.318 809.87 38.9252 808.845 37.3016C807.819 35.7206 806.11 34.9088 803.802 34.9088C802.392 34.9088 801.196 35.2079 800.171 35.8061C799.145 36.4043 798.248 37.2161 797.564 38.1988C796.881 39.1816 796.325 40.378 795.941 41.7025C795.556 43.0271 795.385 44.3944 795.385 45.8044V77.0387H782.994V33.926L782.909 33.9688Z" fill="#012169"/>
<path d="M858.324 51.2736C858.324 46.0181 859.008 41.6598 860.375 38.2843C861.743 34.866 863.537 32.1742 865.716 30.166C867.938 28.1577 870.374 26.7477 873.065 25.9786C875.757 25.1668 878.406 24.7822 881.013 24.7822C883.619 24.7822 886.269 25.1668 888.96 25.9786C891.652 26.7904 894.088 28.2005 896.267 30.166C898.446 32.1742 900.198 34.866 901.565 38.2843C902.932 41.7025 903.616 46.0181 903.616 51.2736C903.616 56.5292 902.932 61.1011 901.565 64.5193C900.198 67.9376 898.446 70.6722 896.267 72.6804C894.088 74.6886 891.652 76.0559 888.96 76.7823C886.269 77.5086 883.619 77.8932 881.013 77.8932C878.406 77.8932 875.757 77.5086 873.065 76.7823C870.374 76.0559 867.895 74.6886 865.716 72.6804C863.494 70.6722 861.743 67.9803 860.375 64.5193C859.008 61.1011 858.324 56.6574 858.324 51.2736ZM871.143 51.2736C871.143 53.41 871.271 55.5464 871.527 57.6828C871.784 59.8192 872.296 61.742 873.065 63.4511C873.835 65.1602 874.86 66.5275 876.099 67.553C877.381 68.5785 879.005 69.0912 881.013 69.0912C883.021 69.0912 884.645 68.5785 885.927 67.553C887.208 66.5275 888.191 65.1602 888.918 63.4511C889.644 61.742 890.157 59.8192 890.413 57.6828C890.669 55.5464 890.798 53.41 890.798 51.2736C890.798 49.1372 890.669 47.0008 890.413 44.8644C890.157 42.728 889.644 40.848 888.918 39.1816C888.191 37.5152 887.166 36.1479 885.927 35.1224C884.645 34.0969 883.021 33.5842 881.013 33.5842C879.005 33.5842 877.381 34.0969 876.099 35.1224C874.817 36.1479 873.835 37.5152 873.065 39.1816C872.296 40.848 871.784 42.7707 871.527 44.8644C871.271 47.0008 871.143 49.1372 871.143 51.2736Z" fill="#012169"/>
<path d="M912.332 34.0542C912.332 32.4306 912.332 30.9351 912.247 29.4396C912.161 27.9868 912.076 26.6623 911.948 25.5513H923.143C923.228 27.0895 923.313 28.6705 923.399 30.2514C923.527 31.8324 923.57 33.4133 923.57 34.9515H923.783C924.168 33.9688 924.723 32.8578 925.364 31.6614C926.048 30.4651 926.902 29.3541 927.971 28.3714C929.039 27.3886 930.321 26.5341 931.773 25.8077C933.226 25.1241 934.935 24.7822 936.901 24.7822C937.285 24.7822 937.67 24.7822 938.012 24.8677C938.354 24.9104 938.695 24.9959 938.994 25.0813V36.7034C937.798 36.3615 936.644 36.1906 935.491 36.1906C934.209 36.1906 932.97 36.4043 931.688 36.8315C930.406 37.2588 929.253 37.9425 928.227 38.9252C927.202 39.908 926.347 41.1898 925.706 42.8135C925.065 44.4371 924.766 46.4454 924.766 48.8809V77.0814H912.375V34.0542H912.332Z" fill="#012169"/>
<path d="M968.691 64.4763H968.904L978.817 25.551H990.824L974.929 77.5511L972.024 86.8658C971.511 88.6604 970.784 90.3268 969.973 91.8222C969.118 93.3177 968.135 94.5996 966.982 95.7105C965.828 96.8214 964.418 97.676 962.837 98.3169C961.213 98.9578 959.419 99.2569 957.325 99.2569C955.659 99.2569 954.163 99.1287 952.839 98.8724C951.514 98.616 950.36 98.3169 949.42 97.9751L950.104 88.4467C950.831 88.7031 951.557 88.9595 952.283 89.1304C953.009 89.344 953.864 89.4295 954.804 89.4295C956.684 89.5149 958.094 88.9167 959.077 87.7204C960.06 86.524 960.914 84.6012 961.726 81.9093L962.623 77.5083L945.532 25.5083H958.351L968.734 64.4336L968.691 64.4763Z" fill="#012169"/>
<path d="M733.9 131.175H770.603V141.345H746.718V159.974H769.321V170.186H746.718V190.781H771.629V200.993H733.9V131.175Z" fill="#012169"/>
<path d="M794.232 173.177L780.003 149.463H794.018L802.137 165.956L810.639 149.463H823.415L809.144 173.177L824.612 200.993H810.939L801.41 181.893L791.925 200.993H778.721L794.232 173.177Z" fill="#012169"/>
<path d="M867.384 198.472C866.059 198.985 864.093 199.669 861.487 200.523C858.881 201.378 855.719 201.762 852.002 201.762C847.857 201.762 844.31 201.079 841.277 199.669C838.286 198.259 835.808 196.421 833.885 194.071C831.962 191.764 830.509 189.029 829.569 185.868C828.629 182.748 828.159 179.416 828.159 175.955C828.159 172.109 828.629 168.52 829.612 165.187C830.595 161.897 831.962 158.992 833.799 156.556C835.637 154.078 837.859 152.155 840.508 150.745C843.157 149.335 846.105 148.651 849.352 148.651C852.172 148.651 854.779 149.121 857.257 150.019C859.735 150.916 861.914 152.454 863.794 154.591C865.717 156.727 867.213 159.547 868.281 163.051C869.392 166.554 869.947 170.955 869.947 176.211V178.604H840.123C840.123 183.005 841.106 186.466 843.071 188.944C845.037 191.465 848.412 192.704 853.241 192.704C857.043 192.704 859.949 192.277 862 191.337C864.051 190.397 865.632 189.542 866.743 188.688L867.341 198.472H867.384ZM857.984 170.785C857.984 161.641 855.121 157.069 849.395 157.069C847.771 157.069 846.404 157.496 845.25 158.265C844.097 159.077 843.114 160.102 842.345 161.384C841.576 162.666 841.02 164.119 840.678 165.785C840.337 167.452 840.166 169.118 840.166 170.785H857.984Z" fill="#012169"/>
<path d="M913.701 199.668C912.248 200.224 910.453 200.694 908.402 201.121C906.351 201.548 904.044 201.762 901.523 201.762C897.25 201.762 893.618 201.078 890.542 199.668C887.508 198.258 885.03 196.378 883.022 193.986C881.056 191.593 879.604 188.773 878.664 185.568C877.723 182.364 877.253 178.945 877.253 175.271C877.253 171.596 877.724 168.135 878.706 164.931C879.689 161.683 881.184 158.863 883.193 156.47C885.244 154.078 887.807 152.155 890.926 150.788C894.046 149.377 897.806 148.694 902.121 148.694C904.044 148.694 906.052 148.95 908.103 149.377C910.154 149.848 911.778 150.318 912.889 150.788L912.205 160.572C911.052 160.06 909.77 159.504 908.317 158.906C906.864 158.35 905.24 158.051 903.531 158.051C898.788 158.051 895.37 159.547 893.234 162.538C891.098 165.529 890.029 169.801 890.029 175.356C890.029 177.749 890.328 180.014 890.884 182.064C891.439 184.115 892.294 185.953 893.49 187.491C894.644 189.029 896.139 190.226 897.891 191.08C899.643 191.935 901.737 192.362 904.13 192.362C905.668 192.362 907.291 192.063 909.043 191.507C910.795 190.952 912.077 190.396 912.931 189.841L913.615 199.668H913.701Z" fill="#012169"/>
<path d="M963.392 192.49C963.392 194.114 963.392 195.609 963.477 197.105C963.563 198.558 963.648 199.882 963.776 200.993H952.154C952.069 199.669 952.026 198.344 951.898 197.062C951.813 195.738 951.77 194.456 951.77 193.088L951.471 193.003L951.556 193.088C950.958 194.029 950.274 195.011 949.548 196.037C948.822 197.062 947.924 198.002 946.856 198.9C945.788 199.797 944.506 200.48 943.053 200.993C941.601 201.506 939.849 201.805 937.841 201.805C934.892 201.805 932.457 201.292 930.534 200.31C928.611 199.327 927.03 197.917 925.877 196.165C924.723 194.413 923.868 192.362 923.356 190.055C922.843 187.747 922.629 185.312 922.629 182.706V149.506H935.02V180.398C935.02 184.415 935.619 187.277 936.772 188.987C937.926 190.696 939.806 191.593 942.412 191.593C944.079 191.593 945.446 191.251 946.514 190.525C947.582 189.841 948.437 188.901 949.121 187.705C949.804 186.551 950.274 185.227 950.531 183.688C950.787 182.193 950.915 180.612 950.915 178.945V149.42H963.306V192.448L963.392 192.49Z" fill="#012169"/>
<path d="M980.228 138.866L992.619 135.063V149.463H1002.92V158.564H992.619V185.269C992.619 188.089 993.089 189.969 994.072 190.909C995.055 191.892 996.422 192.362 998.216 192.362C999.327 192.362 1000.31 192.234 1001.08 192.02C1001.85 191.806 1002.45 191.55 1002.92 191.251V200.053C1001.98 200.523 1000.82 200.907 999.456 201.249C998.088 201.591 996.465 201.762 994.584 201.762C989.97 201.762 986.423 200.608 983.945 198.301C981.467 195.994 980.185 192.148 980.185 186.764V158.564H971.981V149.463H980.185V138.866H980.228Z" fill="#012169"/>
<path d="M1013.6 127.543H1026.42V139.764H1013.6V127.543ZM1013.81 149.463H1026.2V200.993H1013.81V149.463Z" fill="#012169"/>
<path d="M1034.92 149.463H1047.69L1058.21 189.2H1058.42L1069.02 149.463H1081.02L1065.21 200.993H1050.6L1034.92 149.463Z" fill="#012169"/>
<path d="M1122.81 198.472C1121.49 198.985 1119.52 199.669 1116.91 200.523C1114.31 201.378 1111.15 201.762 1107.39 201.762C1103.24 201.762 1099.69 201.079 1096.7 199.669C1093.71 198.259 1091.23 196.421 1089.31 194.071C1087.39 191.764 1085.94 189.029 1085 185.868C1084.06 182.748 1083.59 179.416 1083.59 175.955C1083.59 172.109 1084.06 168.52 1085.04 165.187C1086.02 161.897 1087.39 158.992 1089.23 156.556C1091.06 154.078 1093.29 152.155 1095.93 150.745C1098.58 149.335 1101.53 148.651 1104.78 148.651C1107.56 148.651 1110.21 149.121 1112.68 150.019C1115.16 150.916 1117.34 152.454 1119.22 154.591C1121.14 156.727 1122.64 159.547 1123.71 163.051C1124.82 166.554 1125.37 170.955 1125.37 176.211V178.604H1095.55C1095.55 183.005 1096.53 186.466 1098.5 188.944C1100.46 191.465 1103.84 192.704 1108.67 192.704C1112.47 192.704 1115.38 192.277 1117.43 191.337C1119.48 190.439 1121.06 189.542 1122.17 188.688L1122.77 198.472H1122.81ZM1113.41 170.785C1113.41 161.641 1110.55 157.069 1104.82 157.069C1103.2 157.069 1101.83 157.496 1100.68 158.265C1099.52 159.077 1098.54 160.102 1097.77 161.384C1097 162.666 1096.45 164.119 1096.11 165.785C1095.76 167.452 1095.59 169.118 1095.59 170.785H1113.41Z" fill="#012169"/>
<path d="M733.942 255.129H770.688V265.341H746.761V283.97H769.364V294.182H746.761V314.777H771.671V324.989H733.942V255.129Z" fill="#012169"/>
<path d="M824.355 249.959V316.188C824.355 318.068 824.355 319.734 824.44 321.272C824.526 322.811 824.611 324.05 824.739 324.99H813.118C812.989 324.263 812.904 323.152 812.818 321.742C812.733 320.29 812.733 318.709 812.733 317H812.434C811.921 318.11 811.28 319.221 810.511 320.247C809.785 321.272 808.887 322.212 807.819 323.067C806.751 323.921 805.469 324.562 803.974 325.075C802.478 325.588 800.726 325.802 798.718 325.802C795.513 325.802 792.779 325.075 790.471 323.665C788.164 322.212 786.327 320.332 784.874 317.897C783.421 315.504 782.353 312.684 781.669 309.479C780.986 306.275 780.644 302.857 780.644 299.267C780.644 290.807 782.225 284.227 785.344 279.613C788.463 274.998 792.864 272.648 798.462 272.648C800.342 272.648 801.965 272.861 803.418 273.331C804.871 273.801 806.11 274.442 807.221 275.212C808.332 276.023 809.229 276.878 809.955 277.861C810.682 278.843 811.28 279.826 811.75 280.809H811.964V249.917H824.355V249.959ZM793.035 298.755C793.035 304.737 793.633 309.223 794.873 312.214C796.112 315.162 798.504 316.658 802.136 316.658C803.931 316.658 805.469 316.188 806.751 315.248C808.033 314.308 809.058 313.026 809.785 311.445C810.554 309.821 811.109 307.984 811.451 305.848C811.793 303.711 811.964 301.447 811.964 299.054C811.964 296.661 811.793 294.268 811.408 292.132C811.024 289.995 810.468 288.158 809.699 286.62C808.93 285.082 807.947 283.885 806.708 283.031C805.469 282.176 804.016 281.749 802.35 281.749C798.889 281.749 796.453 283.287 795.086 286.406C793.719 289.525 793.035 293.627 793.035 298.755Z" fill="#012169"/>
<path d="M877.082 316.486C877.082 318.11 877.082 319.606 877.168 321.101C877.253 322.554 877.339 323.878 877.467 324.989H865.845C865.759 323.665 865.717 322.34 865.588 321.058C865.503 319.734 865.46 318.452 865.46 317.085L865.161 316.999L865.247 317.085C864.648 318.025 863.965 319.007 863.238 320.033C862.512 321.058 861.615 321.998 860.547 322.896C859.478 323.75 858.196 324.477 856.744 324.989C855.291 325.502 853.539 325.801 851.531 325.801C848.583 325.801 846.147 325.288 844.224 324.306C842.302 323.323 840.721 321.913 839.567 320.161C838.414 318.409 837.559 316.358 837.046 314.051C836.533 311.744 836.32 309.308 836.32 306.702V273.502H848.711V304.394C848.711 308.411 849.309 311.274 850.463 312.983C851.616 314.735 853.497 315.589 856.103 315.589C857.769 315.589 859.136 315.247 860.205 314.521C861.273 313.837 862.127 312.897 862.811 311.701C863.495 310.547 863.965 309.223 864.221 307.684C864.477 306.189 864.606 304.608 864.606 302.942V273.417H876.997V316.444L877.082 316.486Z" fill="#012169"/>
<path d="M922.758 323.665C921.306 324.178 919.511 324.69 917.46 325.118C915.409 325.545 913.102 325.759 910.538 325.759C906.265 325.759 902.634 325.075 899.557 323.665C896.523 322.255 894.045 320.375 892.037 317.982C890.071 315.589 888.619 312.769 887.679 309.565C886.739 306.36 886.269 302.942 886.269 299.267C886.269 295.593 886.739 292.132 887.721 288.927C888.704 285.68 890.2 282.86 892.208 280.467C894.259 278.074 896.822 276.151 899.942 274.784C903.061 273.374 906.821 272.69 911.137 272.69C913.059 272.69 915.067 272.947 917.118 273.374C919.212 273.844 920.793 274.314 921.904 274.784L921.22 284.569C920.067 284.056 918.785 283.501 917.332 282.902C915.879 282.347 914.256 282.048 912.546 282.048C907.804 282.048 904.385 283.543 902.249 286.534C900.113 289.525 899.044 293.798 899.044 299.353C899.044 301.746 899.344 303.967 899.899 306.061C900.455 308.112 901.352 309.949 902.505 311.487C903.659 313.026 905.154 314.222 906.906 315.077C908.658 315.931 910.752 316.358 913.145 316.358C914.683 316.358 916.307 316.059 918.058 315.504C919.81 314.948 921.092 314.393 921.947 313.838L922.63 323.665H922.758Z" fill="#012169"/>
<path d="M934.765 276.451C936.517 275.639 938.654 274.827 941.26 273.972C943.866 273.118 947.114 272.69 951.045 272.69C954.976 272.69 958.351 273.16 960.915 274.1C963.478 275.04 965.487 276.408 966.94 278.202C968.392 279.997 969.375 282.176 969.93 284.74C970.486 287.303 970.785 290.209 970.785 293.371V315.888C970.785 317.769 970.87 319.478 971.041 321.101C971.212 322.725 971.341 324.007 971.469 324.99H960.274C959.932 324.007 959.761 322.896 959.676 321.699C959.59 320.503 959.59 319.264 959.59 317.982H959.377C957.838 320.119 955.958 321.956 953.779 323.494C951.557 325.032 948.652 325.801 944.977 325.801C942.969 325.801 941.046 325.46 939.166 324.819C937.286 324.135 935.662 323.152 934.252 321.87C932.842 320.589 931.732 319.008 930.834 317.128C929.98 315.248 929.552 313.111 929.552 310.718C929.552 307.257 930.236 304.395 931.603 302.13C932.971 299.865 934.851 298.071 937.243 296.746C939.636 295.422 942.499 294.482 945.789 294.012C949.079 293.499 952.711 293.285 956.642 293.285H959.163V291.363C959.163 290.081 958.992 288.884 958.65 287.645C958.308 286.449 957.753 285.381 956.984 284.483C956.215 283.586 955.232 282.86 954.036 282.347C952.839 281.791 951.344 281.535 949.549 281.535C948.011 281.535 946.515 281.706 945.105 282.048C943.653 282.39 942.328 282.774 941.089 283.287C939.85 283.8 938.739 284.355 937.799 284.953C936.816 285.552 936.047 286.107 935.449 286.534L934.765 276.536V276.451ZM959.206 299.78H958.095C952.754 299.78 948.609 300.464 945.661 301.831C942.67 303.198 941.217 305.762 941.217 309.479C941.217 311.829 941.944 313.709 943.354 315.162C944.806 316.615 946.686 317.341 949.122 317.341C952.839 317.341 955.488 316.059 956.984 313.453C958.479 310.847 959.248 307.257 959.248 302.643V299.737L959.206 299.78Z" fill="#012169"/>
<path d="M986.722 262.863L999.114 259.061V273.46H1009.41V282.561H999.114V309.266C999.114 312.043 999.584 313.966 1000.57 314.906C1001.55 315.889 1002.92 316.359 1004.71 316.359C1005.86 316.359 1006.8 316.231 1007.57 316.017C1008.34 315.803 1008.94 315.547 1009.41 315.248V324.05C1008.47 324.52 1007.32 324.904 1005.95 325.246C1004.58 325.588 1002.96 325.759 1001.08 325.759C996.465 325.759 992.918 324.605 990.44 322.298C987.919 319.991 986.68 316.145 986.68 310.761V282.561H978.476V273.46H986.68V262.863H986.722Z" fill="#012169"/>
<path d="M1020.52 251.54H1033.34V263.76H1020.52V251.54ZM1020.73 273.46H1033.13V324.99H1020.73V273.46Z" fill="#012169"/>
<path d="M1042.78 299.182C1042.78 293.926 1043.46 289.568 1044.83 286.192C1046.2 282.774 1047.99 280.082 1050.17 278.074C1052.39 276.066 1054.83 274.656 1057.52 273.887C1060.21 273.075 1062.86 272.69 1065.47 272.69C1068.08 272.69 1070.72 273.075 1073.42 273.887C1076.11 274.699 1078.54 276.109 1080.72 278.074C1082.9 280.082 1084.65 282.774 1086.02 286.192C1087.39 289.611 1088.07 293.926 1088.07 299.182C1088.07 304.437 1087.39 309.009 1086.02 312.428C1084.65 315.846 1082.9 318.58 1080.72 320.589C1078.54 322.597 1076.11 323.964 1073.42 324.69C1070.72 325.417 1068.08 325.801 1065.47 325.801C1062.86 325.801 1060.21 325.417 1057.52 324.69C1054.83 323.964 1052.35 322.597 1050.17 320.589C1047.95 318.58 1046.2 315.888 1044.83 312.428C1043.46 309.009 1042.78 304.566 1042.78 299.182ZM1055.56 299.182C1055.56 301.318 1055.68 303.455 1055.94 305.591C1056.2 307.727 1056.71 309.65 1057.48 311.359C1058.25 313.068 1059.27 314.436 1060.51 315.461C1061.79 316.487 1063.42 316.999 1065.43 316.999C1067.43 316.999 1069.06 316.487 1070.34 315.461C1071.62 314.436 1072.6 313.068 1073.33 311.359C1074.06 309.65 1074.57 307.727 1074.83 305.591C1075.08 303.455 1075.21 301.318 1075.21 299.182C1075.21 297.045 1075.08 294.909 1074.83 292.773C1074.57 290.636 1074.06 288.756 1073.33 287.047C1072.6 285.381 1071.58 284.056 1070.34 282.988C1069.06 281.962 1067.43 281.45 1065.43 281.45C1063.42 281.45 1061.79 281.962 1060.51 282.988C1059.23 284.013 1058.25 285.381 1057.48 287.047C1056.71 288.713 1056.2 290.636 1055.94 292.773C1055.68 294.909 1055.56 297.045 1055.56 299.182Z" fill="#012169"/>
<path d="M1096.79 281.962C1096.79 280.381 1096.79 278.843 1096.7 277.348C1096.62 275.895 1096.53 274.57 1096.4 273.46H1108.03C1108.11 274.784 1108.2 276.109 1108.28 277.391C1108.37 278.672 1108.41 279.997 1108.41 281.322H1108.62C1109.09 280.51 1109.69 279.612 1110.38 278.63C1111.06 277.647 1111.96 276.664 1113.03 275.767C1114.09 274.87 1115.38 274.1 1116.87 273.502C1118.37 272.904 1120.2 272.605 1122.34 272.605C1125.29 272.605 1127.72 273.118 1129.65 274.1C1131.57 275.083 1133.15 276.493 1134.3 278.245C1135.46 280.04 1136.31 282.048 1136.82 284.355C1137.34 286.663 1137.55 289.098 1137.55 291.704V324.904H1125.16V294.012C1125.16 289.995 1124.6 287.133 1123.49 285.423C1122.38 283.672 1120.59 282.817 1118.02 282.817C1116.4 282.817 1115.03 283.116 1113.92 283.757C1112.77 284.398 1111.87 285.252 1111.19 286.363C1110.5 287.474 1109.99 288.756 1109.69 290.209C1109.39 291.662 1109.27 293.243 1109.27 294.909V324.904H1096.87V281.877L1096.79 281.962Z" fill="#012169"/>
</svg>
