<?xml version="1.0" encoding="UTF-8"?>
<svg id="Layer_1" xmlns="http://www.w3.org/2000/svg" xmlns:xlink="http://www.w3.org/1999/xlink" version="1.1" viewBox="0 0 613 172">
  <!-- Generator: Adobe Illustrator 29.3.1, SVG Export Plug-In . SVG Version: 2.1.0 Build 151)  -->
  <defs>
    <style>
      .st0 {
        fill: none;
      }

      .st1 {
        fill: #900;
      }

      .st2 {
        clip-path: url(#clippath);
      }
    </style>
    <clipPath id="clippath">
      <rect class="st0" width="613" height="171.3"/>
    </clipPath>
  </defs>
  <g class="st2">
    <g>
      <path class="st1" d="M0,0v163.7h115.2V0H0ZM95.4,39.7h-5.6v46.3l-9.1,9.1h-15.5v10.7h5.6v9.3h-26.2v-9.3h5.6v-10.7h-15.5l-9.1-9.1v-46.3h-5.6v-7.2h24.6v7.2h-5v39.9h10.5V27h-5.6v-7.2h26.2v7.2h-5.6v52.7h10.5v-39.9h-5v-7.2h24.6v7.2Z"/>
      <path d="M145,20h9.8v20.9c.2-.4.5-.9.8-1.4.3-.6.7-1.2,1.1-1.8.4-.6.8-1.3,1.1-1.9.4-.6.8-1.2,1.1-1.7l8.9-14h10.5l-12.9,18.9,14.4,29.1h-10.6l-10.1-20.7-4.3,6v14.7h-9.8V20Z"/>
      <path d="M184.3,20h27.5v8.3h-17.6v10.8h12.7v7.8h-12.7v12.9h18.6v8.1h-28.4V20Z"/>
      <path d="M218.5,20h9.8v39.9h18.1v8.1h-27.9V20Z"/>
      <path d="M251.7,20h9.8v39.9h18v8.1h-27.9V20Z"/>
      <path d="M284.9,20h27.5v8.3h-17.6v10.8h12.7v7.8h-12.7v12.9h18.6v8.1h-28.4V20Z"/>
      <path d="M328.7,49.2l-13.5-29.2h10.1l8.5,20.2h.1l8.5-20.2h9.6l-13.6,29.1v18.9h-9.8v-18.8Z"/>
      <path d="M152.5,116.3c-1.2,0-2.2-.2-3.2-.5-1-.3-1.8-.8-2.6-1.3-.8-.6-1.4-1.3-2-2.1s-1.1-1.7-1.5-2.7l2.7-1.2c.3.7.7,1.4,1.1,2s.9,1.2,1.5,1.6c.5.4,1.1.8,1.8,1,.7.3,1.4.4,2.2.4s1.5,0,2.2-.3c.6-.2,1.2-.5,1.6-.9.4-.4.8-.9,1-1.4.2-.6.4-1.2.4-1.9s-.2-1.5-.5-2.1c-.3-.6-.8-1.1-1.3-1.6-.5-.5-1.1-.9-1.8-1.3-.7-.4-1.4-.7-2.2-1.1-.6-.3-1.2-.6-1.8-.9-.6-.3-1.2-.6-1.8-1-.6-.3-1.1-.7-1.6-1.2-.5-.4-.9-.9-1.3-1.5-.4-.5-.6-1.1-.8-1.8-.2-.7-.3-1.4-.3-2.3s.2-2,.6-2.8c.4-.8.9-1.6,1.6-2.2.7-.6,1.5-1.1,2.4-1.4.9-.3,1.9-.5,3-.5s2.1.2,3,.5c.9.3,1.7.7,2.3,1.3.7.5,1.3,1.2,1.8,1.9.5.7.9,1.5,1.3,2.3l-2.7,1.3c-.3-.6-.6-1.1-.9-1.7-.3-.5-.7-1-1.2-1.4-.5-.4-1-.7-1.6-1-.6-.2-1.3-.4-2-.4s-1.3.1-1.8.3c-.6.2-1,.5-1.4.8-.4.4-.7.8-.9,1.3-.2.5-.3,1-.3,1.6s.1,1.5.5,2.1c.3.6.7,1.1,1.3,1.6.5.5,1.1.9,1.8,1.3.7.4,1.4.7,2.1,1.1.6.3,1.2.6,1.8.9.6.3,1.2.6,1.8,1,.6.4,1.1.8,1.6,1.2.5.4.9.9,1.3,1.5.4.6.6,1.2.9,1.8.2.7.3,1.4.3,2.3s-.2,2-.6,2.9c-.4.9-.9,1.7-1.7,2.3-.7.7-1.6,1.2-2.6,1.6-1,.4-2.2.6-3.5.6Z"/>
      <path d="M174.3,116.4c-1.5,0-2.9-.3-4.1-.9-1.2-.6-2.3-1.5-3.1-2.7-.9-1.2-1.5-2.7-2-4.6-.5-1.8-.7-3.9-.7-6.3s.2-4.4.7-6.2c.5-1.8,1.1-3.3,2-4.5.9-1.2,1.9-2.1,3.2-2.8,1.2-.6,2.6-.9,4.1-.9s2.4.2,3.4.7c1,.4,1.8,1.1,2.5,1.8.7.8,1.3,1.7,1.7,2.8.4,1.1.8,2.3,1,3.6l-2.9.5c-.2-1.1-.5-2-.8-2.8-.3-.8-.7-1.5-1.2-2-.5-.5-1-.9-1.6-1.2-.6-.3-1.4-.4-2.2-.4s-2,.3-2.9.8c-.8.5-1.5,1.3-2.1,2.2-.6,1-1,2.2-1.3,3.6-.3,1.4-.4,3-.4,4.8s.1,3.6.4,5c.3,1.5.7,2.7,1.3,3.7.6,1,1.3,1.8,2.1,2.3.8.5,1.8.8,2.9.8s1.5-.1,2.2-.4c.6-.3,1.2-.7,1.7-1.2s.9-1.3,1.3-2.1c.3-.8.6-1.9.9-3l2.9.5c-.3,1.3-.7,2.6-1.1,3.7-.5,1.1-1.1,2.1-1.8,2.9-.7.8-1.6,1.5-2.6,1.9-1,.4-2.1.7-3.4.7Z"/>
      <path d="M187.7,87.9h3.2v11.7h11.3v-11.7h3.2v27.9h-3.2v-13.3h-11.3v13.3h-3.2v-27.9Z"/>
      <path d="M220.1,116.4c-1.5,0-2.8-.3-4.1-.9s-2.3-1.5-3.2-2.8c-.9-1.2-1.6-2.7-2.1-4.6-.5-1.8-.8-3.9-.8-6.2s.2-4.4.8-6.2c.5-1.8,1.2-3.3,2.1-4.5.9-1.2,2-2.2,3.2-2.8s2.6-.9,4.1-.9,2.8.3,4,.9,2.3,1.6,3.2,2.8c.9,1.2,1.6,2.7,2.1,4.5.5,1.8.8,3.9.8,6.2s-.3,4.4-.8,6.2c-.5,1.8-1.2,3.3-2.1,4.6-.9,1.2-2,2.2-3.2,2.8s-2.6.9-4,.9ZM220.1,113.5c1.1,0,2-.3,2.9-.8.8-.5,1.6-1.3,2.2-2.2.6-1,1.1-2.2,1.4-3.6.3-1.4.5-3.1.5-5s-.2-3.5-.5-4.9c-.3-1.4-.8-2.6-1.4-3.6-.6-1-1.3-1.7-2.2-2.2-.8-.5-1.8-.8-2.9-.8s-2,.3-2.9.8c-.9.5-1.6,1.3-2.2,2.2-.6,1-1.1,2.2-1.4,3.6-.3,1.4-.5,3.1-.5,4.9s.1,3.5.5,5c.3,1.4.8,2.7,1.4,3.6.6,1,1.3,1.7,2.2,2.2.8.5,1.8.8,2.9.8Z"/>
      <path d="M243.7,116.4c-1.5,0-2.8-.3-4.1-.9s-2.3-1.5-3.2-2.8c-.9-1.2-1.6-2.7-2.1-4.6-.5-1.8-.8-3.9-.8-6.2s.2-4.4.8-6.2c.5-1.8,1.2-3.3,2.1-4.5.9-1.2,2-2.2,3.2-2.8s2.6-.9,4.1-.9,2.8.3,4,.9,2.3,1.6,3.2,2.8c.9,1.2,1.6,2.7,2.1,4.5.5,1.8.8,3.9.8,6.2s-.3,4.4-.8,6.2c-.5,1.8-1.2,3.3-2.1,4.6-.9,1.2-2,2.2-3.2,2.8s-2.6.9-4,.9ZM243.7,113.5c1.1,0,2-.3,2.9-.8.8-.5,1.6-1.3,2.2-2.2.6-1,1.1-2.2,1.4-3.6.3-1.4.5-3.1.5-5s-.2-3.5-.5-4.9c-.3-1.4-.8-2.6-1.4-3.6-.6-1-1.3-1.7-2.2-2.2-.8-.5-1.8-.8-2.9-.8s-2,.3-2.9.8c-.9.5-1.6,1.3-2.2,2.2-.6,1-1.1,2.2-1.4,3.6-.3,1.4-.5,3.1-.5,4.9s.1,3.5.5,5c.3,1.4.8,2.7,1.4,3.6.6,1,1.3,1.7,2.2,2.2.8.5,1.8.8,2.9.8Z"/>
      <path d="M258.4,87.9h3.2v25.1h11.1v2.9h-14.2v-27.9Z"/>
      <path d="M293.2,116.4c-1.5,0-2.8-.3-4.1-.9-1.2-.6-2.3-1.5-3.2-2.8-.9-1.2-1.6-2.7-2.1-4.6-.5-1.8-.8-3.9-.8-6.2s.2-4.4.8-6.2c.5-1.8,1.2-3.3,2.1-4.5.9-1.2,2-2.2,3.2-2.8,1.2-.6,2.6-.9,4.1-.9s2.8.3,4,.9c1.2.6,2.3,1.6,3.2,2.8.9,1.2,1.6,2.7,2.1,4.5.5,1.8.8,3.9.8,6.2s-.3,4.4-.8,6.2c-.5,1.8-1.2,3.3-2.1,4.6-.9,1.2-2,2.2-3.2,2.8-1.2.6-2.6.9-4,.9ZM293.2,113.5c1.1,0,2-.3,2.9-.8.8-.5,1.6-1.3,2.2-2.2.6-1,1.1-2.2,1.4-3.6.3-1.4.5-3.1.5-5s-.2-3.5-.5-4.9c-.3-1.4-.8-2.6-1.4-3.6-.6-1-1.3-1.7-2.2-2.2-.8-.5-1.8-.8-2.9-.8s-2,.3-2.9.8c-.9.5-1.6,1.3-2.2,2.2-.6,1-1.1,2.2-1.4,3.6-.3,1.4-.5,3.1-.5,4.9s.1,3.5.5,5c.3,1.4.8,2.7,1.4,3.6.6,1,1.3,1.7,2.2,2.2.8.5,1.8.8,2.9.8Z"/>
      <path d="M307.9,87.9h14.1v2.9h-10.9v9h8v2.9h-8v13.1h-3.2v-27.9Z"/>
      <path d="M333.4,87.9h8.1c1.3,0,2.5.1,3.6.4,1,.3,1.9.7,2.6,1.3.7.6,1.3,1.3,1.6,2.2.4.9.6,1.9.6,3.1s-.1,1.8-.4,2.6c-.3.7-.6,1.3-1,1.9-.4.5-.9.9-1.4,1.3-.5.3-1.1.6-1.6.7h0c.7.2,1.4.5,2,.8.6.3,1.2.8,1.6,1.3.5.6.8,1.2,1.1,2,.3.8.4,1.7.4,2.8s-.2,2.3-.6,3.3c-.4,1-1,1.8-1.7,2.4-.7.6-1.6,1.1-2.7,1.5-1.1.3-2.2.5-3.5.5h-8.8v-27.9ZM341.4,100.2c.9,0,1.7,0,2.4-.3.7-.2,1.3-.5,1.7-.8.5-.4.8-.9,1.1-1.5.2-.6.4-1.3.4-2.2s-.1-1.5-.3-2.1c-.2-.6-.5-1.1-1-1.5-.4-.4-1-.6-1.7-.8-.7-.2-1.5-.3-2.5-.3h-4.9v9.4h4.8ZM342.2,113.1c1.9,0,3.3-.4,4.2-1.3.9-.9,1.3-2.1,1.3-3.8s-.1-1.8-.4-2.4c-.3-.6-.7-1.2-1.2-1.6-.5-.4-1.2-.7-1.9-.9-.8-.2-1.6-.3-2.6-.3h-5v10.3h5.6Z"/>
      <path d="M363.8,116.4c-1.5,0-2.9-.2-4-.7-1.1-.5-2-1.1-2.7-2-.7-.8-1.2-1.9-1.5-3-.3-1.2-.5-2.5-.5-4v-18.8h3.2v18.4c0,1.2,0,2.2.3,3.1.2.9.5,1.7,1,2.3.4.6,1,1.1,1.7,1.4.7.3,1.6.5,2.6.5s1.9-.1,2.6-.5c.7-.3,1.3-.8,1.7-1.4.4-.6.8-1.4,1-2.3.2-.9.3-1.9.3-3.1v-18.4h3v18.7c0,1.4-.2,2.7-.5,3.9-.3,1.2-.8,2.2-1.5,3.1-.7.9-1.6,1.5-2.7,2-1.1.5-2.4.7-3.9.7Z"/>
      <path d="M385.7,116.3c-1.2,0-2.2-.2-3.2-.5-1-.3-1.8-.8-2.6-1.3-.8-.6-1.4-1.3-2-2.1-.6-.8-1.1-1.7-1.5-2.7l2.7-1.2c.3.7.7,1.4,1.1,2s.9,1.2,1.5,1.6c.5.4,1.1.8,1.8,1,.7.3,1.4.4,2.2.4s1.5,0,2.2-.3c.6-.2,1.2-.5,1.6-.9.4-.4.8-.9,1-1.4.2-.6.4-1.2.4-1.9s-.2-1.5-.5-2.1c-.3-.6-.8-1.1-1.3-1.6-.5-.5-1.1-.9-1.8-1.3-.7-.4-1.4-.7-2.2-1.1-.6-.3-1.2-.6-1.8-.9-.6-.3-1.2-.6-1.8-1-.6-.3-1.1-.7-1.6-1.2-.5-.4-.9-.9-1.3-1.5-.4-.5-.6-1.1-.8-1.8-.2-.7-.3-1.4-.3-2.3s.2-2,.6-2.8c.4-.8.9-1.6,1.6-2.2.7-.6,1.5-1.1,2.4-1.4.9-.3,1.9-.5,3-.5s2.1.2,3,.5c.9.3,1.7.7,2.3,1.3.7.5,1.3,1.2,1.8,1.9.5.7.9,1.5,1.3,2.3l-2.7,1.3c-.3-.6-.6-1.1-.9-1.7-.3-.5-.7-1-1.2-1.4-.5-.4-1-.7-1.6-1-.6-.2-1.3-.4-2-.4s-1.3.1-1.8.3c-.6.2-1,.5-1.4.8-.4.4-.7.8-.9,1.3-.2.5-.3,1-.3,1.6s.1,1.5.5,2.1c.3.6.7,1.1,1.3,1.6.5.5,1.1.9,1.8,1.3.7.4,1.4.7,2.1,1.1.6.3,1.2.6,1.8.9.6.3,1.2.6,1.8,1,.6.4,1.1.8,1.6,1.2.5.4.9.9,1.3,1.5.4.6.6,1.2.9,1.8.2.7.3,1.4.3,2.3s-.2,2-.6,2.9c-.4.9-.9,1.7-1.7,2.3-.7.7-1.6,1.2-2.6,1.6-1,.4-2.2.6-3.5.6Z"/>
      <path d="M398.9,87.9h3.2v27.9h-3.2v-27.9Z"/>
      <path d="M408.1,87.9h3.7l8.8,17.1c.2.5.5.9.7,1.3.2.4.4.8.6,1.2.2.4.4.8.6,1.2.2.4.4.8.6,1.3h0v-22.1h2.9v27.9h-2.9l-9.4-18c-.3-.5-.5-1-.7-1.4-.2-.4-.4-.8-.6-1.2-.2-.4-.4-.8-.6-1.3-.2-.4-.5-.9-.7-1.5h0v23.3h-2.9v-27.9Z"/>
      <path d="M431.7,87.9h14.3v2.9h-11.1v8.8h8.1v2.9h-8.1v10.5h11.7v2.9h-14.9v-27.9Z"/>
      <path d="M458.6,116.3c-1.2,0-2.2-.2-3.2-.5-1-.3-1.8-.8-2.6-1.3-.8-.6-1.4-1.3-2-2.1-.6-.8-1.1-1.7-1.5-2.7l2.7-1.2c.3.7.7,1.4,1.1,2,.4.6.9,1.2,1.5,1.6.5.4,1.1.8,1.8,1,.7.3,1.4.4,2.2.4s1.5,0,2.2-.3c.6-.2,1.2-.5,1.6-.9.4-.4.8-.9,1-1.4.2-.6.4-1.2.4-1.9s-.2-1.5-.5-2.1c-.3-.6-.8-1.1-1.3-1.6-.5-.5-1.1-.9-1.8-1.3-.7-.4-1.4-.7-2.2-1.1-.6-.3-1.2-.6-1.8-.9-.6-.3-1.2-.6-1.8-1-.6-.3-1.1-.7-1.6-1.2-.5-.4-.9-.9-1.3-1.5-.4-.5-.6-1.1-.8-1.8-.2-.7-.3-1.4-.3-2.3s.2-2,.6-2.8c.4-.8.9-1.6,1.6-2.2.7-.6,1.5-1.1,2.4-1.4.9-.3,1.9-.5,3-.5s2.1.2,3,.5c.9.3,1.7.7,2.3,1.3.7.5,1.3,1.2,1.8,1.9.5.7.9,1.5,1.3,2.3l-2.7,1.3c-.3-.6-.6-1.1-.9-1.7-.3-.5-.7-1-1.2-1.4-.5-.4-1-.7-1.6-1-.6-.2-1.3-.4-2-.4s-1.3.1-1.8.3c-.6.2-1,.5-1.4.8-.4.4-.7.8-.9,1.3-.2.5-.3,1-.3,1.6s.1,1.5.5,2.1c.3.6.7,1.1,1.3,1.6.5.5,1.1.9,1.8,1.3.7.4,1.4.7,2.1,1.1.6.3,1.2.6,1.8.9.6.3,1.2.6,1.8,1,.6.4,1.1.8,1.6,1.2.5.4.9.9,1.3,1.5.4.6.6,1.2.9,1.8.2.7.3,1.4.3,2.3s-.2,2-.6,2.9c-.4.9-.9,1.7-1.7,2.3-.7.7-1.6,1.2-2.6,1.6-1,.4-2.2.6-3.5.6Z"/>
      <path d="M479.2,116.3c-1.2,0-2.2-.2-3.2-.5-1-.3-1.8-.8-2.6-1.3-.8-.6-1.4-1.3-2-2.1-.6-.8-1.1-1.7-1.5-2.7l2.7-1.2c.3.7.7,1.4,1.1,2s.9,1.2,1.5,1.6c.5.4,1.1.8,1.8,1,.7.3,1.4.4,2.2.4s1.5,0,2.2-.3c.6-.2,1.2-.5,1.6-.9.4-.4.8-.9,1-1.4.2-.6.4-1.2.4-1.9s-.2-1.5-.5-2.1c-.3-.6-.8-1.1-1.3-1.6-.5-.5-1.1-.9-1.8-1.3-.7-.4-1.4-.7-2.2-1.1-.6-.3-1.2-.6-1.8-.9-.6-.3-1.2-.6-1.8-1-.6-.3-1.1-.7-1.6-1.2-.5-.4-.9-.9-1.3-1.5-.4-.5-.6-1.1-.8-1.8-.2-.7-.3-1.4-.3-2.3s.2-2,.6-2.8c.4-.8.9-1.6,1.6-2.2.7-.6,1.5-1.1,2.4-1.4.9-.3,1.9-.5,3-.5s2.1.2,3,.5c.9.3,1.7.7,2.3,1.3.7.5,1.3,1.2,1.8,1.9.5.7.9,1.5,1.3,2.3l-2.7,1.3c-.3-.6-.6-1.1-.9-1.7-.3-.5-.7-1-1.2-1.4-.5-.4-1-.7-1.6-1-.6-.2-1.3-.4-2-.4s-1.3.1-1.8.3c-.6.2-1,.5-1.4.8-.4.4-.7.8-.9,1.3-.2.5-.3,1-.3,1.6s.1,1.5.5,2.1c.3.6.7,1.1,1.3,1.6.5.5,1.1.9,1.8,1.3.7.4,1.4.7,2.1,1.1.6.3,1.2.6,1.8.9.6.3,1.2.6,1.8,1,.6.4,1.1.8,1.6,1.2.5.4.9.9,1.3,1.5.4.6.6,1.2.9,1.8.2.7.3,1.4.3,2.3s-.2,2-.6,2.9c-.4.9-.9,1.7-1.7,2.3-.7.7-1.6,1.2-2.6,1.6-1,.4-2.2.6-3.5.6Z"/>
      <path d="M145,135.8h14.3v2.9h-11.1v8.8h8.1v2.9h-8.1v10.5h11.7v2.9h-14.9v-27.9Z"/>
      <path d="M168,153.3l-5.4-9.5h3.2l4,7.2,3.8-7.2h2.9l-5.4,9.4,6,10.5h-3.2l-4.5-8.2-4.5,8.2h-2.9l6-10.4Z"/>
      <path d="M187,164.1c-1.1,0-2.1-.2-3-.6-.9-.4-1.8-1.1-2.4-1.9-.7-.9-1.2-2-1.6-3.3-.4-1.3-.6-2.8-.6-4.6s.2-3.3.6-4.6c.4-1.3,1-2.4,1.7-3.2.7-.8,1.5-1.5,2.5-1.9.9-.4,1.9-.6,2.9-.6s2.1.2,3,.7c.9.4,1.6,1.1,2.2,2,.6.9,1.1,1.9,1.4,3.2.3,1.3.5,2.8.5,4.4v.8h-11.8c0,2.4.5,4.1,1.3,5.4.8,1.2,2,1.8,3.4,1.8s1.1,0,1.6-.2c.4-.1.9-.4,1.2-.7.4-.3.7-.6,1-1.1.3-.4.6-.9.9-1.5l2.1,1.3c-.4.7-.8,1.4-1.2,2-.5.6-1,1.1-1.6,1.5-.6.4-1.2.7-1.9.9-.7.2-1.5.3-2.2.3ZM191.2,152.1c0-.9-.2-1.7-.4-2.5-.2-.8-.5-1.4-.8-1.9-.4-.5-.8-1-1.3-1.3-.5-.3-1.1-.5-1.8-.5s-1.1.1-1.6.4c-.5.2-1,.6-1.4,1.1-.4.5-.8,1.1-1,1.9-.3.8-.5,1.7-.6,2.7h8.8Z"/>
      <path d="M204.7,164.1c-1.1,0-2-.2-3-.7-.9-.4-1.7-1.1-2.4-2-.7-.9-1.2-2-1.6-3.2-.4-1.3-.6-2.8-.6-4.5s.2-3.3.6-4.6c.4-1.3,1-2.4,1.7-3.2.7-.8,1.5-1.5,2.5-1.9.9-.4,1.9-.6,3-.6s1.9.2,2.6.5c.7.3,1.4.8,1.9,1.3.5.6,1,1.2,1.3,1.9.3.7.6,1.5.9,2.3l-2.8.8c-.2-.6-.4-1.2-.6-1.7-.2-.5-.5-.9-.8-1.3-.3-.4-.7-.6-1.1-.8-.4-.2-.9-.3-1.4-.3s-1.3.1-1.8.4c-.6.3-1.1.8-1.5,1.4-.4.6-.8,1.4-1,2.4-.3,1-.4,2.1-.4,3.5s0,2.3.3,3.3c.2,1,.5,1.8.9,2.5.4.7.9,1.2,1.5,1.6.6.4,1.2.5,2,.5,1.1,0,1.9-.3,2.6-1,.7-.7,1.2-1.7,1.6-3.1l2.7.7c-.6,1.9-1.4,3.3-2.5,4.4-1.1,1.1-2.6,1.6-4.4,1.6Z"/>
      <path d="M220,164.1c-1.6,0-2.8-.5-3.7-1.4-.8-.9-1.2-2.3-1.2-4.2v-14.8h3v14.2c0,1.2.2,2,.7,2.6.4.6,1.2.8,2.3.8s1.8-.3,2.7-.8c.9-.5,1.7-1.2,2.5-2.1v-14.8h3.1v19.9h-3.1v-2.8c-.4.4-.8.8-1.3,1.2-.5.4-1,.7-1.5,1-.5.3-1.1.5-1.7.7s-1.2.3-1.9.3Z"/>
      <path d="M240.4,163.9c-.9,0-1.7,0-2.3-.2-.6-.2-1.1-.4-1.5-.8-.4-.4-.7-.9-.9-1.5-.2-.6-.3-1.3-.3-2.2v-12.9h-2.9v-2.5h2.9v-7.1h3v7.1h4.4v2.5h-4.4v12.2c0,.5,0,1,.1,1.3,0,.4.2.7.4.9.2.2.5.4.8.5.3.1.8.2,1.3.2s.6,0,.9,0c.3,0,.6-.1.8-.2v2.5c-.1,0-.3,0-.4,0-.2,0-.4,0-.6,0-.2,0-.4,0-.7,0-.2,0-.4,0-.7,0Z"/>
      <path d="M246.6,136.5h3.1v3.3h-3.1v-3.3ZM246.6,143.8h3.1v19.9h-3.1v-19.9Z"/>
      <path d="M253,143.8h3.1l3.2,11.3c.1.4.2.8.3,1.3.1.4.2.8.3,1.2.1.4.2.9.4,1.3.1.5.3,1,.4,1.5h0c.1-.6.2-1.1.4-1.5.1-.5.2-.9.4-1.3.1-.4.2-.8.3-1.2.1-.4.2-.8.4-1.3l3.2-11.3h2.9l-6,20h-3.2l-6-20Z"/>
      <path d="M278.1,164.1c-1.1,0-2.1-.2-3-.6-.9-.4-1.8-1.1-2.4-1.9-.7-.9-1.2-2-1.6-3.3-.4-1.3-.6-2.8-.6-4.6s.2-3.3.6-4.6c.4-1.3,1-2.4,1.7-3.2.7-.8,1.5-1.5,2.5-1.9.9-.4,1.9-.6,2.9-.6s2.1.2,3,.7c.9.4,1.6,1.1,2.2,2,.6.9,1.1,1.9,1.4,3.2.3,1.3.5,2.8.5,4.4v.8h-11.8c0,2.4.5,4.1,1.3,5.4.8,1.2,2,1.8,3.4,1.8s1.1,0,1.6-.2c.4-.1.9-.4,1.2-.7.4-.3.7-.6,1-1.1.3-.4.6-.9.9-1.5l2.1,1.3c-.4.7-.8,1.4-1.2,2-.5.6-1,1.1-1.6,1.5s-1.2.7-1.9.9c-.7.2-1.5.3-2.2.3ZM282.4,152.1c0-.9-.2-1.7-.4-2.5-.2-.8-.5-1.4-.8-1.9-.4-.5-.8-1-1.3-1.3-.5-.3-1.1-.5-1.8-.5s-1.1.1-1.6.4c-.5.2-1,.6-1.4,1.1-.4.5-.8,1.1-1,1.9-.3.8-.5,1.7-.6,2.7h8.8Z"/>
      <path d="M297.1,135.8h14.3v2.9h-11.1v8.8h8.1v2.9h-8.1v10.5h11.7v2.9h-14.9v-27.9Z"/>
      <path d="M321.7,164c-1,0-1.9-.2-2.7-.6-.8-.4-1.5-1-2.1-1.8-.6-.8-1.1-1.9-1.4-3.2-.3-1.3-.5-2.8-.5-4.6s.2-3.4.5-4.7c.4-1.3.8-2.4,1.5-3.2.6-.8,1.3-1.5,2.2-1.9.8-.4,1.8-.6,2.7-.6s2.2.3,3,.8c.9.5,1.7,1.2,2.3,2v-10.4h3v23c0,1.2,0,2.2.1,3,0,.8.2,1.4.4,1.9h-3.1c0-.1-.1-.3-.2-.6,0-.2,0-.5-.1-.7,0-.2,0-.5,0-.7,0-.2,0-.4,0-.6-.3.4-.7.8-1.1,1.1-.4.4-.8.7-1.3.9-.4.3-.9.5-1.5.6-.5.1-1.1.2-1.7.2ZM322.5,161.5c.4,0,.9,0,1.3-.2.4-.1.8-.3,1.2-.6.4-.2.8-.5,1.1-.9.4-.3.7-.7,1-1v-10c-.7-.8-1.5-1.5-2.2-2-.8-.5-1.6-.8-2.5-.8s-1.3.2-1.8.5-1,.8-1.4,1.4c-.4.6-.7,1.4-.9,2.4-.2,1-.3,2.2-.3,3.5s.1,2.5.3,3.4c.2,1,.5,1.8.9,2.4.4.6.9,1.1,1.4,1.4.6.3,1.2.4,1.8.4Z"/>
      <path d="M339.8,164.1c-1.6,0-2.8-.5-3.7-1.4-.8-.9-1.2-2.3-1.2-4.2v-14.8h3v14.2c0,1.2.2,2,.7,2.6.4.6,1.2.8,2.3.8s1.8-.3,2.7-.8c.9-.5,1.7-1.2,2.5-2.1v-14.8h3.1v19.9h-3.1v-2.8c-.4.4-.8.8-1.3,1.2-.5.4-1,.7-1.5,1-.5.3-1.1.5-1.7.7-.6.2-1.2.3-1.9.3Z"/>
      <path d="M360.6,164.1c-1.1,0-2-.2-3-.7-.9-.4-1.7-1.1-2.4-2-.7-.9-1.2-2-1.6-3.2-.4-1.3-.6-2.8-.6-4.5s.2-3.3.6-4.6c.4-1.3,1-2.4,1.7-3.2.7-.8,1.5-1.5,2.5-1.9.9-.4,1.9-.6,3-.6s1.9.2,2.6.5c.7.3,1.4.8,1.9,1.3.5.6,1,1.2,1.3,1.9.3.7.6,1.5.9,2.3l-2.8.8c-.2-.6-.4-1.2-.6-1.7s-.5-.9-.8-1.3c-.3-.4-.7-.6-1.1-.8-.4-.2-.9-.3-1.4-.3s-1.3.1-1.8.4-1.1.8-1.5,1.4c-.4.6-.8,1.4-1,2.4-.3,1-.4,2.1-.4,3.5s0,2.3.3,3.3c.2,1,.5,1.8.9,2.5.4.7.9,1.2,1.5,1.6.6.4,1.2.5,2,.5,1.1,0,1.9-.3,2.6-1,.7-.7,1.2-1.7,1.6-3.1l2.7.7c-.6,1.9-1.4,3.3-2.5,4.4-1.1,1.1-2.6,1.6-4.4,1.6Z"/>
      <path d="M374.9,164c-1.5,0-2.7-.4-3.5-1.3-.8-.9-1.3-2.1-1.3-3.7s.2-1.9.6-2.8c.4-.8,1.1-1.6,2-2.3.9-.7,2.1-1.3,3.5-1.9,1.4-.6,3.1-1,5-1.4v-1.2c0-1.1-.3-2-.7-2.5-.5-.5-1.3-.8-2.2-.8s-1.2,0-1.7.2c-.6.1-1.1.3-1.5.6-.5.2-1,.5-1.4.8-.4.3-.8.7-1.2,1l-1.7-1.8c1-1,2.2-1.9,3.5-2.5,1.3-.6,2.8-1,4.4-1s3.4.5,4.3,1.6c.9,1,1.4,2.5,1.4,4.4v9.4c0,1.2,0,2.2,0,3,0,.8.2,1.4.4,1.9h-3.1c-.1-.4-.2-.8-.3-1.1s-.1-.8-.1-1.4c-.8.9-1.8,1.6-2.8,2.1-1.1.5-2.2.7-3.5.7ZM375.9,161.5c1,0,2-.2,2.9-.7.9-.5,1.7-1.1,2.4-1.9v-6.1c-1.5.3-2.8.7-3.9,1.1-1,.4-1.9.9-2.5,1.4-.6.5-1.1,1-1.3,1.6-.3.6-.4,1.1-.4,1.7,0,1,.2,1.8.7,2.2.5.5,1.2.7,2,.7Z"/>
      <path d="M395.2,163.9c-.9,0-1.7,0-2.3-.2-.6-.2-1.1-.4-1.5-.8-.4-.4-.7-.9-.9-1.5-.2-.6-.3-1.3-.3-2.2v-12.9h-2.9v-2.5h2.9v-7.1h3v7.1h4.4v2.5h-4.4v12.2c0,.5,0,1,.1,1.3,0,.4.2.7.4.9.2.2.5.4.8.5.3.1.8.2,1.3.2s.6,0,.9,0c.3,0,.6-.1.8-.2v2.5c-.1,0-.3,0-.4,0s-.4,0-.6,0c-.2,0-.4,0-.7,0-.2,0-.4,0-.7,0Z"/>
      <path d="M401.4,136.5h3.1v3.3h-3.1v-3.3ZM401.4,143.8h3.1v19.9h-3.1v-19.9Z"/>
      <path d="M416.5,164.1c-1.1,0-2.1-.2-3.1-.7-1-.4-1.8-1.1-2.5-2-.7-.9-1.3-2-1.7-3.2-.4-1.3-.6-2.8-.6-4.5s.2-3.2.6-4.5c.4-1.3,1-2.4,1.7-3.3.7-.9,1.5-1.5,2.5-2,1-.4,2-.7,3.1-.7s2.1.2,3.1.7c1,.4,1.8,1.1,2.5,2,.7.9,1.3,2,1.7,3.3.4,1.3.6,2.8.6,4.5s-.2,3.2-.6,4.5c-.4,1.3-1,2.4-1.7,3.2-.7.9-1.5,1.5-2.5,2-1,.4-2,.7-3.1.7ZM416.5,161.5c.8,0,1.5-.2,2.1-.6.6-.4,1.1-.9,1.5-1.6.4-.7.7-1.5.9-2.5.2-1,.3-2,.3-3.2s-.1-2.1-.3-3c-.2-.9-.5-1.8-.9-2.5-.4-.7-.9-1.3-1.5-1.7-.6-.4-1.3-.6-2.1-.6s-1.5.2-2.1.6c-.6.4-1.1.9-1.5,1.6-.4.7-.7,1.5-.9,2.5-.2,1-.3,2-.3,3.2s0,2.1.3,3.1c.2,1,.5,1.8.8,2.5.4.7.9,1.3,1.5,1.7.6.4,1.3.6,2.2.6Z"/>
      <path d="M428.3,143.8h3.1v2.7c.3-.4.7-.7,1.2-1.1.4-.4.9-.7,1.5-1,.5-.3,1.1-.6,1.7-.7.6-.2,1.2-.3,1.9-.3,1.6,0,2.8.5,3.6,1.4.8.9,1.3,2.3,1.3,4.1v14.8h-3v-14.2c0-1.2-.2-2.1-.6-2.6-.4-.6-1.2-.9-2.2-.9s-1,0-1.5.3c-.5.2-1,.4-1.4.6-.5.3-.9.6-1.3.9-.4.4-.8.7-1.1,1v14.8h-3.1v-19.9Z"/>
      <path d="M455.2,135.8h7.8c1.3,0,2.4.2,3.5.5,1.1.3,2,.8,2.7,1.4.8.6,1.3,1.5,1.8,2.5.4,1,.6,2.2.6,3.6s-.2,2.9-.7,3.9c-.5,1.1-1.1,1.9-1.9,2.6-.8.7-1.7,1.1-2.8,1.4-1.1.3-2.2.4-3.4.4h-4.5v11.7h-3.1v-27.9ZM462.9,149.3c.9,0,1.7,0,2.4-.3.7-.2,1.3-.5,1.8-.9.5-.4.8-1,1.1-1.7.2-.7.4-1.5.4-2.5s-.1-1.7-.4-2.4c-.2-.7-.6-1.2-1.1-1.6-.5-.4-1.1-.7-1.8-.9-.7-.2-1.5-.3-2.5-.3h-4.6v10.6h4.6Z"/>
      <path d="M475.6,143.8h3.1v3.4h0c.3-.5.6-1,1-1.4.4-.5.9-.9,1.4-1.2.5-.4,1.1-.6,1.8-.8.6-.2,1.4-.3,2.1-.3h.4l-.2,2.9c-.1,0-.2,0-.3,0h-.3c0,0-.1,0-.2,0-.7,0-1.3.1-1.9.3-.6.2-1.1.5-1.6.8-.5.4-.9.8-1.3,1.3-.4.5-.8,1.1-1.1,1.6v13.4h-3.1v-19.9Z"/>
      <path d="M495.6,164.1c-1.1,0-2.1-.2-3.1-.7-1-.4-1.8-1.1-2.5-2-.7-.9-1.3-2-1.7-3.2-.4-1.3-.6-2.8-.6-4.5s.2-3.2.6-4.5c.4-1.3,1-2.4,1.7-3.3.7-.9,1.5-1.5,2.5-2,1-.4,2-.7,3.1-.7s2.1.2,3.1.7c1,.4,1.8,1.1,2.5,2,.7.9,1.3,2,1.7,3.3.4,1.3.6,2.8.6,4.5s-.2,3.2-.6,4.5c-.4,1.3-1,2.4-1.7,3.2-.7.9-1.5,1.5-2.5,2-1,.4-2,.7-3.1.7ZM495.6,161.5c.8,0,1.5-.2,2.1-.6.6-.4,1.1-.9,1.5-1.6.4-.7.7-1.5.9-2.5.2-1,.3-2,.3-3.2s-.1-2.1-.3-3c-.2-.9-.5-1.8-.9-2.5-.4-.7-.9-1.3-1.5-1.7-.6-.4-1.3-.6-2.1-.6s-1.5.2-2.1.6c-.6.4-1.1.9-1.5,1.6-.4.7-.7,1.5-.9,2.5-.2,1-.3,2-.3,3.2s0,2.1.3,3.1c.2,1,.5,1.8.8,2.5.4.7.9,1.3,1.5,1.7.6.4,1.3.6,2.2.6Z"/>
      <path d="M518.6,145.4c.5-.4,1.2-.8,1.9-1.2.7-.3,1.4-.6,2.1-.7v2.9c-.5,0-.9,0-1.5.1s-1,.2-1.5.4c.3.5.5,1.1.7,1.7.1.6.2,1.3.2,2,0,1.1-.2,2.1-.5,3-.3.9-.8,1.6-1.4,2.2-.6.6-1.3,1.1-2.2,1.4-.8.3-1.8.5-2.7.5s-1.9-.1-2.7-.4c-.4.2-.6.4-.8.7-.2.3-.3.6-.3.9s0,.4,0,.5c0,.1.2.3.4.4.2.1.4.2.7.3.3,0,.7.1,1.2.2l3.1.4c1.2.1,2.3.4,3.1.6s1.6.6,2.1,1c.6.4.9.9,1.2,1.5.3.6.4,1.2.4,2s-.2,1.7-.7,2.4c-.4.7-1,1.3-1.8,1.8-.8.5-1.7.8-2.7,1.1-1.1.3-2.2.4-3.4.4s-2.6-.1-3.6-.3c-1-.2-1.8-.6-2.4-1-.6-.4-1.1-.9-1.4-1.5-.3-.6-.4-1.3-.4-2s.3-1.9.9-2.6c.6-.7,1.4-1.3,2.4-1.8-.5-.3-.9-.6-1.2-1-.3-.4-.4-.9-.4-1.5s.2-1.2.6-1.7c.4-.6.9-1,1.5-1.4-.8-.6-1.5-1.5-2-2.5-.5-1-.7-2.1-.7-3.4s.2-2,.5-2.9c.3-.9.8-1.6,1.4-2.3.6-.6,1.4-1.1,2.2-1.5s1.8-.5,2.8-.5,2,.2,2.8.5c.8.4,1.6.8,2.2,1.5ZM513.6,155.4c.6,0,1.2-.1,1.7-.3.5-.2.9-.6,1.3-1,.3-.4.6-.9.8-1.5.2-.6.3-1.3.3-2,0-1.5-.3-2.7-1-3.5-.7-.9-1.7-1.3-3-1.3s-1.2.1-1.7.3c-.5.2-.9.6-1.3,1-.4.4-.6.9-.8,1.5-.2.6-.3,1.3-.3,2s0,1.4.3,2c.2.6.4,1.1.8,1.5.4.4.8.8,1.3,1,.5.2,1.1.3,1.7.3ZM510.9,162.6c-.9.4-1.5.9-1.9,1.5-.4.6-.6,1.2-.6,1.9s0,1,.3,1.3c.2.4.5.7.9.9.4.3,1,.4,1.7.6.7.1,1.5.2,2.5.2s1.5,0,2.2-.2c.7-.1,1.3-.3,1.7-.6s.9-.6,1.1-1c.3-.4.4-.8.4-1.3s0-.8-.2-1.1c-.1-.3-.4-.6-.7-.8-.3-.2-.8-.4-1.4-.6-.6-.1-1.3-.3-2.2-.4l-3.2-.4c-.1,0-.2,0-.3,0s-.2,0-.3,0Z"/>
      <path d="M526,143.8h3.1v3.4h0c.3-.5.6-1,1-1.4.4-.5.9-.9,1.4-1.2.5-.4,1.1-.6,1.8-.8.6-.2,1.4-.3,2.1-.3h.4l-.2,2.9c-.1,0-.2,0-.3,0h-.3c0,0-.1,0-.2,0-.7,0-1.3.1-1.9.3-.6.2-1.1.5-1.6.8-.5.4-.9.8-1.3,1.3-.4.5-.8,1.1-1.1,1.6v13.4h-3.1v-19.9Z"/>
      <path d="M542.7,164c-1.5,0-2.7-.4-3.5-1.3-.8-.9-1.3-2.1-1.3-3.7s.2-1.9.6-2.8c.4-.8,1.1-1.6,2-2.3.9-.7,2.1-1.3,3.5-1.9,1.4-.6,3.1-1,5-1.4v-1.2c0-1.1-.3-2-.7-2.5-.5-.5-1.3-.8-2.2-.8s-1.2,0-1.7.2c-.6.1-1.1.3-1.5.6-.5.2-1,.5-1.4.8-.4.3-.8.7-1.2,1l-1.7-1.8c1-1,2.2-1.9,3.5-2.5,1.3-.6,2.8-1,4.4-1s3.4.5,4.3,1.6,1.4,2.5,1.4,4.4v9.4c0,1.2,0,2.2,0,3,0,.8.2,1.4.4,1.9h-3.1c-.1-.4-.2-.8-.3-1.1,0-.4-.1-.8-.1-1.4-.8.9-1.8,1.6-2.8,2.1-1.1.5-2.2.7-3.5.7ZM543.7,161.5c1,0,2-.2,2.9-.7.9-.5,1.7-1.1,2.4-1.9v-6.1c-1.5.3-2.8.7-3.9,1.1-1.1.4-1.9.9-2.5,1.4-.6.5-1.1,1-1.3,1.6-.3.6-.4,1.1-.4,1.7,0,1,.2,1.8.7,2.2.5.5,1.2.7,2,.7Z"/>
      <path d="M556.8,143.8h3.1v2.7c.4-.4.8-.8,1.2-1.1.4-.4.9-.7,1.5-1s1.1-.6,1.6-.7c.6-.2,1.2-.3,1.8-.3s1.3,0,1.8.2c.5.1,1,.4,1.3.6.4.3.7.6.9,1,.2.4.4.8.5,1.3.4-.4.8-.8,1.3-1.2.4-.4.9-.7,1.5-1,.5-.3,1.1-.5,1.7-.7.6-.2,1.2-.3,1.8-.3,1.6,0,2.8.5,3.6,1.4.8.9,1.2,2.3,1.2,4.1v14.8h-3v-14.2c0-1.2-.2-2.1-.6-2.6-.4-.6-1.1-.9-2.2-.9s-.9,0-1.4.2c-.4.1-.9.3-1.3.6-.4.3-.8.5-1.2.9-.4.3-.8.7-1.1,1v15h-3.1v-14.2c0-.6,0-1.1-.1-1.5,0-.4-.2-.8-.4-1.1s-.5-.5-.8-.6c-.3-.1-.8-.2-1.3-.2-.8,0-1.7.3-2.6.8-.8.5-1.7,1.2-2.5,2v14.8h-3.1v-19.9Z"/>
      <path d="M592,164.1c-1.7,0-3.2-.4-4.4-1.1-1.2-.7-2.2-1.7-3-3l2.1-1.5c.7,1,1.5,1.8,2.4,2.3.9.5,1.9.8,3,.8s2.2-.3,2.9-.8c.7-.5,1-1.2,1-2.2s-.1-1.1-.4-1.5c-.3-.4-.7-.8-1.2-1.1-.5-.3-1.1-.6-1.7-.8-.6-.2-1.3-.5-1.9-.7-.7-.2-1.3-.5-1.9-.8-.6-.3-1.2-.7-1.7-1.1-.5-.4-.9-1-1.2-1.6-.3-.6-.4-1.4-.4-2.3s.1-1.5.5-2.2c.3-.7.8-1.2,1.3-1.7.6-.5,1.2-.8,2-1.1.8-.3,1.6-.4,2.5-.4,1.5,0,2.8.3,3.9,1,1.1.6,2,1.5,2.7,2.6l-2,1.6c-.5-.8-1.2-1.4-1.9-1.9-.8-.5-1.6-.8-2.7-.8s-2,.3-2.5.8c-.6.5-.8,1.1-.8,1.9s.1,1.1.4,1.5c.3.4.7.8,1.2,1.1.5.3,1,.6,1.7.8.6.2,1.2.5,1.9.7.6.3,1.3.5,1.9.8.6.3,1.2.7,1.6,1.1.5.4.9,1,1.2,1.6.3.6.4,1.4.4,2.3s-.2,1.7-.5,2.4c-.4.7-.8,1.3-1.5,1.8-.6.5-1.3.8-2.2,1.1-.8.3-1.7.4-2.7.4Z"/>
    </g>
  </g>
</svg>