<svg width="475" height="140" viewBox="0 0 475 140" fill="none" xmlns="http://www.w3.org/2000/svg">
<g clip-path="url(#clip0_90_500)">
<path d="M464.557 2.72715V13.9746C464.557 13.9746 457.398 13.9746 457.398 22.1546V78.0513C457.398 109.749 438.312 137.015 398.093 137.015C358.555 137.015 336.742 112.134 336.742 78.0513V22.4955C336.742 14.3155 329.586 14.3155 329.586 14.3155V2.72715H357.874H376.28V14.3155C376.28 14.3155 369.464 14.3155 369.464 22.4955V76.3469C369.464 95.4336 379.346 107.022 398.093 107.022C417.522 107.022 424.677 95.0928 424.677 76.3469V22.4955C424.677 14.3155 417.522 13.9746 417.522 13.9746V2.72715H464.557ZM304.023 114.52V22.4955C304.023 14.3155 311.18 14.3155 311.18 14.3155V2.72715H276.075L228.699 48.0579L181.664 2.72715H146.558V14.3155C146.558 14.3155 153.716 14.3155 153.716 22.8363V115.202C153.716 123.723 146.558 123.723 146.558 123.723V135.652H193.252V123.723C193.252 123.723 186.095 123.723 186.095 115.202V54.193L228.699 95.0928L271.303 54.193V114.861C271.303 123.382 264.146 123.382 264.146 123.382V135.311H310.84V123.382C311.18 123.041 304.023 123.041 304.023 114.52ZM63.3949 0.000488281C57.6009 0.000488281 48.3982 0.341322 43.6266 1.02299C22.8358 3.40883 0 15.6788 0 41.5823C0 59.987 8.18 71.5754 28.2891 76.6877C51.1249 82.4821 71.2341 82.4821 82.1408 84.1861C93.0475 86.2313 95.4331 92.0253 94.7515 97.4788C94.4107 103.273 87.2532 106.681 81.4592 108.044C78.0508 108.726 68.1665 109.408 61.6909 109.408C56.2373 109.408 48.739 109.067 42.945 107.704C28.2891 104.295 22.8358 92.3661 22.8358 92.3661H2.045V134.97H13.6333C13.6333 134.97 14.9966 129.858 19.4275 129.858C20.1091 129.858 21.1317 129.858 21.8133 130.199C32.3791 134.629 49.0798 137.697 59.9865 138.038C62.0317 138.038 64.0765 138.038 66.1217 138.038C80.4364 138.038 96.1148 135.993 106.681 129.517C117.247 123.041 125.767 112.816 127.131 96.1152C128.494 78.0513 117.247 59.6462 91.0024 54.8746C68.5073 50.7846 55.8965 50.7846 47.3758 49.4214C38.855 48.0579 32.0383 44.6495 31.6975 39.5371C31.3566 34.7655 37.1506 31.3571 43.6266 29.6529C49.7617 27.9488 59.6457 27.2671 65.7809 27.2671C72.5973 27.2671 80.7776 28.2896 86.5716 29.6529C96.7967 32.3796 102.25 38.5147 102.591 38.8555C103.272 38.8555 121.337 38.8555 121.337 38.8555V2.72715H111.452C111.452 2.72715 110.43 5.45382 106.34 5.45382C105.658 5.45382 105.317 5.45382 104.636 5.45382C88.6167 1.36382 74.6424 0.000488281 63.3949 0.000488281ZM462.853 126.109V123.041H464.895C465.919 123.041 466.942 123.382 466.942 124.745C466.942 126.449 465.576 126.449 464.215 126.449H462.853V126.109ZM462.853 127.472H464.895L467.623 131.903H468.988L466.261 127.472C467.28 127.131 468.646 126.449 468.646 124.745C468.646 123.041 467.623 122.019 465.576 122.019H461.83V131.903H463.191V127.472H462.853ZM471.712 126.79C471.712 130.88 468.646 133.948 464.895 133.948C460.806 133.948 458.079 130.88 458.079 126.79C458.079 122.7 461.149 119.633 464.895 119.633C468.646 119.633 471.712 122.7 471.712 126.79ZM472.735 126.79C472.735 122.359 468.988 118.61 464.557 118.61C460.126 118.61 456.375 122.359 456.375 126.79C456.375 131.221 460.126 134.97 464.557 134.97C469.327 134.97 472.735 131.221 472.735 126.79Z" fill="#354CA1"/>
</g>
<defs>
<clipPath id="clip0_90_500">
<rect width="475" height="139.51" fill="white"/>
</clipPath>
</defs>
</svg>
