<svg width="780" height="173" viewBox="0 0 780 173" fill="none" xmlns="http://www.w3.org/2000/svg">
<g clip-path="url(#clip0_60_180)">
<g clip-path="url(#clip1_60_180)">
<path d="M56.6501 161.757H0.21582V68.6431H24.606V143.134H67.5111L56.677 161.757H56.6501Z" fill="#AD0000"/>
<path d="M119.552 164.155C87.1041 164.155 67.9692 143.161 67.9692 115.24C67.9692 87.3197 87.2119 66.2983 119.013 66.2983C150.815 66.2983 169.788 88.5864 169.788 114.701C169.788 140.816 151.974 164.155 119.552 164.155ZM144.077 115.483C144.077 97.5339 134.591 84.2204 119.013 84.2204C103.436 84.2204 93.68 97.4261 93.68 115.079C93.68 132.731 103.193 145.667 119.013 145.667C136.289 145.667 144.077 129.551 144.077 115.483Z" fill="#AD0000"/>
<path d="M265.516 68.6699V124.835C265.516 130.629 265.247 139.361 261.15 146.853C253.766 160.328 238.054 164.155 222.907 164.155C206.953 164.155 197.466 159.412 192.319 155.316C180.838 146.368 180.595 133.162 180.595 126.694V68.6969H204.851V121.843C204.851 135.022 207.249 146.503 223.285 146.503C238.081 146.503 241.368 136.343 241.368 123.676V68.6969H265.516V68.6699Z" fill="#AD0000"/>
<path d="M305.888 161.757H281.524V68.6699H305.888V161.757Z" fill="#AD0000"/>
<path d="M322.489 137.636C324.349 139.091 326.694 140.897 331.194 143.026C336.207 145.29 341.894 146.853 346.745 146.853C351.596 146.853 354.803 145.56 356.905 143.835C359.034 142.002 360.516 138.984 360.516 135.803C360.516 128.958 354.83 126.452 349.817 124.188L344.535 122.113C337.689 119.202 322.786 112.599 322.786 95.3239C322.786 81.8756 332.811 66.3252 356.555 66.3252C365.233 66.3252 372.509 68.0231 380.271 71.7422V91.6586C374.072 86.3494 367.362 83.3309 359.169 83.3309C349.278 83.3309 346.745 89.5295 346.745 93.3565C346.745 99.8246 352.431 102.331 358.118 104.972L364.855 107.721C371.431 110.766 384.88 116.965 384.88 134.537C384.88 150.33 372.213 164.182 349.952 164.182C346.529 164.182 335.183 163.778 322.516 158.496V137.663L322.489 137.636Z" fill="#AD0000"/>
<path d="M436.813 172.375L389.03 68.6699H415.549L437.837 118.609L460.799 68.6699H485.189L436.867 172.375H436.813Z" fill="#AD0000"/>
<path d="M519.335 161.757H494.945V68.6699H519.335V161.757Z" fill="#AD0000"/>
<path d="M594.365 161.757H537.904V68.6699H562.321V143.161H605.173L594.365 161.784V161.757Z" fill="#AD0000"/>
<path d="M668.937 161.757H612.503V68.6699H636.893V143.161H679.771L668.937 161.784V161.757Z" fill="#AD0000"/>
<path d="M744.048 161.757H687.21V68.6699H747.606V87.0232H711.465V104.81H742.458V123.002H711.465V143.323H754.586L744.022 161.811L744.048 161.757Z" fill="#AD0000"/>
<path d="M770.729 161.73C765.932 161.73 761.539 157.983 761.539 152.512C761.539 147.203 765.77 143.295 770.729 143.295C776.065 143.295 779.973 147.5 779.973 152.486C779.973 157.471 775.958 161.73 770.729 161.73ZM779.165 152.486C779.165 147.931 775.58 144.131 770.81 144.131C766.04 144.131 762.401 147.904 762.401 152.512C762.401 157.121 766.201 160.894 770.783 160.894C775.365 160.894 779.192 157.148 779.192 152.486H779.165ZM771.457 146.637C773.236 146.637 775.203 147.311 775.203 149.629C775.203 151.084 774.287 151.973 772.831 152.378C773.748 152.782 774.233 153.24 774.475 154.83C774.745 156.582 774.826 157.229 775.365 158.28H773.02C772.912 158.064 772.723 157.687 772.562 156.663C772.508 156.42 772.319 155.154 772.265 154.884C771.942 153.051 771.053 153.051 768.923 153.051V158.28H766.848V146.664H771.457V146.637ZM768.95 151.381H770.648C772.185 151.381 773.128 151.03 773.128 149.79C773.128 148.362 771.996 148.254 770.864 148.254H768.923V151.381H768.95Z" fill="#000104"/>
<path d="M38.7008 1.13184V28.6482C38.7008 31.7745 38.5122 35.3589 36.3292 38.8625C32.8796 44.4951 25.9802 46.5164 19.2696 46.5164C12.9362 46.5164 8.21989 44.6838 5.20144 42.1774C0.188653 37.9731 0 32.2596 0 28.5674V1.13184H8.27379V28.9178C8.27379 35.2242 11.1575 40.3986 19.4313 40.3986C27.7051 40.3986 30.454 34.5773 30.454 28.1631V1.13184H38.6739H38.7008Z" fill="#000104"/>
<path d="M109.419 45.4114H106.535L77.6982 13.4212L77.9408 45.4114H69.8018V1.13184H77.5096L101.63 28.5943L101.388 1.13184H109.419V45.4114Z" fill="#000104"/>
<path d="M153.537 45.4114H145.29V1.13184H153.537V45.4114Z" fill="#000104"/>
<path d="M206.575 45.4114H198.921L181.323 1.13184H190.405L203.153 35.7632L216.251 1.13184H224.443L206.575 45.4114Z" fill="#000104"/>
<path d="M277.131 45.4114H251.933V1.13184H277.886V7.41129H260.152V19.1886H275.46V25.4681H260.152V39.0781H280.77L277.131 45.4114Z" fill="#000104"/>
<path d="M346.771 45.4114H337.554L325.831 26.1688C323.244 26.4383 322.812 26.4383 319.066 26.4383V45.4384H310.927V1.13184H325.48C327.502 1.13184 329.55 1.18574 331.706 1.6978C338.417 3.31482 340.896 8.67796 340.896 13.2326C340.896 20.3206 335.829 23.2582 333.889 24.3901L346.798 45.4114H346.771ZM326.693 20.5092C330.628 19.7546 332.515 16.9248 332.515 13.7446C332.515 8.92052 328.822 7.16874 324.618 7.16874H319.039V20.6979C319.039 20.6979 325.265 20.7787 326.693 20.5092Z" fill="#000104"/>
<path d="M374.935 36.3023C378.465 38.7009 382.535 40.3987 386.793 40.3987C393.018 40.3987 395.39 36.5718 395.39 33.5533C395.39 29.1604 391.563 27.6512 388.491 26.4114L385.661 25.2795C383.02 24.0668 380.082 22.7731 377.899 20.2128C376.767 18.8923 375.204 16.4398 375.204 12.8554C375.204 6.22555 380.702 0 390.916 0C396.495 0 400.376 1.69788 401.831 2.31774V9.78301C400.376 8.6511 396.953 6.00995 391.428 6.00995C385.903 6.00995 383.693 9.37876 383.693 12.1547C383.693 16.1703 387.709 17.9221 390.97 19.2426L394.123 20.5632C396.684 21.776 399.594 23.0696 401.589 25.6568C402.963 27.3547 404.095 29.915 404.095 32.9874C404.095 40.4257 397.816 46.4626 387.413 46.4626C384.583 46.4626 380.136 46.0314 374.935 43.9562V36.3023Z" fill="#000104"/>
<path d="M443.443 45.4114H435.169V1.13184H443.443V45.4114Z" fill="#000104"/>
<path d="M496.104 45.4116H487.884V7.41148H474.328V1.07812H509.579V7.41148H496.104V45.4116Z" fill="#000104"/>
<path d="M559.761 45.4114H551.406V28.6752L535.29 1.13184H544.399L555.934 21.1291L567.361 1.13184H575.824L559.761 28.6752V45.4114Z" fill="#000104"/>
<path d="M671.605 46.5434C656.998 46.5434 647.835 36.5179 647.835 23.393C647.835 10.2681 656.675 0 671.336 0C685.997 0 694.917 10.349 694.917 23.0696C694.917 35.7902 686.132 46.5165 671.578 46.5165L671.605 46.5434ZM686.132 23.3391C686.132 13.2596 679.879 6.17165 671.417 6.17165C662.954 6.17165 656.621 13.5022 656.621 23.2852C656.621 33.0682 662.28 40.237 671.551 40.237C680.822 40.237 686.159 31.5859 686.159 23.366L686.132 23.3391Z" fill="#000104"/>
<path d="M729.549 45.4116H721.275V1.07812H747.605V7.33063H729.549V19.6739H745.18V26.0073H729.549V45.3847V45.4116Z" fill="#000104"/>
</g>
</g>
<defs>
<clipPath id="clip0_60_180">
<rect width="780" height="172.375" fill="white"/>
</clipPath>
<clipPath id="clip1_60_180">
<rect width="780" height="172.375" fill="white"/>
</clipPath>
</defs>
</svg>
