<svg width="764" height="194" viewBox="0 0 764 194" fill="none" xmlns="http://www.w3.org/2000/svg">
<g clip-path="url(#clip0_90_504)">
<path d="M144.384 20.2665C144.384 17.4218 147.01 8.79151 147.01 8.79151C147.01 8.79151 130.983 18.2271 130.983 28.9231C130.983 36.3981 135.719 40.8533 135.719 42.7264C135.719 44.9497 126.038 49.4136 97.0397 49.4136L75.9629 84.5213L68.7332 89.1692L59.9803 105.694H43.5163L53.4857 89.4843L51.096 84.4163L75.0878 48.3983C37.573 48.3983 32.6978 43.8904 32.6978 43.1466C32.6978 41.0372 49.0305 33.5972 49.0305 20.9755C49.0305 15.1198 43.2361 8.08252 43.2361 8.08252C40.4527 32.5906 3.42822 26.7349 3.42822 54.5428C3.42822 65.9215 17.284 70.8143 30.9646 71.7773L26.2994 78.7796C24.5488 81.4053 25.923 84.3639 28.05 88.7402L18.8595 103.489C18.8595 103.489 14.6231 106.535 13.7041 108.312C11.796 112.067 15.7522 117.677 22.0543 128.006H66.8601C81.9237 119.498 88.1293 115.988 88.1293 112.434L87.8755 108.723L96.4883 93.6768C98.738 92.6527 104.278 89.8431 106.615 86.0444L114.493 73.239C136.996 72.8188 160.559 63.812 160.559 44.512C160.559 31.5139 144.34 29.8421 144.34 20.3365L144.384 20.2665ZM112.83 70.3941L104.147 84.5388C101.766 88.4076 94.4402 91.4273 94.4402 91.4273L84.926 108.058L85.2321 112.347C85.3636 114.675 70.4924 122.579 65.976 125.205H23.7436C22.2031 122.579 14.9907 112.25 16.3036 109.642C16.8288 108.636 18.9295 107.174 21.0915 105.441L31.3936 88.8977C29.2227 84.5213 27.7261 81.8342 28.6977 80.3813L36.2338 69.1338C27.7523 69.1338 6.31666 67.0945 6.31666 54.5864C6.31666 31.4877 38.9735 32.5993 44.2427 14.8748C45.3971 16.7192 46.0599 18.8285 46.1682 21.0018C46.1682 32.8356 29.8094 38.2712 29.8094 43.1027C29.8094 49.8513 52.5667 51.3217 69.7221 51.3217L47.7964 84.1974L50.221 89.3179L38.3607 108.574H61.6346L70.8776 91.1823L78.0461 86.5784L98.6417 52.337C126.651 52.337 138.572 47.7855 138.572 42.7788C138.572 39.4352 133.837 35.9691 133.837 28.9755C133.837 21.9821 142.108 15.9776 142.108 15.9776C137.889 31.8203 157.732 31.8203 157.732 44.4771C157.732 62.3067 133.872 70.3592 112.9 70.3592" fill="white"/>
<path d="M147.809 20.2712C147.809 15.2208 152.807 0.262097 152.807 0.262097C152.807 0.262097 127.529 14.2667 127.529 28.9453C127.529 36 131.573 41.8471 131.573 41.8471C124.15 45.287 109.358 45.9959 95.0733 45.9959L73.4013 82.0316L66.0838 86.7318L57.8476 102.233H49.7075L57.4362 89.6726L55.0817 84.6835L81.5677 44.9631C51.5542 44.9631 45.3483 44.0176 38.6087 42.2847C38.6087 42.2847 52.5258 33.3918 52.5258 20.9539C52.5258 12.6824 42.101 -0.000488281 42.101 -0.000488281L38.1885 13.015C34.0048 27.1072 0 26.9671 0 54.5213C0 66.5914 11.5362 72.5432 24.9543 74.5564L23.4489 76.8061C20.928 80.5609 22.2497 84.421 24.1753 88.4734L16.2978 101.095C16.2978 101.095 11.9826 104.098 10.6872 106.662C7.99133 111.966 11.4837 117.524 20.1315 131.293H67.957C86.7143 120.684 91.5897 117.927 91.5897 111.931C91.5897 111.879 91.4934 110.618 91.4145 109.454L98.9683 96.2548C101.962 94.7931 107.082 91.8784 109.577 87.782L116.474 76.552C140.028 75.6243 164.028 65.4972 164.028 44.4466C164.028 30.1532 147.792 26.582 147.792 20.2712H147.809ZM114.531 73.1735L106.653 85.979C104.316 89.7777 98.7757 92.5873 96.5262 93.6116L87.9135 108.658L88.1672 112.369C88.1672 115.923 81.9617 119.432 66.898 127.94H22.1097C15.8076 117.612 11.8513 112.001 13.7595 108.255C14.6347 106.504 18.9149 103.424 18.9149 103.424L28.1054 88.6748C25.9347 84.2985 24.5254 81.3751 26.3548 78.7142L31.02 71.7118C17.3394 70.7489 3.48362 65.8735 3.48362 54.4861C3.48362 26.6695 40.5081 32.5164 43.2915 8.01715C43.2915 8.01715 49.0859 15.0195 49.0859 20.9101C49.0859 33.5317 32.7532 40.9717 32.7532 43.0812C32.7532 43.8515 37.6284 48.3329 75.1432 48.3329L51.1427 84.3247L53.5324 89.384L43.554 105.594H59.9481L68.7011 89.0688L75.9659 84.526L97.0515 49.4707C126.05 49.4707 135.73 45.0155 135.73 42.7835C135.73 40.9104 130.995 36.4551 130.995 28.9802C130.995 18.2668 147.021 8.84868 147.021 8.84868C147.021 8.84868 144.395 17.479 144.395 20.3237C144.395 29.8293 160.615 31.5011 160.615 44.4992C160.615 63.7992 137.043 72.806 114.548 73.2259" fill="#CFC493"/>
<path d="M142.112 15.947C142.112 15.947 133.841 22.0127 133.841 28.9449C133.841 35.8774 138.576 39.4485 138.576 42.7482C138.576 47.7549 126.628 52.3064 98.6458 52.3064L78.0503 86.5475L70.8905 91.1517L61.6387 108.544H38.3299L50.1899 89.2873L47.7656 84.1668L69.7262 51.2649C52.5357 51.2649 29.8135 49.7855 29.8135 43.0372C29.8135 38.2054 46.1724 32.7701 46.1724 20.9361C46.0641 18.7629 45.4013 16.6535 44.2468 14.8091C38.9951 32.5335 6.3208 31.4396 6.3208 54.5296C6.3208 67.0287 27.7564 69.0683 36.2379 69.0683L28.7019 80.3157C27.7302 81.7687 29.2269 84.4206 31.3977 88.8321L21.0956 105.375C18.9161 107.126 16.8329 108.57 16.3165 109.576C14.9686 112.202 22.2072 122.504 23.7477 125.139H66.0326C70.5666 122.513 85.4376 114.636 85.2889 112.281L84.9825 107.992L94.4967 91.3618C94.4967 91.3618 101.823 88.3421 104.204 84.4733L112.886 70.3286C133.893 70.3286 157.719 62.2761 157.719 44.4462C157.719 31.7897 137.885 31.7897 142.095 15.947" fill="#006747"/>
<path d="M85.3821 124.513C84.5712 124.515 83.7941 124.839 83.2216 125.413C82.6489 125.987 82.3272 126.765 82.3274 127.576C82.3182 127.981 82.3908 128.384 82.5414 128.76C82.6917 129.136 82.9165 129.477 83.2025 129.764C83.4871 130.056 83.8273 130.289 84.2033 130.447C84.5791 130.606 84.9829 130.688 85.3908 130.688C85.7987 130.688 86.2026 130.606 86.5783 130.447C86.954 130.289 87.2943 130.056 87.5791 129.764C88.1562 129.182 88.4801 128.396 88.4801 127.576C88.4801 126.756 88.1562 125.97 87.5791 125.388C87.2956 125.102 86.957 124.877 86.584 124.726C86.2108 124.576 85.8107 124.503 85.4083 124.513H85.3821ZM87.2727 129.476C87.0285 129.723 86.7374 129.919 86.4168 130.053C86.0959 130.188 85.7515 130.257 85.4039 130.257C85.0563 130.257 84.7119 130.188 84.3913 130.053C84.0705 129.919 83.7793 129.723 83.5351 129.476C83.2887 129.227 83.0942 128.932 82.9635 128.607C82.8328 128.282 82.7681 127.935 82.7736 127.585C82.7736 126.889 83.0502 126.221 83.5428 125.728C84.0353 125.236 84.7032 124.959 85.3995 124.959C86.0959 124.959 86.7638 125.236 87.2563 125.728C87.7488 126.221 88.0255 126.889 88.0255 127.585C88.0296 127.935 87.9639 128.283 87.8315 128.608C87.6992 128.933 87.5033 129.228 87.2552 129.476" fill="#CFC493"/>
<path d="M86.7773 126.853C86.7924 126.671 86.7498 126.488 86.6557 126.331C86.5612 126.174 86.4202 126.05 86.2521 125.978C85.9555 125.883 85.6442 125.841 85.3331 125.855H84.1514V129.234H84.7203V127.903H85.1931C85.4172 127.886 85.642 127.922 85.8496 128.008C85.9648 128.1 86.0548 128.22 86.1116 128.356C86.1681 128.492 86.1893 128.641 86.1732 128.787V129.164H86.7334C86.7252 129.106 86.7252 129.047 86.7334 128.989C86.7334 128.892 86.7334 128.814 86.7334 128.735V128.481C86.7258 128.292 86.6619 128.109 86.5498 127.956C86.409 127.778 86.2052 127.662 85.9809 127.632C86.1511 127.611 86.3151 127.554 86.4622 127.466C86.5711 127.394 86.6592 127.294 86.7176 127.178C86.776 127.061 86.8027 126.931 86.7948 126.8L86.7773 126.853ZM85.8671 127.378C85.6832 127.435 85.4903 127.459 85.2982 127.448H84.7203V126.232H85.2368C85.4832 126.215 85.7298 126.26 85.9544 126.363C86.0349 126.415 86.0988 126.488 86.1389 126.575C86.1792 126.662 86.1943 126.758 86.1822 126.853C86.1902 126.967 86.1599 127.08 86.0966 127.175C86.0333 127.27 85.9402 127.342 85.8319 127.378" fill="#CFC493"/>
<path d="M144.384 20.2665C144.384 17.4218 147.01 8.79151 147.01 8.79151C147.01 8.79151 130.983 18.2271 130.983 28.9231C130.983 36.3981 135.719 40.8533 135.719 42.7264C135.719 44.9497 126.038 49.4136 97.0397 49.4136L75.9629 84.5213L68.7332 89.1692L59.9803 105.694H43.5163L53.4857 89.4843L51.096 84.4163L75.0878 48.3983C37.573 48.3983 32.6978 43.8904 32.6978 43.1466C32.6978 41.0372 49.0305 33.5972 49.0305 20.9755C49.0305 15.1198 43.2361 8.08252 43.2361 8.08252C40.4527 32.5906 3.42822 26.7349 3.42822 54.5428C3.42822 65.9215 17.284 70.8143 30.9646 71.7773L26.2994 78.7796C24.5488 81.4053 25.923 84.3639 28.05 88.7402L18.8595 103.489C18.8595 103.489 14.6231 106.535 13.7041 108.312C11.796 112.067 15.7522 117.677 22.0543 128.006H66.8601C81.9237 119.498 88.1293 115.988 88.1293 112.434L87.8755 108.723L96.4883 93.6768C98.738 92.6527 104.278 89.8431 106.615 86.0444L114.493 73.239C136.996 72.8188 160.559 63.812 160.559 44.512C160.559 31.5139 144.34 29.8421 144.34 20.3365L144.384 20.2665ZM112.83 70.3941L104.147 84.5388C101.766 88.4076 94.4402 91.4273 94.4402 91.4273L84.926 108.058L85.2321 112.347C85.3636 114.675 70.4924 122.579 65.976 125.205H23.7436C22.2031 122.579 14.9907 112.25 16.3036 109.642C16.8288 108.636 18.9295 107.174 21.0915 105.441L31.3936 88.8977C29.2227 84.5213 27.7261 81.8342 28.6977 80.3813L36.2338 69.1338C27.7523 69.1338 6.31666 67.0945 6.31666 54.5864C6.31666 31.4877 38.9735 32.5993 44.2427 14.8748C45.3971 16.7192 46.0599 18.8285 46.1682 21.0018C46.1682 32.8356 29.8094 38.2712 29.8094 43.1027C29.8094 49.8513 52.5667 51.3217 69.7221 51.3217L47.7964 84.1974L50.221 89.3179L38.3607 108.574H61.6346L70.8776 91.1823L78.0461 86.5784L98.6417 52.337C126.651 52.337 138.572 47.7855 138.572 42.7788C138.572 39.4352 133.837 35.9691 133.837 28.9755C133.837 21.9821 142.108 15.9776 142.108 15.9776C137.889 31.8203 157.732 31.8203 157.732 44.4771C157.732 62.3067 133.872 70.3592 112.9 70.3592" fill="white"/>
<path d="M147.809 20.2712C147.809 15.2208 152.807 0.262097 152.807 0.262097C152.807 0.262097 127.529 14.2667 127.529 28.9453C127.529 36 131.573 41.8471 131.573 41.8471C124.15 45.287 109.358 45.9959 95.0733 45.9959L73.4013 82.0316L66.0838 86.7318L57.8476 102.233H49.7075L57.4362 89.6726L55.0817 84.6835L81.5677 44.9631C51.5542 44.9631 45.3483 44.0176 38.6087 42.2847C38.6087 42.2847 52.5258 33.3918 52.5258 20.9539C52.5258 12.6824 42.101 -0.000488281 42.101 -0.000488281L38.1885 13.015C34.0048 27.1072 0 26.9671 0 54.5213C0 66.5914 11.5362 72.5432 24.9543 74.5564L23.4489 76.8061C20.928 80.5609 22.2497 84.421 24.1753 88.4734L16.2978 101.095C16.2978 101.095 11.9826 104.098 10.6872 106.662C7.99133 111.966 11.4837 117.524 20.1315 131.293H67.957C86.7143 120.684 91.5897 117.927 91.5897 111.931C91.5897 111.879 91.4934 110.618 91.4145 109.454L98.9683 96.2548C101.962 94.7931 107.082 91.8784 109.577 87.782L116.474 76.552C140.028 75.6243 164.028 65.4972 164.028 44.4466C164.028 30.1532 147.792 26.582 147.792 20.2712H147.809ZM114.531 73.1735L106.653 85.979C104.316 89.7777 98.7757 92.5873 96.5262 93.6116L87.9135 108.658L88.1672 112.369C88.1672 115.923 81.9617 119.432 66.898 127.94H22.1097C15.8076 117.612 11.8513 112.001 13.7595 108.255C14.6347 106.504 18.9149 103.424 18.9149 103.424L28.1054 88.6748C25.9347 84.2985 24.5254 81.3751 26.3548 78.7142L31.02 71.7118C17.3394 70.7489 3.48362 65.8735 3.48362 54.4861C3.48362 26.6695 40.5081 32.5164 43.2915 8.01715C43.2915 8.01715 49.0859 15.0195 49.0859 20.9101C49.0859 33.5317 32.7532 40.9717 32.7532 43.0812C32.7532 43.8515 37.6284 48.3329 75.1432 48.3329L51.1427 84.3247L53.5324 89.384L43.554 105.594H59.9481L68.7011 89.0688L75.9659 84.526L97.0515 49.4707C126.05 49.4707 135.73 45.0155 135.73 42.7835C135.73 40.9104 130.995 36.4551 130.995 28.9802C130.995 18.2668 147.021 8.84868 147.021 8.84868C147.021 8.84868 144.395 17.479 144.395 20.3237C144.395 29.8293 160.615 31.5011 160.615 44.4992C160.615 63.7992 137.043 72.806 114.548 73.2259" fill="#CFC493"/>
<path d="M142.112 15.947C142.112 15.947 133.841 22.0127 133.841 28.9449C133.841 35.8774 138.576 39.4485 138.576 42.7482C138.576 47.7549 126.628 52.3064 98.6458 52.3064L78.0503 86.5475L70.8905 91.1517L61.6387 108.544H38.3299L50.1899 89.2873L47.7656 84.1668L69.7262 51.2649C52.5357 51.2649 29.8135 49.7855 29.8135 43.0372C29.8135 38.2054 46.1724 32.7701 46.1724 20.9361C46.0641 18.7629 45.4013 16.6535 44.2468 14.8091C38.9951 32.5335 6.3208 31.4396 6.3208 54.5296C6.3208 67.0287 27.7564 69.0683 36.2379 69.0683L28.7019 80.3157C27.7302 81.7687 29.2269 84.4206 31.3977 88.8321L21.0956 105.375C18.9161 107.126 16.8329 108.57 16.3165 109.576C14.9686 112.202 22.2072 122.504 23.7477 125.139H66.0326C70.5666 122.513 85.4376 114.636 85.2889 112.281L84.9825 107.992L94.4967 91.3618C94.4967 91.3618 101.823 88.3421 104.204 84.4733L112.886 70.3286C133.893 70.3286 157.719 62.2761 157.719 44.4462C157.719 31.7897 137.885 31.7897 142.095 15.947" fill="#006747"/>
<path d="M85.3821 124.513C84.5712 124.515 83.7941 124.839 83.2216 125.413C82.6489 125.987 82.3272 126.765 82.3274 127.576C82.3182 127.981 82.3908 128.384 82.5414 128.76C82.6917 129.136 82.9165 129.477 83.2025 129.764C83.4871 130.056 83.8273 130.289 84.2033 130.447C84.5791 130.606 84.9829 130.688 85.3908 130.688C85.7987 130.688 86.2026 130.606 86.5783 130.447C86.954 130.289 87.2943 130.056 87.5791 129.764C88.1562 129.182 88.4801 128.396 88.4801 127.576C88.4801 126.756 88.1562 125.97 87.5791 125.388C87.2956 125.102 86.957 124.877 86.584 124.726C86.2108 124.576 85.8107 124.503 85.4083 124.513H85.3821ZM87.2727 129.476C87.0285 129.723 86.7374 129.919 86.4168 130.053C86.0959 130.188 85.7515 130.257 85.4039 130.257C85.0563 130.257 84.7119 130.188 84.3913 130.053C84.0705 129.919 83.7793 129.723 83.5351 129.476C83.2887 129.227 83.0942 128.932 82.9635 128.607C82.8328 128.282 82.7681 127.935 82.7736 127.585C82.7736 126.889 83.0502 126.221 83.5428 125.728C84.0353 125.236 84.7032 124.959 85.3995 124.959C86.0959 124.959 86.7638 125.236 87.2563 125.728C87.7488 126.221 88.0255 126.889 88.0255 127.585C88.0296 127.935 87.9639 128.283 87.8315 128.608C87.6992 128.933 87.5033 129.228 87.2552 129.476" fill="#CFC493"/>
<path d="M86.7773 126.853C86.7924 126.671 86.7498 126.488 86.6557 126.331C86.5612 126.174 86.4202 126.05 86.2521 125.978C85.9555 125.883 85.6442 125.841 85.3331 125.855H84.1514V129.234H84.7203V127.903H85.1931C85.4172 127.886 85.642 127.922 85.8496 128.008C85.9648 128.1 86.0548 128.22 86.1116 128.356C86.1681 128.492 86.1893 128.641 86.1732 128.787V129.164H86.7334C86.7252 129.106 86.7252 129.047 86.7334 128.989C86.7334 128.892 86.7334 128.814 86.7334 128.735V128.481C86.7258 128.292 86.6619 128.109 86.5498 127.956C86.409 127.778 86.2052 127.662 85.9809 127.632C86.1511 127.611 86.3151 127.554 86.4622 127.466C86.5711 127.394 86.6592 127.294 86.7176 127.178C86.776 127.061 86.8027 126.931 86.7948 126.8L86.7773 126.853ZM85.8671 127.378C85.6832 127.435 85.4903 127.459 85.2982 127.448H84.7203V126.232H85.2368C85.4832 126.215 85.7298 126.26 85.9544 126.363C86.0349 126.415 86.0988 126.488 86.1389 126.575C86.1792 126.662 86.1943 126.758 86.1822 126.853C86.1902 126.967 86.1599 127.08 86.0966 127.175C86.0333 127.27 85.9402 127.342 85.8319 127.378" fill="#CFC493"/>
<path d="M219.898 28.5542V89.3779C219.898 97.6842 223.513 102.026 231.583 102.026C239.654 102.026 243.382 97.6493 243.382 89.3779V28.5542H260.013V89.5004C260.013 108.652 248.695 116.713 231.592 116.713C214.489 116.713 203.286 108.652 203.286 89.5004V28.5542H219.898Z" fill="#006747"/>
<path d="M312.029 52.7629C309.263 44.5701 305.647 41.0778 299.863 41.0778C294.075 41.0778 290.714 44.6926 290.714 50.5921C290.714 63.7214 327.809 64.6843 327.809 91.9057C327.809 106.838 317.568 116.711 300.106 116.711C286.618 116.711 276.141 109.368 271.678 92.2645L288.062 88.7634C289.988 99.2668 296.01 102.978 300.946 102.978C306.733 102.978 311.189 99.1268 311.189 92.6148C311.189 76.2382 274.094 75.9842 274.094 51.6688C274.094 36.7364 283.003 27.3359 300.228 27.3359C315.039 27.3359 324.073 36.0886 326.968 48.4128L312.029 52.7629Z" fill="#006747"/>
<path d="M341.657 115.514V28.5542H385.02V43.2503H358.28V63.2417H379.235V77.9378H358.28V115.514H341.657Z" fill="#006747"/>
<path d="M467.636 28.5542V115.514H458.007V74.0777H416.326V115.514H406.699V28.5542H416.326V65.8939H457.999V28.5542H467.636Z" fill="#006747"/>
<path d="M532.552 102.136C528.464 109.243 522.68 116.71 508.464 116.71C494.458 116.71 481.244 107.081 481.244 84.1927C481.244 63.956 491.361 51.6758 506.783 51.6758C519.79 51.6758 530.625 60.1046 530.625 80.0963V85.882H489.918C489.918 99.6064 498.109 109.243 508.464 109.243C516.175 109.243 522.197 105.147 525.812 98.6435L532.552 102.136ZM521.959 78.3983C521.959 66.8357 516.42 59.142 507.02 59.142C496.515 59.142 490.878 66.8532 490.161 78.3983H521.959Z" fill="#006747"/>
<path d="M543.506 64.9189C547.489 57.6977 555.192 51.6758 566.999 51.6758C577.599 51.6758 588.68 56.7348 588.68 70.468V102.031C588.68 108.893 589.275 112.263 590.123 115.519H581.204L580.241 106.845C575.867 111.668 568.925 116.718 559.533 116.718C549.904 116.718 541.702 110.941 541.702 99.5014C541.702 85.7682 552.207 78.9058 580.006 73.9693V70.5905C580.006 62.2842 574.587 59.1507 567.113 59.1507C557.484 59.1507 552.783 64.6913 551.094 68.91L543.506 64.9189ZM580.006 81.6631C560.128 85.1641 550.376 90.941 550.376 99.6064C550.376 105.392 555.918 109.234 560.731 109.234C566.999 109.234 574.947 104.657 579.987 98.8798L580.006 81.6631Z" fill="#006747"/>
<path d="M614.929 28.5542V115.514H606.254V28.5542H614.929Z" fill="#006747"/>
<path d="M639.746 52.8816V32.2773H648.401V52.8816H662.852V60.3478H648.401V104.909C648.401 107.797 650.442 109.285 655.501 109.285C658.082 109.29 660.661 109.09 663.212 108.69V115.789C661.646 116.27 658.153 116.751 653.094 116.751C643.703 116.751 639.727 114.344 639.727 106.397V60.3478H629.487V52.8816H639.746Z" fill="#006747"/>
<path d="M686.832 28.5542V61.3162H687.069C692.005 55.7755 698.519 51.6878 705.618 51.6878C714.895 51.6878 723.684 56.5021 723.684 69.9903V115.505H715.018V70.2266C715.018 61.92 711.043 59.1453 704.778 59.1453C698.273 59.1453 690.772 64.4497 686.832 68.6598V115.514H678.161V28.5542H686.832Z" fill="#006747"/>
</g>
<defs>
<clipPath id="clip0_90_504">
<rect width="764" height="193.729" fill="white"/>
</clipPath>
</defs>
</svg>
