<svg width="137" height="44" viewBox="0 0 137 44" fill="none" xmlns="http://www.w3.org/2000/svg">
<mask id="mask0_3202_19150" style="mask-type:luminance" maskUnits="userSpaceOnUse" x="0" y="-9" width="142" height="41">
<path d="M142 -8.76688H0V31.9924H142V-8.76688Z" fill="white"/>
</mask>
<g mask="url(#mask0_3202_19150)">
<path d="M131.187 25.598C133.062 25.598 135.207 25.0237 136.887 23.5392L134.883 20.1914C133.985 20.9062 132.897 21.4683 131.761 21.4683C129.537 21.4683 127.888 19.5378 127.888 16.5443C127.888 13.5509 129.47 11.6082 131.932 11.6082C132.757 11.6082 133.447 11.9258 134.278 12.6284L136.697 9.33562C135.408 8.22982 133.771 7.47232 131.645 7.47232C126.868 7.47232 122.64 10.7895 122.64 16.5382C122.64 22.2869 126.361 25.5919 131.187 25.5919M104.484 25.1826H109.603V13.5203C110.734 12.439 111.516 11.8403 112.805 11.8403C114.283 11.8403 114.949 12.6162 114.949 15.1087V25.1826H120.074V14.4489C120.074 10.1298 118.474 7.47842 114.711 7.47842C112.352 7.47842 110.611 8.68802 109.157 10.087H109.029L108.663 7.89992H104.484V25.1887V25.1826ZM88.2704 31.9393C92.333 31.9393 94.1779 29.6972 95.8213 25.3659L101.82 7.88772H96.9148L94.8194 15.3286C94.3917 16.9536 94.0008 18.5909 93.6159 20.2281H93.4754C93.0233 18.5359 92.6079 16.8925 92.113 15.3286L89.645 7.88772H84.495L91.1661 24.7305L90.9095 25.6347C90.4636 26.9726 89.5716 27.9072 87.8855 27.9072C87.5129 27.9072 87.0425 27.7667 86.7248 27.6873L85.8146 31.591C86.5232 31.7987 87.2074 31.9393 88.2765 31.9393M74.3294 25.598C79.7421 25.598 82.8883 22.3296 82.8883 18.5603C82.8883 15.353 81.1594 13.502 78.3798 12.384L75.4841 11.2111C73.4986 10.423 72.0141 9.91592 72.0141 8.52312C72.0141 7.22182 73.1443 6.48872 74.9098 6.48872C76.6753 6.48872 78.1293 7.11802 79.626 8.26652L82.2163 5.02872C80.2614 3.08602 77.5245 2.05352 74.9098 2.05352C70.1814 2.05352 66.8214 5.05922 66.8214 8.82242C66.8214 12.1213 69.0512 14.0579 71.4032 15.0109L74.3539 16.2694C76.3393 17.0819 77.6284 17.5462 77.6284 18.9757C77.6284 20.3258 76.5776 21.1689 74.4394 21.1689C72.57 21.1689 70.4746 20.2037 68.8618 18.7986L65.9111 22.3235C68.2264 24.4861 71.3665 25.6041 74.3233 25.6041M61.708 25.598C62.8749 25.598 63.7118 25.4147 64.28 25.1704L63.6691 21.3949C63.3758 21.4621 63.2353 21.4621 63.0398 21.4621C62.6244 21.4621 62.1112 21.1139 62.1112 20.0143V0.764522H56.9857V19.8066C56.9857 23.301 58.1892 25.598 61.7019 25.598M51.738 25.598C52.9048 25.598 53.7418 25.4147 54.3099 25.1704L53.699 21.3949C53.4058 21.4621 53.2714 21.4621 53.0698 21.4621C52.6544 21.4621 52.1412 21.1139 52.1412 20.0143V0.764522H47.0218V19.8066C47.0218 23.301 48.2253 25.598 51.738 25.598ZM40.5278 5.36472C42.2444 5.36472 43.4235 4.30172 43.4235 2.67672C43.4235 1.05165 42.2505 -0.00521851 40.5278 -0.00521851C38.805 -0.00521851 37.6321 1.05776 37.6321 2.67052C37.6321 4.28332 38.8111 5.35852 40.5278 5.35852M37.962 25.1826H43.0814V7.89382H37.962V25.1826ZM18.8649 25.1826H23.8744V20.9245L26.0675 18.4381L29.959 25.1826H35.5061L28.9938 15.017L35.0479 7.89382H29.4886L24.0027 14.7543H23.8744V0.764522H18.8649V25.1765V25.1826ZM8.41223 25.598C13.8249 25.598 16.9711 22.3296 16.9711 18.5603C16.9711 15.353 15.2422 13.502 12.4687 12.384L9.57296 11.2111C7.59361 10.423 6.10299 9.91592 6.10299 8.52312C6.10299 7.22182 7.22707 6.48872 8.99871 6.48872C10.7703 6.48872 12.2182 7.11802 13.7149 8.26652L16.3052 5.02872C14.3503 3.08602 11.6134 2.05352 8.99871 2.05352C4.27026 2.04742 0.910256 5.05312 0.910256 8.81632C0.910256 12.1152 3.14008 14.0518 5.49208 15.0048L8.44278 16.2633C10.4282 17.0758 11.7173 17.5401 11.7173 18.9696C11.7173 20.3197 10.6665 21.1628 8.52831 21.1628C6.65892 21.1628 4.5635 20.1976 2.9507 18.7925L0 22.3113C2.31535 24.4739 5.45543 25.5919 8.41223 25.5919" fill="#144C5F"/>
</g>
<path d="M0.589844 38.9925V35.201H1.94126C2.23623 35.201 2.4806 35.2547 2.67436 35.362C2.86813 35.4694 3.01314 35.6164 3.10941 35.8027C3.20567 35.9879 3.25381 36.1965 3.25381 36.4285C3.25381 36.6617 3.20506 36.8714 3.10756 37.0578C3.01129 37.2429 2.86566 37.3899 2.67066 37.4985C2.47689 37.6059 2.23314 37.6595 1.93941 37.6595H1.01008V37.1744H1.88758C2.07394 37.1744 2.22512 37.1424 2.34113 37.0783C2.45715 37.0129 2.54231 36.9239 2.59661 36.8116C2.65091 36.6993 2.67806 36.5716 2.67806 36.4285C2.67806 36.2853 2.65091 36.1582 2.59661 36.0471C2.54231 35.936 2.45653 35.8489 2.33928 35.786C2.22327 35.723 2.07023 35.6917 1.88017 35.6917H1.16188V38.9925H0.589844ZM5.04213 39.0499C4.77555 39.0499 4.5429 38.9888 4.3442 38.8666C4.1455 38.7444 3.99123 38.5735 3.88139 38.3538C3.77154 38.1341 3.71662 37.8773 3.71662 37.5836C3.71662 37.2886 3.77154 37.0307 3.88139 36.8097C3.99123 36.5888 4.1455 36.4174 4.3442 36.2952C4.5429 36.173 4.77555 36.1119 5.04213 36.1119C5.30871 36.1119 5.54135 36.173 5.74005 36.2952C5.93876 36.4174 6.09303 36.5888 6.20287 36.8097C6.31271 37.0307 6.36763 37.2886 6.36763 37.5836C6.36763 37.8773 6.31271 38.1341 6.20287 38.3538C6.09303 38.5735 5.93876 38.7444 5.74005 38.8666C5.54135 38.9888 5.30871 39.0499 5.04213 39.0499ZM5.04398 38.5852C5.21676 38.5852 5.35993 38.5395 5.47347 38.4482C5.58702 38.3569 5.67094 38.2353 5.72524 38.0835C5.78078 37.9317 5.80855 37.7644 5.80855 37.5817C5.80855 37.4003 5.78078 37.2338 5.72524 37.082C5.67094 36.9289 5.58702 36.8061 5.47347 36.7136C5.35993 36.621 5.21676 36.5746 5.04398 36.5746C4.86996 36.5746 4.72556 36.621 4.61078 36.7136C4.49724 36.8061 4.4127 36.9289 4.35716 37.082C4.30286 37.2338 4.27571 37.4003 4.27571 37.5817C4.27571 37.7644 4.30286 37.9317 4.35716 38.0835C4.4127 38.2353 4.49724 38.3569 4.61078 38.4482C4.72556 38.5395 4.86996 38.5852 5.04398 38.5852ZM7.51542 38.9925L6.67865 36.1488H7.25069L7.80792 38.2372H7.83569L8.39477 36.1488H8.96681L9.52219 38.2279H9.54996L10.1035 36.1488H10.6756L9.8406 38.9925H9.27597L8.69837 36.9394H8.6558L8.0782 38.9925H7.51542ZM12.3399 39.0499C12.0597 39.0499 11.8184 38.99 11.616 38.8703C11.4148 38.7493 11.2593 38.5795 11.1495 38.3611C11.0409 38.1414 10.9866 37.8841 10.9866 37.5891C10.9866 37.2979 11.0409 37.0411 11.1495 36.819C11.2593 36.5968 11.4124 36.4235 11.6086 36.2989C11.8061 36.1742 12.0369 36.1119 12.301 36.1119C12.4614 36.1119 12.6169 36.1384 12.7675 36.1915C12.9181 36.2446 13.0532 36.3278 13.1729 36.4413C13.2926 36.5549 13.387 36.7025 13.4562 36.8839C13.5253 37.0641 13.5598 37.283 13.5598 37.541V37.7373H11.2994V37.3226H13.0174C13.0174 37.177 12.9878 37.0479 12.9286 36.9356C12.8693 36.8221 12.786 36.7327 12.6786 36.6673C12.5725 36.6019 12.4478 36.5691 12.3047 36.5691C12.1492 36.5691 12.0134 36.6074 11.8974 36.684C11.7826 36.7592 11.6938 36.858 11.6308 36.9802C11.5691 37.1011 11.5383 37.2325 11.5383 37.3745V37.6983C11.5383 37.8884 11.5716 38.0501 11.6382 38.1834C11.7061 38.3167 11.8005 38.4185 11.9215 38.4888C12.0424 38.5579 12.1837 38.5926 12.3454 38.5926C12.4503 38.5926 12.546 38.5777 12.6323 38.5481C12.7187 38.5172 12.7934 38.4717 12.8564 38.4112C12.9193 38.3507 12.9674 38.2759 13.0008 38.1871L13.5247 38.2816C13.4827 38.4359 13.4074 38.571 13.2988 38.687C13.1914 38.8018 13.0563 38.8913 12.8934 38.9555C12.7317 39.0184 12.5472 39.0499 12.3399 39.0499ZM14.174 38.9925V36.1488H14.709V36.6006H14.7386C14.7905 36.4476 14.8818 36.3273 15.0126 36.2396C15.1447 36.1508 15.294 36.1063 15.4606 36.1063C15.4952 36.1063 15.5359 36.1076 15.5828 36.1101C15.6309 36.1125 15.6686 36.1156 15.6957 36.1193V36.6488C15.6735 36.6426 15.634 36.6357 15.5772 36.6283C15.5205 36.6197 15.4637 36.6155 15.4069 36.6155C15.2761 36.6155 15.1595 36.6431 15.057 36.6987C14.9558 36.753 14.8756 36.8289 14.8164 36.9264C14.7571 37.0226 14.7275 37.1326 14.7275 37.256V38.9925H14.174ZM17.2985 39.0499C17.0183 39.0499 16.777 38.99 16.5746 38.8703C16.3734 38.7493 16.2179 38.5795 16.1081 38.3611C15.9995 38.1414 15.9452 37.8841 15.9452 37.5891C15.9452 37.2979 15.9995 37.0411 16.1081 36.819C16.2179 36.5968 16.371 36.4235 16.5672 36.2989C16.7647 36.1742 16.9955 36.1119 17.2596 36.1119C17.42 36.1119 17.5755 36.1384 17.7261 36.1915C17.8767 36.2446 18.0118 36.3278 18.1315 36.4413C18.2512 36.5549 18.3457 36.7025 18.4148 36.8839C18.4839 37.0641 18.5184 37.283 18.5184 37.541V37.7373H16.258V37.3226H17.976C17.976 37.177 17.9464 37.0479 17.8872 36.9356C17.8279 36.8221 17.7446 36.7327 17.6372 36.6673C17.5311 36.6019 17.4065 36.5691 17.2633 36.5691C17.1078 36.5691 16.972 36.6074 16.856 36.684C16.7412 36.7592 16.6524 36.858 16.5894 36.9802C16.5277 37.1011 16.4969 37.2325 16.4969 37.3745V37.6983C16.4969 37.8884 16.5302 38.0501 16.5968 38.1834C16.6647 38.3167 16.7591 38.4185 16.8801 38.4888C17.001 38.5579 17.1423 38.5926 17.304 38.5926C17.4089 38.5926 17.5046 38.5777 17.591 38.5481C17.6774 38.5172 17.752 38.4717 17.815 38.4112C17.8779 38.3507 17.926 38.2759 17.9594 38.1871L18.4833 38.2816C18.4413 38.4359 18.366 38.571 18.2574 38.687C18.15 38.8018 18.0149 38.8913 17.852 38.9555C17.6903 39.0184 17.5058 39.0499 17.2985 39.0499ZM20.1971 39.048C19.9675 39.048 19.7626 38.9894 19.5825 38.8721C19.4035 38.7537 19.2628 38.5851 19.1604 38.3667C19.0592 38.147 19.0086 37.8836 19.0086 37.5763C19.0086 37.269 19.0598 37.0061 19.1622 36.7876C19.2659 36.5692 19.4078 36.4019 19.588 36.2859C19.7682 36.1699 19.9725 36.1119 20.2008 36.1119C20.3773 36.1119 20.5192 36.1415 20.6266 36.2008C20.7352 36.2588 20.8191 36.3267 20.8783 36.4044C20.9388 36.4822 20.9857 36.5507 21.019 36.6099H21.0524V35.201H21.6059V38.9925H21.0653V38.5499H21.019C20.9857 38.6104 20.9376 38.6796 20.8746 38.7574C20.8129 38.8351 20.7278 38.9029 20.6192 38.9609C20.5106 39.0189 20.3699 39.048 20.1971 39.048ZM20.3193 38.5759C20.4785 38.5759 20.613 38.534 20.7228 38.4501C20.8339 38.3649 20.9178 38.247 20.9746 38.0965C21.0326 37.9459 21.0616 37.7706 21.0616 37.5707C21.0616 37.3732 21.0332 37.2004 20.9765 37.0523C20.9197 36.9042 20.8364 36.7889 20.7265 36.7062C20.6167 36.6235 20.4809 36.5821 20.3193 36.5821C20.1526 36.5821 20.0138 36.6253 19.9027 36.7117C19.7916 36.7981 19.7077 36.916 19.651 37.0653C19.5954 37.2146 19.5676 37.3831 19.5676 37.5707C19.5676 37.7608 19.596 37.9317 19.6528 38.0835C19.7096 38.2353 19.7935 38.3556 19.9046 38.4445C20.0169 38.5321 20.1551 38.5759 20.3193 38.5759ZM23.82 38.9925V35.201H24.3735V36.6099H24.4068C24.4389 36.5507 24.4852 36.4822 24.5457 36.4044C24.6062 36.3267 24.6901 36.2588 24.7975 36.2008C24.9048 36.1415 25.0468 36.1119 25.2233 36.1119C25.4528 36.1119 25.6577 36.1699 25.8379 36.2859C26.0181 36.4019 26.1594 36.5692 26.2618 36.7876C26.3655 37.0061 26.4173 37.269 26.4173 37.5763C26.4173 37.8836 26.3661 38.147 26.2637 38.3667C26.1612 38.5851 26.0205 38.7537 25.8416 38.8721C25.6626 38.9894 25.4584 39.048 25.2288 39.048C25.056 39.048 24.9147 39.0189 24.8049 38.9609C24.6963 38.9029 24.6111 38.8351 24.5494 38.7574C24.4877 38.6796 24.4402 38.6104 24.4068 38.5499H24.3606V38.9925H23.82ZM24.3624 37.5707C24.3624 37.7706 24.3914 37.9459 24.4494 38.0965C24.5074 38.247 24.5914 38.3649 24.7012 38.4501C24.811 38.534 24.9456 38.5759 25.1048 38.5759C25.2702 38.5759 25.4084 38.5321 25.5195 38.4445C25.6305 38.3556 25.7145 38.2353 25.7712 38.0835C25.8292 37.9317 25.8582 37.7608 25.8582 37.5707C25.8582 37.3831 25.8299 37.2146 25.7731 37.0653C25.7175 36.916 25.6336 36.7981 25.5213 36.7117C25.4102 36.6253 25.2714 36.5821 25.1048 36.5821C24.9443 36.5821 24.8086 36.6235 24.6975 36.7062C24.5877 36.7889 24.5043 36.9042 24.4476 37.0523C24.3908 37.2004 24.3624 37.3732 24.3624 37.5707ZM27.292 40.0588C27.2094 40.0588 27.1341 40.0519 27.0662 40.0383C26.9983 40.026 26.9477 40.0125 26.9144 39.9977L27.0477 39.5442C27.1489 39.5713 27.239 39.583 27.318 39.5793C27.3969 39.5756 27.4667 39.546 27.5272 39.4905C27.5889 39.4349 27.6432 39.3442 27.6901 39.2183L27.7586 39.0294L26.7182 36.1488H27.3106L28.0307 38.3555H28.0603L28.7805 36.1488H29.3747L28.2029 39.372C28.1486 39.5201 28.0794 39.6453 27.9955 39.7477C27.9116 39.8514 27.8116 39.9291 27.6956 39.981C27.5796 40.0328 27.4451 40.0588 27.292 40.0588ZM30.2596 39.0276C30.1584 39.0276 30.0714 38.9918 29.9986 38.9202C29.9258 38.8474 29.8894 38.7597 29.8894 38.6573C29.8894 38.5561 29.9258 38.4698 29.9986 38.3982C30.0714 38.3254 30.1584 38.289 30.2596 38.289C30.3608 38.289 30.4478 38.3254 30.5206 38.3982C30.5935 38.4698 30.6299 38.5561 30.6299 38.6573C30.6299 38.7252 30.6126 38.7875 30.578 38.8443C30.5447 38.8998 30.5003 38.9442 30.4447 38.9776C30.3892 39.0109 30.3275 39.0276 30.2596 39.0276ZM30.2596 36.9579C30.1584 36.9579 30.0714 36.9215 29.9986 36.8487C29.9258 36.7759 29.8894 36.6889 29.8894 36.5877C29.8894 36.4865 29.9258 36.4 29.9986 36.3284C30.0714 36.2556 30.1584 36.2192 30.2596 36.2192C30.3608 36.2192 30.4478 36.2556 30.5206 36.3284C30.5935 36.4 30.6299 36.4865 30.6299 36.5877C30.6299 36.6556 30.6126 36.7179 30.578 36.7747C30.5447 36.8302 30.5003 36.8746 30.4447 36.908C30.3892 36.9413 30.3275 36.9579 30.2596 36.9579Z" fill="black"/>
<mask id="mask1_3202_19150" style="mask-type:luminance" maskUnits="userSpaceOnUse" x="34" y="32" width="49" height="12">
<path d="M82.2384 32.5187H34.2773V43.4663H82.2384V32.5187Z" fill="white"/>
</mask>
<g mask="url(#mask1_3202_19150)">
<path d="M36.7672 33.4695H38.3568L40.8466 41.173H39.4115L38.2494 37.0693C38.0065 36.2535 37.7804 35.3711 37.5563 34.5268H37.5111C37.3002 35.3806 37.076 36.2535 36.8331 37.0693L35.6597 41.173H34.2773L36.7672 33.4695ZM35.7482 38.0106H39.3456V39.0831H35.7482V38.0106Z" fill="#243746"/>
<path d="M41.4336 35.3806H42.5354L42.639 36.1698H42.6766C43.1626 35.6582 43.7182 35.238 44.4376 35.238C45.2776 35.238 45.756 35.6183 46.0216 36.2763C46.5697 35.6868 47.1384 35.238 47.8673 35.238C49.0765 35.238 49.6377 36.0785 49.6377 37.5409V41.173H48.2967V37.7158C48.2967 36.765 48.018 36.4037 47.4153 36.4037C47.0499 36.4037 46.6619 36.6395 46.2137 37.1263V41.173H44.8689V37.7158C44.8689 36.765 44.5883 36.4037 43.9856 36.4037C43.6296 36.4037 43.2322 36.6395 42.784 37.1263V41.173H41.4336V35.3806Z" fill="#243746"/>
<path d="M51.0527 35.3806H52.1545L52.2581 35.9986H52.2958C52.7779 35.5784 53.3938 35.238 54.0229 35.238C55.458 35.238 56.2829 36.3999 56.2829 38.1874C56.2829 40.1689 55.1096 41.3137 53.8345 41.3137C53.2825 41.2887 52.7581 41.0631 52.3579 40.6785L52.3975 41.6465V43.472H51.0527V35.3806ZM54.8968 38.2007C54.8968 37.0445 54.5201 36.3618 53.6499 36.3618C53.2337 36.3618 52.842 36.5729 52.3975 37.0122V39.7106C52.711 40.0047 53.1187 40.1754 53.5463 40.1917C54.3129 40.1917 54.8968 39.5128 54.8968 38.2007Z" fill="#243746"/>
<path d="M57.3359 39.6821V32.8419H58.6825V39.7448C58.6825 40.0795 58.8313 40.1974 58.9707 40.1974C59.0417 40.1991 59.1126 40.1914 59.1816 40.1746L59.3493 41.1882C59.1224 41.2737 58.8812 41.3137 58.6392 41.3061C57.6862 41.3137 57.3359 40.6956 57.3359 39.6821Z" fill="#243746"/>
<path d="M60.1133 33.5969C60.1133 33.1386 60.4674 32.8362 60.9439 32.8362C61.4204 32.8362 61.7764 33.1462 61.7764 33.5969C61.7592 33.8076 61.6641 34.0041 61.5101 34.1473C61.356 34.2905 61.1543 34.37 60.9449 34.37C60.7355 34.37 60.5337 34.2905 60.3797 34.1473C60.2256 34.0041 60.1306 33.8076 60.1133 33.5969ZM60.2678 35.3806H61.6125V41.1729H60.2678V35.3806Z" fill="#243746"/>
<path d="M62.5527 35.4415L63.3927 35.3806H65.7902V36.4607H62.5527V35.4415ZM63.323 34.7816C63.323 33.5798 63.8692 32.7012 65.2252 32.7012C65.5846 32.7018 65.9407 32.7689 66.2762 32.899L66.0181 33.9145C65.8227 33.8276 65.612 33.781 65.3985 33.7775C64.9201 33.7775 64.6696 34.0818 64.6696 34.7531V41.1729H63.323V34.7816Z" fill="#243746"/>
<path d="M66.4102 33.5969C66.4102 33.1386 66.7643 32.8362 67.2408 32.8362C67.7173 32.8362 68.0733 33.1462 68.0733 33.5969C68.056 33.8076 67.961 34.0041 67.8069 34.1473C67.6529 34.2905 67.4511 34.37 67.2417 34.37C67.0323 34.37 66.8306 34.2905 66.6765 34.1473C66.5225 34.0041 66.4274 33.8076 66.4102 33.5969ZM66.5628 35.3806H67.9094V41.1729H66.5628V35.3806Z" fill="#243746"/>
<path d="M69.0117 38.2806C69.0117 36.3999 70.3056 35.238 71.6485 35.238C73.2004 35.238 74.0178 36.379 74.0178 37.9896C74.0188 38.2109 73.9992 38.4319 73.9595 38.6495H70.3245C70.4375 39.6783 71.091 40.2621 72.0195 40.2621C72.4944 40.2553 72.957 40.1093 73.3511 39.8418L73.805 40.6956C73.2253 41.0962 72.5412 41.3146 71.8387 41.3232C70.251 41.3137 69.0117 40.1917 69.0117 38.2806ZM72.8614 37.7253C72.8614 36.8335 72.4697 36.2915 71.6843 36.2915C71.0157 36.2915 70.4281 36.7954 70.3113 37.7253H72.8614Z" fill="#243746"/>
<path d="M74.7266 38.2806C74.7266 36.3942 75.9 35.238 77.1562 35.238C77.806 35.238 78.2166 35.4833 78.6629 35.8751L78.6121 34.9414V32.842H79.9568V41.173H78.855L78.7515 40.5454H78.7138C78.2882 41.0027 77.7035 41.2754 77.0827 41.3061C75.6514 41.3137 74.7266 40.1917 74.7266 38.2806ZM78.6102 39.5414V36.843C78.2963 36.5365 77.8773 36.3641 77.4406 36.3619C76.7117 36.3619 76.109 37.0598 76.109 38.2635C76.109 39.5224 76.5855 40.1879 77.4142 40.1879C77.8568 40.1917 78.2316 39.994 78.6102 39.5414Z" fill="#243746"/>
<path d="M80.9869 32.9713H80.7402V32.842H81.3805V32.9713H81.1338V33.5741H80.9869V32.9713ZM81.5011 32.842H81.6894L81.8062 33.1158L81.8759 33.306L81.9437 33.1158L82.0586 32.842H82.2469V33.5741H82.1094V33.2508L82.1264 33.0036L81.9286 33.4695H81.8137L81.6254 33.0112H81.616L81.6329 33.2584V33.5817H81.4936L81.5011 32.842Z" fill="#243746"/>
<path d="M43.1895 32.6004C43.1904 32.5866 43.1962 32.5736 43.2059 32.5638C43.2156 32.554 43.2285 32.5481 43.2422 32.5472H43.3552C43.3693 32.5476 43.3826 32.5533 43.3927 32.5632C43.4028 32.573 43.4089 32.5863 43.4099 32.6004V34.4811C43.4094 34.4956 43.4035 34.5094 43.3933 34.5196C43.3832 34.5299 43.3696 34.5358 43.3552 34.5363H43.2422C43.2282 34.5354 43.2151 34.5292 43.2053 34.519C43.1956 34.5088 43.1899 34.4953 43.1895 34.4811V32.6004Z" fill="#002E3E"/>
<path d="M43.8564 34.2301L43.8978 34.175C43.9261 34.1389 43.9581 34.116 43.9977 34.1503C44.1265 34.2752 44.2942 34.3511 44.4723 34.3651C44.5174 34.3704 44.5632 34.3664 44.6067 34.3535C44.6503 34.3405 44.6909 34.3189 44.7261 34.2898C44.7612 34.2607 44.7902 34.2248 44.8113 34.1841C44.8324 34.1435 44.8452 34.099 44.849 34.0533C44.849 33.8631 44.6813 33.7414 44.3574 33.6045C44.0334 33.4676 43.8621 33.3402 43.8621 33.0169C43.8621 32.8267 44.0146 32.5111 44.461 32.5111C44.6312 32.5134 44.7975 32.5634 44.9412 32.6556C44.9492 32.6603 44.9561 32.6668 44.9614 32.6744C44.9667 32.6821 44.9703 32.6909 44.9719 32.7001C44.9735 32.7093 44.9731 32.7188 44.9708 32.7279C44.9684 32.7369 44.9641 32.7454 44.9582 32.7526L44.9262 32.8058C44.9222 32.815 44.9162 32.8231 44.9087 32.8297C44.9011 32.8362 44.8922 32.8409 44.8826 32.8435C44.873 32.846 44.863 32.8464 44.8532 32.8444C44.8435 32.8425 44.8343 32.8384 44.8264 32.8324C44.7162 32.7606 44.5899 32.718 44.4591 32.7088C44.1596 32.7088 44.0711 32.899 44.0711 33.0207C44.0711 33.2109 44.2161 33.3231 44.4478 33.4219C44.8245 33.5779 45.0731 33.7224 45.0731 34.0533C45.0578 34.2017 44.9856 34.3381 44.8719 34.4334C44.7582 34.5287 44.612 34.5751 44.4647 34.5629C44.25 34.5577 44.0439 34.4762 43.8828 34.3328C43.8724 34.3301 43.863 34.3246 43.8555 34.3169C43.8479 34.3093 43.8425 34.2997 43.8398 34.2893C43.8372 34.2788 43.8373 34.2678 43.8402 34.2574C43.8431 34.247 43.8487 34.2376 43.8564 34.2301Z" fill="#002E3E"/>
<path d="M45.4825 32.6156C45.4822 32.6068 45.4837 32.5979 45.4869 32.5896C45.4901 32.5813 45.4949 32.5737 45.5011 32.5674C45.5072 32.561 45.5146 32.5559 45.5227 32.5524C45.5308 32.549 45.5396 32.5472 45.5484 32.5472H45.6312C45.6492 32.5472 45.6665 32.5544 45.6792 32.5672C45.6919 32.5801 45.699 32.5975 45.699 32.6156V33.42L46.5767 32.5757C46.5909 32.5598 46.6103 32.5496 46.6313 32.5472H46.7688C46.7808 32.546 46.7928 32.5489 46.8029 32.5555C46.813 32.5622 46.8205 32.5721 46.8242 32.5836C46.828 32.5952 46.8277 32.6077 46.8234 32.619C46.8192 32.6304 46.8112 32.6399 46.8008 32.6461L45.9138 33.4847L46.8442 34.4469C46.8485 34.4529 46.8515 34.4596 46.8532 34.4668C46.8549 34.474 46.8551 34.4814 46.8539 34.4887C46.8527 34.496 46.85 34.5029 46.8461 34.5091C46.8421 34.5153 46.837 34.5207 46.831 34.5249C46.8212 34.5323 46.8093 34.5363 46.7971 34.5363H46.6539C46.6352 34.5351 46.6173 34.5277 46.6031 34.5154L45.699 33.5646V34.4678C45.699 34.486 45.6919 34.5034 45.6792 34.5162C45.6665 34.5291 45.6492 34.5363 45.6312 34.5363H45.5503C45.5326 34.5363 45.5156 34.5293 45.503 34.5169C45.4903 34.5045 45.4829 34.4876 45.4825 34.4697V32.6156Z" fill="#002E3E"/>
<path d="M42.4018 33.5246C42.4829 33.4796 42.5509 33.414 42.5991 33.3343C42.6474 33.2546 42.6741 33.1635 42.6768 33.0701C42.6755 32.9967 42.6593 32.9244 42.6291 32.8576C42.5989 32.7908 42.5555 32.731 42.5014 32.682C42.4473 32.6329 42.3838 32.5956 42.3148 32.5724C42.2459 32.5492 42.1729 32.5406 42.1005 32.5472H41.4846C41.4709 32.5477 41.458 32.5535 41.4485 32.5634C41.439 32.5734 41.4337 32.5866 41.4337 32.6004V33.4885C41.4332 33.4966 41.4351 33.5048 41.4391 33.5119C41.4431 33.519 41.4491 33.5247 41.4563 33.5284L41.6277 33.6292C41.6352 33.6309 41.6429 33.6309 41.6503 33.6292H42.1024C42.2017 33.6219 42.2999 33.6546 42.3754 33.7201C42.451 33.7857 42.4977 33.8788 42.5054 33.9791C42.5077 34.0262 42.5005 34.0733 42.4842 34.1175C42.4679 34.1618 42.4429 34.2022 42.4106 34.2363C42.3784 34.2705 42.3396 34.2976 42.2967 34.3162C42.2537 34.3347 42.2075 34.3443 42.1607 34.3442C42.1533 34.3426 42.1456 34.3426 42.1381 34.3442L41.8745 34.4963C41.8717 34.4995 41.8701 34.5035 41.8701 34.5078C41.8701 34.512 41.8717 34.516 41.8745 34.5192C41.8768 34.5202 41.8794 34.5208 41.882 34.5208C41.8846 34.5208 41.8871 34.5202 41.8895 34.5192H42.1325C42.2088 34.5257 42.2857 34.5164 42.3584 34.492C42.4311 34.4675 42.4981 34.4284 42.5553 34.377C42.6126 34.3256 42.6589 34.263 42.6914 34.1929C42.724 34.1229 42.7421 34.0469 42.7446 33.9696C42.7381 33.8693 42.702 33.7733 42.6409 33.6939C42.5798 33.6146 42.4965 33.5556 42.4018 33.5246ZM42.1005 33.439H41.6428V32.7431H42.1005C42.1463 32.7389 42.1926 32.745 42.2358 32.761C42.2791 32.777 42.3183 32.8024 42.3507 32.8355C42.3831 32.8686 42.4079 32.9084 42.4232 32.9523C42.4385 32.9961 42.4441 33.0429 42.4395 33.0891C42.4421 33.1351 42.4352 33.1812 42.4192 33.2244C42.4032 33.2675 42.3785 33.3068 42.3466 33.3398C42.3147 33.3727 42.2763 33.3985 42.2339 33.4156C42.1915 33.4327 42.1461 33.4407 42.1005 33.439Z" fill="#002E3E"/>
<path d="M41.3027 34.1446V33.7072C41.3027 33.6946 41.3076 33.6825 41.3165 33.6736C41.3253 33.6646 41.3373 33.6596 41.3497 33.6596C41.3572 33.6577 41.3649 33.6577 41.3723 33.6596L41.749 33.8783L42.1257 34.097C42.1309 34.1 42.1355 34.104 42.1392 34.1087C42.1429 34.1135 42.1456 34.119 42.1472 34.1248C42.1488 34.1306 42.1492 34.1367 42.1484 34.1427C42.1476 34.1487 42.1457 34.1545 42.1427 34.1598C42.139 34.1672 42.1331 34.1732 42.1257 34.1769L41.749 34.3956L41.3723 34.6143C41.3672 34.6173 41.3614 34.6193 41.3555 34.6201C41.3495 34.6208 41.3435 34.6204 41.3377 34.6188C41.3319 34.6172 41.3265 34.6145 41.3218 34.6108C41.3171 34.6071 41.3131 34.6024 41.3102 34.5971C41.3086 34.5896 41.3086 34.5818 41.3102 34.5743L41.3027 34.1446Z" fill="#E41B49"/>
</g>
</svg>
